<?xml version="1.0" encoding="UTF-8" standalone="no"?>
<svg
   id="Group_344"
   data-name="Group 344"
   width="1840"
   height="900"
   viewBox="0 0 1840 900"
   version="1.1"
   sodipodi:docname="contactpage-banner-image.svg"
   inkscape:version="1.2.2 (732a01da63, 2022-12-09)"
   xmlns:inkscape="http://www.inkscape.org/namespaces/inkscape"
   xmlns:sodipodi="http://sodipodi.sourceforge.net/DTD/sodipodi-0.dtd"
   xmlns="http://www.w3.org/2000/svg"
   xmlns:svg="http://www.w3.org/2000/svg">
  <sodipodi:namedview
     id="namedview12"
     pagecolor="#ffffff"
     bordercolor="#000000"
     borderopacity="0.25"
     inkscape:showpageshadow="2"
     inkscape:pageopacity="0.0"
     inkscape:pagecheckerboard="0"
     inkscape:deskcolor="#d1d1d1"
     showgrid="false"
     inkscape:zoom="0.6576087"
     inkscape:cx="920.76033"
     inkscape:cy="450.87603"
     inkscape:window-width="1920"
     inkscape:window-height="1010"
     inkscape:window-x="-6"
     inkscape:window-y="-6"
     inkscape:window-maximized="1"
     inkscape:current-layer="Group_344" />
  <defs
     id="defs4">
    <clipPath
       id="clip-path">
      <path
         id="Path_27050"
         data-name="Path 27050"
         d="M40,0H1800c22.091,0,40,17.673,40,39.474V860.526c0,21.8-17.909,39.474-40,39.474H40c-22.091,0-40-17.673-40-39.474V39.474C0,17.673,17.909,0,40,0Z"
         fill="#d6ffe0" />
    </clipPath>
  </defs>
  <path
     id="Path_186"
     data-name="Path 186"
     d="M40,0H1800c22.091,0,40,17.673,40,39.474V860.526c0,21.8-17.909,39.474-40,39.474H40c-22.091,0-40-17.673-40-39.474V39.474C0,17.673,17.909,0,40,0Z"
     fill="#ff9e2c"
     style="fill:#2F323C;fill-opacity:1" />
</svg>
