<svg width="494" height="350" viewBox="0 0 494 350" fill="none" xmlns="http://www.w3.org/2000/svg">
<path d="M128.241 333.843L128.222 327.061C127.094 327.061 124.565 327.211 123.46 327.849C123.254 327.952 123.085 328.115 122.976 328.317C122.772 328.66 122.539 328.983 122.278 329.284C121.335 330.209 123.467 331.761 124.432 332.321L124.438 334.269C125.685 333.983 126.961 333.839 128.241 333.842V333.843Z" fill="#2E2C2B" stroke="#9C9692" stroke-linecap="round" stroke-linejoin="round"/>
<path d="M182.08 106.054C181.938 103.512 181.2 101.039 179.927 98.8344C178.654 96.6297 176.881 94.7546 174.751 93.3603L125.929 65.1741C121.899 62.8495 118.602 64.7517 118.602 69.4079V115.988C118.744 118.53 119.481 121.003 120.753 123.208C122.026 125.413 123.799 127.288 125.929 128.682L174.751 156.869C178.782 159.197 182.08 157.294 182.08 152.641V106.054Z" fill="#2E2C2B" stroke="#9C9692"/>
<path d="M182.08 152.639V106.054C181.938 103.512 181.2 101.039 179.927 98.8344C178.654 96.6297 176.881 94.7546 174.751 93.3603L125.929 65.1741C123.938 64.0261 122.127 63.9119 120.804 64.6483L122.723 63.5328V63.5387C124.063 62.6811 125.947 62.7421 128.034 63.9483L176.855 92.1355C178.985 93.5297 180.758 95.4048 182.03 97.6095C183.303 99.8143 184.04 102.287 184.182 104.829V151.409C184.182 153.847 183.273 155.519 181.836 156.234L180.096 157.25C181.318 156.443 182.075 154.859 182.075 152.641L182.08 152.639Z" fill="#2E2C2B" stroke="#9C9692"/>
<path d="M164.79 121.147C164.48 121.034 164.159 120.956 163.831 120.914L163.8 120.91L163.769 120.91C163.515 120.909 163.265 120.97 163.04 121.087C162.814 121.205 162.621 121.375 162.477 121.584L162.475 121.586C162.143 122.072 161.936 122.631 161.872 123.216L161.872 123.217C161.776 124.098 161.738 124.984 161.759 125.871L161.759 125.875C161.803 127.247 161.724 128.62 161.522 129.977L161.522 129.977L161.521 129.988C161.492 130.21 161.418 130.424 161.301 130.614C161.192 130.792 161.05 130.945 160.883 131.067C160.401 131.258 159.866 131.273 159.374 131.107L159.374 131.107L159.368 131.105C158.473 130.816 157.618 130.415 156.824 129.912L156.815 129.906L156.806 129.901L156.323 129.622V126.941C156.738 127.152 157.172 127.323 157.621 127.454L157.639 127.459L157.658 127.463C157.87 127.507 158.09 127.493 158.294 127.421C158.498 127.35 158.679 127.224 158.817 127.057L158.857 127.009L158.883 126.953C159.104 126.489 159.197 125.975 159.153 125.463C159.159 124.82 159.198 123.617 159.271 121.849L159.271 121.84L159.271 121.831C159.276 121.052 159.394 120.278 159.622 119.533C159.745 119.152 159.969 118.81 160.269 118.545C160.562 118.328 160.912 118.201 161.276 118.18L162.232 118.126L161.641 117.372C161.087 116.667 160.607 115.907 160.205 115.105C159.777 114.137 159.493 113.111 159.363 112.061L159.363 112.059C159.265 111.288 159.192 109.637 159.146 107.076C159.165 106.458 159.097 105.841 158.943 105.242L158.936 105.217L158.927 105.192C158.766 104.76 158.516 104.367 158.191 104.04L158.179 104.028L158.166 104.016C157.599 103.518 156.981 103.082 156.323 102.715V100.064C157.309 100.606 158.236 101.25 159.089 101.984C159.714 102.557 160.244 103.226 160.659 103.965L160.661 103.968C161.078 104.699 161.37 105.494 161.524 106.32C161.708 107.56 161.787 108.812 161.76 110.065C161.76 110.066 161.76 110.066 161.76 110.067L162.26 110.078M164.79 121.147L165.291 118.105M164.79 121.147L164.791 118.382M164.79 121.147L164.791 118.382M162.26 110.078C162.22 111.394 162.29 112.711 162.468 114.016C162.62 114.857 162.935 115.66 163.395 116.379C163.906 117.075 164.551 117.662 165.291 118.105M162.26 110.078C162.288 108.793 162.206 107.509 162.018 106.238L162.26 110.078ZM165.291 118.105L164.791 118.105L164.791 118.382M165.291 118.105L165.035 118.534C164.952 118.485 164.871 118.434 164.791 118.382M161.248 117.681C161.128 117.529 161.012 117.375 160.9 117.218C161.005 117.2 161.112 117.188 161.22 117.182L161.248 117.681ZM161.248 117.681C161.058 117.692 160.872 117.725 160.693 117.78C160.746 117.85 160.8 117.92 160.854 117.99L161.248 117.681ZM137.034 104.241C137.527 104.845 137.955 105.499 138.311 106.192C138.646 106.861 138.899 107.568 139.064 108.298C139.265 109.252 139.382 110.221 139.413 111.196L139.413 111.198C139.478 112.993 139.511 114.128 139.511 114.615C139.486 115.214 139.569 115.812 139.758 116.381L139.764 116.399L139.771 116.417C139.954 116.853 140.216 117.251 140.545 117.591L140.558 117.604L140.573 117.617C141.118 118.1 141.713 118.523 142.348 118.879V121.555C141.361 121.012 140.434 120.366 139.584 119.627C138.958 119.049 138.425 118.378 138.003 117.638L138.001 117.635C137.582 116.912 137.292 116.122 137.141 115.3C136.963 114.06 136.886 112.807 136.912 111.554C136.956 110.206 136.88 108.857 136.686 107.522L136.685 107.513L136.683 107.505C136.521 106.602 136.185 105.738 135.694 104.963L135.685 104.949L135.675 104.935C135.183 104.262 134.574 103.684 133.877 103.229V100.462C134.186 100.575 134.508 100.653 134.836 100.695L134.867 100.699L134.898 100.699C135.151 100.7 135.401 100.64 135.627 100.524C135.852 100.408 136.046 100.24 136.193 100.033L136.193 100.033L136.196 100.029C136.535 99.5432 136.741 98.9771 136.795 98.3868C136.891 97.5016 136.929 96.611 136.909 95.7208L136.909 95.7208L136.908 95.7152C136.862 94.3488 136.944 92.981 137.152 91.6296L137.152 91.6296L137.153 91.6217C137.184 91.4007 137.26 91.1886 137.378 90.9992C137.488 90.8231 137.63 90.6702 137.798 90.5491C138.276 90.3573 138.806 90.3406 139.296 90.5029L139.3 90.5042C140.195 90.7928 141.049 91.1936 141.844 91.6971L141.852 91.7027L141.861 91.7079L142.345 91.9869V94.6441C141.922 94.4256 141.48 94.2441 141.025 94.1019L141.004 94.0953L140.982 94.0906C140.771 94.0446 140.551 94.0596 140.348 94.1339L140.52 94.6034L140.348 94.1339C140.145 94.2082 139.968 94.3387 139.836 94.5101L139.8 94.5565L139.777 94.6099C139.564 95.0828 139.478 95.6023 139.525 96.1181C139.524 96.7818 139.483 98.0123 139.401 99.8191L139.4 99.8277L139.4 99.8363C139.392 100.588 139.278 101.335 139.062 102.055C138.952 102.417 138.752 102.745 138.48 103.008C138.152 103.241 137.77 103.385 137.369 103.428L136.45 103.525L137.034 104.241ZM158.458 105.366C158.322 105.001 158.11 104.669 157.836 104.392L158.458 105.366ZM144.152 108.237C143.919 107.834 143.785 107.383 143.757 106.919C143.76 106.531 143.894 106.387 143.969 106.343C144.044 106.3 144.235 106.256 144.571 106.447C144.959 106.703 145.282 107.046 145.514 107.449C145.746 107.851 145.881 108.303 145.908 108.767C145.905 109.154 145.771 109.298 145.696 109.342C145.621 109.385 145.431 109.429 145.095 109.238C144.707 108.982 144.384 108.639 144.152 108.237ZM149.657 111.415C149.425 111.012 149.29 110.561 149.263 110.097C149.266 109.71 149.4 109.566 149.475 109.522C149.55 109.479 149.741 109.435 150.077 109.626C150.465 109.882 150.788 110.224 151.02 110.627C151.252 111.03 151.387 111.481 151.414 111.945C151.411 112.332 151.277 112.476 151.202 112.52C151.127 112.563 150.936 112.607 150.6 112.416C150.212 112.16 149.89 111.818 149.657 111.415Z" stroke="#9C9692"/>
<path d="M435.461 211.455C435.461 214.303 433.443 215.467 430.978 214.044L280.407 127.108C279.104 126.256 278.02 125.11 277.241 123.761C276.462 122.413 276.011 120.9 275.924 119.346V5.77005C275.924 2.92356 277.94 1.75878 280.407 3.18251L430.979 90.117C432.282 90.9698 433.366 92.1167 434.145 93.4654C434.923 94.814 435.374 96.3267 435.462 97.8815L435.461 211.455Z" fill="#2E2C2B" stroke="#9C9692"/>
<path d="M434.363 88.1635L283.784 1.22807C283.327 0.89573 282.789 0.693552 282.226 0.643095C281.663 0.592638 281.098 0.695791 280.589 0.941551L277.368 2.8123H277.377C277.873 2.62052 278.409 2.55432 278.937 2.61959C279.464 2.68487 279.968 2.8796 280.402 3.18644L430.974 90.1209C432.277 90.9737 433.361 92.1207 434.14 93.4693C434.918 94.818 435.369 96.3306 435.456 97.8855V211.454C435.513 212.007 435.422 212.565 435.194 213.071C434.966 213.577 434.608 214.015 434.157 214.338L437.374 212.468H437.365C437.872 212.168 438.282 211.729 438.544 211.202C438.806 210.675 438.91 210.083 438.842 209.498V95.9271C438.755 94.3725 438.304 92.8601 437.526 91.5116C436.747 90.1632 435.663 89.0164 434.361 88.1635H434.363Z" fill="#2E2C2B" stroke="#9C9692"/>
<path d="M280.407 8.36041V120.15L430.98 207.086V95.2929L280.407 8.36041Z" fill="#2E2C2B" stroke="#9C9692"/>
<path d="M328.874 274.958C327.485 275.659 325.95 276.024 324.394 276.024C322.838 276.024 321.304 275.659 319.915 274.958L169.336 188.026C166.875 186.604 166.875 184.274 169.336 182.85L271.969 123.594C273.359 122.894 274.893 122.529 276.449 122.529C278.005 122.529 279.54 122.894 280.929 123.594L431.503 210.534C433.964 211.957 433.964 214.286 431.503 215.71L328.874 274.958Z" fill="#2E2C2B" stroke="#9C9692"/>
<mask id="path-9-inside-1_115_10323" fill="white">
<path d="M281.092 135.924L273.728 131.672L277.41 129.542L284.774 133.794L281.092 135.924ZM293.497 143.085L286.133 138.832L289.814 136.706L297.179 140.959L293.497 143.085ZM305.903 150.245L298.54 145.992L302.222 143.867L309.586 148.12L305.903 150.245ZM318.309 157.406L310.946 153.154L314.628 151.028L321.991 155.28L318.309 157.406ZM330.714 164.566L323.351 160.314L327.033 158.189L334.397 162.441L330.714 164.566ZM343.12 171.728L335.756 167.475L339.438 165.349L346.803 169.601L343.12 171.728ZM355.526 178.889L348.163 174.636L351.845 172.509L359.207 176.761L355.526 178.889ZM367.931 186.047L360.567 181.797L364.25 179.669L371.613 183.922L367.931 186.047ZM380.331 193.208L372.969 188.958L376.65 186.83L384.015 191.083L380.331 193.208ZM392.737 200.369L385.373 196.116L389.057 193.991L396.42 198.243L392.737 200.369ZM405.143 207.53L397.779 203.277L401.46 201.152L408.825 205.404L405.143 207.53ZM417.548 214.691L410.183 210.438L413.866 208.312L421.23 212.565L417.548 214.691ZM274.565 146.477L261.325 138.834L268.689 134.583L281.927 142.227L274.565 146.477ZM267.715 156.251L249.438 145.695L256.803 141.443L275.08 151.997L267.715 156.251ZM260.35 166.32L237.035 152.858L244.398 148.606L267.712 162.069L260.35 166.32ZM235.27 169.165L222.028 161.522L231.997 155.766L245.236 163.413L235.27 169.165ZM253.547 179.719L240.304 172.077L250.273 166.321L263.514 173.965L253.547 179.719ZM271.825 190.271L258.586 182.628L268.556 176.87L281.795 184.516L271.825 190.271ZM334.845 226.658L321.607 219.011L331.576 213.256L344.817 220.901L334.845 226.658ZM365.816 244.544L339.849 229.55L349.818 223.795L375.784 238.787L365.816 244.544ZM316.596 216.121L276.864 193.18L286.833 187.425L326.567 210.366L316.596 216.121ZM290.442 155.64L279.612 149.385L286.974 145.133L297.81 151.388L290.442 155.64ZM283.593 165.411L272.757 159.156L280.122 154.904L290.952 161.159L283.593 165.411ZM276.563 175.287L265.733 169.032L273.098 164.781L283.928 171.036L276.563 175.287ZM292.438 184.451L281.607 178.195L288.971 173.943L299.801 180.2L292.438 184.451ZM308.309 193.614L297.479 187.359L304.843 183.109L315.673 189.364L308.309 193.614ZM324.186 202.781L313.355 196.526L320.718 192.272L331.548 198.528L324.186 202.781ZM340.056 211.945L329.226 205.688L336.588 201.436L347.419 207.693L340.056 211.945ZM355.93 221.108L345.1 214.853L352.463 210.6L363.293 216.856L355.928 221.108H355.93ZM381.167 235.68L360.969 224.019L368.332 219.767L388.53 231.429L381.167 235.68ZM299.465 174.576L288.634 168.322L295.999 164.069L306.829 170.325L299.465 174.576ZM315.339 183.742L304.509 177.485L311.873 173.233L322.704 179.49L315.339 183.742ZM331.21 192.907L320.379 186.652L327.744 182.399L338.574 188.655L331.21 192.907ZM347.084 202.071L336.254 195.816L343.618 191.563L354.449 197.819L347.084 202.071ZM362.958 211.237L352.122 204.98L359.488 200.727L370.318 206.984L362.958 211.237ZM393.231 228.715L367.995 214.143L375.36 209.892L400.595 224.458L393.231 228.715ZM306.313 164.806L295.482 158.551L302.847 154.299L313.677 160.554L306.313 164.806ZM322.188 173.97L311.357 167.714L318.721 163.464L329.552 169.717L322.188 173.97ZM338.058 183.133L327.228 176.878L334.591 172.63L345.421 178.884L338.058 183.133ZM353.929 192.3L343.098 186.044L350.462 181.791L361.292 188.047L353.929 192.3ZM369.803 201.463L358.973 195.207L366.335 190.958L377.172 197.211L369.803 201.463ZM385.677 210.627L374.847 204.372L382.21 200.121L393.04 206.376L385.677 210.627ZM405.117 221.852L390.716 213.537L398.079 209.285L412.48 217.6L405.117 221.852Z"/>
</mask>
<path d="M281.092 135.924L273.728 131.672L277.41 129.542L284.774 133.794L281.092 135.924ZM293.497 143.085L286.133 138.832L289.814 136.706L297.179 140.959L293.497 143.085ZM305.903 150.245L298.54 145.992L302.222 143.867L309.586 148.12L305.903 150.245ZM318.309 157.406L310.946 153.154L314.628 151.028L321.991 155.28L318.309 157.406ZM330.714 164.566L323.351 160.314L327.033 158.189L334.397 162.441L330.714 164.566ZM343.12 171.728L335.756 167.475L339.438 165.349L346.803 169.601L343.12 171.728ZM355.526 178.889L348.163 174.636L351.845 172.509L359.207 176.761L355.526 178.889ZM367.931 186.047L360.567 181.797L364.25 179.669L371.613 183.922L367.931 186.047ZM380.331 193.208L372.969 188.958L376.65 186.83L384.015 191.083L380.331 193.208ZM392.737 200.369L385.373 196.116L389.057 193.991L396.42 198.243L392.737 200.369ZM405.143 207.53L397.779 203.277L401.46 201.152L408.825 205.404L405.143 207.53ZM417.548 214.691L410.183 210.438L413.866 208.312L421.23 212.565L417.548 214.691ZM274.565 146.477L261.325 138.834L268.689 134.583L281.927 142.227L274.565 146.477ZM267.715 156.251L249.438 145.695L256.803 141.443L275.08 151.997L267.715 156.251ZM260.35 166.32L237.035 152.858L244.398 148.606L267.712 162.069L260.35 166.32ZM235.27 169.165L222.028 161.522L231.997 155.766L245.236 163.413L235.27 169.165ZM253.547 179.719L240.304 172.077L250.273 166.321L263.514 173.965L253.547 179.719ZM271.825 190.271L258.586 182.628L268.556 176.87L281.795 184.516L271.825 190.271ZM334.845 226.658L321.607 219.011L331.576 213.256L344.817 220.901L334.845 226.658ZM365.816 244.544L339.849 229.55L349.818 223.795L375.784 238.787L365.816 244.544ZM316.596 216.121L276.864 193.18L286.833 187.425L326.567 210.366L316.596 216.121ZM290.442 155.64L279.612 149.385L286.974 145.133L297.81 151.388L290.442 155.64ZM283.593 165.411L272.757 159.156L280.122 154.904L290.952 161.159L283.593 165.411ZM276.563 175.287L265.733 169.032L273.098 164.781L283.928 171.036L276.563 175.287ZM292.438 184.451L281.607 178.195L288.971 173.943L299.801 180.2L292.438 184.451ZM308.309 193.614L297.479 187.359L304.843 183.109L315.673 189.364L308.309 193.614ZM324.186 202.781L313.355 196.526L320.718 192.272L331.548 198.528L324.186 202.781ZM340.056 211.945L329.226 205.688L336.588 201.436L347.419 207.693L340.056 211.945ZM355.93 221.108L345.1 214.853L352.463 210.6L363.293 216.856L355.928 221.108H355.93ZM381.167 235.68L360.969 224.019L368.332 219.767L388.53 231.429L381.167 235.68ZM299.465 174.576L288.634 168.322L295.999 164.069L306.829 170.325L299.465 174.576ZM315.339 183.742L304.509 177.485L311.873 173.233L322.704 179.49L315.339 183.742ZM331.21 192.907L320.379 186.652L327.744 182.399L338.574 188.655L331.21 192.907ZM347.084 202.071L336.254 195.816L343.618 191.563L354.449 197.819L347.084 202.071ZM362.958 211.237L352.122 204.98L359.488 200.727L370.318 206.984L362.958 211.237ZM393.231 228.715L367.995 214.143L375.36 209.892L400.595 224.458L393.231 228.715ZM306.313 164.806L295.482 158.551L302.847 154.299L313.677 160.554L306.313 164.806ZM322.188 173.97L311.357 167.714L318.721 163.464L329.552 169.717L322.188 173.97ZM338.058 183.133L327.228 176.878L334.591 172.63L345.421 178.884L338.058 183.133ZM353.929 192.3L343.098 186.044L350.462 181.791L361.292 188.047L353.929 192.3ZM369.803 201.463L358.973 195.207L366.335 190.958L377.172 197.211L369.803 201.463ZM385.677 210.627L374.847 204.372L382.21 200.121L393.04 206.376L385.677 210.627ZM405.117 221.852L390.716 213.537L398.079 209.285L412.48 217.6L405.117 221.852Z" stroke="#9C9692" stroke-width="2" mask="url(#path-9-inside-1_115_10323)"/>
<path d="M296.731 133.286L414.713 201.413L412.142 202.897L294.155 134.776L296.731 133.286Z" fill="#2E2C2B" stroke="#9C9692"/>
<path d="M316.592 224.999L255.875 189.942L218.146 211.726L278.863 246.778L316.592 224.999Z" fill="#2E2C2B" stroke="#9C9692"/>
<path d="M431.507 215.705L328.874 274.957C326.624 276.09 324.03 276.339 321.606 275.653C321.589 275.647 320.135 275.086 319.91 274.957L169.337 188.027C169.173 187.932 169.015 187.828 168.861 187.717C168.854 187.71 168.847 187.704 168.839 187.699C168.798 187.669 168.765 187.639 168.728 187.609C168.642 187.544 168.559 187.474 168.479 187.401C168.438 187.365 168.401 187.328 168.364 187.29C168.273 187.202 168.187 187.108 168.106 187.01L168.075 186.974L168.057 186.952C167.972 186.841 167.894 186.725 167.824 186.604C167.628 186.278 167.516 185.909 167.496 185.529H167.488V187.695H167.506C167.546 188.256 167.737 188.795 168.06 189.256C168.382 189.716 168.824 190.08 169.337 190.309L319.911 277.245C323.504 279.027 328.636 278.679 330.165 278.344C331.694 278.01 333.066 277.627 334.667 277.277L431.508 221.366C432.024 221.137 432.468 220.772 432.793 220.31C433.117 219.849 433.311 219.307 433.352 218.744V213.141C433.297 213.692 433.097 214.219 432.773 214.669C432.45 215.118 432.013 215.474 431.508 215.701L431.507 215.705Z" fill="#2E2C2B" stroke="#9C9692"/>
<path d="M423.657 97.3378L395.932 81.3302L287.726 18.8562C286.017 17.8716 284.618 18.677 284.619 20.6511V31.3961C284.679 32.4741 284.992 33.523 285.531 34.4582C286.071 35.3933 286.823 36.1886 287.726 36.7799L395.932 99.2539L423.656 115.262C425.366 116.246 426.765 115.442 426.765 113.469V102.722C426.704 101.644 426.391 100.595 425.852 99.6597C425.312 98.7246 424.561 97.9293 423.657 97.3378Z" fill="#2E2C2B" stroke="#9C9692"/>
<path d="M250.187 200.511C250.061 198.28 249.414 196.109 248.296 194.173C247.179 192.237 245.622 190.591 243.752 189.367L146.673 133.317C143.134 131.274 140.239 132.946 140.239 137.032V221.537C140.364 223.768 141.012 225.94 142.129 227.875C143.247 229.811 144.804 231.457 146.674 232.681L243.753 288.731C247.292 290.774 250.188 289.102 250.188 285.016L250.187 200.511Z" fill="#2E2C2B" stroke="#9C9692"/>
<path d="M250.181 285.016V200.512C250.056 198.28 249.408 196.108 248.291 194.173C247.173 192.237 245.617 190.59 243.746 189.366L146.667 133.317C144.918 132.307 143.328 132.209 142.165 132.856L143.98 131.808V131.815C145.155 131.061 146.811 131.116 148.643 132.174L245.722 188.223C247.593 189.447 249.149 191.094 250.267 193.029C251.384 194.965 252.032 197.137 252.157 199.368V283.873C252.157 286.011 251.359 287.48 250.096 288.107L248.441 289.063C249.046 288.587 249.522 287.967 249.826 287.26C250.129 286.553 250.252 285.782 250.181 285.016Z" fill="#2E2C2B" stroke="#9C9692"/>
<path d="M178.026 193.748L185.191 190.27L185.686 190.03L185.4 189.56L178.011 177.442L178.59 177.05L187.328 191.383L178.954 195.448L178.026 193.748ZM161.791 168.501L154.626 171.978L154.13 172.218L154.417 172.688L161.806 184.808L161.227 185.199L152.488 170.865L160.863 166.8L161.791 168.501ZM165.563 193.438L164.388 192.165L175.426 169.43L176.602 170.702L165.563 193.438Z" fill="#2E2C2B" stroke="#9C9692"/>
<path d="M206.271 180.105V181.806L193.855 174.637V172.936L206.271 180.105Z" fill="#2E2C2B" stroke="#9C9692"/>
<path d="M199.326 195.426L193.859 192.27V190.565L199.326 193.722V195.426Z" fill="#2E2C2B" stroke="#9C9692"/>
<path d="M243.341 201.505V203.206L209.547 183.697V181.996L243.341 201.505Z" fill="#2E2C2B" stroke="#9C9692"/>
<path d="M234.912 202.435V204.136L201.118 184.627V182.927L234.912 202.435Z" fill="#2E2C2B" stroke="#9C9692"/>
<path d="M229.597 205.167V206.868L198.401 188.854V187.154L229.597 205.167Z" fill="#2E2C2B" stroke="#9C9692"/>
<path d="M209.847 205.836V207.537L193.859 198.306V196.605L209.847 205.836Z" fill="#2E2C2B" stroke="#9C9692"/>
<path d="M243.338 225.174L243.339 226.874L213.116 209.426V207.725L243.338 225.174Z" fill="#2E2C2B" stroke="#9C9692"/>
<path d="M243.339 231.866V233.567L203.085 210.328V208.627L243.339 231.866ZM199.82 206.739V208.44L193.859 204.998V203.298L199.82 206.739ZM206.271 217.158V218.858L193.854 211.69V209.989L206.271 217.158Z" fill="#2E2C2B" stroke="#9C9692"/>
<path d="M243.341 238.556V240.256L209.547 220.748V219.047L243.341 238.556Z" fill="#2E2C2B" stroke="#9C9692"/>
<path d="M234.912 240.598V242.298L201.118 222.79V221.089L234.912 240.598Z" fill="#2E2C2B" stroke="#9C9692"/>
<path d="M240.45 249.597V251.299L207.275 232.145V230.444L240.45 249.597Z" fill="#2E2C2B" stroke="#9C9692"/>
<path d="M335.264 146.446L286.134 118.078V45.7509L335.264 74.1192V146.446ZM424.893 159.005L339.669 109.799V76.6634L424.893 125.869V159.005ZM424.893 197.837L339.669 148.629V114.408L424.893 163.614V197.837Z" fill="#2E2C2B" stroke="#9C9692"/>
<path d="M360.042 105.64L346.853 98.0251V96.4022L360.042 104.017V105.64ZM405.027 129.992V131.611L367.264 109.808V108.188L405.027 129.992ZM353.932 135.159V136.782L346.852 132.695V131.072L353.932 135.159ZM405.027 166.281L361.153 140.951V139.328L405.027 164.658V166.281ZM363.937 150.481V152.103L346.854 142.243V140.622L363.937 150.481ZM405.027 174.21V175.832L371.157 156.277V154.655L405.027 174.21Z" fill="#2E2C2B" stroke="#9C9692"/>
<path d="M303.755 36.8341L302.901 39.1905L302.877 39.1769L303.104 38.5095L304.016 35.8299L304.101 35.879L303.755 36.8341ZM299.633 33.3015L298.435 36.6108L298.412 36.5977L298.638 35.9328L299.55 33.2531L299.633 33.3015ZM296.447 31.4618L296.101 32.416L295.246 34.7717L295.222 34.7582L295.449 34.0916L296.361 31.4119L296.447 31.4618ZM307.289 37.7194L306.09 41.0287L306.067 41.0156L306.293 40.3507L307.205 37.671L307.289 37.7194ZM310.756 42.9284L311.668 40.2487L311.754 40.2984L311.408 41.253L310.554 43.6094L310.53 43.5953L310.756 42.9284ZM313.719 45.434L313.945 44.7696L314.857 42.0899L314.941 42.1383L313.743 45.4475L313.719 45.434ZM315.869 46.4574C315.892 46.4972 315.912 46.5386 315.928 46.5813C315.9 46.5458 315.874 46.5081 315.851 46.4684C315.828 46.4288 315.808 46.3876 315.792 46.3451C315.821 46.3804 315.846 46.4179 315.869 46.4574Z" fill="#2E2C2B" stroke="#9C9692"/>
<path d="M141.582 280.112L141.583 280.112L141.595 280.111C142.798 280.024 143.975 279.722 145.071 279.22C145.529 279.031 146.032 278.908 146.501 278.871C146.979 278.833 147.383 278.887 147.663 279.012C147.924 279.129 148.062 279.296 148.104 279.534C148.151 279.806 148.087 280.258 147.713 280.947L147.7 280.97L147.69 280.995C147.687 281.004 147.682 281.012 147.678 281.021C147.592 281.139 147.48 281.236 147.35 281.303L147.339 281.309L147.328 281.316L142.238 284.301C142.19 284.328 142.029 284.365 141.719 284.324C141.429 284.285 141.09 284.189 140.763 284.054C140.435 283.919 140.145 283.755 139.946 283.597C139.847 283.518 139.783 283.451 139.749 283.401C139.737 283.386 139.731 283.374 139.727 283.367C139.734 281.663 140.271 280.879 140.713 280.51C140.945 280.317 141.174 280.216 141.342 280.165C141.426 280.139 141.494 280.125 141.537 280.118C141.558 280.115 141.574 280.113 141.582 280.112Z" fill="#2E2C2B" stroke="#9C9692"/>
<mask id="path-32-inside-2_115_10323" fill="white">
<path d="M139.24 283.068C139.286 283.823 141.717 284.828 142.489 284.388L147.583 281.401C147.838 281.25 148.078 281.075 148.3 280.878C148.254 280.976 148.214 281.075 148.155 281.186C148.139 281.224 148.121 281.26 148.1 281.294C147.967 281.485 147.789 281.641 147.583 281.748L142.489 284.736C141.763 285.152 139.553 284.279 139.261 283.544C139.249 283.495 139.241 283.445 139.237 283.394C139.231 283.286 139.232 283.176 139.24 283.068Z"/>
</mask>
<path d="M139.24 283.068C139.286 283.823 141.717 284.828 142.489 284.388L147.583 281.401C147.838 281.25 148.078 281.075 148.3 280.878C148.254 280.976 148.214 281.075 148.155 281.186C148.139 281.224 148.121 281.26 148.1 281.294C147.967 281.485 147.789 281.641 147.583 281.748L142.489 284.736C141.763 285.152 139.553 284.279 139.261 283.544C139.249 283.495 139.241 283.445 139.237 283.394C139.231 283.286 139.232 283.176 139.24 283.068Z" fill="#2E2C2B"/>
<path d="M139.24 283.068L140.239 283.008L138.243 282.993L139.24 283.068ZM142.489 284.388L142.984 285.257L142.995 285.25L142.489 284.388ZM147.583 281.401L148.089 282.263L148.092 282.261L147.583 281.401ZM148.3 280.878L149.205 281.303L147.637 280.129L148.3 280.878ZM148.155 281.186L147.271 280.717L147.248 280.761L147.229 280.807L148.155 281.186ZM148.1 281.294L148.92 281.866L148.936 281.843L148.951 281.819L148.1 281.294ZM147.583 281.748L147.122 280.86L147.099 280.872L147.077 280.886L147.583 281.748ZM142.489 284.736L142.986 285.605L142.995 285.599L142.489 284.736ZM139.261 283.544L138.291 283.786L138.307 283.852L138.332 283.914L139.261 283.544ZM139.237 283.394L138.239 283.451L138.24 283.463L139.237 283.394ZM138.242 283.127C138.263 283.479 138.415 283.759 138.554 283.949C138.697 284.145 138.872 284.308 139.041 284.441C139.379 284.707 139.798 284.932 140.213 285.101C140.63 285.272 141.092 285.407 141.532 285.465C141.925 285.516 142.498 285.534 142.984 285.257L141.995 283.519C142.095 283.462 142.074 283.519 141.792 283.482C141.557 283.451 141.264 283.371 140.971 283.251C140.676 283.13 140.431 282.989 140.276 282.868C140.24 282.839 140.213 282.815 140.194 282.797C140.175 282.778 140.168 282.768 140.168 282.769C140.169 282.769 140.182 282.788 140.198 282.824C140.213 282.862 140.234 282.924 140.239 283.008L138.242 283.127ZM142.995 285.25L148.089 282.263L147.077 280.538L141.984 283.525L142.995 285.25ZM148.092 282.261C148.402 282.078 148.694 281.865 148.963 281.626L147.637 280.129C147.463 280.284 147.274 280.421 147.074 280.54L148.092 282.261ZM147.395 280.452C147.322 280.608 147.317 280.632 147.271 280.717L149.038 281.655C149.111 281.518 149.186 281.345 149.205 281.303L147.395 280.452ZM147.229 280.807C147.235 280.793 147.241 280.781 147.248 280.769L148.951 281.819C149 281.739 149.044 281.654 149.08 281.565L147.229 280.807ZM147.279 280.723C147.239 280.781 147.185 280.828 147.122 280.86L148.043 282.636C148.394 282.454 148.695 282.19 148.92 281.866L147.279 280.723ZM147.077 280.886L141.983 283.874L142.995 285.599L148.089 282.611L147.077 280.886ZM141.993 283.868C142.093 283.811 142.083 283.863 141.83 283.835C141.619 283.811 141.349 283.744 141.068 283.637C140.787 283.53 140.535 283.4 140.354 283.275C140.135 283.124 140.15 283.073 140.19 283.174L138.332 283.914C138.519 284.383 138.919 284.716 139.22 284.922C139.558 285.155 139.958 285.355 140.357 285.506C140.756 285.658 141.192 285.776 141.609 285.823C141.984 285.864 142.522 285.87 142.986 285.605L141.993 283.868ZM140.231 283.302C140.233 283.31 140.234 283.318 140.235 283.326L138.24 283.463C138.247 283.572 138.264 283.68 138.291 283.786L140.231 283.302ZM140.236 283.338C140.232 283.273 140.233 283.207 140.238 283.142L138.243 282.993C138.232 283.145 138.23 283.298 138.239 283.451L140.236 283.338Z" fill="#9C9692" mask="url(#path-32-inside-2_115_10323)"/>
<path d="M142.658 280.486L142.681 280.52L142.709 280.551C142.709 280.552 142.712 280.554 142.718 280.562L142.729 280.576L142.746 280.597L142.791 280.654L142.851 280.696C142.941 280.758 143.009 280.815 143.054 280.866C143.073 280.887 143.084 280.903 143.089 280.912C143.086 280.918 143.082 280.926 143.075 280.936C143.035 280.993 142.938 281.095 142.722 281.231L142.705 281.241L142.69 281.253C142.523 281.377 142.317 281.437 142.109 281.422C141.925 281.409 141.751 281.338 141.61 281.22C141.444 280.914 141.203 280.652 140.911 280.46C140.797 280.383 140.676 280.318 140.55 280.265C140.542 280.144 140.534 279.997 140.531 279.852C140.53 279.792 140.53 279.736 140.53 279.684C141.18 279.783 141.825 279.912 142.462 280.072C142.509 280.218 142.574 280.357 142.658 280.486ZM143.095 280.899C143.095 280.899 143.095 280.9 143.095 280.901L143.095 280.899Z" fill="#2E2C2B" stroke="#9C9692"/>
<path d="M141.296 262.724L141.314 262.653L141.311 262.58C141.237 260.733 141.136 258.829 141.032 256.9C140.796 252.479 140.553 247.932 140.626 243.671L149.93 243.838C149.506 247.078 148.896 250.188 148.251 253.285C148.112 253.955 147.971 254.623 147.829 255.293C147.281 257.892 146.731 260.501 146.271 263.174C145.503 267.223 144.68 270.498 143.872 273.712C143.385 275.649 142.904 277.564 142.444 279.613C142.343 279.784 142.048 279.933 141.533 279.857C141.286 279.821 141.043 279.735 140.849 279.616C140.686 279.516 140.578 279.406 140.516 279.304C140.196 274.32 139.851 268.356 141.296 262.724Z" stroke="#9C9692"/>
<path d="M153.191 286.871L153.192 286.871L153.205 286.87C154.407 286.782 155.585 286.48 156.681 285.978C157.139 285.789 157.642 285.666 158.111 285.629C158.589 285.591 158.993 285.645 159.273 285.77C159.534 285.887 159.672 286.054 159.713 286.292C159.761 286.564 159.696 287.016 159.322 287.706L159.31 287.729L159.3 287.754C159.296 287.763 159.291 287.772 159.287 287.78C159.201 287.899 159.09 287.995 158.96 288.062L158.948 288.068L158.937 288.075L153.847 291.061C153.799 291.087 153.639 291.125 153.329 291.083C153.039 291.044 152.7 290.948 152.373 290.813C152.045 290.677 151.755 290.514 151.556 290.355C151.456 290.276 151.393 290.209 151.358 290.159C151.347 290.144 151.34 290.132 151.337 290.125C151.343 288.421 151.88 287.637 152.323 287.268C152.554 287.075 152.783 286.975 152.951 286.923C153.035 286.898 153.103 286.884 153.146 286.877C153.167 286.874 153.183 286.872 153.191 286.871Z" fill="#2E2C2B" stroke="#9C9692"/>
<mask id="path-37-inside-3_115_10323" fill="white">
<path d="M150.851 289.826C150.895 290.581 153.328 291.586 154.101 291.146L159.194 288.159C159.449 288.007 159.69 287.832 159.912 287.635C159.865 287.734 159.825 287.832 159.765 287.943C159.749 287.981 159.731 288.017 159.71 288.052C159.577 288.242 159.399 288.398 159.193 288.505L154.1 291.492C153.374 291.907 151.164 291.035 150.871 290.299C150.859 290.25 150.851 290.2 150.848 290.15C150.842 290.042 150.843 289.934 150.851 289.826Z"/>
</mask>
<path d="M150.851 289.826C150.895 290.581 153.328 291.586 154.101 291.146L159.194 288.159C159.449 288.007 159.69 287.832 159.912 287.635C159.865 287.734 159.825 287.832 159.765 287.943C159.749 287.981 159.731 288.017 159.71 288.052C159.577 288.242 159.399 288.398 159.193 288.505L154.1 291.492C153.374 291.907 151.164 291.035 150.871 290.299C150.859 290.25 150.851 290.2 150.848 290.15C150.842 290.042 150.843 289.934 150.851 289.826Z" fill="#2E2C2B"/>
<path d="M150.851 289.826L151.85 289.769L149.855 289.747L150.851 289.826ZM154.101 291.146L154.595 292.015L154.606 292.009L154.101 291.146ZM159.194 288.159L159.7 289.022L159.704 289.019L159.194 288.159ZM159.912 287.635L160.814 288.068L159.25 286.886L159.912 287.635ZM159.765 287.943L158.885 287.468L158.86 287.515L158.84 287.564L159.765 287.943ZM159.71 288.052L160.53 288.623L160.546 288.6L160.561 288.576L159.71 288.052ZM159.193 288.505L158.734 287.616L158.71 287.628L158.687 287.642L159.193 288.505ZM154.1 291.492L154.596 292.36L154.605 292.354L154.1 291.492ZM150.871 290.299L149.902 290.546L149.918 290.609L149.942 290.669L150.871 290.299ZM150.848 290.15L151.847 290.099L151.847 290.09L150.848 290.15ZM149.853 289.883C149.873 290.236 150.025 290.517 150.164 290.707C150.307 290.902 150.482 291.066 150.651 291.199C150.989 291.465 151.409 291.69 151.824 291.86C152.241 292.03 152.703 292.166 153.143 292.223C153.536 292.275 154.109 292.292 154.595 292.015L153.606 290.277C153.706 290.22 153.685 290.277 153.403 290.24C153.168 290.21 152.874 290.129 152.581 290.009C152.286 289.888 152.041 289.748 151.887 289.626C151.85 289.598 151.824 289.574 151.805 289.555C151.786 289.536 151.779 289.527 151.78 289.528C151.78 289.529 151.794 289.547 151.809 289.584C151.825 289.622 151.845 289.685 151.85 289.769L149.853 289.883ZM154.606 292.009L159.7 289.022L158.688 287.296L153.595 290.284L154.606 292.009ZM159.704 289.019C160.014 288.835 160.305 288.623 160.575 288.384L159.25 286.886C159.075 287.041 158.885 287.179 158.683 287.299L159.704 289.019ZM159.011 287.202C158.931 287.369 158.933 287.38 158.885 287.468L160.645 288.418C160.717 288.284 160.8 288.098 160.814 288.068L159.011 287.202ZM158.84 287.564C158.845 287.55 158.851 287.538 158.858 287.527L160.561 288.576C160.61 288.496 160.654 288.411 160.69 288.323L158.84 287.564ZM158.889 287.48C158.849 287.537 158.796 287.584 158.734 287.616L159.652 289.393C160.003 289.212 160.304 288.947 160.53 288.623L158.889 287.48ZM158.687 287.642L153.594 290.629L154.605 292.354L159.699 289.367L158.687 287.642ZM153.603 290.624C153.703 290.566 153.694 290.618 153.44 290.59C153.229 290.567 152.959 290.499 152.678 290.392C152.397 290.286 152.145 290.156 151.964 290.031C151.745 289.88 151.76 289.828 151.8 289.93L149.942 290.669C150.128 291.138 150.53 291.471 150.83 291.678C151.168 291.911 151.569 292.111 151.968 292.262C152.366 292.413 152.803 292.532 153.22 292.578C153.594 292.62 154.133 292.625 154.596 292.36L153.603 290.624ZM151.84 290.053C151.844 290.068 151.846 290.083 151.847 290.099L149.85 290.201C149.856 290.317 149.873 290.433 149.902 290.546L151.84 290.053ZM151.847 290.09C151.843 290.028 151.844 289.966 151.848 289.904L149.855 289.747C149.842 289.901 149.841 290.056 149.85 290.21L151.847 290.09Z" fill="#9C9692" mask="url(#path-37-inside-3_115_10323)"/>
<path d="M154.266 287.244L154.289 287.279L154.317 287.309C154.323 287.316 154.331 287.326 154.346 287.346L154.394 287.409L154.46 287.454C154.549 287.517 154.618 287.573 154.663 287.624C154.682 287.646 154.693 287.662 154.699 287.671C154.696 287.677 154.691 287.685 154.684 287.694C154.645 287.752 154.547 287.854 154.332 287.99L154.315 288L154.3 288.011C154.133 288.135 153.927 288.195 153.719 288.18C153.535 288.167 153.361 288.096 153.22 287.978C153.053 287.671 152.813 287.41 152.52 287.218C152.407 287.14 152.286 287.075 152.16 287.023C152.151 286.901 152.143 286.755 152.14 286.61C152.139 286.551 152.139 286.495 152.14 286.443C152.79 286.542 153.434 286.671 154.071 286.83C154.117 286.976 154.182 287.115 154.266 287.244ZM154.704 287.658C154.705 287.658 154.704 287.659 154.704 287.66L154.704 287.658Z" fill="#2E2C2B" stroke="#9C9692"/>
<path d="M150.167 269.919L150.173 269.846L150.158 269.774C149.786 267.972 149.372 266.099 148.953 264.201C148.61 262.65 148.264 261.083 147.934 259.525L147.932 259.517L147.931 259.513C147.732 258.587 147.028 257.91 146.273 257.28C146.073 257.114 145.867 256.948 145.656 256.778C145.026 256.272 144.35 255.729 143.683 255.028C141.998 253.258 140.389 250.485 140.513 245.078C140.691 245.096 140.911 245.131 141.175 245.188C141.689 245.298 142.317 245.474 143.027 245.699C144.447 246.148 146.157 246.775 147.882 247.408L147.89 247.411C149.606 248.041 151.336 248.676 152.78 249.132C153.503 249.361 154.165 249.548 154.724 249.667C155.032 249.733 155.328 249.783 155.596 249.803C155.711 253.095 155.617 256.286 155.485 259.47C155.457 260.156 155.427 260.842 155.397 261.528C155.28 264.178 155.163 266.839 155.146 269.548C155.05 273.67 154.772 277.037 154.5 280.341C154.336 282.33 154.174 284.296 154.055 286.39C153.982 286.577 153.715 286.772 153.195 286.781C152.945 286.785 152.692 286.74 152.481 286.655C152.304 286.583 152.18 286.493 152.102 286.402C150.972 281.537 149.656 275.71 150.167 269.919Z" stroke="#9C9692"/>
<path d="M140.033 242.816C137.293 236.92 138.126 228.993 143.452 223.949C141.571 227.723 140.712 232.355 140.327 236.265C140.091 238.669 140.032 240.823 140.032 242.377C140.032 242.529 140.032 242.676 140.033 242.816Z" fill="#2E2C2B" stroke="#9C9692"/>
<path d="M144.913 251.212C149.849 253.981 155.013 253.987 156.775 250.582C156.116 244.243 155.495 239.082 156.77 233.006C156.395 229.651 155.637 227.612 156.067 225.653C153.351 225.282 151.013 221.111 149.438 220.791C142.688 219.413 139.41 231.44 139.975 244.261C140.187 245.729 140.746 247.125 141.605 248.333C142.464 249.542 143.598 250.529 144.914 251.212H144.913Z" fill="#2E2C2B" stroke="#9C9692"/>
<path d="M145.674 222.09C146.978 221.056 146.941 219.806 146.721 218.366C146.429 217.57 146.28 216.729 146.281 215.881C146.281 212.674 148.323 209.904 150.826 210.072C155.869 210.419 154.972 213.072 154.972 216.275C154.972 219.246 153.624 221.29 151.371 221.635C151.371 222.127 150.941 222.649 152.222 223.757C150.45 224.175 148.101 223.299 147.152 222.871C146.136 222.419 145.28 222.139 145.674 222.09Z" fill="#2E2C2B" stroke="#9C9692"/>
<path d="M152.27 229.895C152.174 228.3 153.067 226.771 154.488 226.503L154.488 226.503C162.301 225.043 167.262 219.416 170.46 213.894L172.57 214.797C170.869 221.838 165.313 231.062 155.604 232.846C154.451 232.837 153.656 232.462 153.135 231.94C152.602 231.404 152.317 230.671 152.27 229.895Z" stroke="#9C9692"/>
<path d="M170.713 212.282L170.704 212.312C170.704 211.007 170.977 210.244 171.479 210.027C171.588 209.715 171.702 209.39 171.812 209.08C172.462 207.26 174.499 205.7 174.931 206.133C175.192 206.394 174.156 207.195 173.61 208.061C173.353 208.474 173.197 208.942 173.155 209.426C173.155 209.426 175.592 209.653 175.592 211.679C175.592 213.325 174.706 212.675 174.706 212.35C174.078 214.018 173.327 213.033 173.041 214.391L170.404 213.225C170.404 213.225 170.528 212.848 170.715 212.283L170.713 212.282Z" fill="#2E2C2B" stroke="#9C9692"/>
<path d="M145.618 215.847C145.73 216.723 146.097 217.552 146.678 218.226L146.7 218.25L146.718 218.278C147.008 218.721 147.194 219.222 147.263 219.743C147.844 219.739 148.316 219.833 148.682 219.906C148.797 219.929 148.902 219.95 148.996 219.965C149.242 220.005 149.41 220.007 149.562 219.967C149.709 219.927 149.891 219.834 150.131 219.594L150.144 219.58L150.159 219.568C150.916 218.919 151.633 218.226 152.306 217.491C152.304 217.485 152.301 217.478 152.297 217.469C152.297 217.467 152.296 217.465 152.295 217.463C152.287 217.441 152.273 217.407 152.261 217.37C152.232 217.281 152.204 217.168 152.204 217.027C152.204 216.326 152.285 215.805 152.463 215.456C152.555 215.273 152.692 215.104 152.889 215.003C153.095 214.898 153.309 214.896 153.491 214.946C153.677 214.998 153.838 215.104 153.969 215.226C154.237 214.644 154.478 214.118 154.684 213.641C154.991 212.925 155.202 212.355 155.297 211.908C155.395 211.448 155.348 211.222 155.276 211.108C155.215 211.01 155.058 210.874 154.584 210.813L154.14 210.756L154.148 210.308C154.153 210.04 154.13 209.773 154.08 209.511L154.08 209.511C154.059 209.398 154.034 209.342 154.02 209.317C154.003 209.316 153.972 209.316 153.922 209.322C153.873 209.328 153.825 209.337 153.762 209.347C153.745 209.35 153.728 209.353 153.709 209.357C153.627 209.371 153.524 209.388 153.416 209.393C153.199 209.405 152.89 209.376 152.635 209.126C152.465 208.966 152.283 208.82 152.09 208.69C152.035 208.668 151.886 208.648 151.579 208.747C151.266 208.848 150.888 209.039 150.473 209.293C150.308 209.397 150.136 209.445 149.989 209.472C149.868 209.494 149.737 209.507 149.626 209.518C149.606 209.52 149.586 209.522 149.567 209.524C149.306 209.55 149.077 209.584 148.841 209.706L145.618 215.847ZM145.618 215.847C145.703 215.799 145.783 215.735 145.853 215.649C146.032 215.428 146.076 215.145 146.095 214.941C146.112 214.75 146.113 214.525 146.113 214.303C146.113 214.271 146.113 214.238 146.113 214.206C146.114 213.943 146.118 213.664 146.145 213.369C146.199 212.784 146.342 212.151 146.724 211.53C147.105 210.911 147.744 210.271 148.84 209.706L145.618 215.847ZM154.008 209.299C154.008 209.299 154.009 209.3 154.01 209.302C154.009 209.3 154.008 209.299 154.008 209.299Z" stroke="#9C9692"/>
<path d="M226.458 72.7848L200.055 88.0299C200.251 79.6261 203.244 70.3828 208.007 62.1322C212.77 53.8815 219.278 46.6674 226.458 42.2963V72.7848Z" fill="#2E2C2B" stroke="#9C9692"/>
<path d="M221.783 38.4304L240.523 49.2511L213.668 97.0555L194.37 85.9138C194.369 68.4302 206.642 47.1677 221.783 38.4304Z" fill="#2E2C2B" stroke="#9C9692" stroke-linecap="round" stroke-linejoin="round"/>
<path d="M226.958 41.4185V73.0734L199.545 88.9019C199.545 71.4193 211.818 50.1598 226.958 41.4185Z" fill="#2E2C2B" stroke="#9C9692" stroke-linecap="round" stroke-linejoin="round"/>
<path d="M199.545 88.904L226.959 73.0756L202.686 101.802C200.683 98.5531 199.545 94.213 199.545 88.904Z" fill="#2E2C2B" stroke="#9C9692" stroke-linecap="round" stroke-linejoin="round"/>
<path d="M226.958 73.0725V41.4176C242.099 32.6763 254.372 39.7625 254.372 57.2451C254.372 74.7277 242.099 95.9862 226.958 104.728C216.418 110.813 207.272 109.22 202.685 101.797L226.958 73.0725Z" fill="#2E2C2B" stroke="#9C9692" stroke-linecap="round" stroke-linejoin="round"/>
<path d="M221.783 38.4304C229.397 34.0341 236.285 33.6442 241.253 36.5596L246.083 39.349V39.3569C241.143 36.6531 234.401 37.1189 226.961 41.4147L221.785 38.4264L221.783 38.4304Z" fill="#2E2C2B" stroke="#9C9692" stroke-linecap="round" stroke-linejoin="round"/>
<path d="M201.909 103.35C200.118 102.188 198.614 100.635 197.51 98.8088L202.686 101.797C203.79 103.624 205.295 105.176 207.086 106.338L201.909 103.35Z" fill="#2E2C2B" stroke="#9C9692" stroke-linecap="round" stroke-linejoin="round"/>
<path d="M197.51 98.8088C195.507 95.5685 194.369 91.2274 194.369 85.9105L199.545 88.8988C199.545 94.2097 200.683 98.5548 202.686 101.797L197.51 98.8088Z" fill="#2E2C2B" stroke="#9C9692" stroke-linecap="round" stroke-linejoin="round"/>
<path d="M99.038 321.978C99.038 321.075 97.445 319.939 96.6485 319.476L96.6682 326.258C97.4627 326.721 99.0548 327.857 99.0568 328.76L99.038 321.978Z" fill="#2E2C2B" stroke="#9C9692" stroke-linecap="round" stroke-linejoin="round"/>
<path d="M124.524 326.258L124.504 319.476C123.7 319.941 122.084 321.087 122.087 321.991L122.106 328.773C122.104 327.868 123.715 326.723 124.524 326.258Z" fill="#2E2C2B" stroke="#9C9692" stroke-linecap="round" stroke-linejoin="round"/>
<path d="M105.546 329.771C107.104 328.977 108.827 328.563 110.576 328.563C112.324 328.563 114.048 328.977 115.605 329.771C116.175 330.028 116.666 330.431 117.029 330.939C117.392 331.447 117.615 332.043 117.673 332.665L117.652 325.882C117.594 325.26 117.372 324.664 117.008 324.156C116.645 323.648 116.154 323.245 115.585 322.988C114.027 322.195 112.303 321.781 110.555 321.781C108.807 321.781 107.083 322.195 105.525 322.988C104.946 323.246 104.446 323.653 104.078 324.169C103.709 324.684 103.484 325.289 103.427 325.92L103.445 332.702C103.502 332.071 103.727 331.466 104.097 330.951C104.466 330.435 104.966 330.028 105.546 329.771Z" fill="#2E2C2B" stroke="#9C9692"/>
<path d="M99.4043 333.968L96.5765 332.324L96.5953 339.106L99.4239 340.751L99.4043 333.968Z" fill="#2E2C2B" stroke="#9C9692" stroke-linecap="round" stroke-linejoin="round"/>
<path d="M124.452 339.105L124.432 332.323L121.584 333.968L121.604 340.75L124.452 339.105Z" fill="#2E2C2B" stroke="#9C9692" stroke-linecap="round" stroke-linejoin="round"/>
<path d="M104.674 339.491C105.214 339.647 105.772 339.781 106.34 339.891C108.112 340.157 108.491 342.087 108.493 342.897L108.474 336.114C108.474 335.303 108.089 333.375 106.32 333.109C105.759 333 105.203 332.866 104.654 332.708C103.059 332.166 100.376 333.404 99.4052 333.965L99.4249 340.748C100.395 340.19 103.08 338.948 104.674 339.491Z" fill="#2E2C2B" stroke="#9C9692" stroke-linecap="round" stroke-linejoin="round"/>
<path d="M113.892 340.169C114.141 340.027 114.415 339.933 114.699 339.894C115.26 339.784 115.815 339.651 116.365 339.494C117.969 338.95 120.639 340.189 121.603 340.75L121.584 333.968C120.62 333.406 117.95 332.168 116.347 332.712C115.797 332.868 115.241 333.001 114.68 333.111C114.396 333.151 114.122 333.244 113.873 333.386C113.446 333.709 113.1 334.125 112.859 334.603C112.619 335.081 112.491 335.608 112.485 336.143L112.505 342.924C112.51 342.389 112.638 341.862 112.879 341.384C113.119 340.906 113.466 340.49 113.892 340.167V340.169Z" fill="#2E2C2B" stroke="#9C9692" stroke-linecap="round" stroke-linejoin="round"/>
<path d="M96.5775 332.322C97.5473 331.762 99.6986 330.21 98.7643 329.285C98.5055 328.985 98.2748 328.662 98.075 328.319C97.6172 327.28 94.2096 327.061 92.844 327.061L92.8627 333.843C94.1122 333.84 95.3583 333.974 96.5785 334.243L96.5775 332.322Z" fill="#2E2C2B" stroke="#9C9692" stroke-linecap="round" stroke-linejoin="round"/>
<path d="M112.505 342.927L112.485 336.146H108.473L108.493 342.928L112.505 342.927Z" fill="#2E2C2B" stroke="#9C9692" stroke-linecap="round" stroke-linejoin="round"/>
<path d="M84.0468 194.87L83.9976 211.51C83.9976 212.691 83.2099 213.865 81.671 214.768L48.471 234.066C46.7149 234.959 44.7729 235.426 42.8026 235.428C40.8324 235.429 38.8895 234.967 37.1316 234.077L3.7101 214.779C2.12591 213.867 1.33431 212.663 1.34711 211.471L1.38748 194.832C1.38748 196.034 2.17514 197.228 3.76327 198.139L37.173 217.437C38.9305 218.328 40.8734 218.791 42.8437 218.79C44.8141 218.788 46.7562 218.322 48.5124 217.428L81.7124 198.13C83.2641 197.237 84.0468 196.052 84.0468 194.87Z" fill="#2E2C2B" stroke="#9C9692"/>
<path d="M81.6826 191.57C84.8185 193.381 84.8333 196.323 81.7141 198.138L48.5142 217.436C46.7578 218.33 44.8151 218.795 42.8445 218.795C40.8739 218.795 38.9311 218.33 37.1748 217.436L3.75619 198.138C0.613414 196.324 0.595689 193.381 3.71976 191.566L36.9198 172.268C38.677 171.373 40.621 170.906 42.5929 170.906C44.5648 170.906 46.5088 171.373 48.266 172.268L81.6826 191.57Z" fill="#2E2C2B" stroke="#9C9692"/>
<path d="M80.3812 176.611L80.3359 192.008C80.2767 192.646 80.0492 193.257 79.6766 193.779C79.304 194.301 78.7997 194.714 78.2151 194.977L47.96 212.559C46.3591 213.374 44.5884 213.8 42.792 213.801C40.9956 213.803 39.2243 213.38 37.6219 212.568L7.16498 194.985C6.56823 194.722 6.05321 194.303 5.67374 193.772C5.29427 193.241 5.06427 192.618 5.00777 191.968L5.0442 176.571C5.10386 177.221 5.33609 177.844 5.7169 178.374C6.09771 178.905 6.61327 179.324 7.21027 179.588L37.6603 197.18C39.2626 197.992 41.034 198.415 42.8304 198.413C44.6268 198.412 46.3975 197.986 47.9984 197.171L78.2545 179.588C78.8409 179.325 79.3469 178.91 79.7205 178.387C80.0942 177.864 80.3222 177.251 80.3812 176.611Z" fill="#2E2C2B" stroke="#9C9692"/>
<path d="M84.0468 167.899L83.9976 184.538C83.9976 185.72 83.2099 186.894 81.671 187.797L48.471 207.095C46.7149 207.988 44.7729 208.454 42.8026 208.456C40.8324 208.458 38.8895 207.995 37.1316 207.106L3.7101 187.807C2.12591 186.896 1.33431 185.691 1.34711 184.497L1.38748 167.857C1.38748 169.06 2.17514 170.254 3.76327 171.168L37.173 190.466C38.9305 191.357 40.8734 191.82 42.8437 191.818C44.8141 191.817 46.7562 191.35 48.5124 190.457L81.7124 171.159C83.2641 170.264 84.0468 169.081 84.0468 167.899Z" fill="#2E2C2B" stroke="#9C9692"/>
<path d="M81.6826 164.597C84.8185 166.409 84.8333 169.351 81.7141 171.166L48.5142 190.464C46.7578 191.357 44.8151 191.823 42.8445 191.823C40.8739 191.823 38.9311 191.357 37.1748 190.464L3.75619 171.166C0.613414 169.352 0.595689 166.409 3.71976 164.593L36.9198 145.295C38.677 144.401 40.621 143.934 42.5929 143.934C44.5648 143.934 46.5088 144.401 48.266 145.295L81.6826 164.597Z" fill="#2E2C2B" stroke="#9C9692"/>
<path d="M80.3812 149.638L80.3359 165.036C80.2767 165.674 80.0492 166.285 79.6766 166.807C79.304 167.329 78.7997 167.742 78.2151 168.005L47.96 185.587C46.3591 186.402 44.5884 186.828 42.792 186.829C40.9956 186.831 39.2242 186.408 37.6219 185.596L7.16498 168.013C6.56823 167.749 6.05321 167.33 5.67374 166.8C5.29427 166.269 5.06427 165.646 5.00777 164.996L5.0442 149.599C5.10376 150.249 5.33599 150.871 5.71684 151.401C6.0977 151.931 6.61331 152.349 7.21027 152.613L37.6593 170.204C39.2616 171.016 41.033 171.439 42.8294 171.437C44.6258 171.435 46.3965 171.01 47.9974 170.195L78.2535 152.612C78.84 152.349 79.346 151.936 79.7199 151.413C80.0938 150.891 80.322 150.278 80.3812 149.638Z" fill="#2E2C2B" stroke="#9C9692"/>
<path d="M84.0468 140.924L83.9976 157.564C83.9976 158.746 83.2099 159.922 81.671 160.822L48.469 180.12C46.7129 181.014 44.7709 181.48 42.8006 181.482C40.8304 181.484 38.8875 181.021 37.1296 180.131L3.70811 160.833C2.12393 159.921 1.33232 158.716 1.34512 157.523L1.38549 140.883C1.38549 142.085 2.17316 143.28 3.76128 144.19L37.171 163.489C38.9285 164.379 40.8714 164.843 42.8417 164.841C44.8121 164.84 46.7543 164.373 48.5104 163.48L81.7104 144.182C83.264 143.291 84.0468 142.109 84.0468 140.924Z" fill="#2E2C2B" stroke="#9C9692"/>
<path d="M81.6833 137.626C84.8192 139.438 84.8339 142.38 81.7148 144.194L48.5148 163.492C46.7584 164.386 44.8157 164.852 42.8451 164.852C40.8745 164.852 38.9318 164.386 37.1754 163.492L3.75683 144.194C0.614055 142.381 0.59633 139.438 3.7204 137.622L36.9204 118.324C38.6777 117.429 40.6216 116.963 42.5935 116.963C44.5654 116.963 46.5094 117.429 48.2667 118.324L81.6833 137.626Z" fill="#2E2C2B" stroke="#9C9692"/>
<path d="M68.6618 138.03L68.6303 140.83C68.5892 141.27 68.4324 141.69 68.176 142.05C67.9195 142.409 67.5725 142.694 67.1702 142.876L46.3208 154.992C45.2177 155.554 43.9979 155.847 42.7604 155.848C41.5228 155.849 40.3024 155.558 39.1983 154.999L18.2111 142.883C17.8002 142.701 17.4456 142.412 17.1841 142.046C16.9227 141.681 16.7639 141.252 16.7243 140.804L16.749 138.004C16.7901 138.452 16.95 138.881 17.2122 139.246C17.4745 139.612 17.8295 139.9 18.2406 140.083L39.221 152.203C40.3251 152.762 41.5455 153.053 42.783 153.052C44.0206 153.05 45.2404 152.757 46.3434 152.196L67.1929 140.08C67.5975 139.899 67.9469 139.614 68.205 139.254C68.4632 138.893 68.6209 138.471 68.6618 138.03Z" fill="#2E2C2B" stroke="#9C9692"/>
<path d="M67.1828 135.959C69.152 137.096 69.1638 138.944 67.2005 140.084L46.3511 152.2C45.2482 152.761 44.0283 153.054 42.7909 153.054C41.5534 153.054 40.3335 152.761 39.2306 152.2L18.2414 140.086C16.2673 138.946 16.2555 137.098 18.2187 135.959L39.0682 123.843C40.1717 123.281 41.3925 122.988 42.6309 122.988C43.8692 122.988 45.09 123.281 46.1936 123.843L67.1828 135.959Z" fill="#2E2C2B" stroke="#9C9692"/>
<path d="M313.751 104.053L316.632 102.391C316.506 102.46 316.377 102.522 316.244 102.576C316.225 102.576 316.207 102.595 316.189 102.595C316.06 102.632 315.949 102.669 315.82 102.706C315.801 102.706 315.765 102.725 315.746 102.725C315.599 102.752 315.451 102.771 315.303 102.78H314.712C314.545 102.764 314.378 102.74 314.214 102.706C314.204 102.707 314.194 102.706 314.184 102.703C314.175 102.7 314.166 102.694 314.159 102.687C313.992 102.651 313.808 102.595 313.642 102.54C313.623 102.54 313.623 102.54 313.604 102.521C313.414 102.463 313.228 102.389 313.05 102.299C313.031 102.299 313.031 102.281 313.014 102.281C312.83 102.188 312.626 102.097 312.423 101.985C312.219 101.873 312.022 101.75 311.832 101.616C311.814 101.616 311.813 101.597 311.795 101.597C311.608 101.472 311.43 101.337 311.259 101.191L311.203 101.136L310.705 100.693L310.65 100.637C310.483 100.471 310.317 100.323 310.152 100.139L310.115 100.102C309.949 99.9167 309.782 99.7325 309.617 99.5297C309.451 99.3268 309.284 99.1231 309.136 98.9203C308.99 98.7309 308.855 98.5335 308.73 98.3294C308.656 98.2005 308.563 98.0705 308.49 97.9602C308.416 97.8499 308.361 97.7387 308.287 97.6462C308.26 97.5944 308.229 97.545 308.194 97.4984C308.083 97.3143 307.991 97.1292 307.899 96.9441C307.88 96.9254 307.88 96.9077 307.862 96.889C307.751 96.6674 307.641 96.4272 307.548 96.2057C307.548 96.187 307.53 96.187 307.53 96.1693C307.437 95.9477 307.345 95.7075 307.253 95.486C307.251 95.4721 307.244 95.4594 307.234 95.4496C307.142 95.2093 307.068 94.9878 306.994 94.7475C306.994 94.7288 306.994 94.7101 306.975 94.7101C306.901 94.4886 306.846 94.267 306.791 94.0267C306.791 94.008 306.772 93.9904 306.772 93.9717C306.717 93.7314 306.68 93.5099 306.643 93.2697V93.2509C306.606 93.0107 306.588 92.7891 306.551 92.5489V92.4937C306.526 92.2668 306.52 92.0383 306.532 91.8104C306.532 91.5889 306.551 91.3673 306.57 91.1645V91.1093C306.588 90.9252 306.606 90.7401 306.643 90.556C306.643 90.5373 306.662 90.5009 306.662 90.4822C306.696 90.314 306.74 90.1477 306.791 89.984C306.81 89.9476 306.81 89.9289 306.829 89.8915C306.884 89.7438 306.939 89.596 306.995 89.4671C306.995 89.4484 307.014 89.4306 307.014 89.4119C307.083 89.2645 307.163 89.1227 307.254 88.9876C307.273 88.9689 307.273 88.9512 307.29 88.9325C307.364 88.8222 307.438 88.7296 307.512 88.637C307.548 88.6006 307.567 88.5632 307.604 88.5445L307.826 88.323C307.863 88.3043 307.881 88.2679 307.918 88.2492C308.028 88.1587 308.145 88.0783 308.269 88.0089L305.388 89.6709C305.267 89.7445 305.15 89.8247 305.038 89.9112C305 89.9299 304.983 89.9663 304.945 89.985L304.723 90.2065C304.687 90.2429 304.668 90.2803 304.632 90.299C304.552 90.3929 304.478 90.4916 304.41 90.5945C304.392 90.6132 304.392 90.6309 304.373 90.6496V90.6683C304.299 90.7972 304.225 90.9273 304.151 91.075V91.0936C304.144 91.1008 304.139 91.1095 304.136 91.1191C304.133 91.1286 304.132 91.1388 304.133 91.1488L304.023 91.4255C304.004 91.4806 303.985 91.518 303.967 91.5732C303.949 91.6096 303.949 91.6283 303.931 91.6657C303.931 91.6844 303.912 91.7208 303.912 91.7395C303.879 91.8356 303.854 91.9345 303.838 92.0349C303.838 92.0714 303.82 92.1088 303.82 92.1462C303.82 92.1649 303.801 92.2013 303.801 92.22C303.801 92.2565 303.782 92.2939 303.782 92.3313C303.761 92.4221 303.748 92.5148 303.745 92.608C303.745 92.6631 303.726 92.7182 303.726 92.7744V92.9033C303.726 92.9959 303.707 93.0884 303.707 93.18V93.7707C303.704 93.8633 303.711 93.956 303.726 94.0474C303.723 94.0912 303.73 94.1351 303.745 94.1764V94.3241C303.749 94.4234 303.762 94.5222 303.782 94.6195C303.801 94.7121 303.801 94.8223 303.819 94.9148V94.9336L303.874 95.2103C303.893 95.3205 303.911 95.4131 303.929 95.5243C303.929 95.5607 303.948 95.5982 303.948 95.6356C303.948 95.6543 303.966 95.6731 303.966 95.6908C303.985 95.7282 303.985 95.7833 304.004 95.8197C304.022 95.931 304.059 96.0225 304.078 96.1338C304.094 96.2102 304.119 96.2844 304.151 96.3553C304.151 96.374 304.151 96.3917 304.17 96.3917C304.17 96.4104 304.17 96.4105 304.189 96.4283C304.225 96.5385 304.244 96.6311 304.281 96.7423C304.318 96.8349 304.355 96.9451 304.392 97.0376C304.392 97.0563 304.41 97.0741 304.41 97.0928C304.412 97.1067 304.419 97.1195 304.429 97.1292C304.448 97.1844 304.484 97.2582 304.503 97.3143C304.54 97.4069 304.577 97.4995 304.613 97.6097C304.65 97.6836 304.668 97.7388 304.706 97.8126C304.706 97.8313 304.725 97.8313 304.725 97.85C304.725 97.8687 304.743 97.8687 304.743 97.8864C304.781 97.979 304.836 98.0715 304.872 98.1631C304.927 98.2734 304.965 98.3659 305.02 98.4772C305.02 98.4959 305.039 98.5146 305.039 98.5323C305.057 98.551 305.057 98.5688 305.075 98.5875C305.112 98.6613 305.168 98.7538 305.204 98.8276C305.259 98.9389 305.315 99.0305 305.37 99.1231C305.397 99.1749 305.428 99.2244 305.463 99.2708C305.482 99.2895 305.482 99.3082 305.499 99.3259C305.555 99.4185 305.611 99.4923 305.666 99.5839C305.739 99.7173 305.819 99.8468 305.906 99.9719C305.924 99.9906 305.924 100.009 305.942 100.027C306.071 100.212 306.183 100.377 306.312 100.563C306.404 100.673 306.478 100.803 306.571 100.913L306.792 101.19C306.861 101.28 306.935 101.366 307.014 101.449C307.087 101.541 307.161 101.615 307.235 101.708L307.272 101.744L307.309 101.78L307.475 101.947C307.552 102.036 307.639 102.117 307.733 102.187L307.807 102.261L307.862 102.316C307.901 102.358 307.945 102.395 307.991 102.427C308.084 102.501 308.158 102.575 308.249 102.649C308.286 102.685 308.323 102.704 308.361 102.742L308.416 102.797C308.453 102.815 308.471 102.852 308.508 102.87C308.601 102.944 308.675 102.999 308.766 103.073C308.823 103.122 308.885 103.166 308.951 103.202C308.97 103.202 308.97 103.221 308.988 103.221C309.005 103.221 309.006 103.24 309.025 103.24C309.118 103.295 309.192 103.35 309.283 103.406C309.363 103.466 309.45 103.516 309.542 103.554C309.561 103.572 309.578 103.572 309.597 103.59C309.652 103.628 309.726 103.664 309.782 103.701C309.856 103.738 309.949 103.794 310.023 103.83C310.074 103.851 310.123 103.876 310.17 103.904C310.189 103.904 310.189 103.923 310.208 103.923C310.222 103.925 310.235 103.932 310.245 103.942C310.322 103.981 310.402 104.012 310.485 104.034C310.559 104.071 310.652 104.089 310.726 104.127C310.744 104.127 310.744 104.127 310.762 104.145C310.781 104.145 310.781 104.146 310.799 104.164L310.966 104.219C311.04 104.238 311.132 104.274 311.206 104.293C311.241 104.308 311.279 104.315 311.316 104.312C311.326 104.311 311.336 104.312 311.346 104.315C311.355 104.318 311.364 104.324 311.371 104.331C311.39 104.331 311.427 104.349 311.445 104.349C311.53 104.371 311.617 104.383 311.704 104.387C311.759 104.387 311.814 104.405 311.852 104.405H311.962C312.054 104.415 312.147 104.415 312.239 104.405H312.534C312.646 104.396 312.758 104.378 312.867 104.35C312.886 104.35 312.922 104.332 312.941 104.332C313.054 104.309 313.165 104.278 313.274 104.239C313.292 104.239 313.292 104.22 313.31 104.22C313.328 104.22 313.347 104.202 313.365 104.202C313.501 104.171 313.631 104.121 313.751 104.053Z" fill="#2E2C2B" stroke="#9C9692"/>
<mask id="mask0_115_10323" style="mask-type:luminance" maskUnits="userSpaceOnUse" x="320" y="112" width="5" height="4">
<mask id="path-75-inside-4_115_10323" fill="white">
<path d="M323.225 113.707L320.344 115.369C320.784 115.116 321.193 114.812 321.563 114.464L324.443 112.802C324.071 113.147 323.663 113.451 323.225 113.707Z"/>
</mask>
<path d="M323.225 113.707L320.344 115.369C320.784 115.116 321.193 114.812 321.563 114.464L324.443 112.802C324.071 113.147 323.663 113.451 323.225 113.707Z" fill="white"/>
<path d="M323.225 113.707L323.724 114.573L323.729 114.57L323.225 113.707ZM320.344 115.369L319.844 114.503L320.842 116.236L320.344 115.369ZM321.563 114.464L321.063 113.598L320.962 113.656L320.877 113.736L321.563 114.464ZM324.443 112.802L325.124 113.535L323.944 111.936L324.443 112.802ZM322.725 112.841L319.844 114.503L320.843 116.235L323.724 114.573L322.725 112.841ZM320.842 116.236C321.35 115.944 321.822 115.593 322.248 115.192L320.877 113.736C320.564 114.031 320.218 114.288 319.845 114.502L320.842 116.236ZM322.062 115.33L324.943 113.668L323.944 111.936L321.063 113.598L322.062 115.33ZM323.763 112.069C323.444 112.365 323.095 112.624 322.72 112.844L323.729 114.57C324.231 114.277 324.698 113.93 325.124 113.535L323.763 112.069Z" fill="white" mask="url(#path-75-inside-4_115_10323)"/>
</mask>
<g mask="url(#mask0_115_10323)">
<mask id="path-77-inside-5_115_10323" fill="white">
<path d="M321.563 114.483L324.443 112.821C324.067 113.161 323.659 113.464 323.225 113.726L320.344 115.388C320.784 115.135 321.193 114.831 321.563 114.483Z"/>
</mask>
<path d="M321.563 114.483L324.443 112.821C324.067 113.161 323.659 113.464 323.225 113.726L320.344 115.388C320.784 115.135 321.193 114.831 321.563 114.483Z" fill="#2E2C2B"/>
<path d="M321.563 114.483L321.063 113.617L320.962 113.675L320.877 113.755L321.563 114.483ZM324.443 112.821L325.113 113.564L323.943 111.955L324.443 112.821ZM323.225 113.726L323.724 114.592L323.733 114.587L323.742 114.582L323.225 113.726ZM320.344 115.388L319.844 114.522L320.842 116.255L320.344 115.388ZM322.062 115.349L324.943 113.687L323.943 111.955L321.063 113.617L322.062 115.349ZM323.774 112.078C323.444 112.376 323.087 112.641 322.707 112.87L323.742 114.582C324.23 114.287 324.689 113.946 325.113 113.564L323.774 112.078ZM322.725 112.86L319.844 114.522L320.843 116.254L323.724 114.592L322.725 112.86ZM320.842 116.255C321.35 115.963 321.822 115.613 322.248 115.211L320.877 113.755C320.564 114.05 320.218 114.307 319.845 114.521L320.842 116.255Z" fill="#9C9692" mask="url(#path-77-inside-5_115_10323)"/>
</g>
<mask id="mask1_115_10323" style="mask-type:luminance" maskUnits="userSpaceOnUse" x="298" y="75" width="6" height="4">
<mask id="path-79-inside-6_115_10323" fill="white">
<path d="M298.797 78.2916L301.678 76.6296C302.163 76.3519 302.677 76.129 303.211 75.965L300.331 77.627C299.79 77.7715 299.273 77.9955 298.797 78.2916Z"/>
</mask>
<path d="M298.797 78.2916L301.678 76.6296C302.163 76.3519 302.677 76.129 303.211 75.965L300.331 77.627C299.79 77.7715 299.273 77.9955 298.797 78.2916Z" fill="white"/>
<path d="M298.797 78.2916L298.269 77.4427L299.297 79.1578L298.797 78.2916ZM301.678 76.6296L301.181 75.7619L301.178 75.7634L301.678 76.6296ZM303.211 75.965L303.711 76.8311L302.918 75.009L303.211 75.965ZM300.331 77.627L300.589 78.5931L300.717 78.5591L300.831 78.4931L300.331 77.627ZM299.297 79.1578L302.178 77.4958L301.178 75.7634L298.298 77.4254L299.297 79.1578ZM302.175 77.4974C302.596 77.2565 303.042 77.0631 303.505 76.9209L302.918 75.009C302.313 75.1948 301.73 75.4474 301.181 75.7619L302.175 77.4974ZM302.711 75.0988L299.831 76.7608L300.831 78.4931L303.711 76.8311L302.711 75.0988ZM300.073 76.6608C299.436 76.8308 298.828 77.0944 298.269 77.4427L299.326 79.1406C299.718 78.8966 300.143 78.7121 300.589 78.5931L300.073 76.6608Z" fill="white" mask="url(#path-79-inside-6_115_10323)"/>
</mask>
<g mask="url(#mask1_115_10323)">
<mask id="path-81-inside-7_115_10323" fill="white">
<path d="M298.797 78.2914L301.678 76.6294C302.075 76.3942 302.496 76.2023 302.934 76.0573L300.054 77.7193C299.615 77.8607 299.192 78.0527 298.797 78.2914Z"/>
</mask>
<path d="M298.797 78.2914L301.678 76.6294C302.075 76.3942 302.496 76.2023 302.934 76.0573L300.054 77.7193C299.615 77.8607 299.192 78.0527 298.797 78.2914Z" fill="#2E2C2B"/>
<path d="M298.797 78.2914L298.28 77.4356L299.297 79.1576L298.797 78.2914ZM301.678 76.6294L302.178 77.4957L302.188 77.4895L301.678 76.6294ZM302.934 76.0573L303.434 76.9234L302.619 75.108L302.934 76.0573ZM300.054 77.7193L300.36 78.6712L300.461 78.6386L300.554 78.5854L300.054 77.7193ZM299.297 79.1576L302.178 77.4956L301.179 75.7632L298.298 77.4252L299.297 79.1576ZM302.188 77.4895C302.523 77.2909 302.879 77.129 303.248 77.0066L302.619 75.108C302.113 75.2756 301.627 75.4974 301.168 75.7693L302.188 77.4895ZM302.434 75.1912L299.554 76.8532L300.554 78.5854L303.434 76.9234L302.434 75.1912ZM299.747 76.7674C299.235 76.9324 298.742 77.1566 298.28 77.4356L299.315 79.1472C299.643 78.9489 299.994 78.789 300.36 78.6712L299.747 76.7674Z" fill="#9C9692" mask="url(#path-81-inside-7_115_10323)"/>
<mask id="path-83-inside-8_115_10323" fill="white">
<path d="M300.053 77.6996L302.933 76.0376C303.025 76.0011 303.118 75.9824 303.209 75.945L300.329 77.607C300.239 77.6462 300.148 77.6771 300.053 77.6996Z"/>
</mask>
<path d="M300.053 77.6996L302.933 76.0376C303.025 76.0011 303.118 75.9824 303.209 75.945L300.329 77.607C300.239 77.6462 300.148 77.6771 300.053 77.6996Z" fill="#2E2C2B"/>
<path d="M300.053 77.6996L299.553 76.8334L300.283 78.6728L300.053 77.6996ZM302.933 76.0376L302.566 75.107L302.497 75.1343L302.433 75.1714L302.933 76.0376ZM303.209 75.945L303.709 76.8112L302.831 75.0193L303.209 75.945ZM300.329 77.607L300.731 78.5227L300.781 78.5006L300.828 78.4732L300.329 77.607ZM300.553 78.5657L303.433 76.9037L302.433 75.1714L299.553 76.8334L300.553 78.5657ZM303.299 76.9681C303.297 76.9689 303.299 76.968 303.309 76.9647C303.321 76.9608 303.334 76.957 303.36 76.9491C303.402 76.9364 303.492 76.9099 303.588 76.8707L302.831 75.0193C302.836 75.0175 302.833 75.0191 302.783 75.0342C302.746 75.0454 302.658 75.071 302.566 75.107L303.299 76.9681ZM302.71 75.0788L299.829 76.7408L300.828 78.4732L303.709 76.8112L302.71 75.0788ZM299.927 76.6913C299.891 76.707 299.857 76.7183 299.823 76.7263L300.283 78.6728C300.439 78.6359 300.588 78.5854 300.731 78.5227L299.927 76.6913Z" fill="#9C9692" mask="url(#path-83-inside-8_115_10323)"/>
</g>
<mask id="path-85-inside-9_115_10323" fill="white">
<path d="M315.581 89.2042L318.443 87.5422L321.767 86.6561L318.886 88.3368L315.581 89.2042Z"/>
</mask>
<path d="M315.581 89.2042L318.443 87.5422L321.767 86.6561L318.886 88.3368L315.581 89.2042Z" fill="#2E2C2B"/>
<path d="M315.581 89.2042L315.079 88.3395L315.835 90.1715L315.581 89.2042ZM318.443 87.5422L318.186 86.576L318.057 86.6104L317.941 86.6775L318.443 87.5422ZM321.767 86.6561L322.271 87.5198L321.51 85.6898L321.767 86.6561ZM318.886 88.3368L319.14 89.3041L319.272 89.2694L319.39 89.2006L318.886 88.3368ZM316.083 90.069L318.945 88.407L317.941 86.6775L315.079 88.3395L316.083 90.069ZM318.701 88.5085L322.025 87.6223L321.51 85.6898L318.186 86.576L318.701 88.5085ZM321.263 85.7923L318.382 87.4731L319.39 89.2006L322.271 87.5198L321.263 85.7923ZM318.632 87.3696L315.327 88.237L315.835 90.1715L319.14 89.3041L318.632 87.3696Z" fill="#9C9692" mask="url(#path-85-inside-9_115_10323)"/>
<mask id="path-87-inside-10_115_10323" fill="white">
<path d="M321.49 92.7873L324.371 91.1253L321.951 93.507L319.071 95.1878L321.49 92.7873Z"/>
</mask>
<path d="M321.49 92.7873L324.371 91.1253L321.951 93.507L319.071 95.1878L321.49 92.7873Z" fill="#2E2C2B"/>
<path d="M321.49 92.7873L320.99 91.9211L320.878 91.986L320.785 92.0775L321.49 92.7873ZM324.371 91.1253L325.072 91.8379L323.871 90.2591L324.371 91.1253ZM321.951 93.507L322.455 94.3708L322.564 94.3076L322.653 94.2196L321.951 93.507ZM319.071 95.1878L318.366 94.4779L319.574 96.0515L319.071 95.1878ZM321.989 93.6535L324.87 91.9915L323.871 90.2591L320.99 91.9211L321.989 93.6535ZM323.669 90.4127L321.25 92.7944L322.653 94.2196L325.072 91.8379L323.669 90.4127ZM321.448 92.6433L318.567 94.324L319.574 96.0515L322.455 94.3708L321.448 92.6433ZM319.775 95.8976L322.194 93.4971L320.785 92.0775L318.366 94.4779L319.775 95.8976Z" fill="#9C9692" mask="url(#path-87-inside-10_115_10323)"/>
<path d="M311.944 110.956L314.806 109.275L314.178 113.559L311.297 115.24L311.944 110.956Z" fill="#2E2C2B" stroke="#9C9692" stroke-linecap="round" stroke-linejoin="round"/>
<path d="M294.477 85.825L297.358 84.1442L301.42 85.7688L298.558 87.4485L294.477 85.825Z" fill="#2E2C2B" stroke="#9C9692" stroke-linecap="round" stroke-linejoin="round"/>
<path d="M319.163 109.293L322.044 107.612L324.445 112.819L321.564 114.481L319.163 109.293Z" fill="#2E2C2B" stroke="#9C9692" stroke-linecap="round" stroke-linejoin="round"/>
<path d="M300.329 77.6083L303.192 75.9464L306.497 80.6361L303.616 82.2981L300.329 77.6083Z" fill="#2E2C2B" stroke="#9C9692" stroke-linecap="round" stroke-linejoin="round"/>
<path d="M310.005 81.0239C309.928 81.0077 309.854 80.9828 309.783 80.95C309.747 80.9313 309.69 80.9313 309.654 80.9136L309.433 80.8584C309.398 80.8578 309.365 80.8448 309.34 80.822C309.304 80.8033 309.247 80.8033 309.211 80.7846C309.137 80.7659 309.063 80.7472 308.971 80.7295C308.94 80.725 308.909 80.7188 308.878 80.7108C308.841 80.7108 308.804 80.6921 308.768 80.6921C308.683 80.6706 308.597 80.6581 308.51 80.6547C308.473 80.6547 308.436 80.6359 308.399 80.6359C308.367 80.6388 308.335 80.6322 308.306 80.6172C308.214 80.5985 308.103 80.5985 308.011 80.5808C307.973 80.5808 307.937 80.5621 307.9 80.5621H307.844C307.715 80.5621 307.587 80.5434 307.457 80.5434H307.346C307.161 80.5434 306.996 80.5621 306.829 80.5621H306.774C306.675 80.5663 306.576 80.5784 306.479 80.5986L303.599 82.2606C303.709 82.2419 303.82 82.2419 303.932 82.2241C304.104 82.2087 304.276 82.2024 304.449 82.2054H304.559C304.689 82.2024 304.818 82.2087 304.947 82.2241C305.009 82.2213 305.071 82.2275 305.131 82.2428C305.23 82.2472 305.329 82.2598 305.426 82.2803C305.5 82.2803 305.555 82.2989 305.63 82.2989C305.723 82.3176 305.797 82.3176 305.889 82.3353C305.963 82.354 306.037 82.3541 306.111 82.3728C306.184 82.3915 306.258 82.4092 306.351 82.4279C306.425 82.4466 306.499 82.4643 306.591 82.483L306.813 82.5382C306.924 82.5746 307.034 82.612 307.163 82.6484L310.005 81.0239Z" fill="#2E2C2B" stroke="#9C9692" stroke-linecap="round" stroke-linejoin="round"/>
<path d="M323.484 104.457C323.502 104.364 323.52 104.254 323.539 104.162L320.658 105.824C320.636 105.955 320.605 106.084 320.565 106.212C320.543 106.325 320.512 106.436 320.473 106.544C320.454 106.618 320.435 106.673 320.418 106.747C320.367 106.929 320.305 107.108 320.233 107.283C320.159 107.485 320.067 107.671 319.993 107.855C319.956 107.91 319.938 107.984 319.901 108.04C319.863 108.096 319.846 108.169 319.808 108.225C319.775 108.295 319.738 108.362 319.697 108.428C319.659 108.479 319.628 108.535 319.604 108.594C319.58 108.641 319.549 108.685 319.512 108.723C319.399 108.903 319.276 109.075 319.143 109.24L322.024 107.578C322.157 107.413 322.28 107.241 322.393 107.061C322.411 107.042 322.429 107.024 322.429 107.006C322.449 106.986 322.462 106.96 322.467 106.932C322.504 106.881 322.535 106.825 322.559 106.766C322.592 106.696 322.628 106.628 322.669 106.563C322.707 106.508 322.725 106.434 322.762 106.378L322.817 106.268C322.836 106.249 322.836 106.212 322.853 106.194C322.944 106.008 323.025 105.817 323.094 105.622C323.149 105.455 323.223 105.271 323.279 105.086C323.279 105.067 323.298 105.049 323.298 105.031C323.316 104.976 323.316 104.938 323.335 104.883C323.372 104.773 323.39 104.662 323.427 104.55C323.465 104.512 323.484 104.494 323.484 104.457Z" fill="#2E2C2B" stroke="#9C9692" stroke-linecap="round" stroke-linejoin="round"/>
<path d="M313.845 87.1905C313.887 87.2293 313.924 87.2725 313.956 87.3195C314.215 87.5961 314.455 87.8738 314.713 88.1505C314.754 88.1896 314.791 88.2328 314.823 88.2794C315.082 88.5935 315.34 88.889 315.58 89.2208L318.461 87.5588C318.406 87.4958 318.356 87.4278 318.313 87.3559C318.165 87.1718 318.037 87.0054 317.889 86.8203C317.837 86.7444 317.775 86.6761 317.705 86.6174C317.663 86.5784 317.626 86.5352 317.593 86.4885C317.557 86.4333 317.501 86.3773 317.465 86.3221C317.317 86.1557 317.169 85.9893 317.021 85.8416C316.965 85.7754 316.903 85.7135 316.837 85.6565C316.796 85.6175 316.759 85.5743 316.726 85.5276L316.56 85.3611L316.079 84.8816C316.024 84.8442 315.987 84.7891 315.932 84.7527C315.884 84.7143 315.841 84.671 315.803 84.6236C315.729 84.5498 315.655 84.4947 315.581 84.4208L315.083 83.9778C315.045 83.9414 314.99 83.9039 314.954 83.8665L312.073 85.5285C312.368 85.7688 312.646 86.0268 312.941 86.2857C312.988 86.3238 313.031 86.3671 313.069 86.4147L313.845 87.1905Z" fill="#2E2C2B" stroke="#9C9692" stroke-linecap="round" stroke-linejoin="round"/>
<path d="M320.326 98.8986C320.326 98.9173 320.345 98.9538 320.345 98.9725C320.437 99.3781 320.53 99.7661 320.602 100.173L323.483 98.5107C323.465 98.4556 323.465 98.3994 323.447 98.3266C323.409 98.1415 323.373 97.9386 323.336 97.7545C323.299 97.6068 323.262 97.4591 323.225 97.3115C323.225 97.2927 323.206 97.2562 323.206 97.2375C323.207 97.2275 323.206 97.2174 323.203 97.2079C323.199 97.1983 323.194 97.1897 323.187 97.1825C323.132 96.9797 323.095 96.7945 323.039 96.5916C322.984 96.3888 322.928 96.2037 322.873 96.0009C322.818 95.8158 322.744 95.613 322.689 95.4289C322.634 95.2448 322.56 95.0597 322.486 94.8756C322.467 94.8381 322.467 94.8204 322.449 94.783C322.43 94.7456 322.43 94.7279 322.412 94.6905C322.371 94.5643 322.322 94.441 322.264 94.3212C322.191 94.1371 322.117 93.9706 322.043 93.7855C322.008 93.6838 321.965 93.585 321.914 93.4902L319.033 95.1522C319.199 95.5402 319.366 95.9458 319.514 96.3525C319.532 96.3899 319.532 96.4076 319.55 96.445C319.873 97.2411 320.132 98.0615 320.326 98.8986Z" fill="#2E2C2B" stroke="#9C9692" stroke-linecap="round" stroke-linejoin="round"/>
<path d="M311.464 80.5258L314.326 78.8638L314.936 83.8676L312.073 85.5473L311.464 80.5258Z" fill="#2E2C2B" stroke="#9C9692" stroke-linecap="round" stroke-linejoin="round"/>
<path d="M311.464 80.5246L314.345 78.8626C314.216 78.7701 314.068 78.6599 313.92 78.5673C313.802 78.4808 313.678 78.4006 313.551 78.3271L313.385 78.2158C313.347 78.1971 313.33 78.1793 313.292 78.1606C313.089 78.0316 312.868 77.9027 312.646 77.7728C312.591 77.7363 312.554 77.7176 312.499 77.6802C312.332 77.5877 312.166 77.4951 312.018 77.4035C311.908 77.3484 311.797 77.2922 311.704 77.2371C311.649 77.2006 311.575 77.1819 311.52 77.1445L311.409 77.0895C311.206 76.9969 311.003 76.9053 310.818 76.8128C310.782 76.7941 310.725 76.7763 310.689 76.7576L307.808 78.4196C308.085 78.5486 308.362 78.6776 308.658 78.8253C308.713 78.8617 308.787 78.8804 308.843 78.9178C309.121 79.0512 309.392 79.199 309.655 79.3608C309.951 79.5272 310.246 79.7114 310.523 79.8965L310.689 80.0078C310.928 80.1742 311.187 80.3405 311.464 80.5246Z" fill="#2E2C2B" stroke="#9C9692" stroke-linecap="round" stroke-linejoin="round"/>
<path d="M327.657 103.256C327.657 103.145 327.639 103.016 327.639 102.906C327.642 102.838 327.636 102.769 327.62 102.703V102.537C327.601 102.296 327.583 102.056 327.565 101.817C327.565 101.743 327.546 101.669 327.546 101.595L324.665 103.257C324.702 103.626 324.739 103.996 324.758 104.365C324.754 104.433 324.76 104.502 324.776 104.569C324.795 104.919 324.795 105.27 324.795 105.621C324.795 105.917 324.795 106.194 324.776 106.471C324.779 106.545 324.773 106.62 324.758 106.693C324.739 106.933 324.72 107.191 324.702 107.431L327.583 105.769C327.601 105.658 327.601 105.529 327.62 105.419C327.635 105.296 327.641 105.173 327.639 105.049C327.639 104.975 327.657 104.902 327.657 104.828V104.735C327.676 104.495 327.676 104.255 327.676 104.015V103.978C327.657 103.717 327.657 103.496 327.657 103.256Z" fill="#2E2C2B" stroke="#9C9692" stroke-linecap="round" stroke-linejoin="round"/>
<path d="M319.994 90.054C320.087 90.2204 320.198 90.368 320.29 90.5344C320.345 90.6269 320.382 90.7195 320.437 90.8111C320.604 91.1064 320.788 91.4206 320.936 91.716C321.121 92.0665 321.306 92.418 321.491 92.7872L324.372 91.1252C324.353 91.0701 324.316 91.0327 324.298 90.9775C324.15 90.6821 324.002 90.4044 323.855 90.1278C323.836 90.1091 323.836 90.0904 323.817 90.054C323.651 89.7399 323.486 89.4444 323.319 89.1491C323.264 89.0752 323.227 88.9826 323.171 88.9088C323.172 88.9063 323.171 88.9039 323.17 88.9016C323.17 88.8993 323.168 88.8971 323.166 88.8953C323.165 88.8936 323.162 88.8921 323.16 88.8913C323.158 88.8904 323.155 88.89 323.153 88.8902C323.06 88.7238 322.969 88.576 322.857 88.4096C322.727 88.2068 322.599 87.9853 322.469 87.7825C322.377 87.6161 322.267 87.4684 322.155 87.302C322.026 87.1179 321.916 86.9141 321.786 86.73C321.775 86.7211 321.766 86.7099 321.759 86.6972C321.753 86.6844 321.749 86.6704 321.749 86.6561L318.868 88.3181C319.016 88.5209 319.144 88.7425 319.274 88.9453C319.386 89.1117 319.477 89.2593 319.589 89.4257C319.754 89.6473 319.865 89.8502 319.994 90.054Z" fill="#2E2C2B" stroke="#9C9692" stroke-linecap="round" stroke-linejoin="round"/>
<path d="M320.603 100.173L323.483 98.5108L327.546 101.576L324.666 103.257L320.603 100.173Z" fill="#2E2C2B" stroke="#9C9692" stroke-linecap="round" stroke-linejoin="round"/>
<path d="M324.702 107.429L320.677 105.823C320.462 107.08 319.942 108.265 319.163 109.275L321.564 114.482C320.838 115.144 319.983 115.647 319.052 115.959L315.765 111.306C314.477 111.52 313.154 111.399 311.926 110.955L311.28 115.239C310.673 114.971 310.081 114.669 309.507 114.334C308.898 113.984 308.307 113.596 307.735 113.189L307.126 108.185C305.685 106.986 304.396 105.615 303.286 104.104L299.999 104.972C299.069 103.572 298.236 102.11 297.506 100.595L299.926 98.1947C299.23 96.5295 298.734 94.7878 298.449 93.0059L294.424 89.9595C294.369 89.3136 294.35 88.6854 294.35 88.0572C294.354 87.317 294.397 86.5776 294.479 85.8419L298.541 87.4665C298.791 86.2804 299.323 85.172 300.092 84.2351L297.71 79.0649C298.47 78.4018 299.365 77.9104 300.332 77.6245L303.637 82.3151C304.827 82.1794 306.032 82.3118 307.164 82.703L307.811 78.419C308.446 78.6923 309.063 79.0066 309.657 79.3602C310.288 79.7193 310.899 80.1138 311.485 80.5418L312.095 85.5455C313.388 86.6395 314.563 87.8647 315.603 89.2013L318.927 88.3339C319.893 89.7573 320.763 91.2442 321.53 92.7843L319.112 95.1848C319.809 96.7898 320.324 98.4683 320.645 100.189L324.707 103.254C324.796 104.044 324.839 104.84 324.836 105.635C324.795 106.248 324.759 106.857 324.702 107.429ZM309.54 103.626C312.809 105.509 315.467 103.995 315.467 100.247C315.362 98.2002 314.773 96.208 313.75 94.433C312.726 92.658 311.296 91.1509 309.577 90.0353C306.31 88.1518 303.65 89.6661 303.65 93.4145C303.753 95.4614 304.341 97.4546 305.365 99.2299C306.389 101.005 307.82 102.512 309.54 103.626Z" fill="#2E2C2B" stroke="#9C9692"/>
<path d="M200.298 303.393C199.592 303.037 198.812 302.851 198.022 302.851C197.231 302.851 196.452 303.037 195.746 303.393L180.826 312.008C180.552 312.102 180.314 312.279 180.146 312.514C179.978 312.75 179.888 313.032 179.888 313.322C179.888 313.611 179.978 313.893 180.146 314.129C180.314 314.364 180.552 314.542 180.826 314.636L197.614 324.328L217.086 313.085L200.298 303.393Z" fill="#2E2C2B" stroke="#9C9692"/>
<path d="M195.994 313.396L196.926 313.663L196.603 312.749C196.479 312.398 196.61 311.847 197.479 311.342C198.193 310.958 198.986 310.747 199.796 310.725C200.602 310.704 201.401 310.871 202.131 311.213C202.684 311.538 202.831 311.902 202.809 312.183C202.784 312.491 202.542 312.913 201.885 313.294C200.912 313.807 199.804 314.009 198.712 313.871L197.183 313.679L198.308 314.733C198.554 314.963 198.742 315.248 198.855 315.565C198.969 315.882 199.006 316.222 198.963 316.556C198.919 316.89 198.797 317.209 198.606 317.486C198.466 317.689 198.293 317.866 198.093 318.008C197.652 317.752 196.761 317.238 195.9 316.741L194.387 315.867L193.896 315.584L193.759 315.505L193.723 315.484L193.714 315.479L193.712 315.478L193.711 315.477L193.711 315.477L193.461 315.91L193.711 315.477L189.939 313.3C190.512 313.126 191.22 313.004 192.011 312.96C193.262 312.89 194.67 313.016 195.994 313.396Z" stroke="#9C9692"/>
<path d="M254.24 334.54L217.086 313.088L197.614 324.331L234.768 345.783C235.474 346.139 236.254 346.325 237.044 346.325C237.835 346.325 238.615 346.139 239.321 345.783L254.242 337.167C254.516 337.074 254.754 336.897 254.922 336.661C255.091 336.425 255.181 336.143 255.181 335.853C255.181 335.563 255.09 335.281 254.921 335.045C254.752 334.81 254.514 334.633 254.24 334.54Z" fill="#2E2C2B" stroke="#9C9692"/>
<path d="M180.826 314.635C180.57 314.519 180.349 314.339 180.184 314.111C180.02 313.884 179.918 313.617 179.889 313.338V316.087C179.901 316.379 179.996 316.662 180.161 316.903C180.326 317.144 180.556 317.334 180.824 317.452L197.611 327.144V324.327L180.826 314.635Z" fill="#2E2C2B" stroke="#9C9692"/>
<path d="M254.241 337.165L239.32 345.78C238.614 346.137 237.834 346.323 237.043 346.323C236.253 346.323 235.473 346.137 234.767 345.78L197.614 324.329V327.146L234.769 348.597C235.475 348.954 236.254 349.139 237.045 349.139C237.835 349.139 238.615 348.954 239.321 348.597L254.241 339.983C254.511 339.865 254.742 339.673 254.908 339.429C255.073 339.185 255.165 338.899 255.174 338.605V335.919C255.136 336.188 255.03 336.443 254.867 336.661C254.704 336.879 254.489 337.053 254.242 337.166L254.241 337.165Z" fill="#2E2C2B" stroke="#9C9692"/>
<path d="M242.404 335.11L241.344 335.722L212.667 319.167L213.727 318.555L242.404 335.11Z" fill="#2E2C2B" stroke="#9C9692"/>
<path d="M218.9 327.698L217.839 328.31L207.336 322.247L208.397 321.634L218.9 327.698Z" fill="#2E2C2B" stroke="#9C9692"/>
<path d="M224.068 330.677L223.008 331.289L221.12 330.199L222.18 329.587L224.068 330.677Z" fill="#2E2C2B" stroke="#9C9692"/>
<path d="M155.164 114.593C154.932 114.191 154.797 113.739 154.77 113.276C154.773 112.888 154.907 112.744 154.982 112.701C155.057 112.658 155.247 112.614 155.583 112.805C155.971 113.061 156.294 113.404 156.526 113.806C156.758 114.209 156.893 114.66 156.92 115.124C156.918 115.512 156.784 115.655 156.709 115.699C156.634 115.742 156.443 115.786 156.107 115.595C155.719 115.339 155.396 114.996 155.164 114.593Z" fill="#2E2C2B" stroke="#9C9692"/>
<path d="M293.881 340.887L322.901 324.134V290.114L293.881 306.861V340.887Z" fill="#2E2C2B" stroke="#9C9692" stroke-linecap="round" stroke-linejoin="round"/>
<path d="M293.878 340.887L264.859 324.134V290.114L293.878 306.861V340.887Z" fill="#2E2C2B" stroke="#9C9692" stroke-linecap="round" stroke-linejoin="round"/>
<path d="M293.878 306.864L264.859 290.117L293.878 273.367L322.898 290.117L293.878 306.864Z" fill="#2E2C2B" stroke="#9C9692" stroke-linecap="round" stroke-linejoin="round"/>
<path d="M319.289 345.49L335.983 335.853V316.281L319.289 325.915V345.49Z" fill="#2E2C2B" stroke="#9C9692" stroke-linecap="round" stroke-linejoin="round"/>
<path d="M319.288 345.49L302.593 335.853V316.281L319.288 325.915V345.49Z" fill="#2E2C2B" stroke="#9C9692" stroke-linecap="round" stroke-linejoin="round"/>
<path d="M319.288 325.916L302.593 316.282L319.288 306.647L335.982 316.282L319.288 325.916Z" fill="#2E2C2B" stroke="#9C9692" stroke-linecap="round" stroke-linejoin="round"/>
<path d="M98.7641 329.286C99.6975 330.21 97.5472 331.761 96.5764 332.321L99.4041 333.966C100.375 333.404 103.059 332.166 104.654 332.708C105.195 332.864 105.753 332.998 106.32 333.109C108.111 333.377 108.48 335.353 108.473 336.144H112.485C112.491 335.61 112.619 335.083 112.859 334.605C113.1 334.127 113.446 333.711 113.872 333.388C114.122 333.246 114.396 333.153 114.68 333.113C115.241 333.003 115.797 332.869 116.347 332.713C117.95 332.169 120.62 333.407 121.584 333.969L124.432 332.324C123.467 331.764 121.334 330.212 122.278 329.289C122.538 328.987 122.772 328.664 122.976 328.322C123.085 328.12 123.254 327.956 123.459 327.853C124.566 327.212 127.093 327.065 128.222 327.065L128.234 324.741C126.768 324.799 123.46 324.521 123.002 323.482C122.802 323.14 122.572 322.817 122.313 322.517C121.381 321.591 123.53 320.041 124.501 319.48L121.672 317.837C120.702 318.397 118.018 319.638 116.424 319.093C115.875 318.936 115.32 318.803 114.759 318.693C112.966 318.423 112.593 316.448 112.601 315.658H108.586C108.596 316.195 108.476 316.726 108.236 317.206C107.996 317.686 107.643 318.101 107.208 318.415C106.957 318.557 106.682 318.652 106.397 318.692C105.828 318.804 105.269 318.936 104.723 319.093C102.874 319.492 100.453 318.396 99.4878 317.836L96.6404 319.479C97.6053 320.04 99.7379 321.589 98.7937 322.515C98.5326 322.815 98.2999 323.139 98.0986 323.482C97.9888 323.684 97.8202 323.848 97.6151 323.952C96.5075 324.591 93.981 324.74 92.8458 324.74L92.8389 327.065C94.2045 327.065 97.6122 327.283 98.07 328.323C98.2715 328.664 98.5038 328.987 98.7641 329.286ZM105.526 322.984C107.084 322.191 108.808 321.778 110.556 321.778C112.304 321.778 114.028 322.191 115.586 322.984C118.353 324.594 118.342 327.202 115.553 328.813C113.996 329.606 112.273 330.02 110.525 330.02C108.777 330.02 107.054 329.606 105.497 328.813C102.726 327.203 102.74 324.596 105.526 322.986V322.984Z" fill="#2E2C2B" stroke="#9C9692" stroke-linecap="round" stroke-linejoin="round"/>
<path d="M416.791 139.467L487.385 179.51C489.039 180.475 492.512 177.245 492.512 175.334V143.039C492.514 142.02 492.247 141.019 491.739 140.136C491.231 139.253 490.499 138.519 489.617 138.009L419.648 101.349C417.939 100.357 413.791 102.107 413.791 104.078L413.465 133.695C413.466 134.864 413.774 136.012 414.358 137.025C414.941 138.038 415.78 138.88 416.791 139.467Z" fill="#2E2C2B" stroke="#9C9692"/>
<path d="M416.401 138.879L486.053 179.235C486.431 179.455 486.86 179.571 487.297 179.571C487.734 179.572 488.163 179.458 488.542 179.24C488.921 179.022 489.236 178.708 489.454 178.329C489.673 177.951 489.788 177.522 489.789 177.085V144.774C489.79 143.755 489.524 142.754 489.016 141.871C488.508 140.988 487.776 140.254 486.894 139.744L416.939 103.084C416.548 102.857 416.105 102.737 415.654 102.736C415.202 102.734 414.758 102.852 414.367 103.077C413.975 103.302 413.65 103.627 413.424 104.018C413.198 104.408 413.079 104.852 413.079 105.304V133.106C413.08 134.275 413.387 135.423 413.97 136.436C414.553 137.449 415.391 138.291 416.401 138.879Z" fill="#2E2C2B" stroke="#9C9692"/>
<path d="M430.829 123.805L430.137 124.088L430.663 124.619C433.252 127.236 435.052 131.044 435.052 134.22H435.052L435.052 134.231C435.069 135.03 434.923 135.823 434.622 136.564C434.45 136.962 434.139 137.177 433.702 137.226C433.238 137.278 432.614 137.137 431.914 136.736L431.914 136.736L425.195 132.894C423.618 131.928 422.456 130.411 421.934 128.638C421.689 127.757 421.561 126.848 421.553 125.934C421.554 124.355 421.997 123.216 422.681 122.514C423.357 121.821 424.325 121.494 425.523 121.649L426.667 121.798L425.993 120.861C425.27 119.857 424.848 118.667 424.778 117.432C424.781 116.472 425.163 115.948 425.655 115.738C426.184 115.511 427.018 115.565 428.055 116.157C429.081 116.743 430.032 117.707 430.725 118.797C431.422 119.891 431.828 121.063 431.828 122.048V122.077L431.831 122.106C431.872 122.46 431.797 122.818 431.616 123.124C431.435 123.431 431.158 123.67 430.829 123.805Z" stroke="#9C9692"/>
<path d="M483.593 148.535L439.211 123.885V122.171L483.593 146.643V148.535Z" fill="#2E2C2B" stroke="#9C9692"/>
<path d="M483.593 161.394L439.211 136.744V136.585L483.593 161.051V161.394Z" fill="#2E2C2B" stroke="#9C9692"/>
<path d="M483.593 164.882L439.211 140.231V140.073L483.593 164.539V164.882Z" fill="#2E2C2B" stroke="#9C9692"/>
<path d="M460.343 139.968L439.211 127.747V126.819L460.343 138.861V139.968Z" fill="#2E2C2B" stroke="#9C9692"/>
<path d="M416.791 184.981L487.385 225.023C489.039 225.988 492.512 222.759 492.512 220.848V188.553C492.514 187.534 492.247 186.533 491.739 185.649C491.231 184.766 490.499 184.033 489.617 183.522L419.648 146.863C417.939 145.87 413.791 147.621 413.791 149.592L413.465 179.209C413.466 180.378 413.774 181.526 414.358 182.539C414.941 183.551 415.78 184.393 416.791 184.981Z" fill="#2E2C2B" stroke="#9C9692"/>
<path d="M416.401 184.393L486.053 224.749C486.431 224.968 486.86 225.084 487.297 225.085C487.734 225.086 488.163 224.971 488.542 224.753C488.921 224.535 489.236 224.221 489.454 223.843C489.673 223.465 489.788 223.036 489.789 222.599V190.288C489.79 189.269 489.524 188.268 489.016 187.384C488.508 186.501 487.776 185.768 486.894 185.257L416.939 148.598C416.548 148.371 416.105 148.25 415.654 148.249C415.202 148.248 414.758 148.366 414.367 148.591C413.975 148.816 413.65 149.14 413.424 149.531C413.198 149.922 413.079 150.366 413.079 150.817V178.619C413.08 179.788 413.387 180.936 413.97 181.949C414.553 182.963 415.391 183.805 416.401 184.393Z" fill="#2E2C2B" stroke="#9C9692"/>
<path d="M430.829 169.319L430.137 169.602L430.663 170.133C433.252 172.749 435.052 176.558 435.052 179.734H435.052L435.052 179.744C435.069 180.543 434.923 181.337 434.622 182.077C434.45 182.475 434.139 182.691 433.702 182.74C433.238 182.791 432.614 182.651 431.914 182.25L431.914 182.249L425.195 178.407C423.618 177.442 422.456 175.925 421.934 174.151C421.689 173.27 421.561 172.361 421.553 171.447C421.554 169.869 421.997 168.729 422.681 168.027C423.357 167.335 424.325 167.008 425.523 167.163L426.667 167.311L425.993 166.375C425.27 165.37 424.848 164.181 424.778 162.945C424.781 161.985 425.163 161.462 425.655 161.251C426.184 161.024 427.018 161.078 428.055 161.67C429.081 162.256 430.032 163.22 430.725 164.31C431.422 165.404 431.828 166.576 431.828 167.562V167.591L431.831 167.62C431.872 167.974 431.797 168.331 431.616 168.638C431.435 168.945 431.158 169.184 430.829 169.319Z" stroke="#9C9692"/>
<path d="M483.593 194.049L439.211 169.399V167.684L483.593 192.156V194.049Z" fill="#2E2C2B" stroke="#9C9692"/>
<path d="M483.593 206.908L439.211 182.257V182.098L483.593 206.565V206.908Z" fill="#2E2C2B" stroke="#9C9692"/>
<path d="M483.593 210.395L439.211 185.745V185.586L483.593 210.052V210.395Z" fill="#2E2C2B" stroke="#9C9692"/>
<path d="M460.343 185.481L439.211 173.26V172.332L460.343 184.374V185.481Z" fill="#2E2C2B" stroke="#9C9692"/>
<path d="M80.4227 267.911L80.4228 267.911C81.6849 268.64 82.2051 269.531 82.2052 270.322C82.2053 271.112 81.6854 272.003 80.4229 272.731L80.4227 272.732L48.1537 291.363C46.7001 292.094 45.0956 292.475 43.4684 292.475C41.8413 292.475 40.2367 292.094 38.7832 291.363L5.98065 272.428C4.71953 271.7 4.1998 270.808 4.1998 270.018C4.1998 269.227 4.71953 268.336 5.98065 267.607L38.2545 248.974C39.7079 248.242 41.3125 247.861 42.9397 247.861C44.5669 247.861 46.1714 248.242 47.6248 248.974L80.4227 267.911Z" fill="#2E2C2B" stroke="#9C9692"/>
<path d="M43.4683 290.604C42.1692 290.637 40.8826 290.343 39.7269 289.748L6.91684 270.803C6.24733 270.416 6.07895 270.077 6.07305 270.016C6.06714 269.955 6.2483 269.615 6.91782 269.228L39.2031 250.588C40.3688 250.025 41.6466 249.732 42.9411 249.732C44.2356 249.732 45.5134 250.025 46.679 250.588L79.4901 269.532C80.1616 269.919 80.331 270.26 80.3369 270.32C80.3428 270.38 80.1616 270.72 79.4931 271.108L47.2019 289.749C46.0462 290.343 44.7595 290.637 43.4605 290.604H43.4683Z" fill="#2E2C2B" stroke="#9C9692"/>
<path d="M3.70419 281.439H3.70912C3.73688 282.071 3.94113 282.683 4.29873 283.205C4.65633 283.727 5.15298 284.138 5.73242 284.393L38.5435 303.337C40.0702 304.108 41.7564 304.509 43.4664 304.509C45.1764 304.509 46.8626 304.108 48.3893 303.337L80.6746 284.697C81.2598 284.442 81.7605 284.026 82.118 283.497C82.4756 282.968 82.6754 282.349 82.694 281.71V270.46C82.6101 271.043 82.3814 271.596 82.0288 272.067C81.6761 272.539 81.2109 272.915 80.6756 273.16L48.3873 291.803C46.8606 292.573 45.1745 292.974 43.4644 292.974C41.7544 292.974 40.0682 292.573 38.5415 291.803L5.73145 272.858C5.17751 272.608 4.69869 272.218 4.3428 271.726C3.9869 271.233 3.76636 270.656 3.7032 270.052L3.70419 281.439Z" fill="#2E2C2B" stroke="#9C9692"/>
<path d="M3.70419 277.414H3.70912C3.73677 278.046 3.94097 278.658 4.29858 279.18C4.65619 279.702 5.15291 280.113 5.73242 280.368L38.5435 299.312C40.0702 300.083 41.7564 300.484 43.4664 300.484C45.1764 300.484 46.8626 300.083 48.3893 299.312L80.6746 280.672C81.2598 280.417 81.7605 280.001 82.118 279.472C82.4756 278.943 82.6754 278.324 82.694 277.686V275.45C82.6102 276.033 82.3815 276.586 82.0289 277.058C81.6763 277.53 81.211 277.906 80.6756 278.151L48.3873 296.794C46.8606 297.564 45.1744 297.965 43.4644 297.965C41.7544 297.965 40.0682 297.564 38.5415 296.794L5.73145 277.849C5.17751 277.599 4.69869 277.209 4.3428 276.717C3.9869 276.224 3.76636 275.647 3.7032 275.043L3.70419 277.414Z" fill="#2E2C2B" stroke="#9C9692"/>
<path d="M43.19 259.086C43.19 258.718 43.4334 258.247 44.1452 257.835C44.9754 257.418 45.8917 257.2 46.8211 257.2C47.7532 257.2 48.6723 257.419 49.5044 257.839C50.2118 258.25 50.4538 258.719 50.4538 259.086C50.4538 259.453 50.2118 259.922 49.5045 260.333C48.6724 260.753 47.7536 260.972 46.8216 260.972C45.8897 260.972 44.9708 260.753 44.1388 260.333C43.432 259.921 43.19 259.453 43.19 259.086Z" stroke="#9C9692"/>
<path d="M46.3223 286.564L57.0867 268.928C57.8321 267.707 55.7969 266.532 53.6821 266.959L23.1355 273.174L46.3223 286.564Z" fill="#2E2C2B" stroke="#9C9692"/>
<path d="M31.665 278.104L39.0946 265.933C39.8399 264.712 37.8038 263.536 35.6899 263.963L14.6071 268.253L31.665 278.104Z" fill="#2E2C2B" stroke="#9C9692"/>
</svg>
