<svg width="338" height="398" viewBox="0 0 338 398" fill="none" xmlns="http://www.w3.org/2000/svg">
<g clip-path="url(#clip0_1_36)">
<g opacity="0.1">
<mask id="mask0_1_36" style="mask-type:luminance" maskUnits="userSpaceOnUse" x="103" y="84" width="33" height="32">
<path d="M135.082 84.635H103.335C103.189 84.635 103.071 84.7532 103.071 84.899V115.551C103.071 115.697 103.189 115.815 103.335 115.815H135.082C135.228 115.815 135.346 115.697 135.346 115.551V84.899C135.346 84.7532 135.228 84.635 135.082 84.635Z" fill="white"/>
</mask>
<g mask="url(#mask0_1_36)">
<path d="M119.711 68.4996L87.489 99.734L118.706 131.938L150.928 100.703L119.711 68.4996Z" fill="white"/>
</g>
<mask id="mask1_1_36" style="mask-type:luminance" maskUnits="userSpaceOnUse" x="0" y="155" width="33" height="32">
<path d="M0.265 155.042H32.011C32.081 155.042 32.1482 155.07 32.1977 155.119C32.2472 155.169 32.275 155.236 32.275 155.306V185.958C32.275 186.028 32.2472 186.095 32.1977 186.145C32.1482 186.194 32.081 186.222 32.011 186.222H0.264C0.193983 186.222 0.126833 186.194 0.0773238 186.145C0.0278142 186.095 0 186.028 0 185.958L0 155.307C0 155.237 0.0279196 155.169 0.0776167 155.12C0.127314 155.07 0.194718 155.042 0.265 155.042Z" fill="white"/>
</mask>
<g mask="url(#mask1_1_36)">
<path d="M16.6464 138.912L-15.582 170.141L15.63 202.351L47.8584 171.122L16.6464 138.912Z" fill="white"/>
</g>
<mask id="mask2_1_36" style="mask-type:luminance" maskUnits="userSpaceOnUse" x="9" y="58" width="43" height="42">
<path d="M9.61701 58.116H51.568C51.6606 58.116 51.7493 58.1528 51.8148 58.2182C51.8802 58.2837 51.917 58.3725 51.917 58.465V98.965C51.917 99.0579 51.8801 99.1469 51.8145 99.2125C51.7489 99.2782 51.6598 99.315 51.567 99.315H9.61701C9.52462 99.315 9.436 99.2784 9.37058 99.2132C9.30516 99.1479 9.26827 99.0594 9.26801 98.967V58.465C9.26801 58.3725 9.30477 58.2837 9.37023 58.2182C9.43568 58.1528 9.52444 58.116 9.61701 58.116Z" fill="white"/>
</mask>
<g mask="url(#mask2_1_36)">
<path d="M31.2629 36.8023L-11.322 78.067L29.9198 120.628L72.5047 79.3635L31.2629 36.8023Z" fill="white"/>
</g>
<mask id="mask3_1_36" style="mask-type:luminance" maskUnits="userSpaceOnUse" x="24" y="124" width="140" height="274">
<path d="M141.383 128.641L24.021 260.774L141.383 392.907C148.841 401.297 163.069 396.207 163.069 385.15V354.05C163.049 345.525 159.899 337.305 154.217 330.95L91.884 260.77L154.217 190.59C159.9 184.236 163.05 176.015 163.069 167.49V136.388C163.069 129.138 156.951 124.459 150.633 124.459C148.881 124.451 147.149 124.821 145.552 125.542C143.956 126.264 142.534 127.321 141.383 128.641Z" fill="white"/>
</mask>
<g mask="url(#mask3_1_36)">
<path d="M93.5458 54.9342L-114.398 262.878L93.5458 470.822L301.49 262.878L93.5458 54.9342Z" fill="white"/>
</g>
<mask id="mask4_1_36" style="mask-type:luminance" maskUnits="userSpaceOnUse" x="198" y="-1" width="140" height="274">
<path d="M198.939 11.929V43.029C198.957 51.5545 202.103 59.7769 207.782 66.136L270.124 136.316L207.791 206.496C202.103 212.847 198.952 221.07 198.939 229.596V260.686C198.939 271.746 213.167 276.842 220.625 268.452L337.986 136.315L220.624 4.172C219.471 2.85468 218.048 1.80045 216.452 1.08066C214.857 0.360881 213.125 -0.00765276 211.374 2.41854e-06C205.056 2.41854e-06 198.939 4.679 198.939 11.929Z" fill="white"/>
</mask>
<g mask="url(#mask4_1_36)">
<path d="M268.463 -69.5248L60.519 138.419L268.463 346.363L476.407 138.419L268.463 -69.5248Z" fill="white"/>
</g>
</g>
</g>
<g clip-path="url(#clip1_1_36)">
<path d="M249.346 153.125C245.477 134.069 235.312 114.225 216.26 106.646C207.712 103.244 198.156 102.462 189.477 105.961C180.455 109.598 173.655 116.853 171.997 126.636C170.966 132.109 171.024 137.732 172.167 143.184C173.542 148.937 178.223 154.08 184.305 154.681C197.461 155.981 201.007 138.971 201.228 129.126C201.682 108.906 191.528 89.6033 177.558 75.5344C170.495 68.5733 162.577 62.5375 153.993 57.5718C149.769 55.0722 145.415 52.7942 140.978 50.6951C136.191 48.2607 131.184 46.2831 126.025 44.7885C123.181 44.0618 120.257 43.6918 117.321 43.6871C115.81 43.7516 114.385 44.4078 113.354 45.514C112.322 46.6202 111.767 48.0876 111.808 49.5996C111.891 51.1043 112.553 52.5184 113.656 53.546C114.758 54.5737 116.215 55.1351 117.722 55.1127C118.305 55.1143 118.885 55.131 119.467 55.1606C121.247 55.2512 118.498 54.9135 120.247 55.2623C121.39 55.4903 122.528 55.6825 123.656 55.985C124.783 56.2876 125.896 56.6597 127.005 57.033C128.784 57.6328 126.519 56.827 127.545 57.2281C128.184 57.4778 128.817 57.7397 129.449 58.0076C133.51 59.7277 137.505 61.6342 141.418 63.6716C145.289 65.6845 149.074 67.8544 152.744 70.2114C153.659 70.7995 154.567 71.3991 155.466 72.0104C155.916 72.3161 156.363 72.6248 156.808 72.9367C156.857 72.9709 158.306 74.0164 157.389 73.3464C159.143 74.6266 160.859 75.9548 162.538 77.3309C165.894 80.0833 169.058 83.0613 172.008 86.2442C172.736 87.0279 173.435 87.8296 174.133 88.6364C174.862 89.48 174.381 88.9277 174.227 88.7401C174.568 89.1522 174.902 89.5696 175.233 89.9891C176.669 91.8059 178.025 93.6848 179.301 95.6259C180.377 97.2633 181.39 98.9398 182.341 100.656C182.857 101.589 183.353 102.534 183.828 103.489C184.066 103.966 184.3 104.445 184.525 104.928C184.038 103.883 184.91 105.828 184.988 106.012C186.621 109.834 187.886 113.803 188.766 117.865C188.858 118.296 188.938 118.731 189.029 119.161C189.389 120.865 188.889 118.013 189.133 119.736C189.285 120.786 189.43 121.834 189.535 122.89C189.759 125.095 189.847 127.312 189.801 129.528C189.787 130.114 189.763 130.7 189.728 131.286C189.729 131.318 189.547 133.227 189.675 132.095C189.544 133.257 189.357 134.412 189.119 135.557C188.88 136.699 188.582 137.828 188.225 138.939C188.106 139.308 187.985 139.682 187.846 140.043C188.157 139.232 187.439 140.895 187.362 141.046C187.146 141.478 186.892 141.884 186.659 142.305C185.977 143.529 187.391 141.694 186.387 142.651C186.194 142.835 185.086 143.734 186.163 142.982L185.789 143.243C185.229 143.562 185.273 143.56 185.921 143.239L185.486 143.386C186.232 143.311 186.271 143.304 185.603 143.363C184.475 143.503 185.557 143.257 185.729 143.406L185.271 143.3C185.906 143.586 185.925 143.593 185.328 143.322C185.04 143.179 184.761 143.019 184.493 142.843C185.021 143.224 185.034 143.209 184.531 142.797C184.37 142.61 183.54 141.432 184.179 142.455C184.116 142.357 183.31 140.985 183.819 142.022C183.377 141.053 183.072 140.027 182.912 138.974C183.093 140.025 182.948 139.093 182.937 138.894C182.909 138.356 182.84 137.819 182.814 137.281C182.749 135.997 182.749 134.708 182.778 133.423C182.791 132.853 182.813 132.283 182.845 131.714C182.848 131.648 183.017 129.786 182.885 130.97C182.99 130.032 183.137 129.096 183.333 128.172C183.449 127.62 183.583 127.07 183.737 126.528C183.746 126.494 184.327 124.742 183.937 125.774C184.317 124.799 184.786 123.86 185.339 122.971C185.48 122.741 186.309 121.582 185.431 122.752C185.684 122.414 185.944 122.081 186.216 121.759C186.669 121.221 187.15 120.708 187.656 120.22C187.961 119.926 188.276 119.647 188.594 119.368C187.499 120.332 188.581 119.408 188.798 119.249C189.603 118.66 190.444 118.122 191.315 117.638C191.692 117.425 192.078 117.24 192.46 117.04C191.296 117.651 192.171 117.172 192.493 117.039C193.227 116.729 193.974 116.451 194.734 116.206C195.566 115.937 196.41 115.708 197.266 115.517C197.535 115.457 198.996 115.1 197.477 115.443C198.052 115.332 198.634 115.256 199.218 115.215C200.819 115.078 202.427 115.05 204.031 115.13C205.508 115.178 202.784 114.917 204.239 115.148C204.688 115.219 205.138 115.276 205.586 115.356C206.64 115.542 207.682 115.78 208.711 116.068C209.107 116.179 209.5 116.295 209.892 116.419C210.113 116.489 212.06 117.201 210.828 116.715C211.898 117.138 212.948 117.609 213.978 118.129C215.008 118.649 216.013 119.214 216.994 119.824C217.275 119.998 217.553 120.176 217.83 120.356C218.016 120.477 219.685 121.679 218.678 120.926C220.539 122.318 222.294 123.846 223.929 125.498C224.629 126.209 225.29 126.951 225.958 127.693C227.051 128.908 225.299 126.803 226.295 128.097C226.714 128.638 227.133 129.173 227.535 129.724C233.435 137.805 236.349 146.327 238.426 156.555C239.023 159.493 242.899 161.276 245.593 160.299C248.754 159.153 249.976 156.28 249.337 153.132" fill="#FDB52A"/>
</g>
<defs>
<clipPath id="clip0_1_36">
<rect width="337.986" height="397.087" fill="white"/>
</clipPath>
<clipPath id="clip1_1_36">
<rect width="138.143" height="125.894" fill="white" transform="translate(111 39)"/>
</clipPath>
</defs>
</svg>
