<svg xmlns="http://www.w3.org/2000/svg" xmlns:xlink="http://www.w3.org/1999/xlink" width="1840" height="1012" viewBox="0 0 1840 1012">
  <defs>
    <clipPath id="clip-path">
      <rect id="Rectangle_37" data-name="Rectangle 37" width="1840" height="1012" rx="40" transform="translate(40 40)" fill="#d6ffe0"/>
    </clipPath>
  </defs>
  <g id="Group_344" data-name="Group 344" transform="translate(-49 -128)">
    <path id="Path_186" data-name="Path 186" d="M40,0H1800a40,40,0,0,1,40,40V972a40,40,0,0,1-40,40H40A40,40,0,0,1,0,972V40A40,40,0,0,1,40,0Z" transform="translate(49 128)" fill="#005dff"/>
    <g id="Mask_Group_6" data-name="Mask Group 6" transform="translate(9 88)" clip-path="url(#clip-path)">
      <g id="Group_281" data-name="Group 281">
        <path id="Path_183" data-name="Path 183" d="M.006,0s-1.9,78.251,61.306,88.785,82.357-50.755,72.78-59.373S87.169,6.428,68.973,64.844s38.306,65.119,73.738,54.585S240.39,75.378,243.262,37.073,185.805,34.2,181.975,58.141s-3.831,72.78,90.018,61.289c27.237-3.335,52.761,3.653,74.15,13.538a206.14,206.14,0,0,1,24.563,13.579" transform="matrix(0.914, 0.407, -0.407, 0.914, 1613.547, 26.617)" fill="none" stroke="#fff" stroke-width="20" opacity="0.1"/>
        <path id="Path_184" data-name="Path 184" d="M2057.4,853.734c3.376,2.026,16.861,6.1,29.258,9.232,15.786,3.984,40.559,7.015,76.954,3.958,63.964-5.373,105.735,28.206,109,95.364s-82.892,75.888-109,61.113-10.444-57.755,30.023-61.113c38.08-3.16,121.238,40.222,133.133,121.979a137.083,137.083,0,0,1,1.321,15.825" transform="translate(-2023.562 -10.712)" fill="none" stroke="#fff" stroke-width="20" opacity="0.1"/>
      </g>
    </g>
  </g>
</svg>
