<svg xmlns="http://www.w3.org/2000/svg" xmlns:xlink="http://www.w3.org/1999/xlink" width="337.986" height="397.087" viewBox="0 0 337.986 397.087">
  <defs>
    <clipPath id="clip-path">
      <rect id="Rectangle_76" data-name="Rectangle 76" width="32.275" height="31.18" rx="0.264" fill="#fff"/>
    </clipPath>
    <clipPath id="clip-path-2">
      <path id="Rectangle_78" data-name="Rectangle 78" d="M.265,0H32.011a.264.264,0,0,1,.264.264V30.916a.264.264,0,0,1-.264.264H.264A.264.264,0,0,1,0,30.916V.265A.265.265,0,0,1,.265,0Z" fill="#fff"/>
    </clipPath>
    <clipPath id="clip-path-3">
      <path id="Rectangle_80" data-name="Rectangle 80" d="M.349,0H42.3a.349.349,0,0,1,.349.349v40.5a.35.35,0,0,1-.35.35H.349A.349.349,0,0,1,0,40.851V.349A.349.349,0,0,1,.349,0Z" fill="#fff"/>
    </clipPath>
    <clipPath id="clip-path-4">
      <path id="Path_67" data-name="Path 67" d="M223.535,72.924,106.173,205.057,223.535,337.19c7.458,8.39,21.686,3.3,21.686-7.757v-31.1a34.782,34.782,0,0,0-8.852-23.1l-62.333-70.18,62.333-70.18a34.766,34.766,0,0,0,8.852-23.1V80.671c0-7.25-6.118-11.929-12.436-11.929a12.2,12.2,0,0,0-9.25,4.182" transform="translate(-106.173 -68.742)" fill="#fff"/>
    </clipPath>
    <clipPath id="clip-path-5">
      <path id="Path_68" data-name="Path 68" d="M125.5,66.92v31.1a34.8,34.8,0,0,0,8.843,23.107l62.342,70.18-62.333,70.18a34.7,34.7,0,0,0-8.852,23.1v31.09c0,11.06,14.228,16.156,21.686,7.766L264.547,191.306,147.185,59.163a12.222,12.222,0,0,0-9.25-4.172c-6.318,0-12.436,4.679-12.436,11.929" transform="translate(-125.499 -54.991)" fill="#fff"/>
    </clipPath>
  </defs>
  <g id="Group_418" data-name="Group 418" transform="translate(-691.519 -552.487)" opacity="0.1">
    <g id="Group_408" data-name="Group 408" transform="translate(794.59 637.122)">
      <g id="Group_407" data-name="Group 407" transform="translate(0 0)" clip-path="url(#clip-path)">
        <rect id="Rectangle_75" data-name="Rectangle 75" width="44.877" height="44.852" transform="matrix(0.718, -0.696, 0.696, 0.718, -15.582, 15.099)" fill="#fff"/>
      </g>
    </g>
    <g id="Group_410" data-name="Group 410" transform="translate(691.519 707.529)">
      <g id="Group_409" data-name="Group 409" transform="translate(0 0)" clip-path="url(#clip-path-2)">
        <rect id="Rectangle_77" data-name="Rectangle 77" width="44.877" height="44.852" transform="translate(-15.582 15.099) rotate(-44.098)" fill="#fff"/>
      </g>
    </g>
    <g id="Group_412" data-name="Group 412" transform="translate(700.787 610.603)">
      <g id="Group_411" data-name="Group 411" transform="translate(0 0)" clip-path="url(#clip-path-3)">
        <rect id="Rectangle_79" data-name="Rectangle 79" width="59.298" height="59.265" transform="translate(-20.59 19.951) rotate(-44.098)" fill="#fff"/>
      </g>
    </g>
    <g id="Group_414" data-name="Group 414" transform="translate(715.54 676.946)">
      <g id="Group_413" data-name="Group 413" transform="translate(0 0)" clip-path="url(#clip-path-4)">
        <rect id="Rectangle_81" data-name="Rectangle 81" width="294.077" height="294.077" transform="translate(-138.419 138.419) rotate(-45)" fill="#fff"/>
      </g>
    </g>
    <g id="Group_416" data-name="Group 416" transform="translate(890.457 552.487)">
      <g id="Group_415" data-name="Group 415" transform="translate(0 0)" clip-path="url(#clip-path-5)">
        <rect id="Rectangle_82" data-name="Rectangle 82" width="294.077" height="294.077" transform="translate(-138.419 138.419) rotate(-45)" fill="#fff"/>
      </g>
    </g>
  </g>
</svg>
