<svg xmlns="http://www.w3.org/2000/svg" width="180.092" height="187.119" viewBox="0 0 180.092 187.119">
  <path id="Path_7559" data-name="Path 7559" d="M2.943,700.505c9.713,5.958,21.226,6.319,32.29,6.432,11.385.116,22.825.635,33.761,4.1,8.743,2.767,17.118,7.81,22.591,15.02,5.186,6.831,8.859,17.214,3.9,25.023-4.337,6.833-14.234,11.182-21.957,11.847-4.314.372-8.492,0-12.087-1.95a15.281,15.281,0,0,1-3.937-3.072c-.423-.432-.475-1.232-.506-.639.014-.273.434-.982-.021-.232.049-.081,1.044-1.432.471-.781,2.134-2.425,6.052-3.391,9.923-4a62.1,62.1,0,0,1,13.476-.376,46.372,46.372,0,0,1,24,8.728c20.091,15.192,15.173,44.511,10.777,66.377a6.37,6.37,0,0,0,4.34,7.643c3.063.842,6.978-1.034,7.643-4.339,2.819-14.023,5.734-28.453,4.011-42.805-1.5-12.531-6.161-24.822-15.563-33.583a55.447,55.447,0,0,0-29.781-13.807,68.7,68.7,0,0,0-17.182-.487c-5.734.6-11.652,1.557-16.586,4.766-5.245,3.411-8.9,8.977-7.525,15.429,1.394,6.538,7.537,10.982,13.372,13.372,11.208,4.59,24.478,1.929,34.744-3.849a36.725,36.725,0,0,0,13.122-11.965c3.889-6.106,4.563-13.389,3.45-20.4-1.868-11.753-9.512-21.687-18.839-28.673C78.9,699.345,63.892,696.1,49.295,695.013c-7.3-.546-14.6-.342-21.9-.668-6.36-.284-12.666-1.189-18.175-4.569-6.836-4.193-13.086,6.551-6.272,10.73" transform="matrix(0.914, -0.407, 0.407, 0.914, -280.169, -575.526)" fill="#fff"/>
</svg>
