<svg xmlns="http://www.w3.org/2000/svg" width="138.143" height="125.894" viewBox="0 0 138.143 125.894">
  <path id="Path_7556" data-name="Path 7556" d="M1458.349,7.25c3.2,19.188,12.668,39.383,31.45,47.628,8.427,3.7,17.953,4.817,26.753,1.623,9.147-3.32,16.2-10.336,18.2-20.058a42.4,42.4,0,0,0,.41-16.55c-1.173-5.8-5.673-11.106-11.733-11.92-13.107-1.761-17.248,15.121-17.814,24.956-1.162,20.2,8.314,39.854,21.788,54.409a117.151,117.151,0,0,0,22.93,18.784c4.136,2.647,8.409,5.077,12.771,7.331a85.488,85.488,0,0,0,14.743,6.429,35.4,35.4,0,0,0,8.663,1.406,5.763,5.763,0,0,0,5.719-5.718,5.838,5.838,0,0,0-5.719-5.719c-.583-.022-1.162-.059-1.743-.109-1.777-.153.96.281-.776-.129-1.135-.268-2.266-.5-3.383-.842s-2.216-.753-3.312-1.165c-1.758-.662.479.223-.533-.214-.63-.272-1.254-.556-1.876-.846-4-1.862-7.927-3.908-11.768-6.082-3.8-2.148-7.508-4.45-11.094-6.935q-1.342-.93-2.659-1.894-.658-.482-1.309-.973c-.048-.036-1.46-1.132-.567-.43q-2.562-2.012-5.008-4.164a95.49,95.49,0,0,1-9.156-9.243c-.7-.809-1.371-1.635-2.04-2.466-.7-.869-.238-.3-.091-.107-.326-.424-.645-.853-.962-1.284q-2.058-2.8-3.869-5.778-1.528-2.512-2.863-5.135-.725-1.427-1.388-2.885c-.221-.485-.438-.972-.646-1.463.45,1.062-.354-.913-.425-1.1a65.44,65.44,0,0,1-3.362-11.983c-.077-.434-.142-.871-.218-1.305-.3-1.716.1,1.153-.084-.578-.115-1.055-.223-2.108-.291-3.167a54.459,54.459,0,0,1-.033-6.646q.051-.878.134-1.755c0-.032.249-1.934.081-.807.172-1.157.4-2.306.678-3.442a33.355,33.355,0,0,1,1.012-3.35c.132-.365.266-.734.417-1.09-.339.8.437-.838.519-.986.232-.424.5-.821.747-1.234.725-1.2-.753.585.284-.337.2-.177,1.339-1.037.236-.323l.383-.248q.857-.448-.132,0l.44-.132q-1.123.073-.118.019c1.133-.1.043.108-.124-.047l.454.122q-.937-.463-.056-.024a8.175,8.175,0,0,1,.818.508q-.772-.6-.04.044c.155.193.943,1.4.34.355.06.1.817,1.5.345.445a11.5,11.5,0,0,1,.8,3.079c-.144-1.057-.032-.12-.028.079.009.539.059,1.078.067,1.617.02,1.286-.026,2.575-.1,3.859-.033.569-.074,1.138-.126,1.706-.006.066-.24,1.921-.066.742-.138.935-.318,1.865-.546,2.782-.136.548-.289,1.093-.462,1.63-.01.033-.652,1.764-.226.746a17.034,17.034,0,0,1-1.5,2.754c-.149.225-1.019,1.354-.1.215-.265.329-.536.653-.819.966a20.532,20.532,0,0,1-1.494,1.488c-.315.283-.64.551-.968.819,1.129-.926.015-.04-.208.112a23.945,23.945,0,0,1-2.573,1.522c-.384.2-.776.371-1.165.558,1.185-.57.293-.122-.033,0q-1.118.426-2.27.754-1.262.359-2.555.6c-.272.051-1.745.356-.214.067a14.661,14.661,0,0,1-1.749.167,35.7,35.7,0,0,1-4.815-.084c-1.474-.1,1.24.257-.207-.025-.446-.087-.894-.16-1.339-.255q-1.571-.335-3.1-.822-.587-.186-1.168-.392c-.219-.078-2.14-.858-.925-.329q-1.583-.69-3.1-1.524t-2.956-1.8q-.412-.276-.817-.561c-.182-.128-1.809-1.388-.828-.6a46.926,46.926,0,0,1-5.09-4.755c-.675-.735-1.31-1.5-1.951-2.265-1.051-1.253.627.913-.323-.416-.4-.555-.8-1.105-1.183-1.67-5.616-8.286-8.23-16.908-9.949-27.206-.494-2.959-4.306-4.877-7.034-3.994-3.2,1.035-4.523,3.864-3.994,7.034" transform="matrix(-0.999, 0.035, -0.035, -0.999, 1595.49, 70.326)" fill="#fdb52a"/>
</svg>
