<svg width="391" height="298" viewBox="0 0 391 298" fill="none" xmlns="http://www.w3.org/2000/svg">
<path d="M266.166 101.423H184.711C179.94 101.423 176.073 105.28 176.073 110.036V169.645C176.073 174.402 179.94 178.258 184.711 178.258H266.166C270.937 178.258 274.804 174.402 274.804 169.645V110.036C274.804 105.28 270.937 101.423 266.166 101.423Z" fill="#CED3F8"/>
<path opacity="0.1" d="M36.5169 263.676C36.5169 260.534 84.7835 257.985 144.325 257.985C203.866 257.985 252.133 260.534 252.133 263.676C252.133 266.819 203.868 269.368 144.325 269.368C84.7817 269.368 36.5169 266.821 36.5169 263.676Z" fill="black"/>
<path d="M227.486 238.065C227.946 239.705 242.801 245.814 244.158 243.055C245.215 240.908 242.954 239.741 242.101 239.382C240.756 238.819 237.438 237.668 238.003 236.741C239.047 235.065 247.083 239.043 249.101 239.891C251.119 240.739 255.267 241.839 257.263 240.471C259.26 239.103 259.911 238.318 256.298 237.03C252.686 235.741 245.251 234.085 247.701 232.723C250.151 231.36 255.622 233.991 259.31 234.34C262.997 234.689 270.141 234.123 268.787 231.703C267.579 229.537 256.647 230.046 257.391 228.287C257.987 226.879 260.995 227.872 265.868 227.9C270.742 227.928 275.35 227.9 275.634 225.015C275.86 222.696 272.734 223.335 270.106 223.286C267.478 223.237 263.815 223.033 264.725 221.852C265.635 220.671 278.473 222.146 279.678 218.482C280.475 216.057 277.636 216.611 274.578 216.383C271.52 216.155 270.464 215.849 270.712 215.258C270.961 214.667 275.135 214.313 277.431 214.174C279.727 214.036 282.977 213.057 282.922 210.917C282.867 208.777 279.208 209.378 277.908 209.913C276.609 210.447 275.142 210.408 274.985 210.017C274.829 209.626 278.994 207.563 277.589 205.593C276.185 203.623 272.397 205.985 271.456 208.211C270.514 210.437 269.162 213.411 268.347 213.068C267.531 212.726 268.629 210.148 269.475 208.118C270.321 206.089 270.21 205.087 269.667 204.857C267.858 204.096 265.214 206.097 264.581 207.581C263.947 209.064 261.52 217.841 260.318 217.334C259.116 216.827 260.376 213.631 261.07 211.992C261.764 210.352 263.383 206.524 261.366 205.676C259.35 204.828 256.082 209.525 254.953 212.731C253.824 215.938 252.391 221.269 251.462 220.876C250.532 220.484 250.957 216.016 251.801 214.027C252.644 212.037 255.155 208.904 252.673 207.861C250.19 206.819 248.399 209.645 246.738 213.556C246.046 215.19 244.376 219.251 244.826 222.024C245.338 225.18 245.074 226.839 244.343 226.993C242.888 227.302 242.809 224.458 243.215 222.424C243.621 220.391 245.261 214.13 242.005 214.049C238.75 213.968 238.716 219.337 238.489 221.495C238.261 223.653 238.124 231.324 236.44 231.305C234.756 231.285 235.91 227.266 236.135 225.979C236.36 224.693 235.971 221.884 234.838 222.352C233.705 222.819 226.665 235.146 227.485 238.067L227.486 238.065Z" fill="#57BFC1"/>
<path d="M76.7591 235.104C67.7372 244.702 55.7245 241.866 45.9725 229.807C55.8504 222.769 71.3929 221.761 76.7591 235.104Z" fill="#00AEB3"/>
<path d="M76.7604 235.494C76.73 235.494 76.6997 235.491 76.6702 235.484C74.233 234.92 70.0507 234.319 65.6224 233.684C60.2377 232.91 54.1336 232.034 49.6236 231.007C49.5226 230.984 49.4348 230.923 49.3795 230.835C49.3242 230.748 49.306 230.642 49.3289 230.542C49.3518 230.441 49.4138 230.353 49.5014 230.298C49.589 230.243 49.695 230.225 49.796 230.248C54.2767 231.263 60.3636 232.138 65.7343 232.908C70.1793 233.546 74.3775 234.147 76.8471 234.719C76.9395 234.742 77.0205 234.797 77.0749 234.875C77.1294 234.953 77.1535 235.048 77.1427 235.142C77.132 235.237 77.0872 235.324 77.0166 235.387C76.9461 235.451 76.8547 235.487 76.7595 235.488L76.7604 235.494Z" fill="#80CED0"/>
<path d="M178.45 219.225C176.308 218.379 174.434 216.821 175.059 215.535C175.65 214.312 177.885 214.755 179.903 215.705C179.366 213.784 179.445 211.871 180.649 211.52C183.013 210.836 184.911 217.784 184.04 219.565C183.269 222.081 176.673 224.525 175.82 222.22C175.408 221.125 176.741 220.012 178.45 219.225Z" fill="#FEDA94"/>
<path d="M194.102 237.365C194.012 237.365 193.924 237.333 193.855 237.276C193.785 237.218 193.738 237.139 193.721 237.05C191.987 228.361 186.359 221.022 183.872 219.922C183.82 219.906 183.771 219.879 183.729 219.842C183.687 219.806 183.654 219.761 183.631 219.711C183.608 219.661 183.596 219.606 183.596 219.551C183.596 219.496 183.607 219.442 183.63 219.391C183.653 219.341 183.686 219.296 183.727 219.259C183.768 219.223 183.817 219.195 183.87 219.179C183.923 219.162 183.978 219.157 184.033 219.164C184.088 219.171 184.141 219.189 184.188 219.218C187.144 220.525 192.759 228.246 194.486 236.905C194.496 236.956 194.496 237.007 194.486 237.057C194.476 237.108 194.457 237.155 194.428 237.198C194.4 237.24 194.363 237.277 194.32 237.305C194.278 237.334 194.23 237.354 194.18 237.363C194.154 237.367 194.128 237.367 194.102 237.365Z" fill="#FFD19B"/>
<path d="M181.619 220.493C181.713 220.109 182.119 219.818 182.506 219.588C181.962 219.281 181.378 218.502 181.79 217.962C182.088 217.576 182.779 218.03 183.311 218.517C183.284 218.265 183.292 218.011 183.334 217.761C183.731 215.742 184.914 218.772 184.309 219.703C184.073 220.023 183.805 220.318 183.509 220.584C182.757 221.285 181.433 221.236 181.619 220.494V220.493Z" fill="#FF9E2C"/>
<path d="M213.462 239.061C223.962 223.896 216.501 208.338 197.045 198.602C190.312 214.177 193.54 235.697 213.462 239.061Z" fill="#00AEB3"/>
<path d="M221.19 240.868C227.972 252.561 240.641 252.503 253.207 242.708C244.968 233.38 229.667 228.766 221.19 240.868Z" fill="#219AA0"/>
<path d="M215.396 241.872C236.684 240.95 245.84 223.291 241.289 198.686C222.236 203.344 204.639 221.267 215.396 241.872Z" fill="#A9DDDD"/>
<path d="M215.397 242.262C215.334 242.262 215.272 242.247 215.216 242.217C215.17 242.194 215.13 242.161 215.097 242.122C215.064 242.083 215.039 242.037 215.024 241.989C215.009 241.94 215.003 241.888 215.008 241.837C215.012 241.786 215.027 241.737 215.051 241.692C216.946 238.078 220.625 232.314 224.518 226.212C229.223 218.841 234.55 210.488 238.024 203.941C238.075 203.854 238.158 203.79 238.255 203.762C238.352 203.734 238.456 203.745 238.545 203.793C238.635 203.84 238.702 203.919 238.734 204.015C238.765 204.111 238.759 204.215 238.715 204.306C235.232 210.879 229.89 219.246 225.176 226.63C221.29 232.717 217.619 238.465 215.74 242.052C215.707 242.115 215.658 242.168 215.598 242.205C215.537 242.242 215.468 242.262 215.397 242.262Z" fill="#57BFC1"/>
<path d="M66.0881 131.744C62.061 132.183 60.346 128.785 59.5025 126.672C60.7432 126.634 65.779 126.759 66.0881 131.744Z" fill="#80CED0"/>
<path d="M90.5057 158.223C90.4335 158.223 90.3628 158.203 90.3012 158.166C90.2396 158.128 90.1897 158.074 90.1569 158.01C86.3942 150.667 77.9167 139.925 65.4657 131.799C65.3885 131.739 65.3366 131.652 65.3202 131.556C65.3039 131.46 65.3244 131.361 65.3776 131.279C65.4309 131.197 65.513 131.138 65.6077 131.113C65.7025 131.089 65.803 131.101 65.8895 131.146C78.4813 139.356 87.0374 150.222 90.8537 157.659C90.8832 157.718 90.897 157.784 90.894 157.85C90.891 157.916 90.8712 157.98 90.8364 158.037C90.8017 158.093 90.7531 158.14 90.6954 158.172C90.6376 158.205 90.5725 158.222 90.5062 158.222L90.5057 158.223ZM89.2371 152.116C88.5913 143.993 94.3067 142.148 98.6164 140.574C98.6263 143.078 99.3452 151.796 89.2371 152.116ZM84.8656 145.629C82.735 139.43 86.8126 136.869 89.8464 134.781C90.35 136.733 92.6603 143.368 84.8652 145.629H84.8656ZM78.7954 139.649C75.763 134.903 78.6541 131.938 80.7735 129.591C81.59 131.113 84.8512 136.196 78.795 139.649H78.7954ZM72.4734 134.359C69.8381 132.049 71.049 129.781 71.9083 128.02C72.657 128.779 75.4873 131.251 72.4734 134.359ZM85.3445 153.855C79.4453 149.708 75.4737 153.211 72.3465 155.763C74.2421 156.904 80.5542 161.369 85.3445 153.855Z" fill="#80CED0"/>
<path d="M80.4594 146.896C75.9914 142.572 72.1371 145.027 69.1205 146.782C70.5846 147.999 75.3645 152.649 80.4594 146.896ZM73.464 139.565C69.7099 137.568 67.642 139.906 65.9979 141.626C67.192 142.149 71.2119 144.304 73.464 139.565ZM68.4029 134.956C66.4672 133.406 65.0329 134.534 63.9069 135.341C64.5342 135.767 66.6126 137.43 68.4029 134.956Z" fill="#7FDBE9"/>
<path d="M86.7914 238.299C92.4094 237.017 98.4805 229.606 97.8938 223.989C97.3071 218.372 91.9973 217.483 92.5231 214.353C93.0489 211.223 98.5902 207.308 97.4118 203.141C95.3177 195.739 83.8899 201.293 81.7858 195.999C79.6818 190.704 86.2467 188.009 85.0583 182.756C83.87 177.502 74.7042 182.627 70.8806 177.272C67.0571 171.917 56.8641 162.026 51.8454 168.577C47.8793 173.754 55.919 175.738 55.9073 178.552C55.896 181.76 51.8098 182.233 52.5757 185.771C53.6552 190.771 60.4503 190.811 60.6543 195.059C60.8583 199.307 55.3996 200.694 58.6635 205.262C62.7032 210.921 71.3455 204.137 72.6629 213.167C73.9803 222.197 62.6125 219.052 62.6382 224.743C62.6667 230.953 73.8445 229.7 72.8678 233.816C71.5369 239.418 78.0792 240.284 86.7914 238.299Z" fill="#57BFC1"/>
<path d="M88.2537 238.225C88.1552 238.225 88.0603 238.188 87.988 238.121C87.9157 238.054 87.8714 237.963 87.8637 237.865C87.864 237.178 87.9446 236.494 88.1038 235.826C88.4315 234.071 88.8386 231.882 87.769 230.389C87.1205 229.528 86.4078 228.718 85.6369 227.965C84.3358 226.626 82.9891 225.241 82.2164 223.33C80.6535 219.46 81.3079 216.237 81.8856 213.391C82.3094 211.324 82.6655 209.541 82.0945 207.905C81.6225 206.552 80.6815 206.215 79.5004 205.802C78.2556 205.362 76.8471 204.865 75.6132 203.137C74.7464 202.038 74.3447 200.645 74.4939 199.255C74.535 198.141 74.5774 196.989 73.1458 194.98C72.3185 193.748 71.0655 192.863 69.6256 192.492C68.0131 192.054 66.5946 191.089 65.5971 189.752C62.863 186.281 62.7895 183.097 62.7357 180.771C62.7073 179.482 62.6834 178.463 62.2131 177.872C61.0848 176.452 59.7548 176.776 59.7403 176.78C59.6415 176.801 59.5381 176.784 59.452 176.731C59.3659 176.678 59.3037 176.594 59.2785 176.496C59.2533 176.398 59.267 176.295 59.3167 176.207C59.3665 176.119 59.4485 176.054 59.5454 176.025C59.6189 176.006 61.3822 175.575 62.8265 177.389C63.4583 178.185 63.4849 179.319 63.5174 180.754C63.5698 182.969 63.6388 186.004 66.2118 189.271C67.1186 190.49 68.4139 191.366 69.8855 191.756C71.4824 192.174 72.8706 193.161 73.788 194.53C75.3749 196.75 75.3252 198.096 75.2801 199.282C75.2096 199.885 75.2594 200.496 75.4267 201.08C75.594 201.664 75.8755 202.209 76.255 202.684C77.3458 204.212 78.5765 204.645 79.7662 205.065C81.038 205.515 82.243 205.94 82.8392 207.648C83.4805 209.479 83.0807 211.452 82.6587 213.543C82.1036 216.281 81.4731 219.385 82.9484 223.038C83.6633 224.809 84.9563 226.137 86.2051 227.423C87.0032 228.205 87.7414 229.045 88.4134 229.937C89.674 231.702 89.2145 234.163 88.8796 235.969C88.736 236.57 88.6592 237.184 88.6508 237.801C88.6553 237.852 88.6496 237.904 88.634 237.953C88.6184 238.002 88.5933 238.047 88.5601 238.086C88.5269 238.125 88.4862 238.158 88.4405 238.181C88.3947 238.205 88.3447 238.219 88.2934 238.223L88.2537 238.225Z" fill="#A9DDDD"/>
<path d="M209.223 74.0117H208.995C208.129 73.9787 207.283 73.743 206.526 73.3238C205.768 72.9045 205.12 72.3134 204.634 71.5983C203.731 71.8496 202.783 71.8937 201.86 71.7276C200.937 71.5614 200.064 71.1893 199.306 70.6389C196.92 68.9667 195.558 65.8491 195.57 62.0633C195.57 61.9602 195.612 61.8614 195.685 61.7888C195.759 61.7161 195.858 61.6755 195.961 61.6758C196.065 61.6762 196.164 61.7175 196.237 61.7907C196.31 61.8638 196.35 61.9629 196.35 62.066C196.339 65.5881 197.579 68.4776 199.754 70.0017C200.448 70.5188 201.259 70.8587 202.116 70.992C202.972 71.1254 203.849 71.048 204.668 70.7667C204.754 70.7354 204.848 70.7353 204.935 70.7665C205.021 70.7977 205.093 70.8582 205.138 70.9373C205.543 71.6125 206.11 72.1761 206.789 72.5769C207.467 72.9777 208.236 73.203 209.024 73.2323C210.919 73.307 213.904 72.3476 217.36 67.3562C217.389 67.312 217.425 67.274 217.469 67.2444C217.512 67.2148 217.561 67.1943 217.613 67.1839C217.664 67.1736 217.717 67.1737 217.769 67.1843C217.82 67.1949 217.869 67.2158 217.912 67.2456C217.956 67.2754 217.992 67.3136 218.021 67.358C218.049 67.4023 218.067 67.4518 218.076 67.5035C218.084 67.5552 218.082 67.6082 218.07 67.6591C218.057 67.71 218.035 67.7579 218.003 67.7999C214.478 72.8885 211.32 74.0117 209.223 74.0117Z" fill="#92C749"/>
<path d="M207.975 72.0029C206.859 72.0091 205.765 71.6936 204.824 71.0944H204.751C203.14 71.0944 201.36 70.2056 200.049 68.7404C198 66.4454 197.231 63.0106 197.882 59.0654C197.888 59.013 197.905 58.9624 197.932 58.9167C197.958 58.8709 197.993 58.8309 198.036 58.7992C198.078 58.7675 198.126 58.7446 198.178 58.732C198.229 58.7194 198.282 58.7174 198.335 58.726C198.387 58.7346 198.437 58.7536 198.481 58.782C198.526 58.8104 198.564 58.8475 198.594 58.8911C198.624 58.9347 198.645 58.9839 198.655 59.0356C198.665 59.0874 198.665 59.1407 198.654 59.1923C198.04 62.899 198.741 66.1057 200.632 68.2202C201.843 69.577 203.48 70.3771 204.919 70.3096C205.003 70.3059 205.087 70.3291 205.157 70.3757C205.864 70.8409 206.674 71.1275 207.518 71.2107C208.361 71.2938 209.212 71.1712 209.997 70.8532C212.696 69.8672 214.838 67.1902 215.871 63.5182C215.9 63.4195 215.967 63.3362 216.057 63.2864C216.147 63.2366 216.253 63.2242 216.352 63.2521C216.452 63.28 216.536 63.3458 216.587 63.4352C216.638 63.5246 216.651 63.6305 216.624 63.7297C215.522 67.6478 213.205 70.5103 210.266 71.5853C209.533 71.8582 208.758 71.9995 207.975 72.0029Z" fill="#92C749"/>
<path d="M206.538 70.7038C206.051 70.7008 205.568 70.6257 205.103 70.481C204.131 70.5332 203.154 69.995 202.268 68.9173C200.311 66.5377 198.97 61.4788 200.341 56.7916C200.353 56.7399 200.375 56.6912 200.407 56.6485C200.438 56.6058 200.478 56.5699 200.524 56.5431C200.57 56.5163 200.621 56.4992 200.674 56.4927C200.727 56.4862 200.78 56.4905 200.831 56.5054C200.882 56.5202 200.93 56.5453 200.971 56.5791C201.012 56.6129 201.046 56.6547 201.07 56.7019C201.094 56.7491 201.109 56.8008 201.112 56.8538C201.116 56.9067 201.108 56.9598 201.091 57.0098C199.794 61.4405 201.041 66.1984 202.872 68.4214C203.6 69.3061 204.396 69.7597 205.115 69.6895C205.167 69.6853 205.218 69.6911 205.268 69.7066C205.921 69.9345 206.625 69.9745 207.299 69.822C207.974 69.6696 208.592 69.3307 209.083 68.8444C211.783 66.386 212.693 60.5324 212.388 59.1487C212.368 59.0487 212.388 58.9448 212.444 58.8594C212.5 58.774 212.587 58.7138 212.687 58.6919C212.787 58.6699 212.891 58.6878 212.978 58.7419C213.065 58.7959 213.127 58.8817 213.151 58.9808C213.532 60.7151 212.535 66.7559 209.61 69.4208C208.792 70.231 207.69 70.6913 206.538 70.7038Z" fill="#92C749"/>
<path d="M205.148 70.477C205.129 70.4784 205.109 70.4784 205.089 70.477C205.035 70.4687 204.983 70.449 204.937 70.4194C204.891 70.3898 204.852 70.3509 204.822 70.3051C203.777 68.5953 202.934 66.7703 202.31 64.8668C201.633 62.9017 201.239 61.1741 201.277 60.3587C201.285 60.258 201.333 60.1645 201.409 60.0978C201.485 60.0311 201.584 59.9964 201.685 60.0012C201.786 60.0059 201.882 60.0496 201.952 60.1231C202.021 60.1966 202.059 60.2941 202.058 60.3952C201.992 61.7902 203.508 66.6335 205.235 69.4946C207.356 67.4602 209.493 62.7518 209.546 61.022C209.549 60.9211 209.592 60.8255 209.664 60.7551C209.737 60.6848 209.834 60.6451 209.936 60.6445H209.948C210.052 60.6478 210.15 60.6919 210.221 60.7671C210.292 60.8424 210.33 60.9426 210.327 61.0459C210.265 63.0902 207.853 68.3719 205.397 70.3933C205.326 70.4487 205.238 70.4786 205.148 70.477Z" fill="#92C749"/>
<path d="M205.148 70.477C205.063 70.477 204.981 70.4495 204.913 70.3987C204.845 70.3479 204.796 70.2765 204.772 70.1953C203.887 67.0876 202.883 63.5654 203.56 58.0993C203.577 58.0004 203.631 57.9118 203.712 57.8519C203.793 57.7921 203.894 57.7656 203.994 57.7779C204.093 57.7903 204.185 57.8405 204.248 57.9182C204.312 57.9959 204.343 58.0951 204.336 58.1951C203.678 63.5051 204.659 66.9467 205.524 69.9829C205.552 70.0823 205.54 70.1889 205.49 70.2793C205.439 70.3696 205.355 70.4364 205.255 70.4648C205.22 70.4737 205.184 70.4778 205.148 70.477Z" fill="#92C749"/>
<path d="M204.928 69.6975C204.86 69.6979 204.794 69.6803 204.735 69.6467C204.646 69.5944 204.581 69.5094 204.555 69.41C204.528 69.3107 204.542 69.205 204.593 69.1157C206.033 66.6051 207.095 58.9722 206.341 56.5391C206.315 56.4417 206.328 56.338 206.376 56.2497C206.425 56.1614 206.506 56.0954 206.603 56.0655C206.699 56.0356 206.804 56.0442 206.894 56.0895C206.985 56.1347 207.054 56.2132 207.087 56.3082C207.92 58.9848 206.85 66.7518 205.272 69.5018C205.237 69.562 205.187 69.6119 205.127 69.6463C205.066 69.6807 204.998 69.6984 204.928 69.6975ZM197.662 96.4145C197.606 96.4145 197.551 96.4025 197.501 96.3794C197.454 96.3583 197.412 96.3282 197.377 96.2908C197.342 96.2534 197.315 96.2095 197.297 96.1616C197.279 96.1137 197.27 96.0627 197.272 96.0116C197.274 95.9605 197.286 95.9102 197.307 95.8637C200.184 89.5704 204.337 73.6787 204.41 71.1164C204.418 71.0168 204.464 70.924 204.539 70.8571C204.613 70.7903 204.711 70.7546 204.811 70.7573C204.911 70.76 205.006 70.801 205.077 70.8717C205.148 70.9425 205.189 71.0376 205.191 71.1375C205.109 74.0328 200.758 90.1977 198.018 96.1863C197.987 96.2544 197.937 96.3122 197.874 96.3527C197.81 96.3931 197.737 96.4146 197.662 96.4145Z" fill="#92C749"/>
<path d="M173.764 99.0254C162.223 107.751 149.745 102.472 141.423 87.6251C153.418 81.825 170.426 83.5917 173.764 99.0254Z" fill="#68C7EC"/>
<path d="M177.412 96.0937C157.682 92.2898 151.597 74.5459 159.273 52.2227C176.391 59.209 190.311 78.3677 177.412 96.0937Z" fill="#80CED0"/>
<path d="M177.412 96.4865C177.331 96.4865 177.252 96.4613 177.185 96.4144C177.119 96.3674 177.07 96.3011 177.043 96.2246C175.791 92.6246 173.17 86.7589 170.402 80.5471C167.032 73.0015 163.212 64.4497 160.88 57.8311C160.845 57.7337 160.851 57.6268 160.896 57.5338C160.941 57.4408 161.021 57.3694 161.118 57.3352C161.216 57.301 161.323 57.3068 161.416 57.3515C161.51 57.3961 161.581 57.4759 161.616 57.5732C163.94 64.1621 167.754 72.6982 171.116 80.2298C173.898 86.4569 176.526 92.3371 177.788 95.969C177.822 96.0664 177.816 96.1731 177.771 96.2659C177.726 96.3586 177.646 96.4298 177.548 96.464C177.505 96.4786 177.459 96.4858 177.413 96.4852L177.412 96.4865Z" fill="#00AEB3"/>
<path d="M170.11 79.3397C170.032 79.34 169.957 79.3169 169.892 79.2736C169.807 79.2158 169.748 79.1266 169.728 79.0254C169.708 78.9242 169.729 78.8193 169.786 78.7336L175.332 70.5436C175.391 70.4605 175.48 70.4037 175.581 70.3854C175.681 70.367 175.785 70.3886 175.869 70.4455C175.954 70.5024 176.013 70.5901 176.033 70.6897C176.054 70.7894 176.035 70.8931 175.979 70.9787L170.435 79.1687C170.399 79.2216 170.351 79.265 170.294 79.2949C170.237 79.3249 170.174 79.3406 170.11 79.3406V79.3397ZM167.687 74.0297C167.643 74.0298 167.599 74.0222 167.557 74.0072L159.635 71.2064C159.539 71.1707 159.462 71.0989 159.418 71.0065C159.375 70.914 159.37 70.8083 159.404 70.7121C159.438 70.6159 159.508 70.5369 159.6 70.4921C159.692 70.4473 159.798 70.4402 159.895 70.4725L167.816 73.2706C167.904 73.3006 167.978 73.3608 168.025 73.4403C168.072 73.5198 168.09 73.6135 168.074 73.7045C168.058 73.7956 168.01 73.878 167.939 73.9371C167.868 73.9962 167.778 74.0281 167.685 74.027L167.687 74.0297ZM163.916 64.5347C163.867 64.5344 163.819 64.5254 163.774 64.5082C163.678 64.4702 163.6 64.3957 163.559 64.3008C163.518 64.206 163.516 64.0986 163.554 64.0024L164.892 60.6125C164.934 60.5236 165.009 60.4539 165.101 60.4176C165.193 60.3812 165.295 60.3808 165.387 60.4165C165.479 60.4521 165.554 60.5212 165.597 60.6098C165.64 60.6984 165.648 60.8 165.619 60.8942L164.281 64.2841C164.253 64.3581 164.203 64.4219 164.138 64.4668C164.073 64.5118 163.995 64.5358 163.916 64.5356V64.5347ZM173.265 86.4236C173.238 86.4235 173.21 86.4207 173.183 86.415L162.628 84.1709C162.576 84.1625 162.526 84.1436 162.481 84.1153C162.436 84.087 162.398 84.0499 162.368 84.0063C162.338 83.9627 162.317 83.9135 162.307 83.8616C162.296 83.8097 162.297 83.7563 162.308 83.7046C162.319 83.6529 162.34 83.6039 162.371 83.5607C162.401 83.5175 162.441 83.481 162.486 83.4533C162.531 83.4256 162.581 83.4074 162.634 83.3997C162.686 83.392 162.74 83.395 162.791 83.4086L173.346 85.6528C173.44 85.6736 173.522 85.728 173.578 85.8057C173.634 85.8833 173.66 85.9787 173.65 86.0738C173.64 86.1689 173.595 86.2571 173.524 86.3216C173.454 86.386 173.361 86.4224 173.265 86.4236Z" fill="#00AEB3"/>
<path d="M214.327 234.381L217.462 238.749C220.102 242.424 219.614 248.13 215.64 253.609C210.043 261.321 199.628 265.704 192.416 263.389C190.508 262.824 188.836 261.654 187.655 260.056L184.518 255.689C185.7 257.285 187.37 258.455 189.278 259.022C196.494 261.337 206.91 256.952 212.505 249.244C216.477 243.763 216.964 238.057 214.327 234.381Z" fill="#EDB220"/>
<path d="M209.57 231.049C216.776 233.367 218.097 241.527 212.506 249.24C206.915 256.953 196.494 261.333 189.278 259.018C182.062 256.704 180.748 248.548 186.339 240.836C191.93 233.125 202.355 228.731 209.57 231.049Z" fill="#F4D161"/>
<path d="M207.304 234.516L205.967 236.401C207.642 237.582 207.772 240.043 206.099 242.393L203.861 241.689C204.891 240.244 204.621 238.715 203.259 238.285C201.897 237.855 199.956 238.687 198.93 240.13C198.46 240.72 198.244 241.472 198.328 242.221C198.38 242.532 198.521 242.822 198.734 243.056C198.947 243.29 199.223 243.458 199.529 243.539C202.12 244.359 202.637 247.274 200.67 250.037C198.996 252.395 196.067 253.882 193.63 253.775L192.395 255.513L190.158 254.809L191.392 253.067C189.722 251.88 189.599 249.43 191.273 247.071L193.504 247.776C192.471 249.23 192.737 250.757 194.1 251.186C195.464 251.615 197.405 250.781 198.436 249.331C199.468 247.88 199.194 246.357 197.832 245.93C197.25 245.77 196.727 245.447 196.324 245C195.921 244.553 195.655 244 195.557 243.407C195.34 242.177 195.746 240.774 196.7 239.429C198.37 237.078 201.298 235.579 203.733 235.695L205.07 233.811L207.304 234.516Z" fill="#FAF0B5"/>
<path d="M218.185 238.226C223.882 237.183 230.774 241.621 233.542 248.117C236.31 254.613 233.929 260.747 228.234 261.79C222.538 262.833 215.644 258.396 212.875 251.9C210.106 245.404 212.486 239.27 218.185 238.226Z" fill="#F4D161"/>
<path d="M220.568 240.498L221.24 242.073C223.042 242.231 224.941 243.659 225.783 245.632L224.031 245.953C223.513 244.738 222.228 243.911 221.161 244.105C220.094 244.298 219.656 245.444 220.171 246.659C220.428 247.252 220.854 247.756 221.398 248.107C221.873 248.441 222.457 248.581 223.032 248.501C225.063 248.13 227.517 249.71 228.505 252.024C229.344 253.996 228.851 255.864 227.432 256.604L228.054 258.059L226.302 258.379L225.682 256.924C223.889 256.773 221.985 255.339 221.146 253.369L222.897 253.049C223.412 254.257 224.7 255.086 225.759 254.891C226.819 254.697 227.27 253.552 226.749 252.341C226.227 251.131 224.943 250.3 223.879 250.496C222.78 250.65 221.663 250.382 220.755 249.747C219.717 249.075 218.903 248.111 218.415 246.978C217.567 245.006 218.069 243.138 219.481 242.394L218.808 240.819L220.568 240.498Z" fill="#FAF0B5"/>
<path d="M228.231 261.79C222.852 262.775 216.412 258.873 213.377 252.969L210.429 254.766C213.342 260.965 220.006 265.131 225.548 264.116C226.92 263.882 228.202 263.281 229.259 262.378L231.943 260.052C230.887 260.956 229.604 261.556 228.231 261.79Z" fill="#EDB220"/>
<path d="M212.875 251.9C210.817 247.078 211.603 242.461 214.474 239.964L211.79 242.292C208.917 244.781 208.134 249.405 210.19 254.227C210.268 254.407 210.35 254.587 210.433 254.767L213.38 252.971C213.198 252.614 213.028 252.263 212.875 251.9Z" fill="#EDB220"/>
<path d="M261.653 96.9235H180.198C175.427 96.9235 171.56 100.78 171.56 105.536V165.145C171.56 169.902 175.427 173.758 180.198 173.758H261.653C266.424 173.758 270.291 169.902 270.291 165.145V105.536C270.291 100.78 266.424 96.9235 261.653 96.9235Z" fill="white"/>
<path d="M262.429 110.244H266.19V133.706H262.429V110.244Z" fill="#5652CC"/>
<path d="M257.863 125.553H261.624V146.579H257.863V125.553Z" fill="#807DFB"/>
<path d="M253.296 145.474H257.057V151.242H253.296V145.474Z" fill="#ED9F00"/>
<path d="M248.729 141.103H252.49V147.547H248.729V141.103ZM244.163 132.379H247.924V141.103H244.163V132.379Z" fill="#FCBA06"/>
<path d="M239.595 114.314H243.356V135.339H239.595V114.314Z" fill="#5652CC"/>
<path d="M235.028 124.827H238.789V145.852H235.028V124.827ZM230.462 142.141H234.223V153.916H230.462V142.141ZM225.896 146.789H229.657V163.529H225.896V146.789ZM221.329 137.705H225.09V152.654H221.329V137.705Z" fill="#807DFB"/>
<path d="M216.761 133.646H220.523V141.782H216.761V133.646ZM212.195 130.951H215.956V135.107H212.195V130.951Z" fill="#FCBA06"/>
<path d="M207.628 118.228H211.389V131.269H207.628V118.228Z" fill="#807DFB"/>
<path d="M203.062 103.879H206.823V123.288H203.062V103.879ZM198.495 108.617H202.256V133.029H198.495V108.617Z" fill="#5652CC"/>
<path d="M193.928 121.975H197.69V153.16H193.928V121.975ZM189.362 145.861H193.123V157.966H189.362V145.861Z" fill="#807DFB"/>
<path d="M184.795 155.118H188.556V161.73H184.795V155.118Z" fill="#FCBA06"/>
<path d="M180.228 160.632H183.989V165.63H180.228V160.632Z" fill="#ED9F00"/>
<path d="M175.661 155.811H179.422V164.43H175.661V155.811Z" fill="#FCBA06"/>
<path d="M92.543 241.86C92.543 229.81 98.1393 220.041 105.044 220.041H81.604C74.6988 220.041 69.0993 229.81 69.0993 241.86C69.0993 253.909 74.6956 263.676 81.604 263.676H105.046C98.1411 263.676 92.543 253.908 92.543 241.86Z" fill="#DDE2F8"/>
<path d="M105.047 263.678C111.952 263.678 117.55 253.91 117.55 241.859C117.55 229.809 111.952 220.041 105.047 220.041C98.1413 220.041 92.5434 229.809 92.5434 241.859C92.5434 253.91 98.1413 263.678 105.047 263.678Z" fill="#BBC0E6"/>
<path d="M105.046 259.49C110.627 259.49 115.152 251.597 115.152 241.859C115.152 232.121 110.627 224.228 105.046 224.228C99.4652 224.228 94.9408 232.121 94.9408 241.859C94.9408 251.597 99.4652 259.49 105.046 259.49Z" fill="#5652CC"/>
<path d="M95.1796 238.075H114.918C113.93 230.155 109.885 224.226 105.049 224.226C100.213 224.226 96.1729 230.156 95.1796 238.075Z" fill="#423EAF"/>
<path d="M105.045 220.041H81.6026C74.9208 220.041 69.4653 229.182 69.1165 240.689C69.5263 240.689 70.0096 240.104 70.5959 237.833C71.1821 235.562 72.4201 233.677 74.4393 233.677H88.7009C91.6345 233.677 93.2592 232.768 94.5112 230.111C96.7353 224.056 100.621 220.041 105.045 220.041Z" fill="#F6F6FB"/>
<path d="M81.6008 263.676H105.043C101.252 263.676 97.8581 260.728 95.5654 256.079H72.1231C74.4163 260.728 77.8097 263.676 81.6008 263.676ZM123.438 247.053H109.673C106.091 247.053 99.5799 243.597 99.5799 231.365C99.5799 223.053 100.171 218.122 101.401 213.807H138.392C139.367 217.046 143.268 247.053 123.442 247.053H123.438Z" fill="#DDE2F8"/>
<path d="M118.268 247.053H123.442C143.268 247.053 139.367 217.046 138.391 213.805H128.524C134.874 240.684 120.904 247.053 118.268 247.053Z" fill="#CED3F8"/>
<path d="M104.197 213.807H101.399C100.168 218.127 99.5772 223.051 99.5772 231.365C99.5772 235.44 100.302 238.535 101.399 240.86C100.683 237.001 100.978 222.762 104.197 213.807Z" fill="#F6F6FB"/>
<path d="M147.963 241.86C147.963 229.81 153.56 220.041 160.468 220.041H137.023C130.118 220.041 124.518 229.81 124.518 241.86C124.518 253.909 130.115 263.676 137.023 263.676H160.468C153.562 263.676 147.963 253.908 147.963 241.86Z" fill="#DDE2F8"/>
<path d="M160.468 263.678C167.373 263.678 172.971 253.91 172.971 241.859C172.971 229.809 167.373 220.041 160.468 220.041C153.563 220.041 147.965 229.809 147.965 241.859C147.965 253.91 153.563 263.678 160.468 263.678Z" fill="#BBC0E6"/>
<path d="M160.468 259.49C166.049 259.49 170.573 251.597 170.573 241.859C170.573 232.121 166.049 224.228 160.468 224.228C154.887 224.228 150.363 232.121 150.363 241.859C150.363 251.597 154.887 259.49 160.468 259.49Z" fill="#5652CC"/>
<path d="M160.468 220.041H137.023C130.343 220.041 124.885 229.182 124.536 240.689C124.943 240.689 125.43 240.104 126.016 237.833C126.602 235.562 127.839 233.677 129.857 233.677H144.119C147.049 233.677 148.677 232.768 149.928 230.111C152.157 224.056 156.042 220.041 160.468 220.041Z" fill="#F6F6FB"/>
<path d="M137.023 263.676H160.468C156.677 263.676 153.282 260.728 150.99 256.079H127.545C129.837 260.728 133.232 263.676 137.023 263.676Z" fill="#DDE2F8"/>
<path d="M150.599 238.075H170.336C169.347 230.155 165.303 224.226 160.468 224.226C155.633 224.226 151.591 230.156 150.599 238.075Z" fill="#423EAF"/>
<path d="M103.245 212.151H136.36V213.807H103.245V212.151Z" fill="#807DFB"/>
<path d="M125.022 212.151H136.361V213.807H125.022V212.151Z" fill="#5652CC"/>
<path d="M103.245 212.151H108.607V213.807H103.245V212.151Z" fill="#9F9CFF"/>
<path d="M140.897 153.84H98.0364C90.2214 153.84 87.0721 158.771 87.0721 163.686C87.0721 193.174 91.263 212.151 98.0364 212.151H140.897C147.67 212.151 151.86 188.806 151.86 163.686C151.86 158.772 148.705 153.84 140.897 153.84Z" fill="#DDE2F8"/>
<path d="M127.545 212.151H140.897C147.671 212.151 151.86 188.806 151.86 163.686C151.86 159.122 149.14 154.546 142.493 153.916C132.42 153.84 132.899 166.576 133.072 175.43C133.268 185.534 136.818 195.171 134.767 202.378C133.394 207.196 131.64 210.561 127.545 212.151Z" fill="#CED3F8"/>
<path d="M140.897 153.84H98.0364C90.2214 153.84 87.0721 158.771 87.0721 163.686C87.0721 189.375 90.2526 207.078 95.5497 211.222C88.9821 196.851 89.474 170.301 89.6663 166.28C89.8586 162.259 93.34 159.559 97.3838 159.559H131.704C136.556 159.559 134.927 153.923 142.491 153.923C141.961 153.867 141.429 153.839 140.897 153.84Z" fill="#F6F6FB"/>
<path d="M109.752 182.032C109.134 182.027 108.54 181.793 108.086 181.374C107.623 180.964 107.328 180.397 107.258 179.783C107.22 179.499 107.244 179.209 107.328 178.935C107.413 178.661 107.556 178.408 107.748 178.193C107.939 177.979 108.175 177.809 108.439 177.695C108.703 177.58 108.989 177.524 109.277 177.529C109.895 177.544 110.487 177.779 110.945 178.193C111.403 178.607 111.696 179.172 111.771 179.783H113.819C113.695 178.795 113.273 177.868 112.609 177.125C111.944 176.382 111.069 175.857 110.099 175.62L109.93 174.008H107.881L108.052 175.62C107.147 175.844 106.357 176.392 105.832 177.16C105.307 177.928 105.085 178.862 105.208 179.783C105.351 180.949 105.91 182.025 106.784 182.813C107.657 183.601 108.787 184.049 109.964 184.075C110.582 184.089 111.174 184.324 111.632 184.738C112.09 185.152 112.383 185.717 112.458 186.329C112.497 186.613 112.473 186.903 112.388 187.177C112.304 187.452 112.161 187.705 111.969 187.919C111.777 188.133 111.541 188.303 111.277 188.418C111.013 188.533 110.727 188.589 110.439 188.583C109.821 188.568 109.229 188.333 108.771 187.919C108.313 187.505 108.02 186.94 107.945 186.329H105.898C106.022 187.316 106.444 188.243 107.108 188.987C107.772 189.73 108.647 190.255 109.617 190.492L109.774 191.977H111.826L111.668 190.492C112.573 190.268 113.363 189.72 113.888 188.952C114.412 188.184 114.634 187.25 114.512 186.329C114.366 185.163 113.805 184.088 112.932 183.299C112.058 182.511 110.93 182.061 109.752 182.032Z" fill="#CED3F8"/>
<path d="M184.755 141.599C185.573 138.23 186.442 128.48 188.786 129.129C191.131 129.778 188.944 137.965 189.404 138.24C190.382 138.825 195.656 127.44 198.132 129.259C200.607 131.078 193.507 140.599 194.16 141.094C194.813 141.589 200.282 135.575 201.585 137.025C202.888 138.474 197.338 145.561 192.103 147.406L184.755 141.599Z" fill="#E9EDF7"/>
<path d="M192.101 147.416C196.425 145.891 200.961 140.794 201.674 138.248C198.87 143.389 192.1 145.205 190.838 146.405V146.415L192.101 147.416ZM194.875 137.034C193.964 138.377 192.661 141.103 194.159 141.103C193.508 140.604 200.606 131.081 198.13 129.268C198.522 132.055 195.786 135.691 194.875 137.034L194.875 137.034ZM188.77 134.376C188.477 135.886 188.281 138.613 189.404 138.246C188.945 137.964 191.132 129.786 188.787 129.135C189.511 129.856 189.064 132.864 188.769 134.375L188.77 134.376Z" fill="#CED3F8"/>
<path d="M103.013 198.673C106.297 197.534 114.991 192.987 115.713 195.304C116.435 197.622 108.345 200.218 108.365 200.752C108.4 201.889 120.857 200.151 120.658 203.209C120.458 206.268 108.591 205.464 108.523 206.287C108.455 207.11 116.489 208.432 115.972 210.309C115.455 212.185 106.474 211.368 102.084 207.977L103.013 198.673Z" fill="white"/>
<path d="M102.086 207.977C105.713 210.778 112.466 211.822 114.999 211.043C109.145 211.474 103.951 206.78 102.254 206.371H102.246C102.189 206.937 102.136 207.479 102.086 207.977ZM112.344 204.684C110.719 204.646 107.714 205.03 108.529 206.287C108.597 205.471 120.47 206.268 120.664 203.21C118.516 205.048 113.969 204.723 112.344 204.684ZM111.28 198.128C109.849 198.691 107.444 200.012 108.363 200.753C108.345 200.219 116.433 197.623 115.71 195.305C115.501 196.304 112.713 197.556 111.28 198.128Z" fill="#E9EDF7"/>
<path d="M140.715 168.711C141.798 171.859 146.916 176.55 151.36 178.513C151.61 174.891 151.766 171.123 151.83 167.289L140.715 168.711Z" fill="#CED3F8"/>
<path d="M184.755 141.599C179.246 148.627 172.032 154.141 163.794 157.619C157.228 160.359 150.183 161.776 143.066 161.789C141.586 161.789 140.381 163.882 140.381 166.465C140.381 169.047 141.581 171.139 143.066 171.139C151.433 171.124 159.714 169.458 167.432 166.237C177.125 162.153 185.615 155.674 192.1 147.41L184.755 141.599Z" fill="#807DFB"/>
<path d="M144.957 169.635C142.032 169.79 141.101 168.907 140.524 167.945C140.878 169.806 141.881 171.148 143.067 171.148C151.434 171.133 159.716 169.467 167.434 166.245C177.127 162.162 185.617 155.683 192.102 147.419L191.044 146.582C176.885 164.213 158.081 168.937 144.957 169.635Z" fill="#423EAF"/>
<path d="M145.056 170.074C144.044 168.286 144.517 163.743 145.056 163.646C145.594 163.549 144.461 168.703 146.469 170.074C146.247 170.175 146.006 170.227 145.762 170.227C145.518 170.227 145.277 170.175 145.056 170.074ZM149.965 169.652C148.837 167.938 148.985 163.374 149.514 163.239C150.044 163.104 149.275 168.324 151.378 169.553C151.163 169.669 150.926 169.738 150.682 169.755C150.439 169.772 150.194 169.737 149.965 169.652ZM154.795 168.779C153.534 167.159 153.341 162.595 153.858 162.42C154.374 162.245 154.007 167.51 156.196 168.575C155.991 168.707 155.76 168.793 155.518 168.829C155.277 168.864 155.031 168.847 154.796 168.779H154.795ZM160.116 167.435C158.666 165.979 157.914 161.473 158.406 161.237C158.898 161 159.179 166.27 161.482 167.06C161.295 167.216 161.076 167.33 160.841 167.395C160.605 167.459 160.359 167.473 160.118 167.434L160.116 167.435ZM165.354 165.631C163.696 164.416 162.261 160.074 162.71 159.767C163.159 159.46 164.244 164.622 166.647 165.052C166.486 165.234 166.287 165.381 166.064 165.48C165.841 165.58 165.6 165.632 165.355 165.631H165.354ZM170.336 163.528C168.557 162.496 166.662 158.337 167.073 157.982C167.484 157.627 169.127 162.644 171.558 162.812C171.417 163.011 171.236 163.178 171.026 163.301C170.815 163.424 170.581 163.501 170.338 163.527L170.336 163.528ZM175.049 161.02C173.137 160.261 170.649 156.424 171.007 156.013C171.364 155.601 173.724 160.324 176.152 160.135C176.042 160.352 175.887 160.543 175.697 160.696C175.508 160.849 175.287 160.959 175.051 161.02H175.049ZM179.445 157.966C177.495 157.31 174.796 153.618 175.133 153.187C175.469 152.755 178.084 157.341 180.503 157.02C180.405 157.244 180.26 157.444 180.078 157.607C179.896 157.77 179.68 157.892 179.447 157.965L179.445 157.966ZM183.937 154.474C181.934 154.006 178.903 150.579 179.195 150.118C179.487 149.658 182.524 153.98 184.896 153.435C184.82 153.667 184.695 153.879 184.529 154.058C184.364 154.238 184.162 154.38 183.937 154.474ZM187.581 150.969C185.578 150.5 182.546 147.074 182.839 146.615C183.131 146.155 186.168 150.476 188.54 149.931C188.464 150.163 188.339 150.375 188.173 150.554C188.008 150.733 187.806 150.875 187.581 150.969Z" fill="#423EAF"/>
<path d="M87.5442 188.813C86.7359 186.418 86.777 183.773 87.6277 180.977C87.2775 175.905 87.0861 170.322 87.0753 164.282C81.8603 170.058 74.8319 180.482 78.6596 191.8C81.5448 200.326 90.8108 206.858 102.086 207.975L103.013 198.677C95.2563 197.904 89.2976 193.993 87.5442 188.813Z" fill="#807DFB"/>
<path d="M97.6681 205.919C97.1031 203.947 98.6091 199.636 99.1548 199.664C99.7004 199.692 97.4068 204.454 99.046 206.244C98.8064 206.291 98.5595 206.287 98.3219 206.231C98.0843 206.174 97.8611 206.068 97.6681 205.919ZM92.3399 204.617C91.9978 202.592 93.9904 198.48 94.5288 198.57C95.0672 198.66 92.2483 203.127 93.6713 205.095C93.428 205.115 93.1834 205.082 92.9538 204.999C92.7242 204.917 92.5149 204.787 92.3399 204.617ZM87.24 202.112C87.2964 200.061 90.0476 196.409 90.559 196.601C91.0703 196.793 87.439 200.633 88.455 202.84C88.2123 202.811 87.9785 202.732 87.7692 202.606C87.56 202.481 87.3801 202.312 87.2418 202.111L87.24 202.112ZM85.9763 179.83C84.2807 178.66 79.7057 178.705 79.5572 179.224C79.4087 179.744 84.6634 179.112 85.8418 181.236C85.9642 181.025 86.0398 180.791 86.0636 180.548C86.0874 180.306 86.0589 180.061 85.9799 179.83H85.9763ZM87.2721 178.13C86.5725 176.2 82.8085 173.594 82.3834 173.937C81.9582 174.279 86.6222 176.785 86.3482 179.202C86.5706 179.1 86.7685 178.951 86.9285 178.766C87.0885 178.581 87.2068 178.364 87.2757 178.13H87.2721ZM85.3314 183.607C83.3618 183.011 79.017 184.452 79.0382 185.005C79.0594 185.557 83.8605 183.328 85.6396 184.986C85.6907 184.748 85.69 184.502 85.6376 184.264C85.5852 184.026 85.4823 183.802 85.3359 183.607H85.3314ZM86.1623 187.563C84.1151 187.363 80.1376 189.633 80.2644 190.161C80.3913 190.689 84.6643 187.575 86.7345 188.856C86.7377 188.612 86.6887 188.371 86.5908 188.148C86.4929 187.925 86.3483 187.726 86.1668 187.563L86.1623 187.563ZM82.8925 198.398C83.1312 196.36 86.2002 192.967 86.6921 193.205C87.184 193.443 83.2233 197.15 84.0356 199.442C83.7781 199.367 83.5414 199.234 83.3439 199.053C83.1464 198.872 82.9935 198.648 82.897 198.398L82.8925 198.398Z" fill="#423EAF"/>
<path d="M102.246 206.369C96.5945 205.495 84.5732 204.097 79.0667 192.878C82.3419 200.873 91.2843 206.908 102.087 207.977L102.246 206.369ZM89.4465 192.225C88.6179 191.207 87.9743 190.052 87.5446 188.813C86.7363 186.418 86.7774 183.773 87.6281 180.977C87.5094 179.25 87.4093 177.455 87.3285 175.613C87.328 175.617 87.328 175.622 87.3285 175.626C82.8293 187.022 87.2251 190.235 89.4461 192.224L89.4465 192.225Z" fill="#423EAF"/>
<path d="M226.317 280.319L221.937 281.206C221.769 281.24 221.612 281.317 221.483 281.431C221.354 281.544 221.257 281.689 221.202 281.851L219.789 286.078C219.735 286.24 219.724 286.414 219.758 286.582C219.792 286.75 219.87 286.906 219.984 287.035L222.952 290.375C223.065 290.503 223.211 290.599 223.373 290.653C223.536 290.708 223.71 290.719 223.879 290.685L228.259 289.799C228.427 289.765 228.583 289.687 228.712 289.573C228.841 289.46 228.937 289.315 228.992 289.152L230.413 284.926C230.468 284.763 230.478 284.589 230.444 284.421C230.41 284.253 230.332 284.097 230.218 283.969L227.251 280.629C227.137 280.499 226.99 280.403 226.826 280.348C226.662 280.294 226.486 280.283 226.317 280.319Z" fill="#B79EC7"/>
<path d="M269.887 59.7921L271.773 66.4688C271.819 66.6341 271.907 66.7844 272.03 66.9047C272.152 67.0249 272.305 67.1108 272.471 67.1536C272.638 67.1965 272.813 67.1948 272.978 67.1488C273.144 67.1027 273.294 67.0139 273.415 66.8913L278.275 61.9296C278.395 61.807 278.481 61.6552 278.523 61.4893C278.565 61.3234 278.563 61.1494 278.517 60.9845C278.471 60.8197 278.382 60.6699 278.259 60.5502C278.136 60.4305 277.984 60.3451 277.818 60.3025L271.067 58.5821C270.9 58.5409 270.726 58.5438 270.561 58.5907C270.397 58.6375 270.247 58.7266 270.128 58.8491C270.008 58.9715 269.923 59.123 269.881 59.2885C269.839 59.454 269.841 59.6277 269.887 59.7921Z" fill="#FFEBB6"/>
<path d="M60.2928 99.8975L55.5408 104.962C55.4232 105.087 55.3407 105.241 55.3016 105.408C55.2625 105.575 55.2681 105.749 55.318 105.913C55.3679 106.077 55.4602 106.225 55.5857 106.342C55.7112 106.459 55.8654 106.541 56.0328 106.58L62.8147 108.151C62.982 108.189 63.1566 108.184 63.321 108.134C63.4854 108.084 63.6337 107.992 63.751 107.867C63.8683 107.742 63.9505 107.588 63.9893 107.421C64.0281 107.255 64.0221 107.08 63.9719 106.917L61.95 100.278C61.9006 100.113 61.8082 99.9639 61.6821 99.846C61.5561 99.7281 61.4009 99.6456 61.2324 99.6069C61.064 99.5683 60.8883 99.5748 60.7232 99.626C60.5581 99.6771 60.4096 99.7705 60.2928 99.8975Z" fill="#FFEBB6"/>
<path d="M108.438 134.818C108.438 134.818 106.894 139.021 108.935 141.758C108.935 141.758 115.394 147.296 113.384 153.968C113.173 154.154 112.924 154.291 112.654 154.369C112.383 154.447 112.099 154.465 111.821 154.421C111.543 154.377 111.278 154.272 111.046 154.114C110.813 153.956 110.619 153.748 110.476 153.507C110.476 153.507 112.252 149.45 108.014 145.227C108.014 145.227 103.462 142.115 105.272 134.385C105.274 134.383 107.402 133.052 108.438 134.818Z" fill="#DDE2F8"/>
<path d="M106.016 134.044C106.016 134.044 104.279 139.927 107.618 143.973C107.618 143.973 112.561 147.733 111.42 152.627L110.65 152.71C110.65 152.71 111.618 148.612 107.73 144.997C107.73 144.997 103.307 141.483 105.473 133.844L106.016 134.044Z" fill="#CED3F8"/>
<path d="M126.266 134.949C126.266 134.949 127.823 139.114 125.809 141.839C125.809 141.839 119.42 147.366 121.452 153.978C121.663 154.162 121.911 154.296 122.18 154.373C122.449 154.449 122.732 154.465 123.008 154.42C123.284 154.375 123.547 154.27 123.777 154.112C124.007 153.954 124.2 153.747 124.341 153.506C124.341 153.506 122.555 149.489 126.743 145.276C126.743 145.276 131.249 142.165 129.41 134.503C129.407 134.503 127.286 133.192 126.266 134.949Z" fill="#DDE2F8"/>
<path d="M128.762 134.116L129.506 134.451C129.506 134.451 131.206 138.196 128.575 143.417C128.224 143.842 127.836 144.235 127.414 144.591C127.414 144.591 123.257 147.731 124.197 153.061L123.4 153.238C123.4 153.238 122.462 147.388 127.521 143.566C127.521 143.566 130.557 140.825 128.762 134.116Z" fill="#CED3F8"/>
<path d="M123.962 103.716C125.88 103.716 127.72 104.475 129.076 105.828L135.183 111.917C135.854 112.587 136.387 113.381 136.751 114.256C137.114 115.131 137.301 116.069 137.301 117.016V125.627C137.301 127.539 136.539 129.373 135.183 130.726L129.076 136.815C128.404 137.485 127.607 138.016 126.73 138.378C125.852 138.74 124.912 138.927 123.962 138.927H115.325C114.376 138.927 113.435 138.74 112.558 138.378C111.681 138.016 110.884 137.485 110.212 136.815L104.105 130.726C102.749 129.373 101.987 127.539 101.987 125.627V117.016C101.987 116.069 102.174 115.131 102.537 114.257C102.901 113.382 103.433 112.587 104.105 111.917L110.212 105.828C111.568 104.476 113.408 103.716 115.325 103.716L123.962 103.716Z" fill="#CED3F8"/>
<path d="M103.175 130.358C103.175 130.358 97.827 135.746 102.833 143.273C102.833 143.273 109.992 150.285 110.013 157.706C110.013 157.706 110.003 158.51 111.968 158.258C111.968 158.258 113.579 157.94 113.032 156.737C113.032 156.737 112.475 148.423 105.299 141.396C105.299 141.396 101.832 137.796 104.816 132.846C104.816 132.846 106.292 131.298 104.833 130.219C104.58 130.055 104.28 129.979 103.98 130.004C103.68 130.029 103.396 130.154 103.175 130.358Z" fill="white"/>
<path d="M105.09 130.435C105.314 130.646 105.453 130.931 105.478 131.238C105.504 131.544 105.416 131.849 105.23 132.094C105.23 132.094 101.613 136.967 105.042 141.178C105.042 141.178 109.281 145.87 110.675 148.582C110.675 148.582 113.067 153.071 113.112 157.685C113.112 157.685 112.672 158.275 112.205 158.238C112.205 158.238 112.77 154.249 109.747 148.898C108.244 146.301 106.44 143.889 104.371 141.712C104.371 141.712 100.625 137.527 104.736 131.897C104.942 131.435 105.061 130.94 105.09 130.435Z" fill="#CED3F8"/>
<path d="M133.387 130.522C133.387 130.522 138.471 136.093 133.183 143.419C133.183 143.419 125.782 150.152 125.447 157.554C125.447 157.554 125.424 158.357 123.483 158.033C123.483 158.033 121.896 157.656 122.49 156.476C122.49 156.476 123.393 148.203 130.814 141.456C130.814 141.456 134.408 137.991 131.653 132.943C131.653 132.943 130.254 131.345 131.747 130.322C132.003 130.168 132.304 130.103 132.601 130.139C132.899 130.176 133.176 130.31 133.387 130.522Z" fill="white"/>
<path d="M131.022 129.935C131.022 129.935 136.398 134.705 132.437 141.38C131.746 142.278 130.922 143.067 129.994 143.72C129.994 143.72 124.713 147.491 122.942 157.973C122.942 157.973 122.376 157.481 122.327 157.179C122.327 157.179 123.073 150 127.994 144.436C128.684 143.604 129.421 142.813 130.203 142.067C130.203 142.067 132.829 139.984 132.74 137.099C132.74 137.099 132.799 133.624 130.138 131.266C130.082 130.973 130.143 130.67 130.308 130.421C130.473 130.172 130.729 129.998 131.022 129.935Z" fill="#CED3F8"/>
<path d="M121.363 102.729C122.313 102.729 123.253 102.916 124.131 103.278C125.008 103.641 125.805 104.172 126.477 104.841L132.584 110.931C133.94 112.283 134.702 114.117 134.702 116.029V124.641C134.702 126.553 133.94 128.387 132.584 129.739L126.477 135.829C125.805 136.498 125.008 137.029 124.131 137.392C123.253 137.754 122.313 137.941 121.363 137.941H112.726C111.776 137.941 110.836 137.754 109.959 137.392C109.081 137.029 108.284 136.498 107.612 135.829L101.505 129.739C100.149 128.387 99.3872 126.553 99.3872 124.641V116.029C99.3872 114.117 100.149 112.283 101.505 110.931L107.612 104.841C108.969 103.489 110.808 102.729 112.726 102.729H121.363Z" fill="#F8F8F8"/>
<path d="M125.487 122.135C125.071 122.121 124.675 121.992 124.26 121.955C124.192 121.95 124.127 121.93 124.067 121.899C124.007 121.867 123.955 121.823 123.913 121.77C123.871 121.717 123.841 121.655 123.824 121.59C123.807 121.525 123.804 121.457 123.815 121.39C123.967 119.975 123.663 118.549 122.946 117.319C122.753 116.954 122.811 116.746 123.169 116.496C123.578 116.217 123.987 115.938 124.374 115.638C124.446 115.6 124.509 115.547 124.556 115.481C124.604 115.416 124.635 115.34 124.649 115.26C124.662 115.18 124.656 115.098 124.632 115.021C124.608 114.944 124.566 114.873 124.51 114.815C124.462 114.749 124.401 114.695 124.33 114.656C124.258 114.617 124.179 114.594 124.098 114.589C124.017 114.585 123.936 114.598 123.861 114.628C123.786 114.659 123.718 114.705 123.663 114.765C123.276 115.087 122.91 115.445 122.535 115.788C122.489 115.85 122.429 115.901 122.359 115.935C122.29 115.97 122.214 115.988 122.137 115.988C122.059 115.988 121.983 115.97 121.914 115.935C121.845 115.901 121.784 115.85 121.738 115.788C120.775 114.873 119.561 114.263 118.251 114.033C117.634 113.926 117.627 113.876 117.598 113.246C117.583 112.817 117.677 112.395 117.684 111.973C117.699 111.84 117.682 111.705 117.635 111.579C117.588 111.454 117.512 111.341 117.413 111.25H116.854C116.754 111.329 116.676 111.433 116.629 111.551C116.581 111.668 116.566 111.797 116.583 111.922C116.579 112.362 116.601 112.802 116.647 113.239C116.734 113.734 116.561 113.94 116.052 114.033C114.816 114.228 113.662 114.769 112.722 115.593C112.256 116.001 112.136 115.986 111.682 115.548C111.373 115.255 111.072 114.947 110.764 114.654C110.712 114.592 110.648 114.541 110.576 114.504C110.504 114.468 110.425 114.447 110.344 114.442C110.263 114.437 110.182 114.449 110.106 114.477C110.03 114.505 109.961 114.548 109.902 114.604C109.845 114.668 109.801 114.744 109.776 114.827C109.75 114.909 109.743 114.996 109.755 115.082C109.766 115.168 109.796 115.25 109.843 115.323C109.889 115.395 109.951 115.457 110.024 115.504C110.354 115.769 110.713 116.012 111.065 116.255C111.567 116.606 111.603 116.77 111.302 117.299C110.648 118.456 110.335 119.773 110.399 121.098C110.417 121.192 110.412 121.289 110.385 121.38C110.358 121.472 110.31 121.556 110.244 121.625C110.178 121.694 110.097 121.747 110.006 121.778C109.916 121.81 109.819 121.82 109.725 121.807C109.251 121.814 108.806 121.957 108.34 121.993C108.181 122.023 108.038 122.11 107.938 122.236V122.88C108.354 123.338 108.806 123.03 109.244 122.93C109.553 122.858 109.854 122.744 110.17 122.665C110.234 122.637 110.303 122.623 110.373 122.625C110.443 122.627 110.512 122.645 110.574 122.677C110.637 122.709 110.691 122.755 110.732 122.812C110.774 122.868 110.803 122.933 110.815 123.001C111.274 124.322 112.137 125.466 113.284 126.271C113.621 126.515 113.657 126.736 113.434 127.115C113.176 127.552 112.918 127.988 112.681 128.439C112.641 128.5 112.614 128.57 112.603 128.642C112.592 128.715 112.596 128.789 112.617 128.86C112.637 128.931 112.673 128.996 112.721 129.052C112.769 129.108 112.829 129.152 112.896 129.183C112.964 129.22 113.038 129.244 113.114 129.252C113.19 129.26 113.268 129.253 113.341 129.231C113.415 129.209 113.483 129.172 113.543 129.124C113.602 129.075 113.65 129.014 113.686 128.946C113.894 128.517 114.066 128.066 114.245 127.623C114.454 127.108 114.626 127.015 115.148 127.179C116.415 127.59 117.78 127.598 119.052 127.201C119.126 127.162 119.208 127.142 119.291 127.141C119.375 127.141 119.457 127.16 119.532 127.198C119.606 127.236 119.67 127.291 119.719 127.359C119.768 127.426 119.8 127.505 119.812 127.587C119.956 127.973 120.113 128.352 120.25 128.746C120.334 129 120.497 129.221 120.716 129.376H121.039C121.52 129.047 121.57 128.868 121.297 128.346C121.089 127.946 120.86 127.552 120.644 127.159C120.595 127.1 120.56 127.031 120.542 126.958C120.523 126.884 120.522 126.807 120.538 126.732C120.554 126.658 120.587 126.588 120.634 126.528C120.681 126.468 120.741 126.419 120.809 126.386C122.017 125.6 122.934 124.442 123.421 123.088C123.565 122.701 123.866 122.766 124.153 122.844C124.562 122.959 124.966 123.109 125.372 123.238C125.523 123.312 125.696 123.332 125.86 123.294C126.025 123.257 126.171 123.163 126.274 123.03V122.472C126.173 122.366 126.051 122.281 125.916 122.223C125.78 122.165 125.634 122.135 125.487 122.135ZM117.128 119.781C117.314 119.788 117.495 119.849 117.646 119.958C117.798 120.066 117.914 120.217 117.98 120.392C118.045 120.566 118.057 120.756 118.015 120.937C117.972 121.118 117.876 121.283 117.74 121.41C117.603 121.537 117.432 121.621 117.248 121.651C117.064 121.681 116.874 121.656 116.704 121.579C116.534 121.502 116.391 121.376 116.293 121.218C116.195 121.06 116.145 120.876 116.152 120.69C116.145 120.563 116.167 120.437 116.215 120.319C116.262 120.202 116.335 120.096 116.428 120.01C116.521 119.923 116.632 119.858 116.753 119.818C116.873 119.779 117.001 119.766 117.128 119.781ZM113.604 116.647C114.316 115.993 115.208 115.567 116.166 115.424C116.575 115.374 116.346 115.767 116.424 115.939C116.345 116.712 116.273 117.463 116.194 118.214C116.166 118.479 116.022 118.586 115.785 118.429C115.053 117.934 114.336 117.427 113.611 116.934C113.475 116.834 113.49 116.748 113.604 116.647ZM111.731 120.877C111.74 119.937 111.966 119.012 112.391 118.173C112.492 117.987 112.572 117.894 112.765 118.087C113.346 118.659 113.941 119.212 114.53 119.775C114.852 120.09 114.817 120.241 114.386 120.369C113.661 120.591 112.937 120.813 112.205 121.035C111.803 121.155 111.732 121.097 111.732 120.876L111.731 120.877ZM115.14 122.695C114.869 123.403 114.587 124.111 114.322 124.819C114.214 125.113 114.071 125.206 113.805 124.977C113.111 124.405 112.561 123.68 112.198 122.859C112.141 122.731 112.04 122.559 112.291 122.523C113.124 122.409 113.956 122.301 114.724 122.194C115.291 122.192 115.312 122.228 115.14 122.692L115.14 122.695ZM118.412 125.98C118.005 126.084 117.589 126.144 117.17 126.16C116.68 126.147 116.193 126.075 115.72 125.945C115.491 125.9 115.39 125.802 115.54 125.566C115.985 124.836 116.423 124.106 116.86 123.369C117.011 123.119 117.176 123.14 117.311 123.376C117.742 124.113 118.158 124.864 118.581 125.602C118.69 125.797 118.635 125.948 118.412 125.977L118.412 125.98ZM118.074 118.052C117.983 117.422 117.93 116.786 117.916 116.149V115.906C117.902 115.376 117.931 115.341 118.448 115.491C119.22 115.706 119.938 116.079 120.557 116.586C120.794 116.786 120.859 116.922 120.543 117.115C119.904 117.508 119.294 117.938 118.67 118.339C118.204 118.636 118.139 118.594 118.075 118.05L118.074 118.052ZM121.985 122.996C121.601 123.808 121.029 124.517 120.315 125.064C120.129 125.199 119.993 125.264 119.892 124.985C119.605 124.198 119.325 123.404 119.031 122.617C118.93 122.347 119.002 122.202 119.318 122.187C119.684 122.245 120.064 122.33 120.452 122.373C120.903 122.418 121.348 122.516 121.793 122.595C122.043 122.643 122.1 122.765 121.985 122.994V122.996ZM121.72 121.043C121.074 120.828 120.435 120.607 119.782 120.399C119.46 120.299 119.431 120.149 119.668 119.927C120.271 119.355 120.873 118.789 121.469 118.217C121.677 118.024 121.799 118.06 121.914 118.31C122.251 118.992 122.437 119.739 122.459 120.499C122.502 121.291 122.495 121.297 121.72 121.04V121.043Z" fill="#5652CC"/>
<path d="M276.534 35.4664C281.635 36.138 286.45 34.1778 291.035 32.1979C295.752 30.1605 300.567 28.2787 305.714 27.7009C309.829 27.2377 314.21 27.778 317.792 29.7411C321.186 31.6009 324.609 35.1987 323.997 39.3188C323.463 42.9235 320.18 46.5249 317.116 48.2129C315.405 49.156 313.613 49.7682 311.772 49.6246C311.018 49.5646 310.278 49.3814 309.584 49.0822C309.33 48.9819 309.161 48.6624 309.258 48.912C309.213 48.7971 309.256 48.4286 309.206 48.8204C309.212 48.7781 309.374 48.0402 309.257 48.4129C309.692 47.0247 311.131 45.9098 312.616 44.9503C314.345 43.88 316.186 43.0006 318.106 42.3276C321.789 40.9908 325.774 40.7116 329.609 41.5218C340.687 44.0906 344.044 57.0502 346.247 66.8488C346.375 67.5745 346.778 68.2232 347.373 68.6605C347.967 69.0978 348.708 69.2901 349.441 69.1975C350.859 68.9829 352.13 67.4942 351.797 66.0131C350.384 59.7291 348.936 53.2602 345.589 47.6728C342.668 42.7935 338.488 38.5919 333 36.7105C328.196 35.1458 323.029 35.0676 318.179 36.486C315.673 37.1648 313.261 38.1547 311.002 39.4326C308.747 40.7296 306.482 42.2071 305.036 44.4306C303.499 46.7941 303.014 49.7529 304.766 52.1547C306.542 54.5885 309.892 55.2912 312.738 55.2056C318.205 55.0407 323.19 51.5158 326.363 47.2591C328.02 45.1166 329.124 42.6016 329.578 39.9346C330.061 36.7109 329.001 33.592 327.254 30.9122C324.325 26.4203 319.347 23.7345 314.216 22.5694C307.653 21.0777 300.866 22.4918 294.645 24.7181C291.534 25.8306 288.56 27.2515 285.489 28.4544C282.813 29.5024 280.045 30.2851 277.152 29.9039C273.562 29.4313 272.957 34.995 276.536 35.4659" fill="#FEF2EB"/>
</svg>
