<svg width="873" height="700" viewBox="0 0 873 700" fill="none" xmlns="http://www.w3.org/2000/svg">
<g clip-path="url(#clip0_1_37)">
<mask id="mask0_1_37" style="mask-type:luminance" maskUnits="userSpaceOnUse" x="0" y="0" width="873" height="700">
<path d="M873 0H0V700H873V0Z" fill="white"/>
</mask>
<g mask="url(#mask0_1_37)">
<g opacity="0.5">
<path d="M333.5 851C508.85 851 651 708.85 651 533.5C651 358.15 508.85 216 333.5 216C158.15 216 16 358.15 16 533.5C16 708.85 158.15 851 333.5 851Z" fill="#1D88FE"/>
<path d="M623 810C828.45 810 995 643.45 995 438C995 232.55 828.45 66 623 66C417.55 66 251 232.55 251 438C251 643.45 417.55 810 623 810Z" fill="#8FC3FF"/>
</g>
</g>
<path d="M598.563 225.853H418.08C407.509 225.853 398.94 234.422 398.94 244.993V377.457C398.94 388.028 407.509 396.597 418.08 396.597H598.563C609.134 396.597 617.703 388.028 617.703 377.457V244.993C617.703 234.422 609.134 225.853 598.563 225.853Z" fill="#CED3F8"/>
<path opacity="0.1" d="M89.7209 586.415C89.7209 579.431 196.667 573.767 328.595 573.767C460.523 573.767 567.469 579.431 567.469 586.415C567.469 593.399 460.527 599.063 328.595 599.063C196.663 599.063 89.7209 593.403 89.7209 586.415Z" fill="black"/>
<path d="M512.857 529.501C513.877 533.145 546.791 546.72 549.799 540.59C552.141 535.819 547.132 533.226 545.241 532.428C542.261 531.176 534.909 528.618 536.162 526.558C538.475 522.835 556.28 531.674 560.751 533.558C565.222 535.442 574.414 537.888 578.837 534.848C583.26 531.808 584.704 530.064 576.699 527.2C568.694 524.336 552.22 520.657 557.649 517.629C563.078 514.601 575.2 520.447 583.371 521.223C591.542 521.999 607.371 520.741 604.371 515.362C601.694 510.55 577.471 511.68 579.119 507.773C580.44 504.642 587.105 506.85 597.903 506.912C608.701 506.974 618.913 506.912 619.542 500.5C620.042 495.347 613.115 496.768 607.292 496.659C601.469 496.55 593.354 496.096 595.37 493.472C597.386 490.848 625.832 494.126 628.502 485.983C630.268 480.595 623.978 481.825 617.202 481.318C610.426 480.811 608.085 480.131 608.636 478.818C609.187 477.505 618.436 476.718 623.523 476.41C628.61 476.102 635.811 473.927 635.689 469.172C635.567 464.417 627.461 465.753 624.581 466.94C621.701 468.127 618.451 468.04 618.104 467.172C617.757 466.304 626.986 461.718 623.874 457.341C620.762 452.964 612.369 458.211 610.283 463.158C608.197 468.105 605.202 474.714 603.395 473.953C601.588 473.192 604.021 467.463 605.895 462.953C607.769 458.443 607.523 456.216 606.321 455.706C602.311 454.015 596.453 458.461 595.05 461.758C593.647 465.055 588.269 484.558 585.605 483.432C582.941 482.306 585.733 475.204 587.271 471.56C588.809 467.916 592.396 459.41 587.928 457.525C583.46 455.64 576.219 466.078 573.718 473.204C571.217 480.33 568.042 492.176 565.982 491.304C563.922 490.432 564.864 480.504 566.733 476.082C568.602 471.66 574.165 464.699 568.665 462.382C563.165 460.065 559.195 466.346 555.516 475.036C553.982 478.668 550.281 487.693 551.28 493.855C552.413 500.868 551.828 504.555 550.209 504.897C546.984 505.583 546.809 499.262 547.709 494.744C548.609 490.226 552.242 476.313 545.029 476.132C537.816 475.951 537.741 487.882 537.237 492.678C536.733 497.474 536.429 514.521 532.698 514.478C528.967 514.435 531.524 505.502 532.022 502.644C532.52 499.786 531.659 493.544 529.148 494.582C526.637 495.62 511.04 523.015 512.856 529.505L512.857 529.501Z" fill="#00B8D4"/>
<path d="M178.887 522.92C158.897 544.25 132.28 537.948 110.672 511.149C132.559 495.51 166.997 493.269 178.887 522.92Z" fill="#0BA6BD"/>
<path d="M178.89 523.787C178.823 523.788 178.755 523.78 178.69 523.765C173.29 522.513 164.023 521.176 154.211 519.765C142.28 518.046 128.755 516.099 118.762 513.817C118.538 513.766 118.344 513.629 118.221 513.435C118.099 513.241 118.058 513.006 118.109 512.782C118.16 512.558 118.297 512.364 118.491 512.241C118.685 512.119 118.92 512.078 119.144 512.129C129.072 514.386 142.559 516.329 154.459 518.04C164.308 519.458 173.61 520.795 179.082 522.066C179.287 522.116 179.466 522.239 179.587 522.412C179.707 522.585 179.761 522.796 179.737 523.006C179.713 523.215 179.614 523.409 179.458 523.551C179.301 523.692 179.099 523.772 178.888 523.775L178.89 523.787Z" fill="#46BED0"/>
<path d="M404.208 487.634C399.462 485.755 395.308 482.293 396.694 479.434C398.003 476.717 402.955 477.7 407.426 479.813C406.236 475.543 406.412 471.291 409.079 470.513C414.317 468.992 418.524 484.432 416.593 488.389C414.884 493.98 400.269 499.412 398.379 494.289C397.467 491.857 400.42 489.384 404.208 487.634Z" fill="#FEDA94"/>
<path d="M438.888 527.946C438.688 527.945 438.494 527.875 438.34 527.747C438.186 527.62 438.081 527.443 438.043 527.246C434.201 507.936 421.732 491.628 416.222 489.183C416.105 489.147 415.996 489.087 415.904 489.006C415.812 488.926 415.738 488.826 415.687 488.715C415.636 488.603 415.61 488.482 415.609 488.359C415.609 488.237 415.635 488.116 415.685 488.004C415.735 487.892 415.808 487.792 415.9 487.71C415.991 487.629 416.099 487.568 416.216 487.531C416.333 487.495 416.457 487.484 416.578 487.499C416.7 487.514 416.817 487.554 416.922 487.618C423.471 490.523 435.913 507.68 439.739 526.924C439.761 527.035 439.762 527.15 439.74 527.262C439.718 527.373 439.674 527.479 439.611 527.574C439.548 527.669 439.466 527.75 439.372 527.813C439.277 527.876 439.171 527.92 439.06 527.942C439.003 527.949 438.945 527.951 438.888 527.946Z" fill="#FFD19B"/>
<path d="M411.228 490.451C411.438 489.599 412.336 488.951 413.194 488.441C411.989 487.759 410.694 486.027 411.607 484.828C412.268 483.97 413.799 484.978 414.979 486.061C414.919 485.501 414.936 484.935 415.029 484.38C415.909 479.894 418.529 486.628 417.189 488.697C416.666 489.407 416.072 490.063 415.417 490.654C413.751 492.213 410.817 492.104 411.228 490.454V490.451Z" fill="#FF9E2C"/>
<path d="M481.785 531.714C505.05 498.014 488.519 463.442 445.409 441.806C430.491 476.416 437.642 524.238 481.785 531.714Z" fill="#00B8D4"/>
<path d="M498.907 535.729C513.934 561.714 542.007 561.586 569.849 539.818C551.594 519.089 517.691 508.836 498.907 535.729Z" fill="#0A94A9"/>
<path d="M486.07 537.96C533.238 535.912 553.525 496.669 543.441 441.991C501.226 452.344 462.236 492.173 486.07 537.96Z" fill="#7FDBE9"/>
<path d="M486.071 538.828C485.931 538.828 485.794 538.794 485.671 538.728C485.57 538.676 485.481 538.604 485.408 538.517C485.335 538.429 485.28 538.329 485.246 538.22C485.212 538.112 485.199 537.997 485.209 537.884C485.22 537.771 485.252 537.661 485.305 537.56C489.505 529.53 497.656 516.722 506.281 503.16C516.706 486.78 528.509 468.218 536.208 453.669C536.321 453.476 536.504 453.334 536.719 453.272C536.934 453.211 537.165 453.235 537.363 453.34C537.56 453.445 537.71 453.622 537.78 453.834C537.85 454.047 537.835 454.278 537.739 454.48C530.022 469.088 518.184 487.68 507.739 504.089C499.13 517.617 490.996 530.389 486.832 538.361C486.76 538.501 486.651 538.619 486.517 538.701C486.383 538.783 486.228 538.827 486.071 538.828Z" fill="#50C5D6"/>
<path d="M155.243 293.231C146.32 294.208 142.52 286.657 140.651 281.96C143.4 281.876 154.558 282.154 155.243 293.231Z" fill="#7FDBE9"/>
<path d="M209.346 352.074C209.186 352.074 209.029 352.03 208.893 351.947C208.756 351.863 208.646 351.744 208.573 351.601C200.236 335.284 181.452 311.412 153.864 293.354C153.693 293.221 153.578 293.028 153.542 292.814C153.505 292.6 153.551 292.381 153.669 292.199C153.787 292.017 153.969 291.885 154.179 291.831C154.389 291.776 154.611 291.802 154.803 291.904C182.703 310.147 201.661 334.294 210.117 350.821C210.182 350.953 210.213 351.099 210.206 351.246C210.2 351.392 210.156 351.535 210.079 351.66C210.002 351.785 209.894 351.889 209.766 351.961C209.638 352.033 209.494 352.072 209.347 352.073L209.346 352.074ZM206.535 338.502C205.104 320.453 217.768 316.352 227.317 312.855C227.339 318.418 228.932 337.791 206.535 338.502ZM196.849 324.088C192.128 310.313 201.163 304.621 207.885 299.981C209.001 304.318 214.12 319.063 196.848 324.088H196.849ZM183.399 310.798C176.68 300.251 183.086 293.664 187.782 288.448C189.591 291.829 196.817 303.125 183.398 310.798H183.399ZM169.391 299.044C163.552 293.91 166.235 288.869 168.139 284.956C169.798 286.644 176.069 292.136 169.391 299.044ZM197.91 342.368C184.839 333.151 176.039 340.937 169.11 346.607C173.31 349.144 187.296 359.065 197.91 342.368Z" fill="#7FDBE9"/>
<path d="M187.086 326.903C177.186 317.295 168.646 322.749 161.962 326.649C165.206 329.354 175.797 339.688 187.086 326.903ZM171.586 310.611C163.268 306.175 158.686 311.369 155.043 315.191C157.689 316.355 166.596 321.143 171.586 310.611ZM160.372 300.37C156.083 296.926 152.905 299.431 150.41 301.225C151.8 302.173 156.405 305.867 160.372 300.37Z" fill="#7FDBE9"/>
<path d="M201.116 530.021C213.564 527.172 227.016 510.704 225.716 498.221C224.416 485.738 212.651 483.763 213.816 476.807C214.981 469.851 227.259 461.153 224.648 451.893C220.008 435.444 194.687 447.785 190.025 436.02C185.363 424.255 199.909 418.266 197.276 406.591C194.643 394.916 174.334 406.306 165.862 394.406C157.39 382.506 134.805 360.525 123.685 375.083C114.897 386.588 132.711 390.996 132.685 397.249C132.66 404.378 123.606 405.43 125.303 413.291C127.695 424.402 142.751 424.491 143.203 433.932C143.655 443.373 131.56 446.455 138.792 456.605C147.743 469.181 166.892 454.105 169.811 474.172C172.73 494.239 147.542 487.249 147.599 499.897C147.662 513.697 172.429 510.911 170.265 520.059C167.316 532.507 181.812 534.432 201.116 530.021Z" fill="#00B8D4"/>
<path d="M204.356 529.856C204.138 529.856 203.928 529.774 203.767 529.625C203.607 529.477 203.509 529.274 203.492 529.056C203.493 527.531 203.671 526.01 204.024 524.526C204.75 520.626 205.652 515.76 203.282 512.442C201.845 510.531 200.266 508.731 198.558 507.057C195.675 504.08 192.691 501.002 190.979 496.757C187.516 488.157 188.966 480.994 190.246 474.67C191.185 470.077 191.974 466.114 190.709 462.479C189.663 459.471 187.578 458.722 184.961 457.805C182.203 456.828 179.082 455.723 176.348 451.882C174.427 449.441 173.537 446.346 173.868 443.257C173.959 440.781 174.053 438.22 170.881 433.757C169.048 431.019 166.271 429.051 163.081 428.228C159.508 427.254 156.365 425.11 154.155 422.139C148.097 414.425 147.934 407.349 147.815 402.181C147.752 399.316 147.699 397.053 146.657 395.738C144.157 392.582 141.21 393.302 141.178 393.312C140.959 393.36 140.73 393.32 140.539 393.203C140.348 393.085 140.211 392.898 140.155 392.681C140.099 392.464 140.129 392.234 140.239 392.038C140.35 391.843 140.531 391.698 140.746 391.634C140.909 391.593 144.816 390.634 148.016 394.665C149.416 396.434 149.475 398.954 149.547 402.144C149.663 407.066 149.816 413.809 155.517 421.069C157.526 423.779 160.396 425.726 163.657 426.592C167.195 427.522 170.271 429.714 172.304 432.756C175.82 437.69 175.71 440.68 175.61 443.316C175.454 444.657 175.564 446.015 175.935 447.312C176.305 448.61 176.929 449.821 177.77 450.877C180.187 454.271 182.914 455.235 185.55 456.168C188.368 457.168 191.038 458.112 192.359 461.907C193.78 465.977 192.894 470.36 191.959 475.007C190.729 481.093 189.332 487.99 192.601 496.107C194.185 500.042 197.05 502.995 199.817 505.853C201.585 507.59 203.221 509.457 204.71 511.438C207.503 515.361 206.485 520.83 205.743 524.844C205.425 526.178 205.255 527.543 205.236 528.914C205.246 529.028 205.233 529.142 205.199 529.251C205.164 529.36 205.109 529.461 205.035 529.548C204.961 529.635 204.871 529.707 204.77 529.759C204.668 529.812 204.558 529.844 204.444 529.853L204.356 529.856Z" fill="#7FDBE9"/>
<path d="M472.393 164.938H471.886C469.968 164.865 468.094 164.341 466.415 163.409C464.737 162.478 463.302 161.164 462.225 159.575C460.224 160.133 458.122 160.231 456.077 159.862C454.033 159.493 452.098 158.666 450.419 157.443C445.131 153.727 442.113 146.799 442.141 138.386C442.142 138.157 442.233 137.937 442.396 137.776C442.559 137.615 442.779 137.524 443.008 137.525C443.237 137.526 443.457 137.618 443.618 137.78C443.779 137.943 443.87 138.163 443.869 138.392C443.844 146.219 446.593 152.64 451.411 156.027C452.95 157.176 454.747 157.931 456.644 158.228C458.542 158.524 460.484 158.352 462.3 157.727C462.49 157.657 462.699 157.657 462.89 157.727C463.081 157.796 463.241 157.93 463.342 158.106C464.238 159.606 465.495 160.859 466.998 161.75C468.502 162.64 470.204 163.141 471.951 163.206C476.151 163.372 482.764 161.24 490.422 150.148C490.485 150.05 490.567 149.965 490.663 149.9C490.759 149.834 490.867 149.788 490.982 149.765C491.096 149.742 491.213 149.743 491.327 149.766C491.442 149.79 491.55 149.836 491.646 149.902C491.741 149.969 491.823 150.053 491.885 150.152C491.947 150.25 491.989 150.36 492.008 150.475C492.027 150.59 492.022 150.708 491.994 150.821C491.967 150.934 491.917 151.041 491.847 151.134C484.036 162.442 477.039 164.938 472.393 164.938Z" fill="#3DEF65"/>
<path d="M469.628 160.474C467.155 160.488 464.73 159.787 462.646 158.455H462.483C458.914 158.455 454.969 156.48 452.064 153.224C447.524 148.124 445.821 140.491 447.264 131.724C447.278 131.608 447.315 131.495 447.373 131.393C447.432 131.292 447.51 131.203 447.604 131.132C447.697 131.062 447.804 131.011 447.918 130.983C448.032 130.955 448.15 130.951 448.266 130.97C448.382 130.989 448.492 131.031 448.591 131.094C448.69 131.157 448.775 131.24 448.841 131.337C448.907 131.434 448.953 131.543 448.976 131.658C448.998 131.773 448.997 131.891 448.973 132.006C447.614 140.243 449.167 147.369 453.356 152.068C456.039 155.083 459.668 156.861 462.856 156.711C463.042 156.703 463.227 156.754 463.382 156.858C464.95 157.892 466.745 158.529 468.614 158.713C470.483 158.898 472.368 158.626 474.108 157.919C480.088 155.728 484.834 149.779 487.122 141.619C487.186 141.4 487.334 141.215 487.534 141.104C487.734 140.993 487.969 140.966 488.189 141.028C488.409 141.09 488.596 141.236 488.708 141.435C488.821 141.633 488.851 141.869 488.791 142.089C486.349 150.796 481.215 157.157 474.703 159.546C473.079 160.152 471.361 160.467 469.628 160.474Z" fill="#3DEF65"/>
<path d="M466.442 157.587C465.364 157.58 464.293 157.414 463.264 157.092C461.11 157.208 458.944 156.012 456.981 153.617C452.645 148.329 449.674 137.087 452.711 126.671C452.738 126.556 452.788 126.448 452.857 126.353C452.927 126.258 453.016 126.178 453.118 126.119C453.219 126.059 453.332 126.021 453.449 126.007C453.566 125.992 453.685 126.002 453.798 126.035C453.912 126.068 454.017 126.124 454.108 126.199C454.199 126.274 454.273 126.367 454.327 126.472C454.381 126.577 454.413 126.692 454.421 126.809C454.428 126.927 454.412 127.045 454.373 127.156C451.499 137.002 454.264 147.575 458.321 152.515C459.933 154.481 461.696 155.489 463.29 155.333C463.404 155.324 463.519 155.337 463.628 155.371C465.075 155.878 466.635 155.966 468.13 155.628C469.625 155.289 470.994 154.536 472.081 153.455C478.064 147.992 480.081 134.984 479.404 131.909C479.36 131.687 479.404 131.456 479.528 131.266C479.652 131.076 479.845 130.943 480.067 130.894C480.288 130.845 480.52 130.885 480.712 131.005C480.904 131.125 481.042 131.316 481.095 131.536C481.94 135.39 479.73 148.814 473.249 154.736C471.438 156.536 468.996 157.559 466.442 157.587Z" fill="#3DEF65"/>
<path d="M463.364 157.083C463.32 157.086 463.276 157.086 463.233 157.083C463.113 157.065 462.998 157.021 462.896 156.955C462.794 156.889 462.707 156.803 462.641 156.701C460.324 152.901 458.457 148.846 457.075 144.616C455.575 140.249 454.702 136.41 454.786 134.598C454.804 134.374 454.909 134.166 455.078 134.018C455.246 133.87 455.466 133.793 455.69 133.803C455.915 133.814 456.126 133.911 456.28 134.074C456.435 134.238 456.519 134.454 456.517 134.679C456.37 137.779 459.729 148.542 463.555 154.9C468.255 150.379 472.991 139.916 473.107 136.072C473.115 135.848 473.209 135.635 473.37 135.479C473.531 135.323 473.746 135.234 473.971 135.233H473.999C474.228 135.24 474.445 135.338 474.603 135.506C474.76 135.673 474.845 135.896 474.838 136.125C474.7 140.668 469.356 152.405 463.915 156.897C463.758 157.02 463.563 157.087 463.364 157.083Z" fill="#3DEF65"/>
<path d="M463.363 157.083C463.175 157.083 462.992 157.022 462.842 156.909C462.692 156.796 462.582 156.638 462.53 156.457C460.57 149.551 458.344 141.724 459.844 129.577C459.882 129.357 460.002 129.16 460.181 129.027C460.36 128.894 460.584 128.835 460.805 128.863C461.026 128.89 461.229 129.002 461.37 129.175C461.511 129.347 461.58 129.568 461.563 129.79C460.107 141.59 462.28 149.238 464.196 155.985C464.259 156.206 464.231 156.443 464.12 156.644C464.008 156.844 463.822 156.993 463.601 157.056C463.523 157.076 463.443 157.085 463.363 157.083Z" fill="#3DEF65"/>
<path d="M462.876 155.351C462.725 155.352 462.578 155.313 462.447 155.238C462.25 155.122 462.107 154.933 462.049 154.712C461.99 154.491 462.021 154.256 462.134 154.058C465.324 148.479 467.678 131.517 466.007 126.11C465.949 125.894 465.976 125.663 466.085 125.467C466.193 125.271 466.373 125.124 466.586 125.058C466.8 124.991 467.032 125.01 467.232 125.111C467.432 125.211 467.586 125.386 467.66 125.597C469.504 131.545 467.134 148.805 463.637 154.916C463.56 155.05 463.45 155.161 463.316 155.237C463.182 155.314 463.03 155.353 462.876 155.351ZM446.776 214.722C446.653 214.722 446.531 214.695 446.419 214.644C446.315 214.597 446.222 214.53 446.145 214.447C446.067 214.364 446.006 214.267 445.967 214.16C445.927 214.054 445.908 213.94 445.912 213.827C445.916 213.713 445.943 213.601 445.99 213.498C452.364 199.513 461.565 164.198 461.728 158.504C461.746 158.283 461.847 158.076 462.013 157.928C462.178 157.779 462.394 157.7 462.616 157.706C462.838 157.712 463.049 157.803 463.206 157.96C463.363 158.118 463.453 158.329 463.459 158.551C463.277 164.985 453.635 200.907 447.564 214.215C447.495 214.366 447.384 214.495 447.245 214.585C447.105 214.675 446.942 214.722 446.776 214.722Z" fill="#3DEF65"/>
<path d="M393.824 220.524C368.252 239.915 340.605 228.183 322.165 195.19C348.742 182.301 386.429 186.227 393.824 220.524Z" fill="#00B8D4"/>
<path d="M401.908 214.009C358.191 205.556 344.708 166.125 361.716 116.518C399.645 132.043 430.488 174.618 401.908 214.009Z" fill="#7FDBE9"/>
<path d="M401.907 214.882C401.727 214.882 401.552 214.826 401.405 214.722C401.259 214.617 401.149 214.47 401.09 214.3C398.316 206.3 392.509 193.265 386.376 179.461C378.909 162.693 370.444 143.689 365.276 128.981C365.2 128.765 365.213 128.527 365.312 128.32C365.411 128.114 365.589 127.955 365.805 127.879C366.021 127.803 366.259 127.816 366.465 127.915C366.672 128.015 366.831 128.192 366.907 128.408C372.057 143.05 380.507 162.019 387.958 178.756C394.122 192.594 399.945 205.661 402.741 213.732C402.815 213.949 402.801 214.186 402.702 214.392C402.602 214.598 402.425 214.756 402.209 214.832C402.112 214.865 402.011 214.881 401.909 214.879L401.907 214.882Z" fill="#00B8D4"/>
<path d="M385.728 176.778C385.556 176.779 385.388 176.727 385.246 176.631C385.056 176.503 384.925 176.304 384.881 176.08C384.837 175.855 384.884 175.622 385.011 175.431L397.299 157.231C397.429 157.046 397.627 156.92 397.849 156.88C398.072 156.839 398.301 156.887 398.489 157.013C398.676 157.14 398.807 157.334 398.853 157.556C398.898 157.777 398.855 158.008 398.733 158.198L386.448 176.398C386.368 176.516 386.261 176.612 386.135 176.679C386.01 176.745 385.87 176.78 385.728 176.78V176.778ZM380.359 164.978C380.261 164.978 380.163 164.961 380.071 164.928L362.519 158.704C362.307 158.625 362.134 158.465 362.038 158.26C361.942 158.054 361.93 157.819 362.006 157.606C362.081 157.392 362.238 157.216 362.442 157.117C362.645 157.017 362.88 157.001 363.095 157.073L380.646 163.291C380.84 163.358 381.004 163.492 381.109 163.668C381.213 163.845 381.251 164.053 381.216 164.256C381.181 164.458 381.075 164.641 380.918 164.772C380.76 164.904 380.56 164.974 380.355 164.972L380.359 164.978ZM372.003 143.878C371.896 143.877 371.79 143.858 371.69 143.819C371.476 143.735 371.304 143.569 371.213 143.358C371.121 143.148 371.117 142.909 371.201 142.695L374.166 135.162C374.26 134.964 374.425 134.81 374.629 134.729C374.832 134.648 375.059 134.647 375.263 134.726C375.467 134.806 375.633 134.959 375.729 135.156C375.824 135.353 375.842 135.579 375.778 135.788L372.813 143.321C372.751 143.486 372.64 143.627 372.495 143.727C372.351 143.827 372.179 143.88 372.003 143.88V143.878ZM392.719 192.52C392.658 192.52 392.597 192.514 392.537 192.501L369.151 187.514C369.035 187.495 368.924 187.453 368.825 187.391C368.725 187.328 368.64 187.245 368.573 187.148C368.507 187.051 368.461 186.942 368.438 186.827C368.415 186.711 368.416 186.593 368.44 186.478C368.465 186.363 368.512 186.254 368.58 186.158C368.648 186.062 368.735 185.981 368.835 185.919C368.935 185.858 369.046 185.817 369.163 185.8C369.279 185.783 369.397 185.79 369.511 185.82L392.898 190.807C393.105 190.853 393.288 190.974 393.412 191.147C393.537 191.319 393.593 191.531 393.571 191.743C393.549 191.954 393.45 192.15 393.293 192.293C393.136 192.437 392.931 192.517 392.719 192.52Z" fill="#00B8D4"/>
<path d="M483.701 521.315L490.648 531.02C496.496 539.188 495.416 551.868 486.61 564.043C474.21 581.181 451.133 590.92 435.153 585.777C430.924 584.52 427.22 581.92 424.602 578.37L417.652 568.665C420.271 572.213 423.973 574.813 428.199 576.072C444.188 581.216 467.267 571.472 479.665 554.342C488.466 542.162 489.543 529.483 483.701 521.315Z" fill="#E19100"/>
<path d="M473.16 513.91C489.127 519.06 492.054 537.193 479.666 554.334C467.278 571.475 444.189 581.208 428.2 576.064C412.211 570.92 409.3 552.796 421.688 535.659C434.076 518.522 457.175 508.759 473.16 513.91Z" fill="#FFD03E"/>
<path d="M468.139 521.615L465.177 525.804C468.89 528.427 469.177 533.897 465.471 539.119L460.512 537.554C462.794 534.342 462.196 530.945 459.178 529.99C456.16 529.035 451.858 530.882 449.585 534.09C448.544 535.402 448.065 537.072 448.251 538.736C448.367 539.428 448.679 540.073 449.151 540.592C449.623 541.112 450.234 541.485 450.912 541.666C456.654 543.488 457.8 549.966 453.442 556.105C449.732 561.346 443.242 564.649 437.842 564.411L435.106 568.274L430.15 566.709L432.883 562.839C429.183 560.2 428.91 554.756 432.62 549.515L437.563 551.08C435.274 554.311 435.863 557.705 438.884 558.659C441.905 559.613 446.207 557.759 448.492 554.536C450.777 551.313 450.17 547.927 447.152 546.978C445.864 546.623 444.704 545.906 443.811 544.913C442.918 543.919 442.328 542.69 442.112 541.371C441.63 538.638 442.531 535.52 444.645 532.533C448.345 527.308 454.832 523.977 460.227 524.233L463.189 520.047L468.139 521.615Z" fill="#FFE357"/>
<path opacity="0.35" d="M483.131 520.623C480.555 517.437 477.081 515.098 473.16 513.911C457.174 508.761 434.085 518.519 421.688 535.66C416.961 542.194 414.488 548.868 414.088 554.92L483.131 520.623Z" fill="white"/>
<path d="M492.249 529.858C504.872 527.541 520.144 537.403 526.277 551.839C532.41 566.275 527.135 579.906 514.515 582.223C501.895 584.54 486.62 574.681 480.484 560.245C474.348 545.809 479.621 532.178 492.249 529.858Z" fill="#FCBA06"/>
<path d="M497.529 534.908L499.019 538.408C503.011 538.759 507.219 541.933 509.084 546.316L505.202 547.03C504.056 544.33 501.207 542.491 498.843 542.922C496.479 543.353 495.509 545.899 496.651 548.598C497.219 549.916 498.164 551.036 499.368 551.817C500.421 552.558 501.715 552.871 502.99 552.693C507.49 551.867 512.927 555.379 515.115 560.52C516.975 564.903 515.882 569.054 512.739 570.698L514.116 573.932L510.234 574.643L508.86 571.409C504.887 571.074 500.67 567.887 498.81 563.509L502.689 562.798C503.832 565.484 506.684 567.325 509.032 566.893C511.38 566.461 512.379 563.916 511.224 561.226C510.069 558.536 507.224 556.69 504.865 557.126C502.43 557.468 499.956 556.873 497.943 555.46C495.645 553.967 493.841 551.826 492.759 549.308C490.88 544.925 491.992 540.774 495.12 539.121L493.63 535.621L497.529 534.908Z" fill="#FFE357"/>
<path opacity="0.35" d="M508.518 532.77C503.196 530.059 497.498 528.894 492.238 529.858C479.612 532.178 474.338 545.825 480.473 560.245C482.629 565.234 485.81 569.714 489.809 573.394L507.529 543.542C507.136 539.921 507.472 536.259 508.518 532.77Z" fill="white"/>
<path d="M514.509 582.222C502.59 584.413 488.321 575.741 481.596 562.622L475.065 566.614C481.518 580.389 496.285 589.647 508.565 587.393C511.604 586.871 514.445 585.536 516.786 583.529L522.734 578.36C520.393 580.369 517.55 581.704 514.509 582.222Z" fill="#E19100"/>
<path d="M480.483 560.246C475.925 549.53 477.665 539.27 484.027 533.722L478.079 538.894C471.714 544.426 469.979 554.701 474.535 565.417C474.707 565.817 474.889 566.217 475.073 566.617L481.604 562.625C481.2 561.833 480.824 561.053 480.483 560.246Z" fill="#ED9F00"/>
<path d="M588.563 215.853H408.08C397.509 215.853 388.94 224.422 388.94 234.993V367.457C388.94 378.028 397.509 386.597 408.08 386.597H588.563C599.134 386.597 607.703 378.028 607.703 367.457V234.993C607.703 224.422 599.134 215.853 588.563 215.853Z" fill="white"/>
<path d="M590.283 245.454H598.617V297.593H590.283V245.454Z" fill="#5652CC"/>
<path d="M580.165 279.475H588.499V326.198H580.165V279.475Z" fill="#807DFB"/>
<path d="M570.046 323.744H578.38V336.561H570.046V323.744Z" fill="#ED9F00"/>
<path d="M559.927 314.029H568.261V328.349H559.927V314.029ZM549.809 294.644H558.143V314.029H549.809V294.644Z" fill="#FCBA06"/>
<path d="M539.688 254.499H548.022V301.222H539.688V254.499Z" fill="#5652CC"/>
<path d="M529.569 277.86H537.903V324.583H529.569V277.86ZM519.451 316.337H527.785V342.504H519.451V316.337ZM509.334 326.665H517.668V363.865H509.334V326.665ZM499.215 306.478H507.549V339.698H499.215V306.478Z" fill="#807DFB"/>
<path d="M489.095 297.458H497.429V315.538H489.095V297.458ZM478.977 291.469H487.311V300.705H478.977V291.469Z" fill="#FCBA06"/>
<path d="M468.858 263.196H477.192V292.177H468.858V263.196Z" fill="#807DFB"/>
<path d="M458.741 231.309H467.075V274.441H458.741V231.309ZM448.622 241.838H456.956V296.087H448.622V241.838Z" fill="#5652CC"/>
<path d="M438.503 271.523H446.837V340.823H438.503V271.523ZM428.385 324.604H436.719V351.504H428.385V324.604Z" fill="#807DFB"/>
<path d="M418.266 345.174H426.6V359.867H418.266V345.174Z" fill="#FCBA06"/>
<path d="M408.147 357.427H416.481V368.535H408.147V357.427Z" fill="#ED9F00"/>
<path d="M398.028 346.714H406.362V365.868H398.028V346.714Z" fill="#FCBA06"/>
<path d="M213.86 537.933C213.86 511.156 226.26 489.448 241.56 489.448H189.622C174.322 489.448 161.915 511.156 161.915 537.933C161.915 564.71 174.315 586.415 189.622 586.415H241.564C226.264 586.415 213.86 564.707 213.86 537.933Z" fill="#DDE2F8"/>
<path d="M241.565 586.419C256.865 586.419 269.269 564.711 269.269 537.933C269.269 511.155 256.865 489.447 241.565 489.447C226.264 489.447 213.861 511.155 213.861 537.933C213.861 564.711 226.264 586.419 241.565 586.419Z" fill="#BBC0E6"/>
<path d="M241.564 577.113C253.93 577.113 263.955 559.571 263.955 537.932C263.955 516.293 253.93 498.751 241.564 498.751C229.198 498.751 219.173 516.293 219.173 537.932C219.173 559.571 229.198 577.113 241.564 577.113Z" fill="#5652CC"/>
<path d="M219.702 529.523H263.438C261.247 511.923 252.286 498.748 241.57 498.748C230.854 498.748 221.903 511.925 219.702 529.523Z" fill="#423EAF"/>
<path d="M241.561 489.447H189.619C174.814 489.447 162.726 509.762 161.953 535.331C162.861 535.331 163.932 534.031 165.231 528.985C166.53 523.939 169.273 519.749 173.747 519.749H205.347C211.847 519.749 215.447 517.73 218.221 511.825C223.149 498.37 231.759 489.447 241.561 489.447Z" fill="#F6F6FB"/>
<path d="M189.615 586.415H241.557C233.157 586.415 225.637 579.862 220.557 569.531H168.615C173.696 579.862 181.215 586.415 189.615 586.415ZM282.315 549.475H251.815C243.879 549.475 229.452 541.795 229.452 514.611C229.452 496.14 230.761 485.182 233.487 475.593H315.449C317.609 482.791 326.253 549.475 282.323 549.475H282.315Z" fill="#DDE2F8"/>
<path d="M270.859 549.475H282.324C326.254 549.475 317.61 482.791 315.447 475.59H293.585C307.654 535.321 276.701 549.475 270.859 549.475Z" fill="#CED3F8"/>
<path d="M239.682 475.593H233.482C230.755 485.193 229.446 496.137 229.446 514.611C229.446 523.668 231.052 530.546 233.482 535.711C231.896 527.137 232.55 495.495 239.682 475.593Z" fill="#F6F6FB"/>
<path d="M336.657 537.933C336.657 511.156 349.057 489.448 364.364 489.448H312.416C297.116 489.448 284.709 511.156 284.709 537.933C284.709 564.71 297.109 586.415 312.416 586.415H364.364C349.061 586.415 336.657 564.707 336.657 537.933Z" fill="#DDE2F8"/>
<path d="M364.364 586.419C379.664 586.419 392.068 564.711 392.068 537.933C392.068 511.155 379.664 489.447 364.364 489.447C349.063 489.447 336.66 511.155 336.66 537.933C336.66 564.711 349.063 586.419 364.364 586.419Z" fill="#BBC0E6"/>
<path d="M364.364 577.113C376.73 577.113 386.755 559.571 386.755 537.932C386.755 516.293 376.73 498.751 364.364 498.751C351.998 498.751 341.973 516.293 341.973 537.932C341.973 559.571 351.998 577.113 364.364 577.113Z" fill="#5652CC"/>
<path d="M364.363 489.447H312.415C297.615 489.447 285.522 509.762 284.749 535.331C285.649 535.331 286.728 534.031 288.027 528.985C289.326 523.939 292.066 519.749 296.539 519.749H328.139C334.632 519.749 338.239 517.73 341.009 511.825C345.948 498.37 354.558 489.447 364.363 489.447Z" fill="#F6F6FB"/>
<path d="M312.416 586.415H364.364C355.964 586.415 348.441 579.863 343.364 569.531H291.415C296.493 579.863 304.016 586.415 312.416 586.415Z" fill="#DDE2F8"/>
<path d="M342.496 529.523H386.229C384.038 511.923 375.077 498.748 364.364 498.748C353.651 498.748 344.694 511.925 342.496 529.523Z" fill="#423EAF"/>
<path d="M237.573 471.915H310.948V475.594H237.573V471.915Z" fill="#807DFB"/>
<path d="M285.826 471.915H310.95V475.594H285.826V471.915Z" fill="#5652CC"/>
<path d="M237.573 471.915H249.454V475.594H237.573V471.915Z" fill="#9F9CFF"/>
<path d="M321 342.334H226.032C208.716 342.334 201.738 353.292 201.738 364.215C201.738 429.744 211.024 471.915 226.032 471.915H320.999C336.008 471.915 345.29 420.036 345.29 364.215C345.291 353.295 338.3 342.334 321 342.334Z" fill="#DDE2F8"/>
<path d="M291.415 471.915H321C336.009 471.915 345.291 420.036 345.291 364.215C345.291 354.071 339.264 343.903 324.537 342.503C302.218 342.334 303.279 370.636 303.661 390.312C304.096 412.766 311.961 434.18 307.418 450.197C304.375 460.904 300.488 468.38 291.415 471.915Z" fill="#CED3F8"/>
<path d="M321 342.334H226.032C208.716 342.334 201.738 353.292 201.738 364.215C201.738 421.301 208.785 460.641 220.522 469.849C205.97 437.915 207.06 378.914 207.486 369.979C207.912 361.044 215.626 355.042 224.586 355.042H300.631C311.382 355.042 307.772 342.519 324.531 342.519C323.358 342.394 322.179 342.332 321 342.334Z" fill="#F6F6FB"/>
<path d="M251.99 404.983C250.621 404.972 249.304 404.451 248.299 403.521C247.272 402.609 246.619 401.35 246.464 399.986C246.38 399.354 246.433 398.711 246.62 398.101C246.807 397.491 247.125 396.929 247.55 396.453C247.974 395.977 248.497 395.599 249.082 395.344C249.667 395.09 250.3 394.964 250.938 394.977C252.307 395.009 253.619 395.533 254.634 396.452C255.649 397.372 256.298 398.626 256.464 399.986H261.003C260.728 397.791 259.792 395.731 258.32 394.079C256.848 392.427 254.909 391.261 252.76 390.735L252.384 387.153H247.844L248.223 390.735C246.218 391.231 244.467 392.45 243.305 394.157C242.143 395.863 241.651 397.939 241.923 399.986C242.239 402.577 243.479 404.967 245.414 406.719C247.35 408.47 249.851 409.465 252.461 409.522C253.83 409.554 255.142 410.077 256.157 410.997C257.172 411.917 257.821 413.172 257.987 414.531C258.072 415.164 258.019 415.807 257.832 416.417C257.645 417.027 257.328 417.59 256.903 418.065C256.478 418.541 255.955 418.92 255.37 419.174C254.784 419.429 254.151 419.554 253.513 419.54C252.144 419.508 250.832 418.985 249.817 418.065C248.802 417.145 248.153 415.891 247.987 414.531H243.451C243.725 416.726 244.66 418.786 246.132 420.438C247.603 422.09 249.542 423.256 251.691 423.782L252.039 427.082H256.585L256.237 423.782C258.241 423.285 259.992 422.066 261.154 420.36C262.316 418.653 262.809 416.578 262.537 414.531C262.214 411.94 260.972 409.551 259.036 407.799C257.1 406.047 254.6 405.048 251.99 404.983Z" fill="#CED3F8"/>
<path d="M418.178 315.131C419.991 307.645 421.916 285.978 427.11 287.421C432.304 288.864 427.46 307.057 428.478 307.667C430.645 308.967 442.332 283.667 447.817 287.709C453.302 291.751 437.57 312.909 439.017 314.009C440.464 315.109 452.582 301.746 455.469 304.967C458.356 308.188 446.058 323.936 434.459 328.037L418.178 315.131Z" fill="#E9EDF7"/>
<path d="M434.455 328.058C444.035 324.67 454.085 313.344 455.666 307.686C449.452 319.11 434.452 323.146 431.656 325.813V325.835L434.455 328.058ZM440.601 304.988C438.582 307.972 435.695 314.03 439.014 314.03C437.571 312.922 453.299 291.758 447.814 287.73C448.681 293.923 442.62 302.004 440.6 304.987L440.601 304.988ZM427.073 299.08C426.425 302.436 425.99 308.497 428.479 307.68C427.461 307.054 432.308 288.88 427.111 287.434C428.716 289.036 427.726 295.72 427.072 299.079L427.073 299.08Z" fill="#CED3F8"/>
<path d="M237.059 441.963C244.335 439.433 263.598 429.327 265.198 434.477C266.798 439.627 248.874 445.397 248.918 446.584C248.996 449.11 276.597 445.247 276.155 452.044C275.713 458.841 249.419 457.053 249.268 458.882C249.117 460.711 266.919 463.65 265.773 467.82C264.627 471.99 244.728 470.174 235.001 462.639L237.059 441.963Z" fill="white"/>
<path d="M235.005 462.639C243.042 468.863 258.005 471.183 263.617 469.452C250.646 470.41 239.138 459.978 235.378 459.07H235.359C235.234 460.328 235.115 461.531 235.005 462.639ZM257.734 455.322C254.134 455.237 247.475 456.089 249.281 458.882C249.431 457.069 275.739 458.841 276.168 452.045C271.409 456.13 261.334 455.407 257.734 455.322ZM255.377 440.752C252.206 442.004 246.877 444.938 248.912 446.585C248.874 445.398 266.795 439.629 265.192 434.479C264.728 436.698 258.551 439.481 255.377 440.752Z" fill="#E9EDF7"/>
<path d="M320.596 375.382C322.996 382.376 334.337 392.801 344.183 397.163C344.737 389.114 345.083 380.742 345.225 372.22L320.596 375.382Z" fill="#CED3F8"/>
<path d="M418.177 315.131C405.972 330.751 389.987 343.003 371.733 350.731C357.185 356.821 341.576 359.97 325.805 359.998C322.527 359.998 319.857 364.65 319.857 370.389C319.857 376.128 322.515 380.777 325.805 380.777C344.344 380.744 362.693 377.041 379.794 369.882C401.272 360.807 420.084 346.409 434.453 328.046L418.177 315.131Z" fill="#807DFB"/>
<path d="M329.995 377.435C323.514 377.779 321.451 375.816 320.174 373.678C320.957 377.814 323.179 380.797 325.809 380.797C344.348 380.764 362.697 377.061 379.798 369.902C401.276 360.827 420.088 346.429 434.457 328.066L432.112 326.206C400.74 365.386 359.074 375.883 329.995 377.435Z" fill="#423EAF"/>
<path d="M330.214 378.41C327.972 374.437 329.021 364.341 330.214 364.125C331.407 363.909 328.896 375.364 333.345 378.41C332.853 378.633 332.32 378.749 331.779 378.749C331.239 378.749 330.706 378.633 330.214 378.41ZM341.093 377.471C338.593 373.664 338.92 363.52 340.093 363.22C341.266 362.92 339.564 374.52 344.222 377.252C343.746 377.51 343.221 377.663 342.681 377.701C342.141 377.738 341.6 377.66 341.093 377.471ZM351.793 375.533C349 371.933 348.572 361.789 349.717 361.401C350.862 361.013 350.049 372.712 354.898 375.079C354.444 375.372 353.932 375.564 353.397 375.642C352.862 375.721 352.316 375.683 351.797 375.533H351.793ZM363.583 372.546C360.371 369.309 358.705 359.297 359.795 358.771C360.885 358.245 361.507 369.957 366.611 371.713C366.195 372.059 365.711 372.312 365.189 372.455C364.668 372.599 364.122 372.629 363.588 372.544L363.583 372.546ZM375.189 368.536C371.517 365.836 368.336 356.188 369.331 355.506C370.326 354.824 372.731 366.295 378.056 367.249C377.698 367.655 377.257 367.98 376.764 368.202C376.27 368.424 375.734 368.538 375.193 368.536H375.189ZM386.228 363.862C382.286 361.57 378.088 352.328 378.999 351.539C379.91 350.75 383.551 361.899 388.936 362.271C388.625 362.714 388.223 363.084 387.757 363.359C387.29 363.633 386.771 363.804 386.233 363.861L386.228 363.862ZM396.672 358.289C392.436 356.602 386.923 348.077 387.715 347.162C388.507 346.247 393.735 356.742 399.115 356.322C398.872 356.805 398.529 357.23 398.108 357.57C397.688 357.909 397.199 358.154 396.676 358.289H396.672ZM406.412 351.502C402.092 350.046 396.112 341.841 396.857 340.882C397.602 339.923 403.397 350.115 408.757 349.401C408.54 349.898 408.218 350.343 407.814 350.705C407.411 351.067 406.934 351.339 406.416 351.501L406.412 351.502ZM416.365 343.744C411.926 342.702 405.21 335.088 405.858 334.064C406.506 333.04 413.234 342.645 418.49 341.434C418.321 341.949 418.044 342.421 417.678 342.82C417.311 343.218 416.864 343.533 416.365 343.744ZM424.439 335.955C420 334.912 413.284 327.299 413.932 326.278C414.58 325.257 421.308 334.859 426.564 333.648C426.395 334.162 426.118 334.634 425.751 335.032C425.384 335.43 424.938 335.745 424.439 335.955Z" fill="#423EAF"/>
<path d="M202.784 420.051C200.993 414.729 201.084 408.851 202.969 402.638C202.193 391.367 201.769 378.96 201.745 365.538C190.19 378.374 174.617 401.538 183.098 426.69C189.491 445.637 210.022 460.151 235.005 462.634L237.059 441.971C219.872 440.254 206.669 431.563 202.784 420.051Z" fill="#807DFB"/>
<path d="M225.216 458.065C223.964 453.682 227.301 444.102 228.51 444.165C229.719 444.228 224.637 454.809 228.269 458.788C227.738 458.893 227.191 458.882 226.665 458.758C226.138 458.633 225.643 458.397 225.216 458.065ZM213.41 455.172C212.652 450.672 217.067 441.535 218.26 441.735C219.453 441.935 213.207 451.86 216.36 456.235C215.821 456.278 215.279 456.205 214.77 456.022C214.261 455.839 213.798 455.549 213.41 455.172ZM202.11 449.606C202.235 445.048 208.331 436.933 209.464 437.359C210.597 437.785 202.551 446.319 204.802 451.222C204.264 451.16 203.746 450.983 203.283 450.704C202.819 450.424 202.42 450.049 202.114 449.603L202.11 449.606ZM199.31 400.09C195.553 397.49 185.416 397.59 185.087 398.744C184.758 399.898 196.401 398.494 199.012 403.215C199.283 402.746 199.451 402.225 199.503 401.686C199.556 401.147 199.493 400.603 199.318 400.09H199.31ZM202.181 396.311C200.631 392.022 192.291 386.233 191.349 386.994C190.407 387.755 200.741 393.324 200.134 398.694C200.627 398.467 201.065 398.136 201.42 397.725C201.774 397.314 202.036 396.832 202.189 396.311H202.181ZM197.881 408.483C193.517 407.159 183.89 410.361 183.937 411.589C183.984 412.817 194.622 407.863 198.564 411.548C198.677 411.019 198.676 410.471 198.559 409.943C198.443 409.414 198.215 408.916 197.891 408.483H197.881ZM199.722 417.274C195.186 416.829 186.373 421.874 186.654 423.047C186.935 424.22 196.403 417.302 200.99 420.147C200.997 419.606 200.888 419.07 200.671 418.575C200.455 418.08 200.134 417.636 199.732 417.275L199.722 417.274ZM192.477 441.352C193.006 436.822 199.806 429.283 200.896 429.812C201.986 430.341 193.21 438.578 195.01 443.672C194.439 443.506 193.915 443.21 193.477 442.808C193.04 442.405 192.701 441.908 192.487 441.353L192.477 441.352Z" fill="#423EAF"/>
<path d="M235.36 459.066C222.837 457.122 196.201 454.016 184 429.086C191.257 446.853 211.071 460.262 235.006 462.638L235.36 459.066ZM206.999 427.634C205.163 425.371 203.737 422.805 202.785 420.051C200.994 414.729 201.085 408.851 202.97 402.638C202.707 398.8 202.485 394.811 202.306 390.719C202.305 390.728 202.305 390.738 202.306 390.747C192.337 416.072 202.077 423.213 206.998 427.633L206.999 427.634Z" fill="#423EAF"/>
<path d="M510.268 623.398L500.563 625.37C500.19 625.445 499.843 625.618 499.557 625.869C499.271 626.121 499.057 626.443 498.935 626.804L495.804 636.196C495.683 636.557 495.659 636.944 495.735 637.317C495.811 637.69 495.983 638.037 496.236 638.322L502.811 645.745C503.063 646.03 503.385 646.243 503.746 646.364C504.106 646.485 504.492 646.509 504.865 646.434L514.57 644.465C514.943 644.389 515.29 644.216 515.575 643.964C515.86 643.712 516.074 643.389 516.195 643.028L519.344 633.636C519.465 633.275 519.489 632.888 519.413 632.515C519.337 632.142 519.164 631.795 518.912 631.51L512.338 624.087C512.085 623.8 511.76 623.584 511.396 623.463C511.033 623.342 510.643 623.32 510.268 623.398Z" fill="#BDA0FD"/>
<path d="M606.807 133.339L610.986 148.176C611.087 148.543 611.284 148.877 611.555 149.145C611.827 149.412 612.164 149.603 612.533 149.698C612.902 149.793 613.29 149.789 613.657 149.687C614.024 149.585 614.357 149.387 614.624 149.115L625.394 138.089C625.659 137.817 625.848 137.479 625.942 137.111C626.036 136.742 626.032 136.355 625.929 135.989C625.826 135.623 625.629 135.29 625.357 135.024C625.085 134.758 624.748 134.568 624.38 134.473L609.421 130.65C609.053 130.558 608.667 130.565 608.302 130.669C607.937 130.773 607.606 130.971 607.341 131.243C607.077 131.515 606.888 131.852 606.794 132.22C606.701 132.588 606.705 132.974 606.807 133.339Z" fill="#DECFFE"/>
<path d="M142.402 222.462L131.873 233.717C131.612 233.995 131.429 234.336 131.343 234.707C131.256 235.078 131.269 235.465 131.379 235.829C131.49 236.194 131.694 236.522 131.972 236.783C132.25 237.043 132.592 237.225 132.963 237.311L147.99 240.802C148.361 240.889 148.748 240.876 149.112 240.765C149.476 240.655 149.805 240.45 150.064 240.172C150.324 239.894 150.507 239.553 150.592 239.182C150.678 238.811 150.665 238.424 150.554 238.06L146.074 223.308C145.964 222.941 145.76 222.61 145.48 222.348C145.201 222.085 144.857 221.902 144.484 221.816C144.111 221.73 143.721 221.745 143.356 221.859C142.99 221.972 142.661 222.181 142.402 222.463V222.462Z" fill="#FEDA94"/>
<path d="M249.08 300.062C249.08 300.062 245.657 309.404 250.18 315.485C250.18 315.485 264.492 327.791 260.039 342.619C259.571 343.032 259.018 343.336 258.42 343.51C257.821 343.683 257.191 343.723 256.575 343.625C255.959 343.527 255.373 343.294 254.858 342.942C254.342 342.591 253.911 342.13 253.595 341.593C253.595 341.593 257.529 332.578 248.139 323.193C248.139 323.193 238.054 316.279 242.065 299.101C242.068 299.097 246.783 296.138 249.08 300.062Z" fill="#DDE2F8"/>
<path d="M243.712 298.343C243.712 298.343 239.865 311.417 247.263 320.407C247.263 320.407 258.215 328.762 255.687 339.638L253.98 339.824C253.98 339.824 256.125 330.717 247.51 322.683C247.51 322.683 237.71 314.875 242.51 297.898L243.712 298.343Z" fill="#CED3F8"/>
<path d="M288.582 300.355C288.582 300.355 292.032 309.609 287.568 315.665C287.568 315.665 273.413 327.948 277.915 342.641C278.382 343.049 278.933 343.348 279.529 343.518C280.125 343.688 280.751 343.724 281.362 343.624C281.974 343.524 282.556 343.289 283.066 342.938C283.576 342.586 284.003 342.127 284.315 341.591C284.315 341.591 280.359 332.665 289.639 323.302C289.639 323.302 299.622 316.39 295.548 299.364C295.542 299.364 290.842 296.45 288.582 300.355Z" fill="#DDE2F8"/>
<path d="M294.111 298.502L295.76 299.248C295.76 299.248 299.528 307.569 293.697 319.171C292.92 320.117 292.059 320.991 291.125 321.781C291.125 321.781 281.915 328.758 283.998 340.604L282.231 340.996C282.231 340.996 280.152 327.996 291.361 319.504C291.361 319.504 298.09 313.412 294.111 298.502Z" fill="#CED3F8"/>
<path d="M283.477 230.947C287.726 230.947 291.802 232.635 294.807 235.64L308.339 249.172C309.827 250.66 311.007 252.426 311.812 254.37C312.617 256.314 313.032 258.398 313.032 260.502V279.639C313.032 283.889 311.344 287.964 308.339 290.969L294.807 304.501C293.319 305.989 291.553 307.169 289.609 307.974C287.665 308.78 285.581 309.194 283.477 309.194H264.34C262.236 309.194 260.152 308.78 258.208 307.974C256.264 307.169 254.498 305.989 253.01 304.501L239.478 290.969C236.473 287.964 234.785 283.889 234.785 279.639V260.503C234.785 258.399 235.199 256.315 236.005 254.371C236.81 252.427 237.99 250.661 239.478 249.173L253.01 235.641C256.015 232.636 260.09 230.948 264.34 230.948L283.477 230.947Z" fill="#CED3F8"/>
<path d="M237.417 290.151C237.417 290.151 225.568 302.125 236.66 318.851C236.66 318.851 252.523 334.434 252.569 350.925C252.569 350.925 252.546 352.712 256.9 352.152C256.9 352.152 260.471 351.445 259.258 348.772C259.258 348.772 258.024 330.296 242.123 314.68C242.123 314.68 234.442 306.68 241.053 295.68C241.053 295.68 244.324 292.24 241.091 289.843C240.532 289.478 239.867 289.31 239.201 289.366C238.536 289.422 237.908 289.698 237.417 290.151Z" fill="white"/>
<path d="M241.66 290.323C242.157 290.791 242.464 291.426 242.521 292.107C242.579 292.787 242.382 293.465 241.97 294.009C241.97 294.009 233.957 304.839 241.554 314.197C241.554 314.197 250.946 324.624 254.035 330.649C254.035 330.649 259.335 340.625 259.435 350.878C259.435 350.878 258.46 352.189 257.425 352.108C257.425 352.108 258.677 343.244 251.98 331.352C248.65 325.58 244.651 320.22 240.068 315.383C240.068 315.383 231.768 306.083 240.876 293.571C241.332 292.545 241.597 291.444 241.66 290.323Z" fill="#CED3F8"/>
<path d="M304.36 290.516C304.36 290.516 315.624 302.897 303.908 319.176C303.908 319.176 287.508 334.138 286.767 350.587C286.767 350.587 286.715 352.371 282.415 351.652C282.415 351.652 278.898 350.815 280.215 348.193C280.215 348.193 282.215 329.807 298.659 314.814C298.659 314.814 306.621 307.114 300.518 295.897C300.518 295.897 297.418 292.345 300.725 290.073C301.293 289.729 301.96 289.586 302.619 289.666C303.278 289.747 303.891 290.046 304.36 290.516Z" fill="white"/>
<path d="M299.119 289.212C299.119 289.212 311.032 299.812 302.255 314.645C300.723 316.642 298.898 318.395 296.841 319.845C296.841 319.845 285.141 328.226 281.216 351.519C281.216 351.519 279.961 350.425 279.853 349.754C279.853 349.754 281.507 333.802 292.411 321.437C293.939 319.589 295.572 317.83 297.304 316.171C297.304 316.171 303.124 311.542 302.926 305.131C302.926 305.131 303.057 297.41 297.16 292.169C297.036 291.518 297.172 290.844 297.538 290.292C297.904 289.74 298.471 289.352 299.119 289.212Z" fill="#CED3F8"/>
<path d="M277.718 228.755C279.822 228.755 281.906 229.17 283.85 229.975C285.794 230.78 287.56 231.96 289.048 233.448L302.58 246.98C305.585 249.985 307.273 254.061 307.273 258.31V277.447C307.273 281.697 305.585 285.772 302.58 288.777L289.048 302.309C287.56 303.797 285.794 304.977 283.85 305.782C281.906 306.588 279.822 307.002 277.718 307.002H258.58C256.476 307.002 254.392 306.588 252.448 305.782C250.504 304.977 248.738 303.797 247.25 302.309L233.718 288.777C230.713 285.772 229.025 281.697 229.025 277.447V258.31C229.025 254.061 230.713 249.985 233.718 246.98L247.25 233.448C250.255 230.443 254.33 228.755 258.58 228.755H277.718Z" fill="#F8F8F8"/>
<path d="M286.855 271.879C285.933 271.847 285.055 271.561 284.136 271.479C283.986 271.467 283.841 271.424 283.709 271.353C283.577 271.282 283.461 271.185 283.368 271.067C283.276 270.949 283.208 270.813 283.171 270.668C283.133 270.523 283.126 270.371 283.15 270.223C283.487 267.08 282.813 263.91 281.226 261.176C280.797 260.365 280.926 259.904 281.719 259.348C282.625 258.728 283.532 258.108 284.39 257.44C284.549 257.357 284.687 257.238 284.793 257.092C284.898 256.947 284.968 256.779 284.997 256.601C285.027 256.424 285.014 256.242 284.961 256.07C284.907 255.899 284.814 255.742 284.69 255.612C284.585 255.466 284.448 255.345 284.291 255.259C284.133 255.172 283.958 255.122 283.778 255.111C283.599 255.1 283.419 255.13 283.252 255.197C283.085 255.265 282.936 255.369 282.814 255.501C281.956 256.216 281.145 257.011 280.314 257.775C280.212 257.913 280.078 258.024 279.925 258.101C279.772 258.178 279.603 258.218 279.431 258.218C279.26 258.218 279.091 258.178 278.938 258.101C278.784 258.024 278.651 257.913 278.549 257.775C276.414 255.742 273.726 254.385 270.822 253.875C269.455 253.637 269.439 253.525 269.375 252.126C269.343 251.172 269.55 250.234 269.566 249.296C269.598 249 269.561 248.701 269.456 248.422C269.352 248.143 269.184 247.892 268.966 247.69H267.726C267.505 247.866 267.333 248.096 267.228 248.358C267.123 248.62 267.088 248.904 267.126 249.184C267.118 250.161 267.166 251.138 267.269 252.11C267.46 253.21 267.078 253.668 265.949 253.875C263.211 254.309 260.653 255.511 258.572 257.341C257.538 258.247 257.272 258.215 256.267 257.241C255.583 256.589 254.915 255.905 254.232 255.254C254.118 255.116 253.976 255.003 253.816 254.922C253.656 254.841 253.481 254.794 253.302 254.783C253.123 254.773 252.944 254.8 252.776 254.861C252.607 254.923 252.454 255.019 252.324 255.143C252.196 255.286 252.1 255.455 252.043 255.638C251.987 255.822 251.971 256.015 251.996 256.205C252.022 256.396 252.089 256.578 252.192 256.74C252.295 256.902 252.432 257.039 252.594 257.143C253.325 257.731 254.12 258.272 254.899 258.812C256.012 259.591 256.092 259.957 255.424 261.133C253.975 263.702 253.282 266.629 253.424 269.575C253.464 269.783 253.453 269.998 253.394 270.202C253.334 270.405 253.227 270.591 253.081 270.745C252.935 270.899 252.754 271.016 252.554 271.086C252.354 271.156 252.14 271.178 251.93 271.149C250.881 271.165 249.895 271.483 248.861 271.562C248.509 271.63 248.193 271.822 247.971 272.103V273.534C248.893 274.552 249.895 273.868 250.865 273.645C251.549 273.486 252.216 273.232 252.916 273.057C253.058 272.993 253.212 272.962 253.367 272.967C253.523 272.971 253.675 273.011 253.813 273.083C253.951 273.155 254.07 273.257 254.163 273.382C254.255 273.507 254.318 273.651 254.347 273.804C255.363 276.74 257.276 279.282 259.816 281.07C260.563 281.611 260.643 282.103 260.15 282.946C259.578 283.916 259.005 284.886 258.481 285.887C258.391 286.024 258.331 286.178 258.307 286.34C258.282 286.501 258.293 286.666 258.338 286.824C258.384 286.981 258.462 287.126 258.569 287.25C258.676 287.374 258.809 287.473 258.958 287.54C259.107 287.623 259.27 287.675 259.44 287.694C259.609 287.712 259.78 287.697 259.943 287.648C260.107 287.599 260.258 287.517 260.389 287.409C260.521 287.3 260.628 287.166 260.707 287.015C261.168 286.061 261.55 285.059 261.947 284.074C262.408 282.929 262.79 282.723 263.947 283.088C266.755 284.002 269.778 284.019 272.596 283.136C272.76 283.05 272.942 283.005 273.127 283.004C273.312 283.003 273.495 283.046 273.66 283.13C273.825 283.214 273.967 283.337 274.075 283.487C274.183 283.637 274.254 283.811 274.281 283.994C274.599 284.853 274.949 285.694 275.251 286.57C275.437 287.135 275.799 287.626 276.284 287.97H277C278.065 287.239 278.176 286.841 277.572 285.681C277.111 284.791 276.602 283.916 276.125 283.042C276.016 282.912 275.939 282.76 275.898 282.595C275.857 282.431 275.854 282.26 275.889 282.094C275.924 281.929 275.997 281.774 276.101 281.64C276.206 281.507 276.339 281.399 276.491 281.325C279.167 279.578 281.199 277.005 282.278 273.996C282.596 273.137 283.264 273.281 283.9 273.455C284.806 273.709 285.7 274.043 286.6 274.329C286.935 274.495 287.318 274.539 287.682 274.455C288.047 274.371 288.371 274.164 288.6 273.868V272.628C288.375 272.391 288.105 272.202 287.805 272.074C287.505 271.945 287.181 271.879 286.855 271.879ZM268.333 266.648C268.746 266.662 269.147 266.799 269.483 267.04C269.819 267.282 270.075 267.617 270.221 268.005C270.366 268.392 270.393 268.814 270.298 269.217C270.204 269.62 269.992 269.985 269.689 270.268C269.387 270.55 269.008 270.737 268.599 270.803C268.191 270.87 267.772 270.814 267.395 270.643C267.019 270.472 266.701 270.193 266.483 269.841C266.265 269.489 266.157 269.081 266.171 268.667C266.157 268.386 266.204 268.105 266.31 267.844C266.416 267.583 266.577 267.348 266.783 267.156C266.989 266.963 267.234 266.818 267.502 266.731C267.77 266.643 268.053 266.615 268.333 266.648ZM260.526 259.684C262.103 258.23 264.08 257.283 266.202 256.965C267.108 256.854 266.602 257.728 266.774 258.11C266.599 259.827 266.44 261.497 266.265 263.166C266.202 263.754 265.884 263.993 265.359 263.643C263.737 262.543 262.147 261.417 260.542 260.32C260.24 260.098 260.272 259.907 260.526 259.684ZM256.376 269.084C256.396 266.995 256.897 264.939 257.839 263.074C258.062 262.661 258.239 262.454 258.666 262.883C259.954 264.155 261.273 265.383 262.577 266.635C263.292 267.335 263.213 267.669 262.259 267.955C260.653 268.448 259.047 268.941 257.426 269.434C256.536 269.701 256.377 269.573 256.377 269.08L256.376 269.084ZM263.928 273.122C263.328 274.696 262.704 276.27 262.116 277.844C261.878 278.496 261.56 278.703 260.971 278.194C259.434 276.924 258.214 275.313 257.41 273.488C257.283 273.202 257.06 272.82 257.617 272.741C259.461 272.487 261.306 272.248 263.007 272.01C264.263 272.006 264.31 272.086 263.929 273.116L263.928 273.122ZM271.178 280.422C270.278 280.654 269.356 280.788 268.427 280.822C267.341 280.795 266.262 280.635 265.215 280.345C264.706 280.245 264.484 280.027 264.815 279.502C265.801 277.88 266.771 276.259 267.74 274.621C268.074 274.065 268.44 274.112 268.74 274.637C269.694 276.275 270.616 277.944 271.554 279.582C271.796 280.016 271.672 280.353 271.179 280.416L271.178 280.422ZM270.431 262.806C270.227 261.405 270.111 259.993 270.081 258.577V258.036C270.049 256.859 270.113 256.78 271.258 257.114C272.968 257.591 274.56 258.42 275.932 259.547C276.457 259.992 276.6 260.294 275.9 260.723C274.485 261.597 273.134 262.551 271.75 263.442C270.718 264.104 270.575 264.009 270.432 262.8L270.431 262.806ZM279.096 273.792C278.245 275.596 276.977 277.171 275.396 278.387C274.983 278.687 274.681 278.832 274.458 278.212C273.822 276.463 273.202 274.698 272.55 272.949C272.327 272.349 272.486 272.027 273.186 271.995C273.997 272.122 274.84 272.313 275.698 272.408C276.698 272.508 277.685 272.726 278.671 272.901C279.224 273.008 279.351 273.278 279.096 273.787V273.792ZM278.508 269.452C277.077 268.975 275.662 268.482 274.215 268.021C273.5 267.798 273.436 267.465 273.961 266.972C275.297 265.7 276.632 264.444 277.952 263.172C278.413 262.743 278.683 262.822 278.938 263.379C279.686 264.895 280.098 266.554 280.146 268.244C280.241 270.003 280.225 270.016 278.508 269.446V269.452Z" fill="#5652CC"/>
<g clip-path="url(#clip1_1_37)">
<path d="M595.626 79.5378C606.929 81.0302 617.599 76.6744 627.757 72.2746C638.21 67.7469 648.878 63.5652 660.284 62.2813C669.401 61.2519 679.108 62.4526 687.045 66.815C694.565 70.9479 702.148 78.943 700.794 88.0988C699.611 96.1093 692.335 104.112 685.547 107.863C681.755 109.959 677.785 111.32 673.706 111.001C672.034 110.867 670.396 110.46 668.857 109.795C668.295 109.572 667.921 108.862 668.134 109.417C668.036 109.162 668.131 108.343 668.021 109.213C668.033 109.119 668.392 107.48 668.133 108.308C669.097 105.223 672.285 102.745 675.575 100.613C679.406 98.2348 683.485 96.2805 687.739 94.7849C695.9 91.8142 704.731 91.1938 713.227 92.9942C737.774 98.7027 745.212 127.502 750.093 149.277C750.377 150.889 751.27 152.331 752.587 153.302C753.905 154.274 755.546 154.702 757.17 154.496C760.313 154.019 763.128 150.711 762.39 147.419C759.259 133.455 756.051 119.08 748.635 106.663C742.164 95.8203 732.901 86.4834 720.742 82.3024C710.097 78.8254 698.648 78.6516 687.902 81.8037C682.348 83.312 677.006 85.5118 672 88.3516C667.003 91.2338 661.984 94.5171 658.78 99.4583C655.374 104.711 654.299 111.286 658.182 116.623C662.117 122.031 669.54 123.593 675.846 123.403C687.959 123.036 699.004 115.203 706.036 105.744C709.706 100.983 712.152 95.3938 713.159 89.4672C714.229 82.3035 711.881 75.3725 708.01 69.4174C701.519 59.4354 690.489 53.4669 679.121 50.8778C664.579 47.563 649.541 50.7054 635.757 55.6528C628.863 58.1249 622.273 61.2824 615.468 63.9556C609.54 66.2845 603.408 68.0239 596.997 67.1767C589.042 66.1266 587.703 78.4903 595.631 79.5367" fill="white"/>
</g>
</g>
<defs>
<clipPath id="clip0_1_37">
<rect width="873" height="700" fill="white"/>
</clipPath>
<clipPath id="clip1_1_37">
<rect width="180.092" height="187.119" fill="white" transform="translate(588 16)"/>
</clipPath>
</defs>
</svg>
