<svg width="723" height="543" viewBox="0 0 723 543" fill="none" xmlns="http://www.w3.org/2000/svg">
<g clip-path="url(#clip0_53_8013)">
<path d="M51.7769 185.675V234.596L9.41093 259.058C9.41093 232.038 28.3789 199.185 51.7769 185.675Z" fill="#F3B86D"/>
<path d="M43.7779 181.057L72.7429 197.779L31.2369 271.658L1.41193 254.444C1.41193 227.424 20.3799 194.57 43.7779 181.061V181.057Z" fill="#262423" stroke="#FEF2EB"/>
<path d="M51.7769 185.675V234.596L9.41093 259.058C9.41093 232.038 28.3789 199.185 51.7769 185.675Z" stroke="#FEF2EB"/>
<path d="M9.41093 259.058L51.7769 234.596L14.2639 278.986C11.1699 273.98 9.41093 267.265 9.41093 259.057V259.058Z" stroke="#FEF2EB"/>
<path d="M51.7779 234.596V185.675C75.1779 172.167 94.1439 183.117 94.1439 210.134C94.1439 237.151 75.1769 270.007 51.7779 283.517C35.4889 292.917 21.3549 290.46 14.2649 278.986L51.7779 234.596Z" fill="#262423" stroke="#FEF2EB"/>
<path d="M43.7779 181.056C55.5459 174.261 66.1909 173.656 73.8679 178.172L81.3349 182.483L81.3279 182.495C73.6949 178.317 63.2749 179.036 51.7769 185.675L43.7779 181.056Z" fill="#262423" stroke="#FEF2EB"/>
<path d="M13.0639 281.386C10.2957 279.591 7.97065 277.191 6.26392 274.368L14.2639 278.985C15.971 281.808 18.296 284.208 21.0639 286.003L13.0639 281.386Z" stroke="#FEF2EB"/>
<path d="M6.26493 274.369C3.17093 269.362 1.41193 262.647 1.41193 254.439C1.41193 254.439 5.75993 256.806 7.55893 257.988C9.35793 259.17 9.41193 259.058 9.41193 259.058C9.41193 267.266 11.1719 273.98 14.2659 278.987L6.26493 274.369Z" fill="#262423" stroke="#FEF2EB"/>
<path d="M126.864 356.973L185.283 323.235V200.128L126.864 233.853V356.973Z" fill="#262423" stroke="#FEF2EB"/>
<path d="M126.865 356.973L68.4389 323.235V200.128L126.865 233.853V356.973Z" fill="#262423" stroke="#FEF2EB"/>
<path d="M126.865 233.857L68.4389 200.132L126.865 166.416L185.284 200.132L126.865 233.857Z" fill="#262423" stroke="#FEF2EB"/>
<path d="M386.454 541.959L420.204 522.467V451.346L386.454 470.831V541.959Z" stroke="#FEF2EB"/>
<path d="M386.453 541.959L352.699 522.471V451.35L386.453 470.835V541.964V541.959Z" stroke="#FEF2EB" stroke-linecap="round" stroke-linejoin="round"/>
<path d="M386.453 470.83L352.699 451.345L386.453 431.868L420.203 451.347L386.453 470.83Z" stroke="#FEF2EB"/>
<path d="M161.602 280.834C161.704 279.021 162.23 277.256 163.138 275.683C164.046 274.11 165.311 272.773 166.831 271.778L202.648 251.099C205.523 249.439 207.875 250.799 207.875 254.117V287.349C207.773 289.162 207.248 290.926 206.34 292.499C205.432 294.072 204.167 295.41 202.648 296.405L166.831 317.085C163.954 318.745 161.602 317.385 161.602 314.068V280.834Z" fill="#262423" stroke="#FEF2EB"/>
<path d="M161.598 314.069V280.835C161.7 279.021 162.226 277.257 163.134 275.684C164.042 274.111 165.307 272.774 166.827 271.779L202.643 251.1C203.166 250.723 203.78 250.49 204.421 250.424C205.063 250.358 205.711 250.462 206.3 250.725L203.563 249.146C202.967 248.836 202.296 248.7 201.627 248.751C200.957 248.803 200.315 249.041 199.774 249.438L163.956 270.121C162.436 271.116 161.172 272.454 160.264 274.026C159.356 275.599 158.83 277.364 158.728 279.177V312.411C158.728 314.148 159.376 315.341 160.402 315.852L163.009 317.359C162.518 316.972 162.132 316.468 161.886 315.893C161.639 315.319 161.541 314.691 161.599 314.069H161.598Z" fill="#262423" stroke="#FEF2EB"/>
<path d="M187.888 271.323C187.608 271.439 187.362 271.623 187.171 271.858C186.98 272.093 186.851 272.371 186.795 272.669L181.719 296.78C181.587 297.402 181.864 297.807 182.337 297.685C182.616 297.569 182.862 297.385 183.053 297.15C183.244 296.915 183.373 296.636 183.43 296.339L188.507 272.228C188.637 271.606 188.361 271.202 187.889 271.328L187.888 271.323ZM180.888 279.723C180.611 279.417 180.058 279.617 179.654 280.172L171.147 291.843C170.913 292.151 170.779 292.523 170.762 292.909C170.762 293.247 170.906 293.48 171.147 293.533L179.654 295.379C180.054 295.466 180.61 295.028 180.889 294.401C181.168 293.774 181.065 293.194 180.661 293.107L173.217 291.491L180.661 281.28C181.063 280.726 181.164 280.028 180.885 279.722L180.888 279.723ZM199.699 275.357L191.192 273.511C190.792 273.423 190.234 273.86 189.957 274.487C189.68 275.114 189.78 275.693 190.184 275.781L197.628 277.396L190.184 287.608C189.784 288.162 189.678 288.86 189.957 289.166C190.236 289.472 190.787 289.266 191.192 288.717L199.699 277.048C199.933 276.739 200.068 276.367 200.085 275.98C200.082 275.641 199.938 275.408 199.696 275.357H199.699Z" fill="#B0D775"/>
<path d="M705.569 411.315L721.869 401.906V382.806L705.569 392.206V411.315Z" stroke="#FEF2EB" stroke-linecap="round" stroke-linejoin="round"/>
<path d="M705.568 411.315L689.274 401.906V382.806L705.568 392.206V411.315Z" stroke="#FEF2EB" stroke-linecap="round" stroke-linejoin="round"/>
<path d="M705.568 392.21L689.274 382.81L705.568 373.41L721.868 382.81L705.568 392.21Z" stroke="#FEF2EB" stroke-linecap="round" stroke-linejoin="round"/>
<path d="M200.278 430.58L215.001 422.08V404.816L200.278 413.316V430.58Z" stroke="#FEF2EB" stroke-linecap="round" stroke-linejoin="round"/>
<path d="M200.279 430.58L185.555 422.08V404.816L200.279 413.316V430.58Z" stroke="#FEF2EB" stroke-linecap="round" stroke-linejoin="round"/>
<path d="M200.279 413.315L185.555 404.815L200.279 396.315L215.002 404.815L200.279 413.315Z" stroke="#FEF2EB" stroke-linecap="round" stroke-linejoin="round"/>
<path d="M467.66 363.9C420.785 390.964 344.781 390.962 297.906 363.9C274.47 350.368 262.751 332.632 262.75 314.9V330.574C262.75 348.31 274.469 366.044 297.906 379.574C344.781 406.638 420.785 406.639 467.66 379.574C491.098 366.043 502.818 348.307 502.816 330.574V314.896C502.818 332.631 491.098 350.367 467.66 363.9Z" fill="#262423" stroke="#FEF2EB"/>
<path d="M262.75 314.893C262.75 297.158 274.468 279.422 297.906 265.893C344.782 238.831 420.784 238.831 467.661 265.893C491.097 279.426 502.817 297.161 502.817 314.893C502.817 332.625 491.098 350.364 467.661 363.893C420.786 390.957 344.782 390.955 297.907 363.893C274.47 350.367 262.751 332.631 262.75 314.893Z" fill="#262423" stroke="#FEF2EB"/>
<path d="M456.91 302.929C453.215 280.711 442.71 219.721 442.71 219.721C442.731 226.534 382.737 255.455 349.941 236.521C329.676 224.821 318.282 210.761 317.451 198.86V274.46L317.491 274.471C316.648 280.101 319.091 281.245 316.624 288.26C310.241 294.388 306.683 301.217 305.933 308.133L305.916 308.158L305.929 308.165C305.824 309.076 305.769 309.991 305.763 310.908C305.763 322.167 313.206 333.427 328.085 342.017C357.847 359.2 406.099 359.2 435.861 342.017C450.741 333.427 458.181 322.165 458.181 310.905C458.172 308.197 457.743 305.506 456.91 302.929Z" fill="#262423" stroke="#FEF2EB"/>
<path d="M450.685 266.212C446.732 243.118 442.707 219.721 442.707 219.721C442.728 226.544 382.734 255.455 349.938 236.521C334.124 227.396 323.804 216.844 319.597 206.99L317.448 207.19V248.242L382.876 304.292C416.775 266.212 433.827 292.042 450.685 266.212Z" fill="#262423" stroke="#FEF2EB"/>
<path d="M268.129 198.857C268.037 179.458 271.569 160.213 278.545 142.112C293.77 103.312 424.122 103.073 439.41 141.596C446.521 159.845 450.122 179.273 450.026 198.858C450.026 229.677 417.991 248.319 403.941 269.801C387.275 295.286 386.341 320.874 359.082 320.874C308.851 320.874 268.128 266.243 268.128 198.858L268.129 198.857Z" fill="#262423" stroke="#FEF2EB"/>
<path d="M423.656 125.805C417.856 125.505 411.685 127.515 405.256 133.005C371.842 161.552 415.956 221.567 393.256 246.87C370.711 271.991 367.334 316.9 353.599 320.5C353.671 320.5 353.744 320.572 353.816 320.665C355.56 320.799 357.316 320.874 359.083 320.874C386.344 320.874 387.276 295.286 403.942 269.801C417.992 248.319 450.027 229.676 450.027 198.858C450.123 179.273 446.521 159.845 439.411 141.596C436.911 135.296 431.311 130.033 423.656 125.805Z" fill="#262423" stroke="#FEF2EB"/>
<path d="M364.834 222.141C340.426 223.054 315.489 218.123 296.834 207.352C279.653 197.435 272.773 184.429 271.049 171.424V171.406H270.743C267.849 187.809 267.572 204.567 269.922 221.057C272.534 231.874 280.939 242.315 295.35 250.634C307.35 257.56 321.891 262.129 337.231 264.334C366.914 268.602 381.231 250.366 383.076 237.043C383.576 233.384 385.408 221.359 364.833 222.136L364.834 222.141Z" fill="#B0D775"/>
<path d="M328.191 231.268C331.134 225.31 337.67 223.838 342.867 227.968C345.433 230.16 347.221 233.123 347.963 236.416C348.705 239.708 348.361 243.152 346.982 246.233C344.065 252.173 337.502 253.656 332.305 249.52C329.736 247.333 327.946 244.37 327.205 241.078C326.464 237.786 326.812 234.342 328.196 231.265L328.191 231.268Z" fill="#262423"/>
<path d="M269.182 198.967C271.224 193.293 275.997 192.424 279.92 197.025C283.843 201.626 285.342 209.943 283.289 215.632C281.261 221.312 276.473 222.181 272.537 217.587C268.651 212.98 267.14 204.659 269.182 198.967Z" fill="#262423"/>
<path d="M276.456 152.819C276.456 140.605 284.525 128.393 300.665 119.074C332.946 100.435 385.286 100.435 417.565 119.074C433.704 128.392 441.772 140.605 441.772 152.819C441.772 165.033 433.708 177.248 417.569 186.568C385.286 205.204 332.946 205.204 300.664 186.568C284.524 177.249 276.457 165.035 276.457 152.821L276.456 152.819Z" fill="#262423" stroke="#FEF2EB"/>
<path d="M283.029 152.819C283.029 141.577 290.456 130.335 305.314 121.757C335.029 104.601 383.206 104.601 412.921 121.757C427.778 130.335 435.204 141.576 435.204 152.818C435.204 164.06 427.777 175.305 412.921 183.883C383.206 201.037 335.029 201.037 305.313 183.883C290.455 175.305 283.03 164.063 283.03 152.82L283.029 152.819Z" fill="#262423" stroke="#FEF2EB"/>
<path d="M427.116 352.74C428.132 352.224 429.256 351.955 430.395 351.955C431.535 351.955 432.659 352.224 433.675 352.74C435.488 353.785 435.488 355.481 433.675 356.527C432.659 357.042 431.535 357.311 430.395 357.311C429.256 357.311 428.132 357.042 427.116 356.527C425.305 355.481 425.305 353.786 427.116 352.74ZM412.378 331.907C412.447 330.633 412.816 329.392 413.454 328.287C414.093 327.182 414.982 326.242 416.051 325.545C418.079 324.375 419.723 325.324 419.723 327.666C419.654 328.94 419.286 330.18 418.648 331.285C418.01 332.39 417.12 333.329 416.051 334.026C414.023 335.198 412.378 334.248 412.378 331.906V331.907Z" fill="#262423"/>
<path d="M430.396 356.4C429.927 356.4 429.478 356.214 429.146 355.882C428.815 355.551 428.629 355.102 428.629 354.633V339.089L415.169 331.317C414.964 331.203 414.784 331.049 414.639 330.865C414.494 330.681 414.387 330.47 414.325 330.244C414.262 330.018 414.245 329.782 414.275 329.549C414.305 329.316 414.38 329.092 414.497 328.889C414.615 328.686 414.771 328.508 414.958 328.366C415.144 328.224 415.357 328.121 415.584 328.062C415.811 328.003 416.048 327.99 416.28 328.024C416.512 328.057 416.735 328.136 416.936 328.257L431.279 336.539C431.547 336.694 431.77 336.917 431.925 337.186C432.08 337.454 432.162 337.759 432.162 338.069V354.634C432.162 354.866 432.116 355.096 432.027 355.31C431.939 355.525 431.808 355.719 431.644 355.883C431.48 356.047 431.285 356.178 431.071 356.266C430.857 356.355 430.627 356.401 430.395 356.401L430.396 356.4Z" stroke="#FEF2EB"/>
<path d="M439.674 345.49C440.69 344.974 441.814 344.705 442.954 344.705C444.094 344.705 445.218 344.974 446.234 345.49C448.047 346.536 448.047 348.231 446.234 349.276C445.218 349.792 444.094 350.061 442.954 350.061C441.814 350.061 440.69 349.792 439.674 349.276C437.862 348.231 437.862 346.535 439.674 345.49ZM424.936 324.656C425.006 323.382 425.375 322.142 426.013 321.037C426.651 319.932 427.54 318.993 428.609 318.296C430.637 317.126 432.28 318.075 432.28 320.417C432.211 321.691 431.843 322.931 431.205 324.036C430.567 325.141 429.678 326.08 428.609 326.777C426.58 327.949 424.936 327 424.936 324.657V324.656Z" fill="#262423"/>
<path d="M442.952 349.15C442.483 349.15 442.034 348.964 441.702 348.632C441.371 348.301 441.185 347.852 441.185 347.383V331.839L427.725 324.067C427.52 323.953 427.34 323.799 427.195 323.615C427.05 323.431 426.943 323.22 426.881 322.994C426.818 322.768 426.801 322.532 426.831 322.299C426.861 322.066 426.936 321.842 427.053 321.639C427.171 321.436 427.327 321.258 427.514 321.116C427.7 320.974 427.913 320.871 428.14 320.812C428.367 320.753 428.604 320.74 428.836 320.774C429.068 320.807 429.291 320.886 429.492 321.007L443.835 329.289C444.103 329.444 444.326 329.667 444.481 329.936C444.636 330.204 444.718 330.509 444.718 330.819V347.383C444.718 347.615 444.672 347.845 444.583 348.059C444.495 348.274 444.364 348.468 444.2 348.632C444.036 348.796 443.842 348.927 443.627 349.015C443.413 349.104 443.184 349.15 442.952 349.15Z" stroke="#FEF2EB"/>
<path d="M348.302 159.064C348.246 158.966 348.171 158.881 348.082 158.812C347.993 158.744 347.891 158.694 347.782 158.664C347.673 158.635 347.56 158.628 347.448 158.642C347.337 158.657 347.229 158.694 347.132 158.75L304.48 183.376C304.76 183.543 305.026 183.716 305.313 183.882C305.6 184.048 305.902 184.202 306.193 184.365L347.993 160.234C348.09 160.178 348.176 160.103 348.244 160.014C348.313 159.924 348.363 159.822 348.392 159.714C348.421 159.605 348.428 159.492 348.414 159.38C348.399 159.269 348.362 159.161 348.306 159.064H348.302ZM418.938 140.103L402.12 149.812C401.281 149.469 400.378 149.311 399.472 149.35C398.566 149.388 397.68 149.622 396.873 150.035C396.448 150.21 396.085 150.507 395.829 150.889C395.573 151.271 395.437 151.72 395.437 152.18C395.437 152.639 395.573 153.089 395.829 153.471C396.085 153.852 396.448 154.15 396.873 154.325C397.757 154.781 398.737 155.019 399.732 155.019C400.727 155.019 401.707 154.781 402.591 154.325C402.999 154.127 403.348 153.825 403.6 153.447C403.852 153.07 403.999 152.633 404.025 152.18C404.018 151.73 403.87 151.295 403.602 150.934L419.596 141.7H432.721C432.461 141.121 432.184 140.55 431.889 139.987H419.367C419.217 139.987 419.069 140.026 418.939 140.101L418.938 140.103ZM401.733 152.842C401.111 153.15 400.427 153.311 399.733 153.311C399.039 153.311 398.355 153.15 397.733 152.842C397.376 152.636 397.154 152.383 397.154 152.181C397.154 151.979 397.376 151.726 397.732 151.52C398.354 151.211 399.04 151.05 399.734 151.05C400.429 151.05 401.115 151.211 401.737 151.52C402.095 151.726 402.316 151.979 402.316 152.181C402.316 152.383 402.095 152.637 401.737 152.842H401.733ZM380.533 141.381C380.341 141.497 380.202 141.684 380.146 141.901C380.09 142.118 380.121 142.349 380.234 142.543C380.346 142.738 380.53 142.88 380.746 142.94C380.962 143 381.193 142.973 381.39 142.865L399.29 132.528C400.129 132.871 401.033 133.029 401.939 132.99C402.845 132.952 403.732 132.718 404.539 132.305C404.963 132.129 405.326 131.831 405.581 131.45C405.836 131.068 405.972 130.619 405.972 130.16C405.972 129.701 405.836 129.252 405.581 128.87C405.326 128.488 404.963 128.191 404.539 128.015C403.655 127.559 402.674 127.321 401.679 127.321C400.685 127.321 399.704 127.559 398.82 128.015C398.412 128.213 398.064 128.516 397.811 128.893C397.559 129.27 397.412 129.707 397.385 130.16C397.392 130.609 397.541 131.045 397.809 131.406L380.533 141.381ZM399.68 129.498C400.302 129.19 400.986 129.029 401.68 129.029C402.374 129.029 403.058 129.19 403.68 129.498C404.037 129.704 404.258 129.957 404.258 130.159C404.258 130.361 404.037 130.615 403.681 130.821C403.059 131.13 402.373 131.291 401.678 131.291C400.984 131.291 400.298 131.13 399.676 130.821C399.32 130.615 399.098 130.362 399.098 130.16C399.098 129.958 399.32 129.705 399.676 129.499L399.68 129.498ZM364.51 141.281C364.566 141.378 364.641 141.464 364.73 141.532C364.82 141.601 364.921 141.651 365.03 141.68C365.139 141.709 365.252 141.716 365.364 141.702C365.475 141.687 365.583 141.65 365.68 141.594L386.4 129.63C386.532 129.555 386.642 129.446 386.718 129.314C386.794 129.183 386.834 129.033 386.833 128.881V111.906C386.264 111.777 385.692 111.653 385.119 111.533V128.39L364.823 140.106C364.725 140.162 364.64 140.237 364.572 140.327C364.503 140.416 364.453 140.518 364.424 140.627C364.395 140.735 364.388 140.849 364.403 140.96C364.418 141.072 364.454 141.18 364.511 141.277L364.51 141.281ZM360.161 136.081L380.881 124.117C381.011 124.042 381.12 123.934 381.195 123.804C381.27 123.673 381.31 123.525 381.31 123.375V118.128C381.31 117.977 381.27 117.83 381.195 117.699C381.12 117.569 381.011 117.461 380.881 117.386L366.546 109.109C365.315 109.042 364.082 108.99 362.846 108.952L379.595 118.623V122.881L359.302 134.597C359.11 134.713 358.971 134.9 358.915 135.117C358.859 135.334 358.89 135.565 359.003 135.759C359.115 135.954 359.299 136.096 359.515 136.156C359.731 136.216 359.962 136.189 360.159 136.081H360.161ZM397.005 166.895L410.526 159.088C411.365 159.431 412.268 159.589 413.174 159.55C414.079 159.512 414.966 159.278 415.773 158.865C416.197 158.689 416.56 158.392 416.816 158.01C417.071 157.628 417.207 157.179 417.207 156.72C417.207 156.261 417.071 155.812 416.816 155.43C416.56 155.048 416.197 154.75 415.773 154.575C414.889 154.119 413.909 153.881 412.914 153.881C411.919 153.881 410.939 154.119 410.055 154.575C409.646 154.772 409.298 155.076 409.045 155.453C408.792 155.83 408.645 156.268 408.618 156.721C408.625 157.171 408.775 157.607 409.044 157.967L396.577 165.167L364.428 146.606C364.33 146.547 364.222 146.508 364.109 146.492C363.997 146.475 363.882 146.481 363.771 146.51C363.661 146.538 363.557 146.588 363.467 146.657C363.376 146.726 363.3 146.812 363.243 146.911C363.186 147.01 363.149 147.119 363.135 147.232C363.121 147.345 363.129 147.46 363.159 147.569C363.19 147.679 363.242 147.782 363.313 147.871C363.383 147.96 363.471 148.035 363.571 148.09L396.149 166.899C396.28 166.972 396.428 167.009 396.579 167.007C396.729 167.005 396.876 166.963 397.005 166.886V166.895ZM410.911 156.059C411.533 155.75 412.219 155.589 412.913 155.589C413.608 155.589 414.294 155.75 414.916 156.059C415.273 156.265 415.494 156.518 415.494 156.72C415.494 156.922 415.273 157.176 414.916 157.382C414.294 157.69 413.61 157.851 412.916 157.851C412.222 157.851 411.537 157.69 410.916 157.382C410.559 157.176 410.337 156.923 410.337 156.72C410.337 156.517 410.559 156.265 410.915 156.059H410.911ZM400.433 142.373C400.489 142.47 400.564 142.556 400.653 142.624C400.743 142.693 400.844 142.743 400.953 142.772C401.062 142.801 401.175 142.808 401.287 142.794C401.398 142.779 401.506 142.742 401.603 142.686L423.92 129.801C423.487 129.395 423.057 128.986 422.598 128.586L400.743 141.203C400.646 141.259 400.56 141.334 400.492 141.423C400.423 141.513 400.373 141.614 400.344 141.723C400.315 141.832 400.308 141.945 400.322 142.057C400.337 142.168 400.374 142.276 400.43 142.373H400.433ZM361.48 189.327C360.596 188.871 359.615 188.633 358.62 188.633C357.626 188.633 356.645 188.871 355.761 189.327C355.264 189.602 354.856 190.015 354.588 190.516C352.042 190.417 349.527 190.233 347.044 189.965L354.798 185.488C354.99 185.372 355.129 185.185 355.185 184.968C355.241 184.751 355.209 184.52 355.097 184.326C354.985 184.131 354.801 183.989 354.585 183.929C354.369 183.868 354.137 183.895 353.941 184.004L344.218 189.618C336.418 188.631 328.77 186.687 321.446 183.83L354.426 164.781C354.618 164.665 354.757 164.478 354.813 164.261C354.869 164.044 354.837 163.813 354.725 163.619C354.613 163.424 354.429 163.282 354.213 163.222C353.997 163.161 353.765 163.188 353.569 163.297L319.047 183.231C318.909 183.311 318.796 183.427 318.721 183.567C318.646 183.707 318.611 183.866 318.621 184.025C318.63 184.183 318.684 184.336 318.776 184.466C318.868 184.597 318.994 184.698 319.14 184.761C327.129 188.065 335.527 190.277 344.108 191.335C344.163 191.348 344.22 191.356 344.277 191.358C347.665 191.798 351.068 192.086 354.485 192.221C354.739 192.815 355.188 193.306 355.757 193.612C356.641 194.068 357.621 194.306 358.616 194.306C359.611 194.306 360.591 194.068 361.475 193.612C361.899 193.436 362.262 193.139 362.518 192.757C362.773 192.375 362.909 191.926 362.909 191.467C362.909 191.008 362.773 190.559 362.518 190.177C362.262 189.795 361.899 189.497 361.475 189.322L361.48 189.327ZM360.623 192.133C360.001 192.442 359.315 192.603 358.62 192.603C357.926 192.603 357.24 192.442 356.618 192.133C356.261 191.927 356.039 191.674 356.039 191.472C356.039 191.27 356.261 191.016 356.618 190.811C357.24 190.503 357.924 190.342 358.618 190.342C359.312 190.342 359.996 190.503 360.618 190.811C360.975 191.017 361.196 191.27 361.196 191.472C361.196 191.674 360.976 191.927 360.62 192.134L360.623 192.133ZM400.759 181.189C399.952 180.776 399.065 180.543 398.159 180.504C397.254 180.466 396.35 180.623 395.511 180.966L365.747 163.781C365.649 163.722 365.541 163.683 365.428 163.667C365.316 163.65 365.201 163.656 365.09 163.685C364.98 163.713 364.876 163.763 364.786 163.832C364.695 163.901 364.619 163.987 364.562 164.086C364.505 164.185 364.468 164.294 364.454 164.407C364.44 164.52 364.448 164.635 364.478 164.744C364.509 164.854 364.561 164.957 364.632 165.046C364.702 165.135 364.79 165.21 364.89 165.265L380.341 174.185V179.592C379.639 179.671 378.96 179.887 378.341 180.227C377.916 180.402 377.553 180.699 377.297 181.081C377.041 181.463 376.905 181.912 376.905 182.372C376.905 182.832 377.041 183.281 377.297 183.663C377.553 184.044 377.916 184.342 378.341 184.517C379.225 184.973 380.205 185.211 381.2 185.211C382.195 185.211 383.175 184.973 384.059 184.517C384.483 184.341 384.846 184.044 385.102 183.662C385.357 183.28 385.493 182.831 385.493 182.372C385.493 181.913 385.357 181.464 385.102 181.082C384.846 180.7 384.483 180.402 384.059 180.227C383.44 179.887 382.761 179.671 382.059 179.592V175.181L394.03 182.094C393.762 182.455 393.613 182.89 393.606 183.34C393.633 183.791 393.779 184.227 394.03 184.604C394.28 184.98 394.627 185.283 395.033 185.481C395.917 185.937 396.898 186.175 397.892 186.175C398.887 186.175 399.868 185.937 400.752 185.481C401.176 185.305 401.539 185.008 401.794 184.626C402.05 184.244 402.186 183.795 402.186 183.335C402.186 182.876 402.05 182.427 401.794 182.045C401.539 181.663 401.176 181.366 400.752 181.19L400.759 181.189ZM383.203 181.713C383.559 181.92 383.78 182.172 383.78 182.375C383.78 182.578 383.559 182.831 383.203 183.037C382.581 183.346 381.895 183.507 381.2 183.507C380.506 183.507 379.82 183.346 379.198 183.037C378.841 182.83 378.619 182.576 378.619 182.376C378.619 182.176 378.841 181.92 379.198 181.715C379.811 181.393 380.495 181.231 381.187 181.245C381.187 181.245 381.196 181.245 381.201 181.245H381.215C381.907 181.231 382.591 181.393 383.204 181.714L383.203 181.713ZM399.903 183.996C399.281 184.304 398.597 184.465 397.903 184.465C397.209 184.465 396.524 184.304 395.903 183.996C395.546 183.789 395.324 183.535 395.324 183.335C395.324 183.135 395.546 182.879 395.902 182.673C396.524 182.364 397.21 182.203 397.904 182.203C398.599 182.203 399.285 182.364 399.907 182.673C400.263 182.879 400.484 183.132 400.484 183.334C400.484 183.536 400.255 183.791 399.899 183.997L399.903 183.996ZM309.733 168.928H318.376C318.527 168.928 318.674 168.888 318.805 168.813L341.224 155.869C341.421 155.755 341.564 155.568 341.623 155.349C341.682 155.13 341.651 154.896 341.537 154.699C341.424 154.503 341.237 154.359 341.018 154.3C340.798 154.242 340.565 154.272 340.368 154.386L318.147 167.215H309.963L300.263 161.615C300.531 161.255 300.679 160.82 300.686 160.371C300.659 159.918 300.512 159.481 300.26 159.104C300.008 158.727 299.66 158.424 299.252 158.226C298.368 157.77 297.387 157.532 296.392 157.532C295.398 157.532 294.417 157.77 293.533 158.226C293.108 158.401 292.745 158.698 292.489 159.08C292.233 159.462 292.097 159.911 292.097 160.371C292.097 160.83 292.233 161.28 292.489 161.662C292.745 162.043 293.108 162.341 293.533 162.516C294.34 162.929 295.227 163.163 296.133 163.201C297.038 163.24 297.942 163.082 298.781 162.739L309.302 168.814C309.432 168.889 309.58 168.929 309.731 168.929L309.733 168.928ZM298.396 161.028C297.774 161.336 297.09 161.497 296.396 161.497C295.702 161.497 295.018 161.336 294.396 161.028C294.039 160.822 293.817 160.569 293.817 160.367C293.817 160.165 294.039 159.911 294.396 159.705C295.018 159.397 295.702 159.236 296.396 159.236C297.09 159.236 297.774 159.397 298.396 159.705C298.753 159.911 298.974 160.164 298.974 160.366C298.974 160.568 298.753 160.822 298.397 161.027L298.396 161.028ZM371.472 158.552C371.374 158.492 371.266 158.451 371.152 158.434C371.039 158.416 370.923 158.422 370.812 158.45C370.7 158.478 370.596 158.528 370.504 158.597C370.413 158.666 370.336 158.753 370.279 158.852C370.221 158.952 370.184 159.062 370.17 159.176C370.156 159.29 370.165 159.405 370.197 159.516C370.228 159.626 370.282 159.729 370.354 159.818C370.426 159.908 370.515 159.982 370.616 160.036L392.869 172.884C392.999 172.959 393.147 172.999 393.297 172.999H426.708C427.212 172.441 427.7 171.87 428.173 171.285H393.533L371.472 158.552ZM316.433 148.446H332.865C333.092 148.446 333.31 148.356 333.471 148.195C333.632 148.034 333.722 147.816 333.722 147.589C333.722 147.362 333.632 147.144 333.471 146.983C333.31 146.822 333.092 146.732 332.865 146.732H316.665L291.765 132.357C291.365 132.793 291.001 133.237 290.629 133.679L316.005 148.331C316.135 148.406 316.282 148.446 316.433 148.446ZM330.119 125.995C330.146 126.448 330.293 126.886 330.546 127.263C330.799 127.64 331.147 127.943 331.556 128.14C332.44 128.596 333.42 128.834 334.414 128.834C335.409 128.834 336.389 128.596 337.273 128.14C337.698 127.965 338.061 127.667 338.317 127.285C338.572 126.903 338.709 126.454 338.709 125.994C338.709 125.535 338.572 125.086 338.317 124.704C338.061 124.322 337.698 124.024 337.273 123.849C336.466 123.436 335.579 123.203 334.673 123.164C333.768 123.125 332.864 123.282 332.025 123.625L318.349 115.73C317.656 115.985 316.967 116.247 316.284 116.516L330.545 124.75C330.276 125.11 330.127 125.546 330.12 125.995H330.119ZM332.411 125.334C333.033 125.025 333.719 124.864 334.413 124.864C335.108 124.864 335.794 125.025 336.416 125.334C336.773 125.54 336.994 125.793 336.994 125.995C336.994 126.197 336.773 126.451 336.416 126.657C335.794 126.965 335.11 127.126 334.416 127.126C333.722 127.126 333.037 126.965 332.416 126.657C332.059 126.451 331.837 126.198 331.837 125.996C331.837 125.794 332.057 125.539 332.413 125.333L332.411 125.334ZM347.945 131.876C347.945 132.103 348.035 132.321 348.196 132.482C348.357 132.643 348.575 132.733 348.802 132.733C349.029 132.733 349.247 132.643 349.408 132.482C349.569 132.321 349.659 132.103 349.659 131.876V121.706C349.659 121.555 349.619 121.408 349.544 121.277C349.469 121.147 349.36 121.039 349.23 120.964L332.955 111.564C332.122 111.739 331.291 111.914 330.467 112.106L347.945 122.197V131.876ZM311.833 135.123H328.227L343.215 143.777C343.313 143.837 343.421 143.877 343.535 143.895C343.648 143.913 343.764 143.907 343.875 143.879C343.986 143.851 344.091 143.801 344.183 143.732C344.274 143.663 344.351 143.576 344.408 143.476C344.466 143.377 344.502 143.267 344.516 143.153C344.53 143.039 344.522 142.924 344.49 142.813C344.459 142.703 344.405 142.6 344.333 142.511C344.261 142.421 344.172 142.347 344.071 142.293L311.489 123.481C311.391 123.421 311.283 123.38 311.169 123.363C311.056 123.345 310.94 123.351 310.829 123.379C310.717 123.407 310.613 123.457 310.521 123.526C310.43 123.595 310.353 123.682 310.296 123.781C310.238 123.881 310.201 123.991 310.187 124.105C310.173 124.219 310.182 124.334 310.214 124.445C310.245 124.555 310.299 124.658 310.371 124.747C310.443 124.837 310.532 124.911 310.633 124.965L325.255 133.406H312.055L299.027 125.881C298.527 126.253 298.021 126.624 297.544 127.003L311.402 135.003C311.532 135.078 311.68 135.117 311.83 135.117L311.833 135.123ZM342.071 176.237C342.071 176.387 342.11 176.535 342.185 176.665C342.26 176.796 342.369 176.904 342.499 176.979L347.944 180.122C348.041 180.178 348.149 180.215 348.26 180.23C348.372 180.244 348.486 180.237 348.594 180.208C348.703 180.179 348.805 180.129 348.894 180.06C348.984 179.992 349.059 179.906 349.115 179.809C349.171 179.711 349.208 179.604 349.223 179.492C349.237 179.381 349.23 179.267 349.201 179.159C349.172 179.05 349.122 178.948 349.053 178.859C348.985 178.769 348.899 178.694 348.802 178.638L344.641 176.238L359.549 167.632C359.741 167.516 359.88 167.329 359.936 167.112C359.992 166.895 359.961 166.664 359.848 166.47C359.736 166.275 359.552 166.133 359.336 166.073C359.12 166.012 358.888 166.039 358.692 166.148L342.499 175.496C342.369 175.571 342.26 175.679 342.185 175.809C342.11 175.94 342.071 176.087 342.071 176.237Z" fill="#B0D775"/>
<path d="M326.983 141.482L359.117 160.035V171.368L326.983 152.815V141.482Z" fill="#262423" stroke="#FEF2EB" stroke-linecap="round" stroke-linejoin="round"/>
<path d="M359.116 160.035L391.251 141.482V152.819L359.116 171.368V160.035Z" fill="#262423" stroke="#FEF2EB" stroke-linecap="round" stroke-linejoin="round"/>
<path d="M359.117 121.863L389.557 139.436L359.117 157.01L328.674 139.435L359.117 121.863Z" fill="#262423" stroke="#FEF2EB" stroke-linecap="round" stroke-linejoin="round"/>
<path d="M373.83 153.301L376.538 151.738V159.555L373.83 161.117V153.301ZM380.991 149.167L383.698 147.604V155.421L380.991 156.985V149.167ZM366.669 157.435L369.378 155.871V163.688L366.669 165.251V157.435Z" stroke="#FEF2EB"/>
<path d="M344.404 153.301L341.696 151.738V159.555L344.404 161.117V153.301ZM337.243 149.167L334.535 147.607V155.424L337.243 156.988V149.167ZM351.564 157.435L348.855 155.871V163.688L351.564 165.251V157.435Z" stroke="#FEF2EB"/>
<path d="M326.983 141.482L328.678 139.436L359.117 157.01V160.036L326.983 141.482Z" stroke="#FEF2EB" stroke-linecap="round" stroke-linejoin="round"/>
<path d="M359.116 157.01V160.036L391.251 141.483L389.556 139.437L359.116 157.01Z" stroke="#FEF2EB" stroke-linecap="round" stroke-linejoin="round"/>
<path d="M618.798 441.031L531.987 491.151C526.547 494.292 517.641 494.292 512.201 491.151L461.747 462.021C459.047 460.464 457.692 458.415 457.671 456.361V466.927C457.688 468.985 459.047 471.037 461.749 472.596L512.203 501.726C517.644 504.868 526.549 504.868 531.989 501.726L618.8 451.606C621.493 450.053 622.847 448.006 622.875 445.961V435.395C622.843 437.441 621.489 439.48 618.801 441.031H618.798Z" fill="#262423" stroke="#FEF2EB"/>
<path d="M618.798 429.609C624.239 432.75 624.239 437.891 618.798 441.033L531.987 491.153C526.547 494.294 517.641 494.294 512.201 491.153L461.746 462.022C456.305 458.881 456.305 453.74 461.746 450.598L548.557 400.478C553.997 397.337 562.903 397.337 568.343 400.478L618.798 429.609Z" fill="#262423" stroke="#FEF2EB"/>
<path d="M494.11 389.863L503.266 395.151V476.588L494.11 471.3V389.863Z" fill="#262423" stroke="#FEF2EB"/>
<path d="M503.267 375.834L593.567 323.527V424.281L503.267 476.588V375.834Z" fill="#262423" stroke="#FEF2EB"/>
<path d="M582.685 270.326C581.524 268.85 579.877 267.833 578.038 267.456C576.198 267.079 574.284 267.366 572.636 268.266L467.217 329.132C466.456 329.546 465.794 330.122 465.279 330.818C464.763 331.515 464.406 332.315 464.232 333.164C464.058 334.013 464.071 334.89 464.271 335.733C464.471 336.576 464.853 337.366 465.39 338.046L524.403 416.846C525.564 418.321 527.21 419.336 529.048 419.713C530.887 420.09 532.799 419.804 534.447 418.905L639.869 358.046C640.63 357.632 641.292 357.056 641.807 356.36C642.323 355.664 642.68 354.863 642.854 354.014C643.028 353.165 643.015 352.289 642.815 351.445C642.615 350.602 642.233 349.813 641.696 349.133L582.685 270.326Z" fill="#262423" stroke="#FEF2EB"/>
<path d="M534.448 418.904C532.8 419.803 530.888 420.089 529.049 419.712C527.211 419.335 525.565 418.32 524.404 416.845L465.39 338.045C464.533 336.961 464.083 335.611 464.116 334.23C464.15 332.849 464.665 331.522 465.573 330.481L458.107 339.305C457.155 340.342 456.603 341.685 456.552 343.092C456.5 344.499 456.952 345.878 457.826 346.982L516.838 425.782C517.999 427.257 519.645 428.274 521.483 428.651C523.322 429.028 525.235 428.741 526.883 427.842L632.305 366.978C633.064 366.544 633.725 365.958 634.248 365.258L641.356 356.858C640.92 357.324 640.418 357.722 639.866 358.041L534.448 418.904Z" fill="#262423" stroke="#FEF2EB"/>
<path d="M530.05 415.003C510.117 388.386 490.183 361.769 470.25 335.153L576.956 272.053L637.27 352.59L530.05 415.003Z" fill="#262423"/>
<g opacity="0.2">
<path d="M576.226 330.312C566.391 316.96 547.718 304.566 530.947 313.412C532.967 316.112 534.017 317.512 536.167 320.382C549.005 313.768 563.329 323.501 570.823 333.635C575.784 340.342 578.467 347.542 578.535 353.612C581.642 354.784 583.187 355.357 586.251 356.471C586.297 348.641 582.751 339.169 576.226 330.312Z" fill="#F3B86D"/>
<path d="M536.95 354.454C526.992 341.154 526.808 326.125 536.164 320.377C534.014 317.507 532.964 316.107 530.944 313.407C515.284 323.92 522.344 345.691 531.544 357.776C540.228 369.176 554.383 379.34 569.608 376.908C568.479 374.405 567.328 371.912 566.157 369.429C557.02 371.089 545.2 365.474 536.947 354.455L536.95 354.454Z" fill="#262423"/>
<path d="M586.249 356.47C583.67 355.537 581.098 354.584 578.533 353.611C578.6 359.679 576.165 364.681 571.45 367.5C569.817 368.457 568.025 369.112 566.16 369.433C567.603 372.507 568.298 374.009 569.611 376.912C572.056 376.445 574.404 375.566 576.554 374.312C582.795 370.62 586.205 364.29 586.254 356.466L586.249 356.47Z" fill="#FEF2EB"/>
</g>
<path d="M492.939 332.775L480.615 340.23C479.904 339.278 479.553 338.811 478.856 337.882L491.203 330.458C491.894 331.373 492.239 331.838 492.939 332.775ZM496.681 337.775L484.392 345.275C483.654 344.288 483.292 343.797 482.562 342.83C487.484 339.83 489.944 338.341 494.862 335.349C495.589 336.308 495.951 336.795 496.685 337.771L496.681 337.775ZM494.431 346.726C491.979 348.233 490.75 348.986 488.299 350.495C487.668 349.654 487.039 348.813 486.41 347.972C488.865 346.472 490.092 345.716 492.546 344.21C493.294 345.21 493.671 345.71 494.431 346.726Z" fill="#FEF2EB"/>
<path d="M561.482 309.852C561.281 309.852 561.088 309.772 560.946 309.631C560.803 309.489 560.722 309.297 560.721 309.096C560.708 305.552 560.721 303.779 560.806 300.262L560.816 299.847L575.255 291.014C575.427 290.909 575.634 290.876 575.831 290.924C576.027 290.971 576.196 291.095 576.301 291.267C576.407 291.44 576.439 291.647 576.391 291.843C576.344 292.039 576.22 292.209 576.048 292.314L562.316 300.714C562.239 303.945 562.229 305.705 562.242 309.09C562.242 309.19 562.223 309.289 562.185 309.382C562.147 309.474 562.092 309.558 562.021 309.629C561.95 309.7 561.867 309.756 561.774 309.795C561.682 309.833 561.583 309.853 561.483 309.853L561.482 309.852ZM601.811 354.745L601.476 354.627C598.409 353.56 595.357 352.46 592.318 351.327C592.135 351.253 591.988 351.111 591.908 350.93C591.828 350.75 591.821 350.545 591.889 350.36C591.957 350.175 592.095 350.023 592.273 349.938C592.45 349.852 592.655 349.839 592.842 349.901C596.418 351.22 598.248 351.883 601.642 353.07L615.542 344.794C615.628 344.739 615.724 344.703 615.824 344.686C615.925 344.669 616.027 344.673 616.126 344.697C616.225 344.72 616.319 344.764 616.4 344.824C616.482 344.884 616.551 344.961 616.603 345.048C616.655 345.136 616.689 345.233 616.703 345.333C616.717 345.434 616.71 345.537 616.684 345.635C616.657 345.733 616.611 345.825 616.549 345.905C616.486 345.986 616.408 346.052 616.319 346.102L601.811 354.745ZM531.565 396.438C531.398 396.438 531.236 396.383 531.104 396.282C530.972 396.181 530.876 396.039 530.832 395.878C530.788 395.717 530.798 395.547 530.86 395.392C530.922 395.238 531.034 395.108 531.177 395.023L545.028 386.777C545.16 383.593 545.198 381.877 545.238 378.593C545.24 378.393 545.321 378.201 545.463 378.061C545.606 377.92 545.798 377.841 545.998 377.841H546.007C546.208 377.844 546.4 377.927 546.541 378.071C546.681 378.215 546.76 378.409 546.758 378.61C546.717 382.046 546.676 383.781 546.529 387.254L546.512 387.663L531.955 396.331C531.837 396.402 531.703 396.439 531.565 396.438Z" fill="#262423"/>
<path d="M578.634 324.786C568.799 311.434 550.124 299.043 533.353 307.886L538.573 314.856C551.412 308.241 565.736 317.973 573.231 328.107C578.19 334.814 580.876 342.017 580.942 348.087C584.049 349.256 585.595 349.831 588.66 350.944C588.704 343.113 585.16 333.644 578.635 324.784L578.634 324.786Z" fill="#F3B86D"/>
<path d="M539.359 348.934C529.401 335.634 529.217 320.603 538.573 314.858L533.353 307.888C517.693 318.398 524.753 340.17 533.953 352.254C542.637 363.66 556.79 373.818 572.017 371.386C570.884 368.883 569.733 366.39 568.565 363.907C559.43 365.571 547.608 359.952 539.355 348.935L539.359 348.934Z" fill="#262423"/>
<path d="M588.658 350.949C586.079 350.016 583.507 349.063 580.94 348.092C581.007 354.156 578.573 359.158 573.857 361.979C572.224 362.936 570.432 363.591 568.567 363.911C569.738 366.394 570.889 368.887 572.019 371.39C574.464 370.925 576.812 370.048 578.962 368.795C585.202 365.102 588.613 358.773 588.662 350.95L588.658 350.949Z" fill="#FEF2EB"/>
<path d="M637.266 352.594L530.044 415.003C510.111 388.386 490.177 361.769 470.244 335.153C505.815 314.122 541.383 293.089 576.95 272.053C597.055 298.9 617.16 325.746 637.264 352.59L637.266 352.594Z" fill="#262423" stroke="#FEF2EB"/>
<path d="M585.842 283.921C550.26 304.936 514.679 325.953 479.099 346.97C475.338 341.947 473.537 339.541 470.247 335.149C505.818 314.118 541.386 293.085 576.953 272.049C580.244 276.45 582.052 278.866 585.842 283.921Z" fill="#262423"/>
<path d="M482.051 338.725C481.129 337.491 480.563 336.733 479.693 335.573L489.48 329.786C489.957 330.423 490.343 330.938 490.739 331.466C491.077 331.917 491.423 332.379 491.841 332.937C490.891 333.499 490.046 333.997 489.258 334.463C486.814 335.907 484.906 337.035 482.051 338.725Z" stroke="#FEF2EB"/>
<path d="M600.502 341.799C600.659 342.006 600.823 342.222 601.002 342.458L598.796 343.748C598.42 343.253 598.113 342.848 597.801 342.437C597.532 342.083 597.261 341.725 596.941 341.303C597.755 340.826 598.319 340.496 599.149 340.011C599.673 340.703 600.061 341.216 600.502 341.799ZM605.209 337.098C605.743 337.806 606.157 338.356 606.728 339.111C606.347 339.334 606.019 339.525 605.688 339.718C605.34 339.922 604.99 340.127 604.572 340.371C603.965 339.569 603.54 339.005 602.986 338.272C602.9 338.159 602.812 338.042 602.719 337.919C602.94 337.79 603.142 337.672 603.336 337.559C603.842 337.264 604.292 337.001 604.878 336.659C604.994 336.814 605.104 336.959 605.209 337.098ZM610.503 333.374L612.353 335.831L610.256 337.055C609.555 336.128 609.096 335.519 608.403 334.599C608.586 334.493 608.755 334.394 608.918 334.299C609.446 333.991 609.902 333.726 610.503 333.374Z" stroke="#FEF2EB"/>
<path d="M512.834 342.266C512.737 342.324 512.658 342.407 512.606 342.507C512.553 342.606 512.528 342.718 512.534 342.831C512.546 343.059 512.632 343.277 512.779 343.452C512.925 343.627 513.124 343.751 513.346 343.804L518.833 344.947L517.633 349.985C517.599 350.209 517.642 350.438 517.753 350.635C517.865 350.832 518.04 350.985 518.25 351.071C518.358 351.125 518.477 351.152 518.598 351.15C518.718 351.148 518.837 351.118 518.943 351.061C519.014 351.02 519.075 350.964 519.124 350.898C519.172 350.832 519.206 350.756 519.223 350.676L520.639 344.698C520.666 344.575 520.665 344.448 520.639 344.326C520.612 344.203 520.559 344.088 520.483 343.988C520.335 343.767 520.107 343.612 519.847 343.555L513.347 342.201C513.174 342.155 512.99 342.178 512.834 342.266ZM503.325 347.805C503.252 347.848 503.189 347.905 503.14 347.974C503.091 348.043 503.057 348.122 503.04 348.205L501.617 354.174C501.595 354.297 501.598 354.423 501.626 354.545C501.654 354.667 501.707 354.781 501.781 354.882C501.928 355.101 502.152 355.257 502.409 355.318L508.925 356.675C509.094 356.716 509.273 356.692 509.425 356.607C509.522 356.548 509.601 356.464 509.654 356.363C509.707 356.263 509.731 356.15 509.725 356.037C509.713 355.809 509.627 355.591 509.481 355.415C509.335 355.24 509.136 355.116 508.914 355.063L503.426 353.92L504.626 348.881C504.658 348.657 504.615 348.429 504.503 348.232C504.392 348.036 504.218 347.882 504.009 347.795C503.902 347.742 503.783 347.715 503.664 347.717C503.544 347.719 503.426 347.749 503.321 347.806L503.325 347.805ZM507.76 341.365C507.618 341.457 507.516 341.599 507.472 341.762C507.427 341.925 507.445 342.099 507.521 342.25L513.25 356.927C513.328 357.14 513.474 357.32 513.667 357.439C513.86 357.559 514.087 357.609 514.312 357.584C514.377 357.57 514.439 357.546 514.496 357.513C514.639 357.418 514.743 357.275 514.788 357.109C514.834 356.944 514.817 356.767 514.742 356.613L509.02 341.946C508.942 341.733 508.795 341.552 508.601 341.433C508.408 341.314 508.18 341.263 507.955 341.289C507.886 341.303 507.82 341.328 507.76 341.365ZM549.831 358.125C549.734 358.183 549.655 358.266 549.602 358.366C549.55 358.465 549.525 358.577 549.531 358.69C549.543 358.918 549.629 359.136 549.776 359.311C549.922 359.486 550.121 359.61 550.343 359.663L555.83 360.806L554.63 365.844C554.596 366.068 554.639 366.297 554.751 366.494C554.863 366.69 555.037 366.844 555.247 366.93C555.355 366.984 555.474 367.011 555.595 367.009C555.715 367.007 555.834 366.977 555.94 366.92C556.011 366.879 556.073 366.824 556.121 366.757C556.17 366.691 556.204 366.615 556.221 366.535L557.637 360.556C557.663 360.433 557.663 360.306 557.636 360.184C557.609 360.061 557.556 359.946 557.48 359.846C557.332 359.625 557.104 359.471 556.844 359.414L550.344 358.06C550.172 358.015 549.99 358.039 549.835 358.125H549.831ZM540.322 363.665C540.249 363.708 540.186 363.765 540.137 363.834C540.088 363.903 540.054 363.982 540.037 364.065L538.614 370.035C538.592 370.158 538.595 370.284 538.624 370.405C538.652 370.527 538.705 370.641 538.779 370.742C538.926 370.961 539.15 371.117 539.407 371.178L545.923 372.536C546.092 372.577 546.271 372.553 546.423 372.468C546.52 372.409 546.599 372.324 546.652 372.224C546.705 372.123 546.729 372.01 546.723 371.897C546.711 371.669 546.625 371.451 546.479 371.276C546.333 371.101 546.134 370.977 545.912 370.924L540.425 369.781L541.625 364.742C541.657 364.518 541.614 364.29 541.502 364.093C541.391 363.897 541.217 363.743 541.008 363.656C540.901 363.603 540.782 363.576 540.663 363.577C540.543 363.579 540.426 363.609 540.32 363.666L540.322 363.665ZM544.758 357.225C544.616 357.317 544.513 357.458 544.469 357.622C544.425 357.785 544.442 357.959 544.518 358.11L550.248 372.787C550.326 373 550.473 373.181 550.665 373.3C550.858 373.419 551.086 373.47 551.311 373.444C551.376 373.43 551.438 373.406 551.495 373.373C551.638 373.278 551.743 373.135 551.788 372.969C551.833 372.804 551.816 372.627 551.741 372.473L546.019 357.805C545.941 357.592 545.793 357.411 545.6 357.292C545.407 357.173 545.179 357.122 544.954 357.148C544.884 357.162 544.818 357.187 544.757 357.224L544.758 357.225Z" fill="#B0D775"/>
<path d="M578.727 318.37L580.348 320.51C575.238 323.519 567.196 328.27 559.154 333.02L559.043 333.085C550.988 337.844 542.947 342.594 537.865 345.586C537.798 345.494 537.723 345.391 537.642 345.281C537.452 345.02 537.23 344.717 537.007 344.415C536.773 344.097 536.538 343.783 536.342 343.527C536.321 343.5 536.3 343.473 536.279 343.446C541.656 340.275 550.274 335.181 558.72 330.19C566.379 325.663 573.897 321.22 578.727 318.37Z" stroke="#FEF2EB"/>
<path d="M592.171 345.233L593.79 347.373C588.86 350.275 584.924 352.6 580.971 354.936C577.132 357.204 573.276 359.482 568.478 362.307C568.415 362.222 568.345 362.127 568.271 362.025C568.077 361.759 567.849 361.448 567.62 361.137C567.385 360.819 567.151 360.505 566.955 360.249C566.934 360.222 566.913 360.195 566.892 360.168C571.838 357.251 575.781 354.919 579.747 352.574C583.562 350.318 587.398 348.048 592.171 345.233Z" stroke="#FEF2EB"/>
<path d="M578.099 301.717C578.398 302.111 578.701 302.512 578.935 302.82C573.326 306.123 562.194 312.698 551.462 319.037C549.579 320.149 547.708 321.255 545.882 322.333L544.284 320.197C547.243 318.449 550.317 316.633 553.369 314.829C562.973 309.154 572.365 303.605 577.317 300.684C577.529 300.964 577.812 301.338 578.099 301.717ZM526.73 330.683C526.71 330.656 526.69 330.629 526.669 330.603C529.516 328.925 533.783 326.404 538.691 323.505L538.929 323.364L540.527 325.5C536.437 327.915 532.347 330.329 528.255 332.741C528.181 332.641 528.099 332.528 528.011 332.408C527.824 332.153 527.61 331.861 527.395 331.57C527.161 331.252 526.926 330.938 526.73 330.683ZM596.982 351.656L598.602 353.796C593.672 356.698 589.737 359.023 585.783 361.359C581.944 363.627 578.089 365.905 573.29 368.73C573.228 368.646 573.16 368.553 573.087 368.453C572.892 368.186 572.663 367.873 572.432 367.56C572.197 367.242 571.962 366.927 571.766 366.672C571.745 366.645 571.724 366.618 571.704 366.591C576.603 363.702 580.52 361.385 584.451 359.06C588.302 356.782 592.167 354.496 596.982 351.656Z" stroke="#FEF2EB"/>
<path d="M556.414 325.385C548.635 329.983 540.852 334.576 533.064 339.164C532.995 339.069 532.917 338.963 532.834 338.85C532.644 338.591 532.425 338.291 532.204 337.992C531.97 337.675 531.735 337.36 531.539 337.105C531.518 337.077 531.496 337.049 531.475 337.022C535.352 334.739 541.856 330.896 549.04 326.652C550.928 325.537 552.862 324.394 554.809 323.244L556.414 325.385ZM583.75 309.247C576.422 313.567 569.096 317.89 561.773 322.216L560.181 320.071C567.5 315.742 574.816 311.421 582.128 307.106C582.562 307.68 583.291 308.641 583.75 309.247Z" stroke="#FEF2EB"/>
<path d="M557.336 347.404C557.315 347.378 557.295 347.352 557.276 347.326C559.651 345.928 562.248 344.393 564.958 342.79C565.723 342.338 566.497 341.881 567.277 341.42L568.875 343.556C567.949 344.102 567.033 344.642 566.131 345.175C563.567 346.688 561.115 348.136 558.86 349.463C558.797 349.376 558.726 349.28 558.651 349.177C558.457 348.911 558.229 348.601 558.001 348.291C557.766 347.974 557.531 347.659 557.336 347.404ZM592.692 329.497C588.223 332.122 582.981 335.219 577.661 338.363C576.521 339.037 575.378 339.712 574.238 340.386L572.636 338.248C575.394 336.619 578.169 334.979 580.864 333.387C584.489 331.245 587.97 329.188 591.071 327.358L592.692 329.497Z" stroke="#FEF2EB"/>
<path d="M597.502 335.921C594.139 337.9 590.336 340.145 586.391 342.474L586.272 342.545L584.669 340.404C585.568 339.873 586.46 339.346 587.34 338.826C590.365 337.039 593.26 335.329 595.882 333.782L597.502 335.921ZM578.901 346.898C573.504 350.086 568.188 353.226 563.67 355.886C563.608 355.8 563.538 355.705 563.464 355.603C563.269 355.337 563.041 355.026 562.812 354.715C562.577 354.397 562.342 354.083 562.147 353.828C562.126 353.8 562.105 353.773 562.084 353.747C567.165 350.75 573.247 347.159 579.312 343.572L580.91 345.711C580.24 346.107 579.57 346.503 578.901 346.898Z" stroke="#FEF2EB"/>
<path d="M537.181 219.749L470.25 181.095V40.0759L537.181 78.7099V219.749Z" fill="#262423" stroke="#FEF2EB" stroke-linecap="round" stroke-linejoin="round"/>
<path d="M537.181 78.7099L470.25 40.0759L537.181 1.45093L604.101 40.0759L537.181 78.7099Z" fill="#262423" stroke="#FEF2EB"/>
<path d="M603.962 40.0209V177.373L536.844 219.621V78.6139L603.962 40.0209Z" fill="#262423" stroke="#FEF2EB" stroke-linecap="round" stroke-linejoin="round"/>
<path d="M616.49 142.478C605.226 148.978 596.096 143.709 596.096 130.702C596.096 117.695 605.226 101.882 616.49 95.3779C625.675 90.0779 633.439 92.6039 635.99 100.769L645.999 91.4509C642.134 79.0949 630.385 75.2689 616.487 83.2919C599.443 93.1319 585.626 117.063 585.626 136.744C585.626 156.425 599.444 164.401 616.487 154.562C621.085 151.827 625.248 148.42 628.838 144.453L624.649 135.795C622.277 138.417 619.526 140.669 616.487 142.477L616.49 142.478Z" fill="#262423" stroke="#FEF2EB"/>
<path d="M585.626 136.743C585.626 117.063 599.444 93.1319 616.488 83.2909C625.098 78.3189 632.881 77.9019 638.478 81.2369L634.073 78.6929C628.473 75.3569 620.694 75.7739 612.083 80.7469C595.04 90.5869 581.223 114.518 581.223 134.198C581.223 144.025 584.669 150.934 590.241 154.164L590.256 154.173L590.269 154.18L594.646 156.708C589.073 153.478 585.627 146.569 585.627 136.741L585.626 136.743Z" fill="#262423" stroke="#FEF2EB"/>
<path d="M628.524 92.9769C629.959 94.45 631.011 96.2522 631.589 98.2259L635.995 100.769C634.695 96.607 632.033 93.9189 628.525 92.9769H628.524ZM620.25 133.252C617.878 135.874 615.127 138.125 612.088 139.932C607.58 142.532 603.417 143.246 600.041 142.332C603.751 146.032 609.741 146.372 616.495 142.473C619.534 140.665 622.285 138.413 624.658 135.791L620.25 133.252Z" fill="#262423" stroke="#FEF2EB"/>
<path d="M635.996 100.769L631.59 98.2259C632.208 100.296 632.508 102.448 632.481 104.608C632.481 114.261 627.448 125.459 620.249 133.252L624.656 135.795C631.856 128.004 636.888 116.805 636.888 107.151C636.915 104.99 636.614 102.838 635.996 100.768V100.769Z" fill="#262423" stroke="#FEF2EB"/>
<path d="M635.995 100.769C636.613 102.839 636.914 104.991 636.887 107.152C636.887 116.806 631.855 128.004 624.654 135.796L628.844 144.454C639.738 132.662 647.352 115.718 647.352 101.11C647.393 97.8411 646.939 94.5849 646.005 91.4519L635.995 100.769Z" fill="#262423" stroke="#FEF2EB"/>
<mask id="mask0_53_8013" style="mask-type:luminance" maskUnits="userSpaceOnUse" x="503" y="16" width="72" height="49">
<path d="M574.356 23.1662L508.01 16.1649L503.696 57.0455L570.042 64.0468L574.356 23.1662Z" fill="white"/>
</mask>
<g mask="url(#mask0_53_8013)">
<path d="M533.009 18.9036C534.547 18.75 535.91 19.3385 536.054 20.219L539.3 34.3619C539.556 35.228 538.531 36.1088 537.009 36.3335C535.47 36.487 534.108 35.8986 533.963 35.0181L530.716 20.875C530.46 20.0069 531.485 19.1261 533.009 18.9036Z" fill="#B0D775"/>
<path d="M536.902 34.1722C542.043 33.5427 546.757 35.4135 547.428 38.3445C548.098 41.2756 544.479 44.1704 539.337 44.7979C534.195 45.4253 529.482 43.5566 528.811 40.6266C528.14 37.6965 531.76 34.8007 536.901 34.1731" fill="#B0D775"/>
<path d="M563.081 23.8196C564.115 24.4508 564.089 25.4732 563.018 26.1853L546.331 36.7759C545.783 37.0906 545.169 37.2723 544.539 37.3064C543.908 37.3406 543.278 37.2261 542.7 36.9723C542.638 36.9409 542.578 36.9063 542.52 36.8688C541.485 36.2374 541.512 35.2141 542.582 34.503L559.267 23.9131C559.814 23.5976 560.428 23.4153 561.059 23.3806C561.689 23.346 562.319 23.4601 562.898 23.7137C562.962 23.7466 563.023 23.7823 563.081 23.8196Z" fill="#B0D775"/>
<path d="M506.712 30.7218C506.02 31.5652 506.498 32.5262 507.827 32.9431L528.33 38.9801C528.928 39.1601 529.56 39.1925 530.174 39.0747C530.787 38.9568 531.362 38.6922 531.851 38.3034C531.895 38.259 531.936 38.2119 531.974 38.1625C532.667 37.319 532.189 36.3591 530.86 35.9411L510.359 29.9014C509.761 29.7215 509.129 29.6891 508.516 29.8069C507.902 29.9248 507.327 30.1894 506.838 30.5781C506.793 30.6232 506.751 30.6718 506.712 30.7218Z" fill="#B0D775"/>
<path d="M572.636 39.4543C572.776 38.5545 571.674 37.8074 570.134 37.7586L546.98 37.5709C545.492 37.5848 544.207 38.2953 544.109 39.1584C544.107 39.1802 544.105 39.2021 544.102 39.224C543.962 40.1238 545.065 40.8709 546.606 40.9198L569.759 41.1075C571.247 41.0936 572.532 40.383 572.629 39.5199C572.631 39.498 572.633 39.4772 572.636 39.4553" fill="#B0D775"/>
<path d="M557.705 55.639C558.936 55.0234 559.222 54.0022 558.365 53.287L545.037 41.9656C544.519 41.6137 543.923 41.3965 543.3 41.3337C542.678 41.2708 542.05 41.3643 541.473 41.6056C541.408 41.6309 541.344 41.6578 541.283 41.6862C540.052 42.3018 539.766 43.324 540.624 44.0383L553.949 55.3654C554.466 55.717 555.063 55.934 555.685 55.9967C556.308 56.0593 556.936 55.9657 557.513 55.7244C557.578 55.698 557.642 55.6716 557.704 55.644" fill="#B0D775"/>
<path d="M504.958 47.7457C504.424 46.9287 505.131 45.9601 506.565 45.546L528.365 39.8501C529.778 39.5092 531.31 39.8751 531.787 40.6669C531.799 40.6863 531.81 40.7066 531.821 40.7269C532.355 41.5439 531.647 42.5125 530.213 42.9265L508.413 48.6233C507.001 48.9643 505.468 48.5993 504.991 47.8065C504.979 47.7871 504.968 47.7668 504.957 47.7466" fill="#B0D775"/>
<path d="M526.788 59.4743C525.349 59.1856 524.622 58.2879 525.114 57.4082L532.658 43.5296C533.046 42.7133 534.484 42.181 535.867 42.341C535.94 42.3488 536.013 42.3564 536.084 42.372C537.522 42.6606 538.249 43.5583 537.757 44.439L530.214 58.3166C529.826 59.1329 528.388 59.6653 527.006 59.5053C526.932 59.4975 526.86 59.4899 526.788 59.4743Z" fill="#B0D775"/>
<path d="M535.586 28.4748C524.989 29.7469 517.478 35.684 518.82 41.7374C520.162 47.7907 529.845 51.6648 540.443 50.3927C551.04 49.1206 558.554 43.1848 557.213 37.1316L557.202 37.0841C555.827 31.0514 546.159 27.2011 535.586 28.4758M534.812 25.1002C548.666 23.3679 561.419 28.3707 563.294 36.2752C565.169 44.1796 555.458 51.9893 541.604 53.7216C527.749 55.4538 514.997 50.451 513.122 42.5465L513.107 42.4846C511.266 34.5938 520.983 26.81 534.813 25.0983" fill="#B0D775"/>
</g>
<path d="M698.961 291.949V324.714C699.011 325.259 699.206 325.781 699.525 326.226C699.844 326.67 700.276 327.022 700.776 327.245C702.134 327.934 703.636 328.293 705.159 328.293C706.682 328.293 708.184 327.934 709.542 327.245C710.042 327.022 710.474 326.67 710.793 326.226C711.112 325.781 711.307 325.259 711.358 324.714V291.949H698.961Z" fill="#262423" stroke="#FEF2EB"/>
<path d="M700.775 289.418C702.133 288.729 703.635 288.37 705.158 288.37C706.681 288.37 708.183 288.729 709.541 289.418C710.07 289.597 710.53 289.937 710.856 290.391C711.182 290.845 711.357 291.39 711.357 291.948C711.357 292.507 711.182 293.052 710.856 293.506C710.53 293.96 710.07 294.3 709.541 294.479C708.183 295.168 706.681 295.527 705.158 295.527C703.635 295.527 702.133 295.168 700.775 294.479C700.246 294.3 699.787 293.959 699.461 293.505C699.136 293.051 698.961 292.507 698.961 291.948C698.961 291.39 699.136 290.846 699.461 290.392C699.787 289.938 700.246 289.597 700.775 289.418Z" fill="#262423" stroke="#FEF2EB"/>
<path d="M684.656 327.734V345.234C684.707 345.779 684.901 346.301 685.22 346.745C685.539 347.19 685.971 347.542 686.471 347.765C687.829 348.454 689.331 348.813 690.854 348.813C692.377 348.813 693.879 348.454 695.237 347.765C695.737 347.542 696.169 347.19 696.488 346.746C696.807 346.301 697.001 345.779 697.052 345.234V327.734H684.656Z" fill="#262423" stroke="#FEF2EB"/>
<path d="M686.476 325.203C687.834 324.514 689.336 324.155 690.859 324.155C692.382 324.155 693.884 324.514 695.242 325.203C695.771 325.382 696.23 325.723 696.556 326.177C696.881 326.631 697.056 327.175 697.056 327.733C697.056 328.292 696.881 328.836 696.556 329.29C696.23 329.744 695.771 330.085 695.242 330.264C693.884 330.953 692.382 331.312 690.859 331.312C689.336 331.312 687.834 330.953 686.476 330.264C685.947 330.085 685.488 329.744 685.162 329.29C684.837 328.836 684.662 328.292 684.662 327.733C684.662 327.175 684.837 326.631 685.162 326.177C685.488 325.723 685.947 325.382 686.476 325.203Z" fill="#262423" stroke="#FEF2EB"/>
<path d="M669.763 305.448V334.313C669.814 334.858 670.008 335.379 670.327 335.824C670.646 336.269 671.078 336.62 671.578 336.843C672.936 337.532 674.438 337.891 675.961 337.891C677.484 337.891 678.986 337.532 680.344 336.843C680.844 336.621 681.276 336.269 681.595 335.824C681.914 335.38 682.109 334.858 682.16 334.313V305.443L669.763 305.448Z" fill="#262423" stroke="#FEF2EB"/>
<path d="M671.576 302.917C672.934 302.228 674.436 301.869 675.959 301.869C677.482 301.869 678.984 302.228 680.342 302.917C680.871 303.096 681.331 303.436 681.657 303.89C681.983 304.344 682.158 304.889 682.158 305.447C682.158 306.006 681.983 306.551 681.657 307.005C681.331 307.459 680.871 307.799 680.342 307.978C678.984 308.667 677.482 309.026 675.959 309.026C674.436 309.026 672.934 308.667 671.576 307.978C671.047 307.799 670.588 307.458 670.262 307.004C669.937 306.55 669.762 306.006 669.762 305.447C669.762 304.889 669.937 304.345 670.262 303.891C670.588 303.437 671.047 303.096 671.576 302.917Z" fill="#262423" stroke="#FEF2EB"/>
<path d="M655.458 328.293V354.837C655.508 355.382 655.703 355.904 656.022 356.348C656.34 356.793 656.772 357.145 657.272 357.368C658.63 358.057 660.132 358.416 661.655 358.416C663.178 358.416 664.68 358.057 666.038 357.368C666.538 357.145 666.97 356.794 667.289 356.349C667.608 355.904 667.803 355.382 667.853 354.837V328.293H655.458Z" fill="#262423" stroke="#FEF2EB"/>
<path d="M657.269 325.765C658.627 325.076 660.129 324.717 661.652 324.717C663.175 324.717 664.677 325.076 666.035 325.765C666.564 325.944 667.023 326.284 667.349 326.738C667.674 327.192 667.85 327.736 667.85 328.295C667.85 328.853 667.674 329.398 667.349 329.852C667.023 330.306 666.564 330.646 666.035 330.825C664.677 331.514 663.175 331.873 661.652 331.873C660.129 331.873 658.627 331.514 657.269 330.825C656.74 330.646 656.281 330.305 655.955 329.851C655.63 329.397 655.455 328.853 655.455 328.294C655.455 327.736 655.63 327.192 655.955 326.738C656.281 326.284 656.74 325.944 657.269 325.765Z" fill="#262423" stroke="#FEF2EB"/>
<path d="M440.575 46.4169L382.875 13.1059C379.508 11.1629 376.754 12.7529 376.754 16.6399V66.6979C376.873 68.8206 377.489 70.8856 378.552 72.7267C379.616 74.5678 381.096 76.1335 382.875 77.2979L400.781 87.6369L411.721 106.585L422.659 100.269L440.569 110.61C443.935 112.553 446.688 110.963 446.69 107.076V57.0179C446.571 54.8957 445.956 52.8309 444.894 50.9897C443.832 49.1485 442.353 47.5822 440.575 46.4169Z" stroke="#FEF2EB"/>
<path d="M392.813 35.2109V30.8549L394.506 31.8329V36.1899L397.047 37.6559V33.2999L398.74 34.2779V38.6339L401.031 39.9569V41.7999L398.74 40.4769V43.6339L401.031 44.9569V46.8019L398.74 45.4789V49.8339L397.047 48.8569V44.4999L394.506 43.0339V47.3899L392.813 46.4119V42.0559L390.522 40.7329V38.8899L392.813 40.2139V37.0569L390.522 35.7349V33.8899L392.813 35.2109ZM394.503 41.1899L397.044 42.6579V39.4999L394.503 38.0329V41.1899Z" fill="#B0D775"/>
<path d="M403.325 41.3489C403.325 38.5259 404.711 37.7259 407.174 39.1489L416.413 44.4819C417.535 45.0863 418.467 45.99 419.106 47.0925C419.745 48.195 420.065 49.4531 420.032 50.7269V60.1269C420.032 61.3499 419.378 61.7499 418.281 61.1159L415.586 59.5599C415.17 59.3289 414.822 58.993 414.576 58.5856C414.331 58.1782 414.196 57.7135 414.186 57.2379V56.9709L413.916 56.8169C413.609 57.6169 412.858 58.2929 411.203 57.3379C408.855 55.9829 407.257 52.6609 407.257 49.5489V49.1719C407.257 46.0369 408.836 44.5719 411.086 45.8719C412.412 46.6606 413.389 47.9239 413.819 49.4059L414.09 49.5609V47.9169L415.841 48.9279V57.2619C415.827 57.4391 415.865 57.6166 415.95 57.7724C416.036 57.9283 416.165 58.0557 416.322 58.1389L417.573 58.8609C418.035 59.1279 418.245 59.0059 418.245 58.4279V49.6279C418.26 48.9561 418.09 48.293 417.754 47.7111C417.418 47.1291 416.928 46.6507 416.339 46.3279L407.469 41.2059C405.909 40.3059 405.119 40.7609 405.119 42.5619V53.3619C405.089 54.1923 405.294 55.0142 405.709 55.7337C406.125 56.4532 406.735 57.041 407.469 57.4299L419.746 64.5179V66.4079L407.177 59.1509C405.994 58.4955 405.011 57.5313 404.334 56.3612C403.656 55.1912 403.308 53.859 403.328 52.5069L403.325 41.3489ZM411.543 55.6269C413.043 56.4939 414.066 55.6829 414.066 53.4169V53.1719C414.116 52.1737 413.911 51.1791 413.47 50.2824C413.028 49.3857 412.365 48.6165 411.543 48.0479C410.043 47.1819 409.043 48.0269 409.043 50.2479V50.5149C408.991 51.5091 409.194 52.5 409.632 53.3942C410.069 54.2884 410.727 55.0565 411.544 55.6259L411.543 55.6269Z" fill="#B0D775"/>
<path d="M425.998 57.5119L427.037 58.5349L427.137 58.2779L426.022 56.9899L424.445 54.2129L425.503 53.6019L427.12 56.3559L427.678 57.9669L427.947 58.0119L427.582 56.5999V53.7999L429.121 54.6889V57.4889L428.756 58.4779L429.026 58.7449L429.584 57.7779L431.201 56.8899L432.259 58.7229L430.681 59.6789H429.566L429.666 60.0459L430.707 60.2229L433.13 61.6229V63.4019L430.707 62.0019L429.666 60.9799L429.566 61.2339L430.682 62.5239L432.26 65.3009L431.202 65.9119L429.585 63.1559L429.027 61.5449L428.757 61.4999L429.123 62.9099V65.7099L427.584 64.8209V62.0209L427.949 61.0319L427.679 60.7649L427.121 61.7309L425.504 62.6199L424.446 60.7869L426.023 59.8319H427.133L427.033 59.4669L425.994 59.2879L423.568 57.8879V56.1119L425.998 57.5119Z" fill="#B0D775"/>
<path d="M395.662 58.8709C398.392 60.4479 400.356 63.4489 400.356 66.0489V66.1599C400.356 68.6719 398.972 68.9829 397.469 68.8709L396.988 68.8159C396.507 68.8049 396.333 69.0159 396.333 69.7259V70.7259L394.433 69.6259V68.5149C394.433 67.1149 394.781 66.4929 395.972 66.5819L396.454 66.6359C397.743 66.7359 398.454 66.5029 398.454 65.0579C398.373 64.1891 398.075 63.3546 397.588 62.6306C397.101 61.9066 396.44 61.3164 395.666 60.9139C394.029 59.9689 392.72 60.1469 392.72 62.0579V62.7689L390.815 61.6689V60.8689C390.815 57.8239 392.893 57.2689 395.666 58.8689L395.662 58.8709ZM395.391 71.4279C395.833 71.707 396.201 72.0896 396.462 72.5426C396.723 72.9956 396.871 73.5054 396.891 74.0279C396.891 75.0279 396.236 75.3829 395.391 74.8939C394.947 74.617 394.577 74.235 394.316 73.7815C394.054 73.328 393.908 72.8171 393.891 72.2939C393.891 71.2939 394.525 70.9279 395.391 71.4279Z" fill="#B0D775"/>
<path d="M403.909 76.3429C404.353 76.6201 404.722 77.0022 404.984 77.4556C405.245 77.909 405.391 78.4198 405.409 78.9429C405.409 79.9429 404.774 80.3099 403.909 79.8099C403.467 79.5306 403.099 79.1479 402.838 78.695C402.577 78.2421 402.43 77.7324 402.409 77.2099C402.403 76.2109 403.057 75.8549 403.909 76.3429ZM404.872 64.4979V75.6559L402.966 74.5559V63.3969L404.872 64.4979Z" fill="#B0D775"/>
<path d="M414.292 77.9629C414.393 78.0247 414.51 78.0583 414.628 78.0603C414.747 78.0622 414.864 78.0324 414.968 77.9739L416.602 77.4529L417.642 79.5639L415.68 80.2089C415.431 80.3171 415.159 80.3644 414.888 80.347C414.617 80.3296 414.353 80.248 414.12 80.1089C413.37 79.6449 412.811 78.9276 412.544 78.0869C412.273 77.3999 412.139 77.0759 411.773 76.8659C411.674 76.8058 411.561 76.7739 411.446 76.7739C411.331 76.7739 411.217 76.8058 411.119 76.8659L409.482 77.3869L408.444 75.2779L410.407 74.6329C410.654 74.5293 410.922 74.4853 411.19 74.5046C411.457 74.5239 411.716 74.6059 411.946 74.7439C412.705 75.1981 413.274 75.9128 413.546 76.7549C413.815 77.4419 413.946 77.7659 414.296 77.9659L414.292 77.9629Z" fill="#B0D775"/>
<path d="M422.698 87.1939C423.142 87.471 423.511 87.8531 423.773 88.3065C424.034 88.7599 424.18 89.2707 424.198 89.7939C424.198 90.7939 423.564 91.1609 422.698 90.6609C422.256 90.3816 421.888 89.999 421.627 89.5461C421.366 89.0931 421.218 88.5834 421.198 88.0609C421.198 87.0609 421.852 86.7049 422.698 87.1939ZM423.661 75.3489V86.5049L421.755 85.4049V74.2479L423.661 75.3489Z" fill="#B0D775"/>
<mask id="mask1_53_8013" style="mask-type:luminance" maskUnits="userSpaceOnUse" x="368" y="439" width="37" height="25">
<path d="M404.427 442.744L370.676 439.182L368.481 459.978L402.233 463.54L404.427 442.744Z" fill="white"/>
</mask>
<g mask="url(#mask1_53_8013)">
<path d="M383.393 440.575C384.176 440.497 384.868 440.796 384.942 441.242L386.597 448.437C386.728 448.877 386.202 449.325 385.431 449.439C384.648 449.517 383.956 449.217 383.882 448.772L382.227 441.577C382.096 441.136 382.622 440.688 383.393 440.575Z" fill="#B0D775"/>
<path d="M385.374 448.342C387.989 448.021 390.388 448.972 390.731 450.465C391.073 451.958 389.231 453.425 386.614 453.748C383.998 454.07 381.601 453.118 381.258 451.625C380.914 450.132 382.757 448.664 385.373 448.342" fill="#B0D775"/>
<path d="M398.692 443.078C399.218 443.399 399.206 443.92 398.66 444.282L390.171 449.67C389.892 449.83 389.58 449.923 389.259 449.94C388.938 449.957 388.618 449.899 388.324 449.77C388.291 449.754 388.26 449.736 388.229 449.717C387.703 449.396 387.714 448.875 388.26 448.513L396.749 443.126C397.027 442.965 397.339 442.873 397.66 442.855C397.981 442.837 398.301 442.896 398.596 443.025C398.628 443.041 398.659 443.06 398.69 443.079" fill="#B0D775"/>
<path d="M370.016 446.587C369.662 447.017 369.907 447.506 370.583 447.718L381.013 450.788C381.317 450.88 381.639 450.896 381.951 450.836C382.263 450.776 382.555 450.642 382.804 450.444C382.826 450.421 382.847 450.397 382.867 450.372C383.221 449.943 382.976 449.455 382.3 449.242L371.871 446.17C371.567 446.078 371.245 446.062 370.933 446.122C370.622 446.182 370.329 446.316 370.08 446.514C370.058 446.537 370.036 446.562 370.016 446.587Z" fill="#B0D775"/>
<path d="M403.548 451.029C403.619 450.571 403.059 450.192 402.275 450.167L390.501 450.071C389.743 450.078 389.089 450.439 389.04 450.879C389.039 450.89 389.038 450.901 389.036 450.913C388.965 451.37 389.527 451.75 390.31 451.775L402.088 451.87C402.845 451.864 403.499 451.502 403.548 451.063C403.55 451.052 403.551 451.041 403.552 451.03" fill="#B0D775"/>
<path d="M395.956 459.263C396.583 458.95 396.728 458.43 396.292 458.067L389.512 452.309C389.249 452.13 388.945 452.02 388.629 451.988C388.312 451.956 387.993 452.003 387.699 452.126C387.666 452.138 387.634 452.152 387.603 452.167C386.977 452.48 386.831 453 387.269 453.364L394.045 459.126C394.308 459.304 394.612 459.415 394.929 459.447C395.245 459.478 395.565 459.431 395.858 459.308C395.892 459.294 395.924 459.281 395.955 459.267" fill="#B0D775"/>
<path d="M369.123 455.247C368.851 454.831 369.211 454.339 369.946 454.127L381.036 451.229C381.336 451.129 381.658 451.114 381.966 451.188C382.274 451.262 382.555 451.42 382.777 451.646L382.794 451.675C383.066 452.092 382.706 452.584 381.971 452.796L370.881 455.693C370.581 455.794 370.259 455.809 369.951 455.735C369.644 455.662 369.363 455.503 369.14 455.278L369.123 455.247Z" fill="#B0D775"/>
<path d="M380.228 461.217C379.496 461.07 379.127 460.614 379.377 460.166L383.215 453.106C383.406 452.865 383.659 452.682 383.947 452.575C384.234 452.468 384.546 452.443 384.847 452.502C384.885 452.506 384.922 452.51 384.958 452.514C385.69 452.66 386.059 453.117 385.809 453.565L381.971 460.625C381.781 460.866 381.528 461.05 381.24 461.156C380.952 461.263 380.64 461.288 380.339 461.23C380.301 461.226 380.264 461.222 380.227 461.218" fill="#B0D775"/>
<path d="M384.705 445.444C379.311 446.091 375.492 449.112 376.176 452.19C376.859 455.269 381.78 457.241 387.18 456.594C392.581 455.948 396.393 452.926 395.71 449.848L395.705 449.825C395.007 446.756 390.087 444.797 384.709 445.445M384.311 443.728C391.359 442.846 397.846 445.391 398.802 449.413C399.758 453.434 394.815 457.408 387.767 458.289C380.719 459.17 374.232 456.625 373.276 452.604L373.268 452.573C372.331 448.558 377.275 444.599 384.31 443.729" fill="#B0D775"/>
</g>
<path d="M155.675 202.084C154.018 200.623 151.889 199.81 149.679 199.793C149.764 198.742 149.638 197.684 149.307 196.683C148.976 195.682 148.447 194.757 147.753 193.963L147.229 193.281L146.479 193.721C145.773 194.217 145.177 194.853 144.726 195.589C144.275 196.325 143.98 197.146 143.859 198C143.637 199.175 143.759 200.388 144.209 201.495C143.538 201.678 142.854 201.811 142.163 201.891C140.851 201.99 139.531 201.888 138.249 201.586L135.462 200.787L136.99 195.458L131.588 193.91L134.298 184.46L128.068 182.674L126.767 187.209L116.386 184.232L114.977 189.146L109.574 187.597L108.058 192.884L103.407 191.55L103.162 192.094C102.221 194.423 101.959 196.972 102.406 199.444L102.624 200.407L102.644 200.495C104.473 206.5 109.597 210.26 115.869 212.059C127.997 215.536 139.426 213.455 146.977 204.371C150.009 205.404 153.402 205.477 155.667 203.222L156.236 202.649L155.68 202.081L155.675 202.084ZM116.889 185.606L121.042 186.797L119.85 190.955L115.696 189.764L116.889 185.606ZM117.539 203.872C117.489 204.139 117.359 204.384 117.167 204.576C116.975 204.768 116.73 204.897 116.463 204.946C116.196 204.996 115.92 204.964 115.672 204.854C115.424 204.744 115.215 204.561 115.073 204.33C114.93 204.1 114.861 203.831 114.874 203.56C114.887 203.289 114.981 203.028 115.145 202.812C115.309 202.595 115.535 202.434 115.792 202.348C116.05 202.262 116.327 202.256 116.588 202.331C116.913 202.418 117.193 202.625 117.37 202.911C117.547 203.197 117.608 203.541 117.54 203.87L117.539 203.872ZM115.48 190.519L119.633 191.71L118.441 195.868L114.288 194.677L115.48 190.517L115.48 190.519ZM110.08 188.971L114.649 190.281L113.457 194.438L108.887 193.128L110.08 188.971ZM116.145 211.241C109.593 209.322 106.637 206.306 104.489 202.826C105.35 203.114 106.17 203.391 106.917 203.605C107.581 203.795 108.247 203.986 108.88 204.127C110.307 204.487 111.767 204.7 113.238 204.763C113.771 207.515 115.311 209.969 117.557 211.646L116.145 211.241ZM123.84 197.414L119.272 196.104L120.464 191.946L125.033 193.256L123.84 197.414ZM125.249 192.501L120.681 191.191L121.873 187.035L126.442 188.345L125.249 192.501ZM129.24 198.962L124.672 197.652L125.864 193.495L130.433 194.805L129.24 198.962ZM130.648 194.049L126.081 192.739L127.272 188.584L131.841 189.894L130.648 194.049ZM132.057 189.136L127.489 187.826L128.682 183.668L133.251 184.978L132.057 189.136ZM134.64 200.51L130.071 199.2L131.263 195.043L135.832 196.353L134.64 200.51ZM116.801 202.84C116.71 202.762 116.604 202.704 116.49 202.668C116.325 202.637 116.154 202.655 115.998 202.72C115.843 202.784 115.709 202.892 115.614 203.031C115.519 203.17 115.466 203.333 115.462 203.502C115.458 203.67 115.503 203.836 115.591 203.979C115.68 204.122 115.808 204.237 115.96 204.309C116.113 204.38 116.283 204.406 116.449 204.383C116.616 204.36 116.773 204.289 116.9 204.179C117.027 204.069 117.12 203.924 117.166 203.762C117.193 203.655 117.195 203.543 117.17 203.435C117.12 203.485 117.058 203.52 116.99 203.537C116.921 203.554 116.85 203.553 116.782 203.532C116.735 203.521 116.69 203.501 116.65 203.472C116.61 203.444 116.577 203.408 116.551 203.366C116.525 203.324 116.508 203.278 116.501 203.23C116.493 203.182 116.495 203.132 116.506 203.085C116.536 203.026 116.578 202.975 116.628 202.933C116.679 202.891 116.737 202.86 116.8 202.841L116.801 202.84Z" fill="#B0D775"/>
</g>
<defs>
<clipPath id="clip0_53_8013">
<rect width="721.452" height="541.586" fill="white" transform="translate(0.911926 0.872925)"/>
</clipPath>
</defs>
</svg>
