<svg width="677" height="662" viewBox="0 0 677 662" fill="none" xmlns="http://www.w3.org/2000/svg">
<g clip-path="url(#clip0_53_7913)">
<path d="M401.799 522.794C396.21 487.382 396.699 449.032 400.632 436.765L401.761 437.125C398.397 447.618 396.891 484.095 402.969 522.609L401.799 522.794Z" fill="#202020"/>
<path d="M158.508 582.102C158.508 582.102 167.548 568.371 179.844 563.676C193.976 558.276 215.444 562.59 227.397 534.461C227.397 534.461 225.336 566.39 206.883 577.537C193.837 585.42 176.036 578.218 158.508 582.102ZM155.382 543.84C155.382 543.84 147.25 519.218 160.182 492.748C175.582 461.223 223.052 450.713 223.052 450.713C223.052 450.713 212.001 470.281 217.072 482.782C217.072 482.782 204.934 487.312 201.49 498.546C201.49 498.546 206.024 493.292 216.709 494.016L216.346 502.35C216.346 502.35 208.375 501.805 205.476 505.25L215.805 505.613C215.805 505.613 198.046 543.841 155.379 543.841M135.539 539.852C135.539 539.852 139.161 519.561 129.739 509.777C120.317 499.993 90.971 484.594 85.718 471.908C85.718 471.908 86.748 504.589 100.755 520.283C109.914 530.416 122.127 537.285 135.542 539.851M134.997 588.051C134.997 588.051 134.414 549.094 110.972 541.304L109.994 548.004C109.994 548.004 97.674 529.894 77.02 533.333C77.02 533.333 83.758 562.702 97.856 574.281C113.075 586.781 134.997 588.047 134.997 588.047" fill="#B0D775"/>
<path d="M155.382 543.84C155.382 543.84 147.25 519.218 160.182 492.748C175.582 461.223 223.052 450.713 223.052 450.713C223.052 450.713 212.001 470.281 217.072 482.782C217.072 482.782 204.934 487.312 201.49 498.546C201.49 498.546 206.024 493.292 216.709 494.016L216.346 502.35C216.346 502.35 208.375 501.805 205.476 505.25L215.805 505.613C215.805 505.613 198.046 543.841 155.379 543.841M135.539 539.852C135.539 539.852 139.161 519.561 129.739 509.777C120.317 499.993 90.971 484.594 85.718 471.908C85.718 471.908 86.748 504.589 100.755 520.283C109.914 530.416 122.127 537.285 135.542 539.851M134.997 588.051C134.997 588.051 134.414 549.094 110.972 541.304L109.994 548.004C109.994 548.004 97.674 529.894 77.02 533.333C77.02 533.333 83.758 562.702 97.856 574.281C113.075 586.781 134.997 588.047 134.997 588.047M158.508 582.102C158.508 582.102 167.548 568.371 179.844 563.676C193.976 558.276 215.444 562.59 227.397 534.461C227.397 534.461 225.336 566.39 206.883 577.537C193.837 585.42 176.036 578.218 158.508 582.102Z" stroke="#FEF2EB"/>
<path d="M144.613 600.936L143.502 600.524C143.771 599.797 150.286 582.624 164.694 577.524C168.865 576.047 173.982 574.81 179.403 573.5C192.638 570.3 207.641 566.682 214.803 558.135L215.711 558.896C208.295 567.744 193.094 571.415 179.681 574.653C174.291 575.953 169.198 577.182 165.087 578.642C151.199 583.564 144.677 600.763 144.611 600.942" fill="#FEF2EB"/>
<path d="M144.641 600.824L143.471 600.632C143.548 600.164 151.18 553.77 157.96 537.985C161.379 530.021 179.92 489.085 209.083 465.107L209.834 466.022C180.881 489.822 162.448 530.534 159.046 538.453C152.329 554.105 144.718 600.359 144.646 600.824" fill="#FEF2EB"/>
<path d="M143.464 600.747C143.45 600.321 141.938 557.881 134.99 540.063C128.049 522.273 99.002 493.812 98.712 493.529L99.54 492.681C99.84 492.971 129.066 521.606 136.097 539.634C143.118 557.634 144.638 600.279 144.655 600.709L143.464 600.747Z" fill="#FEF2EB"/>
<path d="M143.508 600.436C143.308 600.036 123.643 560.015 89.6219 542.736L90.1589 541.678C124.545 559.143 144.381 599.515 144.577 599.92L143.508 600.436Z" fill="#FEF2EB"/>
<path d="M174.496 613.094H113.243C112.486 613.093 111.76 612.792 111.224 612.256C110.688 611.72 110.387 610.994 110.386 610.237V602.447C110.387 601.69 110.688 600.963 111.224 600.428C111.76 599.892 112.486 599.591 113.243 599.59H174.5C175.257 599.591 175.983 599.892 176.519 600.428C177.055 600.963 177.356 601.69 177.357 602.447V610.237C177.355 610.995 177.053 611.721 176.516 612.256C175.98 612.792 175.254 613.093 174.496 613.094ZM113.243 600.774C112.8 600.775 112.374 600.951 112.061 601.265C111.747 601.578 111.571 602.003 111.57 602.447V610.237C111.571 610.68 111.747 611.105 112.061 611.419C112.374 611.733 112.8 611.909 113.243 611.91H174.5C174.943 611.909 175.369 611.733 175.682 611.419C175.996 611.105 176.172 610.68 176.173 610.237V602.447C176.172 602.003 175.996 601.578 175.682 601.265C175.369 600.951 174.943 600.775 174.5 600.774H113.243Z" fill="#FEF2EB"/>
<path d="M163.053 661.473H125.245C124.469 661.472 123.704 661.28 123.02 660.913C122.335 660.547 121.751 660.018 121.319 659.373C120.925 658.754 120.679 658.052 120.599 657.323L115.499 611.917H172.805L167.705 657.323C167.578 658.466 167.033 659.521 166.176 660.288C165.319 661.054 164.209 661.477 163.059 661.476M116.82 613.102L121.777 657.194C121.836 657.739 122.019 658.263 122.311 658.727C122.634 659.207 123.071 659.601 123.582 659.873C124.093 660.145 124.663 660.288 125.242 660.288H163.05C163.908 660.288 164.736 659.972 165.376 659.4C166.016 658.829 166.423 658.041 166.518 657.188L171.475 613.099H116.82V613.102Z" fill="#FEF2EB"/>
<path d="M505.086 223.267C505.086 223.267 522.512 225.847 537.579 221.579C537.579 221.579 533.926 225.979 540.286 231.147L541.561 240.131L545.361 239.058C545.361 239.058 547.615 227.446 557.632 232.879C557.632 232.879 563.621 238.919 554.632 246.615C554.632 246.615 551.699 249.17 548.673 248.741C548.673 248.741 540.123 275.451 515.385 272.381C515.385 272.381 492.526 270.222 505.086 223.267Z" stroke="#FEF2EB"/>
<path d="M546.798 282.932C546.798 282.932 543.751 265.266 547.198 253.289" stroke="#FEF2EB"/>
<path d="M513.883 272.045L513.771 280.314" stroke="#FEF2EB"/>
<path d="M513.441 280.694C512.829 283.518 513.225 286.467 514.561 289.029C515.897 291.591 518.088 293.604 520.754 294.718C520.754 294.718 512.233 315.206 506.44 305.256C506.44 305.256 503.391 300.456 504.519 289.88L513.25 280.603C513.266 280.585 513.287 280.573 513.311 280.568C513.334 280.563 513.358 280.566 513.38 280.576C513.402 280.587 513.419 280.604 513.43 280.625C513.441 280.646 513.445 280.67 513.441 280.694Z" stroke="#FEF2EB"/>
<path d="M553.008 292.536C553.008 292.536 551.881 306.536 526.764 312.426C526.764 312.426 521.647 313.312 521.864 308.669L520.757 294.723C520.757 294.723 535.649 293.312 546.649 282.312C546.647 282.312 549.369 289.76 553.008 292.536Z" stroke="#FEF2EB"/>
<path d="M483.084 348.757L453.034 326.7C453.034 326.7 478.079 282.488 509.362 285.4" stroke="#FEF2EB"/>
<path d="M553.008 292.536C594.369 302.76 597.352 356.87 597.352 356.87C597.352 356.87 582.668 370.345 550.652 363.329C550.652 363.329 542.46 335.468 545.552 322.89" stroke="#FEF2EB"/>
<path d="M487.647 310.28C487.647 310.28 478.24 334.18 485.977 381.38" stroke="#FEF2EB"/>
<path d="M590.608 413.681V429.769C590.608 429.769 543.595 442.147 490.12 413.729L489.529 411.636" stroke="#FEF2EB"/>
<path d="M593.279 359.609C593.279 359.609 604.912 400.473 593.279 411.892C593.279 411.892 575.646 425.312 496.487 410.397C489.403 411.979 482.13 412.542 474.887 412.068C474.887 412.068 457.429 412.649 472.536 405.48C472.536 405.48 459.642 408.312 461.642 404.312C461.642 404.312 463.777 400.482 469.71 399.897C469.71 399.897 458.642 401.312 458.642 397.312C458.642 397.312 458.642 393.312 468.642 394.312C468.642 394.312 460.642 393.312 461.642 389.312C461.642 389.312 462.069 383.799 484.356 388.056C484.356 388.056 476.015 384.912 476.828 381.612C476.828 381.612 477.252 376.612 497.947 385.963C497.947 385.963 541.647 383.312 559.06 386.163L553.922 363.99" stroke="#FEF2EB"/>
<path d="M460.168 332.577C460.168 332.577 449.657 342.635 447.402 347.723C429.731 337.901 410.806 330.53 391.147 325.811C391.147 325.811 382.447 304.268 374.737 308.244C374.737 308.244 369.103 310.244 373.178 320.371" stroke="#FEF2EB"/>
<path d="M380.808 333.948C380.808 333.948 373.168 340.188 365.908 337.248L362.925 334.177C362.925 334.177 352.649 340.31 361.649 346.31C361.649 346.31 359.149 351.778 366.397 352.044C366.397 352.044 364.427 356.203 371.538 357.256C371.538 357.256 375.664 365.998 386.657 354.156C386.657 354.156 390.657 349.793 386.657 349.056C386.657 349.056 390.228 344.889 385.44 343.602C385.44 343.602 385.701 339.222 382.676 340.268C382.676 340.268 387.694 336.587 384.176 333.951C384.168 333.948 382.96 332.584 380.808 333.948Z" stroke="#FEF2EB"/>
<path d="M364.646 345.311C371.029 345.638 377.346 343.883 382.646 340.311L364.646 345.311Z" fill="#B0D775"/>
<path d="M364.646 345.311C371.029 345.638 377.346 343.883 382.646 340.311" stroke="#FEF2EB"/>
<path d="M364.646 345.311C371.029 345.638 377.346 343.883 382.646 340.311" stroke="#FEF2EB"/>
<path d="M369.217 350.348C369.217 350.348 380.223 349.886 385.435 343.598L369.217 350.348Z" fill="#B0D775"/>
<path d="M369.217 350.348C369.217 350.348 380.223 349.886 385.435 343.598" stroke="#FEF2EB"/>
<path d="M369.217 350.348C369.217 350.348 380.223 349.886 385.435 343.598" stroke="#FEF2EB"/>
<path d="M374.175 356.365C374.175 356.365 382.658 353.794 386.652 349.053L374.175 356.365Z" fill="#B0D775"/>
<path d="M374.175 356.365C374.175 356.365 382.658 353.794 386.652 349.053" stroke="#FEF2EB"/>
<path d="M374.175 356.365C374.175 356.365 382.658 353.794 386.652 349.053" stroke="#FEF2EB"/>
<path d="M483.288 357.579C483.288 357.579 460.088 391.634 441.87 385.973C430.951 382.59 420.929 376.805 412.537 369.044" stroke="#FEF2EB"/>
<path d="M585.298 430.734C585.298 430.734 590.192 484.647 535.919 485.979H463.699L465.616 597.194C465.616 597.194 480.494 603.494 466.57 613.406L415.23 624.534C415.23 624.534 400.871 621.834 411.259 608.575L397.731 476.917C397.731 476.917 394.876 440.945 401.761 437.128C401.761 437.128 419.344 423.822 483.995 420.067" stroke="#FEF2EB"/>
<path d="M411.258 608.572C411.258 608.572 442.585 607.072 465.616 597.192" stroke="#FEF2EB"/>
<path d="M311.808 591.875C311.808 591.875 337.275 607.985 360.458 608.648C360.458 608.648 371.782 621.164 355.212 624.238L305.556 607.087C305.556 607.087 295.974 595.439 311.808 591.875ZM311.808 591.875C311.808 591.875 357.782 483.928 369.208 462.62C369.208 462.62 380.722 440.243 383.18 438.277C383.18 438.277 399.225 411.777 490.162 413.994" stroke="#FEF2EB"/>
<path d="M345.359 621.003L342.39 633.459" stroke="#FEF2EB"/>
<path d="M308.646 625.311L313.847 609.949" stroke="#FEF2EB"/>
<path d="M266.937 651.179L338.977 659.923C342.78 651.285 343.967 641.721 342.391 632.415C342.391 632.415 326.105 640.005 308.876 625.158C298.293 632.267 286.388 637.177 273.87 639.594C273.87 639.594 261.227 641.046 266.937 651.179Z" stroke="#FEF2EB"/>
<path d="M458.326 615.189L460.647 625.311" stroke="#FEF2EB"/>
<path d="M426.361 622.118L426.646 626.311" stroke="#FEF2EB"/>
<path d="M462.983 650.875L391.742 660.885C391.742 660.885 386.842 656.439 391.742 650.875C391.742 650.875 418.764 637.194 426.642 626.311C426.642 626.311 439.706 636.004 460.674 625.158C460.679 625.158 466.319 640.439 462.983 650.875Z" stroke="#FEF2EB"/>
<path d="M502.8 230.981C502.8 230.981 491.3 229.96 491.476 213.636C491.652 197.312 502.192 194.336 512.419 198.825C512.419 198.825 504.095 187.539 510.871 180.425C517.647 173.311 551.061 181.242 556.854 212.277C556.854 212.277 570.316 210.817 565.482 225.564C565.482 225.564 567.834 222.091 572.24 225.201C576.646 228.311 575.674 238.754 568.66 243.033C568.66 243.033 579.46 262.433 545.56 263.87" stroke="#FEF2EB"/>
<path d="M588.779 487.271V553.094" stroke="#FEF2EB"/>
<path d="M357.486 487.054H321.006C321.006 487.054 303.893 484.975 303.725 503.374C303.557 521.773 303.725 536.654 303.725 536.654C303.725 536.654 300.593 553.294 327.406 553.294" stroke="#FEF2EB"/>
<path d="M465.167 553.05H656.367C656.367 553.05 675.887 555.474 675.887 536.25V502.97C675.887 502.97 679.244 486.211 654.287 486.81C629.33 487.409 464.047 486.81 464.047 486.81" stroke="#FEF2EB"/>
<path d="M645.646 517.294C645.646 519.667 644.942 521.987 643.624 523.961C642.305 525.934 640.431 527.472 638.238 528.38C636.045 529.289 633.633 529.526 631.305 529.063C628.977 528.6 626.839 527.457 625.161 525.779C623.482 524.101 622.34 521.963 621.877 519.635C621.414 517.307 621.651 514.894 622.559 512.702C623.468 510.509 625.006 508.635 626.979 507.316C628.953 505.998 631.273 505.294 633.646 505.294C636.829 505.294 639.881 506.558 642.131 508.809C644.382 511.059 645.646 514.111 645.646 517.294Z" stroke="#FEF2EB" stroke-width="3" stroke-linecap="round" stroke-linejoin="round"/>
<path d="M648.646 532.294L642.121 525.769" stroke="#FEF2EB" stroke-width="3" stroke-linecap="round" stroke-linejoin="round"/>
<path d="M360.913 609.027L402.779 524.227" stroke="#FEF2EB"/>
<path d="M389.167 553.294H405.326" stroke="#FEF2EB"/>
<path d="M294.055 641.961C293.667 640.477 292.838 639.147 291.677 638.145C290.517 637.143 289.079 636.517 287.555 636.35" stroke="#FEF2EB"/>
<path d="M294.055 633.459C294.055 633.459 300.141 635.159 299.738 638.872" stroke="#FEF2EB"/>
<path d="M414.897 636.946C417.447 637.798 419.567 639.608 420.808 641.994" stroke="#FEF2EB"/>
<path d="M408.427 641.301C409.843 641.552 411.175 642.149 412.304 643.04C413.432 643.931 414.323 645.088 414.896 646.407" stroke="#FEF2EB"/>
<path d="M368.542 315.503L411.413 359.941L411.513 360.052C411.55 360.081 411.579 360.117 411.598 360.159C411.646 360.222 411.708 360.294 411.757 360.353C411.806 360.412 411.841 360.461 411.89 360.524C411.942 360.588 411.988 360.657 412.03 360.729C412.041 360.749 412.067 360.773 412.077 360.792L412.146 360.916C412.181 360.991 412.221 361.063 412.266 361.133C412.297 361.201 412.334 361.267 412.375 361.329C412.413 361.403 412.446 361.479 412.475 361.557C412.481 361.592 412.508 361.616 412.514 361.65C412.536 361.69 412.542 361.725 412.562 361.768C412.591 361.842 412.629 361.936 412.658 362.01C412.687 362.084 412.699 362.154 412.728 362.227L412.8 362.496C412.811 362.54 412.826 362.583 412.845 362.624C412.852 362.659 412.863 362.679 412.869 362.713C412.888 362.823 412.924 362.926 412.94 363.045L412.983 363.257C412.999 363.377 413.024 363.516 413.04 363.636C413.041 363.683 413.05 363.73 413.065 363.775C413.063 363.788 413.065 363.8 413.072 363.811C413.095 364.016 413.099 364.234 413.104 364.444C413.107 364.495 413.105 364.56 413.102 364.626C413.105 364.792 413.107 364.973 413.089 365.133C413.081 365.172 413.081 365.211 413.089 365.249C413.076 365.295 413.083 365.329 413.069 365.376C413.057 365.476 413.059 365.587 413.047 365.681L413.015 365.969C412.999 366.08 412.989 366.176 412.973 366.288C412.961 366.389 412.932 366.491 412.921 366.586C412.906 366.697 412.875 366.803 412.86 366.914C412.829 367.021 412.819 367.117 412.788 367.225C412.769 367.34 412.742 367.453 412.707 367.564L412.589 367.977C412.475 368.374 412.33 368.762 412.201 369.155C412.155 369.257 412.124 369.364 412.079 369.466C411.947 369.808 411.797 370.161 411.63 370.51C411.605 370.551 411.586 370.596 411.576 370.643C411.418 370.961 411.281 371.269 411.108 371.582C411.075 371.638 411.042 371.695 411.013 371.737C410.874 371.995 410.722 372.232 410.568 372.485C410.465 372.67 410.343 372.867 410.224 373.048C410.07 373.301 409.879 373.559 409.709 373.808C409.6 373.959 409.506 374.113 409.401 374.248C409.372 374.29 409.348 374.315 409.32 374.357C409.261 374.444 409.211 374.508 409.153 374.573C408.935 374.874 408.701 375.171 408.452 375.463C408.378 375.542 408.31 375.627 408.247 375.716C408.199 375.768 408.166 375.825 408.119 375.877L407.386 376.707C407.333 376.774 407.271 376.823 407.218 376.89C407.122 376.994 407.021 377.114 406.91 377.217C406.698 377.438 406.486 377.658 406.263 377.858C406.235 377.894 406.198 377.924 406.157 377.943C406.012 378.084 405.862 378.222 405.724 378.364C405.613 378.447 405.51 378.539 405.414 378.638C405.211 378.828 404.999 378.998 404.798 379.172C404.71 379.251 404.619 379.336 404.532 379.408C404.425 379.493 404.322 379.562 404.231 379.651C404.017 379.821 403.803 379.991 403.579 380.141C403.472 380.226 403.384 380.3 403.283 380.369C403.092 380.513 402.907 380.641 402.721 380.769C402.702 380.78 402.677 380.807 402.658 380.817L401.944 381.289C401.802 381.381 401.665 381.457 401.523 381.549C401.464 381.581 401.396 381.628 401.342 381.662C401.043 381.84 400.749 382.004 400.454 382.167C400.386 382.207 400.316 382.242 400.242 382.271C400.145 382.326 400.03 382.376 399.933 382.43C399.878 382.463 399.82 382.491 399.76 382.513C399.51 382.639 399.258 382.765 398.996 382.872C398.906 382.908 398.817 382.949 398.73 382.995C398.688 383.021 398.643 383.043 398.596 383.06C398.354 383.156 398.096 383.248 397.855 383.343C397.705 383.404 397.573 383.46 397.429 383.502C396.993 383.641 396.577 383.769 396.149 383.878C392.574 384.769 389.768 384.129 388.105 382.381L345.248 337.947C346.9 339.676 349.706 340.315 353.281 339.424C353.709 339.316 354.141 339.191 354.562 339.049C354.705 339.008 354.839 338.946 354.987 338.89C355.279 338.792 355.576 338.679 355.857 338.561L356.138 338.444C356.366 338.344 356.577 338.239 356.804 338.14C356.897 338.099 356.987 338.053 357.074 338.003C357.172 337.949 357.286 337.898 357.384 337.844C357.751 337.652 358.122 337.445 358.483 337.234C358.543 337.202 358.61 337.155 358.665 337.121C359.045 336.884 359.425 336.645 359.815 336.394C359.835 336.383 359.859 336.357 359.879 336.346C360.166 336.147 360.46 335.934 360.752 335.721C360.966 335.551 361.175 335.396 361.389 335.226L361.972 334.75C362.17 334.576 362.387 334.39 362.588 334.216C362.835 333.989 363.096 333.767 363.347 333.525L363.438 333.436C363.762 333.113 364.085 332.796 364.397 332.455C364.449 332.388 364.512 332.34 364.565 332.272L365.443 331.285C365.517 331.202 365.576 331.109 365.648 331.032C365.897 330.74 366.116 330.438 366.349 330.143C366.407 330.055 366.458 329.992 366.515 329.926C366.648 329.75 366.766 329.569 366.888 329.373C367.063 329.125 367.229 328.875 367.404 328.612C367.521 328.432 367.629 328.23 367.747 328.05C367.902 327.797 368.057 327.544 368.192 327.303C368.399 326.946 368.584 326.572 368.754 326.208C368.779 326.167 368.798 326.122 368.808 326.075C368.975 325.727 369.11 325.386 369.257 325.031C369.302 324.929 369.333 324.822 369.379 324.72C369.524 324.332 369.653 323.94 369.766 323.543L369.889 323.115C369.92 323.009 369.939 322.882 369.97 322.775C370.001 322.669 370.016 322.558 370.042 322.465C370.057 322.354 370.088 322.248 370.103 322.136C370.115 322.036 370.145 321.934 370.155 321.839C370.17 321.728 370.181 321.632 370.197 321.52L370.229 321.232C370.246 321.131 370.253 321.029 370.251 320.926L370.27 320.684C370.284 320.515 370.289 320.346 370.284 320.176C370.281 320.126 370.283 320.061 370.281 320.01C370.276 319.794 370.273 319.578 370.249 319.377C370.246 319.326 370.233 319.257 370.231 319.206C370.222 319.078 370.203 318.951 370.174 318.827L370.131 318.616C370.112 318.506 370.081 318.387 370.061 318.283C370.047 318.214 370.02 318.14 370.006 318.07L369.934 317.802C369.906 317.728 369.894 317.658 369.865 317.584C369.84 317.495 369.797 317.416 369.773 317.327C369.744 317.253 369.708 317.193 369.684 317.119C369.66 317.046 369.612 316.967 369.583 316.893C369.557 316.827 369.526 316.762 369.49 316.701L369.37 316.484C369.328 316.427 369.29 316.366 369.256 316.303C369.209 316.239 369.165 316.161 369.117 316.098C369.082 316.039 369.043 315.983 368.999 315.932C368.951 315.868 368.889 315.796 368.84 315.737C368.72 315.69 368.617 315.608 368.542 315.503Z" fill="#202020" stroke="#FEF2EB"/>
<path d="M360.498 314.006C367.594 312.242 371.711 316.493 369.678 323.526C367.65 330.539 360.254 337.671 353.173 339.44C346.077 341.204 341.96 336.953 343.993 329.92C346.007 322.899 353.402 315.77 360.498 314.006Z" stroke="#FEF2EB"/>
<path d="M338.989 292.278L363.135 317.488L363.197 317.555C363.224 317.58 363.235 317.599 363.26 317.623L363.37 317.759C363.401 317.798 363.427 317.841 363.449 317.886C363.485 317.93 363.515 317.977 363.541 318.027C363.552 318.047 363.563 318.067 363.578 318.071C363.604 318.096 363.611 318.131 363.621 318.15L363.697 318.288C363.717 318.336 363.743 318.382 363.773 318.425C363.802 318.473 363.826 318.524 363.845 318.577L363.878 318.637C363.889 318.657 363.895 318.692 363.906 318.711C363.924 318.766 363.955 318.829 363.974 318.879C363.993 318.929 364.013 318.972 364.035 319.028C364.056 319.084 364.066 319.153 364.087 319.209C364.094 319.244 364.105 319.264 364.112 319.298C364.122 319.318 364.118 319.333 364.125 319.367C364.138 319.437 364.166 319.511 364.175 319.596C364.177 319.646 364.199 319.685 364.2 319.735C364.209 319.82 364.232 319.91 364.241 319.995C364.251 320.029 364.252 320.065 364.245 320.1L364.24 320.115C364.251 320.25 364.262 320.402 364.264 320.551C364.27 320.587 364.257 320.632 364.264 320.667L364.268 321.015C364.26 321.045 364.271 321.065 364.262 321.095C364.258 321.122 364.256 321.149 364.256 321.175C364.255 321.245 364.246 321.314 364.23 321.382C364.227 321.448 364.21 321.509 364.208 321.574C364.206 321.639 364.184 321.716 364.178 321.796C364.16 321.856 364.154 321.938 364.136 321.998C364.128 322.072 364.113 322.145 364.09 322.216C364.068 322.287 364.053 322.36 364.045 322.434C364.02 322.51 364.003 322.588 363.994 322.667L363.912 322.955C363.837 323.215 363.743 323.486 363.649 323.755C363.627 323.831 363.594 323.888 363.572 323.964C363.485 324.205 363.383 324.441 363.266 324.669C363.257 324.7 363.233 324.726 363.223 324.761C363.127 324.981 363.021 325.181 362.908 325.399C362.893 325.44 362.871 325.478 362.843 325.512L362.547 326.022C362.477 326.151 362.393 326.275 362.322 326.404C362.21 326.569 362.09 326.754 361.978 326.916C361.904 327.013 361.836 327.115 361.775 327.221C361.751 327.247 361.742 327.278 361.723 327.288C361.69 327.345 361.641 327.397 361.614 327.439L361.142 328.046C361.094 328.099 361.041 328.166 360.989 328.217C360.965 328.258 360.932 328.294 360.893 328.321C360.725 328.504 360.568 328.707 360.384 328.886C360.34 328.923 360.311 328.969 360.269 329.002C360.195 329.085 360.125 329.142 360.057 329.222C359.919 329.375 359.773 329.52 359.62 329.658C359.596 329.685 359.576 329.696 359.552 329.721C359.455 329.825 359.349 329.91 359.258 330C359.189 330.066 359.116 330.128 359.039 330.185C358.899 330.31 358.754 330.433 358.624 330.544C358.56 330.593 358.5 330.648 358.445 330.707C358.382 330.754 358.299 330.814 358.236 330.861C358.09 330.968 357.94 331.088 357.793 331.197C357.727 331.254 357.657 331.305 357.583 331.351C357.46 331.45 357.33 331.539 357.194 331.62C357.174 331.631 357.17 331.646 357.15 331.657C356.989 331.759 356.823 331.875 356.661 331.98C356.564 332.034 356.465 332.089 356.363 332.158C356.318 332.18 356.275 332.206 356.236 332.237C356.035 332.362 355.838 332.47 355.627 332.575C355.579 332.603 355.528 332.627 355.475 332.646C355.407 332.686 355.336 332.721 355.263 332.751L355.139 332.82L354.621 333.068C354.561 333.099 354.498 333.125 354.434 333.146C354.398 333.152 354.374 333.179 354.34 333.185C354.172 333.252 354.004 333.319 353.84 333.372C353.747 333.415 353.649 333.448 353.548 333.47C353.255 333.568 352.968 333.651 352.68 333.733C350.243 334.339 348.335 333.907 347.209 332.709L322.683 307.263C326.088 304.51 339.025 292.321 338.989 292.278Z" fill="#202020" stroke="#FEF2EB"/>
<path d="M266.33 300.944C266.428 301.005 266.53 301.051 266.628 301.111C266.684 301.144 266.746 301.162 266.787 301.19C267.291 301.45 267.804 301.68 268.352 301.903L268.903 302.111C269.26 302.247 269.606 302.363 269.988 302.472C270.201 302.533 270.396 302.606 270.609 302.667C270.898 302.75 271.191 302.817 271.504 302.89C271.752 302.945 271.981 303.01 272.234 303.05C272.482 303.104 272.751 303.148 273.003 303.188C273.287 303.236 273.571 303.284 273.859 303.318C274.096 303.353 274.354 303.378 274.596 303.397C274.897 303.434 275.221 303.461 275.529 303.483C275.74 303.493 275.969 303.505 276.179 303.52C276.521 303.536 276.864 303.551 277.21 303.552C277.426 303.548 277.653 303.563 277.869 303.559C278.25 303.552 278.632 303.546 279.022 303.526C279.208 303.513 279.389 303.516 279.574 303.502C280.146 303.469 280.737 303.439 281.327 303.381C281.907 303.316 282.511 303.242 283.111 303.15C283.301 303.122 283.49 303.093 283.684 303.05C284.121 302.977 284.537 302.898 284.972 302.824C285.183 302.78 285.413 302.736 285.62 302.698C286.198 302.582 286.78 302.452 287.387 302.296C288.043 302.138 288.709 301.947 289.359 301.755C289.414 301.737 289.448 301.73 289.503 301.714C290.154 301.521 290.792 301.307 291.448 301.099C291.666 301.03 291.889 300.945 292.112 300.86C292.552 300.705 292.977 300.546 293.418 300.392C293.68 300.285 293.956 300.183 294.219 300.076C294.609 299.924 295.005 299.757 295.395 299.604C295.676 299.487 295.978 299.355 296.262 299.229C296.642 299.057 297.017 298.9 297.397 298.728C297.698 298.6 297.988 298.451 298.293 298.308L299.406 297.768C299.712 297.624 300.006 297.461 300.312 297.317C300.679 297.125 301.069 296.923 301.442 296.716C301.717 296.564 302.007 296.415 302.283 296.263C302.676 296.045 303.072 295.813 303.465 295.595C303.726 295.439 303.981 295.297 304.24 295.14C304.696 294.875 305.141 294.589 305.602 294.308L306.145 293.969C306.791 293.559 307.422 293.146 308.042 292.712C308.125 292.654 308.228 292.584 308.31 292.525C308.847 292.15 309.384 291.776 309.925 291.386C310.613 290.889 311.285 290.388 311.961 289.871C312.897 289.148 313.823 288.39 314.735 287.628C314.905 287.495 315.064 287.343 315.235 287.21C316.37 286.247 317.483 285.244 318.57 284.218C318.71 284.093 318.859 283.955 318.994 283.828C319.767 283.091 320.524 282.35 321.255 281.585C321.534 281.302 321.794 281.029 322.059 280.742C322.343 280.444 322.626 280.145 322.896 279.838C323.281 279.42 323.665 279.001 324.038 278.563C324.162 278.417 324.283 278.287 324.407 278.14C324.896 277.587 325.369 277.029 325.828 276.467C325.952 276.321 326.077 276.176 326.186 276.025C326.535 275.613 326.874 275.182 327.212 274.75C327.369 274.565 327.521 274.361 327.66 274.168C327.975 273.763 328.293 273.342 328.593 272.932L328.992 272.403C329.396 271.858 329.784 271.309 330.178 270.745C330.207 270.695 330.243 270.65 330.283 270.61C330.705 270.002 331.092 269.405 331.498 268.794C331.62 268.598 331.747 268.386 331.87 268.19C332.138 267.772 332.392 267.348 332.648 266.927C332.799 266.689 332.934 266.447 333.069 266.205L333.757 265.014C333.892 264.772 334.024 264.546 334.159 264.303C334.392 263.891 334.612 263.475 334.828 263.059C334.939 262.843 335.059 262.613 335.166 262.396C335.439 261.85 335.713 261.297 335.967 260.759C336.004 260.688 336.046 260.6 336.083 260.529C336.378 259.903 336.658 259.273 336.922 258.639C337.005 258.465 337.073 258.286 337.141 258.106C337.322 257.646 337.515 257.206 337.682 256.742C337.763 256.517 337.839 256.308 337.921 256.082C338.078 255.649 338.235 255.214 338.377 254.776C338.454 254.567 338.515 254.353 338.592 254.144C338.787 253.522 338.981 252.903 339.156 252.291C339.34 251.649 339.509 251.004 339.657 250.369C339.695 250.181 339.743 250.014 339.78 249.826C339.872 249.389 339.964 248.954 340.047 248.532C340.102 248.283 340.141 248.03 340.177 247.793C340.231 247.429 340.302 247.069 340.358 246.7C340.402 246.432 340.426 246.175 340.47 245.906C340.516 245.573 340.543 245.25 340.573 244.912C340.606 244.624 340.628 244.317 340.646 244.025L340.698 243.148C340.714 242.807 340.714 242.459 340.73 242.117C340.739 241.856 340.732 241.589 340.722 241.339C340.71 240.919 340.693 240.518 340.671 240.135C340.651 239.915 340.647 239.699 340.623 239.497C340.569 238.821 340.491 238.172 340.382 237.512C340.311 237.013 340.215 236.539 340.105 236.061L340.109 236.046C339.998 235.568 339.868 235.102 339.738 234.635C339.544 233.984 339.311 233.357 339.059 232.739C338.998 232.59 338.931 232.438 338.871 232.306C338.618 231.738 335.869 228.725 342.09 234.038C342.531 234.499 342.943 234.987 343.323 235.499C343.418 235.63 343.515 235.752 343.595 235.874C343.971 236.39 344.319 236.925 344.639 237.478L344.707 237.602C345.001 238.132 345.272 238.688 345.522 239.255C345.583 239.405 345.655 239.541 345.71 239.689C345.962 240.306 346.195 240.935 346.389 241.584C346.4 241.604 346.395 241.62 346.406 241.639C346.672 242.545 346.882 243.466 347.036 244.397C347.047 244.416 347.038 244.447 347.049 244.466C347.147 245.105 347.235 245.775 347.293 246.436C347.302 246.492 347.308 246.549 347.31 246.606C347.317 246.757 347.324 246.922 347.325 247.073L347.376 248.277C347.376 248.392 347.381 248.493 347.39 248.593C347.392 248.751 347.386 248.909 347.369 249.067C347.378 249.4 347.358 249.741 347.342 250.082C347.334 250.229 347.344 250.364 347.339 250.497C347.33 250.644 347.317 250.803 347.308 250.967C347.291 251.26 347.257 251.548 347.24 251.839C347.231 251.986 347.222 252.132 347.213 252.295C347.196 252.472 347.159 252.659 347.141 252.835C347.117 253.093 347.072 253.361 347.033 253.614C347.009 253.756 347.005 253.887 346.983 254.016C346.953 254.238 346.902 254.471 346.866 254.71C346.827 254.963 346.777 255.197 346.736 255.449C346.724 255.55 346.695 255.652 346.684 255.747C346.623 256.075 346.542 256.416 346.461 256.756C346.424 256.943 346.391 257.116 346.343 257.284C346.327 257.324 346.321 257.367 346.323 257.41C346.196 257.969 346.034 258.533 345.887 259.103L345.857 259.21C345.708 259.729 345.559 260.248 345.391 260.777C345.363 260.873 345.319 260.97 345.288 261.078C345.227 261.292 345.15 261.501 345.078 261.695C344.992 261.935 344.918 262.194 344.832 262.434C344.764 262.613 344.691 262.81 344.621 262.998C344.54 263.222 344.463 263.432 344.366 263.653C344.307 263.801 344.268 263.937 344.209 264.086C344.086 264.398 343.949 264.706 343.827 265.017C343.759 265.196 343.675 265.37 343.608 265.549C343.578 265.606 343.555 265.666 343.54 265.729C343.299 266.284 343.055 266.845 342.797 267.398L342.784 267.445L342.672 267.66C342.456 268.127 342.22 268.604 341.988 269.066C341.952 269.151 341.906 269.232 341.853 269.308C341.742 269.524 341.626 269.738 341.515 269.971C341.371 270.242 341.246 270.505 341.101 270.777C341.027 270.921 340.934 271.075 340.859 271.219C340.724 271.461 340.592 271.688 340.456 271.93C340.354 272.115 340.247 272.299 340.154 272.467C340.027 272.678 339.896 272.905 339.769 273.116C339.634 273.358 339.487 273.581 339.352 273.823C339.286 273.936 339.221 274.049 339.146 274.18C338.953 274.488 338.755 274.796 338.568 275.104C338.447 275.3 338.324 275.497 338.198 275.709C338.166 275.768 338.128 275.824 338.084 275.875C337.731 276.417 337.358 276.955 336.991 277.511C336.99 277.515 336.987 277.518 336.983 277.52C336.98 277.522 336.975 277.523 336.971 277.522C336.943 277.563 336.91 277.62 336.881 277.661C336.544 278.143 336.209 278.624 335.876 279.091C335.824 279.158 335.767 279.241 335.71 279.307L335.311 279.837C335.121 280.094 334.935 280.341 334.746 280.6C334.617 280.76 334.488 280.922 334.375 281.088C334.217 281.274 334.08 281.482 333.927 281.67C333.818 281.821 333.713 281.955 333.588 282.102L332.9 282.945C332.776 283.091 332.666 283.241 332.542 283.387C332.494 283.439 332.461 283.496 332.414 283.548C332.007 284.043 331.59 284.518 331.169 285.008C331.145 285.035 331.125 285.046 331.116 285.075C330.996 285.207 330.876 285.337 330.752 285.483C330.416 285.849 330.09 286.235 329.754 286.601C329.706 286.654 329.639 286.717 329.59 286.769C329.322 287.071 329.043 287.355 328.758 287.653C328.523 287.898 328.308 288.135 328.071 288.381C328.027 288.419 327.98 288.471 327.931 288.507C327.185 289.267 326.442 290.012 325.669 290.749C325.601 290.812 325.55 290.88 325.482 290.943C325.408 291.026 325.327 291.08 325.259 291.143C324.172 292.169 323.059 293.171 321.923 294.134C321.86 294.182 321.808 294.25 321.744 294.297L321.424 294.552C320.511 295.314 319.584 296.073 318.65 296.796L318.61 296.818C317.953 297.324 317.281 297.825 316.612 298.31C316.588 298.337 316.549 298.359 316.524 298.389C316.022 298.757 315.509 299.106 314.996 299.454C314.913 299.513 314.811 299.583 314.727 299.641L314.708 299.652C314.111 300.06 313.519 300.456 312.911 300.838L312.813 300.892L312.27 301.232L311.124 301.943C311.055 301.988 310.983 302.028 310.908 302.063C310.648 302.22 310.393 302.362 310.133 302.519C309.854 302.686 309.559 302.849 309.28 303.017C309.177 303.091 309.064 303.137 308.966 303.191C308.691 303.343 308.416 303.496 308.126 303.644C307.89 303.774 307.649 303.923 307.399 304.046C307.262 304.122 307.129 304.183 306.992 304.26C306.697 304.423 306.392 304.567 306.102 304.715C305.89 304.82 305.694 304.929 305.482 305.033L304.985 305.27C304.695 305.418 304.393 305.547 304.088 305.69C303.9 305.768 303.725 305.867 303.535 305.948C303.342 306.041 303.14 306.115 302.948 306.209C302.662 306.341 302.365 306.458 302.081 306.584C301.931 306.646 301.78 306.712 301.632 306.768L300.906 307.055C300.644 307.162 300.367 307.263 300.105 307.37C299.991 307.404 299.883 307.455 299.773 307.489C299.441 307.609 299.113 307.716 298.799 307.834C298.577 307.919 298.358 307.989 298.135 308.074C298.08 308.091 298.018 308.122 297.967 308.141C297.383 308.336 296.802 308.517 296.207 308.693L296.192 308.689C296.137 308.706 296.102 308.713 296.048 308.73C295.527 308.878 295.005 309.026 294.466 309.168C294.342 309.198 294.198 309.239 294.074 309.269C293.646 309.378 293.223 309.472 292.8 309.565C292.641 309.601 292.485 309.623 292.326 309.66C292.112 309.714 291.885 309.748 291.678 309.786C291.504 309.818 291.346 309.856 291.171 309.888C290.907 309.945 290.636 309.966 290.373 310.022C290.183 310.05 289.989 310.094 289.803 310.107C289.719 310.116 289.649 310.128 289.562 310.142C289.028 310.22 288.513 310.287 288.003 310.338C287.477 310.386 286.966 310.438 286.445 310.47C286.378 310.466 286.311 310.469 286.245 310.479C286.059 310.492 285.879 310.49 285.693 310.503C285.427 310.509 285.172 310.536 284.91 310.526C284.779 310.522 284.664 310.522 284.532 310.522C284.316 310.527 284.084 310.526 283.873 310.515C283.707 310.517 283.525 310.519 283.361 310.517C283.179 310.515 283.019 310.501 282.842 310.483C282.63 310.473 282.402 310.461 282.192 310.446C282.078 310.433 281.964 310.428 281.85 310.43C281.642 310.404 281.448 310.381 281.258 310.364C281.016 310.345 280.764 310.305 280.522 310.285C280.441 310.279 280.345 310.268 280.264 310.261C280.057 310.235 279.871 310.182 279.67 310.158C279.417 310.118 279.149 310.074 278.9 310.019C278.824 309.997 278.743 309.991 278.682 309.973C278.51 309.94 278.342 309.892 278.174 309.844C277.881 309.777 277.57 309.704 277.28 309.621C277.204 309.599 277.107 309.588 277.031 309.566C276.909 309.531 276.792 309.481 276.651 309.441L275.581 309.084C275.479 309.038 275.352 309.018 275.25 308.972C275.174 308.951 275.106 308.898 275.015 308.872C274.482 308.653 273.956 308.419 273.446 308.174C273.405 308.149 273.36 308.13 273.313 308.12C273.298 308.115 273.282 308.111 273.287 308.095C273.184 308.046 273.084 307.99 272.989 307.928C272.675 307.755 272.36 307.582 272.067 307.399C271.927 307.309 271.788 307.215 271.653 307.115C271.457 306.992 271.275 306.875 271.084 306.737C271.042 306.709 270.99 306.661 270.949 306.632C270.674 306.438 270.408 306.213 270.143 305.985C270.007 305.881 269.872 305.775 269.753 305.675C269.372 305.334 269.006 304.997 268.649 304.63C263.893 297.95 266.015 300.771 266.33 300.944Z" stroke="#FEF2EB"/>
<path d="M244.666 273.904C244.705 273.766 244.76 273.633 244.795 273.511C244.893 273.227 244.988 272.956 245.086 272.67L245.421 271.676C245.511 271.42 245.616 271.17 245.705 270.914C245.808 270.613 245.922 270.333 246.039 270.035L246.256 269.454C246.424 269.04 246.6 268.616 246.766 268.195C246.866 267.96 246.956 267.705 247.056 267.469C247.093 267.398 247.119 267.305 247.157 267.234C247.487 266.486 247.821 265.723 248.166 264.98C248.167 264.971 248.171 264.963 248.176 264.956C248.181 264.948 248.187 264.942 248.195 264.938C248.241 264.836 248.306 264.723 248.351 264.62C248.646 263.994 248.945 263.354 249.256 262.732C249.306 262.618 249.365 262.508 249.432 262.403C249.586 262.101 249.734 261.812 249.903 261.514L250.46 260.435C250.567 260.235 250.689 260.038 250.796 259.838C250.973 259.509 251.146 259.195 251.338 258.869L251.744 258.143C251.912 257.845 252.092 257.566 252.26 257.267C252.456 256.944 252.64 256.634 252.832 256.308L253.114 255.844C253.367 255.421 253.632 255.017 253.9 254.599C254.079 254.339 254.234 254.071 254.408 253.809C254.461 253.741 254.502 253.654 254.554 253.586C255.03 252.848 255.522 252.113 256.028 251.383C256.033 251.368 256.033 251.368 256.053 251.357C256.091 251.294 256.135 251.235 256.185 251.181C256.635 250.534 257.085 249.886 257.55 249.243C257.629 249.147 257.702 249.047 257.769 248.942C257.954 248.698 258.125 248.45 258.306 248.222C258.554 247.877 258.813 247.541 259.062 247.199C259.228 246.983 259.4 246.768 259.561 246.55C259.765 246.296 259.975 246.025 260.165 245.765C260.323 245.579 260.461 245.37 260.613 245.183C260.919 244.808 261.229 244.418 261.549 244.047C261.722 243.849 261.88 243.646 262.035 243.443C262.087 243.376 262.159 243.297 262.211 243.23C262.766 242.563 263.318 241.912 263.902 241.253L263.975 241.17C264.143 240.987 264.311 240.804 264.465 240.617C264.905 240.119 265.347 239.614 265.803 239.117L266.019 238.882C266.399 238.479 266.779 238.076 267.154 237.687C267.463 237.36 267.758 237.034 268.055 236.723C268.108 236.656 268.17 236.608 268.219 236.556C269.225 235.523 270.242 234.509 271.286 233.521C271.377 233.432 271.454 233.338 271.542 233.263C271.813 233.01 272.079 232.773 272.35 232.52C272.778 232.115 273.207 231.709 273.655 231.309L274.847 230.263L276.17 229.106C276.321 228.984 276.46 228.843 276.611 228.721C276.763 228.599 276.907 228.494 277.044 228.366C278.281 227.333 279.53 226.321 280.805 225.332C280.809 225.317 280.825 225.321 280.829 225.306C281.718 224.625 282.64 223.942 283.542 223.275C283.588 223.248 283.632 223.216 283.673 223.181C284.341 222.695 285.019 222.229 285.698 221.763C285.829 221.668 285.967 221.576 286.092 221.479C286.096 221.464 286.111 221.468 286.116 221.453C286.916 220.907 287.728 220.379 288.54 219.852C288.585 219.831 288.627 219.804 288.667 219.773C288.912 219.612 289.151 219.466 289.411 219.309C289.935 218.981 290.439 218.663 290.959 218.349L291.253 218.186C291.596 217.972 291.95 217.775 292.303 217.578L293.455 216.901C293.592 216.825 293.745 216.753 293.887 216.661C294.258 216.456 294.647 216.255 295.021 216.045C295.351 215.876 295.67 215.686 295.999 215.516C296.176 215.418 296.366 215.324 296.559 215.231C296.967 215.017 297.371 214.819 297.775 214.621C298.06 214.489 298.335 214.335 298.627 214.188C298.839 214.084 299.065 213.983 299.293 213.884C299.695 213.687 300.096 213.503 300.494 213.32C300.741 213.209 300.992 213.083 301.238 212.972C301.504 212.849 301.766 212.743 302.033 212.621C302.427 212.453 302.807 212.282 303.202 212.114C303.41 212.025 303.601 211.931 303.804 211.857C304.14 211.722 304.472 211.602 304.792 211.463C305.146 211.317 305.518 211.176 305.87 211.044L306.315 210.874C306.76 210.704 307.197 210.565 307.637 210.41C307.934 210.297 308.226 210.2 308.538 210.09C308.613 210.062 308.703 210.034 308.777 210.01C309.565 209.741 310.358 209.505 311.152 209.271C311.157 209.272 311.161 209.272 311.165 209.27C311.168 209.268 311.171 209.264 311.172 209.26C311.231 209.239 311.291 209.221 311.353 209.208C312.073 208.998 312.777 208.79 313.503 208.619L314.04 208.475C314.626 208.331 315.193 208.195 315.776 208.065C315.989 208.011 316.217 207.977 316.423 207.938C316.722 207.875 317.021 207.812 317.3 207.76C317.529 207.71 317.758 207.661 317.983 207.625C318.347 207.564 318.691 207.516 319.055 207.454C319.315 207.413 319.574 207.372 319.82 207.327L320.134 207.268C320.839 207.173 321.542 207.077 322.24 207.013C322.955 206.937 323.646 206.888 324.338 206.838C324.423 206.829 324.519 206.84 324.604 206.832C324.854 206.822 325.105 206.811 325.342 206.797L326.395 206.752C326.561 206.75 326.743 206.748 326.908 206.75L327.797 206.758L328.491 206.759C328.737 206.763 328.96 206.79 329.191 206.794L330.068 206.847C330.23 206.86 330.379 206.854 330.538 206.878C330.811 206.906 331.079 206.951 331.336 206.975C331.674 207.005 332.008 207.052 332.326 207.093C332.437 207.108 332.568 207.112 332.679 207.129C332.947 207.172 333.211 207.231 333.479 207.276C333.824 207.341 334.174 207.393 334.517 207.458C334.618 207.468 334.717 207.485 334.815 207.51C335.048 207.56 335.262 207.622 335.492 207.688L336.695 207.983C336.802 208.013 336.928 208.033 337.035 208.064C337.203 208.112 337.366 208.175 337.53 208.239C338.029 208.399 338.513 208.554 338.988 208.739C339.137 208.798 339.294 208.827 339.427 208.882C339.621 208.954 339.826 209.046 340.016 209.133C340.164 209.192 340.313 209.251 340.456 209.325C340.984 209.559 341.511 209.793 342.015 210.053C342.031 210.058 342.042 210.078 342.057 210.082C342.201 210.157 342.324 210.241 342.454 210.311C342.866 210.545 343.298 210.768 343.69 211.012C343.886 211.135 344.063 211.268 344.259 211.39C344.506 211.565 344.775 211.72 345.024 211.89C345.08 211.938 345.139 211.982 345.201 212.023C345.584 212.298 345.933 212.579 346.293 212.881C346.463 213.034 346.641 213.163 346.813 213.311C347.335 213.758 347.833 214.232 348.306 214.731L354.969 221.679C354.5 221.182 353.988 220.721 353.476 220.26C353.306 220.107 353.127 219.978 352.956 219.83C352.596 219.528 352.232 219.242 351.864 218.972C351.563 218.753 351.242 218.546 350.926 218.323C350.73 218.2 350.553 218.067 350.357 217.946C349.95 217.696 349.538 217.463 349.122 217.245C348.978 217.17 348.855 217.086 348.71 217.011C348.191 216.747 347.653 216.493 347.095 216.251C346.947 216.191 346.798 216.132 346.655 216.058C346.318 215.911 345.971 215.795 345.625 215.659C345.146 215.488 344.666 215.317 344.167 215.158C343.892 215.079 343.607 214.981 343.332 214.902C342.935 214.788 342.534 214.69 342.129 214.607L341.139 214.373C340.794 214.308 340.449 214.241 340.101 214.191C339.721 214.132 339.347 214.057 338.947 214.009C338.614 213.963 338.291 213.936 337.958 213.891C337.539 213.853 337.11 213.796 336.687 213.774L335.809 213.721C335.352 213.705 334.878 213.685 334.421 213.669L333.531 213.662C333.019 213.664 332.503 213.679 331.97 213.693C331.72 213.703 331.489 213.703 331.232 213.728C330.46 213.771 329.668 213.825 328.867 213.91C328.067 213.992 327.261 214.093 326.448 214.224C326.188 214.265 325.929 214.306 325.683 214.351C325.109 214.451 324.52 214.546 323.931 214.658C323.636 214.706 323.353 214.773 323.054 214.836C322.261 215.005 321.47 215.175 320.669 215.375C319.779 215.598 318.884 215.838 317.981 216.107L317.816 216.164C316.932 216.422 316.06 216.701 315.185 216.995C314.892 217.093 314.596 217.206 314.284 217.315L312.515 217.952C312.161 218.098 311.793 218.225 311.437 218.371C310.899 218.58 310.379 218.796 309.832 219.018C309.437 219.185 309.042 219.353 308.663 219.525C308.154 219.742 307.642 219.975 307.129 220.209C306.73 220.392 306.326 220.59 305.927 220.772C305.429 221.009 304.927 221.262 304.425 221.514C304.022 221.711 303.613 221.925 303.21 222.124C302.703 222.394 302.182 222.655 301.672 222.938C301.301 223.144 300.912 223.345 300.539 223.55C300.008 223.844 299.473 224.152 298.939 224.462C298.585 224.658 298.247 224.859 297.889 225.069C297.272 225.437 296.664 225.825 296.044 226.205C295.8 226.366 295.559 226.512 295.304 226.653C294.438 227.198 293.583 227.762 292.739 228.346C292.607 228.44 292.47 228.533 292.345 228.629C291.622 229.132 290.905 229.621 290.194 230.143C289.276 230.804 288.372 231.487 287.481 232.174C287.476 232.189 287.461 232.185 287.457 232.2C286.186 233.173 284.933 234.202 283.696 235.234C283.41 235.483 283.108 235.726 282.822 235.975L281.499 237.132C281.102 237.481 280.704 237.829 280.322 238.182C279.877 238.583 279.447 238.988 279.017 239.393C278.659 239.72 278.297 240.062 277.954 240.393C276.911 241.382 275.893 242.396 274.887 243.428C274.515 243.801 274.16 244.178 273.799 244.573C273.419 244.976 273.044 245.364 272.664 245.767C272.135 246.344 271.627 246.906 271.114 247.486C270.946 247.669 270.778 247.853 270.606 248.051C269.945 248.798 269.313 249.563 268.666 250.319C268.494 250.518 268.337 250.72 268.181 250.924C267.722 251.486 267.259 252.063 266.797 252.641C266.587 252.912 266.382 253.166 266.172 253.437L264.901 255.104C264.716 255.348 264.55 255.582 264.364 255.826C263.817 256.577 263.292 257.319 262.762 258.071C262.723 258.134 262.679 258.193 262.629 258.248C262.065 259.061 261.517 259.878 261 260.704C260.821 260.965 260.666 261.232 260.492 261.494C260.129 262.068 259.772 262.626 259.424 263.203C259.227 263.526 259.044 263.838 258.851 264.162C258.533 264.695 258.23 265.24 257.926 265.78C257.753 266.093 257.561 266.418 257.388 266.733C257.08 267.288 256.787 267.848 256.492 268.408C256.339 268.711 256.175 268.995 256.022 269.298C255.647 270.032 255.286 270.771 254.94 271.514C254.894 271.617 254.829 271.73 254.783 271.832C254.392 272.678 254.016 273.528 253.655 274.383C253.554 274.618 253.45 274.869 253.364 275.109C253.105 275.728 252.864 276.337 252.619 276.96C252.501 277.257 252.403 277.542 252.285 277.839C252.068 278.421 251.868 279.008 251.666 279.595C251.568 279.879 251.474 280.15 251.375 280.436C251.104 281.267 250.847 282.102 250.607 282.941C250.357 283.811 250.139 284.69 249.928 285.538C249.873 285.786 249.823 286.02 249.773 286.253C249.638 286.838 249.516 287.435 249.4 288.012C249.339 288.341 249.277 288.671 249.231 289.004C249.142 289.49 249.062 289.996 248.992 290.472C248.938 290.836 248.891 291.187 248.852 291.539C248.791 291.984 248.744 292.433 248.698 292.882C248.663 293.289 248.636 293.674 248.603 294.077C248.569 294.481 248.556 294.873 248.543 295.266C248.522 295.74 248.507 296.197 248.511 296.644C248.51 297.007 248.506 297.354 248.519 297.704C248.527 298.251 248.55 298.803 248.578 299.339C248.6 299.627 248.608 299.926 248.626 300.212C248.694 301.124 248.802 302.014 248.95 302.882C249.054 303.556 249.177 304.22 249.337 304.876L249.332 304.891C249.476 305.543 249.654 306.189 249.84 306.806C249.886 306.934 249.916 307.058 249.962 307.187C250.107 307.658 250.273 308.119 250.443 308.564C250.506 308.747 250.584 308.935 250.652 309.102C250.815 309.512 250.993 309.928 251.177 310.326L251.392 310.784C251.653 311.322 251.914 311.842 252.217 312.342C252.26 312.421 252.309 312.484 252.342 312.543C252.596 312.979 252.87 313.405 253.149 313.815C253.256 313.961 253.363 314.107 253.465 314.269L254.217 315.277C254.327 315.413 254.435 315.554 254.546 315.684C254.916 316.121 255.287 316.557 255.682 316.967L249.019 310.019C248.625 309.608 248.253 309.175 247.884 308.735C247.774 308.599 247.666 308.458 247.555 308.329C247.3 308.008 247.05 307.672 246.804 307.321C246.697 307.174 246.59 307.028 246.487 306.867C246.209 306.456 245.934 306.031 245.68 305.595C245.635 305.526 245.595 305.453 245.56 305.378C245.277 304.868 244.993 304.357 244.734 303.82L244.519 303.362C244.336 302.964 244.153 302.564 243.994 302.138C243.931 301.955 243.848 301.784 243.786 301.6C243.616 301.155 243.454 300.679 243.305 300.223C243.26 300.095 243.229 299.971 243.184 299.842C243.177 299.807 243.155 299.767 243.151 299.729C242.975 299.133 242.814 298.542 242.676 297.928L242.68 297.912C242.545 297.295 242.414 296.664 242.314 296.023C242.307 295.988 242.316 295.958 242.305 295.939C242.157 295.07 242.065 294.184 241.98 293.269C241.971 293.184 241.958 293.113 241.941 293.043C241.917 292.839 241.932 292.611 241.908 292.409C241.88 291.873 241.853 291.337 241.849 290.774C241.842 290.623 241.827 290.487 241.825 290.337C241.817 290.137 241.843 289.913 241.837 289.717C241.838 289.254 241.854 288.797 241.87 288.338C241.876 288.141 241.874 287.96 241.881 287.78C241.892 287.568 241.919 287.361 241.93 287.15C241.959 286.762 241.991 286.358 242.025 285.955C242.051 285.748 242.059 285.548 242.068 285.343C242.087 285.101 242.143 284.852 242.163 284.61C242.198 284.258 242.249 283.907 242.303 283.544C242.321 283.367 242.343 283.176 242.376 283.003C242.428 282.706 242.486 282.391 242.538 282.075C242.599 281.746 242.646 281.412 242.711 281.068C242.735 280.926 242.755 280.799 242.779 280.657C242.875 280.206 242.972 279.755 243.084 279.308C243.139 279.059 243.189 278.826 243.239 278.593C243.256 278.532 243.258 278.467 243.272 278.42C243.455 277.664 243.655 276.911 243.878 276.133L243.917 275.995C244.204 275.312 244.453 274.614 244.666 273.904Z" stroke="#FEF2EB"/>
<path d="M320.727 215.325C350.947 207.803 368.577 225.858 360.113 255.672C351.65 285.486 320.319 315.765 290.1 323.286C259.876 330.823 242.228 312.763 250.692 282.948C259.137 253.145 290.495 222.875 320.727 215.325ZM267.112 302.706C272.059 309.591 281.624 312.35 294.076 309.248C316.433 303.684 339.623 281.279 345.881 259.223C349.321 247.111 346.937 237.624 340.391 232.46C340.392 232.458 340.392 232.456 340.392 232.454C340.392 232.451 340.391 232.449 340.39 232.448C340.389 232.446 340.388 232.444 340.386 232.443C340.384 232.442 340.382 232.441 340.38 232.44C335.007 228.195 326.82 226.851 316.735 229.36C294.373 234.94 271.183 257.344 264.925 279.401C262.159 289.163 263.166 297.231 267.101 302.687C267.097 302.7 267.108 302.721 267.112 302.706Z" stroke="#FEF2EB"/>
<path d="M329.113 191.711L322.071 176.767L322.734 176.454L329.685 191.207L337.117 191.777L337.384 192.562C337.384 192.562 329.17 191.827 329.113 191.711ZM310.615 194.039L302.742 193.384C302.681 193.379 302.622 193.358 302.571 193.324L290.656 185.464C290.601 185.428 290.557 185.378 290.528 185.32C290.499 185.261 290.487 185.196 290.492 185.131L292.24 161.905C290.313 159.059 288.654 156.04 287.286 152.886L287.958 152.591C289.324 155.742 290.984 158.757 292.917 161.596C292.964 161.665 292.987 161.748 292.98 161.832L291.242 184.97L302.899 192.66L310.678 193.308L310.615 194.039ZM326.871 151.61C324.898 152.726 322.751 153.504 320.52 153.909L320.394 153.187C325.492 152.306 330.559 149.021 335.05 143.691C339.691 138.186 343.502 130.727 346.069 122.12C353.529 97.1085 348.571 69.1092 335.016 59.7033C333.647 58.7418 332.151 57.9777 330.569 57.4333L330.804 56.7382C332.45 57.3053 334.008 58.101 335.432 59.1021C349.228 68.6742 354.313 97.0384 346.77 122.33C344.175 131.033 340.315 138.584 335.611 144.165C333.172 147.155 330.211 149.678 326.871 151.61ZM281.568 153.892L273.696 153.236C273.615 153.229 273.539 153.196 273.48 153.142C273.42 153.088 273.38 153.015 273.366 152.935L269.454 130.969C269.437 130.875 269.458 130.778 269.512 130.699L280.129 115.041C280.127 109.829 280.453 104.623 281.106 99.4525L272.413 84.8885C272.387 84.8449 272.371 84.7965 272.364 84.7462C272.358 84.6958 272.362 84.6448 272.377 84.5962L279.102 62.0333C279.126 61.9526 279.177 61.8826 279.246 61.8351C279.316 61.7876 279.4 61.7656 279.484 61.7726L287.356 62.4281L287.294 63.1588L279.719 62.5283L273.127 84.6508L281.802 99.1856C281.844 99.2559 281.861 99.3383 281.85 99.4195C281.187 104.638 280.857 109.893 280.864 115.153C280.864 115.227 280.842 115.299 280.801 115.359L270.203 130.987L274.04 152.532L281.631 153.164L281.568 153.892ZM377.363 58.1957L369.532 57.5447L363.442 58.4139L363.338 57.6879L369.469 56.813C369.497 56.8091 369.524 56.8083 369.552 56.8108L377.424 57.4654L377.363 58.1957ZM292.55 63.128L291.898 62.793C292.55 61.5163 298.64 51.7358 299.376 50.4641L300.01 50.8307C299.281 52.0869 293.197 61.8578 292.548 63.1245L292.55 63.128ZM330.405 35.6021C329.831 35.5194 329.828 34.9576 330.339 35.0254L340.147 16.8453C340.182 16.7844 340.233 16.7346 340.295 16.7018C340.357 16.6691 340.427 16.6548 340.497 16.6607L348.369 17.3162L348.309 18.0465L340.67 17.4102L330.954 35.4829C330.78 35.5597 330.593 35.5991 330.403 35.5986L330.405 35.6021ZM300.009 50.8312L299.276 50.8064L300.011 28.4192C300.013 28.364 300.027 28.3098 300.053 28.2609C300.079 28.212 300.115 28.1695 300.16 28.1366L313.586 18.2067C313.658 18.154 313.747 18.1289 313.835 18.1361L321.722 18.8067L321.66 19.5374L313.911 18.879L300.738 28.6212L300.009 50.8312Z" fill="#FEF2EB"/>
<path d="M337.494 192.528C337.45 192.553 337.401 192.568 337.351 192.573C337.301 192.578 337.251 192.572 337.203 192.557C337.155 192.541 337.111 192.516 337.073 192.483C337.035 192.45 337.005 192.409 336.984 192.364L329.394 176.257C326.547 176.945 323.597 177.107 320.691 176.734L310.962 193.85C310.937 193.894 310.904 193.932 310.864 193.962C310.823 193.992 310.778 194.014 310.729 194.026C310.68 194.037 310.629 194.039 310.58 194.03C310.53 194.022 310.483 194.003 310.441 193.975L298.526 186.115C298.471 186.079 298.427 186.029 298.398 185.971C298.369 185.912 298.357 185.847 298.362 185.782L300.111 162.556C297.889 159.261 296.019 155.743 294.533 152.058L281.654 153.893C281.56 153.907 281.464 153.883 281.387 153.828C281.31 153.772 281.258 153.688 281.242 153.595L277.33 131.628C277.313 131.534 277.334 131.437 277.387 131.358L288.005 115.701C288.003 110.49 288.33 105.283 288.982 100.113L280.289 85.5478C280.263 85.5042 280.246 85.4556 280.24 85.4051C280.234 85.3547 280.238 85.3035 280.252 85.2547L286.978 62.6913C287.001 62.6137 287.05 62.5459 287.116 62.4987C287.182 62.4514 287.261 62.4273 287.342 62.43L300.116 62.8579C302.128 58.9142 304.469 55.1476 307.116 51.5981L307.879 29.0727C307.881 29.0174 307.895 28.9632 307.921 28.9143C307.947 28.8653 307.983 28.8229 308.028 28.7901L321.456 18.8628C321.5 18.831 321.551 18.8092 321.605 18.7992C321.658 18.7892 321.714 18.7911 321.767 18.8048C321.819 18.8181 321.868 18.8428 321.91 18.8772C321.952 18.9115 321.985 18.9547 322.008 19.0036L329.599 35.1039C332.446 34.4141 335.396 34.2523 338.302 34.6265L348.02 17.5022C348.045 17.4578 348.079 17.4191 348.12 17.3887C348.161 17.3582 348.207 17.3366 348.257 17.3253C348.307 17.314 348.358 17.3132 348.408 17.323C348.458 17.3328 348.506 17.3529 348.548 17.3821L360.806 25.8956C360.859 25.9326 360.901 25.983 360.929 26.0418C360.956 26.1006 360.967 26.1656 360.961 26.2302L358.88 48.8103C361.1 52.1059 362.971 55.6238 364.462 59.3069L377.342 57.4685C377.436 57.4549 377.532 57.4785 377.609 57.5342C377.686 57.59 377.738 57.6735 377.754 57.7671L381.668 79.7327C381.684 79.8267 381.664 79.9234 381.61 80.0025L370.983 95.6613C370.987 100.873 370.66 106.079 370.005 111.249L378.705 125.812C378.731 125.855 378.747 125.904 378.754 125.954C378.76 126.005 378.756 126.056 378.741 126.105L372.013 148.663C371.989 148.74 371.941 148.808 371.875 148.855C371.809 148.902 371.73 148.926 371.649 148.924L358.871 148.501C356.866 152.447 354.522 156.212 351.866 159.753L351.108 182.282C351.107 182.337 351.092 182.391 351.067 182.44C351.041 182.489 351.005 182.532 350.961 182.564L337.536 192.505C337.522 192.514 337.508 192.521 337.494 192.528ZM320.319 176.019C320.389 175.98 320.469 175.965 320.548 175.977C323.539 176.389 326.583 176.217 329.509 175.471C329.591 175.45 329.678 175.459 329.755 175.495C329.831 175.531 329.893 175.593 329.929 175.67L337.455 191.644L350.381 182.077L351.137 159.609C351.139 159.533 351.165 159.459 351.211 159.399C353.916 155.803 356.296 151.974 358.323 147.957C358.354 147.895 358.403 147.843 358.463 147.807C358.523 147.772 358.592 147.754 358.662 147.757L371.389 148.179L377.991 126.041L369.309 111.509C369.267 111.439 369.25 111.356 369.26 111.274C369.927 106.057 370.257 100.801 370.248 95.5412C370.248 95.4676 370.27 95.3957 370.311 95.3348L380.919 79.7063L377.094 58.2349L364.282 60.0647C364.201 60.0762 364.118 60.0604 364.047 60.0197C363.977 59.9789 363.921 59.9157 363.891 59.8399C362.384 56.0686 360.476 52.4704 358.199 49.1074C358.15 49.0367 358.128 48.9511 358.136 48.8656L360.21 26.3665L348.457 18.2032L338.819 35.2037C338.782 35.268 338.727 35.3197 338.661 35.3522C338.595 35.3846 338.52 35.3963 338.447 35.3857C335.455 34.9681 332.411 35.1372 329.484 35.8835C329.402 35.9039 329.315 35.8951 329.239 35.8587C329.162 35.8223 329.101 35.7604 329.065 35.6837L321.537 19.7169L308.613 29.2757L307.851 51.7397C307.848 51.8153 307.822 51.8884 307.777 51.9488C305.079 55.5526 302.699 59.3834 300.662 63.398C300.631 63.4601 300.582 63.5118 300.522 63.5471C300.462 63.5824 300.393 63.5998 300.323 63.5974L287.601 63.1718L280.999 85.3108L289.675 99.8455C289.717 99.9159 289.734 99.9982 289.723 100.079C289.059 105.298 288.73 110.553 288.736 115.813C288.737 115.887 288.715 115.958 288.673 116.019L278.076 131.647L281.899 153.113L294.71 151.287C294.791 151.275 294.873 151.291 294.944 151.332C295.015 151.373 295.07 151.436 295.101 151.512C296.603 155.285 298.51 158.884 300.79 162.246C300.837 162.315 300.859 162.398 300.853 162.482L299.111 185.621L310.52 193.147L320.179 176.161C320.212 176.102 320.261 176.054 320.32 176.021L320.319 176.019ZM334.786 152.246C333.694 152.855 332.552 153.37 331.373 153.786C328.779 154.739 325.989 155.037 323.252 154.655C320.515 154.273 317.914 153.222 315.681 151.594C301.885 142.029 296.798 113.662 304.341 88.3601C309.067 72.5235 317.769 61.0144 327.613 57.5635C330.208 56.6104 332.998 56.3121 335.735 56.695C338.473 57.0779 341.074 58.1302 343.308 59.7587C357.104 69.3313 362.19 97.6951 354.646 122.987C350.477 136.965 343.21 147.578 334.786 152.247L334.786 152.246ZM324.545 59.7489C316.299 64.3195 309.162 74.7738 305.045 88.5706C297.585 113.591 302.544 141.593 316.1 150.993C318.239 152.552 320.73 153.56 323.352 153.926C325.974 154.293 328.646 154.007 331.132 153.095C340.762 149.723 349.289 138.39 353.944 122.778C361.405 97.7665 356.446 69.7668 342.891 60.3618C340.751 58.802 338.26 57.794 335.637 57.4268C333.015 57.0596 330.342 57.3446 327.856 58.2566C326.713 58.6605 325.606 59.1606 324.546 59.7515L324.545 59.7489Z" fill="#FEF2EB"/>
<path d="M325.074 139.993C324.896 140.084 324.716 140.172 324.534 140.258L324.222 139.595C324.393 139.514 324.565 139.429 324.737 139.341L325.074 139.993ZM326.124 139.411L325.746 138.783C325.909 138.685 326.072 138.583 326.235 138.479L326.632 139.095C326.46 139.203 326.29 139.308 326.12 139.41L326.124 139.411ZM327.616 138.419L327.184 137.827C327.338 137.714 327.491 137.599 327.644 137.481L328.092 138.061C327.932 138.184 327.773 138.304 327.616 138.419ZM323.435 140.727C323.246 140.8 323.057 140.867 322.867 140.928L322.634 140.232C322.814 140.172 322.994 140.108 323.172 140.039L323.435 140.727ZM329.017 137.306L328.539 136.751C328.683 136.626 328.828 136.498 328.973 136.369L329.463 136.913C329.315 137.047 329.166 137.178 329.017 137.306ZM321.716 141.263C321.52 141.31 321.323 141.354 321.127 141.392L320.983 140.671C321.169 140.635 321.355 140.594 321.541 140.549L321.716 141.263ZM330.331 136.094L329.815 135.574C329.951 135.439 330.086 135.301 330.221 135.162L330.747 135.671C330.603 135.817 330.462 135.958 330.324 136.095L330.331 136.094ZM331.558 134.799L331.011 134.311C331.139 134.168 331.265 134.022 331.39 133.872L331.947 134.348C331.815 134.502 331.682 134.654 331.55 134.802L331.558 134.799ZM332.704 133.437L332.13 132.981C332.25 132.83 332.368 132.678 332.486 132.524L333.068 132.969C332.948 133.127 332.826 133.283 332.703 133.437L332.704 133.437ZM333.772 132.014L333.175 131.589C333.287 131.433 333.398 131.274 333.509 131.114L334.112 131.53C333.994 131.694 333.877 131.857 333.761 132.018L333.772 132.014ZM334.769 130.547L334.153 130.149C334.257 129.987 334.361 129.824 334.464 129.659L335.087 130.046C334.982 130.215 334.876 130.381 334.769 130.547ZM335.696 129.031L335.062 128.663C335.159 128.495 335.257 128.327 335.354 128.158L335.992 128.518C335.887 128.69 335.785 128.861 335.686 129.031L335.696 129.031ZM336.554 127.482L335.906 127.139C335.996 126.968 336.085 126.796 336.174 126.622L336.827 126.957C336.732 127.132 336.639 127.306 336.548 127.48L336.554 127.482ZM337.351 125.896L336.689 125.576C336.773 125.402 336.856 125.226 336.939 125.05L337.603 125.36C337.52 125.539 337.435 125.717 337.35 125.894L337.351 125.896ZM338.09 124.285L337.419 123.99C337.496 123.814 337.573 123.636 337.648 123.456L338.324 123.742C338.243 123.923 338.163 124.104 338.085 124.285L338.09 124.285ZM338.772 122.649L338.091 122.378C338.162 122.198 338.233 122.017 338.303 121.835L338.988 122.098C338.917 122.283 338.846 122.466 338.773 122.648L338.772 122.649ZM339.398 120.992L338.709 120.744C338.775 120.562 338.84 120.379 338.904 120.194L339.596 120.435C339.532 120.623 339.466 120.809 339.399 120.991L339.398 120.992ZM339.972 119.317L339.275 119.091C339.334 118.906 339.393 118.721 339.452 118.535L340.147 118.757C340.086 118.944 340.025 119.13 339.964 119.316L339.972 119.317ZM340.495 117.625L339.792 117.419C339.848 117.236 339.901 117.049 339.952 116.859L340.658 117.059C340.601 117.247 340.545 117.435 340.489 117.624L340.495 117.625ZM340.967 115.921L340.258 115.735C340.307 115.548 340.355 115.36 340.403 115.171L341.114 115.349C341.067 115.54 341.02 115.73 340.972 115.919L340.967 115.921ZM341.387 114.202L340.673 114.036C340.717 113.847 340.76 113.657 340.802 113.468L341.518 113.627C341.475 113.818 341.431 114.01 341.387 114.202ZM341.761 112.474L341.042 112.329C341.081 112.139 341.118 111.948 341.155 111.758L341.875 111.896C341.836 112.089 341.798 112.282 341.759 112.475L341.761 112.474ZM342.086 110.737L341.364 110.612C341.397 110.421 341.429 110.23 341.46 110.039L342.183 110.157C342.152 110.351 342.119 110.544 342.086 110.737ZM342.363 108.992L341.638 108.888C341.665 108.696 341.692 108.504 341.717 108.312L342.444 108.41C342.417 108.604 342.389 108.799 342.362 108.993L342.363 108.992ZM342.592 107.242L341.86 107.159C341.882 106.967 341.903 106.774 341.924 106.582L342.654 106.66C342.637 106.855 342.616 107.049 342.589 107.242L342.592 107.242ZM342.771 105.486L342.041 105.422C342.058 105.229 342.074 105.035 342.089 104.843L342.818 104.896C342.802 105.091 342.785 105.286 342.768 105.482L342.771 105.486ZM342.902 103.722L342.17 103.679C342.182 103.485 342.193 103.29 342.203 103.097L342.936 103.134C342.926 103.33 342.915 103.527 342.903 103.724L342.902 103.722ZM342.984 101.955L342.251 101.931C342.258 101.736 342.264 101.541 342.271 101.348L343.005 101.364C343 101.561 342.994 101.757 342.989 101.954L342.984 101.955ZM343.015 100.185L342.283 100.182C342.283 99.9869 342.283 99.7927 342.281 99.599L343.014 99.5952C343.016 99.7919 343.017 99.9881 343.015 100.185ZM342.996 98.4147L342.263 98.4342C342.258 98.2394 342.252 98.0449 342.245 97.8505L342.978 97.8252C342.985 98.021 342.991 98.2175 342.996 98.4147ZM342.929 96.6433L342.197 96.6834C342.186 96.4889 342.174 96.2949 342.161 96.1014L342.893 96.0537C342.902 96.251 342.912 96.4483 342.923 96.6458L342.929 96.6433ZM342.808 94.8805L342.077 94.9425C342.06 94.7488 342.043 94.5554 342.024 94.3621L342.754 94.2917C342.773 94.487 342.791 94.683 342.807 94.8796L342.808 94.8805ZM342.631 93.1165L341.903 93.2021C341.88 93.0081 341.856 92.8154 341.832 92.6239L342.558 92.5298C342.584 92.7246 342.608 92.9201 342.631 93.1165ZM342.394 91.3604L341.669 91.4705C341.639 91.2783 341.609 91.0865 341.579 90.8949L342.302 90.7763C342.326 90.9706 342.353 91.1651 342.382 91.36L342.394 91.3604ZM342.099 89.6126L341.374 89.75C341.339 89.5587 341.302 89.3678 341.264 89.1774L341.985 89.0331C342.017 89.2269 342.052 89.42 342.087 89.6122L342.099 89.6126ZM341.741 87.8756L341.029 88.0348C340.986 87.845 340.942 87.656 340.898 87.4681L341.612 87.3007C341.646 87.49 341.686 87.6818 341.73 87.876L341.741 87.8756ZM341.319 86.1524L340.61 86.3406C340.56 86.1526 340.509 85.9655 340.457 85.7793L341.163 85.5814C341.216 85.7708 341.268 85.9611 341.319 86.1524ZM340.831 84.4455L340.13 84.6625C340.072 84.4769 340.014 84.2925 339.953 84.1094L340.65 83.8823C340.711 84.069 340.771 84.2572 340.83 84.4469L340.831 84.4455ZM340.265 82.7616L339.575 83.0104C339.509 82.8281 339.442 82.6464 339.374 82.4655L340.059 82.2057C340.121 82.3912 340.185 82.5768 340.251 82.7627L340.265 82.7616ZM339.623 81.1047L338.946 81.3869C338.871 81.2074 338.795 81.0296 338.718 80.8534L339.39 80.5598C339.459 80.7405 339.532 80.9225 339.608 81.1058L339.623 81.1047ZM338.895 79.481L338.235 79.7988C338.151 79.6235 338.066 79.4501 337.979 79.2786L338.633 78.9481C338.712 79.1247 338.794 79.3029 338.88 79.4825L338.895 79.481ZM337.436 78.256C337.342 78.0863 337.247 77.9185 337.149 77.7528L337.783 77.3833C337.884 77.5564 337.982 77.7285 338.077 77.8996L337.436 78.256ZM336.544 76.7683C336.439 76.6056 336.332 76.445 336.225 76.2866L336.831 75.8739C336.942 76.0372 337.052 76.2026 337.16 76.37L336.544 76.7683ZM335.552 75.3488C335.435 75.1946 335.317 75.0428 335.197 74.8932L335.769 74.4354C335.893 74.5896 336.015 74.7465 336.136 74.9062L335.552 75.3488ZM334.451 74.0141C334.323 73.8703 334.193 73.7297 334.061 73.5923L334.591 73.0856C334.729 73.2291 334.864 73.3752 334.998 73.5238L334.451 74.0141ZM333.24 72.7866C333.099 72.6562 332.956 72.5289 332.811 72.4045L333.289 71.8482C333.437 71.9786 333.587 72.1111 333.738 72.2456L333.24 72.7866ZM331.917 71.6902C331.79 71.5989 331.663 71.5085 331.537 71.4189L331.448 71.3542L331.86 70.7482L331.952 70.8115C332.086 70.9037 332.218 70.9982 332.349 71.0951L331.917 71.6902ZM330.48 70.75C330.314 70.6547 330.147 70.5638 329.979 70.4775L330.316 69.8264C330.493 69.9174 330.67 70.0134 330.845 70.1143L330.48 70.75ZM328.944 70.0003C328.767 69.9281 328.59 69.8605 328.412 69.7977L328.656 69.1075C328.845 69.1741 329.034 69.2455 329.221 69.3217L328.944 70.0003ZM327.324 69.4709C327.139 69.4253 326.954 69.3845 326.768 69.3485L326.909 68.6287C327.106 68.6675 327.303 68.7111 327.499 68.7595L327.324 69.4709ZM325.645 69.1867C325.456 69.1693 325.267 69.1566 325.078 69.1486L325.11 68.4159C325.312 68.4247 325.513 68.4382 325.714 68.4565L325.645 69.1867Z" fill="#FEF2EB"/>
<path d="M292.587 162.168L292.648 161.437L300.522 162.097L300.461 162.827L292.587 162.168Z" fill="#FEF2EB"/>
<path d="M290.829 185.522L290.89 184.792L298.765 185.451L298.703 186.182L290.829 185.522Z" fill="#FEF2EB"/>
<path d="M272.698 85.0658L272.759 84.3352L280.634 84.9945L280.573 85.7252L272.698 85.0658Z" fill="#FEF2EB"/>
<path d="M281.456 99.7385L281.517 99.0077L289.393 99.6636L289.333 100.394L281.456 99.7385Z" fill="#FEF2EB"/>
<path d="M280.466 115.52L280.528 114.789L288.402 115.448L288.341 116.179L280.466 115.52Z" fill="#FEF2EB"/>
<path d="M269.786 131.271L269.847 130.54L277.722 131.199L277.661 131.93L269.786 131.271Z" fill="#FEF2EB"/>
<path d="M300.346 28.7941L300.407 28.0633L308.283 28.7192L308.222 29.45L300.346 28.7941Z" fill="#FEF2EB"/>
<path d="M332.211 115.418C332.298 118.663 331.583 121.879 330.129 124.781C328.741 127.398 326.938 129.015 324.72 129.631C324.72 136.181 324.52 137.044 324.32 137.044L321.289 136.499C321.187 136.491 321.09 136.455 321.007 136.395C320.924 136.336 320.858 136.255 320.818 136.161C320.68 135.917 320.611 135.641 320.618 135.361L320.549 129.63C319.607 129.408 318.706 129.037 317.881 128.53C317.119 128.08 316.406 127.55 315.757 126.949C314.811 126.029 313.965 125.01 313.235 123.911C313.06 123.627 312.938 123.414 312.869 123.271C312.752 123.047 312.688 122.8 312.681 122.547C312.674 122.295 312.724 122.044 312.827 121.814L314.982 117.014C315.019 116.908 315.082 116.812 315.167 116.738C315.251 116.663 315.353 116.612 315.463 116.588C315.672 116.541 318.529 116.327 318.654 116.588C320.272 119.004 319.278 120.804 321.092 121.42C321.587 121.606 322.112 121.702 322.641 121.704C323.222 121.693 323.792 121.55 324.309 121.285C324.825 121.02 325.275 120.641 325.623 120.176C326.554 118.93 327.01 117.393 326.91 115.841C326.914 115.2 326.807 114.563 326.596 113.958C326.42 113.436 326.185 112.935 325.896 112.466C325.551 111.968 325.139 111.519 324.672 111.134C324.114 110.649 323.654 110.27 323.291 109.997C322.928 109.724 322.37 109.34 321.617 108.845C321.073 108.466 320.644 108.17 320.33 107.957C320.016 107.744 319.587 107.43 319.043 107.015C318.586 106.674 318.149 106.307 317.735 105.915C317.407 105.595 317.013 105.175 316.553 104.654C316.133 104.187 315.758 103.682 315.433 103.144C315.147 102.659 314.844 102.078 314.523 101.403C314.207 100.742 313.958 100.052 313.78 99.3419C313.591 98.5628 313.444 97.774 313.341 96.9789C313.22 96.0603 313.16 95.1345 313.163 94.2079C313.096 91.2126 313.803 88.2507 315.214 85.6079C316.305 83.3868 318.219 81.6788 320.55 80.8469V75.4469C320.543 75.1671 320.612 74.8906 320.75 74.6469C320.791 74.5535 320.857 74.473 320.941 74.4142C321.024 74.3554 321.122 74.3204 321.224 74.3129L324.007 72.8129C324.109 72.8167 324.208 72.8486 324.293 72.9051C324.378 72.9616 324.445 73.0404 324.488 73.1329C324.622 73.3836 324.687 73.6657 324.676 73.9499L324.717 80.7039C325.526 80.851 326.307 81.1268 327.029 81.5209C327.674 81.8565 328.284 82.2551 328.85 82.7109C329.331 83.1153 329.776 83.561 330.179 84.0429C330.598 84.5403 330.87 84.8836 330.995 85.0729C331.12 85.2623 331.225 85.4289 331.309 85.5729C331.425 85.7764 331.494 86.0032 331.511 86.2367C331.528 86.4702 331.494 86.7046 331.409 86.9229L332.655 92.0039C332.543 92.3589 329.442 92.6549 329.233 92.6789C329.038 92.7503 328.849 92.6673 328.668 92.4299C328.626 92.3586 328.526 92.2166 328.368 92.0039C328.21 91.7913 327.938 91.4773 327.552 91.0619C327.174 90.6522 326.764 90.2721 326.328 89.9249C325.849 89.5535 325.325 89.2431 324.769 89.0009C324.209 88.7389 323.599 88.5994 322.98 88.5919C322.358 88.577 321.741 88.7073 321.177 88.9726C320.614 89.2378 320.121 89.6307 319.736 90.1199C318.863 91.2444 318.418 92.642 318.48 94.0639C318.475 94.6375 318.535 95.2097 318.658 95.7699C318.777 96.2934 318.986 96.7924 319.275 97.2449C319.529 97.6511 319.805 98.0427 320.102 98.4179C320.453 98.8251 320.845 99.1939 321.274 99.5179C321.797 99.9326 322.219 100.252 322.54 100.477C322.861 100.702 323.349 101.027 324.005 101.454C324.744 101.928 325.311 102.301 325.705 102.573C326.099 102.845 326.629 103.26 327.295 103.817C327.863 104.275 328.391 104.78 328.875 105.327C329.344 105.892 329.778 106.486 330.175 107.104C330.64 107.805 331.013 108.563 331.284 109.36C331.571 110.248 331.791 111.157 331.943 112.078C332.128 113.182 332.218 114.299 332.211 115.418Z" stroke="#FEF2EB"/>
<path d="M335.211 115.211C335.298 118.484 334.583 121.729 333.129 124.662C331.741 127.304 329.938 128.937 327.72 129.562V135.839C327.732 136.126 327.667 136.41 327.532 136.664C327.49 136.757 327.422 136.836 327.337 136.893C327.252 136.95 327.153 136.983 327.051 136.987H324.226C324.124 136.978 324.026 136.942 323.943 136.882C323.86 136.822 323.795 136.74 323.755 136.646C323.617 136.4 323.548 136.121 323.555 135.839V129.562C322.612 129.337 321.711 128.962 320.887 128.45C320.124 127.994 319.412 127.458 318.763 126.85C318.206 126.313 317.689 125.738 317.214 125.128C316.867 124.696 316.542 124.247 316.241 123.783C316.066 123.496 315.944 123.281 315.875 123.137C315.758 122.91 315.694 122.661 315.687 122.406C315.679 122.152 315.729 121.899 315.833 121.666L317.988 116.824C318.024 116.717 318.088 116.621 318.172 116.546C318.256 116.47 318.359 116.418 318.469 116.394C318.678 116.346 318.845 116.454 318.969 116.717L319.011 116.789C320.17 118.799 321.956 120.374 324.096 121.272C324.591 121.459 325.116 121.557 325.645 121.559C326.227 121.547 326.799 121.402 327.316 121.135C327.833 120.868 328.281 120.485 328.627 120.017C329.559 118.756 330.014 117.206 329.914 115.641C329.918 114.994 329.811 114.352 329.6 113.741C329.424 113.214 329.19 112.709 328.9 112.235C328.556 111.732 328.144 111.28 327.676 110.89C327.118 110.4 326.658 110.017 326.295 109.742C325.932 109.467 325.373 109.079 324.617 108.579C324.073 108.196 323.644 107.896 323.33 107.679C323.016 107.462 322.587 107.145 322.043 106.729C321.585 106.384 321.149 106.013 320.735 105.617C320.407 105.294 320.013 104.87 319.553 104.344C319.132 103.872 318.757 103.362 318.433 102.82C318.147 102.33 317.844 101.744 317.523 101.062C317.207 100.395 316.958 99.6981 316.78 98.9819C316.591 98.1954 316.444 97.3992 316.341 96.5969C316.22 95.6685 316.16 94.7331 316.163 93.7969C316.096 90.776 316.802 87.7882 318.214 85.1169C319.3 82.8797 321.216 81.1551 323.555 80.3109V73.8589C323.548 73.5768 323.617 73.2981 323.755 73.0519C323.795 72.9578 323.86 72.8764 323.942 72.8164C324.025 72.7563 324.122 72.7198 324.224 72.7109H327.049C327.151 72.715 327.25 72.7473 327.335 72.8043C327.42 72.8614 327.488 72.9408 327.53 73.0339C327.665 73.2874 327.73 73.5721 327.718 73.8589V80.1719C328.528 80.3207 329.309 80.5993 330.03 80.9969C330.675 81.3355 331.285 81.7375 331.851 82.1969C332.332 82.6056 332.777 83.0556 333.18 83.5419C333.599 84.0439 333.871 84.3905 333.996 84.5819C334.121 84.7732 334.226 84.9399 334.31 85.0819C334.426 85.2878 334.495 85.5166 334.512 85.7522C334.529 85.9878 334.495 86.2243 334.41 86.4449L332.717 91.6849C332.606 92.0435 332.445 92.2349 332.236 92.2589C332.041 92.3309 331.852 92.2472 331.671 92.0079C331.629 91.9359 331.529 91.7925 331.371 91.5779C331.213 91.3632 330.941 91.0462 330.555 90.6269C330.177 90.2135 329.768 89.8297 329.331 89.4789C328.852 89.1042 328.329 88.7907 327.772 88.5459C327.212 88.2818 326.602 88.1413 325.983 88.1339C325.359 88.1195 324.741 88.2515 324.178 88.5193C323.614 88.7871 323.122 89.1832 322.739 89.6759C321.865 90.8139 321.42 92.2235 321.483 93.6569C321.479 94.2357 321.538 94.8132 321.661 95.3789C321.78 95.9068 321.989 96.4104 322.278 96.8679C322.531 97.2777 322.807 97.673 323.105 98.0519C323.455 98.4631 323.848 98.8359 324.277 99.1639C324.8 99.5825 325.222 99.9052 325.543 100.132C325.864 100.359 326.352 100.687 327.008 101.118C327.747 101.596 328.314 101.973 328.708 102.248C329.102 102.523 329.632 102.942 330.298 103.503C330.866 103.966 331.395 104.476 331.878 105.027C332.347 105.598 332.782 106.196 333.178 106.82C333.644 107.529 334.016 108.294 334.287 109.098C334.574 109.995 334.794 110.912 334.946 111.842C335.13 112.955 335.219 114.082 335.211 115.211Z" fill="#B0D775" stroke="#FEF2EB"/>
<path d="M156.715 349.068L146.339 326.014L147.363 325.554L157.604 348.309L168.96 349.379L169.348 350.588C169.348 350.588 156.797 349.25 156.715 349.068ZM128.352 352.135L116.323 350.922C116.23 350.913 116.141 350.88 116.063 350.827L98.043 338.486C97.9605 338.429 97.8946 338.352 97.852 338.261C97.8095 338.171 97.7919 338.07 97.8011 337.971L101.096 302.48C98.2229 298.073 95.766 293.409 93.7568 288.547L94.7909 288.111C96.7972 292.968 99.2573 297.626 102.139 302.022C102.209 302.128 102.241 302.256 102.229 302.383L98.9451 337.743L116.579 349.819L128.465 351.018L128.352 352.135ZM154.358 287.653C151.308 289.31 148.002 290.442 144.577 291.003L144.405 289.895C152.228 288.681 160.072 283.789 167.086 275.758C174.338 267.457 180.363 256.147 184.52 243.045C196.603 204.974 189.762 161.997 169.272 147.246C167.204 145.738 164.934 144.529 162.529 143.654L162.907 142.596C165.412 143.508 167.776 144.767 169.93 146.337C190.784 161.353 197.809 204.888 185.591 243.387C181.388 256.634 175.279 268.085 167.933 276.499C164.121 281.009 159.521 284.789 154.357 287.655L154.358 287.653ZM84.9783 289.936L72.9499 288.723C72.8268 288.711 72.7113 288.658 72.6213 288.573C72.5313 288.488 72.4719 288.376 72.4523 288.254L67.0518 254.534C67.0286 254.39 67.0626 254.242 67.1466 254.123L83.8107 230.448C83.947 222.474 84.5851 214.516 85.7212 206.621L72.8089 184.105C72.7703 184.037 72.7461 183.963 72.7379 183.886C72.7296 183.809 72.7375 183.731 72.761 183.657L83.6535 149.313C83.6925 149.191 83.772 149.086 83.8788 149.016C83.9856 148.945 84.1133 148.914 84.2406 148.926L96.269 150.139L96.1561 151.256L84.5815 150.089L73.9008 183.764L86.7874 206.234C86.8501 206.343 86.8744 206.47 86.8564 206.594C85.7014 214.561 85.0567 222.593 84.9263 230.642C84.9247 230.755 84.8891 230.865 84.8241 230.957L68.1916 254.586L73.4868 287.654L85.0855 288.824L84.9783 289.936ZM234.103 146.057L222.136 144.852L212.792 146.022L212.653 144.909L222.057 143.733C222.098 143.728 222.14 143.728 222.182 143.733L234.21 144.945L234.103 146.057ZM104.198 151.341L103.208 150.812C104.242 148.879 113.818 134.071 114.979 132.147L115.941 132.724C114.794 134.632 105.224 149.419 104.198 151.34L104.198 151.341ZM162.853 110.233C161.978 110.092 161.988 109.232 162.767 109.349L178.26 81.7944C178.315 81.703 178.394 81.6291 178.489 81.5811C178.584 81.533 178.69 81.513 178.796 81.5233L190.824 82.7363L190.712 83.8525L179.04 82.6754L163.692 110.07C163.427 110.182 163.142 110.237 162.854 110.233L162.853 110.233ZM115.941 132.724L114.819 132.667L116.54 98.4319C116.544 98.3475 116.567 98.2652 116.608 98.191C116.649 98.1169 116.705 98.0529 116.774 98.0038L137.582 83.1686C137.693 83.0896 137.829 83.0534 137.965 83.0668L150.015 84.3034L149.901 85.4197L138.061 84.2052L117.645 98.7603L115.941 132.724Z" fill="#FEF2EB"/>
<path d="M169.518 350.546C169.45 350.582 169.376 350.604 169.299 350.61C169.222 350.616 169.145 350.606 169.072 350.581C168.999 350.556 168.932 350.516 168.876 350.464C168.819 350.412 168.773 350.349 168.742 350.279L157.559 325.431C153.185 326.408 148.669 326.577 144.234 325.931L128.893 351.86C128.854 351.926 128.801 351.983 128.739 352.028C128.677 352.073 128.606 352.105 128.531 352.122C128.456 352.139 128.379 352.14 128.303 352.125C128.228 352.111 128.156 352.081 128.093 352.037L110.071 339.692C109.989 339.635 109.923 339.558 109.88 339.467C109.838 339.377 109.82 339.277 109.829 339.177L113.125 303.686C109.81 298.584 107.04 293.147 104.862 287.466L85.106 289.929C84.9617 289.948 84.816 289.909 84.6996 289.822C84.5832 289.734 84.5053 289.605 84.4823 289.461L79.0818 255.742C79.0587 255.598 79.0927 255.45 79.1766 255.33L95.8407 231.656C95.977 223.681 96.615 215.723 97.7513 207.829L84.8384 185.311C84.7997 185.244 84.7754 185.169 84.7671 185.092C84.7588 185.015 84.7666 184.937 84.7901 184.862L95.6835 150.518C95.7213 150.4 95.797 150.298 95.899 150.227C96.0009 150.157 96.1234 150.122 96.2473 150.128L115.781 151.123C118.968 145.143 122.654 139.443 126.8 134.084L128.571 99.648C128.575 99.5636 128.599 99.4812 128.639 99.4071C128.68 99.333 128.737 99.2689 128.805 99.2198L149.613 84.3846C149.681 84.3371 149.759 84.3049 149.84 84.2903C149.922 84.2756 150.006 84.2789 150.086 84.2999C150.166 84.3216 150.24 84.3607 150.303 84.4145C150.366 84.4683 150.417 84.5354 150.451 84.611L161.635 109.448C166.01 108.47 170.527 108.303 174.963 108.954L190.288 83.0101C190.328 82.9422 190.381 82.8835 190.444 82.8375C190.508 82.7915 190.581 82.7594 190.657 82.7432C190.734 82.7271 190.813 82.7272 190.89 82.7436C190.967 82.76 191.039 82.7923 191.103 82.8385L209.631 96.1931C209.712 96.2512 209.776 96.3297 209.816 96.4204C209.856 96.5112 209.872 96.6111 209.861 96.7098L206.073 131.205C209.382 136.307 212.15 141.74 214.334 147.415L234.088 144.947C234.232 144.929 234.378 144.968 234.494 145.055C234.61 145.143 234.688 145.272 234.711 145.415L240.111 179.126C240.134 179.271 240.1 179.419 240.015 179.539L223.337 203.214C223.204 211.188 222.565 219.146 221.424 227.039L234.347 249.553C234.386 249.62 234.41 249.695 234.419 249.772C234.427 249.849 234.419 249.927 234.396 250.002L223.502 284.345C223.464 284.463 223.388 284.565 223.287 284.635C223.185 284.706 223.063 284.741 222.939 284.735L203.403 283.746C200.228 289.73 196.542 295.428 192.384 300.776L190.623 335.227C190.619 335.312 190.596 335.394 190.555 335.468C190.514 335.542 190.458 335.606 190.389 335.656L169.581 350.506C169.56 350.519 169.538 350.531 169.516 350.541L169.518 350.546ZM143.679 324.827C143.787 324.77 143.911 324.749 144.031 324.769C148.598 325.482 153.26 325.302 157.759 324.239C157.885 324.21 158.018 324.226 158.134 324.284C158.25 324.341 158.343 324.438 158.396 324.556L169.485 349.197L189.518 334.9L191.274 300.541C191.28 300.425 191.321 300.314 191.393 300.222C195.628 294.792 199.371 288.997 202.581 282.904C202.63 282.81 202.706 282.732 202.798 282.68C202.891 282.628 202.997 282.603 203.103 282.608L222.569 283.592L233.258 249.895L220.361 227.428C220.299 227.319 220.275 227.192 220.293 227.068C221.453 219.102 222.098 211.07 222.225 203.021C222.227 202.908 222.262 202.799 222.327 202.706L238.974 179.076L233.695 146.121L214.042 148.579C213.918 148.595 213.792 148.568 213.685 148.504C213.578 148.44 213.495 148.342 213.45 148.225C211.245 142.414 208.422 136.858 205.028 131.652C204.955 131.542 204.923 131.411 204.937 131.28L208.703 96.9075L190.939 84.1037L175.732 109.845C175.675 109.942 175.59 110.02 175.487 110.068C175.385 110.115 175.271 110.131 175.159 110.113C170.593 109.394 165.93 109.572 161.432 110.636C161.306 110.665 161.173 110.649 161.057 110.592C160.941 110.534 160.848 110.438 160.795 110.32L149.703 85.6882L129.672 99.9698L127.906 134.32C127.899 134.435 127.858 134.546 127.786 134.637C123.563 140.079 119.818 145.878 116.595 151.966C116.545 152.06 116.469 152.137 116.377 152.19C116.284 152.242 116.179 152.267 116.072 152.261L96.6167 151.27L85.9294 184.967L98.816 207.437C98.8786 207.546 98.9029 207.673 98.885 207.797C97.7299 215.764 97.0852 223.796 96.9549 231.845C96.9529 231.957 96.9172 232.067 96.8522 232.159L80.2197 255.788L85.4978 288.747L105.147 286.296C105.272 286.281 105.398 286.307 105.505 286.372C105.613 286.436 105.695 286.535 105.74 286.652C107.938 292.466 110.761 298.024 114.159 303.228C114.23 303.335 114.262 303.463 114.25 303.591L110.966 338.951L128.222 350.771L143.451 325.032C143.504 324.943 143.579 324.871 143.67 324.822L143.679 324.827ZM166.449 288.838C164.762 289.741 163.001 290.499 161.186 291.104C157.191 292.493 152.916 292.875 148.738 292.217C144.56 291.558 140.609 289.88 137.235 287.33C116.381 272.325 109.355 228.785 121.572 190.272C129.226 166.167 142.846 148.784 158.005 143.769C162.001 142.381 166.277 141.999 170.456 142.658C174.635 143.317 178.587 144.996 181.961 147.546C202.814 162.561 209.841 206.097 197.622 244.595C190.871 265.874 179.466 281.916 166.453 288.835L166.449 288.838ZM153.25 147.037C140.51 153.811 129.311 169.619 122.642 190.617C110.561 228.701 117.401 271.68 137.891 286.424C141.123 288.867 144.908 290.475 148.91 291.106C152.912 291.737 157.008 291.371 160.835 290.041C175.66 285.138 189.01 268.024 196.549 244.262C208.632 206.191 201.791 163.214 181.301 148.463C178.069 146.018 174.283 144.409 170.28 143.777C166.278 143.145 162.181 143.511 158.352 144.84C156.592 145.427 154.885 146.162 153.248 147.037L153.25 147.037Z" fill="#FEF2EB"/>
<path d="M101.614 302.89L101.727 301.774L113.753 302.993L113.64 304.109L101.614 302.89Z" fill="#FEF2EB"/>
<path d="M98.3008 338.578L98.4139 337.462L110.44 338.681L110.326 339.797L98.3008 338.578Z" fill="#FEF2EB"/>
<path d="M73.24 184.385L73.3531 183.269L85.3787 184.487L85.2656 185.603L73.24 184.385Z" fill="#FEF2EB"/>
<path d="M86.2491 207.069L86.3617 205.952L98.3897 207.165L98.2771 208.282L86.2491 207.069Z" fill="#FEF2EB"/>
<path d="M84.3132 231.189L84.4263 230.073L96.4519 231.291L96.3388 232.407L84.3132 231.189Z" fill="#FEF2EB"/>
<path d="M67.5503 255.005L67.6634 253.889L79.689 255.108L79.5759 256.224L67.5503 255.005Z" fill="#FEF2EB"/>
<path d="M117.045 99.0197L117.157 97.9033L129.185 99.1164L129.073 100.233L117.045 99.0197Z" fill="#FEF2EB"/>
<path d="M137.579 258.578L135.884 239.168C135.884 239.168 135.509 234.885 132.048 235.897C128.587 236.909 127.33 241.787 127.617 243.971C127.904 246.155 129.4 264.389 129.4 264.389L137.579 258.578Z" fill="#B0D775" stroke="#FEF2EB" stroke-width="0.999792" stroke-linecap="round" stroke-linejoin="round"/>
<path d="M133.485 235.755L127.443 235.823C127.443 235.823 126.007 235.918 124.474 237.931C123.537 239.324 123.12 241.002 123.296 242.671L125.064 262.782L129.422 264.409" stroke="#FEF2EB" stroke-width="0.999792" stroke-linecap="round" stroke-linejoin="round"/>
<path d="M153.1 248.887L149.599 208.799C149.599 208.799 149.224 204.516 145.763 205.529C142.302 206.542 141.045 211.419 141.332 213.603C141.619 215.787 144.922 254.704 144.922 254.704L153.1 248.887Z" fill="#B0D775" stroke="#FEF2EB" stroke-width="0.999792" stroke-linecap="round" stroke-linejoin="round"/>
<path d="M147.2 205.387L141.158 205.455C141.158 205.455 139.722 205.55 138.189 207.563C137.252 208.956 136.835 210.633 137.011 212.302L140.586 253.092L144.943 254.718" stroke="#FEF2EB" stroke-width="0.999792" stroke-linecap="round" stroke-linejoin="round"/>
<path d="M167.72 237.886L166.025 218.476C166.025 218.476 165.651 214.193 162.189 215.205C158.728 216.217 157.471 221.095 157.758 223.279C158.045 225.463 159.541 243.697 159.541 243.697L167.72 237.886Z" fill="#B0D775" stroke="#FEF2EB" stroke-width="0.999792" stroke-linecap="round" stroke-linejoin="round"/>
<path d="M163.627 215.064L157.584 215.132C157.584 215.132 156.148 215.226 154.615 217.24C153.678 218.633 153.262 220.31 153.437 221.979L155.206 242.091L159.563 243.717" stroke="#FEF2EB" stroke-width="0.999792" stroke-linecap="round" stroke-linejoin="round"/>
<path d="M185.129 225.947L181.627 185.859C181.627 185.859 181.253 181.576 177.792 182.589C174.33 183.602 173.073 188.479 173.36 190.663C173.647 192.847 176.95 231.764 176.95 231.764L185.129 225.947Z" fill="#B0D775" stroke="#FEF2EB" stroke-width="0.999792" stroke-linecap="round" stroke-linejoin="round"/>
<path d="M179.229 182.447L173.187 182.515C173.187 182.515 171.75 182.61 170.217 184.623C169.281 186.016 168.864 187.693 169.039 189.362L172.614 230.152L176.971 231.778" stroke="#FEF2EB" stroke-width="0.999792" stroke-linecap="round" stroke-linejoin="round"/>
<path d="M368.57 350.894C371.96 347.437 370.97 339.694 364.57 343.694C358.17 347.694 352.57 346.094 352.57 346.094C352.57 346.094 348.037 350.894 352.57 354.094C357.103 357.294 365.18 354.351 368.57 350.894Z" fill="#202020" stroke="#FEF2EB"/>
<path d="M372.773 357.393C375.511 353.4 373.192 345.947 367.584 350.997C361.975 356.048 356.183 355.445 356.183 355.445C356.183 355.445 352.552 360.959 357.572 363.323C362.592 365.688 370.035 361.387 372.773 357.393Z" fill="#202020" stroke="#FEF2EB"/>
<path d="M374.678 363.805C377.13 359.631 374.296 352.36 369.056 357.789C363.816 363.218 357.997 363.021 357.997 363.021C357.997 363.021 354.761 368.774 359.933 370.781C365.104 372.788 372.227 367.978 374.678 363.805Z" fill="#202020" stroke="#FEF2EB" stroke-width="0.999732"/>
</g>
<defs>
<clipPath id="clip0_53_7913">
<rect width="675.747" height="661.123" fill="white" transform="translate(0.86499 0.349854)"/>
</clipPath>
</defs>
</svg>
