<svg xmlns="http://www.w3.org/2000/svg" width="675.747" height="661.123" viewBox="0 0 675.747 661.123">
  <g id="opty-img1" transform="translate(-1103.828 -1089.056)">
    <path id="Path_19775" data-name="Path 19775" d="M7721.967,1575.833v66h70s16.554.55,17.066-17.2,0-34.133,0-34.133.75-14.444-17.066-14.667S7721.967,1575.833,7721.967,1575.833Z" transform="translate(-6030)" fill="#05c168"/>
    <g id="Group_1684" data-name="Group 1684" transform="translate(58.609 -122)">
      <path id="Path_19235" data-name="Path 19235" d="M336.791,431.5c-5.589-35.412-5.1-73.762-1.167-86.029l1.129.36c-3.364,10.493-4.87,46.97,1.208,85.484Z" transform="translate(1109.362 1302)" fill="#fff"/>
      <path id="Path_19262" data-name="Path 19262" d="M93.5,490.808s9.04-13.731,21.336-18.426c14.132-5.4,35.6-1.086,47.553-29.215,0,0-2.061,31.929-20.514,43.076-13.046,7.883-30.847.681-48.375,4.565m-3.126-38.262s-8.132-24.622,4.8-51.092c15.4-31.525,62.87-42.035,62.87-42.035s-11.051,19.568-5.98,32.069c0,0-12.138,4.53-15.582,15.764,0,0,4.534-5.254,15.219-4.53l-.363,8.334s-7.971-.545-10.87,2.9l10.329.363s-17.759,38.228-60.426,38.228m-19.84-3.989s3.622-20.291-5.8-30.075S25.963,393.3,20.71,380.614c0,0,1.03,32.681,15.037,48.375a62.788,62.788,0,0,0,34.787,19.568m-.545,48.2S69.406,457.8,45.964,450.01l-.978,6.7S32.666,438.6,12.012,442.039c0,0,6.738,29.369,20.836,40.948,15.219,12.5,37.141,13.766,37.141,13.766" transform="translate(1109.362 1302)" fill="#05c168" stroke="#020f1e" stroke-width="1"/>
      <path id="Path_19263" data-name="Path 19263" d="M79.605,509.642l-1.111-.412c.269-.727,6.784-17.9,21.192-23,4.171-1.477,9.288-2.714,14.709-4.024,13.235-3.2,28.238-6.818,35.4-15.365l.908.761c-7.416,8.848-22.617,12.519-36.03,15.757-5.39,1.3-10.483,2.529-14.594,3.989-13.888,4.922-20.41,22.121-20.476,22.3" transform="translate(1109.362 1302)" fill="#020f1e"/>
      <path id="Path_19264" data-name="Path 19264" d="M79.633,509.53l-1.17-.192c.077-.468,7.709-46.862,14.489-62.647,3.419-7.964,21.96-48.9,51.123-72.878l.751.915c-28.953,23.8-47.386,64.512-50.788,72.431-6.717,15.652-14.328,61.906-14.4,62.371" transform="translate(1109.362 1302)" fill="#020f1e"/>
      <path id="Path_19265" data-name="Path 19265" d="M78.456,509.453c-.014-.426-1.526-42.866-8.474-60.684-6.941-17.79-35.988-46.251-36.278-46.534l.828-.848c.3.29,29.526,28.925,36.557,46.953,7.021,18,8.541,60.645,8.558,61.075Z" transform="translate(1109.362 1302)" fill="#020f1e"/>
      <path id="Path_19266" data-name="Path 19266" d="M78.5,509.142c-.2-.4-19.865-40.421-53.886-57.7l.537-1.058c34.386,17.465,54.222,57.837,54.418,58.242Z" transform="translate(1109.362 1302)" fill="#020f1e"/>
      <path id="Path_19267" data-name="Path 19267" d="M111.752,511.154v7.79a2.26,2.26,0,0,1-2.264,2.263H48.235a2.26,2.26,0,0,1-2.263-2.263v-7.79a2.26,2.26,0,0,1,2.263-2.263h61.253a2.261,2.261,0,0,1,2.264,2.263m-4.618,10.06-5.03,44.749a4.082,4.082,0,0,1-4.059,3.622H60.237a4.147,4.147,0,0,1-3.437-1.841,4.2,4.2,0,0,1-.622-1.781L51.7,526.15l-.552-4.936Z" transform="translate(1109.362 1302)" fill="none"/>
      <path id="Path_19269" data-name="Path 19269" d="M109.488,521.8H48.235a2.861,2.861,0,0,1-2.857-2.857v-7.79a2.861,2.861,0,0,1,2.857-2.857h61.257a2.861,2.861,0,0,1,2.857,2.857v7.79a2.865,2.865,0,0,1-2.861,2.857m-61.253-12.32a1.676,1.676,0,0,0-1.673,1.673v7.79a1.676,1.676,0,0,0,1.673,1.673h61.257a1.676,1.676,0,0,0,1.673-1.673v-7.79a1.676,1.676,0,0,0-1.673-1.673Z" transform="translate(1109.362 1302)" fill="#020f1e"/>
      <path id="Path_19270" data-name="Path 19270" d="M98.045,570.179H60.237a4.733,4.733,0,0,1-3.926-2.1,4.8,4.8,0,0,1-.72-2.05l-5.1-45.406h57.306l-5.1,45.406a4.67,4.67,0,0,1-4.646,4.153M51.812,521.808,56.769,565.9a3.61,3.61,0,0,0,.534,1.533,3.537,3.537,0,0,0,2.931,1.561H98.042a3.488,3.488,0,0,0,3.468-3.1l4.957-44.089H51.812Z" transform="translate(1109.362 1302)" fill="#020f1e"/>
      <path id="Path_19271" data-name="Path 19271" d="M440.078,131.973s17.426,2.58,32.493-1.688c0,0-3.653,4.4,2.707,9.568l1.275,8.984,3.8-1.073s2.254-11.612,12.271-6.179c0,0,5.989,6.04-3,13.736,0,0-2.933,2.555-5.959,2.126,0,0-8.55,26.71-33.288,23.64C450.377,181.087,427.518,178.928,440.078,131.973Z" transform="translate(1109.362 1302)" fill="none" stroke="#020f1e" stroke-width="1"/>
      <path id="Path_19272" data-name="Path 19272" d="M481.79,191.638s-3.047-17.666.4-29.643" transform="translate(1109.362 1302)" fill="none" stroke="#020f1e" stroke-width="1"/>
      <line id="Line_9" data-name="Line 9" x1="0.112" y2="8.269" transform="translate(1558.125 1482.751)" fill="none" stroke="#020f1e" stroke-width="1"/>
      <path id="Path_19273" data-name="Path 19273" d="M448.433,189.4a12.361,12.361,0,0,0,7.313,14.024s-8.521,20.488-14.314,10.538c0,0-3.049-4.8-1.921-15.376l8.731-9.277A.11.11,0,0,1,448.433,189.4Z" transform="translate(1109.362 1302)" fill="none" stroke="#020f1e" stroke-width="1"/>
      <path id="Path_19274" data-name="Path 19274" d="M488,201.242s-1.127,14-26.244,19.89c0,0-5.117.886-4.9-3.757l-1.107-13.946s14.892-1.411,25.892-12.411C481.639,191.018,484.361,198.466,488,201.242Z" transform="translate(1109.362 1302)" fill="none" stroke="#020f1e" stroke-width="1"/>
      <path id="Path_19275" data-name="Path 19275" d="M418.076,257.463l-30.05-22.057s25.045-44.212,56.328-41.3" transform="translate(1109.362 1302)" fill="none" stroke="#020f1e" stroke-width="1"/>
      <path id="Path_19276" data-name="Path 19276" d="M488,201.242c41.361,10.224,44.344,64.334,44.344,64.334s-14.684,13.475-46.7,6.459c0,0-8.192-27.861-5.1-40.439" transform="translate(1109.362 1302)" fill="none" stroke="#020f1e" stroke-width="1"/>
      <path id="Path_19277" data-name="Path 19277" d="M422.639,218.986s-9.407,23.9-1.67,71.1" transform="translate(1109.362 1302)" fill="none" stroke="#020f1e" stroke-width="1"/>
      <path id="Path_19278" data-name="Path 19278" d="M525.6,322.387v16.088s-47.013,12.378-100.488-16.04l-.591-2.093" transform="translate(1109.362 1302)" fill="none" stroke="#020f1e" stroke-width="1"/>
      <path id="Path_19279" data-name="Path 19279" d="M528.271,268.315s11.633,40.864,0,52.283c0,0-17.633,13.42-96.792-1.495a76.246,76.246,0,0,1-21.6,1.671s-17.458.581-2.351-6.588c0,0-12.894,2.832-10.894-1.168,0,0,2.135-3.83,8.068-4.415,0,0-11.068,1.415-11.068-2.585,0,0,0-4,10-3,0,0-8-1-7-5,0,0,.427-5.513,22.714-1.256,0,0-8.341-3.144-7.528-6.444,0,0,.424-5,21.119,4.351,0,0,43.7-2.651,61.113.2l-5.138-22.173" transform="translate(1109.362 1302)" fill="none" stroke="#020f1e" stroke-width="1"/>
      <path id="Path_19281" data-name="Path 19281" d="M395.16,241.283s-10.511,10.058-12.766,15.146a222.871,222.871,0,0,0-56.255-21.912s-8.7-21.543-16.41-17.567c0,0-5.634,2-1.559,12.127" transform="translate(1109.362 1302)" fill="none" stroke="#020f1e" stroke-width="1"/>
      <path id="Path_19283" data-name="Path 19283" d="M315.8,242.654s-7.64,6.24-14.9,3.3l-2.983-3.071s-10.276,6.133-1.276,12.133c0,0-2.5,5.468,4.748,5.734,0,0-1.97,4.159,5.141,5.212,0,0,4.126,8.742,15.119-3.1,0,0,4-4.363,0-5.1,0,0,3.571-4.167-1.217-5.454,0,0,.261-4.38-2.764-3.334,0,0,5.018-3.681,1.5-6.317C319.16,242.654,317.952,241.29,315.8,242.654Z" transform="translate(1109.362 1302)" fill="none" stroke="#020f1e" stroke-width="1"/>
      <path id="Path_19284" data-name="Path 19284" d="M299.638,254.017a29.509,29.509,0,0,0,18-5" transform="translate(1109.362 1302)" fill="#ffcfc5" stroke="#020f1e" stroke-width="1"/>
      <path id="Path_19285" data-name="Path 19285" d="M299.638,254.017a29.509,29.509,0,0,0,18-5" transform="translate(1109.362 1302)" fill="none" stroke="#020f1e" stroke-width="1"/>
      <path id="Path_19286" data-name="Path 19286" d="M304.209,259.054s11.006-.462,16.218-6.75" transform="translate(1109.362 1302)" fill="#ffcfc5" stroke="#020f1e" stroke-width="1"/>
      <path id="Path_19287" data-name="Path 19287" d="M304.209,259.054s11.006-.462,16.218-6.75" transform="translate(1109.362 1302)" fill="none" stroke="#020f1e" stroke-width="1"/>
      <path id="Path_19288" data-name="Path 19288" d="M309.167,265.071s8.483-2.571,12.477-7.312" transform="translate(1109.362 1302)" fill="#ffcfc5" stroke="#020f1e" stroke-width="1"/>
      <path id="Path_19289" data-name="Path 19289" d="M309.167,265.071s8.483-2.571,12.477-7.312" transform="translate(1109.362 1302)" fill="none" stroke="#020f1e" stroke-width="1"/>
      <path id="Path_19291" data-name="Path 19291" d="M418.28,266.285s-23.2,34.055-41.418,28.394a76.585,76.585,0,0,1-29.333-16.929" transform="translate(1109.362 1302)" fill="none" stroke="#020f1e" stroke-width="1"/>
      <path id="Path_19292" data-name="Path 19292" d="M520.29,339.44s4.894,53.913-49.379,55.245h-72.22L400.608,505.9s14.878,6.3.954,16.212l-51.34,11.128s-14.359-2.7-3.971-15.959L332.723,385.623s-2.855-35.972,4.03-39.789c0,0,17.583-13.306,82.234-17.061" transform="translate(1109.362 1302)" fill="none" stroke="#020f1e" stroke-width="1"/>
      <path id="Path_19293" data-name="Path 19293" d="M346.25,517.278s31.327-1.5,54.358-11.38" transform="translate(1109.362 1302)" fill="none" stroke="#020f1e" stroke-width="1"/>
      <path id="Path_19294" data-name="Path 19294" d="M246.8,500.581s25.467,16.11,48.65,16.773c0,0,11.324,12.516-5.246,15.59l-49.656-17.151s-9.582-11.648,6.252-15.212c0,0,45.974-107.947,57.4-129.255,0,0,11.514-22.377,13.972-24.343,0,0,16.045-26.5,106.982-24.283" transform="translate(1109.362 1302)" fill="none" stroke="#020f1e" stroke-width="1"/>
      <line id="Line_10" data-name="Line 10" x1="2.969" y2="12.456" transform="translate(1386.744 1831.709)" fill="none" stroke="#020f1e" stroke-width="1"/>
      <line id="Line_11" data-name="Line 11" y1="15.362" x2="5.201" transform="translate(1353 1820.655)" fill="none" stroke="#020f1e" stroke-width="1"/>
      <path id="Path_19295" data-name="Path 19295" d="M201.929,559.885l72.04,8.744a48.273,48.273,0,0,0,3.414-27.508s-16.286,7.59-33.515-7.257A95.115,95.115,0,0,1,208.862,548.3S196.219,549.752,201.929,559.885Z" transform="translate(1109.362 1302)" fill="none" stroke="#020f1e" stroke-width="1"/>
      <line id="Line_12" data-name="Line 12" x2="2.321" y2="10.122" transform="translate(1502.68 1825.895)" fill="none" stroke="#020f1e" stroke-width="1"/>
      <line id="Line_13" data-name="Line 13" x2="0.285" y2="4.193" transform="translate(1470.715 1832.824)" fill="none" stroke="#020f1e" stroke-width="1"/>
      <path id="Path_19298" data-name="Path 19298" d="M397.975,559.581l-71.241,10.01s-4.9-4.446,0-10.01c0,0,27.022-13.681,34.9-24.564,0,0,13.064,9.693,34.032-1.153C395.671,533.864,401.311,549.145,397.975,559.581Z" transform="translate(1109.362 1302)" fill="none" stroke="#020f1e" stroke-width="1"/>
      <path id="Path_19301" data-name="Path 19301" d="M437.792,139.687s-11.5-1.021-11.324-17.345,10.716-19.3,20.943-14.811c0,0-8.324-11.286-1.548-18.4s40.19.817,45.983,31.852c0,0,13.462-1.46,8.628,13.287,0,0,2.352-3.473,6.758-.363s3.434,13.553-3.58,17.832c0,0,10.8,19.4-23.1,20.837" transform="translate(1109.362 1302)" fill="none" stroke="#020f1e" stroke-width="1"/>
      <path id="Path_19303" data-name="Path 19303" d="M523.771,394.977V460.8" transform="translate(1109.362 1303)" fill="none" stroke="#020f1e" stroke-width="1"/>
      <path id="Path_19309" data-name="Path 19309" d="M7431.84,1697.76H7395.36s-17.113-2.079-17.281,16.32,0,33.28,0,33.28-3.132,16.64,23.681,16.64" transform="translate(-6030)" fill="none" stroke="#020f1e" stroke-width="1"/>
      <path id="Path_19310" data-name="Path 19310" d="M7539.521,1764h191.2s19.52,2.424,19.52-16.8v-33.28s3.357-16.759-21.6-16.16-190.24,0-190.24,0" transform="translate(-6030 -0.244)" fill="none" stroke="#020f1e" stroke-width="1"/>
      <g id="Icon_feather-search" data-name="Icon feather-search" transform="translate(1661.5 1711.5)">
        <path id="Path_19311" data-name="Path 19311" d="M28.5,16.5a12,12,0,1,1-12-12A12,12,0,0,1,28.5,16.5Z" fill="none" stroke="#020f1e" stroke-linecap="round" stroke-linejoin="round" stroke-width="3"/>
        <path id="Path_19312" data-name="Path 19312" d="M31.5,31.5l-6.525-6.525" fill="none" stroke="#020f1e" stroke-linecap="round" stroke-linejoin="round" stroke-width="3"/>
      </g>
      <path id="Path_19302" data-name="Path 19302" d="M7435.267,1819.733l41.866-84.8" transform="translate(-6030)" fill="none" stroke="#020f1e" stroke-width="1"/>
      <path id="Path_19308" data-name="Path 19308" d="M7463.521,1764h16.159" transform="translate(-6030)" fill="none" stroke="#020f1e" stroke-width="1"/>
      <path id="Path_19313" data-name="Path 19313" d="M229.047,550.667a7.571,7.571,0,0,0-6.5-5.611" transform="translate(1109.362 1302)" fill="none" stroke="#020f1e" stroke-width="1"/>
      <path id="Path_19314" data-name="Path 19314" d="M228.358,542.889s6.086,1.7,5.683,5.413" transform="translate(1110.051 1301.276)" fill="none" stroke="#020f1e" stroke-width="1"/>
      <path id="Path_19315" data-name="Path 19315" d="M349.889,545.652A10.366,10.366,0,0,1,355.8,550.7" transform="translate(1109.362 1302)" fill="none" stroke="#020f1e" stroke-width="1"/>
      <path id="Path_19316" data-name="Path 19316" d="M343.419,550.007a8.709,8.709,0,0,1,6.469,5.106" transform="translate(1109.362 1302)" fill="none" stroke="#020f1e" stroke-width="1"/>
      <g id="Group_1720" data-name="Group 1720" transform="translate(1313.342 1399.269) rotate(16)">
        <path id="Path_19764" data-name="Path 19764" d="M568.511,1093.3l53.459,30.9.127.079a.285.285,0,0,1,.111.079c.063.048.143.1.206.143s.111.08.175.127a1.682,1.682,0,0,1,.191.159c.016.016.048.032.063.048l.1.1a1.813,1.813,0,0,0,.175.175,1.5,1.5,0,0,0,.159.159,2.034,2.034,0,0,1,.159.191c.016.032.048.048.063.079.032.032.048.064.079.1.048.063.111.143.159.206s.079.127.127.19l.143.238a.686.686,0,0,0,.079.111c.016.032.032.048.048.079.048.1.111.19.159.3l.1.191c.048.111.111.238.159.349a.475.475,0,0,0,.063.127.049.049,0,0,0,.016.032c.079.191.143.4.206.6.016.048.032.111.048.175.048.159.1.333.127.492a.292.292,0,0,0,.032.111c0,.048.016.079.016.127.016.1.048.206.063.3l.048.286c.016.111.032.206.048.318.016.1.016.206.032.3.016.111.016.222.032.333,0,.111.016.206.016.318a2.457,2.457,0,0,1,.016.349v.429c0,.413-.032.826-.048,1.239-.016.111-.016.222-.032.333-.032.365-.079.746-.143,1.127a.439.439,0,0,0-.016.143c-.064.349-.111.683-.191,1.032-.016.063-.032.127-.048.175-.063.286-.143.556-.222.842-.048.206-.111.429-.175.635-.079.286-.191.587-.286.873-.063.175-.111.349-.175.508-.016.048-.032.079-.048.127-.032.1-.063.175-.1.254q-.191.524-.429,1.048a2.446,2.446,0,0,0-.127.3c-.032.063-.048.127-.079.19l-.476,1c-.032.079-.079.143-.111.222-.063.127-.127.27-.206.4-.143.27-.286.54-.445.794h0a.286.286,0,0,1-.079.111c-.1.175-.206.349-.3.524a2.592,2.592,0,0,0-.222.349c-.143.238-.3.46-.445.683-.063.1-.127.207-.191.3-.079.111-.159.206-.222.317-.159.222-.318.445-.492.651-.079.111-.143.206-.222.3-.143.191-.286.365-.429.54-.016.016-.032.048-.048.063l-.556.651c-.111.127-.222.238-.333.365-.048.048-.1.111-.143.159-.238.254-.476.492-.714.73a1.592,1.592,0,0,1-.175.159c-.079.079-.175.159-.254.238a1.034,1.034,0,0,1-.143.127c-.206.19-.413.381-.635.556a2.813,2.813,0,0,0-.222.191.69.69,0,0,1-.111.1c-.206.159-.429.318-.635.476-.127.1-.238.19-.365.27-.381.254-.746.492-1.127.715-3.191,1.842-6.065,2-8.145.778l-53.444-30.9c2.064,1.207,4.938,1.048,8.129-.794.381-.222.762-.461,1.127-.714.127-.079.238-.175.365-.27.254-.175.508-.365.746-.556l.238-.19c.191-.159.365-.318.556-.476a2.647,2.647,0,0,0,.222-.206c.079-.079.175-.159.254-.238.3-.286.6-.587.889-.889.048-.048.1-.111.143-.159.3-.333.6-.667.905-1.016.016-.016.032-.048.048-.064.222-.27.445-.556.667-.841.159-.222.318-.429.476-.651l.429-.619c.143-.222.3-.46.445-.683.175-.286.365-.572.54-.873l.063-.111c.222-.4.445-.794.651-1.207.032-.079.079-.143.111-.222l.572-1.191c.048-.1.079-.206.127-.3.159-.349.286-.7.429-1.048.032-.1.063-.175.1-.254.079-.206.143-.413.206-.635.1-.286.191-.572.286-.873.063-.206.111-.429.175-.635.079-.286.159-.572.222-.841.1-.4.175-.81.238-1.207a.44.44,0,0,0,.016-.143c.064-.381.1-.746.143-1.127.016-.111.016-.222.032-.333q.048-.619.048-1.238v-.445c0-.111-.016-.238-.016-.349s-.016-.222-.016-.318c-.016-.111-.016-.222-.032-.333-.016-.1-.016-.206-.032-.3-.016-.111-.032-.206-.048-.318l-.048-.286a1.683,1.683,0,0,0-.064-.3l-.048-.238a4.46,4.46,0,0,0-.127-.492c-.016-.048-.032-.111-.048-.159-.064-.206-.127-.413-.206-.6-.016-.048-.048-.111-.064-.159a2.328,2.328,0,0,0-.159-.349l-.1-.191c-.048-.1-.111-.206-.159-.3-.032-.063-.079-.127-.111-.19l-.143-.238c-.048-.063-.079-.127-.127-.19-.048-.079-.111-.143-.159-.222-.048-.063-.1-.111-.143-.175s-.111-.127-.159-.19a1.444,1.444,0,0,0-.143-.159l-.175-.175a1.44,1.44,0,0,1-.159-.143c-.063-.048-.127-.111-.191-.159a1.109,1.109,0,0,0-.159-.127c-.063-.048-.143-.1-.206-.143A.669.669,0,0,1,568.511,1093.3Z" transform="translate(-437.824 -998.718)" fill="#f9f9f9" stroke="#020f1e" stroke-width="1"/>
        <path id="Path_19765" data-name="Path 19765" d="M900.679,1089.907c6.335-3.652,11.464-.7,11.448,6.621-.016,7.3-5.16,16.195-11.479,19.847-6.335,3.652-11.464.7-11.448-6.621C889.2,1102.45,894.344,1093.559,900.679,1089.907Z" transform="translate(-778.137 -994.547)" fill="none" stroke="#020f1e" stroke-width="1"/>
        <path id="Path_19766" data-name="Path 19766" d="M942.483,985.828l30.159,17.578.079.048c.032.016.048.032.079.048l.143.1a.688.688,0,0,1,.111.1.8.8,0,0,1,.127.111c.016.016.032.032.048.032.032.016.048.048.063.064l.111.111a.731.731,0,0,0,.111.111.911.911,0,0,1,.111.127l.048.048c.016.016.032.048.048.063.032.048.079.1.111.143s.064.079.1.127.064.111.1.159c.016.032.032.048.048.079.016.016.016.032.032.063.032.063.079.127.111.206.016.048.048.079.063.127.032.079.079.159.111.238a.225.225,0,0,1,.032.1v.016c.048.127.1.27.143.413.016.032.016.079.032.111l.1.333c0,.032.016.048.016.079a.687.687,0,0,0,.016.079.93.93,0,0,1,.032.206c.016.064.016.127.032.19s.016.143.032.222c0,.063.016.143.016.206a1.126,1.126,0,0,1,.016.222,1.125,1.125,0,0,0,.016.222,1.2,1.2,0,0,0,.016.238v.3c0,.27-.016.556-.032.841,0,.079-.016.143-.016.222a6.25,6.25,0,0,1-.1.762c0,.032-.016.064-.016.1-.032.238-.079.46-.127.7a.374.374,0,0,1-.032.127l-.143.572c-.032.143-.079.286-.111.429-.063.19-.127.4-.19.587a2.964,2.964,0,0,0-.111.349c-.016.032-.016.064-.032.079-.016.064-.048.127-.063.175l-.286.714c-.032.064-.064.143-.1.206a.32.32,0,0,1-.064.127c-.111.222-.206.46-.333.683-.032.048-.048.1-.079.143-.048.1-.1.175-.143.27a5.892,5.892,0,0,1-.3.54h0c-.016.032-.032.048-.048.079-.064.127-.143.238-.206.349a2.063,2.063,0,0,1-.159.238c-.1.159-.206.317-.3.46a1.449,1.449,0,0,0-.127.206c-.048.063-.111.143-.159.206-.111.143-.222.3-.333.445a1.787,1.787,0,0,1-.159.206,3.346,3.346,0,0,1-.3.365c-.016.016-.016.032-.032.048-.127.143-.254.3-.381.445-.079.079-.159.159-.238.254a.694.694,0,0,0-.1.111c-.159.175-.318.333-.492.492a.908.908,0,0,1-.127.111,1.581,1.581,0,0,1-.175.159l-.1.1-.429.381a1.113,1.113,0,0,1-.159.127c-.032.016-.048.048-.079.063-.143.111-.286.222-.429.318a1.439,1.439,0,0,1-.254.175c-.254.175-.508.334-.762.492-2.175,1.254-4.128,1.365-5.541.524l-30.59-17.7C933.453,1001.143,942.53,985.86,942.483,985.828Z" transform="translate(-846.606 -905.426)" fill="#fff" stroke="#020f1e" stroke-width="1"/>
        <path id="Path_19768" data-name="Path 19768" d="M1150.281,705.541c.111.032.222.048.333.079.063.016.127.016.175.032.556.111,1.112.191,1.7.254l.587.048c.381.032.746.048,1.143.048.222,0,.429.016.651.016.3,0,.6-.016.921-.032.254-.016.492-.016.746-.048.254-.016.524-.048.778-.079.286-.032.572-.064.858-.111.238-.032.492-.079.73-.127.3-.048.619-.111.921-.175.206-.048.429-.1.635-.143.333-.079.667-.159,1-.254.206-.063.429-.111.635-.175.365-.111.73-.222,1.1-.349.175-.064.349-.111.524-.175.54-.19,1.1-.381,1.651-.6h0c.54-.222,1.1-.46,1.651-.714.175-.079.349-.159.524-.254.4-.19.778-.381,1.175-.572.191-.1.4-.206.588-.3.524-.27,1.048-.556,1.588-.873.587-.333,1.175-.7,1.747-1.064.048-.032.079-.048.127-.079.572-.365,1.127-.746,1.7-1.127.191-.127.381-.27.572-.413.381-.27.746-.54,1.127-.81.222-.175.46-.349.683-.524.333-.254.667-.524,1-.778.238-.19.492-.4.73-.6.318-.27.635-.524.953-.794.254-.206.492-.429.746-.651l.921-.826c.254-.222.492-.46.746-.683.3-.286.619-.587.921-.889.222-.222.46-.445.683-.667.318-.318.635-.651.953-.968.207-.222.413-.429.619-.651.365-.381.714-.778,1.08-1.175l.429-.476c.508-.572,1-1.143,1.477-1.731.063-.079.143-.175.206-.254.413-.508.826-1.016,1.238-1.54.524-.667,1.032-1.334,1.54-2.017h0c.7-.953,1.381-1.937,2.048-2.921.127-.175.238-.365.365-.54.826-1.238,1.619-2.509,2.381-3.795.1-.159.206-.333.3-.492.54-.921,1.064-1.842,1.556-2.779.19-.349.365-.683.54-1.032.191-.365.381-.73.556-1.1.254-.508.508-1.016.746-1.54.079-.175.159-.333.238-.508q.476-1,.905-2c.079-.175.159-.349.222-.524.222-.492.429-1,.635-1.508.1-.222.19-.46.27-.683.191-.476.381-.969.556-1.445l.238-.619c.238-.635.46-1.27.683-1.921a.665.665,0,0,1,.064-.159c.238-.7.445-1.381.667-2.08.063-.222.127-.461.191-.683.143-.476.27-.953.4-1.429.079-.27.143-.54.206-.81l.333-1.334c.063-.27.127-.524.19-.794.111-.461.207-.921.3-1.381.048-.238.1-.492.143-.73.111-.6.222-1.207.318-1.794.016-.079.032-.175.048-.254q.167-1.024.286-2.048c.032-.19.048-.381.064-.572.047-.492.111-.969.143-1.461.016-.238.032-.46.048-.7.032-.46.063-.921.079-1.381.016-.222.016-.445.032-.667.016-.651.032-1.3.032-1.937,0-.667-.016-1.334-.048-1.985-.016-.191-.016-.365-.032-.556-.032-.445-.063-.889-.1-1.318-.016-.254-.048-.508-.079-.746-.048-.365-.079-.73-.127-1.1-.032-.27-.079-.524-.111-.794-.048-.333-.111-.651-.175-.984-.048-.286-.111-.587-.175-.873l-.191-.857c-.079-.333-.175-.667-.254-1-.063-.254-.143-.508-.222-.746q-.19-.6-.381-1.143c-.079-.206-.143-.413-.222-.6-.238-.635-.492-1.238-.778-1.842-.206-.46-.429-.889-.667-1.318v-.016c-.238-.429-.492-.841-.746-1.254-.365-.572-.762-1.111-1.175-1.635-.1-.127-.206-.254-.3-.365-.4-.476-3.873-2.614,3.572.778a15.349,15.349,0,0,1,1.588,1.064c.127.1.254.191.365.286a18.169,18.169,0,0,1,1.445,1.254l.1.1c.429.429.842.889,1.239,1.365.1.127.206.238.3.365.413.524.81,1.064,1.175,1.635.016.016.016.032.032.048a23.109,23.109,0,0,1,1.365,2.477c.016.016.016.048.032.063.27.587.54,1.207.778,1.826a1.593,1.593,0,0,1,.063.159c.048.143.1.3.143.445l.381,1.143c.032.111.064.206.1.3a3.909,3.909,0,0,1,.111.461c.1.318.175.651.254.984.032.143.079.27.111.4.032.143.063.3.1.46.064.286.111.572.175.857.032.143.063.286.1.445.032.175.048.365.079.54.048.254.079.524.111.778.016.143.048.27.063.4.032.222.048.46.079.7.032.254.048.492.079.746.016.1.016.206.032.3.032.333.048.683.063,1.032.016.19.032.365.032.54a.31.31,0,0,0,.016.127c.032.572.032,1.159.048,1.747v.111c0,.54,0,1.08-.016,1.635,0,.1-.016.206-.016.318,0,.222-.016.445-.032.651-.016.254-.016.524-.032.778-.016.191-.032.4-.048.6-.016.238-.032.461-.064.7-.016.159-.016.3-.032.46-.032.333-.079.667-.111,1-.016.191-.048.381-.063.572a.773.773,0,0,0-.016.191c-.079.6-.159,1.207-.254,1.81v.048l-.048.238c-.079.508-.175,1.032-.27,1.54a1.346,1.346,0,0,1-.063.27c-.048.238-.1.476-.143.73-.063.3-.111.588-.175.889-.032.159-.079.333-.111.492-.063.27-.127.524-.191.794-.048.206-.1.413-.143.6-.064.238-.127.492-.191.73-.063.27-.143.524-.206.794-.032.127-.064.254-.1.4-.1.349-.206.7-.3,1.048-.063.222-.127.445-.19.683a.894.894,0,0,1-.063.191c-.19.619-.4,1.238-.6,1.874a.016.016,0,0,1-.016.016c-.016.048-.032.111-.048.159-.191.556-.381,1.111-.572,1.651-.032.079-.064.175-.1.254l-.238.619c-.111.3-.222.588-.333.889-.079.19-.159.381-.222.572-.1.222-.175.46-.27.683-.063.175-.127.333-.207.508l-.429,1c-.079.175-.143.349-.222.524-.032.063-.048.127-.079.19-.254.588-.524,1.159-.794,1.747-.016.032-.032.048-.032.079-.079.159-.159.318-.238.492-.222.445-.429.905-.651,1.35-.032.064-.079.143-.111.206-.175.365-.365.715-.556,1.08-.159.3-.3.587-.46.889-.032.048-.063.111-.1.159-.508.937-1.016,1.858-1.556,2.779-.048.079-.079.159-.127.238-.048.1-.111.175-.159.254-.762,1.286-1.556,2.556-2.382,3.795-.048.063-.079.143-.127.206l-.238.333c-.667.984-1.349,1.969-2.048,2.922h0l-.032.032c-.492.667-1,1.334-1.509,1.985-.016.032-.048.064-.063.1-.381.492-.778.969-1.175,1.445-.064.079-.143.175-.207.254l-.016.016c-.461.556-.921,1.1-1.4,1.635l-.08.079-.428.476-.905,1a1.819,1.819,0,0,1-.175.175c-.207.222-.413.429-.619.651-.222.238-.461.476-.683.714-.079.1-.175.175-.254.254-.222.222-.445.445-.683.667-.191.19-.381.4-.587.587-.111.111-.222.206-.333.318-.238.238-.492.46-.73.683-.175.159-.333.318-.508.476l-.413.365c-.238.222-.492.429-.746.651-.159.127-.3.27-.461.4-.159.143-.333.27-.492.413-.238.206-.492.4-.73.6-.127.1-.254.206-.381.3l-.619.476c-.222.175-.46.349-.683.524-.1.064-.19.143-.286.206-.286.206-.572.4-.841.6-.19.143-.381.27-.572.413-.048.032-.1.079-.143.111-.508.349-1.016.683-1.54,1.016h-.016c-.048.032-.08.048-.127.079-.46.286-.921.572-1.4.857-.111.063-.238.143-.349.206-.381.222-.762.429-1.143.635-.143.079-.286.143-.429.222-.191.111-.4.206-.588.3-.159.079-.3.159-.46.238-.238.127-.492.222-.73.349-.175.079-.349.175-.524.238-.079.032-.143.063-.222.1-.492.222-.969.429-1.445.619-.492.191-.969.381-1.461.556a.888.888,0,0,0-.19.064c-.175.063-.349.111-.524.175-.254.079-.492.175-.746.238-.127.032-.238.064-.365.1-.206.064-.429.127-.635.175-.159.048-.333.1-.492.143-.175.048-.333.079-.508.111-.207.048-.429.1-.635.143a2.534,2.534,0,0,0-.333.079c-.207.032-.4.064-.587.1-.238.048-.492.079-.73.127-.079.016-.175.032-.254.048-.206.032-.4.032-.6.064-.254.032-.524.063-.778.079-.079,0-.159.016-.222.016-.175.016-.349.016-.524.016-.3.016-.619.032-.921.032-.079,0-.175.016-.254.016-.127,0-.254-.016-.4-.016l-1.127-.048c-.111-.016-.238,0-.349-.016-.079,0-.159-.032-.254-.032-.572-.063-1.143-.143-1.7-.238a.439.439,0,0,0-.143-.016c-.016,0-.032,0-.032-.016a2.54,2.54,0,0,1-.333-.079c-.349-.079-.7-.159-1.032-.254-.159-.048-.318-.1-.476-.159-.222-.064-.429-.127-.651-.206-.048-.016-.111-.048-.159-.064-.318-.111-.635-.254-.953-.4-.159-.063-.318-.127-.46-.191-.46-.222-.905-.445-1.35-.7C1147.114,703.335,1149.931,705.462,1150.281,705.541Z" transform="translate(-1121.86 -596.781)" fill="none" stroke="#020f1e" stroke-width="1"/>
        <path id="Path_19769" data-name="Path 19769" d="M1155.242,586.339c0-.143.016-.286.016-.413.016-.3.032-.587.048-.889l.048-1.048c.016-.27.048-.54.063-.81.016-.318.048-.619.079-.937l.048-.619c.048-.444.1-.9.143-1.35.032-.254.048-.524.079-.778.016-.079.016-.175.032-.254.111-.81.222-1.635.349-2.445a.058.058,0,0,1,.016-.048c.016-.111.048-.238.063-.349.111-.683.222-1.381.349-2.064a2.481,2.481,0,0,1,.079-.365c.064-.333.127-.651.207-.984l.238-1.191c.048-.222.111-.445.159-.667.079-.365.159-.714.254-1.08l.19-.81c.079-.333.175-.651.254-.984.1-.365.191-.714.286-1.08l.143-.524c.127-.476.27-.937.413-1.413.1-.3.175-.6.27-.9.032-.079.048-.175.079-.254q.381-1.262.81-2.524c0-.016,0-.016.016-.032a1.1,1.1,0,0,1,.079-.206c.254-.746.508-1.492.778-2.239a3.089,3.089,0,0,0,.127-.349c.111-.286.207-.572.318-.841.143-.4.3-.794.445-1.191.1-.254.206-.508.3-.762.127-.3.254-.619.365-.921.1-.222.175-.461.27-.683.191-.445.381-.905.587-1.35.111-.238.207-.476.3-.714.032-.079.079-.175.111-.254.349-.794.7-1.572,1.08-2.366l.048-.1c.111-.222.222-.445.318-.667.286-.6.572-1.207.873-1.81l.143-.286c.254-.492.508-.984.762-1.461.206-.4.4-.794.6-1.175.032-.079.079-.143.111-.206.683-1.27,1.381-2.525,2.112-3.763.063-.111.111-.222.175-.318.191-.318.381-.619.572-.937.3-.508.6-1.016.921-1.524l.857-1.334.953-1.477c.111-.159.206-.333.318-.492s.222-.3.318-.46c.905-1.334,1.826-2.651,2.779-3.953h0c0-.016.016-.016.016-.032.667-.9,1.365-1.81,2.048-2.7a.88.88,0,0,0,.1-.127c.508-.651,1.032-1.286,1.556-1.921.1-.127.207-.254.3-.381,0-.016.016-.016.016-.032.619-.746,1.254-1.477,1.889-2.207a.69.69,0,0,0,.1-.111c.191-.222.381-.429.588-.651.413-.46.81-.905,1.223-1.35l.238-.238c.27-.3.556-.587.841-.873l.921-.969c.111-.111.238-.222.349-.349.3-.3.619-.6.921-.905.27-.254.524-.524.794-.778.143-.143.3-.286.46-.429.333-.318.667-.619,1-.921.238-.206.46-.429.7-.651.175-.159.365-.318.556-.476.333-.3.667-.587,1-.873.206-.175.413-.365.619-.54.222-.191.444-.365.667-.556.333-.27.651-.54.984-.81.175-.143.333-.286.508-.413.286-.222.572-.429.841-.651.3-.238.619-.476.921-.7l.381-.286c.381-.286.762-.54,1.143-.81.254-.191.508-.365.778-.556.064-.048.143-.1.207-.143.683-.476,1.381-.921,2.08-1.365a.016.016,0,0,0,.016-.016,1.4,1.4,0,0,1,.159-.1c.635-.4,1.254-.794,1.905-1.159l.476-.286c.524-.3,1.032-.587,1.556-.873.19-.111.4-.206.587-.3.27-.143.54-.286.794-.413.206-.111.413-.222.619-.318.333-.159.651-.3.984-.46.238-.111.476-.222.7-.333l.286-.143c.651-.286,1.3-.572,1.953-.826h0c.667-.27,1.318-.508,1.969-.746.079-.032.175-.048.254-.079.238-.079.476-.159.7-.238l1-.333c.159-.048.333-.1.492-.143l.857-.238.667-.19c.238-.064.46-.1.683-.159l.858-.191c.159-.032.3-.079.46-.1.27-.048.54-.079.794-.127.333-.064.667-.111.984-.159.111-.016.238-.048.349-.063.27-.032.54-.048.81-.079.349-.032.7-.079,1.048-.111a1.944,1.944,0,0,1,.3-.032c.238-.016.461-.016.7-.016l1.238-.048c.111,0,.238-.016.349-.016.175,0,.349.016.524.032.524.016,1.032.032,1.54.079.159.016.318,0,.461.016.206.016.429.048.635.079.159.016.318.032.476.064.572.079,1.143.159,1.7.27.016,0,.032.016.048.016.159.032.3.079.445.111.46.111.937.206,1.381.333.222.064.429.143.651.206.286.1.587.175.873.27a1.782,1.782,0,0,0,.207.079c.444.159.857.333,1.286.524.206.1.413.175.619.27a19.915,19.915,0,0,1,1.826.953l8.32,4.843c-.588-.349-1.207-.651-1.826-.953-.206-.1-.413-.175-.619-.27q-.643-.286-1.286-.524c-.349-.127-.715-.238-1.08-.365-.222-.064-.429-.143-.651-.206q-.691-.191-1.381-.333c-.159-.032-.3-.079-.46-.111q-.857-.167-1.762-.286c-.159-.016-.318-.032-.476-.064-.365-.048-.73-.064-1.1-.1-.508-.032-1.016-.064-1.54-.079-.286,0-.587-.016-.873-.016q-.619,0-1.238.048l-1.016.048c-.349.032-.7.063-1.048.111-.381.048-.762.079-1.159.143-.333.048-.651.111-.984.159-.413.079-.841.143-1.254.238l-.858.191c-.444.111-.905.222-1.349.333l-.857.238c-.492.143-.984.3-1.492.46-.238.079-.46.143-.7.238-.73.254-1.477.524-2.223.826h0c-.746.3-1.493.619-2.239.969-.238.111-.476.222-.7.333-.524.254-1.064.508-1.6.778-.27.127-.524.27-.794.413-.715.381-1.429.762-2.144,1.175-.794.46-1.588.937-2.382,1.445l-.143.1c-.778.492-1.54,1-2.3,1.524-.254.175-.508.365-.778.556l-1.524,1.1c-.3.238-.619.461-.921.7-.46.349-.9.7-1.365,1.064-.333.27-.667.54-.984.81-.429.349-.857.714-1.286,1.08-.333.286-.667.588-1,.873-.413.365-.826.746-1.239,1.127-.333.3-.667.619-1,.921-.413.4-.842.794-1.254,1.207-.3.3-.619.6-.921.9-.429.429-.858.873-1.286,1.318-.286.286-.556.572-.842.873-.492.524-.969,1.064-1.461,1.6-.19.222-.381.429-.587.635q-1.024,1.143-2,2.334c-.1.127-.207.254-.3.381-.556.683-1.111,1.35-1.651,2.048-.7.889-1.381,1.794-2.048,2.7,0,.016-.016.016-.016.032-.953,1.286-1.874,2.62-2.779,3.953-.206.318-.429.635-.635.953l-.953,1.477c-.286.445-.572.889-.842,1.334-.318.508-.619,1.016-.921,1.524-.254.413-.508.841-.746,1.254-.73,1.238-1.429,2.493-2.112,3.763-.254.461-.492.921-.73,1.4-.254.492-.508.969-.762,1.461-.349.7-.683,1.381-1.016,2.08-.111.222-.222.445-.333.683-.429.9-.826,1.81-1.239,2.715-.111.238-.206.476-.3.715-.286.667-.572,1.349-.857,2.032-.127.318-.254.619-.381.937l-.762,1.953c-.111.286-.206.556-.318.842-.318.873-.619,1.731-.921,2.6a1.1,1.1,0,0,1-.079.206c-.318.937-.619,1.874-.889,2.81-.1.3-.175.6-.27.9-.191.651-.381,1.286-.556,1.937-.1.365-.19.715-.286,1.08-.159.6-.3,1.207-.444,1.81-.08.349-.175.714-.254,1.064-.143.619-.27,1.238-.4,1.858-.063.333-.143.651-.206.984q-.238,1.215-.429,2.429c-.016.111-.048.238-.064.349q-.214,1.381-.381,2.763c-.032.254-.063.524-.079.778-.079.667-.143,1.318-.206,1.985-.032.318-.048.619-.079.937-.048.619-.079,1.238-.111,1.858-.016.3-.032.587-.048.889q-.048,1.31-.048,2.62c0,.905.032,1.81.063,2.683.016.254.032.492.048.73.032.6.079,1.207.127,1.794.032.333.063.667.111,1,.048.492.111,1,.175,1.477.048.365.1.715.159,1.064.064.445.143.889.222,1.334.079.4.159.778.238,1.175s.175.778.27,1.159c.111.461.222.905.349,1.334.1.349.191.683.3,1.016.159.524.333,1.048.508,1.556.1.27.19.556.286.826q.476,1.286,1.048,2.477c.286.619.587,1.223.921,1.81v.016c.318.587.667,1.159,1.016,1.7.079.111.143.222.222.333.27.413.556.81.842,1.191.111.159.238.318.349.46.27.349.556.7.842,1.032l.333.381c.4.445.794.873,1.223,1.27.063.064.127.111.175.159.365.349.746.683,1.127,1,.143.111.286.222.429.349l1,.762c.143.1.286.206.429.3.476.318.953.635,1.445.921l-8.32-4.843c-.492-.286-.969-.6-1.445-.921-.143-.1-.286-.206-.428-.3q-.5-.357-1-.762c-.143-.111-.286-.222-.429-.349-.381-.318-.762-.651-1.127-1a1.811,1.811,0,0,1-.175-.175c-.413-.413-.826-.826-1.223-1.27l-.333-.381c-.286-.333-.572-.667-.842-1.032-.111-.159-.238-.3-.349-.46-.286-.381-.572-.794-.841-1.191-.079-.111-.143-.222-.222-.333-.016-.032-.048-.064-.063-.1-.333-.524-.651-1.048-.953-1.6v-.016c-.3-.556-.6-1.127-.873-1.715-.016-.032-.016-.063-.032-.079-.381-.794-.714-1.62-1.048-2.477-.032-.079-.064-.143-.1-.206-.079-.19-.127-.413-.206-.6-.175-.508-.349-1.016-.508-1.556-.048-.143-.1-.27-.143-.413-.063-.19-.1-.413-.159-.6-.127-.445-.238-.889-.349-1.334-.048-.191-.1-.365-.143-.54-.048-.206-.079-.413-.127-.619-.079-.381-.159-.778-.238-1.175-.032-.206-.079-.4-.127-.6-.048-.238-.063-.492-.111-.73-.063-.349-.111-.7-.159-1.064-.032-.175-.063-.365-.079-.54-.032-.3-.063-.619-.1-.937-.032-.333-.079-.667-.111-1.016-.016-.143-.032-.27-.048-.413-.032-.46-.063-.921-.079-1.381-.016-.254-.032-.492-.048-.73,0-.063-.016-.127-.016-.175-.032-.778-.048-1.556-.048-2.366v-.143A20.869,20.869,0,0,0,1155.242,586.339Z" transform="translate(-1155.099 -497.6)" fill="none" stroke="#020f1e" stroke-width="1"/>
        <path id="Path_19770" data-name="Path 19770" d="M1113.579,534.344c26.976-15.56,48.9-3.064,48.982,27.928s-21.689,68.734-48.664,84.293c-26.976,15.576-48.918,3.08-49-27.913C1064.8,587.676,1086.6,549.935,1113.579,534.344Zm-27.452,98.774c6.653,5.255,16.608,5.271,27.722-1.143,19.958-11.511,36.074-39.44,36.01-62.367-.032-12.591-4.938-21.053-12.654-24.213a.016.016,0,0,0-.016-.016c-6.335-2.6-14.576-1.635-23.578,3.557-19.958,11.527-36.074,39.456-36.01,62.383.032,10.146,3.223,17.624,8.51,21.784C1086.111,633.117,1086.127,633.133,1086.127,633.117Z" transform="translate(-1056.468 -522.88)" fill="none" stroke="#020f1e" stroke-width="1"/>
      </g>
      <g id="online-service" transform="matrix(0.875, -0.485, 0.485, 0.875, 1014.054, 1204.903)">
        <path id="Path_19318" data-name="Path 19318" d="M218.506,346.845l1.086-16.477.731.048-1.072,16.266,6.221,4.1-.147.816S218.5,346.975,218.506,346.845Zm-17.3-6.928-6.565-4.388a.366.366,0,0,1-.121-.135l-6.608-12.646a.366.366,0,0,1,.018-.371l12.783-19.458a55.427,55.427,0,0,1,.04-10.285l.73.067a54.576,54.576,0,0,0-.028,10.276.367.367,0,0,1-.059.237L188.664,322.6l6.465,12.372,6.487,4.336ZM235.979,310.7a20.242,20.242,0,0,1-6.667-1.067l.24-.692c4.884,1.7,10.906,1.283,17.415-1.2,6.725-2.564,13.671-7.239,20.086-13.52,18.642-18.251,27.876-45.132,20.583-59.924a17.82,17.82,0,0,0-2.787-4.139l.542-.494a18.55,18.55,0,0,1,2.9,4.309c7.423,15.054-1.876,42.316-20.727,60.772-6.486,6.351-13.519,11.082-20.337,13.682A31.846,31.846,0,0,1,235.979,310.7Zm-40.712-19.958-6.565-4.388a.366.366,0,0,1-.143-.423l7.225-21.1a.367.367,0,0,1,.181-.208l16.87-8.544a124.161,124.161,0,0,1,8.408-13.155l-.542-16.945a.366.366,0,0,1,.11-.273l16.813-16.467a.366.366,0,0,1,.46-.043l6.565,4.388-.408.609-6.317-4.222L221.44,226.117l.541,16.911a.365.365,0,0,1-.071.228,123.414,123.414,0,0,0-8.487,13.277.367.367,0,0,1-.155.15l-16.838,8.527-7.086,20.695,6.33,4.231ZM325.389,253.5l-6.531-4.364-5.745-2.191.261-.685,5.784,2.206a.357.357,0,0,1,.073.038l6.565,4.387Zm-76.538-36.787-.408-.609c1.189-.8,11.252-6.4,12.512-7.155l.377.628C260.086,210.322,250.032,215.916,248.851,216.709Zm46.433-5.721c-.461-.35-.192-.843.222-.536l17.385-11.141a.366.366,0,0,1,.395.008l6.565,4.388-.407.609-6.37-4.258-17.252,11.092A1.354,1.354,0,0,1,295.284,210.988Zm-33.953-1.415-.629-.377,11.491-19.216a.367.367,0,0,1,.267-.175l16.55-2.175a.37.37,0,0,1,.252.059l6.57,4.408-.408.609-6.456-4.331-16.237,2.134Z" transform="translate(0)" fill="#020f1e"/>
        <path id="Path_19323" data-name="Path 19323" d="M241.265,362.2a.366.366,0,0,1-.366-.391l1.17-17.759a24.043,24.043,0,0,1-7.84-3.8l-16.8,10.249a.367.367,0,0,1-.516-.143l-6.608-12.646a.366.366,0,0,1,.018-.371l12.784-19.458A56.7,56.7,0,0,1,223.318,306l-12.149-4.636a.366.366,0,0,1-.216-.461l7.225-21.1a.367.367,0,0,1,.181-.208l16.87-8.543a124.129,124.129,0,0,1,8.408-13.155l-.542-16.946a.367.367,0,0,1,.11-.274l16.814-16.467a.367.367,0,0,1,.445-.052l10.96,6.564A78.588,78.588,0,0,1,283,224.27l11.583-19.323a.366.366,0,0,1,.267-.175L311.4,202.6a.373.373,0,0,1,.3.1.367.367,0,0,1,.115.291l-1.166,17.754a23.955,23.955,0,0,1,7.84,3.8l16.794-10.262a.366.366,0,0,1,.52.151l6.591,13.383a.366.366,0,0,1-.026.368l-12.762,18.732a57.215,57.215,0,0,1-.206,11.882l12.151,4.634a.366.366,0,0,1,.216.461l-7.223,21.1a.367.367,0,0,1-.181.208l-16.879,8.54a123.115,123.115,0,0,1-8.409,13.154l.549,16.947a.366.366,0,0,1-.11.274L292.7,340.578a.367.367,0,0,1-.444.052l-10.966-6.562a76.637,76.637,0,0,1-11.577,6.443l-11.58,19.329a.367.367,0,0,1-.266.175L241.313,362.2a.39.39,0,0,1-.048,0Zm-7.015-22.756a.367.367,0,0,1,.221.074,23.336,23.336,0,0,0,8.079,3.9.366.366,0,0,1,.271.378l-1.161,17.612,15.937-2.1,11.548-19.277a.365.365,0,0,1,.167-.147,75.984,75.984,0,0,0,11.762-6.557.364.364,0,0,1,.393-.011l10.922,6.537,16.5-16.155-.548-16.912a.366.366,0,0,1,.071-.229,122.367,122.367,0,0,0,8.488-13.276.366.366,0,0,1,.155-.15l16.847-8.523,7.061-20.625-12.088-4.609a.366.366,0,0,1-.233-.386,56.582,56.582,0,0,0,.225-12.141.367.367,0,0,1,.062-.242l12.716-18.665-6.319-12.832L318.661,225.3a.366.366,0,0,1-.413-.021,23.253,23.253,0,0,0-8.077-3.908.366.366,0,0,1-.27-.378l1.156-17.607-15.931,2.094-11.552,19.27a.367.367,0,0,1-.166.147,77.926,77.926,0,0,0-11.768,6.562.366.366,0,0,1-.393.01l-10.916-6.537-16.5,16.156.541,16.911a.366.366,0,0,1-.071.228,123.388,123.388,0,0,0-8.487,13.277.367.367,0,0,1-.155.15l-16.838,8.527L211.761,300.8l12.085,4.612a.366.366,0,0,1,.233.386,56.071,56.071,0,0,0-.228,12.141.367.367,0,0,1-.059.237l-12.736,19.386,6.327,12.108L234.059,339.5a.366.366,0,0,1,.191-.054Zm24.168-13.773a22.124,22.124,0,0,1-3.73-.308,16.8,16.8,0,0,1-12.657-9.52c-7.426-15.048,1.873-42.313,20.729-60.778,11.806-11.555,24.991-17.4,35.269-15.647a16.8,16.8,0,0,1,12.658,9.525c7.422,15.054-1.876,42.316-20.727,60.772-10.419,10.2-21.915,15.957-31.542,15.957Zm35.87-85.829c-9.424,0-20.73,5.681-31.015,15.748-18.646,18.259-27.88,45.143-20.584,59.93a16.091,16.091,0,0,0,12.123,9.122c10.053,1.719,23-4.057,34.635-15.45,18.643-18.251,27.876-45.133,20.583-59.924a16.1,16.1,0,0,0-12.124-9.126A21.452,21.452,0,0,0,294.288,239.845Z" transform="translate(-15.828 -10.579)" fill="#020f1e"/>
        <path id="Path_19334" data-name="Path 19334" d="M355.841,418.979q-.3-.01-.6-.03l.048-.731q.284.019.573.028Zm1.2,0-.026-.732q.285-.01.575-.029l.048.731Q357.335,418.966,357.038,418.976Zm1.785-.144-.091-.727q.284-.036.57-.079l.111.724q-.3.045-.59.082Zm-4.774-.008q-.3-.042-.593-.1l.133-.721q.28.052.564.092Zm6.538-.286-.149-.717q.281-.059.565-.124l.165.714q-.292.067-.581.127Zm-8.3-.079q-.292-.08-.578-.172l.224-.7q.27.087.547.163Zm10.037-.344-.2-.705q.277-.078.555-.163l.213.7Q362.6,418.036,362.32,418.116Zm1.7-.537-.242-.692q.272-.095.544-.2l.256.686Q364.3,417.481,364.018,417.579Zm1.662-.636-.281-.677q.266-.11.533-.227l.293.671q-.273.12-.546.233Zm1.623-.726-.316-.661q.26-.124.522-.254l.326.656Q367.569,416.09,367.3,416.217Zm1.583-.8-.346-.646q.254-.137.509-.278l.357.64q-.26.145-.52.284Zm1.545-.876-.376-.629q.249-.149.5-.3l.383.624Q370.684,414.387,370.431,414.538Zm1.5-.939-.4-.613q.242-.159.485-.322l.408.609Q372.182,413.438,371.936,413.6Zm1.466-1-.424-.6q.237-.168.473-.339l.431.593q-.24.174-.48.344Zm1.426-1.05-.444-.583q.23-.175.46-.356l.452.577Q375.062,411.372,374.828,411.551Zm1.389-1.1-.464-.567q.224-.184.449-.372l.471.562q-.227.191-.454.377Zm1.351-1.145-.482-.551q.218-.191.436-.386l.489.546q-.221.2-.442.391Zm1.313-1.186-.5-.536q.212-.2.424-.4l.5.531q-.215.2-.43.4Zm1.277-1.226-.515-.521q.207-.2.412-.412l.52.517Q380.368,406.686,380.158,406.893Zm1.239-1.261-.53-.506q.2-.21.4-.423l.535.5q-.2.216-.4.429Zm1.2-1.3-.544-.491q.195-.216.388-.434l.549.486q-.195.22-.392.439Zm1.164-1.329-.558-.475q.189-.222.375-.445l.563.47Q383.954,402.782,383.763,403.007Zm1.126-1.361-.571-.459q.182-.227.362-.455l.575.454q-.182.231-.366.46Zm1.088-1.391-.584-.443q.176-.232.349-.465l.588.438Q386.155,400.02,385.977,400.255Zm1.048-1.42-.6-.427q.169-.236.336-.473l.6.422Q387.2,398.6,387.024,398.834Zm1.008-1.448-.608-.41q.163-.241.323-.483l.611.4q-.162.244-.327.488Zm.969-1.478-.619-.393q.157-.246.311-.493l.622.388q-.155.25-.314.5Zm.928-1.506-.629-.376q.15-.251.3-.5l.633.37q-.149.254-.3.508Zm.885-1.532-.639-.358q.142-.255.281-.51l.643.352q-.141.259-.286.516Zm.841-1.557-.65-.338q.135-.259.267-.519l.653.333q-.133.262-.27.524Zm.8-1.581-.66-.32q.127-.263.251-.526l.663.313Q392.58,389.465,392.451,389.732Zm.748-1.6-.669-.3q.119-.266.235-.533l.672.292q-.117.27-.238.54Zm.7-1.628-.678-.278q.111-.271.218-.54l.681.27q-.108.274-.221.548Zm.644-1.65-.687-.255q.1-.274.2-.547l.69.247Q394.643,384.572,394.54,384.849Zm.589-1.671-.7-.231q.092-.277.181-.554l.7.223Q395.222,382.9,395.129,383.178Zm.529-1.692-.7-.206q.082-.28.16-.559l.706.2Q395.741,381.2,395.658,381.487Zm.466-1.711-.711-.179q.071-.283.138-.565l.713.169q-.068.287-.14.575Zm.4-1.729-.718-.15q.06-.285.114-.569l.719.139q-.056.289-.116.581Zm.322-1.746-.724-.117q.046-.287.088-.574l.725.105Q396.891,376.008,396.843,376.3Zm.241-1.76-.728-.081q.032-.29.059-.577l.73.069Q397.117,374.244,397.084,374.54Zm.151-1.772-.731-.042q.017-.291.028-.579l.732.028Q397.252,372.47,397.234,372.768Zm-.682-1.778q0-.291-.007-.579l.733-.016q.006.3.007.594Zm-.059-1.733q-.02-.29-.046-.576l.73-.067q.027.295.047.593Zm-.18-1.722q-.041-.287-.089-.57l.722-.123q.05.292.092.589Zm-.315-1.7q-.064-.282-.137-.558l.709-.186q.076.288.143.58Zm-.464-1.66q-.091-.274-.19-.542l.687-.255q.1.279.2.565Zm-.626-1.6q-.1-.212-.2-.421l-.047-.1.654-.33.05.1q.108.218.209.44Zm-.8-1.518q-.149-.246-.306-.481l.61-.406q.166.248.323.508Zm-.98-1.4q-.179-.223-.367-.435l.548-.485q.2.225.39.461Zm-1.16-1.248q-.209-.194-.426-.376l.472-.561q.23.194.452.4Zm-1.33-1.062q-.235-.16-.477-.308l.383-.625q.258.158.508.328Z" transform="translate(-115.804 -119.306)" fill="#020f1e"/>
        <path id="Path_19338" data-name="Path 19338" d="M0,0H.733V7.9H0Z" transform="matrix(0.556, -0.831, 0.831, 0.556, 200.889, 303.317)" fill="#020f1e"/>
        <path id="Path_19339" data-name="Path 19339" d="M0,0H.733V7.9H0Z" transform="matrix(0.556, -0.831, 0.831, 0.556, 188.035, 322.883)" fill="#020f1e"/>
        <path id="Path_19341" data-name="Path 19341" d="M0,0H.733V7.9H0Z" transform="matrix(0.556, -0.831, 0.831, 0.556, 220.864, 226.272)" fill="#020f1e"/>
        <path id="Path_19342" data-name="Path 19342" d="M0,0H.733V7.9H0Z" transform="translate(221.411 243.344) rotate(-56.241)" fill="#020f1e"/>
        <path id="Path_19343" data-name="Path 19343" d="M0,0H.733V7.9H0Z" transform="matrix(0.556, -0.831, 0.831, 0.556, 212.898, 256.661)" fill="#020f1e"/>
        <path id="Path_19344" data-name="Path 19344" d="M0,0H.733V7.9H0Z" transform="matrix(0.556, -0.831, 0.831, 0.556, 195.928, 265.256)" fill="#020f1e"/>
        <path id="Path_19346" data-name="Path 19346" d="M0,0H.733V7.9H0Z" transform="translate(272.304 190.474) rotate(-56.241)" fill="#020f1e"/>
      </g>
      <path id="dollar" d="M448.494,42.105a19.729,19.729,0,0,1-2.082,9.363q-2.082,3.926-5.409,4.85c0,6.55-.2,7.413-.4,7.413l-3.031-.545a.563.563,0,0,1-.471-.338,1.547,1.547,0,0,1-.2-.8l-.069-5.731a9.056,9.056,0,0,1-2.668-1.1,12.376,12.376,0,0,1-2.124-1.581,18.583,18.583,0,0,1-2.522-3.038q-.262-.426-.366-.64a1.672,1.672,0,0,1-.042-1.457l2.155-4.8a.654.654,0,0,1,.481-.426c.209-.047,3.066-.261,3.191,0,1.618,2.416.624,4.216,2.438,4.832a4.467,4.467,0,0,0,1.549.284,3.816,3.816,0,0,0,2.982-1.528,6.544,6.544,0,0,0,1.287-4.335,5.611,5.611,0,0,0-.314-1.883,7.252,7.252,0,0,0-.7-1.492,6.574,6.574,0,0,0-1.224-1.332q-.837-.728-1.381-1.137T437.9,35.532q-.816-.569-1.287-.888t-1.287-.942a14.461,14.461,0,0,1-1.308-1.1q-.492-.48-1.182-1.261a9.9,9.9,0,0,1-1.12-1.51q-.429-.728-.91-1.741a11,11,0,0,1-.743-2.061,22.014,22.014,0,0,1-.439-2.363,20.681,20.681,0,0,1-.178-2.771,17.432,17.432,0,0,1,2.051-8.6,9.505,9.505,0,0,1,5.336-4.761v-5.4a1.547,1.547,0,0,1,.2-.8A.563.563,0,0,1,437.507,1l2.783-1.5a.553.553,0,0,1,.481.32,1.594,1.594,0,0,1,.188.817L441,7.391a7.7,7.7,0,0,1,2.312.817,11,11,0,0,1,1.821,1.19,10.772,10.772,0,0,1,1.329,1.332q.628.746.816,1.03t.314.5a1.578,1.578,0,0,1,.1,1.35l1.246,5.081c-.112.355-3.213.651-3.422.675q-.293.107-.565-.249-.063-.107-.3-.426t-.816-.942a10.911,10.911,0,0,0-1.224-1.137,7.31,7.31,0,0,0-1.559-.924,4.348,4.348,0,0,0-1.789-.409,4.005,4.005,0,0,0-3.244,1.528,6.009,6.009,0,0,0-1.256,3.944,7.685,7.685,0,0,0,.178,1.706,4.671,4.671,0,0,0,.617,1.475,12.786,12.786,0,0,0,.827,1.173,7.577,7.577,0,0,0,1.172,1.1q.785.622,1.266.959t1.465.977q1.109.711,1.7,1.119t1.59,1.244a13.107,13.107,0,0,1,1.58,1.51,18,18,0,0,1,1.3,1.777,9.792,9.792,0,0,1,1.109,2.256,18.737,18.737,0,0,1,.659,2.718A19.5,19.5,0,0,1,448.494,42.105Z" transform="translate(928.071 1284.019)" fill="none" stroke="#020f1e" stroke-width="1"/>
      <path id="dollar-2" data-name="dollar" d="M448.494,42.5a20.071,20.071,0,0,1-2.082,9.451q-2.082,3.963-5.409,4.9v6.277a1.621,1.621,0,0,1-.188.825.553.553,0,0,1-.481.323h-2.825a.563.563,0,0,1-.471-.341,1.573,1.573,0,0,1-.2-.807V56.851a9.009,9.009,0,0,1-2.668-1.112,12.385,12.385,0,0,1-2.124-1.6,16.242,16.242,0,0,1-1.549-1.722,16.422,16.422,0,0,1-.973-1.345q-.262-.43-.366-.646a1.7,1.7,0,0,1-.042-1.471l2.155-4.842a.656.656,0,0,1,.481-.43q.314-.072.5.323l.042.072a10.608,10.608,0,0,0,5.085,4.483,4.43,4.43,0,0,0,1.549.287,3.8,3.8,0,0,0,2.982-1.542,6.649,6.649,0,0,0,1.287-4.376,5.712,5.712,0,0,0-.314-1.9,7.352,7.352,0,0,0-.7-1.506,6.614,6.614,0,0,0-1.224-1.345q-.837-.735-1.381-1.148T437.9,35.868q-.816-.574-1.287-.9t-1.287-.95a14.5,14.5,0,0,1-1.308-1.112q-.492-.484-1.182-1.273a9.988,9.988,0,0,1-1.12-1.524q-.429-.735-.91-1.758a11.168,11.168,0,0,1-.743-2.08,22.41,22.41,0,0,1-.439-2.385,21.071,21.071,0,0,1-.178-2.8,17.731,17.731,0,0,1,2.051-8.68A9.534,9.534,0,0,1,436.838,7.6V1.148a1.573,1.573,0,0,1,.2-.807A.563.563,0,0,1,437.507,0h2.825a.553.553,0,0,1,.481.323,1.621,1.621,0,0,1,.188.825V7.461a7.656,7.656,0,0,1,2.312.825,10.99,10.99,0,0,1,1.821,1.2,10.824,10.824,0,0,1,1.329,1.345q.628.753.816,1.04t.314.5a1.607,1.607,0,0,1,.1,1.363L446,18.974q-.167.538-.481.574-.293.108-.565-.251-.063-.108-.3-.43t-.816-.951a10.952,10.952,0,0,0-1.224-1.148,7.3,7.3,0,0,0-1.559-.933,4.314,4.314,0,0,0-1.789-.412,3.991,3.991,0,0,0-3.244,1.542,6.1,6.1,0,0,0-1.256,3.981,7.828,7.828,0,0,0,.178,1.722,4.739,4.739,0,0,0,.617,1.489,12.908,12.908,0,0,0,.827,1.184,7.608,7.608,0,0,0,1.172,1.112q.785.628,1.266.968t1.465.986q1.109.717,1.7,1.13t1.59,1.255a13.162,13.162,0,0,1,1.58,1.524,18.168,18.168,0,0,1,1.3,1.793,9.923,9.923,0,0,1,1.109,2.278,19.062,19.062,0,0,1,.659,2.744A19.861,19.861,0,0,1,448.494,42.5Z" transform="translate(931.071 1283.417)" fill="#05c168" stroke="#020f1e" stroke-width="1"/>
    </g>
    <g id="online-service-2" data-name="online-service" transform="translate(849.861 1167.1) rotate(-28)">
      <path id="Path_19318-2" data-name="Path 19318" d="M234.773,431.388l1.662-25.226,1.12.074-1.641,24.9,9.525,6.276-.225,1.25S234.76,431.588,234.773,431.388Zm-26.483-10.607-10.051-6.718a.56.56,0,0,1-.185-.206L187.937,394.5a.561.561,0,0,1,.028-.568l19.571-29.79a84.861,84.861,0,0,1,.061-15.747l1.118.1a83.554,83.554,0,0,0-.043,15.732.561.561,0,0,1-.09.362l-19.5,29.679,9.9,18.941,9.932,6.639Zm53.234-44.725a30.99,30.99,0,0,1-10.208-1.634l.368-1.059c7.477,2.6,16.7,1.964,26.663-1.834,10.3-3.925,20.93-11.083,30.751-20.7,28.542-27.942,42.678-69.1,31.512-91.744a27.285,27.285,0,0,0-4.267-6.337l.83-.756a28.4,28.4,0,0,1,4.444,6.6c11.364,23.048-2.872,64.786-31.734,93.042-9.93,9.723-20.7,16.966-31.136,20.947A48.758,48.758,0,0,1,261.523,376.057ZM199.194,345.5l-10.051-6.718a.561.561,0,0,1-.219-.648l11.062-32.308a.562.562,0,0,1,.277-.319l25.828-13.08a190.087,190.087,0,0,1,12.873-20.141l-.83-25.943a.56.56,0,0,1,.168-.418l25.741-25.21a.56.56,0,0,1,.7-.066l10.051,6.718-.624.933-9.672-6.464-25.24,24.719.829,25.89a.56.56,0,0,1-.108.35,188.945,188.945,0,0,0-12.994,20.327.561.561,0,0,1-.238.23l-25.779,13.055-10.849,31.683,9.692,6.478ZM398.41,288.472l-10-6.682-8.8-3.354.4-1.048,8.855,3.377a.545.545,0,0,1,.111.058l10.051,6.717ZM281.23,232.151l-.625-.932c1.82-1.222,17.227-9.8,19.156-10.954l.578.961c-1.908,1.146-17.3,9.71-19.108,10.924Zm71.089-8.759c-.706-.536-.294-1.29.339-.821l26.616-17.056a.56.56,0,0,1,.6.012l10.051,6.718-.623.933-9.753-6.519-26.413,16.982A2.073,2.073,0,0,1,352.32,223.392Zm-51.981-2.166-.963-.577,17.592-29.42a.561.561,0,0,1,.408-.268l25.337-3.33a.566.566,0,0,1,.386.09l10.059,6.749-.625.932-9.884-6.631-24.859,3.267Z" transform="translate(0)" fill="#020f1e"/>
      <path id="Path_19323-2" data-name="Path 19323" d="M257.726,446.953a.561.561,0,0,1-.56-.6l1.791-27.189a36.809,36.809,0,0,1-12-5.815l-25.718,15.692a.562.562,0,0,1-.79-.219l-10.116-19.361a.561.561,0,0,1,.028-.568l19.572-29.79a86.812,86.812,0,0,1,.319-18.2l-18.6-7.1a.561.561,0,0,1-.331-.706l11.062-32.308a.562.562,0,0,1,.277-.319l25.828-13.08a190.04,190.04,0,0,1,12.873-20.141l-.83-25.944a.561.561,0,0,1,.168-.419l25.742-25.21a.562.562,0,0,1,.681-.08l16.78,10.049a120.318,120.318,0,0,1,17.729-9.871L339.361,206.2a.561.561,0,0,1,.408-.268l25.337-3.33a.572.572,0,0,1,.457.147.561.561,0,0,1,.176.446l-1.785,27.181a36.675,36.675,0,0,1,12,5.82l25.711-15.712a.561.561,0,0,1,.8.231l10.09,20.49a.561.561,0,0,1-.04.564l-19.539,28.679a87.594,87.594,0,0,1-.316,18.191l18.6,7.095a.561.561,0,0,1,.331.706l-11.059,32.3a.561.561,0,0,1-.278.319l-25.841,13.074a188.489,188.489,0,0,1-12.874,20.139l.841,25.945a.561.561,0,0,1-.168.419l-25.742,25.209a.562.562,0,0,1-.68.08L319.005,403.88a117.336,117.336,0,0,1-17.724,9.864l-17.729,29.592a.561.561,0,0,1-.408.268L257.8,446.948a.594.594,0,0,1-.074,0Zm-10.74-34.839a.561.561,0,0,1,.338.114,35.728,35.728,0,0,0,12.369,5.977.561.561,0,0,1,.414.579l-1.777,26.963,24.4-3.219,17.681-29.513a.559.559,0,0,1,.255-.225,116.332,116.332,0,0,0,18.008-10.039.557.557,0,0,1,.6-.016L336,412.742l25.257-24.734-.839-25.892a.561.561,0,0,1,.109-.35,187.348,187.348,0,0,0,12.995-20.325.56.56,0,0,1,.238-.23l25.792-13.049,10.81-31.576-18.506-7.056a.561.561,0,0,1-.357-.591,86.631,86.631,0,0,0,.345-18.587.562.562,0,0,1,.094-.371L411.4,241.4l-9.674-19.645-25.511,15.589a.56.56,0,0,1-.632-.032,35.6,35.6,0,0,0-12.366-5.983.561.561,0,0,1-.414-.578l1.77-26.956-24.391,3.206-17.686,29.5a.561.561,0,0,1-.254.224,119.3,119.3,0,0,0-18.017,10.047.56.56,0,0,1-.6.015l-16.713-10.009-25.256,24.735.829,25.89a.56.56,0,0,1-.108.35,188.907,188.907,0,0,0-12.994,20.327.561.561,0,0,1-.238.229l-25.779,13.055-10.813,31.579,18.5,7.061a.561.561,0,0,1,.357.592,85.845,85.845,0,0,0-.349,18.589.561.561,0,0,1-.09.363l-19.5,29.679,9.687,18.538,25.53-15.577a.56.56,0,0,1,.292-.082Zm37-21.086a33.864,33.864,0,0,1-5.711-.471A25.716,25.716,0,0,1,258.9,375.981c-11.369-23.039,2.868-64.781,31.736-93.05,18.075-17.691,38.261-26.645,54-23.956a25.727,25.727,0,0,1,19.379,14.582c11.363,23.047-2.872,64.786-31.734,93.041-15.951,15.619-33.552,24.429-48.29,24.429Zm54.917-131.4c-14.428,0-31.738,8.7-47.484,24.109-28.547,27.955-42.685,69.114-31.515,91.752a24.635,24.635,0,0,0,18.56,13.965c15.392,2.631,35.214-6.212,53.026-23.654,28.542-27.942,42.678-69.1,31.512-91.744a24.643,24.643,0,0,0-18.562-13.972,32.842,32.842,0,0,0-5.538-.457Z" transform="translate(-12.342 -8.249)" fill="#020f1e"/>
      <path id="Path_19338-2" data-name="Path 19338" d="M0,0H1.122V12.089H0Z" transform="matrix(0.556, -0.831, 0.831, 0.556, 207.801, 364.748)" fill="#020f1e"/>
      <path id="Path_19339-2" data-name="Path 19339" d="M0,0H1.122V12.089H0Z" transform="matrix(0.556, -0.831, 0.831, 0.556, 188.121, 394.703)" fill="#020f1e"/>
      <path id="Path_19341-2" data-name="Path 19341" d="M0,0H1.122V12.089H0Z" transform="matrix(0.556, -0.831, 0.831, 0.556, 238.383, 246.793)" fill="#020f1e"/>
      <path id="Path_19342-2" data-name="Path 19342" d="M0,0H1.122V12.089H0Z" transform="translate(239.22 272.929) rotate(-56.241)" fill="#020f1e"/>
      <path id="Path_19343-2" data-name="Path 19343" d="M0,0H1.122V12.089H0Z" transform="matrix(0.556, -0.831, 0.831, 0.556, 226.187, 293.317)" fill="#020f1e"/>
      <path id="Path_19344-2" data-name="Path 19344" d="M0,0H1.122V12.089H0Z" transform="matrix(0.556, -0.831, 0.831, 0.556, 200.205, 306.476)" fill="#020f1e"/>
      <path id="Path_19346-2" data-name="Path 19346" d="M0,0H1.122V12.089H0Z" transform="translate(317.137 191.985) rotate(-56.241)" fill="#020f1e"/>
    </g>
    <g id="Group_1711" data-name="Group 1711" transform="matrix(0.996, -0.087, 0.087, 0.996, 1223.676, 1301.836)">
      <g id="Group_1722" data-name="Group 1722" transform="translate(0 23.198)">
        <path id="Path_19652" data-name="Path 19652" d="M8256.748,1561.477v-19.488s0-4.3-3.537-3.593-5.214,5.458-5.118,7.659,0,20.5,0,20.5Z" transform="translate(-8243.898 -1537.922)" fill="#05c168" stroke="#020f1e" stroke-linecap="round" stroke-linejoin="round" stroke-width="1"/>
        <path id="Path_19653" data-name="Path 19653" d="M8254.655,1539.735l-6.026-.458h0s-1.44-.031-3.143,1.842a7.156,7.156,0,0,0-1.586,4.62l.012,20.193,4.2,2" transform="translate(-8243.898 -1539.277)" fill="none" stroke="#020f1e" stroke-linecap="round" stroke-linejoin="round" stroke-width="1"/>
      </g>
      <g id="Group_1736" data-name="Group 1736" transform="translate(16.309 -5.868)">
        <path id="Path_19652-2" data-name="Path 19652" d="M8256.748,1552.238v-40.249s0-4.3-3.537-3.592-5.214,5.458-5.118,7.659,0,41.266,0,41.266Z" transform="translate(-8243.898 -1507.922)" fill="#05c168" stroke="#020f1e" stroke-linecap="round" stroke-linejoin="round" stroke-width="1"/>
        <path id="Path_19653-2" data-name="Path 19653" d="M8254.655,1509.735l-6.026-.458h0s-1.44-.03-3.143,1.842a7.156,7.156,0,0,0-1.586,4.62l.012,40.954,4.2,2" transform="translate(-8243.898 -1509.277)" fill="none" stroke="#020f1e" stroke-linecap="round" stroke-linejoin="round" stroke-width="1"/>
      </g>
      <g id="Group_1737" data-name="Group 1737" transform="translate(31.834 5.204)">
        <path id="Path_19652-3" data-name="Path 19652" d="M8256.748,1561.477v-19.488s0-4.3-3.537-3.593-5.214,5.458-5.118,7.659,0,20.5,0,20.5Z" transform="translate(-8243.898 -1537.922)" fill="#05c168" stroke="#020f1e" stroke-linecap="round" stroke-linejoin="round" stroke-width="1"/>
        <path id="Path_19653-3" data-name="Path 19653" d="M8254.655,1539.735l-6.026-.458h0s-1.44-.031-3.143,1.842a7.156,7.156,0,0,0-1.586,4.62l.012,20.193,4.2,2" transform="translate(-8243.898 -1539.277)" fill="none" stroke="#020f1e" stroke-linecap="round" stroke-linejoin="round" stroke-width="1"/>
      </g>
      <g id="Group_1738" data-name="Group 1738" transform="translate(50.219 -25.938)">
        <path id="Path_19652-4" data-name="Path 19652" d="M8256.748,1552.238v-40.249s0-4.3-3.537-3.592-5.214,5.458-5.118,7.659,0,41.266,0,41.266Z" transform="translate(-8243.898 -1507.922)" fill="#05c168" stroke="#020f1e" stroke-linecap="round" stroke-linejoin="round" stroke-width="1"/>
        <path id="Path_19653-4" data-name="Path 19653" d="M8254.655,1509.735l-6.026-.458h0s-1.44-.03-3.143,1.842a7.156,7.156,0,0,0-1.586,4.62l.012,40.954,4.2,2" transform="translate(-8243.898 -1509.277)" fill="none" stroke="#020f1e" stroke-linecap="round" stroke-linejoin="round" stroke-width="1"/>
      </g>
    </g>
    <path id="Path_19771" data-name="Path 19771" d="M7501.533,1439.6c3.39-3.457,2.4-11.2-4-7.2s-12,2.4-12,2.4-4.533,4.8,0,8S7498.143,1443.057,7501.533,1439.6Z" transform="translate(-6030)" fill="#fff" stroke="#020f1e" stroke-width="1"/>
    <path id="Path_19772" data-name="Path 19772" d="M7501.533,1439.6c3.39-3.457,2.4-11.2-4-7.2s-12,2.4-12,2.4-4.533,4.8,0,8S7498.143,1443.057,7501.533,1439.6Z" transform="translate(-6161.816 1330.998) rotate(-10)" fill="#fff" stroke="#020f1e" stroke-width="1"/>
    <path id="Path_19773" data-name="Path 19773" d="M7501.533,1439.6c3.39-3.457,2.4-11.2-4-7.2s-12,2.4-12,2.4-4.533,4.8,0,8S7498.143,1443.057,7501.533,1439.6Z" transform="matrix(0.97, -0.242, 0.242, 0.97, -6147.229, 1871.47)" fill="#fff" stroke="#020f1e" stroke-width="1"/>
  </g>
</svg>
