<svg xmlns="http://www.w3.org/2000/svg" xmlns:xlink="http://www.w3.org/1999/xlink" width="721.452" height="541.586" viewBox="0 0 721.452 541.586">
  <defs>
    <linearGradient id="linear-gradient" y1="0.5" x2="1" y2="0.5" gradientUnits="objectBoundingBox">
      <stop offset="0" stop-color="#34318c"/>
      <stop offset="0.13" stop-color="#302d86"/>
      <stop offset="0.648" stop-color="#232172"/>
      <stop offset="1" stop-color="#1e1c6b"/>
    </linearGradient>
    <clipPath id="clip-path">
      <rect id="Rectangle_1" data-name="Rectangle 1" width="66.679" height="41.086" fill="#05c168"/>
    </clipPath>
    <clipPath id="clip-path-2">
      <rect id="Rectangle_1-2" data-name="Rectangle 1" width="33.921" height="20.901" fill="#05c168"/>
    </clipPath>
  </defs>
  <g id="opty-img2" transform="translate(-107.307 -203.206)">
    <path id="Path_18098" data-name="Path 18098" d="M167.742,576.355v48.921l-42.366,24.462C125.376,622.718,144.344,589.865,167.742,576.355Z" transform="translate(-9.57 -188.347)" fill="#807dfb"/>
    <path id="Path_18099" data-name="Path 18099" d="M154.16,568.513l28.965,16.722-41.506,73.879L111.794,641.9c0-27.02,18.968-59.874,42.366-73.383Z" transform="translate(-3.987 -185.123)" fill="#fff" stroke="#020f1e" stroke-width="1"/>
    <path id="Path_18100" data-name="Path 18100" d="M167.742,576.355v48.921l-42.366,24.462C125.376,622.718,144.344,589.865,167.742,576.355Z" transform="translate(-9.57 -188.347)" fill="#fff" stroke="#020f1e" stroke-width="1"/>
    <path id="Path_18101" data-name="Path 18101" d="M125.377,683.887l42.366-24.462-37.513,44.39c-3.094-5.006-4.853-11.721-4.853-19.929Z" transform="translate(-9.571 -222.496)" fill="#fff" stroke="#020f1e" stroke-width="1"/>
    <path id="Path_18102" data-name="Path 18102" d="M171.131,621.237V572.316c23.4-13.508,42.366-2.558,42.366,24.459s-18.967,59.873-42.366,73.383c-16.289,9.4-30.423,6.943-37.513-4.531Z" transform="translate(-12.958 -184.308)" fill="#fff" stroke="#020f1e" stroke-width="1"/>
    <path id="Path_18103" data-name="Path 18103" d="M183.733,564.476c11.768-6.795,22.413-7.4,30.09-2.884l7.467,4.311-.007.012c-7.633-4.178-18.053-3.459-29.551,3.18Z" transform="translate(-33.56 -181.087)" fill="#fff" stroke="#020f1e" stroke-width="1"/>
    <path id="Path_18104" data-name="Path 18104" d="M126.834,733.979a21.812,21.812,0,0,1-6.8-7.018l8,4.617a21.825,21.825,0,0,0,6.8,7.018Z" transform="translate(-7.375 -250.26)" fill="#fff" stroke="#020f1e" stroke-width="1"/>
    <path id="Path_18105" data-name="Path 18105" d="M116.647,713.05c-3.094-5.007-4.853-11.722-4.853-19.93,0,0,4.348,2.367,6.147,3.549s1.853,1.07,1.853,1.07h0c0,8.208,1.76,14.922,4.854,19.929Z" transform="translate(-3.987 -236.348)" fill="#fff" stroke="#020f1e" stroke-width="1"/>
    <path id="Path_18107" data-name="Path 18107" d="M324.817,757.745l58.419-33.738V600.9l-58.419,33.725Z" transform="translate(-91.558 -198.439)" fill="#fff" stroke="#020f1e" stroke-width="1"/>
    <path id="Path_18108" data-name="Path 18108" d="M284.034,757.745l-58.426-33.738V600.9l58.426,33.725Z" transform="translate(-50.774 -198.439)" fill="#fff" stroke="#020f1e" stroke-width="1"/>
    <path id="Path_18109" data-name="Path 18109" d="M284.034,611.094l-58.426-33.725,58.426-33.716,58.419,33.716Z" transform="translate(-50.774 -174.904)" fill="#fff" stroke="#020f1e" stroke-width="1"/>
    <path id="Path_18111" data-name="Path 18111" d="M765.61,1118.088l33.75-19.492v-71.121l-33.75,19.485v71.129Z" transform="translate(-272.761 -373.796)" fill="#fff" stroke="#020f1e" stroke-width="1"/>
    <path id="Path_18112" data-name="Path 18112" d="M742.048,1118.088,708.294,1098.6v-71.121l33.754,19.485v71.129Z" transform="translate(-249.2 -373.796)" fill="#fff" stroke="#020f1e" stroke-linecap="round" stroke-linejoin="round" stroke-width="1"/>
    <path id="Path_18113" data-name="Path 18113" d="M742.048,1033.362l-33.754-19.485L742.048,994.4l33.75,19.479Z" transform="translate(-249.2 -360.199)" fill="#fff" stroke="#020f1e" stroke-width="1"/>
    <path id="Path_18118" data-name="Path 18118" d="M383.8,716.689a11.6,11.6,0,0,1,5.229-9.056l35.817-20.679c2.875-1.66,5.227-.3,5.227,3.018v33.232a11.6,11.6,0,0,1-5.227,9.056l-35.817,20.68c-2.877,1.66-5.229.3-5.229-3.017Z" transform="translate(-115.803 -233.522)" fill="#fff" stroke="#020f1e" stroke-width="1"/>
    <path id="Path_18119" data-name="Path 18119" d="M381.792,748.769V715.535a11.6,11.6,0,0,1,5.229-9.056L422.837,685.8a3.686,3.686,0,0,1,3.657-.375l-2.737-1.579,0,0a3.6,3.6,0,0,0-3.789.292L384.15,704.821a11.6,11.6,0,0,0-5.228,9.056v33.234c0,1.737.648,2.93,1.674,3.441l2.607,1.507a3.747,3.747,0,0,1-1.41-3.29Z" transform="translate(-113.799 -232.367)" fill="#fff" stroke="#020f1e" stroke-width="1"/>
    <path id="Path_18120" data-name="Path 18120" d="M416.481,721.775a1.824,1.824,0,0,0-1.093,1.346l-5.076,24.111c-.132.622.145,1.027.618.905a1.829,1.829,0,0,0,1.093-1.346L417.1,722.68c.13-.622-.146-1.026-.618-.9Zm-7,8.4c-.277-.306-.83-.106-1.234.449l-8.507,11.671a1.905,1.905,0,0,0-.385,1.066c0,.338.144.571.385.624l8.507,1.846c.4.087.956-.351,1.235-.978s.176-1.207-.228-1.294l-7.444-1.616,7.444-10.211C409.656,731.178,409.757,730.48,409.478,730.174Zm18.811-4.366-8.507-1.846c-.4-.088-.958.349-1.235.976s-.177,1.206.227,1.294l7.444,1.615-7.444,10.212c-.4.554-.506,1.252-.227,1.558s.83.1,1.235-.449l8.507-11.669a1.909,1.909,0,0,0,.386-1.068C428.675,726.093,428.531,725.86,428.289,725.809Z" transform="translate(-122.198 -248.119)" fill="#020f1e"/>
    <path id="Path_18156" data-name="Path 18156" d="M1307.48,939.6l16.3-9.409v-19.1l-16.3,9.4V939.6Z" transform="translate(-495.516 -325.952)" fill="#fff" stroke="#020f1e" stroke-linecap="round" stroke-linejoin="round" stroke-width="1"/>
    <path id="Path_18157" data-name="Path 18157" d="M1296.106,939.6l-16.294-9.409v-19.1l16.294,9.4V939.6Z" transform="translate(-484.143 -325.952)" fill="#fff" stroke="#020f1e" stroke-linecap="round" stroke-linejoin="round" stroke-width="1"/>
    <path id="Path_18158" data-name="Path 18158" d="M1296.106,913.931l-16.294-9.4,16.294-9.4,16.3,9.4Z" transform="translate(-484.143 -319.388)" fill="#fff" stroke="#020f1e" stroke-linecap="round" stroke-linejoin="round" stroke-width="1"/>
    <path id="Path_18160" data-name="Path 18160" d="M449.477,974.23l14.723-8.5V948.466l-14.723,8.5Z" transform="translate(-142.804 -341.317)" fill="#fff" stroke="#020f1e" stroke-linecap="round" stroke-linejoin="round" stroke-width="1"/>
    <path id="Path_18161" data-name="Path 18161" d="M439.2,974.23l-14.724-8.5V948.466l14.724,8.5Z" transform="translate(-132.526 -341.317)" fill="#fff" stroke="#020f1e" stroke-linecap="round" stroke-linejoin="round" stroke-width="1"/>
    <path id="Path_18162" data-name="Path 18162" d="M439.2,951.034l-14.724-8.5,14.724-8.5,14.723,8.5Z" transform="translate(-132.526 -335.386)" fill="#fff" stroke="#020f1e" stroke-linecap="round" stroke-linejoin="round" stroke-width="1"/>
    <path id="Path_18173" data-name="Path 18173" d="M760.467,844.782c-46.875,27.064-122.879,27.062-169.754,0-23.436-13.532-35.155-31.268-35.156-49v15.674c0,17.736,11.719,35.47,35.156,49,46.875,27.064,122.879,27.065,169.754,0,23.438-13.531,35.158-31.267,35.156-49V795.778C795.625,813.513,783.905,831.249,760.467,844.782Z" transform="translate(-186.412 -278.549)" fill="#fff" stroke="#020f1e" stroke-width="1"/>
    <path id="Path_18174" data-name="Path 18174" d="M555.557,747.4c0-17.735,11.718-35.471,35.156-49,46.876-27.062,122.878-27.062,169.755,0,23.436,13.533,35.156,31.268,35.156,49s-11.719,35.471-35.156,49c-46.875,27.064-122.879,27.062-169.754,0C567.277,782.874,555.558,765.138,555.557,747.4Z" transform="translate(-186.412 -230.174)" fill="#fff" stroke="#020f1e" stroke-width="1"/>
    <path id="Path_18176" data-name="Path 18176" d="M779.739,702.811c-3.695-22.218-14.2-83.208-14.2-83.208.021,6.813-59.973,35.734-92.769,16.8-20.265-11.7-31.659-25.76-32.49-37.661v75.6l.04.011c-.843,5.63,1.6,6.774-.867,13.789-6.383,6.128-9.941,12.957-10.691,19.873l-.017.025.013.007a25.5,25.5,0,0,0-.166,2.743c0,11.259,7.443,22.519,22.322,31.109,29.762,17.183,78.014,17.183,107.776,0,14.88-8.59,22.32-19.852,22.32-31.112A26.235,26.235,0,0,0,779.739,702.811Z" transform="translate(-216.434 -197.549)" fill="#05c168" stroke="#020f1e" stroke-width="1"/>
    <path id="Path_18177" data-name="Path 18177" d="M781.673,671.77c-3.953-23.094-7.978-46.491-7.978-46.491.021,6.823-59.973,35.734-92.769,16.8-15.814-9.125-26.134-19.677-30.341-29.531l-2.149.2V653.8l65.428,56.05C747.763,671.77,764.815,697.6,781.673,671.77Z" transform="translate(-224.593 -203.225)" fill="#fff" stroke="#020f1e" stroke-width="1"/>
    <path id="Path_18178" data-name="Path 18178" d="M564.69,538.707a155.75,155.75,0,0,1,10.416-56.745c15.225-38.8,145.577-39.039,160.865-.516a155.606,155.606,0,0,1,10.616,57.262c0,30.819-32.035,49.461-46.085,70.943-16.666,25.485-17.6,51.073-44.859,51.073-50.231,0-90.954-54.631-90.954-122.016Z" transform="translate(-190.166 -137.517)" fill="#fff" stroke="#020f1e" stroke-width="1"/>
    <path id="Path_18179" data-name="Path 18179" d="M779.878,474.673c-5.8-.3-11.971,1.71-18.4,7.2-33.414,28.547,10.7,88.562-12,113.865-22.545,25.121-25.922,70.03-39.657,73.63.072,0,.145.072.217.165,1.744.134,3.5.209,5.267.209,27.261,0,28.193-25.588,44.859-51.073,14.05-21.482,46.085-40.125,46.085-70.943a155.616,155.616,0,0,0-10.616-57.262c-2.5-6.3-8.1-11.563-15.755-15.791Z" transform="translate(-249.827 -146.535)" fill="#fff" stroke="#020f1e" stroke-width="1"/>
    <path id="Path_18180" data-name="Path 18180" d="M661.547,602.861c-24.408.913-49.345-4.018-68-14.789-17.181-9.917-24.061-22.923-25.785-35.928v-.018l-.306,0a157.7,157.7,0,0,0-.821,49.651c2.612,10.817,11.017,21.258,25.428,29.577,12,6.926,26.541,11.495,41.881,13.7,29.683,4.268,44-13.968,45.845-27.291.5-3.659,2.332-15.684-18.243-14.907Z" transform="translate(-190.318 -178.387)" fill="#05c168" stroke="#020f1e" stroke-width="1"/>
    <path id="Path_18181" data-name="Path 18181" d="M665.709,649.835c2.943-5.958,9.479-7.43,14.676-3.3A15.625,15.625,0,0,1,684.5,664.8c-2.917,5.94-9.48,7.423-14.677,3.287a15.58,15.58,0,0,1-4.109-18.255Z" transform="translate(-231.123 -216.234)" fill="#fff" stroke="#020f1e" stroke-width="1"/>
    <path id="Path_18182" data-name="Path 18182" d="M565.842,595.508c2.042-5.674,6.815-6.543,10.738-1.942s5.422,12.918,3.369,18.607c-2.028,5.68-6.816,6.549-10.752,1.955C565.311,609.521,563.8,601.2,565.842,595.508Z" transform="translate(-190.265 -194.208)" fill="#fff" stroke="#020f1e" stroke-width="1"/>
    <path id="Path_18185" data-name="Path 18185" d="M578.83,487.251c0-12.214,8.069-24.426,24.209-33.745,32.281-18.639,84.621-18.639,116.9,0,16.139,9.318,24.207,21.531,24.207,33.745S736.082,511.68,719.943,521c-32.283,18.636-84.623,18.636-116.905,0-16.14-9.319-24.207-21.533-24.207-33.747Z" transform="translate(-195.979 -132.099)" fill="#fff" stroke="#020f1e" stroke-width="1"/>
    <path id="Path_18186" data-name="Path 18186" d="M589.99,489.9c0-11.242,7.427-22.484,22.285-31.062,29.715-17.156,77.892-17.156,107.607,0,14.857,8.578,22.283,19.819,22.283,31.061s-7.427,22.487-22.283,31.065c-29.715,17.154-77.892,17.154-107.608,0-14.858-8.578-22.283-19.82-22.283-31.063Z" transform="translate(-200.566 -134.748)" fill="#fff" stroke="#020f1e" stroke-width="1"/>
    <path id="Path_18187" data-name="Path 18187" d="M824.369,840.705a7.243,7.243,0,0,1,6.559,0c1.813,1.045,1.813,2.741,0,3.787a7.251,7.251,0,0,1-6.559,0C822.558,843.446,822.558,841.751,824.369,840.705Zm-14.738-20.833a8.125,8.125,0,0,1,3.673-6.362c2.028-1.17,3.672-.221,3.672,2.121a8.115,8.115,0,0,1-3.672,6.36c-2.028,1.172-3.673.222-3.673-2.12Z" transform="translate(-290.858 -285.632)" fill="#020f1e"/>
    <path id="Path_18188" data-name="Path 18188" d="M828.979,846.443a1.767,1.767,0,0,1-1.767-1.767V829.132l-13.46-7.772a1.767,1.767,0,1,1,1.767-3.06l14.343,8.282a1.766,1.766,0,0,1,.883,1.53v16.565a1.767,1.767,0,0,1-1.767,1.767Z" transform="translate(-292.188 -287.71)" fill="#fff" stroke="#020f1e" stroke-width="1"/>
    <path id="Path_18189" data-name="Path 18189" d="M845.692,828.395a7.244,7.244,0,0,1,6.56,0c1.813,1.046,1.813,2.741,0,3.786a7.244,7.244,0,0,1-6.56,0C843.88,831.136,843.88,829.44,845.692,828.395Zm-14.738-20.834a8.124,8.124,0,0,1,3.673-6.36c2.028-1.17,3.671-.221,3.671,2.121a8.113,8.113,0,0,1-3.671,6.36c-2.029,1.172-3.673.223-3.673-2.12Z" transform="translate(-299.623 -280.572)" fill="#020f1e"/>
    <path id="Path_18190" data-name="Path 18190" d="M850.3,834.132a1.767,1.767,0,0,1-1.767-1.767V816.821l-13.46-7.772a1.767,1.767,0,1,1,1.767-3.06l14.343,8.282a1.766,1.766,0,0,1,.883,1.53v16.564a1.767,1.767,0,0,1-1.767,1.767Z" transform="translate(-300.953 -282.649)" fill="#fff" stroke="#020f1e" stroke-width="1"/>
    <path id="Path_18191" data-name="Path 18191" d="M660.569,496.183a.856.856,0,0,0-1.17-.314l-42.652,24.626c.28.167.546.34.833.506s.589.32.88.483l41.8-24.131a.856.856,0,0,0,.313-1.17Zm70.636-18.961-16.818,9.709a6.291,6.291,0,0,0-5.247.223,2.32,2.32,0,0,0,0,4.29,6.236,6.236,0,0,0,5.718,0,2.547,2.547,0,0,0,1.434-2.145,2.141,2.141,0,0,0-.423-1.246l15.994-9.234h13.125q-.39-.869-.832-1.713H731.634a.857.857,0,0,0-.428.114ZM714,489.961a4.5,4.5,0,0,1-4,0c-.357-.206-.579-.459-.579-.661s.222-.455.578-.661a4.5,4.5,0,0,1,4.005,0c.358.206.579.459.579.661s-.221.456-.579.661ZM692.8,478.5a.857.857,0,0,0,.857,1.484l17.9-10.337a6.294,6.294,0,0,0,5.249-.223,2.322,2.322,0,0,0,0-4.29,6.238,6.238,0,0,0-5.719,0,2.553,2.553,0,0,0-1.435,2.145,2.148,2.148,0,0,0,.424,1.246Zm19.147-11.883a4.5,4.5,0,0,1,4,0c.357.206.578.459.578.661s-.221.456-.577.662a4.5,4.5,0,0,1-4.005,0c-.356-.206-.578-.459-.578-.661s.222-.455.578-.661ZM676.777,478.4a.856.856,0,0,0,1.17.313l20.72-11.964A.855.855,0,0,0,699.1,466V449.025q-.854-.193-1.714-.373v16.857L677.09,477.225a.856.856,0,0,0-.312,1.171Zm-4.349-5.2,20.72-11.964a.855.855,0,0,0,.429-.742v-5.247a.855.855,0,0,0-.429-.742l-14.335-8.277q-1.846-.1-3.7-.157l16.749,9.671v4.258l-20.293,11.716a.857.857,0,0,0,.857,1.484Zm36.844,30.814,13.521-7.807a6.29,6.29,0,0,0,5.247-.223,2.321,2.321,0,0,0,0-4.29,6.236,6.236,0,0,0-5.718,0,2.552,2.552,0,0,0-1.437,2.146,2.141,2.141,0,0,0,.426,1.246l-12.467,7.2-32.149-18.561a.857.857,0,1,0-.857,1.484l32.578,18.809A.857.857,0,0,0,709.272,504.005Zm13.906-10.836a4.5,4.5,0,0,1,4.005,0c.357.206.578.459.578.661s-.221.456-.578.662a4.5,4.5,0,0,1-4,0c-.357-.206-.579-.459-.579-.662s.222-.455.578-.661ZM712.7,479.492a.856.856,0,0,0,1.17.313l22.317-12.885c-.433-.406-.863-.815-1.322-1.215L713.01,478.322a.856.856,0,0,0-.313,1.17Zm-38.953,46.954a6.237,6.237,0,0,0-5.719,0,2.952,2.952,0,0,0-1.173,1.189q-3.819-.149-7.544-.551l7.754-4.477a.857.857,0,0,0-.857-1.484l-9.723,5.614a95.764,95.764,0,0,1-22.772-5.788L666.693,501.9a.857.857,0,0,0-.857-1.484l-34.522,19.934a.857.857,0,0,0,.093,1.53,96.1,96.1,0,0,0,24.968,6.574.863.863,0,0,0,.169.023q5.082.66,10.208.863a2.857,2.857,0,0,0,1.272,1.391,6.237,6.237,0,0,0,5.718,0,2.321,2.321,0,0,0,0-4.29Zm-.857,2.806a4.5,4.5,0,0,1-4.005,0c-.357-.206-.579-.459-.579-.661s.222-.456.579-.661a4.5,4.5,0,0,1,4,0c.357.206.578.459.578.661S673.243,529.046,672.887,529.253Zm40.136-10.944a6.3,6.3,0,0,0-5.248-.223L678.014,500.9a.857.857,0,1,0-.857,1.484l15.451,8.92v5.407a5.422,5.422,0,0,0-2,.635,2.32,2.32,0,0,0,0,4.29,6.239,6.239,0,0,0,5.718,0,2.321,2.321,0,0,0,0-4.29,5.409,5.409,0,0,0-2-.635V512.3l11.971,6.913a2.147,2.147,0,0,0-.424,1.246A2.55,2.55,0,0,0,707.3,522.6a6.237,6.237,0,0,0,5.719,0,2.322,2.322,0,0,0,0-4.291Zm-17.556.524c.356.207.577.459.577.662s-.221.456-.577.662a4.5,4.5,0,0,1-4.005,0c-.357-.207-.579-.461-.579-.661s.222-.456.579-.661a4.106,4.106,0,0,1,1.989-.47s.009,0,.014,0l.014,0a4.111,4.111,0,0,1,1.989.469Zm16.7,2.283a4.5,4.5,0,0,1-4,0c-.357-.207-.579-.461-.579-.661s.222-.456.578-.662a4.5,4.5,0,0,1,4.005,0c.356.206.577.459.577.661S712.522,520.91,712.166,521.116ZM622,506.047h8.643a.86.86,0,0,0,.429-.115l22.419-12.944a.856.856,0,1,0-.856-1.483l-22.221,12.829h-8.184l-9.7-5.6a2.143,2.143,0,0,0,.423-1.244,2.549,2.549,0,0,0-1.434-2.145,6.238,6.238,0,0,0-5.719,0,2.32,2.32,0,0,0,0,4.29,6.292,6.292,0,0,0,5.248.223l10.521,6.075a.86.86,0,0,0,.429.115Zm-11.337-7.9a4.5,4.5,0,0,1-4,0c-.357-.206-.579-.459-.579-.661s.222-.456.579-.662a4.5,4.5,0,0,1,4,0c.357.206.578.459.578.661s-.221.456-.577.661Zm73.076-2.476a.857.857,0,1,0-.856,1.484l22.253,12.848a.853.853,0,0,0,.428.115h33.411q.756-.837,1.465-1.714H705.8ZM628.7,485.565h16.432a.857.857,0,1,0,0-1.714h-16.2l-24.9-14.375c-.4.436-.764.88-1.136,1.322l25.376,14.652a.859.859,0,0,0,.429.115Zm13.686-22.451a2.55,2.55,0,0,0,1.437,2.145,6.235,6.235,0,0,0,5.717,0,2.321,2.321,0,0,0,0-4.291,6.3,6.3,0,0,0-5.248-.224l-13.676-7.895q-1.04.382-2.065.786l14.261,8.234a2.14,2.14,0,0,0-.425,1.245Zm2.292-.661a4.5,4.5,0,0,1,4.005,0c.357.206.578.459.578.661s-.221.456-.578.662a4.5,4.5,0,0,1-4,0c-.357-.206-.579-.459-.579-.661S644.324,462.658,644.68,462.452Zm15.534,6.542a.857.857,0,1,0,1.714,0V458.825a.856.856,0,0,0-.429-.742l-16.275-9.4c-.833.175-1.664.35-2.488.542l17.478,10.091ZM624.1,472.242h16.394l14.988,8.654a.857.857,0,1,0,.856-1.484L623.756,460.6a.857.857,0,1,0-.856,1.484l14.622,8.441h-13.2L611.294,463c-.5.372-1.006.743-1.483,1.122l13.858,8a.857.857,0,0,0,.428.114Zm30.238,41.114a.855.855,0,0,0,.428.742l5.445,3.143a.857.857,0,1,0,.858-1.484l-4.161-2.4,14.908-8.606a.857.857,0,0,0-.857-1.484l-16.193,9.348a.854.854,0,0,0-.428.742Z" transform="translate(-205.872 -134.786)" fill="#05c168"/>
    <path id="Path_18193" data-name="Path 18193" d="M664.626,501.314l32.134,18.553V531.2l-32.134-18.553V501.314Z" transform="translate(-231.248 -157.499)" fill="#fff" stroke="#020f1e" stroke-linecap="round" stroke-linejoin="round" stroke-width="1"/>
    <path id="Path_18194" data-name="Path 18194" d="M719.19,519.867l32.135-18.553v11.337L719.19,531.2V519.867Z" transform="translate(-253.679 -157.499)" fill="#fff" stroke="#020f1e" stroke-linecap="round" stroke-linejoin="round" stroke-width="1"/>
    <path id="Path_18195" data-name="Path 18195" d="M697.943,468l30.44,17.573-30.44,17.574L667.5,485.572Z" transform="translate(-232.431 -143.804)" fill="#fff" stroke="#020f1e" stroke-linecap="round" stroke-linejoin="round" stroke-width="1"/>
    <path id="Path_18196" data-name="Path 18196" d="M739.175,520.394l2.708-1.563v7.817l-2.708,1.562Zm7.161-4.134,2.707-1.563v7.817l-2.707,1.564Zm-14.322,8.268,2.709-1.564v7.817l-2.709,1.563Z" transform="translate(-258.95 -164.76)" fill="none" stroke="#020f1e" stroke-width="1"/>
    <path id="Path_18197" data-name="Path 18197" d="M687.319,520.394l-2.708-1.563v7.817l2.708,1.562Zm-7.161-4.134L677.45,514.7v7.817l2.708,1.564Zm14.321,8.268-2.709-1.564v7.817l2.709,1.563Z" transform="translate(-236.52 -164.76)" fill="none" stroke="#020f1e" stroke-width="1"/>
    <path id="Path_18198" data-name="Path 18198" d="M664.626,499.885l1.695-2.046,30.439,17.574v3.026l-32.134-18.553Z" transform="translate(-231.248 -156.07)" fill="#fff" stroke="#020f1e" stroke-linecap="round" stroke-linejoin="round" stroke-width="1"/>
    <path id="Path_18199" data-name="Path 18199" d="M719.19,515.413v3.026l32.135-18.553-1.695-2.046Z" transform="translate(-253.679 -156.07)" fill="#fff" stroke="#020f1e" stroke-linecap="round" stroke-linejoin="round" stroke-width="1"/>
    <path id="Path_18201" data-name="Path 18201" d="M1047.664,1006.026l-86.811,50.12c-5.44,3.141-14.346,3.141-19.786,0l-50.454-29.13c-2.7-1.557-4.055-3.606-4.076-5.66h0v10.566h0c.017,2.058,1.376,4.11,4.078,5.669l50.454,29.13c5.441,3.142,14.346,3.142,19.786,0l86.811-50.12c2.693-1.553,4.047-3.6,4.075-5.645h0v-10.566h0c-.032,2.046-1.386,4.085-4.074,5.636Z" transform="translate(-322.471 -362.662)" fill="#fff" stroke="#020f1e" stroke-width="1"/>
    <path id="Path_18202" data-name="Path 18202" d="M1047.663,968.587c5.441,3.141,5.441,8.282,0,11.424l-86.811,50.12c-5.44,3.141-14.346,3.141-19.786,0L890.611,1001c-5.441-3.141-5.441-8.282,0-11.424l86.811-50.12c5.44-3.141,14.346-3.141,19.786,0Z" transform="translate(-322.47 -336.645)" fill="#fff" stroke="#020f1e" stroke-width="1"/>
    <path id="Path_18204" data-name="Path 18204" d="M948.415,923.075l9.156,5.288V1009.8l-9.156-5.288Z" transform="translate(-347.91 -330.879)" fill="#fff" stroke="#020f1e" stroke-width="1"/>
    <path id="Path_18205" data-name="Path 18205" d="M963.963,862.741l90.3-52.307V911.188l-90.3,52.307Z" transform="translate(-354.301 -284.574)" fill="#fff" stroke="#020f1e" stroke-width="1"/>
    <path id="Path_18206" data-name="Path 18206" d="M1016.049,717.98A7.942,7.942,0,0,0,1006,715.92L900.581,776.786a5.951,5.951,0,0,0-1.827,8.914l59.013,78.8a7.942,7.942,0,0,0,10.044,2.059L1073.233,805.7a5.95,5.95,0,0,0,1.827-8.913Z" transform="translate(-326.969 -245.321)" fill="#fff" stroke="#020f1e" stroke-width="1"/>
    <path id="Path_18207" data-name="Path 18207" d="M962.534,910.665a7.942,7.942,0,0,1-10.044-2.059l-59.014-78.8a5.923,5.923,0,0,1,.183-7.564l-7.466,8.824h0a5.919,5.919,0,0,0-.281,7.677l59.012,78.8a7.941,7.941,0,0,0,10.045,2.06l105.422-60.864a6.376,6.376,0,0,0,1.943-1.72h0l7.108-8.4a6.475,6.475,0,0,1-1.49,1.183Z" transform="translate(-321.691 -289.428)" fill="#fff" stroke="#020f1e" stroke-width="1"/>
    <path id="Path_18208" data-name="Path 18208" d="M967.7,865.982q-29.9-39.926-59.8-79.85l106.706-63.1,60.314,80.537Z" transform="translate(-331.255 -248.646)" fill="url(#linear-gradient)"/>
    <g id="Group_1631" data-name="Group 1631" transform="translate(628.105 512.764)" opacity="0.2">
      <path id="Path_18209" data-name="Path 18209" d="M1056.244,808.078c-9.835-13.352-28.508-25.746-45.279-16.9,2.02,2.7,3.07,4.1,5.22,6.97,12.838-6.614,27.162,3.119,34.656,13.253,4.961,6.707,7.644,13.907,7.712,19.977,3.107,1.172,4.652,1.745,7.716,2.859C1066.315,826.407,1062.769,816.935,1056.244,808.078Z" transform="translate(-1001.728 -788.197)" fill="#eb975a"/>
      <path id="Path_18210" data-name="Path 18210" d="M1010.521,834.3c-9.958-13.3-10.142-28.329-.786-34.077-2.15-2.87-3.2-4.27-5.22-6.97-15.66,10.513-8.6,32.284.6,44.369,8.684,11.4,22.839,21.564,38.064,19.132q-1.694-3.754-3.451-7.479c-9.137,1.66-20.957-3.955-29.21-14.974Z" transform="translate(-995.281 -790.277)" fill="#696adf"/>
      <path id="Path_18211" data-name="Path 18211" d="M1090.847,864.377q-3.868-1.4-7.716-2.859c.067,6.068-2.368,11.07-7.083,13.889a15.719,15.719,0,0,1-5.29,1.933c1.443,3.074,2.138,4.576,3.451,7.479a21.97,21.97,0,0,0,6.943-2.6c6.241-3.692,9.651-10.022,9.7-17.846Z" transform="translate(-1026.308 -818.338)" fill="#bbbfe2"/>
    </g>
    <path id="Path_18212" data-name="Path 18212" d="M936.6,824.519l-12.324,7.455c-.711-.952-1.062-1.419-1.759-2.348l12.347-7.424C935.555,823.117,935.9,823.582,936.6,824.519Zm3.742,5-12.289,7.5c-.738-.987-1.1-1.478-1.83-2.445,4.922-3,7.382-4.489,12.3-7.481C939.25,828.052,939.612,828.539,940.346,829.515Zm-2.25,8.951c-2.452,1.507-3.681,2.26-6.132,3.769q-.946-1.261-1.889-2.523c2.455-1.5,3.682-2.256,6.136-3.762.748,1,1.125,1.5,1.885,2.516Z" transform="translate(-337.266 -289.411)" fill="#f5f5f9"/>
    <path id="Path_18213" data-name="Path 18213" d="M1041.4,773.98a.761.761,0,0,1-.761-.756c-.013-3.544,0-5.317.085-8.834l.01-.415,14.439-8.833a.761.761,0,1,1,.793,1.3l-13.732,8.4c-.077,3.231-.087,4.991-.074,8.376a.759.759,0,0,1-.759.763Zm40.329,44.893-.335-.118q-4.6-1.6-9.158-3.3a.76.76,0,0,1,.524-1.426c3.576,1.319,5.406,1.982,8.8,3.169l13.9-8.276a.761.761,0,1,1,.777,1.308Zm-70.246,41.693a.761.761,0,0,1-.388-1.415l13.851-8.246c.132-3.184.17-4.9.21-8.184a.76.76,0,0,1,.76-.752h.009a.763.763,0,0,1,.751.769c-.041,3.436-.082,5.171-.229,8.644l-.017.409-14.557,8.668a.754.754,0,0,1-.391.107Z" transform="translate(-373.523 -261.795)" fill="#7e7ef1"/>
    <path id="Path_18214" data-name="Path 18214" d="M1060.332,798.695c-9.835-13.352-28.51-25.743-45.281-16.9l5.22,6.97c12.839-6.615,27.163,3.117,34.658,13.251,4.959,6.707,7.645,13.91,7.711,19.98,3.107,1.169,4.653,1.744,7.718,2.857.044-7.831-3.5-17.3-10.025-26.16Z" transform="translate(-375.303 -271.576)" fill="#eb975a"/>
    <path id="Path_18215" data-name="Path 18215" d="M1014.611,824.923c-9.958-13.3-10.142-28.331-.786-34.076l-5.22-6.97c-15.66,10.51-8.6,32.282.6,44.366,8.684,11.406,22.837,21.564,38.064,19.132q-1.7-3.754-3.452-7.479c-9.135,1.664-20.957-3.955-29.21-14.972Z" transform="translate(-368.857 -273.656)" fill="#696adf"/>
    <path id="Path_18216" data-name="Path 18216" d="M1094.936,855q-3.868-1.4-7.718-2.857c.067,6.064-2.367,11.066-7.083,13.887a15.708,15.708,0,0,1-5.29,1.932q1.757,3.725,3.452,7.479a21.927,21.927,0,0,0,6.943-2.595c6.24-3.693,9.651-10.022,9.7-17.845Z" transform="translate(-399.883 -301.718)" fill="#f0f0f4"/>
    <path id="Path_18217" data-name="Path 18217" d="M1074.913,803.573,967.691,865.982q-29.9-39.926-59.8-79.85,53.356-31.546,106.706-63.1,30.158,40.271,60.314,80.537Z" transform="translate(-331.252 -248.646)" fill="#fff" stroke="#020f1e" stroke-width="1"/>
    <path id="Path_18218" data-name="Path 18218" d="M1023.49,734.9q-53.373,31.523-106.743,63.049c-3.761-5.023-5.562-7.429-8.852-11.821q53.356-31.546,106.706-63.1C1017.892,727.429,1019.7,729.845,1023.49,734.9Z" transform="translate(-331.253 -248.646)" fill="#fff"/>
    <path id="Path_18219" data-name="Path 18219" d="M922.686,826.243l10.654-6.3c1.158,1.548,1.753,2.34,2.963,3.957-4.34,2.565-6.477,3.826-10.656,6.3-1.208-1.618-1.8-2.41-2.96-3.956Z" transform="translate(-337.333 -288.483)" fill="#fff"/>
    <path id="Path_18220" data-name="Path 18220" d="M1127.313,835.926l-3.078,1.8c-.978-1.292-1.471-1.938-2.463-3.248,1.235-.723,1.853-1.085,3.079-1.8.991,1.312,1.484,1.961,2.462,3.253Zm5.724-3.345c-1.2.7-1.809,1.057-3.026,1.767-.978-1.292-1.469-1.943-2.46-3.255,1.217-.71,1.822-1.064,3.029-1.767C1131.569,830.637,1132.06,831.289,1133.037,832.581Zm5.624-3.279-2.966,1.731c-.978-1.294-1.47-1.946-2.46-3.26,1.2-.7,1.789-1.042,2.97-1.733Z" transform="translate(-419.175 -290.989)" fill="#05c168"/>
    <path id="Path_18229" data-name="Path 18229" d="M972.368,841.568a.621.621,0,0,0-.3.565,1.06,1.06,0,0,0,.812.973l5.487,1.143-1.2,5.038a1.01,1.01,0,0,0,.617,1.086.756.756,0,0,0,.693-.01.588.588,0,0,0,.28-.385L980.173,844a.871.871,0,0,0-.156-.71,1.03,1.03,0,0,0-.636-.433l-6.5-1.354A.688.688,0,0,0,972.368,841.568Zm-9.509,5.539a.6.6,0,0,0-.285.4l-1.423,5.969a.918.918,0,0,0,.164.708,1.048,1.048,0,0,0,.628.436l6.516,1.357a.693.693,0,0,0,.5-.068.627.627,0,0,0,.3-.57,1.06,1.06,0,0,0-.811-.974l-5.488-1.143,1.2-5.039a1.019,1.019,0,0,0-.617-1.086.751.751,0,0,0-.688.011Zm4.435-6.44a.688.688,0,0,0-.239.885l5.729,14.677a1.009,1.009,0,0,0,1.062.657.63.63,0,0,0,.184-.071.707.707,0,0,0,.246-.9l-5.722-14.667a1.011,1.011,0,0,0-1.065-.657A.6.6,0,0,0,967.294,840.667Zm42.071,16.76a.62.62,0,0,0-.3.565,1.06,1.06,0,0,0,.812.973l5.487,1.143-1.2,5.038a1.011,1.011,0,0,0,.617,1.086.756.756,0,0,0,.693-.01.587.587,0,0,0,.281-.385l1.416-5.979a.871.871,0,0,0-.157-.71,1.031,1.031,0,0,0-.636-.432l-6.5-1.354a.689.689,0,0,0-.509.065Zm-9.509,5.54a.6.6,0,0,0-.285.4l-1.423,5.97a.919.919,0,0,0,.165.707,1.048,1.048,0,0,0,.628.436l6.516,1.358a.694.694,0,0,0,.5-.068.628.628,0,0,0,.3-.571,1.06,1.06,0,0,0-.811-.973l-5.487-1.143,1.2-5.039a1.019,1.019,0,0,0-.617-1.086.75.75,0,0,0-.688.01Zm4.436-6.44a.688.688,0,0,0-.24.885l5.73,14.677a1.009,1.009,0,0,0,1.063.657.628.628,0,0,0,.184-.071.706.706,0,0,0,.246-.9l-5.722-14.668a1.011,1.011,0,0,0-1.065-.657A.607.607,0,0,0,1004.291,856.526Z" transform="translate(-353.139 -296.969)" fill="#020f1e"/>
    <g id="Group_1633" data-name="Group 1633" transform="translate(632.306 502.358)">
      <path id="Path_18230" data-name="Path 18230" d="M1064.3,803.506c-10.153,5.975-33.2,19.612-43.354,25.588-.366-.485-1.9-2.626-2.21-2.932,10.145-5.982,33.192-19.616,43.336-25.6l2.228,2.942Z" transform="translate(-1009.126 -782.874)" fill="#020f1e"/>
      <path id="Path_18231" data-name="Path 18231" d="M1099.109,849.119c-10.153,5.975-16.033,9.472-26.185,15.448-.365-.485-1.9-2.626-2.209-2.932,10.145-5.982,16.023-9.476,26.167-15.459Z" transform="translate(-1030.492 -801.625)" fill="#05c168"/>
      <path id="Path_18232" data-name="Path 18232" d="M1075.844,824.443c-10.153,5.975-16.033,9.472-26.185,15.448-.365-.485-1.9-2.626-2.21-2.932,10.145-5.982,16.022-9.476,26.167-15.459l2.228,2.942Zm-21.89-53.917c-6.416,3.784-21.275,12.566-33.9,20.025l2.2,2.942c12.629-7.459,27.5-16.245,33.923-20.026-.361-.475-1.844-2.435-2.229-2.942Zm-51.539,30.443c.306.306,1.843,2.447,2.21,2.932q6.572-3.874,13.14-7.753l-2.2-2.941c-5.47,3.231-10.2,6.025-13.146,7.762Z" transform="translate(-1002.415 -770.526)" fill="#020f1e"/>
      <path id="Path_18233" data-name="Path 18233" d="M1010.58,811.875c.306.306,1.843,2.446,2.21,2.932q12.117-7.138,24.219-14.292l-2.209-2.945c-9.819,5.8-19.4,11.463-24.22,14.3Zm51.539-30.443q-11.4,6.727-22.81,13.475l2.191,2.952q11.42-6.745,22.848-13.483C1063.987,783.9,1062.5,781.94,1062.119,781.432Z" transform="translate(-1005.771 -775.009)" fill="#020f1e"/>
      <path id="Path_18234" data-name="Path 18234" d="M1089.068,815.823c-5.612,3.31-12.525,7.4-19.3,11.4l2.206,2.943c6.781-4.006,13.7-8.1,19.323-11.4l-2.228-2.942Zm-34.685,20.489c.306.306,1.844,2.446,2.21,2.932,3.28-1.93,7-4.128,10.883-6.419l-2.2-2.942c-3.882,2.294-7.609,4.5-10.889,6.43Z" transform="translate(-1023.778 -789.147)" fill="#020f1e"/>
      <path id="Path_18235" data-name="Path 18235" d="M1097.238,826.73c-3.613,2.131-7.769,4.587-12.078,7.132l2.206,2.946c4.316-2.548,8.479-5.006,12.1-7.136l-2.228-2.942Zm-34.685,20.488c.306.306,1.844,2.447,2.209,2.932,5.286-3.111,11.719-6.913,18.108-10.687l-2.2-2.945C1074.276,840.3,1067.839,844.1,1062.553,847.218Z" transform="translate(-1027.137 -793.63)" fill="#05c168"/>
    </g>
    <g id="Group_1725" data-name="Group 1725" transform="translate(576.645 203.784)">
      <path id="Path_18116" data-name="Path 18116" d="M1036.759,639.754,969.828,601.1V460.081l66.931,38.634Z" transform="translate(-969.828 -421.456)" fill="#fff" stroke="#020f1e" stroke-linecap="round" stroke-linejoin="round" stroke-width="1"/>
      <path id="Path_18117" data-name="Path 18117" d="M1036.759,471.754,969.828,433.12l66.931-38.625,66.92,38.625Z" transform="translate(-969.828 -394.495)" fill="#fff" stroke="#020f1e" stroke-width="1"/>
      <path id="Path_19776" data-name="Path 19776" d="M770.577,246.692V384.044l-67.118,42.248V285.285Z" transform="translate(-636.865 -208.122)" fill="#fff" stroke="#020f1e" stroke-linecap="round" stroke-linejoin="round" stroke-width="1"/>
      <path id="Path_18261" data-name="Path 18261" d="M1196.607,589.709c-11.264,6.5-20.394,1.231-20.394-11.776s9.13-28.82,20.394-35.324c9.185-5.3,16.949-2.774,19.5,5.391l10.009-9.318c-3.865-12.356-15.614-16.182-29.512-8.159-17.044,9.84-30.861,33.771-30.861,53.452s13.818,27.657,30.861,17.818a53.627,53.627,0,0,0,12.351-10.109l-4.189-8.658a35.446,35.446,0,0,1-8.162,6.682Z" transform="translate(-1050.367 -448.682)" fill="#fff" stroke="#020f1e" stroke-width="1"/>
      <path id="Path_18262" data-name="Path 18262" d="M1162.665,582.2c0-19.68,13.818-43.611,30.862-53.452,8.61-4.972,16.393-5.389,21.99-2.054v0l-4.405-2.544,0,0c-5.6-3.336-13.379-2.919-21.99,2.054-17.043,9.84-30.86,33.771-30.86,53.451,0,9.827,3.446,16.736,9.018,19.966l.015.009.013.007,4.377,2.528h0c-5.573-3.23-9.019-10.139-9.019-19.967Z" transform="translate(-1047.289 -446.908)" fill="#fff" stroke="#020f1e" stroke-width="1"/>
      <path id="Path_18263" data-name="Path 18263" d="M1218.7,549.91a12.591,12.591,0,0,1,3.065,5.249l4.406,2.543c-1.3-4.162-3.962-6.85-7.47-7.792Zm-8.274,40.275a35.385,35.385,0,0,1-8.162,6.68c-4.508,2.6-8.671,3.314-12.047,2.4,3.71,3.7,9.7,4.04,16.454.141a35.471,35.471,0,0,0,8.163-6.682Z" transform="translate(-1060.426 -458.384)" fill="#fff" stroke="#020f1e" stroke-width="1"/>
      <path id="Path_18264" data-name="Path 18264" d="M1240.278,561.366l-4.406-2.543a21.371,21.371,0,0,1,.891,6.382c0,9.653-5.033,20.851-12.232,28.644l4.407,2.543c7.2-7.791,12.232-18.99,12.232-28.644a21.375,21.375,0,0,0-.892-6.383Z" transform="translate(-1074.532 -462.048)" fill="#fff" stroke="#020f1e" stroke-width="1"/>
      <path id="Path_18265" data-name="Path 18265" d="M1243.353,556.637a21.383,21.383,0,0,1,.892,6.383c0,9.654-5.032,20.852-12.233,28.644l4.19,8.658c10.894-11.792,18.508-28.736,18.508-43.344a32.4,32.4,0,0,0-1.347-9.658Z" transform="translate(-1077.608 -457.319)" fill="#fff" stroke="#020f1e" stroke-width="1"/>
      <g id="Group_1847" data-name="Group 1847" transform="matrix(0.995, 0.105, -0.105, 0.995, 37.76, 14.714)">
        <g id="Group_23" data-name="Group 23" transform="translate(0 0)" clip-path="url(#clip-path)">
          <path id="Path_118" data-name="Path 118" d="M58.8.1c1.513-.314,2.929.128,3.165.988l4.71,13.717c.345.834-.581,1.817-2.071,2.2-1.513.314-2.929-.128-3.165-.988L56.728,2.3C56.382,1.464,57.309.481,58.8.1" transform="translate(-33.665 0)" fill="#05c168"/>
          <path id="Path_119" data-name="Path 119" d="M64.387,27.04c5.044-1.165,9.926.2,10.9,3.043s-2.32,6.1-7.365,7.263-9.926-.2-10.9-3.042,2.32-6.1,7.364-7.263" transform="translate(-33.781 -12.172)" fill="#05c168"/>
          <path id="Path_120" data-name="Path 120" d="M107.663,3.137c1.094.519,1.175,1.538.186,2.358L92.373,17.772a4.031,4.031,0,0,1-3.588.576,2.027,2.027,0,0,1-.19-.084c-1.095-.519-1.175-1.539-.186-2.358L103.882,3.63a4.028,4.028,0,0,1,3.588-.579c.067.026.132.055.193.086" transform="translate(-52.122 -1.305)" fill="#05c168"/>
          <path id="Path_121" data-name="Path 121" d="M.237,25.847c-.6.911-.024,1.816,1.341,2.091l21.012,3.85a3.864,3.864,0,0,0,3.429-1.042,1.551,1.551,0,0,0,.108-.153c.6-.911.024-1.815-1.341-2.091L3.776,24.649A3.865,3.865,0,0,0,.347,25.691a1.659,1.659,0,0,0-.11.155" transform="translate(0 -11.242)" fill="#05c168"/>
          <path id="Path_122" data-name="Path 122" d="M122.749,28.949c.045-.909-1.129-1.536-2.665-1.423L97.051,29.768c-1.478.17-2.681,1.011-2.687,1.879,0,.022,0,.044,0,.066-.045.909,1.129,1.536,2.666,1.423l23.033-2.242c1.478-.17,2.68-1.011,2.686-1.879,0-.022,0-.043,0-.065" transform="translate(-56.071 -12.579)" fill="#05c168"/>
          <path id="Path_123" data-name="Path 123" d="M104.415,51.978c1.159-.741,1.336-1.786.409-2.407L90.389,39.716a3.756,3.756,0,0,0-3.58.016q-.093.048-.18.1c-1.159.741-1.336,1.787-.408,2.407L100.653,52.1a3.757,3.757,0,0,0,3.58-.017c.062-.033.123-.066.182-.1" transform="translate(-50.88 -17.955)" fill="#05c168"/>
          <path id="Path_124" data-name="Path 124" d="M.332,49.517c-.617-.756-.015-1.793,1.367-2.355l21.07-7.948c1.369-.487,2.93-.284,3.487.453.014.018.027.037.04.056.617.756.015,1.793-1.367,2.355L3.858,50.027c-1.368.487-2.93.285-3.487-.453-.014-.018-.027-.037-.04-.056" transform="translate(-0.053 -17.807)" fill="#05c168"/>
          <path id="Path_125" data-name="Path 125" d="M54.289,60.532c-1.46-.136-2.277-.952-1.88-1.878l6.042-14.586c.3-.852,1.674-1.532,3.065-1.518.074,0,.147,0,.219.008,1.46.136,2.277.952,1.88,1.879L57.573,59.022c-.3.852-1.673,1.532-3.064,1.518-.074,0-.147,0-.22-.008" transform="translate(-31.082 -19.454)" fill="#05c168"/>
          <path id="Path_126" data-name="Path 126" d="M39.471,13.488c-10.4,2.376-17.243,9.065-15.274,14.941s12,8.711,22.4,6.335S63.843,25.7,61.875,19.824l-.016-.046c-2-5.852-12.013-8.665-22.388-6.289m-1.124-3.274c13.589-3.175,26.789.46,29.482,8.12S61.689,34.776,48.1,37.951s-26.789-.46-29.482-8.12l-.021-.06c-2.658-7.65,6.184-16.406,19.751-19.558" transform="translate(-10.77 -4.145)" fill="#05c168"/>
        </g>
      </g>
    </g>
    <path id="Path_18268" data-name="Path 18268" d="M1296.26,756.813v32.765a3.081,3.081,0,0,0,1.815,2.531,9.687,9.687,0,0,0,8.766,0,3.083,3.083,0,0,0,1.816-2.531V756.813Z" transform="translate(-490.904 -262.531)" fill="#fff" stroke="#020f1e" stroke-width="1"/>
    <path id="Path_18269" data-name="Path 18269" d="M1298.073,751.784a9.688,9.688,0,0,1,8.766,0,2.671,2.671,0,0,1,0,5.061,9.688,9.688,0,0,1-8.766,0,2.672,2.672,0,0,1,0-5.061Z" transform="translate(-490.903 -260.033)" fill="#fff" stroke="#020f1e" stroke-width="1"/>
    <path id="Path_18271" data-name="Path 18271" d="M1271.97,817.577v17.5a3.083,3.083,0,0,0,1.815,2.531,9.688,9.688,0,0,0,8.766,0,3.082,3.082,0,0,0,1.815-2.531v-17.5Z" transform="translate(-480.919 -287.51)" fill="#fff" stroke="#020f1e" stroke-width="1"/>
    <path id="Path_18272" data-name="Path 18272" d="M1273.793,812.548a9.688,9.688,0,0,1,8.766,0,2.672,2.672,0,0,1,0,5.061,9.689,9.689,0,0,1-8.766,0,2.672,2.672,0,0,1,0-5.061Z" transform="translate(-480.922 -285.012)" fill="#fff" stroke="#020f1e" stroke-width="1"/>
    <path id="Path_18273" data-name="Path 18273" d="M1246.68,779.735V808.6a3.081,3.081,0,0,0,1.815,2.53,9.687,9.687,0,0,0,8.766,0,3.08,3.08,0,0,0,1.816-2.53v-28.87Z" transform="translate(-470.522 -271.954)" fill="#fff" stroke="#020f1e" stroke-width="1"/>
    <path id="Path_18274" data-name="Path 18274" d="M1248.493,774.706a9.688,9.688,0,0,1,8.766,0,2.671,2.671,0,0,1,0,5.061,9.688,9.688,0,0,1-8.766,0,2.672,2.672,0,0,1,0-5.061Z" transform="translate(-470.522 -269.456)" fill="#fff" stroke="#020f1e" stroke-width="1"/>
    <path id="Path_18276" data-name="Path 18276" d="M1222.39,818.526V845.07a3.081,3.081,0,0,0,1.814,2.531,9.688,9.688,0,0,0,8.766,0,3.08,3.08,0,0,0,1.815-2.531V818.526Z" transform="translate(-460.537 -287.9)" fill="#fff" stroke="#020f1e" stroke-width="1"/>
    <path id="Path_18277" data-name="Path 18277" d="M1224.2,813.5a9.688,9.688,0,0,1,8.766,0,2.671,2.671,0,0,1,0,5.06,9.687,9.687,0,0,1-8.766,0,2.672,2.672,0,0,1,0-5.061Z" transform="translate(-460.536 -285.402)" fill="#fff" stroke="#020f1e" stroke-width="1"/>
    <path id="Path_18323" data-name="Path 18323" d="M812.964,316.059l-57.7-33.311c-3.367-1.943-6.121-.353-6.121,3.534v50.058a13.58,13.58,0,0,0,6.121,10.6l17.906,10.339,10.94,18.948,10.938-6.316h0l17.91,10.341c3.366,1.943,6.119.353,6.121-3.534V326.66A13.583,13.583,0,0,0,812.964,316.059Z" transform="translate(-265.994 -67.309)" fill="#fff" stroke="#707070" stroke-width="1"/>
    <g id="Group_1635" data-name="Group 1635" transform="translate(496.917 233.188)">
      <path id="Path_18324" data-name="Path 18324" d="M774.81,317.821v-4.356l1.693.978V318.8l2.541,1.466V315.91l1.693.978v4.356l2.291,1.323v1.843l-2.291-1.323v3.157l2.291,1.323v1.845l-2.291-1.323v4.355l-1.693-.977V327.11l-2.541-1.466V330l-1.693-.978v-4.356l-2.291-1.323V321.5l2.291,1.324v-3.157l-2.291-1.322V316.5ZM776.5,323.8l2.541,1.468V322.11l-2.541-1.467Z" transform="translate(-772.519 -313.465)" fill="#020f1e"/>
      <path id="Path_18325" data-name="Path 18325" d="M794.259,329.266c0-2.823,1.386-3.623,3.849-2.2l9.239,5.333a6.889,6.889,0,0,1,3.619,6.245v9.4c0,1.223-.654,1.623-1.751.989l-2.695-1.556a2.723,2.723,0,0,1-1.4-2.322v-.267l-.27-.154c-.307.8-1.058,1.476-2.713.521-2.348-1.355-3.946-4.677-3.946-7.789v-.377c0-3.135,1.579-4.6,3.829-3.3a6.083,6.083,0,0,1,2.733,3.534l.271.155v-1.644l1.751,1.011v8.334a.91.91,0,0,0,.481.877l1.251.722c.462.267.672.145.672-.433v-8.8a3.669,3.669,0,0,0-1.906-3.3l-8.87-5.122c-1.56-.9-2.35-.445-2.35,1.356v10.8a4.423,4.423,0,0,0,2.35,4.068l12.277,7.088v1.89l-12.569-7.257a7.471,7.471,0,0,1-3.849-6.644Zm8.218,14.278c1.5.867,2.523.056,2.523-2.21v-.245a5.87,5.87,0,0,0-2.523-5.124c-1.5-.866-2.5-.021-2.5,2.2v.267A5.862,5.862,0,0,0,802.478,343.543Z" transform="translate(-781.456 -318.772)" fill="#020f1e"/>
      <path id="Path_18326" data-name="Path 18326" d="M831.065,356l1.039,1.023.1-.257-1.115-1.288-1.577-2.777,1.058-.611,1.617,2.754.558,1.611.269.045-.365-1.412v-2.8l1.539.889v2.8l-.365.989.27.267.558-.967,1.617-.888,1.058,1.833-1.578.956h-1.115l.1.367,1.041.177,2.423,1.4v1.779l-2.423-1.4-1.041-1.022-.1.254,1.116,1.29,1.578,2.777-1.058.611-1.617-2.756-.558-1.611-.27-.045.366,1.41v2.8l-1.539-.889v-2.8l.365-.989-.27-.267-.558.966-1.617.889-1.058-1.833,1.577-.955H832.2l-.1-.365-1.039-.179-2.426-1.4V354.6Z" transform="translate(-795.589 -329.343)" fill="#020f1e"/>
      <path id="Path_18327" data-name="Path 18327" d="M777.861,360.427c2.73,1.577,4.694,4.578,4.694,7.178v.111c0,2.512-1.384,2.823-2.887,2.711l-.481-.055c-.481-.011-.655.2-.655.91v1l-1.9-1.1v-1.111c0-1.4.348-2.022,1.539-1.933l.482.054c1.289.1,2-.133,2-1.578a5.217,5.217,0,0,0-2.788-4.144c-1.637-.945-2.946-.767-2.946,1.144v.711l-1.905-1.1v-.8c0-3.045,2.078-3.6,4.851-2Zm-.271,12.557a3.222,3.222,0,0,1,1.5,2.6c0,1-.655,1.355-1.5.866a3.188,3.188,0,0,1-1.5-2.6c0-1,.634-1.366,1.5-.866Z" transform="translate(-772.721 -332.411)" fill="#020f1e"/>
      <path id="Path_18328" data-name="Path 18328" d="M794.2,381.668a3.192,3.192,0,0,1,1.5,2.6c0,1-.635,1.367-1.5.867a3.226,3.226,0,0,1-1.5-2.6C792.694,381.536,793.348,381.18,794.2,381.668Zm.963-11.845v11.158l-1.906-1.1V368.722Z" transform="translate(-780.813 -336.18)" fill="#020f1e"/>
      <path id="Path_18329" data-name="Path 18329" d="M808.8,391.038a.668.668,0,0,0,.676.011l1.634-.521,1.04,2.111-1.962.645a1.715,1.715,0,0,1-1.56-.1,3.691,3.691,0,0,1-1.576-2.022c-.271-.687-.405-1.011-.771-1.221a.627.627,0,0,0-.654,0l-1.637.521-1.038-2.109,1.963-.645a1.707,1.707,0,0,1,1.539.111,3.65,3.65,0,0,1,1.6,2.011c.269.687.4,1.011.75,1.211Z" transform="translate(-785.03 -343.93)" fill="#020f1e"/>
      <path id="Path_18330" data-name="Path 18330" d="M826.107,400.094a3.191,3.191,0,0,1,1.5,2.6c0,1-.634,1.367-1.5.867a3.225,3.225,0,0,1-1.5-2.6c0-1,.654-1.356,1.5-.867Zm.963-11.845v11.156l-1.906-1.1V387.148Z" transform="translate(-793.931 -343.755)" fill="#020f1e"/>
    </g>
    <g id="Group_462" data-name="Group 462" transform="matrix(0.995, 0.105, -0.105, 0.995, 477.071, 641.515)">
      <g id="Group_23-2" data-name="Group 23" transform="translate(0 0)" clip-path="url(#clip-path-2)">
        <path id="Path_118-2" data-name="Path 118" d="M57.746.051c.77-.16,1.49.065,1.61.5l2.4,6.978c.176.424-.3.924-1.054,1.118-.77.16-1.49-.065-1.61-.5l-2.4-6.978c-.176-.425.3-.925,1.054-1.118" transform="translate(-44.96 0)" fill="#05c168"/>
        <path id="Path_119-2" data-name="Path 119" d="M60.685,26.835c2.566-.593,5.05.1,5.547,1.548s-1.18,3.1-3.747,3.695-5.049-.1-5.547-1.548,1.18-3.1,3.746-3.695" transform="translate(-45.115 -19.272)" fill="#05c168"/>
        <path id="Path_120-2" data-name="Path 120" d="M97.864,3c.557.264.6.783.095,1.2l-7.873,6.246a2.051,2.051,0,0,1-1.825.293,1.032,1.032,0,0,1-.1-.043c-.557-.264-.6-.783-.095-1.2l7.872-6.245a2.049,2.049,0,0,1,1.825-.294c.034.013.067.028.1.044" transform="translate(-69.609 -2.066)" fill="#05c168"/>
        <path id="Path_121-2" data-name="Path 121" d="M.12,25.229c-.307.464-.012.924.682,1.064l10.689,1.958a1.966,1.966,0,0,0,1.744-.53.789.789,0,0,0,.055-.078c.307-.464.012-.923-.682-1.064L1.92,24.619a1.966,1.966,0,0,0-1.744.53.844.844,0,0,0-.056.079" transform="translate(0.001 -17.799)" fill="#05c168"/>
        <path id="Path_122-2" data-name="Path 122" d="M108.8,28.244c.023-.463-.574-.781-1.356-.724L95.731,28.66c-.752.086-1.364.514-1.367.956,0,.011,0,.022,0,.034-.023.462.575.781,1.356.724l11.717-1.141c.752-.086,1.364-.514,1.367-.956,0-.011,0-.022,0-.033" transform="translate(-74.884 -19.916)" fill="#05c168"/>
        <path id="Path_123-2" data-name="Path 123" d="M95.185,45.736c.59-.377.68-.909.208-1.224L88.05,39.5a1.911,1.911,0,0,0-1.821.008q-.047.024-.091.051c-.59.377-.68.909-.207,1.225L93.271,45.8a1.911,1.911,0,0,0,1.821-.009c.032-.017.063-.034.092-.051" transform="translate(-67.951 -28.428)" fill="#05c168"/>
        <path id="Path_124-2" data-name="Path 124" d="M.213,44.325c-.314-.385-.008-.912.7-1.2l10.719-4.043a1.689,1.689,0,0,1,1.774.231l.02.028c.314.385.008.912-.7,1.2L2.007,44.584a1.689,1.689,0,0,1-1.774-.23l-.02-.029" transform="translate(-0.071 -28.194)" fill="#05c168"/>
        <path id="Path_125-2" data-name="Path 125" d="M53.317,51.7c-.743-.069-1.158-.484-.956-.955l3.074-7.42a1.672,1.672,0,0,1,1.559-.772c.038,0,.075,0,.111,0,.743.069,1.158.484.956.956l-3.074,7.42a1.672,1.672,0,0,1-1.559.772c-.038,0-.075,0-.112,0" transform="translate(-41.511 -30.8)" fill="#05c168"/>
        <path id="Path_126-2" data-name="Path 126" d="M28.984,11.315c-5.293,1.209-8.772,4.612-7.77,7.6s6.1,4.432,11.4,3.223,8.772-4.612,7.771-7.6l-.008-.023c-1.016-2.977-6.111-4.408-11.389-3.2M28.412,9.65c6.913-1.615,13.628.234,15,4.131s-3.124,8.365-10.037,9.98-13.628-.234-15-4.131l-.011-.03c-1.352-3.892,3.146-8.346,10.048-9.949" transform="translate(-14.383 -6.562)" fill="#05c168"/>
      </g>
    </g>
    <path id="docker" d="M54.754,35.049a9.17,9.17,0,0,0-6.395-.55A7.887,7.887,0,0,0,44.9,29.426l-.691-.511-.6.629a6.319,6.319,0,0,0-1.339,4.836,6.215,6.215,0,0,0,1.3,3.263,13.78,13.78,0,0,1-1.858.944,12.834,12.834,0,0,1-3.846.786h-2.9V33.83H29.347V24H22.866v4.718h-10.8V33.83H6.446v5.5H1.607l-.086.59a13.3,13.3,0,0,0,1.3,7.274l.475.865.043.079c3.414,5.269,9.376,7.471,15.9,7.471,12.617,0,23.03-5.151,27.784-15.964,3.2.157,6.481-.708,8.037-3.5l.389-.708-.691-.393ZM12.928,29.9h4.321v4.325H12.928Zm5.66,17.379a1.345,1.345,0,1,1-1.339-1.219A1.317,1.317,0,0,1,18.588,47.277Zm-5.66-12.268h4.321v4.325H12.928V35.009Zm-5.617,0h4.753v4.325H7.31ZM19.279,54.747c-6.827-.039-10.5-2.123-13.524-4.876.907.039,1.772.079,2.549.079.691,0,1.383,0,2.031-.039a21.668,21.668,0,0,0,4.364-.59,11.261,11.261,0,0,0,6.049,5.426Zm3.586-15.413H18.113V35.009h4.753Zm0-5.111H18.113V29.9h4.753Zm5.617,5.111H23.73V35.009h4.753Zm0-5.111H23.73V29.9h4.753Zm0-5.111H23.73V24.786h4.753ZM34.1,39.334H29.347V35.009H34.1ZM17.594,46.49a.879.879,0,0,0-.346-.079.869.869,0,1,0,.951.865.688.688,0,0,0-.086-.315.39.39,0,0,1-.346.2.371.371,0,0,1-.389-.354.484.484,0,0,1,.216-.315Z" transform="translate(219.098 355.634) rotate(16)" fill="#05c168"/>
  </g>
</svg>
