<svg width="17" height="17" viewBox="0 0 17 17" fill="none" xmlns="http://www.w3.org/2000/svg">
<path d="M11.6141 9.74545C9.65983 9.74545 5.21349 10.0351 5.21349 10.0351C8.04532 13.3797 13.1842 11.863 13.1842 11.863C14.3353 11.5639 13.9915 11.1199 13.9915 11.1199C13.7074 10.8848 12.5065 9.81067 12.5065 9.81067C12.4444 9.76407 12.1094 9.74545 11.614 9.74545M11.614 9.48315C11.8768 9.48315 12.0876 9.48849 12.2406 9.49889C12.474 9.5148 12.5848 9.54147 12.6639 9.60084C12.6697 9.60538 12.6756 9.61016 12.6814 9.61518C12.6934 9.62584 13.8817 10.6886 14.159 10.9179C14.1738 10.9302 14.1873 10.9442 14.1991 10.9594C14.2501 11.0295 14.2834 11.1108 14.2962 11.1965C14.309 11.2821 14.3009 11.3696 14.2726 11.4515C14.172 11.7461 13.8388 11.9636 13.2541 12.116C13.2137 12.1277 12.9219 12.2102 12.4585 12.2929C11.8113 12.4079 11.1554 12.4666 10.498 12.4684C9.54582 12.4792 8.59858 12.3296 7.69602 12.0259C6.65364 11.6724 5.72654 11.043 5.01327 10.2046C4.98188 10.1676 4.96141 10.1225 4.95413 10.0745C4.94685 10.0264 4.95306 9.97733 4.97205 9.93262C4.99104 9.88791 5.02208 9.84935 5.0617 9.82124C5.10132 9.79313 5.14797 9.77658 5.19644 9.77343C5.24094 9.77054 9.67382 9.48315 11.6141 9.48315H11.614Z" fill="#F6911A"/>
<path d="M5.11931 9.85383L5.10794 9.8533C4.89649 9.83962 4.68674 9.80661 4.48132 9.75468C4.02204 9.63709 3.72363 9.44561 3.59441 9.1855C3.45854 8.91201 3.51861 8.58511 3.77303 8.21387L3.77548 8.21029L3.77819 8.20688C3.78457 8.19875 3.93872 8.00386 4.22986 7.70598C4.62681 7.30166 5.05405 6.92823 5.50785 6.58895C6.13125 6.1198 6.80645 5.72377 7.52018 5.40863C8.36012 5.03699 9.25527 4.80546 10.1701 4.72325C10.3868 4.69291 10.6054 4.6783 10.8242 4.67953C11.3461 4.67295 11.8645 4.76365 12.3531 4.94699C12.9898 5.20351 13.4396 5.63324 13.6897 6.22445L13.6909 6.22734C13.8042 6.54636 13.8521 6.88492 13.8317 7.22283C13.8152 7.53253 13.7255 7.83388 13.5698 8.10213C13.3616 8.44225 13.0616 8.71667 12.7043 8.89383L12.6832 8.90485L5.11931 9.85383ZM3.9868 8.366C3.79227 8.65121 3.73928 8.88762 3.82943 9.06878C3.94615 9.3038 4.28407 9.43328 4.54637 9.50052C4.73119 9.5469 4.91971 9.57706 5.10978 9.59066L12.6027 8.65121C13.204 8.32858 13.5294 7.84273 13.5698 7.20675C13.5873 6.90782 13.5457 6.60838 13.4474 6.32552C12.937 5.1222 11.5851 4.94244 10.8245 4.94244C10.618 4.94115 10.4118 4.95477 10.2073 4.98318L10.2023 4.98397H10.1973C8.23765 5.15088 6.65461 6.06034 5.67153 6.79381C5.22818 7.12473 4.81073 7.48901 4.42283 7.88347C4.15896 8.15337 4.00796 8.3396 3.9868 8.36592V8.366Z" fill="#F6911A"/>
<path d="M6.27783 10.4919C6.27783 10.4919 7.3264 12.2559 11.2753 11.658C11.2753 11.658 7.86682 12.0168 6.27783 10.4919Z" fill="#F6911A"/>
<path d="M6.30796 10.4604C7.38748 11.4964 9.33476 11.6511 10.3998 11.6511C10.9181 11.6511 11.2675 11.615 11.271 11.6146L11.2821 11.7014C10.7706 11.7812 10.2537 11.8227 9.73598 11.8255C9.16727 11.8315 8.6002 11.7633 8.04916 11.6225C7.67165 11.5249 7.31001 11.374 6.97515 11.1742C6.44383 10.8499 6.2485 10.5279 6.24072 10.5144L6.30796 10.4604ZM10.0382 11.7327C9.45839 11.7172 8.88126 11.6476 8.31434 11.5249C7.76053 11.4105 7.2302 11.2028 6.74599 10.9106C6.83568 10.9801 6.92927 11.0443 7.0263 11.103C7.50298 11.3926 8.35998 11.7378 9.73563 11.7378C9.83489 11.738 9.93576 11.7363 10.0382 11.7327Z" fill="#F6911A"/>
<path d="M5.10764 9.68422C5.10764 9.68422 4.01702 9.03574 6.42786 7.74927C6.42786 7.74927 4.42743 8.87897 5.18485 9.60737L5.10764 9.68422Z" fill="#F6911A"/>
<path d="M5.11423 9.73922L5.08503 9.72173C5.03331 9.68831 4.98714 9.64701 4.9482 9.59932C4.86134 9.49733 4.81493 9.36701 4.81775 9.23307C4.82238 9.03259 4.93307 8.81646 5.14675 8.59071C5.41045 8.31215 5.83432 8.01594 6.40673 7.71045L6.44879 7.78704C6.43576 7.79438 5.14186 8.53231 5.06072 9.17397C5.05107 9.24841 5.06009 9.32408 5.08696 9.39417C5.11384 9.46426 5.15774 9.52656 5.21469 9.57545L5.24686 9.60632L5.11423 9.73922ZM5.32905 8.53449C5.00354 8.83307 4.90938 9.06678 4.90509 9.23395C4.90203 9.34607 4.94051 9.45537 5.01316 9.54083C5.03952 9.5729 5.06944 9.60188 5.10234 9.62721L5.12271 9.60684C5.06574 9.54912 5.02272 9.47912 4.99696 9.40221C4.9712 9.32531 4.96337 9.24353 4.97408 9.16313C5.01177 8.96599 5.10383 8.78331 5.23987 8.63574C5.26756 8.60252 5.29728 8.56871 5.32905 8.53449Z" fill="#F6911A"/>
<path d="M12.7205 8.65094C12.7205 8.65094 13.5443 8.13509 13.2254 7.06396C13.2254 7.06396 13.6068 8.00954 12.7867 8.65094H12.7205Z" fill="#F6911A"/>
<path d="M12.8017 8.69465H12.5681L12.6971 8.61386C12.8417 8.51237 12.9643 8.38263 13.0574 8.23248C13.269 7.89543 13.3114 7.5068 13.1833 7.07646L13.2657 7.04761C13.3314 7.23039 13.3623 7.42379 13.3571 7.61793C13.3542 7.80128 13.3147 7.98221 13.241 8.15012C13.1448 8.3611 12.998 8.54499 12.8134 8.68538L12.8017 8.69465Z" fill="#F6911A"/>
<path d="M12.7913 8.64685C12.7913 8.64685 12.6138 9.42377 12.8022 9.82377C12.8022 9.82377 10.7777 10.3058 5.04331 10.1276C5.04331 10.1276 4.84939 9.64715 5.14823 9.58228C5.14823 9.58228 8.87037 8.68532 12.7913 8.64685Z" fill="#F6911A"/>
<mask id="mask0_164_280" style="mask-type:luminance" maskUnits="userSpaceOnUse" x="8" y="5" width="5" height="4">
<path d="M12.3371 5.4122L8.6167 5.60718L8.78416 8.80253L12.5045 8.60755L12.3371 5.4122Z" fill="white"/>
</mask>
<g mask="url(#mask0_164_280)">
<path d="M10.6145 7.98226C10.7629 7.97448 10.8929 8.15521 10.9049 8.38519C10.917 8.61517 10.8063 8.80851 10.6582 8.81627C10.5101 8.82403 10.3798 8.64323 10.3678 8.41334C10.3558 8.18345 10.4664 7.99002 10.6145 7.98226ZM10.6503 8.6646C10.7445 8.65967 10.8149 8.53664 10.8072 8.39031C10.7996 8.24397 10.7167 8.12899 10.6225 8.13392C10.5283 8.13886 10.4578 8.26188 10.4655 8.40822C10.4732 8.55455 10.5563 8.66953 10.6503 8.6646Z" fill="#F6911A"/>
<path d="M10.5559 6.87129C11.0985 6.84285 11.5758 7.50503 11.6199 8.34768C11.6641 9.19033 11.2586 9.89877 10.7161 9.9272C10.1735 9.95564 9.69623 9.29293 9.6521 8.45081C9.60796 7.60869 10.0134 6.89972 10.5559 6.87129ZM10.7041 9.69923C11.1659 9.67503 11.511 9.07201 11.4734 8.3551C11.4358 7.63818 11.0298 7.07452 10.5679 7.09873C10.1059 7.12294 9.76102 7.72595 9.79861 8.44313C9.83619 9.16031 10.2424 9.72343 10.7041 9.69923Z" fill="#F6911A"/>
<path d="M10.5828 8.04679L10.5616 7.64192C10.5364 7.62117 10.5162 7.59488 10.5028 7.5651C10.4893 7.53532 10.4829 7.50284 10.484 7.47018C10.4796 7.43793 10.4827 7.40509 10.4929 7.3742C10.5032 7.34331 10.5204 7.31518 10.5433 7.29198L10.5159 6.7702C10.4784 6.76604 10.4513 6.75231 10.4504 6.73467C10.4495 6.71704 10.4749 6.70056 10.5118 6.69249L10.507 6.60099C10.4373 6.55632 10.378 6.38134 10.3669 6.16891C10.3538 5.91973 10.4122 5.71416 10.4971 5.70971C10.5821 5.70526 10.6614 5.90361 10.6745 6.15279C10.6856 6.36496 10.645 6.54543 10.5803 6.59715L10.5851 6.68874C10.6226 6.69291 10.6497 6.70663 10.6506 6.72427C10.6515 6.74191 10.6261 6.75838 10.5892 6.76645L10.6167 7.29128C10.6401 7.31249 10.6587 7.33848 10.6712 7.36749C10.6837 7.3965 10.6898 7.42785 10.6891 7.45944C10.6932 7.49083 10.6904 7.52272 10.681 7.55294C10.6716 7.58316 10.6558 7.61101 10.6347 7.63459L10.6561 8.04278L10.5828 8.04679Z" fill="#F6911A"/>
<path d="M10.702 8.0843L10.5414 8.09271L10.519 7.66488C10.4688 7.61339 10.4406 7.54437 10.4403 7.47245C10.433 7.4009 10.4539 7.32932 10.4984 7.27285L10.474 6.80626C10.4329 6.79379 10.4084 6.76925 10.4067 6.73694C10.405 6.70464 10.4268 6.67767 10.4664 6.66097L10.4644 6.62317C10.3794 6.54655 10.3324 6.34598 10.3232 6.17118C10.3154 6.05844 10.3256 5.94519 10.3531 5.8356C10.3917 5.69954 10.4515 5.6683 10.4948 5.66603C10.5381 5.66376 10.601 5.68857 10.6533 5.81987C10.6922 5.92597 10.7141 6.03755 10.7182 6.15048C10.7273 6.3251 10.7016 6.52966 10.625 6.61475L10.627 6.65264C10.6681 6.66511 10.6926 6.68965 10.6943 6.72196C10.696 6.75426 10.6742 6.78123 10.6346 6.79793L10.6593 7.26941C10.7062 7.32079 10.7324 7.38773 10.7328 7.4573C10.7397 7.52652 10.7207 7.59584 10.6794 7.65184L10.702 8.0843ZM10.5798 7.3191L10.5687 7.32713C10.5521 7.34622 10.5398 7.36869 10.5327 7.39299C10.5256 7.41729 10.5239 7.44284 10.5276 7.46787C10.5265 7.49319 10.5309 7.51845 10.5405 7.54191C10.5501 7.56537 10.5646 7.58647 10.5832 7.60373L10.5951 7.61055L10.6067 7.60119C10.6224 7.58186 10.634 7.5595 10.6406 7.53549C10.6473 7.51149 10.6489 7.48637 10.6454 7.4617C10.6463 7.43685 10.642 7.41209 10.6329 7.38896C10.6238 7.36583 10.61 7.34484 10.5923 7.32729L10.5798 7.3191ZM10.4993 5.75335C10.4663 5.75508 10.3964 5.89777 10.4105 6.1666C10.4214 6.37432 10.4801 6.5319 10.5305 6.56419L10.5421 6.57164L10.5529 6.56302C10.5997 6.52555 10.6416 6.36278 10.6307 6.15506C10.6167 5.88623 10.5323 5.75162 10.4993 5.75335Z" fill="#F6911A"/>
<path d="M10.7707 8.11094L10.9383 7.81262C10.9181 7.74569 10.9252 7.67347 10.9582 7.61179C10.9916 7.55216 11.0421 7.53148 11.0833 7.55453L11.2996 7.17023C11.2735 7.12668 11.2595 7.08793 11.2668 7.07494C11.274 7.06196 11.3006 7.07851 11.3317 7.11304L11.3696 7.04557C11.3456 6.89078 11.3779 6.73253 11.4605 6.59946C11.5636 6.41562 11.7003 6.33938 11.7657 6.42867C11.8312 6.51795 11.8006 6.73914 11.6974 6.92254C11.6096 7.0786 11.4975 7.15767 11.4257 7.12247L11.3878 7.18995C11.4139 7.23349 11.4279 7.27224 11.4207 7.28523C11.4134 7.29822 11.3869 7.28166 11.3557 7.24714L11.1384 7.63395C11.1557 7.69889 11.1477 7.76798 11.1161 7.82729C11.0841 7.88439 11.0363 7.90581 10.9961 7.88716L10.8273 8.18773L10.7707 8.11094Z" fill="#F6911A"/>
<path d="M10.832 8.26857L10.7188 8.11411L10.8913 7.80739C10.8741 7.73403 10.8844 7.65692 10.9201 7.59059C10.9314 7.56661 10.9486 7.5459 10.9701 7.53039C10.9916 7.51488 11.0167 7.50509 11.043 7.50195C11.0495 7.50161 11.0561 7.50185 11.0626 7.50267L11.2492 7.17061C11.2069 7.09158 11.2222 7.0639 11.2283 7.05351C11.2326 7.04579 11.2389 7.03929 11.2464 7.03462C11.2539 7.02996 11.2625 7.02728 11.2714 7.02683C11.2891 7.02654 11.3064 7.03252 11.3201 7.04371L11.3225 7.03947C11.3035 6.87883 11.3387 6.71644 11.4223 6.57801C11.5007 6.43854 11.6 6.35244 11.6878 6.34784C11.7098 6.34659 11.7318 6.35103 11.7516 6.36072C11.7714 6.37042 11.7884 6.38504 11.8009 6.4032C11.8431 6.47685 11.8563 6.56352 11.8381 6.64639C11.8224 6.75109 11.7876 6.85202 11.7355 6.94419C11.6571 7.08374 11.5579 7.16975 11.47 7.17436C11.4624 7.17478 11.4548 7.17457 11.4472 7.17372L11.438 7.18996C11.4802 7.26873 11.4649 7.29598 11.4588 7.3068C11.4544 7.31453 11.4482 7.32102 11.4407 7.32569C11.4331 7.33036 11.4245 7.33304 11.4157 7.33349C11.398 7.33378 11.3807 7.3278 11.3669 7.31661L11.1849 7.64028C11.1991 7.7112 11.1883 7.78487 11.1542 7.84869C11.1429 7.87267 11.1257 7.89338 11.1043 7.90889C11.0828 7.9244 11.0577 7.93419 11.0314 7.93733C11.0269 7.93756 11.0225 7.93753 11.0181 7.93724L10.832 8.26857ZM10.9783 7.83077L11.0142 7.84753C11.018 7.84939 11.0223 7.85025 11.0265 7.85004C11.0379 7.84713 11.0484 7.84164 11.0573 7.83399C11.0662 7.82634 11.0732 7.81674 11.0777 7.80594C11.1038 7.75687 11.1105 7.69982 11.0965 7.64605L11.0915 7.6288L11.0995 7.61403L11.0618 7.59297C11.0574 7.59038 11.0524 7.58912 11.0473 7.58936C11.0359 7.59226 11.0254 7.59775 11.0165 7.6054C11.0077 7.61305 11.0007 7.62265 10.9961 7.63345C10.9692 7.68444 10.9633 7.74389 10.9796 7.79918L10.9857 7.81751L10.9783 7.83077ZM11.4083 7.06535L11.445 7.08331C11.4514 7.08631 11.4584 7.0876 11.4655 7.08705C11.5114 7.08464 11.5891 7.02628 11.6593 6.90135C11.7612 6.71994 11.7786 6.52029 11.7304 6.45452C11.7265 6.44812 11.7208 6.44293 11.7141 6.43952C11.7074 6.4361 11.6999 6.43459 11.6924 6.43515C11.6465 6.43756 11.5687 6.49592 11.4986 6.62085C11.4222 6.7438 11.3912 6.88961 11.4112 7.03298L11.4165 7.05074L11.4083 7.06535Z" fill="#F6911A"/>
<path d="M10.8779 8.34197L11.1385 8.32479C11.1414 8.29683 11.1535 8.27061 11.1727 8.25012C11.1919 8.22962 11.2174 8.21597 11.2451 8.21123C11.273 8.21222 11.2998 8.22245 11.3214 8.2403C11.3429 8.25816 11.3579 8.28265 11.364 8.30994L11.6995 8.28771C11.7002 8.22954 11.7074 8.18824 11.719 8.18763C11.7306 8.18702 11.7424 8.22702 11.7496 8.28434L11.8085 8.28045C11.827 8.22276 11.8632 8.17234 11.9119 8.13636C11.9606 8.10037 12.0194 8.08063 12.08 8.07994C12.1494 8.06905 12.2203 8.08602 12.2773 8.12715C12.3342 8.16829 12.3726 8.23026 12.384 8.29956C12.3806 8.3701 12.3498 8.43651 12.2982 8.48467C12.2465 8.53283 12.1781 8.55893 12.1075 8.55742C12.0477 8.56492 11.9871 8.55312 11.9344 8.52376C11.8818 8.49439 11.8399 8.44898 11.8149 8.39415L11.7559 8.39804C11.7552 8.45621 11.748 8.49751 11.7364 8.49812C11.7248 8.49873 11.7131 8.45873 11.7059 8.40141L11.3681 8.42369C11.3641 8.45012 11.3518 8.47458 11.333 8.49357C11.3141 8.51257 11.2898 8.52511 11.2634 8.52941C11.2368 8.52871 11.2111 8.51947 11.1902 8.50304C11.1692 8.48661 11.1541 8.46387 11.1471 8.43819L10.8844 8.45554L10.8779 8.34197Z" fill="#F6911A"/>
<path d="M10.8435 8.50207L10.8321 8.30134L11.1049 8.28308C11.114 8.25258 11.1318 8.2254 11.1562 8.2049C11.1805 8.1844 11.2104 8.17146 11.242 8.16768C11.2615 8.16669 11.2809 8.16963 11.2993 8.17634C11.3176 8.18305 11.3344 8.19339 11.3486 8.20673C11.3665 8.22307 11.3812 8.24258 11.392 8.26426L11.6573 8.24658C11.6612 8.19121 11.6742 8.14651 11.7159 8.14383C11.7227 8.14344 11.7294 8.14441 11.7357 8.14669C11.7421 8.14896 11.7479 8.15249 11.7528 8.15706C11.7593 8.16291 11.7718 8.17409 11.7828 8.22124C11.8111 8.16712 11.8532 8.12148 11.9049 8.08898C11.9566 8.05648 12.016 8.03829 12.077 8.03625C12.1244 8.03228 12.1721 8.03776 12.2173 8.05239C12.2625 8.06701 12.3044 8.09049 12.3405 8.12144C12.3917 8.16606 12.4231 8.22916 12.4278 8.29689C12.4368 8.45243 12.2945 8.58866 12.1106 8.60096C12.0632 8.60493 12.0156 8.59945 11.9703 8.58482C11.9251 8.5702 11.8832 8.54673 11.8472 8.51577C11.8277 8.49822 11.8109 8.47801 11.7971 8.45574C11.7917 8.50301 11.7774 8.53905 11.74 8.54151C11.7332 8.54192 11.7265 8.54095 11.7201 8.53868C11.7138 8.53641 11.7079 8.53287 11.703 8.52828C11.6959 8.52196 11.6811 8.50862 11.6698 8.44756L11.4017 8.46501C11.3919 8.49389 11.374 8.51937 11.3502 8.53846C11.3264 8.55755 11.2977 8.56945 11.2674 8.57278C11.2479 8.57377 11.2284 8.57083 11.2101 8.56412C11.1918 8.55741 11.175 8.54707 11.1607 8.53373C11.1449 8.51929 11.1315 8.50234 11.1212 8.48355L10.8435 8.50207ZM10.9239 8.38233L10.9254 8.40875L11.1765 8.39218L11.188 8.4226C11.1942 8.44015 11.2045 8.45597 11.2181 8.46876C11.2237 8.47424 11.2303 8.47855 11.2376 8.48143C11.2449 8.48431 11.2527 8.48571 11.2605 8.48554C11.2775 8.48158 11.2929 8.4725 11.3046 8.45952C11.3163 8.44654 11.3237 8.43029 11.3258 8.41296L11.3334 8.38192L11.8448 8.34819L11.856 8.37936C11.8663 8.40697 11.8833 8.43159 11.9055 8.45099C11.9329 8.47413 11.9646 8.4916 11.9988 8.5024C12.0329 8.5132 12.0689 8.51712 12.1046 8.51392C12.1636 8.51583 12.221 8.49489 12.2649 8.45548C12.3087 8.41607 12.3357 8.36123 12.3401 8.30242C12.3386 8.28019 12.3327 8.25848 12.3227 8.23856C12.3127 8.21864 12.2989 8.20091 12.282 8.18641C12.2546 8.16328 12.2229 8.14581 12.1887 8.13501C12.1545 8.1242 12.1186 8.12029 12.0829 8.12349C12.0317 8.12395 11.982 8.14024 11.9405 8.17012C11.899 8.2 11.8677 8.242 11.8511 8.29034L11.8437 8.32181L11.333 8.35557L11.3224 8.32343C11.3165 8.30361 11.3055 8.28564 11.2906 8.27124C11.285 8.26576 11.2784 8.26145 11.2711 8.25857C11.2638 8.25568 11.256 8.25429 11.2482 8.25446C11.2302 8.25894 11.2141 8.26895 11.2022 8.28308C11.1902 8.2972 11.183 8.31472 11.1816 8.33317L11.1749 8.3659L10.9239 8.38233Z" fill="#F6911A"/>
<path d="M10.2297 7.92713C10.1917 7.94987 10.142 7.93356 10.1041 7.88013C10.0664 7.82445 10.0513 7.75657 10.0617 7.69017L9.80525 7.32828C9.7779 7.36596 9.75325 7.38511 9.74465 7.37296C9.73604 7.3608 9.74592 7.32036 9.76734 7.27476L9.72262 7.21161C9.65481 7.25413 9.53522 7.18755 9.43152 7.04135C9.30966 6.86948 9.2561 6.65271 9.31184 6.55707C9.36759 6.46143 9.51151 6.52297 9.6333 6.69501C9.72947 6.81868 9.7782 6.97268 9.77066 7.12916L9.81538 7.19231C9.84273 7.15463 9.86738 7.13548 9.87598 7.14763C9.88459 7.15979 9.87471 7.20023 9.85329 7.24583L10.1085 7.60533C10.1471 7.5781 10.1995 7.59339 10.239 7.64919C10.2782 7.70711 10.2929 7.77822 10.2797 7.84693L10.4776 8.1261L10.4294 8.20856L10.2297 7.92713Z" fill="#F6911A"/>
<path d="M10.4331 8.28939L10.2133 7.97934C10.2089 7.98009 10.2045 7.98058 10.2 7.98082C10.1735 7.98044 10.1476 7.97332 10.1246 7.96015C10.1016 7.94697 10.0823 7.92816 10.0686 7.90549C10.0281 7.84559 10.0096 7.77346 10.0163 7.70144L9.80119 7.39849C9.78866 7.41105 9.77211 7.4188 9.75444 7.42037C9.7456 7.42085 9.73677 7.41909 9.72879 7.41523C9.72081 7.41138 9.71394 7.40557 9.70881 7.39834C9.70163 7.38821 9.68357 7.36272 9.71723 7.27997L9.70663 7.26476C9.69917 7.26643 9.69158 7.26747 9.68394 7.26788C9.5961 7.27248 9.48842 7.19731 9.39586 7.06672C9.33449 6.98048 9.28942 6.88374 9.26288 6.78127C9.23612 6.70076 9.24023 6.61317 9.27443 6.53552C9.28498 6.51617 9.30033 6.49986 9.31901 6.48815C9.33768 6.47643 9.35905 6.46972 9.38106 6.46864C9.4689 6.46404 9.57659 6.53929 9.66914 6.6698C9.76685 6.79872 9.81878 6.95655 9.81671 7.1183L9.81954 7.12226C9.83206 7.10969 9.84862 7.10194 9.86629 7.10038C9.87514 7.0999 9.88396 7.10167 9.89194 7.10552C9.89992 7.10937 9.90679 7.11519 9.91192 7.12241C9.9191 7.13254 9.93716 7.15804 9.9035 7.24079L10.1238 7.55152C10.1302 7.55003 10.1367 7.5491 10.1432 7.54875C10.1697 7.54913 10.1957 7.55624 10.2187 7.56942C10.2417 7.58259 10.2609 7.6014 10.2747 7.62407C10.3171 7.6863 10.3354 7.76192 10.326 7.83667L10.5296 8.12368L10.4331 8.28939ZM10.0984 7.66605L10.1079 7.67991L10.1047 7.69759C10.0964 7.75263 10.1091 7.80878 10.1403 7.8549C10.146 7.86516 10.1539 7.87398 10.1635 7.88066C10.1732 7.88734 10.1842 7.8917 10.1958 7.8934C10.2001 7.89316 10.2042 7.89186 10.2079 7.88962L10.2418 7.86919L10.2328 7.85661L10.237 7.83775C10.2474 7.78106 10.2353 7.72256 10.2033 7.67466C10.1976 7.66439 10.1896 7.65557 10.18 7.64889C10.1704 7.64222 10.1593 7.63785 10.1477 7.63615C10.1426 7.63645 10.1377 7.63823 10.1337 7.64127L10.0984 7.66605ZM9.38564 6.55596C9.37813 6.5562 9.37083 6.5585 9.36453 6.56259C9.35824 6.56669 9.35318 6.57243 9.34991 6.57919C9.30886 6.64955 9.34701 6.84629 9.46734 7.0157C9.55019 7.13305 9.63361 7.18296 9.67954 7.18056C9.6866 7.18037 9.6935 7.17835 9.69954 7.17469L9.73413 7.15301L9.72466 7.13941L9.72808 7.12119C9.73287 6.97648 9.68681 6.83466 9.5979 6.72037C9.51499 6.60346 9.43156 6.55355 9.38564 6.55596Z" fill="#F6911A"/>
<path d="M10.3924 8.36719L10.1315 8.37733C10.1256 8.34984 10.1109 8.32502 10.0896 8.30665C10.0683 8.28827 10.0417 8.27735 10.0136 8.27554C9.98591 8.27945 9.9603 8.29242 9.94077 8.31243C9.92124 8.33244 9.90889 8.35836 9.90567 8.38613L9.56963 8.3991C9.56282 8.34133 9.55136 8.301 9.53975 8.30161C9.52815 8.30222 9.52064 8.34323 9.51946 8.40099L9.46045 8.40327C9.43605 8.34783 9.39481 8.30148 9.34259 8.27078C9.29037 8.24008 9.22981 8.2266 9.1695 8.23224C9.09932 8.22861 9.03055 8.25287 8.97818 8.29973C8.9258 8.34659 8.89408 8.41224 8.8899 8.48239C8.90066 8.55223 8.93827 8.6151 8.99471 8.65762C9.05115 8.70013 9.12196 8.71892 9.19206 8.70998C9.25232 8.71119 9.3114 8.69312 9.36068 8.65841C9.40996 8.6237 9.44688 8.57417 9.46604 8.51702L9.52505 8.51473C9.53185 8.57251 9.54331 8.61283 9.55492 8.61222C9.56652 8.61161 9.57403 8.5706 9.57522 8.51284L9.91341 8.4997C9.9202 8.52556 9.935 8.5486 9.9557 8.56552C9.97639 8.58245 10.0019 8.59238 10.0286 8.59389C10.055 8.59042 10.0796 8.57854 10.0987 8.56001C10.1178 8.54148 10.1305 8.51728 10.1348 8.49101L10.3977 8.48094L10.3924 8.36719Z" fill="#F6911A"/>
<path d="M10.4435 8.5231L10.1663 8.53385C10.158 8.55361 10.1465 8.57187 10.1322 8.58788C10.1195 8.60266 10.1039 8.61471 10.0863 8.62331C10.0688 8.63191 10.0497 8.63688 10.0302 8.63793C9.99974 8.63779 9.96991 8.62895 9.94425 8.61246C9.91859 8.59596 9.89817 8.57249 9.88538 8.54479L9.61695 8.55546C9.61161 8.61783 9.59822 8.63271 9.59202 8.6396C9.58756 8.64466 9.58213 8.64877 9.57605 8.65169C9.56997 8.6546 9.56336 8.65626 9.55663 8.65656C9.51913 8.65809 9.50117 8.62368 9.49087 8.57723C9.47941 8.60076 9.4647 8.62256 9.44715 8.64199C9.41445 8.67653 9.37521 8.70422 9.3317 8.72344C9.2882 8.74266 9.2413 8.75303 9.19375 8.75395C9.00951 8.76113 8.8538 8.64034 8.84651 8.48471C8.84414 8.41685 8.86878 8.35082 8.91501 8.30109C8.94764 8.26653 8.9868 8.2388 9.03024 8.21952C9.07368 8.20024 9.12051 8.18979 9.16803 8.18878C9.22891 8.18442 9.28987 8.19631 9.34466 8.22322C9.39945 8.25013 9.44612 8.29109 9.4799 8.34194C9.48599 8.29389 9.4974 8.28122 9.50301 8.27498C9.50747 8.26991 9.5129 8.2658 9.51898 8.26289C9.52506 8.25997 9.53166 8.25832 9.5384 8.25802C9.58023 8.25638 9.59773 8.29967 9.60745 8.35407L9.87287 8.34375C9.88134 8.32106 9.89392 8.30013 9.90999 8.282C9.92275 8.26723 9.93836 8.25518 9.95589 8.24658C9.97342 8.23798 9.9925 8.23301 10.012 8.23196C10.0439 8.23238 10.075 8.24212 10.1014 8.25999C10.1278 8.27786 10.1484 8.30307 10.1606 8.33251L10.4339 8.32228L10.4435 8.5231ZM10.1006 8.44889L10.3521 8.43911L10.3511 8.41242L10.1003 8.42197L10.0903 8.39012C10.0869 8.37195 10.0779 8.3553 10.0645 8.34252C10.0512 8.32974 10.0342 8.32147 10.0159 8.31886C10.0081 8.31951 10.0005 8.32171 9.99352 8.32534C9.98658 8.32897 9.98043 8.33395 9.97544 8.33999C9.96214 8.35586 9.95312 8.37488 9.94923 8.39522L9.94205 8.42828L9.56236 8.44348L9.43001 8.44843L9.41937 8.41791C9.39775 8.37157 9.3623 8.33307 9.3179 8.30769C9.2735 8.28231 9.22234 8.27131 9.17143 8.2762C9.13559 8.27675 9.10022 8.2844 9.06736 8.29872C9.03449 8.31303 9.0048 8.33372 8.97999 8.35959C8.96464 8.37569 8.95266 8.39469 8.94474 8.41547C8.93681 8.43625 8.93311 8.4584 8.93383 8.48063C8.94437 8.53866 8.97691 8.59038 9.02467 8.62499C9.07243 8.6596 9.13172 8.67442 9.19015 8.66635C9.22599 8.6658 9.26136 8.65815 9.29422 8.64383C9.32708 8.62952 9.35678 8.60883 9.38159 8.58296C9.40162 8.56134 9.41597 8.53508 9.42334 8.50654L9.43126 8.47462L9.94331 8.45471L9.95411 8.48479C9.95807 8.5018 9.96715 8.51719 9.98013 8.52888C9.99311 8.54056 10.0094 8.54798 10.0267 8.55014C10.0345 8.54949 10.0421 8.54729 10.049 8.54366C10.056 8.54004 10.0621 8.53506 10.0671 8.52902C10.0793 8.51489 10.0879 8.49808 10.0922 8.47997L10.1006 8.44889Z" fill="#F6911A"/>
</g>
<path d="M6.779 0.5271H10.9358C11.7266 0.527159 12.4849 0.841274 13.0441 1.40037L15.984 4.34026C16.5432 4.89946 16.8573 5.65786 16.8574 6.44867V10.6055C16.8574 10.9972 16.7803 11.385 16.6304 11.7468C16.4806 12.1087 16.2609 12.4374 15.984 12.7144L13.0443 15.6537C12.4851 16.2128 11.7267 16.527 10.9358 16.5271H6.779C5.98827 16.5271 5.22994 16.213 4.67076 15.6539L1.73086 12.7139C1.17168 12.1547 0.857501 11.3963 0.857422 10.6055V6.44867C0.857482 5.65794 1.1716 4.89961 1.73069 4.34043L4.67058 1.40054C5.22978 0.841359 5.98818 0.527179 6.779 0.5271ZM10.9358 16.2648C11.2931 16.2657 11.647 16.1958 11.9771 16.0591C12.3072 15.9224 12.6069 15.7215 12.8588 15.4682L15.7985 12.5288C16.0519 12.2768 16.2528 11.9771 16.3896 11.6469C16.5263 11.3167 16.5962 10.9627 16.5952 10.6054V6.44867C16.5962 6.0914 16.5262 5.73748 16.3895 5.40741C16.2528 5.07733 16.0519 4.77765 15.7986 4.5257L12.8586 1.58581C12.6066 1.33254 12.307 1.13174 11.977 0.995036C11.6469 0.858332 11.2931 0.788437 10.9358 0.789395H6.779C6.42172 0.788449 6.06781 0.858366 5.73773 0.9951C5.40765 1.13183 5.10797 1.33267 4.85602 1.58598L1.91613 4.52596C1.66286 4.77788 1.46206 5.07752 1.32536 5.40755C1.18865 5.73759 1.11876 6.09145 1.11972 6.44867V10.6054C1.11877 10.9627 1.18869 11.3166 1.32542 11.6467C1.46216 11.9768 1.66299 12.2765 1.91631 12.5284L4.85629 15.4684C5.1082 15.7217 5.40785 15.9225 5.73788 16.0592C6.06791 16.1959 6.42177 16.2658 6.779 16.2648H10.9358Z" fill="#F6911A"/>
</svg>
