<svg width="17" height="17" viewBox="0 0 17 17" fill="none" xmlns="http://www.w3.org/2000/svg">
<path d="M11.9878 8.95512C11.9878 8.95512 12.9257 10.0474 13.2152 10.2869C13.2152 10.2869 13.5655 10.7394 12.3926 11.0443C12.3926 11.0443 6.9109 12.5877 4.02539 9.17984C4.02539 9.17984 11.6745 8.72001 11.9878 8.95512Z" fill="#FEDA94"/>
<path d="M4.16944 8.8628C4.16944 8.8628 1.98277 8.75827 2.91308 7.40138C2.91308 7.40138 5.40473 4.23693 9.33699 3.90218C9.33699 3.90218 11.9869 3.46778 12.784 5.35107C12.784 5.35107 13.4541 6.97773 11.9599 7.8876L4.16944 8.8628Z" fill="#FEDA94"/>
<path d="M5.35474 9.64709C5.35474 9.64709 6.42318 11.4444 10.4469 10.8353C10.4469 10.8353 6.97376 11.2009 5.35474 9.64709Z" fill="#34394B"/>
<path d="M6.4665 0.406982H10.6233C11.4141 0.407042 12.1724 0.721157 12.7316 1.28025L15.6715 4.22014C16.2307 4.77934 16.5448 5.53774 16.5449 6.32856V10.4854C16.5449 10.8771 16.4678 11.2649 16.3179 11.6267C16.1681 11.9885 15.9484 12.3173 15.6715 12.5943L12.7318 15.5335C12.1726 16.0927 11.4142 16.4069 10.6233 16.407H6.4665C5.67577 16.4069 4.91744 16.0929 4.35826 15.5338L1.41836 12.5938C0.859181 12.0346 0.545001 11.2762 0.544922 10.4854V6.32856C0.544982 5.53782 0.859097 4.77949 1.41819 4.22032L4.35808 1.28043C4.91728 0.721241 5.67568 0.407061 6.4665 0.406982ZM10.6233 16.1447C10.9806 16.1456 11.3345 16.0757 11.6646 15.939C11.9947 15.8022 12.2944 15.6014 12.5463 15.3481L15.486 12.4087C15.7394 12.1567 15.9403 11.857 16.0771 11.5268C16.2138 11.1966 16.2837 10.8426 16.2827 10.4852V6.32856C16.2837 5.97128 16.2137 5.61737 16.077 5.28729C15.9403 4.95721 15.7394 4.65753 15.4861 4.40558L12.5461 1.46569C12.2941 1.21242 11.9945 1.01162 11.6645 0.874919C11.3344 0.738215 10.9806 0.66832 10.6233 0.669277H6.4665C6.10922 0.668332 5.75531 0.738249 5.42523 0.874983C5.09515 1.01172 4.79547 1.21255 4.54352 1.46587L1.60363 4.40585C1.35036 4.65776 1.14956 4.95741 1.01286 5.28744C0.876155 5.61747 0.806259 5.97133 0.807217 6.32856V10.4853C0.806272 10.8426 0.876189 11.1965 1.01292 11.5266C1.14966 11.8567 1.35049 12.1563 1.60381 12.4083L4.54379 15.3483C4.7957 15.6015 5.09535 15.8023 5.42538 15.939C5.75541 16.0757 6.10927 16.1456 6.4665 16.1447H10.6233Z" fill="#F6911A"/>
<path d="M4.16282 8.82409C4.16282 8.82409 3.05171 8.16338 5.50771 6.85254C5.50771 6.85254 3.4694 8.00365 4.24122 8.74587L4.16282 8.82409Z" fill="#34394B"/>
<path d="M11.9197 7.77115C11.9197 7.77115 12.7591 7.24537 12.4342 6.15417C12.4342 6.15417 12.8229 7.11764 11.9872 7.77115H11.9197Z" fill="#34394B"/>
<path d="M11.9919 7.76709C11.9919 7.76709 11.8111 8.55865 12.0029 8.96629C12.0029 8.96629 9.86427 9.3678 4.02133 9.1862C4.02133 9.1862 3.89964 8.7862 4.20409 8.72025C4.20409 8.72025 7.99653 7.80629 11.9919 7.76709Z" fill="#F6911A"/>
<mask id="mask0_164_308" style="mask-type:luminance" maskUnits="userSpaceOnUse" x="7" y="4" width="5" height="4">
<path d="M11.7114 4.46247L7.92065 4.66113L8.09128 7.91693L11.882 7.71827L11.7114 4.46247Z" fill="white"/>
</mask>
<g mask="url(#mask0_164_308)">
<path d="M9.95629 7.08148C10.1072 7.07357 10.2399 7.25772 10.2522 7.49207C10.2645 7.72641 10.1517 7.92334 10.0008 7.93125C9.84992 7.93916 9.71716 7.75501 9.70489 7.52075C9.69261 7.2865 9.80538 7.08939 9.95629 7.08148ZM9.99272 7.77671C10.0888 7.77167 10.1605 7.64632 10.1527 7.49719C10.1449 7.34807 10.0604 7.2309 9.96438 7.23594C9.86833 7.24097 9.79658 7.36641 9.80439 7.51554C9.81221 7.66467 9.89659 7.78174 9.99272 7.77671Z" fill="#34394B"/>
<path d="M9.89658 5.94941C10.4494 5.92044 10.9357 6.5952 10.9807 7.45349C11.0257 8.31178 10.6126 9.03368 10.0597 9.06265C9.50689 9.09162 9.0206 8.41686 8.97562 7.55857C8.93064 6.70028 9.34383 5.97838 9.89658 5.94941ZM10.0476 8.83088C10.5181 8.80622 10.8697 8.19142 10.8315 7.46131C10.7932 6.7312 10.3792 6.15653 9.90872 6.18118C9.43826 6.20584 9.08658 6.82064 9.12484 7.55075C9.1631 8.28086 9.57712 8.85554 10.0476 8.83088Z" fill="#34394B"/>
<path d="M9.92376 7.14675L9.90216 6.73469C9.87646 6.71356 9.85596 6.6868 9.84225 6.65648C9.82855 6.62616 9.822 6.59309 9.82312 6.55983C9.81853 6.52688 9.82158 6.4933 9.83204 6.46172C9.84251 6.43013 9.86009 6.40137 9.88345 6.37767L9.85561 5.8464C9.81738 5.84217 9.78977 5.82822 9.78882 5.8102C9.78788 5.79218 9.8137 5.77543 9.85146 5.76722L9.84657 5.67401C9.77547 5.62843 9.7151 5.44983 9.70378 5.23368C9.69047 4.97981 9.74981 4.77037 9.83645 4.76583C9.92309 4.76129 10.0039 4.96338 10.0172 5.21726C10.0285 5.43341 9.98718 5.61733 9.92122 5.67001L9.92611 5.7634C9.96434 5.76762 9.99196 5.78157 9.9929 5.79959C9.99385 5.81761 9.96802 5.83437 9.93026 5.84258L9.95829 6.37731C9.98219 6.39895 10.0012 6.42548 10.0139 6.4551C10.0267 6.48472 10.0329 6.51673 10.0322 6.54897C10.0363 6.58095 10.0334 6.61344 10.0238 6.64423C10.0142 6.67502 9.99814 6.70338 9.97664 6.72741L9.99841 7.14284L9.92376 7.14675Z" fill="#34394B"/>
<path d="M10.1156 7.21235L10.2866 6.90841C10.266 6.84018 10.2733 6.76656 10.3069 6.70369C10.341 6.64298 10.3924 6.62186 10.4344 6.64538L10.6542 6.25388C10.6276 6.20952 10.6133 6.17004 10.6207 6.15674C10.6281 6.14345 10.6552 6.16036 10.6869 6.19555L10.7255 6.12677C10.7011 5.96905 10.734 5.80781 10.8182 5.67223C10.9236 5.48486 11.0624 5.40726 11.1295 5.49819C11.1966 5.58911 11.1651 5.81454 11.0599 6.00163C10.9704 6.16093 10.8562 6.24106 10.7831 6.2052L10.7445 6.27398C10.7711 6.31833 10.7854 6.35782 10.778 6.37111C10.7706 6.38441 10.7435 6.36749 10.7118 6.3323L10.4907 6.72628C10.5084 6.79244 10.5003 6.86285 10.4681 6.92329C10.4355 6.98152 10.3867 7.0033 10.3458 6.98435L10.1731 7.29079L10.1156 7.21235Z" fill="#34394B"/>
<path d="M10.2246 7.44777L10.49 7.43021C10.493 7.40172 10.5053 7.375 10.5249 7.35411C10.5445 7.33323 10.5704 7.31932 10.5986 7.3145C10.6271 7.31548 10.6545 7.32589 10.6764 7.34408C10.6983 7.36227 10.7136 7.38721 10.7198 7.41502L11.0617 7.3925C11.0624 7.3333 11.0695 7.29089 11.0816 7.29076C11.0937 7.29063 11.1053 7.3308 11.1126 7.38921L11.1726 7.38525C11.1914 7.32647 11.2283 7.27511 11.2779 7.23845C11.3276 7.20179 11.3875 7.18168 11.4492 7.18099C11.5198 7.1699 11.592 7.18713 11.65 7.22894C11.7079 7.27074 11.7471 7.33373 11.7589 7.40424C11.7554 7.47612 11.7241 7.54381 11.6715 7.59296C11.619 7.64211 11.5493 7.66884 11.4774 7.66748C11.4165 7.67509 11.3547 7.66306 11.3011 7.63313C11.2475 7.6032 11.2048 7.55694 11.1793 7.50108L11.1193 7.50505C11.1186 7.56425 11.1115 7.60666 11.0994 7.60679C11.0873 7.60692 11.0757 7.56675 11.0684 7.50834L10.724 7.53073C10.7199 7.5577 10.7073 7.58267 10.6882 7.60205C10.669 7.62144 10.6441 7.63423 10.6172 7.63861C10.5901 7.63789 10.5639 7.62847 10.5426 7.61173C10.5213 7.595 10.5059 7.57184 10.4987 7.54569L10.2313 7.56367L10.2246 7.44777Z" fill="#34394B"/>
<path d="M9.56424 7.02478C9.52549 7.048 9.47486 7.03133 9.43622 6.97684C9.39789 6.92009 9.38249 6.85092 9.39315 6.78327L9.13174 6.41503C9.10384 6.45334 9.07879 6.47299 9.06995 6.46054C9.06111 6.4481 9.07124 6.40707 9.09309 6.36044L9.04753 6.29607C8.97859 6.33938 8.85657 6.27163 8.75093 6.12255C8.62703 5.94756 8.57254 5.72664 8.6293 5.62922C8.68606 5.53181 8.83274 5.59444 8.95684 5.76978C9.0548 5.8958 9.10442 6.05271 9.09672 6.21214L9.14228 6.27651C9.17018 6.23819 9.19523 6.21854 9.20407 6.23099C9.21291 6.24343 9.20278 6.28446 9.18092 6.33109L9.44045 6.69748C9.47977 6.66969 9.5331 6.68532 9.57337 6.74214C9.61334 6.80115 9.62828 6.87361 9.61491 6.94362L9.81674 7.22802L9.76773 7.31204L9.56424 7.02478Z" fill="#34394B"/>
<path d="M9.73013 7.47372L9.46431 7.484C9.45832 7.45599 9.44335 7.43069 9.42167 7.41197C9.39999 7.39325 9.37278 7.38212 9.34419 7.38028C9.31598 7.38424 9.28987 7.39744 9.26996 7.41782C9.25005 7.4382 9.23746 7.46461 9.23416 7.49291L8.89177 7.50626C8.88492 7.44746 8.87343 7.40602 8.8614 7.40715C8.84938 7.40828 8.84197 7.44946 8.8409 7.5083L8.78079 7.51063C8.75592 7.45415 8.7139 7.40692 8.66069 7.37565C8.60748 7.34438 8.54578 7.33065 8.48433 7.3364C8.41284 7.33272 8.34278 7.35744 8.28943 7.40518C8.23607 7.45291 8.20374 7.5198 8.19948 7.59126C8.21055 7.66233 8.24886 7.7263 8.30629 7.76959C8.36373 7.81289 8.43577 7.83211 8.50714 7.82318C8.56853 7.82436 8.62869 7.80592 8.67888 7.77054C8.72906 7.73516 8.76665 7.68469 8.78617 7.62648L8.84628 7.62414C8.85314 7.68295 8.86462 7.72439 8.87665 7.72326C8.88867 7.72212 8.89608 7.68095 8.89715 7.62211L9.24217 7.60849C9.24908 7.63488 9.26417 7.6584 9.28529 7.67567C9.3064 7.69294 9.33245 7.70308 9.35968 7.70461C9.38656 7.70106 9.41159 7.68896 9.43106 7.67008C9.45053 7.65121 9.46341 7.62657 9.4678 7.59982L9.73558 7.58962L9.73013 7.47372Z" fill="#34394B"/>
</g>
</svg>
