<svg id="IntelOps_-_Icon" data-name="IntelOps - Icon" xmlns="http://www.w3.org/2000/svg" xmlns:xlink="http://www.w3.org/1999/xlink" width="360" height="360" viewBox="0 0 360 360">
  <defs>
    <linearGradient id="linear-gradient" x1="0.309" y1="0.04" x2="0.69" y2="0.962" gradientUnits="objectBoundingBox">
      <stop offset="0" stop-color="#f88136"/>
      <stop offset="0.171" stop-color="#3def65"/>
      <stop offset="0.485" stop-color="#a06ef8"/>
      <stop offset="0.904" stop-color="#3ddeae"/>
      <stop offset="1" stop-color="#efda3d"/>
    </linearGradient>
    <linearGradient id="linear-gradient-2" x1="0.5" y1="0.5" x2="0.5" y2="1" gradientUnits="objectBoundingBox">
      <stop offset="0" stop-color="#3def65"/>
      <stop offset="1" stop-color="#087621"/>
    </linearGradient>
    <linearGradient id="linear-gradient-3" x1="0.912" x2="0.092" y2="0.995" gradientUnits="objectBoundingBox">
      <stop offset="0" stop-color="#0a7a23"/>
      <stop offset="0.196" stop-color="#3def65"/>
      <stop offset="0.66" stop-color="#3def65"/>
      <stop offset="1" stop-color="#036b1b"/>
    </linearGradient>
  </defs>
  <g id="Group_7123" data-name="Group 7123">
    <path id="Path_23781" data-name="Path 23781" d="M227.545,0a65.156,65.156,0,0,1,46.11,19.1L340.9,86.344a65.156,65.156,0,0,1,19.1,46.11v95.09a65.156,65.156,0,0,1-19.108,46.123L273.656,340.9a65.156,65.156,0,0,1-46.11,19.1h-95.09a65.156,65.156,0,0,1-46.11-19.1L19.1,273.656A65.156,65.156,0,0,1,0,227.545v-95.09a65.156,65.156,0,0,1,19.1-46.11L86.344,19.1A65.156,65.156,0,0,1,132.455,0Z" transform="translate(0 0)" fill="#4b4b4c"/>
    <path id="Path_23782" data-name="Path 23782" d="M120.088-5h7.655v3.828h-9.932L117.7-5Zm15.348,0h7.655v3.828h-7.655Zm15.3,0h7.655v3.828h-7.655Zm15.3,0h7.655v3.828h-7.655Zm15.348,0h7.655v3.828h-7.655Zm15.261,0H204.3v3.828h-7.655Zm15.411.1a62.772,62.772,0,0,1,7.831.938l-.688,3.753a58.916,58.916,0,0,0-7.355-.876Zm-102.2.751L110.481-.4a58.969,58.969,0,0,0-7.218,1.676l-1.1-3.665a62.793,62.793,0,0,1,7.693-1.764ZM227.538-2.06A62.834,62.834,0,0,1,234.893.792L233.28,4.269a58.992,58.992,0,0,0-6.9-2.689ZM94.77.366l1.551,3.5A58.979,58.979,0,0,0,89.754,7.3L87.778,4.019A62.809,62.809,0,0,1,94.77.366Zm147.041,4.19a62.794,62.794,0,0,1,6.4,4.6l-2.427,2.965a58.941,58.941,0,0,0-6.017-4.315ZM81.311,8.509l2.377,3a59,59,0,0,0-5.079,4.528l-.438.438-2.727-2.714.438-.438a62.844,62.844,0,0,1,5.429-4.816Zm172.621,5.967,5.416,5.416-2.7,2.7-5.416-5.416Zm-183.879,4.7,2.7,2.7L67.338,27.3l-2.714-2.714ZM264.814,25.3l5.379,5.416-2.7,2.7L262.075,28ZM59.22,30.024l2.7,2.7-5.416,5.416L53.791,35.4Zm216.4,6.117,5.416,5.416-2.7,2.7L272.92,38.78ZM48.4,40.819l2.7,2.7-5.416,5.416-2.7-2.652Zm238.055,6.117,5.416,5.416-2.727,2.689-5.416-5.416ZM37.53,51.639l2.7,2.7-5.416,5.416-2.7-2.7Zm259.732,6.117,5.454,5.416-2.752,2.7-5.4-5.416Zm-270.5,4.7,2.7,2.7-5.416,5.416-2.7-2.7Zm281.323,6.117,5.416,5.416-2.7,2.7L305.38,71.3Zm-292.155,4.7,2.7,2.7L16.015,78.6q-1.363,1.363-2.627,2.8l-2.877-2.5q1.338-1.526,2.789-2.977Zm302.925,6.379a62.794,62.794,0,0,1,4.716,6.329l-3.2,2.089a58.953,58.953,0,0,0-4.428-5.942ZM5.72,85.062,8.885,87.2a58.962,58.962,0,0,0-3.753,6.392L1.717,91.867a62.805,62.805,0,0,1,4-6.8Zm321.738,7.73a62.823,62.823,0,0,1,2.99,7.305l-3.628,1.251a59,59,0,0,0-2.8-6.855ZM-1.385,99.11l3.6,1.251a58.968,58.968,0,0,0-2.039,7.217l-3.753-.813a62.82,62.82,0,0,1,2.189-7.593ZM332.487,107.7a62.818,62.818,0,0,1,1.063,7.818l-3.815.275a58.966,58.966,0,0,0-1-7.343ZM-4.75,114.483-1,114.82q-.238,2.6-.238,5.241V122.3H-5v-2.214q0-2.764.25-5.541ZM329.9,123.239h3.828v7.655H329.9ZM-5,130.018h3.828v7.655H-5Zm334.9,8.656h3.828v7.68H329.9ZM-5,145.317h3.828v7.655H-5Zm334.9,8.656h3.828v7.655H329.9ZM-5,160.615h3.828v7.655H-5Zm334.9,8.656h3.828v7.655H329.9ZM-5,175.925h3.828v7.655H-5Zm334.9,8.656h3.828v7.655H329.9ZM-5,191.223h3.828v7.668H-5Zm334.9,8.656h3.828v7.655H329.9ZM-5,206.521h3.828v2.051c0,1.8.088,3.615.25,5.4l-3.753.35c-.175-1.9-.263-3.84-.263-5.767Zm334.547,8.431,3.753.413a62.8,62.8,0,0,1-1.351,7.768l-3.753-.888a58.957,58.957,0,0,0,1.351-7.28ZM.229,221.307a58.975,58.975,0,0,0,2.051,7.117l-3.6,1.251a62.82,62.82,0,0,1-2.189-7.58Zm325.891,8.031,3.577,1.351a62.819,62.819,0,0,1-3.24,7.192l-3.377-1.789a58.994,58.994,0,0,0,3.027-6.755ZM5.22,235.166a58.969,58.969,0,0,0,3.753,6.379L5.808,243.7a62.8,62.8,0,0,1-4.015-6.792Zm313.971,7.18,3.127,2.2a62.8,62.8,0,0,1-4.941,6.154l-2.827-2.577a58.96,58.96,0,0,0,4.641-5.729Zm-305.665,5q1.251,1.376,2.5,2.677l2.727,2.727-2.7,2.7-2.727-2.727q-1.388-1.388-2.677-2.852Zm295.733,6.117,2.7,2.7-5.416,5.4-2.7-2.639Zm-285.075,4.7,5.416,5.416-2.7,2.7-5.416-5.416Zm274.255,6.117,2.7,2.7-5.416,5.4-2.7-2.7ZM35,268.99l5.416,5.416-2.7,2.7L32.3,271.692Zm252.615,6.117,2.7,2.7-5.416,5.4-2.7-2.7Zm-241.795,4.7,5.416,5.416-2.7,2.7-5.416-5.416ZM276.8,285.926l2.7,2.7-5.416,5.4-2.7-2.7Zm-220.155,4.7,5.416,5.416-2.7,2.7-5.416-5.416Zm209.335,6.117,2.7,2.7-5.416,5.4-2.7-2.7Zm-198.514,4.7,5.416,5.416-2.7,2.7-5.416-5.416Zm187.719,6.267,2.7,2.7-5.429,5.416-2.677-2.727.388-.375Zm-176.874,4.7.325.325a58.99,58.99,0,0,0,5.216,4.628l-2.364,3a62.829,62.829,0,0,1-5.554-4.928l-.325-.325Zm165.866,5.541,2.314,3.04a62.813,62.813,0,0,1-6.567,4.366l-1.914-3.315a58.944,58.944,0,0,0,6.142-4.153ZM89.9,321.476a58.979,58.979,0,0,0,6.58,3.4l-1.539,3.5a62.827,62.827,0,0,1-7-3.628Zm141.449,3.753,1.489,3.527a62.829,62.829,0,0,1-7.505,2.589l-1.026-3.69a59.009,59.009,0,0,0,7.03-2.352Zm-127.915,2.164a58.929,58.929,0,0,0,7.218,1.651l-.613,3.753a62.793,62.793,0,0,1-7.693-1.764Zm113.68,1.8.55,3.753a62.772,62.772,0,0,1-7.856.65l-.075-3.828a58.978,58.978,0,0,0,7.368-.5Zm-99.095.588h7.58v3.828h-7.768Zm15.236,0h7.655v3.828H133.26Zm15.3,0h7.655v3.828h-7.655Zm15.3,0h7.655v3.828h-7.643Zm15.3,0h7.655v3.828h-7.643Zm15.3,0h7.655v3.828h-7.655Z" transform="translate(15.727 15.727)" fill="url(#linear-gradient)"/>
    <g id="Group_7099" data-name="Group 7099" transform="translate(51.702 53.026)">
      <g id="Group_7098" data-name="Group 7098" transform="translate(0)">
        <path id="Path_23783" data-name="Path 23783" d="M0,120H23.773V263.964H0Z" transform="translate(197.355 -42.873)" fill="url(#linear-gradient-2)"/>
        <path id="Path_23784" data-name="Path 23784" d="M-7930.454,9668.793l-110.554,220.435h22.047l110.955-220.815Z" transform="translate(8041.008 -9668.162)" fill="url(#linear-gradient-3)"/>
        <path id="Path_23785" data-name="Path 23785" d="M-8018.824,9668.473l88.25,220.773h-23.319s-70.831-165.336-87.434-220.436Z" transform="translate(8151.69 -9668.134)" fill="#f88136"/>
        <path id="Path_23786" data-name="Path 23786" d="M654,538.371s62.266-158.7,230.8-113.534c0,0-150.815-18.3-208.959,113.534Z" transform="translate(-653.95 -317.293)" fill="#f88136" stroke="rgba(0,0,0,0)" stroke-width="1"/>
        <g id="Group_7097" data-name="Group 7097" transform="translate(177.17)">
          <path id="Path_23787" data-name="Path 23787" d="M2.5,0A2.576,2.576,0,0,1,4.987,2.692V25.872a2.576,2.576,0,0,1-2.5,2.692A2.576,2.576,0,0,1,0,25.846V2.692A2.576,2.576,0,0,1,2.5,0Z" transform="translate(29.66)" fill="#3def65"/>
          <circle id="Ellipse_48" data-name="Ellipse 48" cx="8.706" cy="8.706" r="8.706" transform="translate(23.817 25.074)" fill="#3def65"/>
          <path id="Path_23788" data-name="Path 23788" d="M2.578.008A2.833,2.833,0,0,1,5.243,2.661l.8,22.06a2.382,2.382,0,0,1-2.576,2.473A2.833,2.833,0,0,1,.8,24.476l-.8-22A2.382,2.382,0,0,1,2.578.008Z" transform="translate(56.984 11.648) rotate(54)" fill="#3def65"/>
          <path id="Path_23789" data-name="Path 23789" d="M2.578,27.19a2.833,2.833,0,0,0,2.666-2.717l.8-22A2.382,2.382,0,0,0,3.518,0,2.833,2.833,0,0,0,.8,2.657L0,24.717A2.382,2.382,0,0,0,2.578,27.19Z" transform="translate(29.269 27.624) rotate(126.011)" fill="#3def65"/>
          <path id="Path_23790" data-name="Path 23790" d="M2.64,26.559a2.692,2.692,0,0,0,2.717-2.576L5.7,2.464A2.5,2.5,0,0,0,3.065,0,2.692,2.692,0,0,0,.348,2.58L0,24.1a2.5,2.5,0,0,0,2.64,2.46Z" transform="matrix(0.208, -0.978, 0.978, 0.208, 37.361, 37.526)" fill="#3def65"/>
          <path id="Path_23791" data-name="Path 23791" d="M2.466,28.114a2.8,2.8,0,0,0,2.576-2.73L5.762,2.576A2.408,2.408,0,0,0,3.3,0,2.8,2.8,0,0,0,.727,2.731L.006,25.538a2.408,2.408,0,0,0,2.46,2.576Z" transform="matrix(0.891, -0.454, 0.454, 0.891, 31.989, 39.396)" fill="#3def65"/>
          <path id="Path_23792" data-name="Path 23792" d="M2.64,0A2.692,2.692,0,0,1,5.357,2.58L5.7,24.1a2.5,2.5,0,0,1-2.64,2.46A2.692,2.692,0,0,1,.348,23.983L0,2.464A2.5,2.5,0,0,1,2.64,0Z" transform="translate(1.187 43.052) rotate(-102.007)" fill="#3def65"/>
          <path id="Path_23793" data-name="Path 23793" d="M2.466,0a2.8,2.8,0,0,1,2.576,2.73l.721,22.807A2.408,2.408,0,0,1,3.3,28.114a2.8,2.8,0,0,1-2.576-2.73L.006,2.576A2.408,2.408,0,0,1,2.466,0Z" transform="matrix(-0.891, -0.454, 0.454, -0.891, 20.229, 64.522)" fill="#3def65"/>
          <path id="Path_23794" data-name="Path 23794" d="M23.361,5.525A17.926,17.926,0,1,0,41.21,23.464,17.926,17.926,0,0,0,23.361,5.525m0-5.525A23.464,23.464,0,1,1,0,23.464,23.464,23.464,0,0,1,23.361,0Z" transform="translate(9.149 10.225)" fill="#3def65"/>
        </g>
      </g>
    </g>
  </g>
</svg>
