<svg xmlns="http://www.w3.org/2000/svg" xmlns:xlink="http://www.w3.org/1999/xlink" width="499.868" height="355.051" viewBox="0 0 499.868 355.051">
  <defs>
    <clipPath id="clip-path">
      <path id="Path_4354" data-name="Path 4354" d="M2101.225,1757.119l-2.926,1.688a6.61,6.61,0,0,0,1.238-.919l2.926-1.688A7.045,7.045,0,0,1,2101.225,1757.119Z" transform="translate(-2098.3 -1756.2)" fill="#1d2a4d"/>
    </clipPath>
    <clipPath id="clip-path-2">
      <path id="Path_4357" data-name="Path 4357" d="M1981.6,1559.063l2.926-1.688a7.654,7.654,0,0,1,1.557-.675l-2.925,1.688A5.759,5.759,0,0,0,1981.6,1559.063Z" transform="translate(-1981.6 -1556.7)" fill="#11845b"/>
    </clipPath>
  </defs>
  <g id="Capten-contact" transform="translate(-1070.083 -336.676)">
    <g id="web-development" transform="translate(1070.583 337.223)">
      <path id="Path_4185" data-name="Path 4185" d="M467.612,1056.472l-.019-6.888c-1.146,0-3.714.152-4.837.8a1.133,1.133,0,0,0-.491.476,6.891,6.891,0,0,1-.709.982c-.958.939,1.208,2.515,2.188,3.084l.006,1.979a17.052,17.052,0,0,1,3.862-.434Z" transform="translate(-338.725 -718.04)" fill="#fff" stroke="#ff9e2c" stroke-linecap="round" stroke-linejoin="round" stroke-width="1"/>
      <path id="Path_4078" data-name="Path 4078" d="M515.878,334.835a16.515,16.515,0,0,0-7.444-12.892l-49.587-28.627c-4.093-2.361-7.442-.429-7.442,4.3v47.309a16.507,16.507,0,0,0,7.442,12.892l49.587,28.628c4.094,2.364,7.444.432,7.444-4.294Z" transform="translate(-332.308 -227.755)" fill="#fff" stroke="#ff9e2c" stroke-width="1"/>
      <path id="Path_4079" data-name="Path 4079" d="M519.985,379.869V332.555a16.515,16.515,0,0,0-7.444-12.892l-49.587-28.627c-2.022-1.166-3.861-1.282-5.205-.534l1.949-1.133,0,.006c1.361-.871,3.274-.809,5.394.416l49.586,28.628a16.51,16.51,0,0,1,7.442,12.892v47.309c0,2.476-.924,4.174-2.383,4.9l-1.767,1.032c1.241-.82,2.01-2.429,2.01-4.681Z" transform="translate(-336.415 -225.475)" fill="#fff" stroke="#ff9e2c" stroke-width="1"/>
      <path id="Path_4080" data-name="Path 4080" d="M493.971,380.231v-3.9a4,4,0,0,0,1.546.536,1.1,1.1,0,0,0,.9-.463,2.958,2.958,0,0,0,.52-1.428,20.3,20.3,0,0,0,.113-2.646,22.811,22.811,0,0,1,.253-4.244,2.122,2.122,0,0,1,.913-1.468,2.719,2.719,0,0,1,1.926-.081,11.815,11.815,0,0,1,2.7,1.266l.745.43v3.879a7.825,7.825,0,0,0-2-.953.649.649,0,0,0-.653.239,2.555,2.555,0,0,0-.211,1.3q0,1.022-.127,3.806a8.67,8.67,0,0,1-.365,2.394,2.768,2.768,0,0,1-.752,1.213,2.888,2.888,0,0,1-1.4.54,11.841,11.841,0,0,1,1.356,2.073,9.963,9.963,0,0,1,.808,2.26,17.368,17.368,0,0,1,.366,3.035q.1,2.751.1,3.5a4.5,4.5,0,0,0,.225,1.623,3.339,3.339,0,0,0,.682,1.035,9.845,9.845,0,0,0,1.974,1.359v3.9l-.745-.43a16.67,16.67,0,0,1-2.909-2.029,8.972,8.972,0,0,1-1.708-2.147,7.882,7.882,0,0,1-.935-2.544,23.713,23.713,0,0,1-.239-3.9,22.719,22.719,0,0,0-.225-4.009,6.694,6.694,0,0,0-.934-2.4,6.523,6.523,0,0,0-1.919-1.749Zm32.412,18.713a4,4,0,0,0-1.546-.535,1.082,1.082,0,0,0-.893.466,3.134,3.134,0,0,0-.527,1.424,20.067,20.067,0,0,0-.112,2.629,23.693,23.693,0,0,1-.246,4.257,2.113,2.113,0,0,1-.906,1.481,2.736,2.736,0,0,1-1.94.073,11.8,11.8,0,0,1-2.7-1.266l-.745-.43v-3.9a7.121,7.121,0,0,0,1.968.917.7.7,0,0,0,.682-.239,2.434,2.434,0,0,0,.225-1.274q.007-.986.12-3.713a8.624,8.624,0,0,1,.379-2.483,2.784,2.784,0,0,1,.822-1.246,2.4,2.4,0,0,1,1.314-.483,14.051,14.051,0,0,1-1.518-2.4,11.454,11.454,0,0,1-.9-3.246q-.155-1.225-.225-5.128a6.141,6.141,0,0,0-.19-1.733,2.79,2.79,0,0,0-.632-.99,10.355,10.355,0,0,0-2.045-1.4V375.85l.745.43a17,17,0,0,1,2.91,2.02,8.661,8.661,0,0,1,1.7,2.143A8.16,8.16,0,0,1,523.06,383a23.13,23.13,0,0,1,.246,3.9,24.247,24.247,0,0,0,.211,4,6.648,6.648,0,0,0,.942,2.4,6.581,6.581,0,0,0,1.926,1.753Zm-22.377-15.239c0-1.022.717-1.436,1.6-.925a3.541,3.541,0,0,1,1.6,2.775c0,1.021-.717,1.436-1.6.925a3.541,3.541,0,0,1-1.6-2.775Zm5.592,3.228c0-1.021.717-1.436,1.6-.925a3.54,3.54,0,0,1,1.6,2.775c0,1.021-.717,1.435-1.6.925a3.541,3.541,0,0,1-1.6-2.775Z" transform="translate(-359.867 -275.733)" fill="#ff9e2c"/>
      <path id="Path_4083" data-name="Path 4083" d="M1066.649,326.984c0,2.892-2.049,4.074-4.553,2.629L909.167,241.318a10.094,10.094,0,0,1-4.553-7.884V118.082c0-2.891,2.047-4.074,4.553-2.628l152.93,88.294a10.1,10.1,0,0,1,4.553,7.886Z" transform="translate(-625.73 -112.854)" fill="#fff" stroke="#ff9e2c" stroke-width="1"/>
      <path id="Path_4084" data-name="Path 4084" d="M1068.237,198.124,915.3,109.829a3.171,3.171,0,0,0-3.245-.291v0l-3.271,1.9.009,0a3.276,3.276,0,0,1,3.072.38l152.93,88.294a10.1,10.1,0,0,1,4.553,7.886V323.343a3.205,3.205,0,0,1-1.32,2.929h0l3.268-1.9h-.009a3.091,3.091,0,0,0,1.5-3.016V206.009a10.1,10.1,0,0,0-4.552-7.885Z" transform="translate(-628.433 -109.214)" fill="#fff" stroke="#ff9e2c" stroke-width="1"/>
      <path id="Path_4085" data-name="Path 4085" d="M917.528,131.5V245.038l152.931,88.295V219.792Z" transform="translate(-634.091 -123.641)" fill="#fff" stroke="#ff9e2c" stroke-width="1"/>
      <path id="Path_4086" data-name="Path 4086" d="M756.15,615.2a10.1,10.1,0,0,1-9.1,0L594.113,526.909c-2.5-1.445-2.5-3.811,0-5.257l104.241-60.183a10.107,10.107,0,0,1,9.1,0l152.932,88.3c2.5,1.445,2.5,3.81,0,5.256Z" transform="translate(-423.487 -336.574)" fill="#fff" stroke="#ff9e2c" stroke-width="1"/>
      <path id="Path_4087" data-name="Path 4087" d="M809.339,487.081l-7.479-4.318L805.6,480.6l7.479,4.318Zm12.6,7.273-7.48-4.319,3.739-2.159,7.48,4.319Zm12.6,7.272-7.478-4.319,3.739-2.158,7.48,4.319Zm12.6,7.273-7.478-4.318,3.74-2.159,7.478,4.318Zm12.6,7.272-7.479-4.318,3.74-2.158,7.479,4.318Zm12.6,7.274-7.479-4.319,3.739-2.159,7.481,4.318Zm12.6,7.273-7.478-4.319,3.74-2.16,7.477,4.318Zm12.6,7.27-7.48-4.316,3.741-2.161,7.478,4.319Zm12.594,7.273-7.478-4.316,3.739-2.161,7.48,4.319Zm12.6,7.273-7.479-4.319,3.741-2.158,7.479,4.318Zm12.6,7.273-7.479-4.319,3.739-2.158,7.48,4.318Zm12.6,7.273-7.481-4.319,3.741-2.159,7.479,4.319ZM802.71,497.8l-13.447-7.763,7.479-4.318,13.446,7.764Zm-6.957,9.926L777.19,497.005l7.48-4.318,18.563,10.719Zm-7.48,10.227-23.681-13.673,7.479-4.318,23.679,13.673ZM762.8,520.842,749.35,513.08l10.125-5.846L772.922,515Zm18.563,10.719L767.913,523.8l10.125-5.846,13.448,7.763Zm18.564,10.717-13.446-7.762,10.126-5.848,13.446,7.765Zm64.007,36.956-13.445-7.766,10.125-5.845,13.449,7.764ZM895.39,597.4l-26.373-15.228,10.125-5.845,26.373,15.226ZM845.4,568.533l-40.355-23.3,10.125-5.845,40.357,23.3Zm-26.564-61.427-11-6.353,7.478-4.319,11.005,6.353Zm-6.956,9.924-11.006-6.353,7.48-4.319,11,6.353ZM804.74,527.06l-11-6.353,7.48-4.317,11,6.353-7.48,4.318Zm16.123,9.307-11-6.353,7.479-4.319,11,6.355Zm16.12,9.307-11-6.353,7.479-4.317,11,6.353Zm16.125,9.31-11-6.353,7.478-4.32,11,6.354-7.478,4.319Zm16.119,9.307-11-6.355,7.478-4.318,11,6.355Zm16.123,9.307-11-6.353,7.478-4.32,11,6.354-7.48,4.319Zm25.632,14.8-20.514-11.844,7.478-4.318,20.514,11.844ZM828,526.338l-11-6.352,7.48-4.319,11,6.353Zm16.123,9.309-11-6.355,7.48-4.318,11,6.355Zm16.119,9.309-11-6.353,7.48-4.32,11,6.354Zm16.123,9.307-11-6.353,7.48-4.319,11,6.353Zm16.123,9.309-11.006-6.355,7.481-4.319,11,6.355Zm30.747,17.752-25.631-14.8,7.48-4.318L930.714,577Zm-88.28-64.909-11-6.353,7.48-4.318,11,6.353Zm16.124,9.307-11-6.353,7.479-4.317,11,6.351Zm16.119,9.307-11-6.353,7.478-4.315,11,6.352Zm16.119,9.31-11-6.354,7.479-4.319,11,6.354Zm16.123,9.306-11-6.353,7.478-4.316,11.006,6.351Zm16.123,9.308-11-6.353,7.478-4.318,11,6.353Zm19.744,11.4-14.627-8.445,7.479-4.318,14.626,8.445Z" transform="translate(-525.207 -349.664)" fill="#ff9e2c"/>
      <path id="Path_4088" data-name="Path 4088" d="M1075.1,561.593l-120.85-69.772,3.631-2.1L1078.727,559.5l-3.63,2.095Z" transform="translate(-657.865 -355.569)" fill="#ff9e2c"/>
      <path id="Path_4089" data-name="Path 4089" d="M838.158,690.189,776.49,654.584,738.17,676.709l61.668,35.6Z" transform="translate(-517.969 -462.304)" fill="#fff" stroke="#ff9e2c" stroke-width="1"/>
      <path id="Path_4090" data-name="Path 4090" d="M860.387,672.521,756.147,732.7a10.225,10.225,0,0,1-7.382.706c-.017-.006-1.494-.575-1.723-.706L594.111,644.41a5.574,5.574,0,0,1-.483-.315.184.184,0,0,0-.023-.018c-.041-.031-.075-.061-.113-.091q-.131-.1-.253-.212c-.041-.036-.079-.074-.116-.112a3.579,3.579,0,0,1-.262-.285l-.032-.036-.018-.023a3.207,3.207,0,0,1-.237-.353,2.363,2.363,0,0,1-.333-1.092h-.008v2.2h.018a3.153,3.153,0,0,0,1.86,2.655l152.932,88.295c3.65,1.81,8.862,1.457,10.415,1.117s2.946-.729,4.573-1.084l98.357-56.786a3.165,3.165,0,0,0,1.873-2.662v-5.691a3.2,3.2,0,0,1-1.873,2.6Z" transform="translate(-423.484 -454.075)" fill="#fff" stroke="#ff9e2c" stroke-width="1"/>
      <path id="Path_4091" data-name="Path 4091" d="M1070.877,240.664l-28.16-16.258-109.9-63.451c-1.736-1-3.157-.182-3.156,1.823v10.913a7,7,0,0,0,3.156,5.468l109.9,63.451,28.159,16.258c1.736,1,3.157.183,3.157-1.821V246.132a7.005,7.005,0,0,0-3.157-5.468Z" transform="translate(-641.946 -142.436)" fill="#fff" stroke="#ff9e2c" stroke-width="1"/>
      <g id="Group_552" data-name="Group 552" transform="translate(141.071 132.727)">
        <path id="Path_4117" data-name="Path 4117" d="M625.4,558.086a14.5,14.5,0,0,0-6.535-11.319l-98.6-56.926c-3.594-2.075-6.535-.377-6.535,3.773v85.826a14.5,14.5,0,0,0,6.536,11.319l98.6,56.926c3.594,2.075,6.535.377,6.535-3.773Z" transform="translate(-513.728 -487.798)" fill="#fff" stroke="#ff9e2c" stroke-width="1"/>
        <path id="Path_4118" data-name="Path 4118" d="M629,641.787V555.961a14.5,14.5,0,0,0-6.535-11.32l-98.6-56.925c-1.776-1.026-3.391-1.126-4.572-.469l1.843-1.064,0,.007c1.193-.766,2.875-.71,4.736.365l98.6,56.925a14.5,14.5,0,0,1,6.535,11.32v85.826c0,2.172-.81,3.663-2.093,4.3l-1.681.971A4.682,4.682,0,0,0,629,641.786Z" transform="translate(-517.334 -485.673)" fill="#fff" stroke="#ff9e2c" stroke-width="1"/>
        <path id="Path_8003" data-name="Path 8003" d="M574.456,589.667l-1.934-2.093-11.687,24.072,1.933,2.094Zm1.567,25.891,9.444-4.584-9.444-15.489-1.43.968,7.757,12.721-7.757,3.765ZM558.076,605.2l1.43-.967-7.757-12.723,7.757-3.764-1.43-2.62-9.444,4.584Z" transform="translate(-536.913 -549.745)" fill="#ff9e2c"/>
        <g id="Group_551" data-name="Group 551" transform="translate(53.955 41.397)">
          <path id="Path_7939" data-name="Path 7939" d="M681.5,612.887l-13.627-7.867v-2.9l13.627,7.867Z" transform="translate(-667.878 -602.115)" fill="#ff9e2c"/>
          <path id="Path_7940" data-name="Path 7940" d="M674.446,656.47l-6.568-3.793v2.905l6.568,3.792Z" transform="translate(-667.878 -634.768)" fill="#ff9e2c"/>
          <path id="Path_7941" data-name="Path 7941" d="M748.2,651.394l-35.339-20.4v-2.9l35.339,20.4v2.905Z" transform="translate(-696.928 -618.887)" fill="#ff9e2c"/>
          <path id="Path_7942" data-name="Path 7942" d="M724.029,654.065l-35.339-20.4v-2.9l35.339,20.4Z" transform="translate(-681.318 -620.613)" fill="#ff9e2c"/>
          <path id="Path_7943" data-name="Path 7943" d="M713.6,664.672l-32.7-18.882v-2.9l32.7,18.881Z" transform="translate(-676.287 -628.445)" fill="#ff9e2c"/>
          <path id="Path_7944" data-name="Path 7944" d="M685.132,682.853l-17.254-9.962v-2.9l17.254,9.962Z" transform="translate(-667.878 -645.947)" fill="#ff9e2c"/>
          <path id="Path_7945" data-name="Path 7945" d="M754.813,723.084,723.1,704.776v-2.9l31.711,18.308Z" transform="translate(-703.542 -666.538)" fill="#ff9e2c"/>
          <path id="Path_7946" data-name="Path 7946" d="M674.948,696.161l-7.07-4.082v-2.9l7.07,4.082Zm44.2,25.52-41.9-24.189v-2.9l41.9,24.188v2.905ZM681.5,706.742l-13.627-7.867v-2.9l13.627,7.867Z" transform="translate(-667.878 -658.338)" fill="#ff9e2c"/>
          <path id="Path_7947" data-name="Path 7947" d="M748.2,757.639l-35.339-20.4v-2.9l35.339,20.4Z" transform="translate(-696.928 -687.502)" fill="#ff9e2c"/>
          <path id="Path_7948" data-name="Path 7948" d="M724.029,763.5,688.69,743.1v-2.9l35.339,20.4Z" transform="translate(-681.318 -691.289)" fill="#ff9e2c"/>
          <path id="Path_7949" data-name="Path 7949" d="M741.059,789.963l-34.71-20.04v-2.9l34.71,20.039Z" transform="translate(-692.723 -708.611)" fill="#ff9e2c"/>
        </g>
      </g>
      <path id="Path_4095" data-name="Path 4095" d="M983.918,341.483l-49.9-28.812V239.213l49.9,28.812Zm91.033,12.755-86.559-49.975V270.609l86.559,49.975Zm0,39.44L988.392,343.7V308.944l86.559,49.975Z" transform="translate(-644.765 -193.379)" fill="#fff" stroke="#ff9e2c" stroke-width="1"/>
      <path id="Path_4097" data-name="Path 4097" d="M1121.916,393.771l-14.411-8.32V382.63l14.411,8.32Zm45.689,26.378-39.37-22.731V394.6l39.37,22.731Zm-51.895,5.251-8.206-4.737v-2.821l8.206,4.737Zm51.895,29.961-45.576-26.313v-2.821l45.576,26.313Zm-41.733-14.4-18.366-10.6v-2.82l18.366,10.6Zm41.733,24.1-35.416-20.447v-2.82l35.416,20.447Z" transform="translate(-757.089 -286.232)" fill="#ff9e2c"/>
      <path id="Path_4098" data-name="Path 4098" d="M1012.574,225.248l-.989-.571,1.568,6.142,1.091.63,1.074-2.963,1.074,4.2,1.091.63,1.568-4.331-.989-.571-1.125,3.307-1.125-4.606-.989-.571-1.125,3.307Zm-7.774-4.488-.988-.571,1.568,6.142,1.091.63,1.074-2.963,1.074,4.2,1.091.63,1.569-4.331-.989-.571-1.125,3.307-1.125-4.606-.989-.571-1.125,3.307Zm-7.774-4.488-.989-.571,1.568,6.142,1.091.63,1.075-2.962,1.073,4.2,1.091.63,1.569-4.331-.989-.571-1.125,3.307-1.125-4.606-.989-.571-1.125,3.307Zm21.7,16.962a1.415,1.415,0,0,0,.639,1.107.424.424,0,0,0,.447.042.446.446,0,0,0,.183-.416,1.38,1.38,0,0,0-.631-1.092.446.446,0,0,0-.451-.049A.424.424,0,0,0,1018.73,233.233Z" transform="translate(-699.917 -187.047)" fill="#ff9e2c"/>
      <path id="Path_4135" data-name="Path 4135" d="M510.822,914.406c0-3.736,2.368-3.844,2.368-3.844a9.777,9.777,0,0,0,3.364-.864c2.055-.854,4.951-.524,3.333,2.461a.766.766,0,0,1-.056.11,1.457,1.457,0,0,1-.525.461l-5.173,3.034c-.789.451-3.293-.59-3.311-1.359Z" transform="translate(-370.776 -627.209)" fill="#ff9e2c"/>
      <path id="Path_4136" data-name="Path 4136" d="M510.846,918.768c.046.767,2.515,1.788,3.3,1.341l5.173-3.034a4.733,4.733,0,0,0,.729-.531c-.047.1-.088.2-.148.313a.756.756,0,0,1-.056.11,1.457,1.457,0,0,1-.525.461l-5.173,3.035c-.738.422-2.982-.465-3.279-1.211a.874.874,0,0,1-.024-.152A2.545,2.545,0,0,1,510.846,918.768Z" transform="translate(-370.787 -631.906)" fill="#ff9e2c"/>
      <path id="Path_4137" data-name="Path 4137" d="M513.281,911.507a21.68,21.68,0,0,1,2.756.545,1.213,1.213,0,0,0,.192.556c.022.024.04.048.06.073.423.294.854.76-.151,1.391a1.394,1.394,0,0,1-1.809-.128,1.644,1.644,0,0,0-.583-.663,1.508,1.508,0,0,0-.56-.236.316.316,0,0,0-.005-.051S513.025,911.507,513.281,911.507Z" transform="translate(-372.273 -628.645)" fill="#fff"/>
      <path id="Path_4138" data-name="Path 4138" d="M512.689,807.9l10.523.188c-.871,7.031-2.622,13.418-3.792,20.227-1.255,6.618-2.67,11.267-3.905,16.776-.451,1.026-2.52.637-2.94-.35-.327-5.072-.7-11.251.8-17.1C513.123,821.332,512.541,814.271,512.689,807.9Z" transform="translate(-371.72 -561.567)" fill="#ff9e2c"/>
      <path id="Path_4139" data-name="Path 4139" d="M544.267,933.875c0-3.736,2.368-3.843,2.368-3.843a9.779,9.779,0,0,0,3.365-.865c2.054-.854,4.951-.524,3.332,2.462a.771.771,0,0,1-.056.11,1.451,1.451,0,0,1-.525.461l-5.173,3.035C546.79,935.685,544.285,934.644,544.267,933.875Z" transform="translate(-392.43 -639.814)" fill="#ff9e2c"/>
      <path id="Path_4140" data-name="Path 4140" d="M544.293,938.237c.044.767,2.515,1.788,3.3,1.341l5.173-3.034a4.81,4.81,0,0,0,.73-.532c-.048.1-.089.2-.15.313a.757.757,0,0,1-.056.11,1.452,1.452,0,0,1-.525.46l-5.173,3.034c-.737.422-2.982-.464-3.279-1.211a.775.775,0,0,1-.023-.152A2.374,2.374,0,0,1,544.293,938.237Z" transform="translate(-392.441 -644.511)" fill="#ff9e2c"/>
      <path id="Path_4141" data-name="Path 4141" d="M546.728,930.976a21.721,21.721,0,0,1,2.756.545,1.2,1.2,0,0,0,.19.556c.022.024.041.048.06.073.424.294.855.76-.149,1.391a1.393,1.393,0,0,1-1.809-.129,1.657,1.657,0,0,0-.584-.663,1.506,1.506,0,0,0-.559-.236.287.287,0,0,0-.006-.051S546.472,930.976,546.728,930.976Z" transform="translate(-393.928 -641.25)" fill="#fff"/>
      <path id="Path_4142" data-name="Path 4142" d="M520.622,827.229c-.64-3.022-8.015-3.4-7.531-15.282,2.314-.34,13.989,5.135,16.3,4.794.29,7.079-.395,13.666-.438,20.574-.157,6.734-.794,11.552-1.113,17.188-.279,1.086-2.382,1.04-2.958.136-1.151-4.951-2.531-10.986-2-17-.689-3.334-1.509-6.867-2.259-10.406Z" transform="translate(-372.231 -564.176)" fill="#ff9e2c"/>
      <path id="Path_4143" data-name="Path 4143" d="M514.7,746.518c-8.236,5.5-9.217,16.432-4.765,23.368C509.94,769.886,508.983,754.519,514.7,746.518Z" transform="translate(-368.507 -521.825)" fill="#ff9e2c"/>
      <path id="Path_4144" data-name="Path 4144" d="M517.873,774.146c5.013,2.813,10.258,2.819,12.047-.639-.669-6.439-1.3-11.68-.005-17.851-.381-3.408-1.15-5.479-.714-7.468-2.758-.377-5.133-4.613-6.733-4.938-6.855-1.4-10.185,10.815-9.611,23.837a9.482,9.482,0,0,0,5.017,7.059Z" transform="translate(-372.052 -519.638)" fill="#fff" stroke="#ff9e2c" stroke-width="0.5"/>
      <path id="Path_4145" data-name="Path 4145" d="M529.03,724.772c1.325-1.05,1.287-2.32,1.064-3.782a7.274,7.274,0,0,1-.447-2.524c0-3.257,2.074-6.071,4.616-5.9,5.122.352,4.211,3.047,4.211,6.3,0,3.017-1.369,5.093-3.657,5.444,0,.5-.437,1.03.864,2.155-1.8.425-4.186-.465-5.15-.9C529.5,725.106,528.63,724.822,529.03,724.772Z" transform="translate(-382.437 -499.841)" fill="#fff" stroke="#ff9e2c" stroke-width="0.3"/>
      <path id="Path_4146" data-name="Path 4146" d="M549.605,734.642c7.906-1.478,12.891-7.273,16.1-12.952l2.95,1.262c-1.63,7.3-7.407,17.26-17.778,19.139-5.245,0-4.833-6.783-1.269-7.45Z" transform="translate(-394.153 -505.728)" fill="#ff9e2c"/>
      <path id="Path_4147" data-name="Path 4147" d="M600.946,707.333l-.01.03c0-1.325.278-2.1.788-2.321.11-.317.226-.647.338-.962.66-1.848,2.729-3.432,3.168-2.993.265.266-.787,1.079-1.342,1.959a3.13,3.13,0,0,0-.462,1.386s2.475.231,2.475,2.288c0,1.672-.9,1.012-.9.682-.638,1.694-1.4.693-1.691,2.073l-2.678-1.185s.126-.383.316-.956Z" transform="translate(-428.921 -492.363)" fill="#fff" stroke="#ff9e2c" stroke-width="0.3"/>
      <path id="Path_4148" data-name="Path 4148" d="M531.271,708.208c.661-.341,1.256-.165,1.624-.4.874-.535,1.7-.876,2.167-.622a5.013,5.013,0,0,1,.65.518c.456.455,1.39-.514,1.614.661a4.421,4.421,0,0,1,.078.914c2.187.281,1.111,2.273-.648,6.11,0-.623-1.326-2.063-1.326.705,0,.3.223.356.027.751a25.567,25.567,0,0,1-2.282,2.215c-1.157,1.157-1.837.12-3.75.328a3.055,3.055,0,0,0-.5-1.745,5.1,5.1,0,0,1-1.234-3.152c1.485.183-1.155-3.843,3.582-6.284Z" transform="translate(-381.696 -496.305)" fill="#ff9e2c"/>
      <path id="Path_4149" data-name="Path 4149" d="M712.426,226.734v32.15L684.584,274.96c0-17.756,12.465-39.348,27.842-48.226Z" transform="translate(-483.276 -185.3)" fill="#807dfb"/>
      <path id="Path_4150" data-name="Path 4150" d="M697.516,218.126l19.034,10.99-27.276,48.552-19.6-11.316C669.673,248.595,682.138,227,697.516,218.126Z" transform="translate(-473.622 -179.727)" fill="#fff" stroke="#ff9e2c" stroke-linecap="round" stroke-linejoin="round" stroke-width="1"/>
      <path id="Path_4151" data-name="Path 4151" d="M712.426,226.734v32.15L684.584,274.96c0-17.756,12.465-39.348,27.842-48.226Z" transform="translate(-483.276 -185.3)" fill="#fff" stroke="#ff9e2c" stroke-linecap="round" stroke-linejoin="round" stroke-width="1"/>
      <path id="Path_4152" data-name="Path 4152" d="M684.583,334l27.843-16.076L687.773,347.1C685.739,343.8,684.583,339.392,684.583,334Z" transform="translate(-483.275 -244.338)" fill="#fff" stroke="#ff9e2c" stroke-linecap="round" stroke-linejoin="round" stroke-width="1"/>
      <path id="Path_4153" data-name="Path 4153" d="M718.283,251.9v-32.15c15.378-8.878,27.843-1.681,27.843,16.075s-12.465,39.347-27.843,48.225c-10.705,6.181-19.994,4.563-24.653-2.976Z" transform="translate(-489.132 -178.317)" fill="#fff" stroke="#ff9e2c" stroke-linecap="round" stroke-linejoin="round" stroke-width="1"/>
      <path id="Path_4154" data-name="Path 4154" d="M748.644,211.147c7.734-4.465,14.73-4.861,19.775-1.9l4.906,2.833,0,.008c-5.017-2.746-11.865-2.273-19.421,2.09l-5.257-3.035Z" transform="translate(-524.75 -172.748)" fill="#fff" stroke="#ff9e2c" stroke-linecap="round" stroke-linejoin="round" stroke-width="1"/>
      <path id="Path_4155" data-name="Path 4155" d="M683.188,396.672a14.348,14.348,0,0,1-4.468-4.612l5.257,3.035a14.346,14.346,0,0,0,4.469,4.612Z" transform="translate(-479.479 -292.338)" fill="#fff" stroke="#ff9e2c" stroke-linecap="round" stroke-linejoin="round" stroke-width="1"/>
      <path id="Path_4156" data-name="Path 4156" d="M672.863,368.008c-2.034-3.291-3.19-7.7-3.19-13.1l5.257,3.035h0c0,5.394,1.156,9.807,3.19,13.1Z" transform="translate(-473.622 -268.286)" fill="#fff" stroke="#ff9e2c" stroke-linecap="round" stroke-linejoin="round" stroke-width="1"/>
      <path id="Path_4175" data-name="Path 4175" d="M390.589,1030.274c0-.917-1.618-2.071-2.427-2.541l.02,6.888c.807.47,2.424,1.624,2.426,2.541Z" transform="translate(-291.362 -703.893)" fill="#fff" stroke="#ff9e2c" stroke-linecap="round" stroke-linejoin="round" stroke-width="1"/>
      <path id="Path_4176" data-name="Path 4176" d="M463.921,1034.621l-.02-6.888c-.817.472-2.458,1.636-2.455,2.554l.019,6.888C461.463,1036.256,463.1,1035.093,463.921,1034.621Z" transform="translate(-338.809 -703.893)" fill="#fff" stroke="#ff9e2c" stroke-linecap="round" stroke-linejoin="round" stroke-width="1"/>
      <path id="Path_4177" data-name="Path 4177" d="M409.846,1042.487a11.249,11.249,0,0,1,10.217,0,3.593,3.593,0,0,1,2.1,2.939l-.021-6.889a3.594,3.594,0,0,0-2.1-2.939,11.258,11.258,0,0,0-10.217,0,3.615,3.615,0,0,0-2.131,2.978l.018,6.888A3.615,3.615,0,0,1,409.846,1042.487Z" transform="translate(-304.009 -708.191)" fill="#fff" stroke="#ff9e2c" stroke-width="1"/>
      <path id="Path_4178" data-name="Path 4178" d="M390.829,1066.414l-2.872-1.67.019,6.888,2.873,1.671Z" transform="translate(-291.23 -727.855)" fill="#fff" stroke="#ff9e2c" stroke-linecap="round" stroke-linejoin="round" stroke-width="1"/>
      <path id="Path_4179" data-name="Path 4179" d="M462.91,1071.631l-.02-6.888-2.893,1.67.02,6.889Z" transform="translate(-337.871 -727.855)" fill="#fff" stroke="#ff9e2c" stroke-linecap="round" stroke-linejoin="round" stroke-width="1"/>
      <path id="Path_4180" data-name="Path 4180" d="M401.455,1072.49c.549.158,1.115.294,1.692.406,1.8.27,2.185,2.23,2.187,3.053l-.019-6.889c0-.824-.391-2.782-2.188-3.052q-.855-.167-1.692-.407c-1.62-.551-4.345.707-5.331,1.276l.02,6.889C397.109,1073.2,399.836,1071.938,401.455,1072.49Z" transform="translate(-296.504 -728.322)" fill="#fff" stroke="#ff9e2c" stroke-linecap="round" stroke-linejoin="round" stroke-width="1"/>
      <path id="Path_4181" data-name="Path 4181" d="M435.215,1073.182a2.29,2.29,0,0,1,.819-.279q.855-.167,1.693-.406c1.629-.553,4.34.706,5.32,1.276l-.02-6.889c-.979-.57-3.691-1.828-5.319-1.275q-.838.238-1.693.405a2.309,2.309,0,0,0-.82.279,3.562,3.562,0,0,0-1.409,2.8l.02,6.887a3.557,3.557,0,0,1,1.409-2.8Z" transform="translate(-320.901 -728.326)" fill="#fff" stroke="#ff9e2c" stroke-linecap="round" stroke-linejoin="round" stroke-width="1"/>
      <path id="Path_4183" data-name="Path 4183" d="M381,1054.927c.985-.569,3.17-2.145,2.221-3.084a6.587,6.587,0,0,1-.7-.981c-.465-1.056-3.926-1.278-5.313-1.278l.019,6.888a17.3,17.3,0,0,1,3.774.406Z" transform="translate(-284.272 -718.04)" fill="#fff" stroke="#ff9e2c" stroke-linecap="round" stroke-linejoin="round" stroke-width="1"/>
      <path id="Path_4184" data-name="Path 4184" d="M426.323,1082.643l-.02-6.887h-4.075l.02,6.888Z" transform="translate(-313.418 -734.985)" fill="#fff6eb" stroke="#ff9e2c" stroke-linecap="round" stroke-linejoin="round" stroke-width="1"/>
      <g id="Group_426" data-name="Group 426" transform="translate(0 118.167)">
        <path id="Path_3989" data-name="Path 3989" d="M175.25,197.56l-.05,16.9c0,1.2-.8,2.392-2.363,3.309l-33.72,19.6a12.726,12.726,0,0,1-11.517.011l-33.945-19.6c-1.609-.926-2.413-2.149-2.4-3.359l.041-16.9c0,1.221.8,2.434,2.413,3.359l33.933,19.6a12.719,12.719,0,0,0,11.517-.009l33.72-19.6C174.455,199.964,175.25,198.761,175.25,197.56Z" transform="translate(-91.249 -118.442)" fill="#fff" stroke="#ff9e2c" stroke-width="1"/>
        <path id="Path_3990" data-name="Path 3990" d="M172.824,207.9c3.185,1.84,3.2,4.828.032,6.671l-33.72,19.6a12.7,12.7,0,0,1-11.517,0l-33.942-19.6c-3.192-1.842-3.21-4.831-.037-6.675l33.72-19.6a12.7,12.7,0,0,1,11.524,0Z" transform="translate(-91.224 -132.134)" fill="#fff" stroke="#ff9e2c" stroke-width="1"/>
        <path id="Path_3991" data-name="Path 3991" d="M169.429,189.467l-.046,15.638a3.68,3.68,0,0,1-2.154,3.016L136.5,225.978a11.593,11.593,0,0,1-10.5.009L95.066,208.129a3.7,3.7,0,0,1-2.191-3.064l.037-15.638a3.723,3.723,0,0,0,2.2,3.064l30.927,17.867a11.592,11.592,0,0,0,10.5-.009l30.73-17.858A3.686,3.686,0,0,0,169.429,189.467Z" transform="translate(-89.151 -128.894)" fill="#fff" stroke="#ff9e2c" stroke-width="1"/>
        <path id="Path_3992" data-name="Path 3992" d="M175.25,185.607l-.05,16.9c0,1.2-.8,2.392-2.363,3.309l-33.72,19.6a12.726,12.726,0,0,1-11.517.011l-33.945-19.6c-1.609-.926-2.413-2.149-2.4-3.362l.041-16.9c0,1.221.8,2.434,2.413,3.362l33.933,19.6a12.719,12.719,0,0,0,11.517-.009l33.72-19.6C174.455,188.009,175.25,186.808,175.25,185.607Z" transform="translate(-91.249 -133.882)" fill="#fff" stroke="#ff9e2c" stroke-width="1"/>
        <path id="Path_3993" data-name="Path 3993" d="M172.824,195.945c3.185,1.84,3.2,4.828.032,6.671l-33.72,19.6a12.7,12.7,0,0,1-11.517,0l-33.942-19.6c-3.192-1.842-3.21-4.831-.037-6.675l33.72-19.6a12.7,12.7,0,0,1,11.524,0Z" transform="translate(-91.224 -147.573)" fill="#fff" stroke="#ff9e2c" stroke-width="1"/>
        <g id="Group_424" data-name="Group 424">
          <path id="Path_3994" data-name="Path 3994" d="M169.429,177.513l-.046,15.638a3.68,3.68,0,0,1-2.154,3.016L136.5,214.024a11.592,11.592,0,0,1-10.5.009L95.066,196.175a3.7,3.7,0,0,1-2.191-3.064l.037-15.638a3.717,3.717,0,0,0,2.2,3.061L126.038,198.4a11.592,11.592,0,0,0,10.5-.009l30.73-17.858A3.68,3.68,0,0,0,169.429,177.513Z" transform="translate(-89.151 -144.334)" fill="#fff" stroke="#ff9e2c" stroke-width="1"/>
          <path id="Path_3995" data-name="Path 3995" d="M175.251,173.652l-.05,16.9c0,1.2-.8,2.395-2.363,3.309l-33.722,19.6a12.726,12.726,0,0,1-11.517.011l-33.945-19.6c-1.609-.926-2.413-2.15-2.4-3.362l.041-16.9c0,1.221.8,2.434,2.413,3.359l33.933,19.6a12.719,12.719,0,0,0,11.517-.009l33.72-19.6C174.456,176.056,175.251,174.855,175.251,173.652Z" transform="translate(-91.25 -149.323)" fill="#fff" stroke="#ff9e2c" stroke-width="1"/>
          <path id="Path_3996" data-name="Path 3996" d="M172.824,183.991c3.185,1.84,3.2,4.828.032,6.671l-33.72,19.6a12.7,12.7,0,0,1-11.517,0l-33.942-19.6c-3.192-1.842-3.21-4.831-.037-6.675l33.72-19.6a12.7,12.7,0,0,1,11.524,0Z" transform="translate(-91.224 -163.012)" fill="#fff" stroke="#ff9e2c" stroke-width="1"/>
        </g>
        <g id="Group_425" data-name="Group 425" transform="translate(15.624 6.112)">
          <path id="Path_3997" data-name="Path 3997" d="M150.819,172.36l-.032,2.844a2.54,2.54,0,0,1-1.483,2.078l-21.176,12.306a7.993,7.993,0,0,1-7.234.007L99.578,177.289a2.555,2.555,0,0,1-1.51-2.111l.025-2.844a2.566,2.566,0,0,0,1.515,2.111l21.309,12.31a7.993,7.993,0,0,0,7.234-.007l21.176-12.306A2.537,2.537,0,0,0,150.819,172.36Z" transform="translate(-98.068 -157.083)" fill="#fff" stroke="#ff9e2c" stroke-width="1"/>
          <path id="Path_3998" data-name="Path 3998" d="M149.3,178.853c2,1.155,2.012,3.032.018,4.189l-21.176,12.306a7.974,7.974,0,0,1-7.232,0L99.592,183.044c-2.005-1.157-2.017-3.034-.023-4.191l21.176-12.306a7.976,7.976,0,0,1,7.237,0Z" transform="translate(-98.052 -165.679)" fill="#fff" stroke="#ff9e2c" stroke-width="1"/>
        </g>
      </g>
      <g id="Group_489" data-name="Group 489" transform="translate(297.595 76.502)">
        <path id="Path_4352" data-name="Path 4352" d="M2018.4,1638.2l2.926-1.688a3.762,3.762,0,0,1-.394.188c-.019,0-.038.019-.056.019-.131.038-.244.075-.375.113-.019,0-.056.019-.075.019a3.688,3.688,0,0,1-.45.056h-.6a4.711,4.711,0,0,1-.506-.075.069.069,0,0,1-.056-.019c-.169-.037-.356-.094-.525-.15-.019,0-.019,0-.038-.019a3.547,3.547,0,0,1-.563-.225c-.019,0-.019-.019-.037-.019-.187-.094-.394-.187-.6-.3a6.486,6.486,0,0,1-.6-.375c-.019,0-.019-.019-.038-.019a5.885,5.885,0,0,1-.544-.413l-.057-.056-.506-.45-.056-.056c-.169-.169-.338-.319-.506-.506l-.037-.038c-.169-.188-.338-.375-.506-.581h0c-.169-.206-.338-.413-.488-.619h0a6.743,6.743,0,0,1-.413-.6c-.075-.131-.169-.263-.244-.375s-.131-.225-.206-.319a1.056,1.056,0,0,0-.094-.15c-.113-.187-.206-.375-.3-.563-.019-.019-.019-.037-.037-.056-.113-.225-.225-.469-.319-.694,0-.019-.019-.019-.019-.037-.094-.225-.187-.469-.281-.694a.066.066,0,0,0-.019-.037c-.094-.244-.169-.469-.244-.713,0-.019,0-.038-.019-.038-.075-.225-.131-.45-.187-.694,0-.019-.019-.037-.019-.056-.056-.244-.094-.469-.131-.713v-.019c-.038-.244-.056-.469-.094-.713v-.056a4.28,4.28,0,0,1-.019-.694c0-.225.019-.45.038-.656v-.056c.019-.187.037-.375.075-.562,0-.019.019-.056.019-.075a4.99,4.99,0,0,1,.131-.506c.019-.037.019-.056.038-.094.056-.15.112-.3.169-.431,0-.019.019-.037.019-.056a3.219,3.219,0,0,1,.244-.431c.019-.019.019-.037.037-.056.075-.112.15-.206.225-.3.037-.037.056-.075.094-.094l.225-.225c.038-.019.056-.056.094-.075a2.4,2.4,0,0,1,.356-.244l-2.926,1.688a3.919,3.919,0,0,0-.356.244c-.038.019-.056.056-.094.075l-.225.225c-.037.037-.056.075-.093.094a3.062,3.062,0,0,0-.225.3c-.019.019-.019.037-.038.056v.019c-.075.131-.15.263-.225.413v.019a.069.069,0,0,0-.019.056l-.112.281c-.019.056-.038.094-.056.15-.019.037-.019.056-.037.094,0,.019-.019.056-.019.075a1.749,1.749,0,0,0-.075.3c0,.037-.019.075-.019.113,0,.019-.019.056-.019.075,0,.037-.019.075-.019.113a1.445,1.445,0,0,0-.038.281c0,.056-.019.112-.019.169v.131c0,.094-.019.188-.019.281v.6a1.409,1.409,0,0,0,.019.281.321.321,0,0,0,.019.131v.15a1.867,1.867,0,0,0,.038.3c.019.094.019.206.037.3h0v.019l.056.281c.019.112.038.206.056.319,0,.037.019.075.019.113,0,.019.019.038.019.056.019.038.019.094.038.131.019.113.056.206.075.319a1.067,1.067,0,0,0,.075.225c0,.019,0,.037.019.037,0,.019,0,.019.019.037.037.112.056.206.094.319.037.094.075.206.112.3,0,.019.019.037.019.056a.065.065,0,0,0,.019.037c.019.056.056.131.075.188.038.094.075.188.112.3.037.075.056.131.094.206,0,.019.019.019.019.038s.019.019.019.037c.038.094.094.188.131.281.056.112.094.206.15.319,0,.019.019.038.019.056.019.019.019.037.037.056.038.075.094.169.131.244.056.113.113.206.169.3a1.007,1.007,0,0,0,.094.15c.019.019.019.038.037.056.056.094.113.169.169.262a4.463,4.463,0,0,0,.244.394c.018.019.018.038.037.056.131.188.244.356.375.544h0c.094.112.169.244.263.356l.225.281h0a3.209,3.209,0,0,0,.225.263c.075.094.15.169.225.263l.037.037.038.037.169.169a1.6,1.6,0,0,0,.262.244l.075.075.056.056a.809.809,0,0,0,.131.113c.094.075.169.15.262.225.037.037.075.056.113.094l.056.056c.038.019.056.056.094.075.094.075.169.131.262.206a1.13,1.13,0,0,0,.188.131c.019,0,.019.019.037.019s.019.019.038.019c.094.056.169.112.262.169a1.2,1.2,0,0,0,.263.15c.019.019.037.019.056.037.056.038.131.075.188.113.075.037.169.094.244.131a1.123,1.123,0,0,1,.15.075c.019,0,.019.019.038.019a.066.066,0,0,1,.038.019,1.29,1.29,0,0,0,.244.094c.075.037.169.056.244.094.019,0,.019,0,.037.019.019,0,.019,0,.038.019l.169.056c.075.019.169.056.244.075a.237.237,0,0,0,.112.019.069.069,0,0,1,.056.019c.019,0,.056.019.075.019a1.258,1.258,0,0,0,.263.038c.056,0,.112.019.15.019h.112a1.406,1.406,0,0,0,.281,0h.3a2.1,2.1,0,0,0,.338-.056h0c.019,0,.056-.019.075-.019a2.308,2.308,0,0,0,.338-.094c.019,0,.019-.019.037-.019s.038-.019.056-.019A1.422,1.422,0,0,0,2018.4,1638.2Z" transform="translate(-1998.692 -1609.654)" fill="#fff" stroke="#ff9e2c" stroke-width="1"/>
        <g id="Group_486" data-name="Group 486" transform="translate(26.405 37.432)" clip-path="url(#clip-path)">
          <path id="Path_4353" data-name="Path 4353" d="M2099.537,1757.988l2.926-1.688a8.128,8.128,0,0,1-1.238.919l-2.926,1.688a6.616,6.616,0,0,0,1.238-.919" transform="translate(-2098.3 -1756.281)" fill="#1d2a4d"/>
        </g>
        <g id="Group_487" data-name="Group 487" transform="translate(4.52 0.019)" clip-path="url(#clip-path-2)">
          <path id="Path_4355" data-name="Path 4355" d="M1981.6,1559.469l2.926-1.688a6.514,6.514,0,0,1,1.275-.581l-2.925,1.688a6.047,6.047,0,0,0-1.275.581" transform="translate(-1981.6 -1557.106)" fill="#11845b"/>
          <path id="Path_4356" data-name="Path 4356" d="M1988.4,1558.381l2.925-1.688c.094-.037.188-.056.281-.094l-2.926,1.688a1.634,1.634,0,0,1-.281.094" transform="translate(-1987.125 -1556.619)" fill="#11845b"/>
        </g>
        <path id="Path_4368" data-name="Path 4368" d="M2072.5,1617.188l2.907-1.688,3.376-.9-2.926,1.707Z" transform="translate(-2050.933 -1603.723)" fill="#11845b"/>
        <path id="Path_4369" data-name="Path 4369" d="M2093.856,1640.488l2.926-1.688-2.457,2.419-2.926,1.707Z" transform="translate(-2066.288 -1623.384)" fill="#11845b"/>
        <g id="Group_1664" data-name="Group 1664">
          <path id="Path_4350" data-name="Path 4350" d="M2049.956,1738.807l2.907-1.707-.638,4.351-2.926,1.707Z" transform="translate(-2032.084 -1703.25)" fill="#fff" stroke="#ff9e2c" stroke-linecap="round" stroke-linejoin="round" stroke-width="1"/>
          <path id="Path_4351" data-name="Path 4351" d="M1958.2,1602.706l2.926-1.707,4.126,1.65-2.907,1.706Z" transform="translate(-1958.068 -1592.673)" fill="#fff" stroke="#ff9e2c" stroke-linecap="round" stroke-linejoin="round" stroke-width="1"/>
          <path id="Path_4358" data-name="Path 4358" d="M2091.9,1729.806l2.926-1.707,2.438,5.288-2.926,1.688Z" transform="translate(-2066.695 -1695.938)" fill="#fff" stroke="#ff9e2c" stroke-linecap="round" stroke-linejoin="round" stroke-width="1"/>
          <path id="Path_4359" data-name="Path 4359" d="M1989.9,1558.288l2.907-1.688,3.357,4.763-2.926,1.688Z" transform="translate(-1983.824 -1556.6)" fill="#fff" stroke="#ff9e2c" stroke-linecap="round" stroke-linejoin="round" stroke-width="1"/>
          <path id="Path_4360" data-name="Path 4360" d="M2014.107,1581.988a1.059,1.059,0,0,1-.225-.075c-.037-.019-.094-.019-.131-.037l-.225-.056a.145.145,0,0,1-.094-.037c-.037-.019-.094-.019-.131-.038-.075-.019-.15-.038-.244-.056a.825.825,0,0,1-.094-.019c-.038,0-.075-.019-.112-.019a1.264,1.264,0,0,0-.262-.038c-.038,0-.075-.019-.113-.019a.169.169,0,0,1-.094-.019c-.094-.019-.206-.019-.3-.037-.038,0-.075-.019-.113-.019h-.056c-.131,0-.262-.019-.394-.019h-.112c-.188,0-.356.019-.525.019h-.056a1.865,1.865,0,0,0-.3.037h0l-2.925,1.688c.112-.019.225-.019.338-.037a4.9,4.9,0,0,1,.525-.019h.112a2.764,2.764,0,0,1,.394.019.639.639,0,0,1,.187.019,1.863,1.863,0,0,1,.3.038c.075,0,.131.019.207.019.094.019.169.019.263.037.075.019.15.019.225.038s.15.037.244.056c.075.019.15.037.244.056l.225.056c.113.037.225.075.356.112h0Z" transform="translate(-1998.204 -1576.831)" fill="#fff" stroke="#ff9e2c" stroke-linecap="round" stroke-linejoin="round" stroke-width="1"/>
          <path id="Path_4361" data-name="Path 4361" d="M2096.207,1709.7c.019-.094.037-.206.056-.3l-2.926,1.688a3,3,0,0,1-.094.394,2.3,2.3,0,0,1-.094.338c-.019.075-.038.131-.056.206a4.634,4.634,0,0,1-.188.544h0c-.075.206-.168.394-.243.581-.038.056-.056.131-.094.188s-.056.131-.094.188a2.072,2.072,0,0,1-.113.206.766.766,0,0,0-.094.169.571.571,0,0,1-.094.131,5.3,5.3,0,0,1-.375.525l2.926-1.688a5.324,5.324,0,0,0,.375-.525c.019-.019.037-.038.037-.056a.143.143,0,0,0,.038-.075.79.79,0,0,0,.094-.169,1.959,1.959,0,0,1,.112-.206c.038-.056.056-.131.094-.188l.056-.112c.019-.019.019-.056.037-.075a5.426,5.426,0,0,0,.244-.581h0c.056-.169.131-.356.188-.544,0-.019.019-.038.019-.056.019-.056.019-.094.038-.15.038-.112.056-.225.094-.338C2096.188,1709.756,2096.207,1709.738,2096.207,1709.7Z" transform="translate(-2066.614 -1680.744)" fill="#fff" stroke="#ff9e2c" stroke-linecap="round" stroke-linejoin="round" stroke-width="1"/>
          <path id="Path_4362" data-name="Path 4362" d="M2055.3,1602.875a.78.78,0,0,1,.112.131c.263.281.507.563.769.844a.838.838,0,0,1,.112.131c.263.319.525.619.769.956l2.926-1.688a1.413,1.413,0,0,1-.15-.206c-.15-.187-.281-.356-.431-.544a.994.994,0,0,0-.187-.206.838.838,0,0,1-.113-.131c-.037-.056-.094-.113-.131-.169-.15-.169-.3-.338-.45-.488a1.764,1.764,0,0,0-.187-.188.824.824,0,0,1-.113-.131l-.169-.169-.488-.487c-.056-.038-.094-.094-.15-.131a.888.888,0,0,1-.131-.131c-.075-.075-.15-.131-.225-.206l-.506-.45c-.038-.037-.094-.075-.131-.113l-2.926,1.688c.3.244.582.506.881.769a.841.841,0,0,1,.131.131Z" transform="translate(-2035.496 -1591.455)" fill="#fff" stroke="#ff9e2c" stroke-linecap="round" stroke-linejoin="round" stroke-width="1"/>
          <path id="Path_4363" data-name="Path 4363" d="M2092.512,1657.095c0,.019.019.056.019.075.094.412.188.806.262,1.219l2.926-1.688c-.019-.056-.019-.113-.037-.187-.038-.188-.075-.394-.113-.581q-.056-.225-.113-.45c0-.019-.019-.056-.019-.075a.069.069,0,0,0-.019-.056c-.056-.206-.094-.394-.15-.6s-.113-.394-.169-.6c-.056-.188-.131-.394-.187-.581s-.131-.375-.206-.562c-.019-.038-.019-.056-.038-.094s-.019-.056-.037-.094a3.119,3.119,0,0,0-.15-.375c-.075-.187-.15-.356-.225-.544a2.019,2.019,0,0,0-.131-.3l-2.926,1.688c.169.394.338.806.488,1.219.019.038.019.056.037.094A16.548,16.548,0,0,1,2092.512,1657.095Z" transform="translate(-2066.126 -1633.784)" fill="#fff" stroke="#ff9e2c" stroke-linecap="round" stroke-linejoin="round" stroke-width="1"/>
          <path id="Path_4364" data-name="Path 4364" d="M2050.2,1574.088l2.907-1.688.619,5.082-2.907,1.706Z" transform="translate(-2032.815 -1569.437)" fill="#fff" stroke="#ff9e2c" stroke-linecap="round" stroke-linejoin="round" stroke-width="1"/>
          <path id="Path_4365" data-name="Path 4365" d="M2034.113,1564.825l2.926-1.688c-.131-.094-.281-.206-.431-.3a4.226,4.226,0,0,0-.375-.244l-.169-.113c-.038-.019-.056-.037-.094-.056-.206-.131-.431-.262-.656-.394-.056-.037-.094-.056-.15-.094-.169-.094-.338-.188-.488-.281-.112-.056-.225-.113-.319-.169-.056-.037-.131-.056-.187-.094l-.113-.056c-.206-.094-.412-.187-.6-.281-.037-.019-.094-.037-.131-.056l-2.926,1.688c.281.131.563.262.863.412.056.037.131.056.188.094a8.954,8.954,0,0,1,.825.45c.3.169.6.356.881.544l.169.113C2033.569,1564.469,2033.832,1564.638,2034.113,1564.825Z" transform="translate(-2016.728 -1560.175)" fill="#fff" stroke="#ff9e2c" stroke-linecap="round" stroke-linejoin="round" stroke-width="1"/>
          <path id="Path_4367" data-name="Path 4367" d="M2124.738,1697.188c0-.113-.019-.244-.019-.356a.7.7,0,0,0-.019-.206v-.169q-.028-.366-.056-.731c0-.075-.019-.15-.019-.225h0l-2.926,1.688c.037.375.075.75.094,1.125a.712.712,0,0,0,.019.207c.019.356.019.712.019,1.069,0,.3,0,.582-.019.863a.922.922,0,0,1-.019.225c-.019.244-.038.506-.057.75l2.926-1.688c.019-.113.019-.244.038-.356a2.636,2.636,0,0,0,.019-.375c0-.075.019-.15.019-.225v-.094c.019-.244.019-.488.019-.731v-.038C2124.738,1697.656,2124.738,1697.431,2124.738,1697.188Z" transform="translate(-2090.906 -1669.451)" fill="#fff" stroke="#ff9e2c" stroke-linecap="round" stroke-linejoin="round" stroke-width="1"/>
          <path id="Path_4370" data-name="Path 4370" d="M2091.444,1618.051c.094.169.207.319.3.488.056.094.094.188.15.281.169.3.356.619.507.919.188.356.375.713.563,1.088l2.926-1.688c-.019-.056-.056-.094-.075-.15-.15-.3-.3-.582-.45-.863-.019-.019-.019-.038-.038-.075-.169-.319-.337-.619-.506-.919-.056-.075-.094-.169-.15-.244a.018.018,0,0,0-.019-.019c-.094-.169-.187-.319-.3-.488-.132-.206-.262-.431-.394-.637-.094-.169-.206-.319-.319-.488-.131-.187-.243-.394-.375-.581a.1.1,0,0,1-.038-.075h0l-2.926,1.688c.15.206.281.431.413.637.113.169.206.319.319.488C2091.2,1617.638,2091.313,1617.844,2091.444,1618.051Z" transform="translate(-2065.395 -1603.723)" fill="#fff" stroke="#ff9e2c" stroke-linecap="round" stroke-linejoin="round" stroke-width="1"/>
          <path id="Path_20282" data-name="Path 20282" d="M2099.7,1680.488l2.925-1.688,4.126,3.113-2.925,1.707Z" transform="translate(-2073.032 -1655.883)" fill="#fff" stroke="#ff9e2c" stroke-linecap="round" stroke-linejoin="round" stroke-width="1"/>
        </g>
        <g id="Group_488" data-name="Group 488" transform="translate(0 1.707)">
          <path id="Path_4371" data-name="Path 4371" d="M1988.33,1595.968l-4.088-1.632a7.939,7.939,0,0,1-1.538,3.507l2.438,5.288a7.166,7.166,0,0,1-2.551,1.5l-3.338-4.726a7.748,7.748,0,0,1-3.9-.356l-.656,4.351a18.15,18.15,0,0,1-1.8-.919c-.619-.356-1.219-.75-1.8-1.163l-.619-5.082a23.52,23.52,0,0,1-3.9-4.145l-3.338.881a37.164,37.164,0,0,1-2.532-4.445l2.457-2.438a23.192,23.192,0,0,1-1.5-5.27l-4.088-3.094c-.056-.656-.075-1.294-.075-1.932a21.4,21.4,0,0,1,.131-2.25l4.126,1.65a7.664,7.664,0,0,1,1.575-3.282l-2.419-5.251a7.122,7.122,0,0,1,2.663-1.463l3.357,4.764a8.141,8.141,0,0,1,3.582.394l.657-4.351a16.129,16.129,0,0,1,1.875.956,19.556,19.556,0,0,1,1.857,1.2l.619,5.082a24.868,24.868,0,0,1,3.563,3.713l3.376-.881a38.969,38.969,0,0,1,2.644,4.52l-2.456,2.438a23.649,23.649,0,0,1,1.557,5.082l4.126,3.113a20.889,20.889,0,0,1,.131,2.419C1988.424,1594.768,1988.387,1595.387,1988.33,1595.968Zm-15.4-3.863c3.32,1.913,6.02.375,6.02-3.432a13.169,13.169,0,0,0-5.982-10.371c-3.319-1.913-6.02-.375-6.02,3.432a13.14,13.14,0,0,0,5.982,10.371" transform="translate(-1957.499 -1565.7)" fill="#fff" stroke="#ff9e2c" stroke-width="1"/>
        </g>
      </g>
      <g id="Group_553" data-name="Group 553" transform="translate(181.343 306.956)">
        <path id="Path_7983" data-name="Path 7983" d="M647.784,984.863a5.127,5.127,0,0,0-4.623,0l-15.154,8.749a1.411,1.411,0,0,0,0,2.669l17.051,9.844,19.777-11.419Z" transform="translate(-627.054 -984.313)" fill="#fff" stroke="#ff9e2c" stroke-width="1"/>
        <path id="Path_7984" data-name="Path 7984" d="M659.343,1007.568c-.244-.69.131-1.469,1.121-2.041a5.767,5.767,0,0,1,5.209-.138c1.371.792,1.264,2.14-.24,3.008a5.958,5.958,0,0,1-3.532.646,2.664,2.664,0,0,1-.557,4.29c-.356-.209-4.713-2.723-4.713-2.723l-4.717-2.722C653.39,1007.035,656.536,1006.763,659.343,1007.568Z" transform="translate(-642.845 -997.347)" fill="#ff9e2c"/>
        <path id="Path_7985" data-name="Path 7985" d="M733.922,1034.6l-37.736-21.787-19.777,11.419,37.736,21.787a5.128,5.128,0,0,0,4.624,0l15.155-8.75A1.41,1.41,0,0,0,733.922,1034.6Z" transform="translate(-658.405 -1002.417)" fill="#fff" stroke="#ff9e2c" stroke-width="1"/>
        <path id="Path_7986" data-name="Path 7986" d="M628.008,1014.826a1.632,1.632,0,0,1-.952-1.317v2.792h0a1.589,1.589,0,0,0,.95,1.386l17.05,9.844v-2.861Z" transform="translate(-627.055 -1002.859)" fill="#fff" stroke="#ff9e2c" stroke-width="1"/>
        <path id="Path_7987" data-name="Path 7987" d="M733.924,1057.147l-15.155,8.75a5.129,5.129,0,0,1-4.624,0L676.41,1044.11v2.861l37.737,21.787a5.127,5.127,0,0,0,4.623,0l15.154-8.749a1.58,1.58,0,0,0,.948-1.4v-2.728a1.654,1.654,0,0,1-.947,1.267Z" transform="translate(-658.406 -1022.297)" fill="none" stroke="#ff9e2c" stroke-width="1"/>
        <path id="Path_7988" data-name="Path 7988" d="M715.535,1027.636l30.142,17.4,2.092-1.208-30.142-17.4Z" transform="translate(-683.258 -1011.065)" fill="#ff9e2c"/>
        <path id="Path_7989" data-name="Path 7989" d="M700.7,1036.2l11.683,6.745,2.093-1.208-11.683-6.745Z" transform="translate(-673.837 -1016.502)" fill="#ff9e2c"/>
        <path id="Path_7990" data-name="Path 7990" d="M739.064,1058.346,742,1060.04l2.092-1.208-2.933-1.693-2.093,1.208Z" transform="translate(-698.204 -1030.572)" fill="#ff9e2c"/>
      </g>
      <path id="Path_8004" data-name="Path 8004" d="M554.155,431.672c0-1.022.717-1.436,1.6-.925a3.541,3.541,0,0,1,1.6,2.775c0,1.021-.717,1.435-1.6.924a3.54,3.54,0,0,1-1.6-2.775Z" transform="translate(-398.831 -317.243)" fill="#fff"/>
      <g id="Group_557" data-name="Group 557" transform="translate(267.645 277.006)">
        <path id="Path_7877" data-name="Path 7877" d="M945.2,1005.449l29.474-17.015V953.882L945.2,970.891Z" transform="translate(-915.723 -936.869)" fill="#fff" stroke="#ff9e2c" stroke-linecap="round" stroke-linejoin="round" stroke-width="1"/>
        <path id="Path_7878" data-name="Path 7878" d="M903.106,1005.449l-29.474-17.015V953.882l29.474,17.009Z" transform="translate(-873.632 -936.869)" fill="#fff" stroke="#ff9e2c" stroke-linecap="round" stroke-linejoin="round" stroke-width="1"/>
        <path id="Path_7879" data-name="Path 7879" d="M903.106,946.6l-29.474-17.009,29.474-17.012,29.474,17.012Z" transform="translate(-873.632 -912.575)" fill="#fff" stroke="#ff9e2c" stroke-linecap="round" stroke-linejoin="round" stroke-width="1"/>
        <path id="Path_7881" data-name="Path 7881" d="M1007.86,1048.076l16.956-9.788V1018.41l-16.956,9.785Z" transform="translate(-952.577 -974.821)" fill="#fff" stroke="#ff9e2c" stroke-linecap="round" stroke-linejoin="round" stroke-width="1"/>
        <path id="Path_7882" data-name="Path 7882" d="M983.646,1048.076l-16.956-9.788V1018.41l16.956,9.785Z" transform="translate(-928.364 -974.821)" fill="#fff" stroke="#ff9e2c" stroke-linecap="round" stroke-linejoin="round" stroke-width="1"/>
        <path id="Path_7883" data-name="Path 7883" d="M983.646,1014.221l-16.956-9.785,16.956-9.786,16.956,9.786Z" transform="translate(-928.364 -960.846)" fill="#fff" stroke="#ff9e2c" stroke-linecap="round" stroke-linejoin="round" stroke-width="1"/>
      </g>
      <path id="Path_4182" data-name="Path 4182" d="M383.221,1030.561c.948.939-1.236,2.514-2.222,3.083l2.872,1.67c.986-.57,3.712-1.828,5.332-1.277.55.158,1.116.294,1.692.407,1.819.272,2.194,2.279,2.187,3.083h4.075a3.563,3.563,0,0,1,1.409-2.8,2.309,2.309,0,0,1,.82-.279q.855-.168,1.693-.406c1.628-.553,4.34.705,5.319,1.275l2.893-1.67c-.98-.569-3.147-2.145-2.188-3.083a6.9,6.9,0,0,0,.709-.982,1.134,1.134,0,0,1,.491-.476c1.124-.651,3.691-.8,4.837-.8l.012-2.361c-1.489.059-4.848-.223-5.313-1.279a6.633,6.633,0,0,0-.7-.98c-.947-.94,1.236-2.514,2.222-3.084l-2.873-1.669c-.986.569-3.712,1.829-5.331,1.276q-.836-.239-1.691-.406c-1.821-.275-2.2-2.28-2.191-3.083l-4.078,0a3.374,3.374,0,0,1-1.4,2.8,2.337,2.337,0,0,1-.824.282c-.577.113-1.145.247-1.7.407-1.878.405-4.337-.708-5.317-1.277l-2.892,1.669c.98.57,3.146,2.143,2.187,3.083a6.549,6.549,0,0,0-.706.983,1.15,1.15,0,0,1-.491.477c-1.125.649-3.691.8-4.844.8l-.007,2.361c1.387,0,4.848.222,5.313,1.278A6.592,6.592,0,0,0,383.221,1030.561Zm6.868-6.4a11.261,11.261,0,0,1,10.217,0c2.811,1.635,2.8,4.284-.033,5.92a11.255,11.255,0,0,1-10.214,0c-2.814-1.635-2.8-4.283.03-5.918Z" transform="translate(-284.272 -696.758)" fill="#fff" stroke="#ff9e2c" stroke-linecap="round" stroke-linejoin="round" stroke-width="1"/>
    </g>
    <g id="Group_547" data-name="Group 547" transform="translate(1488.77 439.231)">
      <path id="Path_4612" data-name="Path 4612" d="M1878.552,749.93l71.7,40.669c1.68.98,5.207-2.3,5.207-4.241v-32.8a5.89,5.89,0,0,0-2.94-5.109l-71.065-37.233c-1.736-1.008-5.949.77-5.949,2.772l-.331,30.08A6.789,6.789,0,0,0,1878.552,749.93Z" transform="translate(-1874.782 -710.922)" fill="#fff" stroke="#ff9e2c" stroke-width="1"/>
      <path id="Path_4613" data-name="Path 4613" d="M1873.774,759.764l70.743,40.987a2.526,2.526,0,0,0,3.794-2.184V765.751a5.89,5.89,0,0,0-2.94-5.109l-71.051-37.233a2.608,2.608,0,0,0-3.92,2.254V753.9A6.789,6.789,0,0,0,1873.774,759.764Z" transform="translate(-1870.4 -721.353)" fill="#fff" stroke="#ff9e2c" stroke-width="1"/>
      <path id="Path_4628" data-name="Path 4628" d="M1934.321,824.671a2.165,2.165,0,0,0,1.33-2.254c0-2.254-1.834-5.138-4.088-6.425s-4.088-.5-4.088,1.75a7.112,7.112,0,0,0,1.33,3.766c-2.7-.35-4.605,1.47-4.605,4.857a11.107,11.107,0,0,0,.406,2.884,8.088,8.088,0,0,0,3.542,4.62l6.831,3.906c1.54.882,2.968.756,3.471-.42a6.456,6.456,0,0,0,.476-2.576C1938.926,831.39,1937.022,827.4,1934.321,824.671Z" transform="translate(-1916.101 -801.1)" fill="#ff9e2c"/>
      <path id="Path_4629" data-name="Path 4629" d="M2392.96,191.48v2.9l46.093,25.6v-3.085Z" transform="translate(-2366.927 -170.899)" fill="#ff9e2c"/>
      <path id="Path_4630" data-name="Path 4630" d="M2392.96,191.48V192.8l46.093,25.6v-1.511Z" transform="translate(-2366.927 -156.259)" fill="#ff9e2c"/>
      <path id="Path_4631" data-name="Path 4631" d="M2392.96,191.48V192.8l46.093,25.6v-1.511Z" transform="translate(-2366.927 -152.717)" fill="#ff9e2c"/>
      <path id="Path_4632" data-name="Path 4632" d="M2392.96,191.48v2.109l22.479,13v-2.3Z" transform="translate(-2366.927 -166.192)" fill="#ff9e2c"/>
    </g>
    <g id="Group_548" data-name="Group 548" transform="translate(1488.77 485.456)">
      <path id="Path_4612-2" data-name="Path 4612" d="M1878.552,749.93l71.7,40.669c1.68.98,5.207-2.3,5.207-4.241v-32.8a5.89,5.89,0,0,0-2.94-5.109l-71.065-37.233c-1.736-1.008-5.949.77-5.949,2.772l-.331,30.08A6.789,6.789,0,0,0,1878.552,749.93Z" transform="translate(-1874.782 -710.922)" fill="#fff" stroke="#ff9e2c" stroke-width="1"/>
      <path id="Path_4613-2" data-name="Path 4613" d="M1873.774,759.764l70.743,40.987a2.526,2.526,0,0,0,3.794-2.184V765.751a5.89,5.89,0,0,0-2.94-5.109l-71.051-37.233a2.608,2.608,0,0,0-3.92,2.254V753.9A6.789,6.789,0,0,0,1873.774,759.764Z" transform="translate(-1870.4 -721.353)" fill="#fff" stroke="#ff9e2c" stroke-width="1"/>
      <path id="Path_4628-2" data-name="Path 4628" d="M1934.321,824.671a2.165,2.165,0,0,0,1.33-2.254c0-2.254-1.834-5.138-4.088-6.425s-4.088-.5-4.088,1.75a7.112,7.112,0,0,0,1.33,3.766c-2.7-.35-4.605,1.47-4.605,4.857a11.107,11.107,0,0,0,.406,2.884,8.088,8.088,0,0,0,3.542,4.62l6.831,3.906c1.54.882,2.968.756,3.471-.42a6.456,6.456,0,0,0,.476-2.576C1938.926,831.39,1937.022,827.4,1934.321,824.671Z" transform="translate(-1916.101 -801.1)" fill="#ff9e2c"/>
      <path id="Path_4629-2" data-name="Path 4629" d="M2392.96,191.48v2.9l46.093,25.6v-3.085Z" transform="translate(-2366.927 -170.899)" fill="#ff9e2c"/>
      <path id="Path_4630-2" data-name="Path 4630" d="M2392.96,191.48V192.8l46.093,25.6v-1.511Z" transform="translate(-2366.927 -156.259)" fill="#ff9e2c"/>
      <path id="Path_4631-2" data-name="Path 4631" d="M2392.96,191.48V192.8l46.093,25.6v-1.511Z" transform="translate(-2366.927 -152.717)" fill="#ff9e2c"/>
      <path id="Path_4632-2" data-name="Path 4632" d="M2392.96,191.48v2.109l22.479,13v-2.3Z" transform="translate(-2366.927 -166.192)" fill="#ff9e2c"/>
    </g>
    <g id="Group_556" data-name="Group 556" transform="translate(1072.979 587.816)">
      <path id="Path_7975" data-name="Path 7975" d="M220.869,854.638a11.1,11.1,0,0,1-10,0L177.54,835.4c-2.75-1.589-2.75-4.187,0-5.776l32.792-18.932a11.093,11.093,0,0,1,10,0l33.324,19.241c2.752,1.588,2.753,4.187,0,5.775Z" transform="translate(-175.478 -809.497)" fill="#ff9e2c"/>
      <path id="Path_7976" data-name="Path 7976" d="M219.308,856.858a7.869,7.869,0,0,1-3.8-.869l-33.324-19.241c-.68-.393-.851-.738-.857-.8s.178-.407.858-.8l32.791-18.932a8.73,8.73,0,0,1,7.593,0l33.325,19.241c.682.393.854.739.86.8s-.178.406-.857.8L223.1,855.99a7.868,7.868,0,0,1-3.8.868Z" transform="translate(-178.917 -812.935)" fill="#fff"/>
      <path id="Path_7977" data-name="Path 7977" d="M175.485,877h.005a3.441,3.441,0,0,0,2.055,3l33.325,19.241a11.1,11.1,0,0,0,10,0l32.791-18.932a3.417,3.417,0,0,0,2.051-3.033V865.85a3.577,3.577,0,0,1-2.05,2.742l-32.794,18.934a11.1,11.1,0,0,1-10,0l-33.324-19.241a3.528,3.528,0,0,1-2.06-2.85Z" transform="translate(-175.481 -842.385)" fill="#fff" stroke="#ff9e2c" stroke-width="1"/>
      <path id="Path_7978" data-name="Path 7978" d="M175.485,880.141h.005a3.44,3.44,0,0,0,2.055,3l33.325,19.241a11.1,11.1,0,0,0,10,0l32.791-18.932a3.417,3.417,0,0,0,2.051-3.033v-2.27a3.578,3.578,0,0,1-2.05,2.743l-32.794,18.934a11.1,11.1,0,0,1-10,0l-33.324-19.241a3.528,3.528,0,0,1-2.06-2.85Z" transform="translate(-175.481 -849.614)" fill="none" stroke="#ff9e2c" stroke-width="1"/>
      <path id="Path_7979" data-name="Path 7979" d="M272.81,833.236a6.559,6.559,0,0,1,5.935,0c1.64.946,1.64,2.481,0,3.427a6.56,6.56,0,0,1-5.934,0c-1.639-.947-1.639-2.481,0-3.427Z" transform="translate(-231.981 -823.037)" fill="#ff9e2c"/>
      <path id="Path_7980" data-name="Path 7980" d="M246.934,877.6l10.933-17.912c.757-1.24-1.31-2.433-3.458-2l-31.025,6.312Z" transform="translate(-203.644 -837.78)" fill="#fff" stroke="#ff9e2c" stroke-width="1"/>
      <path id="Path_7981" data-name="Path 7981" d="M219.686,864.662l7.546-12.362c.757-1.24-1.311-2.434-3.458-2l-21.413,4.357Z" transform="translate(-191.283 -833.434)" fill="#fff" stroke="#ff9e2c" stroke-width="1"/>
    </g>
  </g>
</svg>
