<svg width="96" height="85" viewBox="0 0 96 85" fill="none" xmlns="http://www.w3.org/2000/svg">
<path d="M90.5955 0.573242H60.9761C58.2869 0.573242 56.1045 2.75573 56.1045 5.44486V35.0643C56.1045 37.7535 58.2869 39.9359 60.9761 39.9359H75.1525C74.9673 47.6916 73.1648 53.8979 69.7547 58.5649C67.0656 62.2479 62.993 65.2975 57.5464 67.7041C55.0424 68.8051 53.9609 71.767 55.1301 74.2419L58.6377 81.6467C59.7679 84.024 62.5642 85.0666 64.9805 84.024C71.4305 81.2374 76.8771 77.7104 81.3199 73.4234C86.7372 68.1912 90.4493 62.2869 92.4564 55.7004C94.4636 49.114 95.4671 40.1308 95.4671 28.7312V5.44486C95.4671 2.75582 93.2845 0.573242 90.5955 0.573242Z" fill="#FFF4CE"/>
<path d="M10.7987 84.0045C17.1708 81.2277 22.588 77.7007 27.0602 73.4234C32.5261 68.1913 36.2578 62.3063 38.2649 55.7686C40.272 49.2309 41.2755 40.2184 41.2755 28.7312V5.44486C41.2755 2.75573 39.0931 0.573242 36.4038 0.573242H6.78442C4.09528 0.573242 1.9128 2.75573 1.9128 5.44486V35.0643C1.9128 37.7535 4.09528 39.9359 6.78442 39.9359H20.9608C20.7757 47.6916 18.9732 53.8979 15.5631 58.5649C12.8739 62.2479 8.80126 65.2975 3.3548 67.7041C0.850788 68.8051 -0.23071 71.767 0.938478 74.2419L4.4363 81.6273C5.56661 84.0045 8.3824 85.0569 10.7987 84.0045Z" fill="#FFF4CE"/>
</svg>
