<svg width="606" height="617" viewBox="0 0 606 617" fill="none" xmlns="http://www.w3.org/2000/svg">
<g clip-path="url(#clip0_53_6652)">
<path d="M453.974 18.9795C576.48 52.1795 605.288 101.352 605.288 101.352V286.375C605.288 286.375 581.059 219.34 453.974 176.975" stroke="#FEF2EB"/>
<path d="M453.974 176.981C416.273 169.674 377.726 167.745 339.483 171.253V6.38052C356.956 6.57452 376.139 7.56552 396.729 9.82052C417.56 12.1005 436.71 15.3305 453.974 18.9805V176.981Z" stroke="#202020"/>
<path d="M453.974 176.981C416.273 169.674 377.726 167.745 339.483 171.253V6.38052C356.956 6.57452 376.139 7.56552 396.729 9.82052C417.56 12.1005 436.71 15.3305 453.974 18.9805V176.981Z" stroke="#FEF2EB"/>
<path d="M371.386 22.2145H351.048V39.7795H371.386V22.2145Z" stroke="#FEF2EB"/>
<path d="M371.386 43.4775H351.048V61.0425H371.386V43.4775Z" stroke="#FEF2EB"/>
<path d="M391.154 32.6045C393.197 32.6045 394.852 30.9489 394.852 28.9065C394.852 26.8642 393.197 25.2085 391.154 25.2085C389.112 25.2085 387.456 26.8642 387.456 28.9065C387.456 30.9489 389.112 32.6045 391.154 32.6045Z" stroke="#FEF2EB"/>
<path d="M391.154 45.5465C393.197 45.5465 394.852 43.8909 394.852 41.8485C394.852 39.8062 393.197 38.1505 391.154 38.1505C389.112 38.1505 387.456 39.8062 387.456 41.8485C387.456 43.8909 389.112 45.5465 391.154 45.5465Z" stroke="#FEF2EB"/>
<path d="M391.154 60.3385C393.197 60.3385 394.852 58.6829 394.852 56.6405C394.852 54.5982 393.197 52.9425 391.154 52.9425C389.112 52.9425 387.456 54.5982 387.456 56.6405C387.456 58.6829 389.112 60.3385 391.154 60.3385Z" stroke="#FEF2EB"/>
<path d="M391.154 73.2805C393.197 73.2805 394.852 71.6249 394.852 69.5825C394.852 67.5402 393.197 65.8845 391.154 65.8845C389.112 65.8845 387.456 67.5402 387.456 69.5825C387.456 71.6249 389.112 73.2805 391.154 73.2805Z" stroke="#FEF2EB"/>
<path d="M391.154 88.0725C393.197 88.0725 394.852 86.4169 394.852 84.3745C394.852 82.3322 393.197 80.6765 391.154 80.6765C389.112 80.6765 387.456 82.3322 387.456 84.3745C387.456 86.4169 389.112 88.0725 391.154 88.0725Z" stroke="#FEF2EB"/>
<path d="M391.154 101.015C393.197 101.015 394.852 99.3589 394.852 97.3165C394.852 95.2742 393.197 93.6185 391.154 93.6185C389.112 93.6185 387.456 95.2742 387.456 97.3165C387.456 99.3589 389.112 101.015 391.154 101.015Z" stroke="#FEF2EB"/>
<path d="M391.154 116.731C393.197 116.731 394.852 115.075 394.852 113.033C394.852 110.99 393.197 109.335 391.154 109.335C389.112 109.335 387.456 110.99 387.456 113.033C387.456 115.075 389.112 116.731 391.154 116.731Z" stroke="#FEF2EB"/>
<path d="M391.154 129.673C393.197 129.673 394.852 128.017 394.852 125.975C394.852 123.932 393.197 122.277 391.154 122.277C389.112 122.277 387.456 123.932 387.456 125.975C387.456 128.017 389.112 129.673 391.154 129.673Z" stroke="#FEF2EB"/>
<path d="M391.154 144.465C393.197 144.465 394.852 142.809 394.852 140.767C394.852 138.724 393.197 137.069 391.154 137.069C389.112 137.069 387.456 138.724 387.456 140.767C387.456 142.809 389.112 144.465 391.154 144.465Z" stroke="#FEF2EB"/>
<path d="M391.154 157.407C393.197 157.407 394.852 155.751 394.852 153.709C394.852 151.666 393.197 150.011 391.154 150.011C389.112 150.011 387.456 151.666 387.456 153.709C387.456 155.751 389.112 157.407 391.154 157.407Z" stroke="#FEF2EB"/>
<path d="M403.997 25.2085L423.411 27.4985C424.393 27.4985 425.334 27.8883 426.028 28.5822C426.721 29.2761 427.111 30.2172 427.111 31.1985C427.111 32.1798 426.721 33.1209 426.028 33.8148C425.334 34.5087 424.393 34.8985 423.411 34.8985L403.997 32.6085C403.016 32.6085 402.075 32.2187 401.381 31.5248C400.687 30.8309 400.297 29.8898 400.297 28.9085C400.297 27.9272 400.687 26.9861 401.381 26.2922C402.075 25.5984 403.016 25.2085 403.997 25.2085Z" stroke="#FEF2EB"/>
<path d="M403.997 38.1505L423.411 40.4405C424.393 40.4405 425.334 40.8303 426.028 41.5242C426.721 42.2181 427.111 43.1592 427.111 44.1405C427.111 45.1218 426.721 46.0629 426.028 46.7568C425.334 47.4507 424.393 47.8405 423.411 47.8405L403.997 45.5505C403.016 45.5505 402.075 45.1607 401.381 44.4668C400.687 43.7729 400.297 42.8318 400.297 41.8505C400.297 40.8692 400.687 39.9281 401.381 39.2342C402.075 38.5403 403.016 38.1505 403.997 38.1505Z" stroke="#FEF2EB"/>
<path d="M403.997 52.9425L423.411 55.2325C424.393 55.2325 425.334 55.6224 426.028 56.3162C426.721 57.0101 427.111 57.9512 427.111 58.9325C427.111 59.9138 426.721 60.8549 426.028 61.5488C425.334 62.2427 424.393 62.6325 423.411 62.6325L403.997 60.3425C403.016 60.3425 402.075 59.9527 401.381 59.2588C400.687 58.565 400.297 57.6238 400.297 56.6425C400.297 55.6612 400.687 54.7201 401.381 54.0262C402.075 53.3324 403.016 52.9425 403.997 52.9425Z" stroke="#FEF2EB"/>
<path d="M404.126 65.8845L432.784 69.3195C433.766 69.3195 434.707 69.7093 435.401 70.4032C436.094 71.0971 436.484 72.0382 436.484 73.0195C436.484 74.0008 436.094 74.9419 435.401 75.6358C434.707 76.3297 433.766 76.7195 432.784 76.7195L404.126 73.2845C403.145 73.2845 402.204 72.8947 401.51 72.2008C400.816 71.5069 400.426 70.5658 400.426 69.5845C400.426 68.6032 400.816 67.6621 401.51 66.9682C402.204 66.2743 403.145 65.8845 404.126 65.8845Z" stroke="#FEF2EB"/>
<path d="M403.997 80.6765L423.411 82.9665C424.393 82.9665 425.334 83.3563 426.028 84.0502C426.721 84.7441 427.111 85.6852 427.111 86.6665C427.111 87.6478 426.721 88.5889 426.028 89.2828C425.334 89.9767 424.393 90.3665 423.411 90.3665L403.997 88.0765C403.016 88.0765 402.075 87.6867 401.381 86.9928C400.687 86.2989 400.297 85.3578 400.297 84.3765C400.297 83.3952 400.687 82.4541 401.381 81.7602C402.075 81.0663 403.016 80.6765 403.997 80.6765Z" stroke="#FEF2EB"/>
<path d="M404.126 93.6185L432.784 97.0535C433.766 97.0535 434.707 97.4434 435.401 98.1372C436.094 98.8311 436.484 99.7722 436.484 100.754C436.484 101.735 436.094 102.676 435.401 103.37C434.707 104.064 433.766 104.454 432.784 104.454L404.126 101.019C403.145 101.019 402.204 100.629 401.51 99.9348C400.816 99.2409 400.426 98.2998 400.426 97.3185C400.426 96.3372 400.816 95.3961 401.51 94.7022C402.204 94.0084 403.145 93.6185 404.126 93.6185Z" stroke="#FEF2EB"/>
<path d="M403.997 109.335L423.409 111.625C424.391 111.625 425.332 112.014 426.026 112.708C426.719 113.402 427.109 114.343 427.109 115.325C427.109 116.306 426.719 117.247 426.026 117.941C425.332 118.635 424.391 119.025 423.409 119.025L403.997 116.735C403.511 116.735 403.03 116.639 402.581 116.453C402.132 116.267 401.725 115.994 401.381 115.651C401.037 115.307 400.765 114.899 400.579 114.45C400.393 114.002 400.297 113.52 400.297 113.035C400.297 112.549 400.393 112.068 400.579 111.619C400.765 111.17 401.037 110.762 401.381 110.418C401.725 110.075 402.132 109.802 402.581 109.616C403.03 109.43 403.511 109.335 403.997 109.335Z" stroke="#FEF2EB"/>
<path d="M404.126 122.277L432.782 125.712C433.764 125.712 434.705 126.101 435.399 126.795C436.092 127.489 436.482 128.43 436.482 129.412C436.482 130.393 436.092 131.334 435.399 132.028C434.705 132.722 433.764 133.112 432.782 133.112L404.126 129.677C403.64 129.677 403.159 129.581 402.71 129.395C402.261 129.209 401.854 128.936 401.51 128.593C401.166 128.249 400.894 127.841 400.708 127.392C400.522 126.944 400.426 126.462 400.426 125.977C400.426 125.491 400.522 125.009 400.708 124.561C400.894 124.112 401.166 123.704 401.51 123.36C401.854 123.017 402.261 122.744 402.71 122.558C403.159 122.372 403.64 122.277 404.126 122.277Z" stroke="#FEF2EB"/>
<path d="M403.997 137.069L423.411 139.359C424.393 139.359 425.334 139.748 426.028 140.442C426.721 141.136 427.111 142.077 427.111 143.059C427.111 144.04 426.721 144.981 426.028 145.675C425.334 146.369 424.393 146.759 423.411 146.759L403.997 144.469C403.016 144.469 402.075 144.079 401.381 143.385C400.687 142.691 400.297 141.75 400.297 140.769C400.297 139.787 400.687 138.846 401.381 138.152C402.075 137.458 403.016 137.069 403.997 137.069Z" stroke="#FEF2EB"/>
<path d="M404.126 150.011L432.784 153.446C433.766 153.446 434.707 153.835 435.401 154.529C436.094 155.223 436.484 156.164 436.484 157.146C436.484 158.127 436.094 159.068 435.401 159.762C434.707 160.456 433.766 160.846 432.784 160.846L404.126 157.411C403.64 157.411 403.159 157.315 402.71 157.129C402.261 156.943 401.854 156.67 401.51 156.327C401.166 155.983 400.894 155.575 400.708 155.126C400.522 154.678 400.426 154.196 400.426 153.711C400.426 153.225 400.522 152.743 400.708 152.295C400.894 151.846 401.166 151.438 401.51 151.094C401.854 150.751 402.261 150.478 402.71 150.292C403.159 150.106 403.64 150.011 404.126 150.011Z" stroke="#FEF2EB"/>
<path d="M476.062 56.2845L501.022 67.3775C501.022 67.3775 504.022 63.5655 500.098 60.9065L477.91 50.7375C477.91 50.7375 473.057 50.7375 476.062 56.2845Z" stroke="#FEF2EB"/>
<path d="M513.613 72.796L534.812 82.5438C534.812 82.5438 538.782 82.1347 536.973 78.4554L515.629 67.7991C515.107 67.6606 514.552 67.7213 514.072 67.9694C513.593 68.2176 513.223 68.6354 513.034 69.1416C512.806 69.7487 512.74 70.4046 512.841 71.0452C512.943 71.6857 513.209 72.289 513.613 72.796Z" stroke="#FEF2EB"/>
<path d="M549.874 84.6465L571.032 95.6762C571.569 96.0802 571.986 96.6226 572.238 97.2455C572.49 97.8683 572.567 98.548 572.462 99.2116C572.462 99.2116 571.962 103.002 567.885 99.8549L546.859 89.7388C546.859 89.7388 544.072 87.7825 546.215 85.1617C546.641 84.597 547.238 84.1853 547.918 83.9884C548.624 83.9915 549.31 84.2223 549.874 84.6465Z" stroke="#FEF2EB"/>
<path d="M480.56 91.1045L504.596 103.123C504.596 103.123 507.828 104.515 508.296 101.274C508.35 100.314 508.114 99.3606 507.62 98.5366C507.125 97.7125 506.395 97.0559 505.523 96.6515L483.336 86.4825C483.336 86.4825 480.713 84.6395 479.636 86.4825C479.636 86.4825 478.56 89.5645 480.56 91.1045Z" stroke="#FEF2EB"/>
<path d="M476.294 121.075L500.33 133.093C500.33 133.093 503.563 134.485 504.03 131.244C504.084 130.285 503.848 129.331 503.353 128.507C502.859 127.683 502.128 127.027 501.256 126.622L479.069 116.454C479.069 116.454 476.447 114.611 475.369 116.454C475.369 116.454 474.294 119.535 476.294 121.075Z" stroke="#FEF2EB"/>
<path d="M557.822 127.951C557.822 127.951 560.404 127.97 560.232 125.647C560.232 125.647 561.215 122.818 557.606 121.416L537.142 111.885C536.472 111.679 535.75 111.723 535.109 112.008C534.469 112.294 533.953 112.802 533.659 113.439C533.659 113.439 533.521 116.152 535.214 116.922C542.541 120.247 557.822 127.951 557.822 127.951Z" stroke="#FEF2EB" stroke-width="1.00025"/>
<path d="M567.166 162.523C567.166 162.523 569.747 162.588 569.615 160.263C569.615 160.263 570.649 157.452 567.066 155.987L546.78 146.095C546.114 145.878 545.391 145.909 544.745 146.183C544.1 146.457 543.576 146.956 543.27 147.587C543.27 147.587 543.085 150.297 544.763 151.097C552.028 154.551 567.166 162.523 567.166 162.523Z" stroke="#FEF2EB"/>
<path d="M522.887 134.552L529.038 137.125C530.089 137.47 531.012 138.124 531.686 139.001C532.36 139.877 532.755 140.937 532.819 142.041C532.819 142.041 533.257 144.541 528.282 142.923L522.131 140.35C522.131 140.35 518.651 139.305 519.435 136.165C519.435 136.165 520.093 134.019 522.887 134.552Z" stroke="#FEF2EB"/>
<path d="M485.927 143.621C485.927 143.621 484.747 146.322 489.356 148.788L508.141 157.659C508.141 157.659 511.814 158.699 511.701 156.29C511.701 156.29 510.049 151.864 507.352 151.235L489.597 143.17C489.597 143.17 486.604 141.543 485.927 143.621Z" stroke="#FEF2EB"/>
<path d="M524.956 162.4L544.072 172.445C544.072 172.445 546.44 170.54 544.013 166.594L526.374 157.998C526.374 157.998 522.785 158.535 524.956 162.4Z" stroke="#FEF2EB" stroke-width="1.0006"/>
<path d="M553.266 191.669L560.124 195.703C560.124 195.703 563.423 199.327 559.94 199.838L553.457 196.647C553.457 196.647 549.903 192.877 553.266 191.669Z" stroke="#FEF2EB" stroke-width="1.00052"/>
<path d="M542.971 191.934L520.524 181.814C520.524 181.814 517.398 179.575 517.737 176.671C517.737 176.671 518.338 173.507 524.272 176.455L542.914 186.308C542.914 186.308 546.964 189.486 542.971 191.934Z" stroke="#FEF2EB" stroke-width="1.00025"/>
<path d="M509.106 172.566C509.106 172.566 510.511 169.292 505.406 167.019L483.219 156.85C483.219 156.85 480.134 156.085 480.446 158.699C480.446 158.699 479.346 160.84 484.146 163.321L505.409 173.49C505.409 173.49 508.578 174.944 509.106 172.566Z" stroke="#FEF2EB"/>
<path d="M518.826 109.066L525.479 113.223C525.479 113.223 527.972 113.627 527.973 111.698C527.973 111.698 527.993 109.353 525.132 107.611L518.688 104.354C518.688 104.354 517.183 104.139 517.301 106.569C517.375 107.066 517.548 107.543 517.81 107.972C518.072 108.401 518.418 108.773 518.826 109.066Z" stroke="#FEF2EB"/>
<path d="M69.7312 238.735C69.7312 238.735 59.6162 236.879 53.0972 233.005C46.5782 229.131 45.0232 226.463 45.0232 226.463C45.0232 226.463 23.9852 200.732 48.7352 155.935C58.1353 142.549 70.1269 131.187 83.9992 122.522L162.879 77.0495C162.879 77.0495 195.356 53.4835 219.487 90.9695C219.487 90.9695 234.022 132.67 205.567 159.642L130.399 214.394L114.499 246.155L105.347 245.018L93.7472 235.228C93.7472 235.228 81.9802 240.034 69.7312 238.735Z" fill="#202020" stroke="#FEF2EB"/>
<path d="M53.3753 224.607C53.3753 224.607 38.2153 172.583 87.7113 137.375L183.295 81.6945C183.295 81.6945 216.081 66.1715 223.195 103.039C223.195 103.039 227.523 139.484 204.635 161.503L130.395 215.327L114.623 245.947L99.7753 232.959C99.7753 232.959 67.6053 253.065 53.3753 224.607Z" fill="#202020" stroke="#FEF2EB"/>
<path d="M120.191 193.983L176.799 157.791C176.799 157.791 189.169 149.383 183.299 129.951C183.299 129.951 179.584 118.759 165.667 125.311C165.667 125.311 158.24 112.881 140.611 124.383C140.611 124.383 122.976 134.844 122.051 159.647C122.051 159.647 104.416 168.561 107.203 187.487C107.199 187.487 110.292 195.839 120.191 193.983Z" fill="#7AEBFC"/>
<path d="M144.416 130.184C155.032 123.452 164.397 126.733 165.15 138.03C165.933 149.776 157.15 165.224 145.75 171.961C134.609 178.546 125.759 173.926 125.759 162.187C125.759 150.881 134.024 136.774 144.416 130.184Z" fill="#202020"/>
<path d="M139.679 142.015L129.471 159.647L139.679 166.147L142.463 161.507L135.963 156.867L143.387 143.875L139.679 142.015Z" fill="#7AEBFC"/>
<path d="M146.175 157.791L149.887 159.647L159.167 142.947L148.959 136.447L146.175 141.087L153.599 144.799L146.175 157.791Z" fill="#7AEBFC"/>
<path d="M196.286 227.391C192.093 226.41 188.014 224.993 184.116 223.163C181.279 221.717 178.785 219.679 176.803 217.187C176.803 217.187 152.981 179.392 195.363 142.019L266.816 101.183C266.816 101.183 286.787 87.3735 308.465 113.804C308.465 113.804 316.306 131.132 312.288 145.727C312.288 145.727 306.717 173.201 289.088 183.775L275.168 191.199L264.958 212.543L252.858 203.857L222.27 221.823C222.27 221.823 206.804 232.031 196.286 227.391Z" fill="#202020" stroke="#FEF2EB"/>
<path d="M213.06 147.053L284.434 108.366C299.366 100.273 312.303 110.401 313.449 131.157C314.609 152.168 303.285 176.296 288.034 184.877L274.169 192.677L264.959 212.542L252.934 204.625L215.091 225.916C199.12 234.901 185.76 224.055 185.373 201.88C184.993 179.982 197.441 155.518 213.06 147.053Z" fill="#202020" stroke="#FEF2EB"/>
<path d="M349.764 564.132L349.748 564.141L349.733 564.151C345.705 566.937 341.668 567.162 338.625 566.69C337.102 566.453 335.83 566.041 334.941 565.69C334.497 565.514 334.149 565.353 333.914 565.238C333.797 565.18 333.708 565.134 333.649 565.102C333.62 565.087 333.598 565.075 333.584 565.067L333.569 565.059L333.569 565.058L333.567 565.057L282.59 535.394C281.635 534.383 281.408 533.466 281.525 532.665C281.649 531.82 282.169 531.008 282.87 530.278C283.566 529.555 284.399 528.955 285.067 528.534C285.399 528.325 285.687 528.161 285.89 528.051C285.992 527.996 286.072 527.954 286.127 527.927C286.154 527.913 286.174 527.903 286.188 527.896L286.203 527.889L286.206 527.887L286.206 527.887L286.206 527.887L286.206 527.887L286.221 527.88L286.236 527.871L333.564 500.959L333.564 500.959L333.575 500.953C335.586 499.745 337.857 499.033 340.198 498.877C342.531 498.721 344.867 499.122 347.014 500.045L396.157 527.87C398.121 529.159 399.095 530.328 399.507 531.316C399.911 532.285 399.794 533.132 399.456 533.853C399.111 534.591 398.53 535.2 398.014 535.633C397.759 535.848 397.527 536.013 397.36 536.124C397.276 536.18 397.209 536.222 397.164 536.249C397.142 536.262 397.125 536.272 397.114 536.279L397.103 536.285L397.101 536.286L397.101 536.286L397.101 536.286L397.101 536.286L397.101 536.286L397.092 536.292L349.764 564.132Z" stroke="#FEF2EB"/>
<path d="M349.764 544.645L349.748 544.654L349.733 544.664C345.705 547.45 341.668 547.675 338.625 547.202C337.102 546.966 335.83 546.554 334.941 546.202C334.497 546.027 334.149 545.866 333.914 545.751C333.797 545.693 333.708 545.647 333.649 545.615C333.62 545.6 333.598 545.588 333.584 545.58L333.569 545.572L333.569 545.571L333.567 545.57L282.59 515.907C281.635 514.896 281.408 513.979 281.525 513.178C281.649 512.332 282.169 511.52 282.87 510.79C283.566 510.067 284.399 509.467 285.067 509.046C285.399 508.837 285.687 508.673 285.89 508.563C285.992 508.508 286.072 508.466 286.127 508.439C286.154 508.425 286.174 508.415 286.188 508.408L286.203 508.401L286.206 508.399L286.206 508.399L286.206 508.399L286.206 508.399L286.221 508.392L286.236 508.383L333.564 481.471L333.564 481.471L333.575 481.465C335.586 480.257 337.857 479.545 340.198 479.389C342.531 479.233 344.867 479.634 347.014 480.557L396.157 508.383C398.121 509.672 399.095 510.841 399.507 511.829C399.911 512.798 399.794 513.645 399.456 514.366C399.111 515.104 398.53 515.713 398.014 516.146C397.759 516.361 397.527 516.526 397.36 516.637C397.276 516.693 397.209 516.735 397.164 516.762C397.142 516.775 397.125 516.785 397.114 516.792L397.103 516.798L397.101 516.799L397.101 516.799L397.101 516.799L397.101 516.799L397.101 516.799L397.092 516.805L349.764 544.645Z" stroke="#FEF2EB"/>
<path d="M349.764 525.157L349.748 525.166L349.733 525.176C345.705 527.962 341.668 528.187 338.625 527.715C337.102 527.478 335.83 527.066 334.941 526.715C334.497 526.539 334.149 526.378 333.914 526.263C333.797 526.205 333.708 526.159 333.649 526.127C333.62 526.112 333.598 526.1 333.584 526.092L333.569 526.084L333.569 526.083L333.567 526.082L282.59 496.419C281.635 495.408 281.408 494.491 281.525 493.69C281.649 492.844 282.169 492.032 282.87 491.302C283.566 490.579 284.399 489.979 285.067 489.558C285.399 489.349 285.687 489.185 285.89 489.075C285.992 489.02 286.072 488.978 286.127 488.951C286.154 488.937 286.174 488.927 286.188 488.92L286.203 488.913L286.206 488.911L286.206 488.911L286.206 488.911L286.206 488.911L286.221 488.904L286.236 488.895L333.564 461.983L333.564 461.983L333.575 461.977C335.586 460.769 337.857 460.057 340.198 459.901C342.531 459.745 344.867 460.146 347.014 461.069L396.157 488.895C398.121 490.184 399.095 491.353 399.507 492.341C399.911 493.31 399.794 494.157 399.456 494.878C399.111 495.616 398.53 496.225 398.014 496.658C397.759 496.873 397.527 497.038 397.36 497.149C397.276 497.205 397.209 497.247 397.164 497.274C397.142 497.287 397.125 497.297 397.114 497.304L397.103 497.31L397.101 497.311L397.101 497.311L397.101 497.311L397.101 497.311L397.101 497.311L397.092 497.317L349.764 525.157Z" stroke="#FEF2EB"/>
<path d="M280.422 462.479L281.35 474.543C281.35 474.543 280.763 477.666 283.206 479.183L334.246 508.883C334.246 508.883 340.928 512.47 347.238 508.883L397.35 479.183C398.249 478.808 399.005 478.156 399.506 477.321C400.007 476.486 400.227 475.512 400.134 474.543V462.479C400.134 462.479 400.634 459.106 394.566 455.979L349.093 430.003C346.946 428.491 344.421 427.604 341.8 427.44C339.179 427.277 336.564 427.842 334.245 429.075L286.922 456.911C286.922 456.911 280.112 460.778 280.422 462.479Z" fill="#202020" stroke="#FEF2EB"/>
<path d="M282.277 465.263L333.317 494.963C333.317 494.963 341.7 499.787 350.017 494.035L397.345 466.195C397.345 466.195 404.491 462.203 396.417 456.915L347.237 429.069C345.01 428.106 342.586 427.688 340.165 427.85C337.744 428.011 335.397 428.747 333.317 429.997L285.989 456.909C285.989 456.909 277.947 460.778 282.277 465.263Z" fill="#202020" stroke="#FEF2EB"/>
<path d="M340.942 472.717L345.121 469.946L361.139 472.717L356.264 463.717L360.442 461.639L367.407 474.791L363.925 476.869L340.942 472.717ZM320.742 466.484L356.96 456.791L359.745 458.869L324.228 468.561L320.742 466.484ZM316.567 449.169L320.049 447.091L342.335 451.246L338.853 454.017L323.531 451.246L328.406 460.246L324.228 463.021L316.567 449.169Z" fill="#B0D775"/>
<mask id="mask0_53_6652" style="mask-type:luminance" maskUnits="userSpaceOnUse" x="230" y="140" width="44" height="53">
<path d="M273.702 144.738L235.978 140.758L230.954 188.364L268.678 192.345L273.702 144.738Z" fill="white"/>
</mask>
<g mask="url(#mask0_53_6652)">
<path d="M250.185 142.376C250.387 142.309 250.602 142.293 250.811 142.33C251.02 142.368 251.216 142.457 251.382 142.589C251.548 142.722 251.678 142.893 251.761 143.089C251.844 143.284 251.876 143.497 251.856 143.709L252.846 159.883C252.88 160.386 252.759 160.887 252.502 161.319C252.244 161.752 251.86 162.096 251.402 162.306C251.201 162.372 250.986 162.388 250.777 162.351C250.568 162.313 250.371 162.224 250.206 162.092C250.04 161.96 249.909 161.788 249.827 161.592C249.744 161.397 249.712 161.184 249.732 160.972L248.745 144.798C248.711 144.296 248.831 143.795 249.088 143.362C249.345 142.93 249.728 142.586 250.185 142.376Z" fill="#B0D775"/>
<path d="M251.475 159.812C254.471 158.763 257.067 160.633 257.272 163.989C257.343 165.675 256.897 167.342 255.994 168.768C255.091 170.193 253.774 171.308 252.22 171.965C249.221 173.015 246.625 171.144 246.423 167.788C246.353 166.103 246.799 164.435 247.701 163.01C248.604 161.584 249.921 160.469 251.475 159.812Z" fill="#B0D775"/>
<path d="M267.176 146.197C267.443 146.614 267.569 147.105 267.536 147.599C267.503 148.092 267.313 148.562 266.993 148.94L256.736 162.245C256.127 163.038 255.187 163.241 254.636 162.698C254.601 162.663 254.568 162.626 254.539 162.587C254.272 162.17 254.146 161.679 254.179 161.186C254.212 160.692 254.402 160.222 254.722 159.844L264.977 146.539C265.585 145.745 266.525 145.541 267.078 146.083C267.113 146.118 267.146 146.155 267.177 146.194" fill="#B0D775"/>
<path d="M234.327 157.695C234.087 158.101 234.007 158.581 234.1 159.043C234.193 159.505 234.454 159.916 234.832 160.198L246.247 165.913C246.654 166.043 247.096 166.011 247.481 165.824C247.866 165.638 248.164 165.31 248.315 164.909C248.344 164.854 248.37 164.797 248.395 164.739C248.634 164.333 248.715 163.853 248.622 163.391C248.529 162.929 248.269 162.518 247.891 162.236L236.475 156.517C236.068 156.388 235.627 156.42 235.242 156.607C234.858 156.794 234.56 157.121 234.41 157.521C234.381 157.578 234.354 157.636 234.33 157.695" fill="#B0D775"/>
<path d="M271.698 163.707C271.835 162.656 271.25 161.86 270.365 161.898L257.06 163.121C256.593 163.23 256.172 163.483 255.858 163.845C255.544 164.208 255.352 164.66 255.31 165.138C255.307 165.163 255.305 165.188 255.302 165.214C255.167 166.264 255.754 167.062 256.637 167.022L269.946 165.8C270.412 165.69 270.832 165.436 271.145 165.074C271.459 164.712 271.65 164.26 271.691 163.783C271.694 163.758 271.695 163.732 271.698 163.707Z" fill="#B0D775"/>
<path d="M262.105 183.38C262.463 183.028 262.705 182.574 262.799 182.081C262.893 181.587 262.834 181.077 262.629 180.618L255.669 168.331C255.57 168.157 255.431 168.01 255.264 167.901C255.096 167.793 254.905 167.726 254.706 167.707C254.508 167.688 254.307 167.717 254.122 167.792C253.937 167.866 253.772 167.984 253.642 168.136C253.603 168.169 253.565 168.204 253.529 168.24C253.17 168.592 252.928 169.045 252.834 169.538C252.74 170.032 252.8 170.542 253.004 171.001L259.962 183.288C260.061 183.462 260.2 183.609 260.368 183.717C260.536 183.825 260.727 183.892 260.925 183.911C261.124 183.93 261.324 183.901 261.51 183.826C261.695 183.751 261.859 183.633 261.989 183.482C262.029 183.448 262.067 183.413 262.101 183.375" fill="#B0D775"/>
<path d="M232.259 177.517C232.154 177.02 232.198 176.503 232.387 176.031C232.576 175.56 232.901 175.155 233.32 174.869L246.212 166.918C246.377 166.797 246.569 166.718 246.772 166.691C246.974 166.663 247.18 166.687 247.371 166.76C247.562 166.833 247.732 166.953 247.864 167.109C247.997 167.265 248.088 167.451 248.129 167.652C248.135 167.673 248.139 167.697 248.145 167.719C248.25 168.215 248.206 168.732 248.017 169.204C247.828 169.675 247.503 170.08 247.084 170.366L234.192 178.317C234.028 178.439 233.835 178.517 233.632 178.545C233.43 178.573 233.223 178.549 233.032 178.476C232.841 178.403 232.671 178.283 232.539 178.128C232.406 177.972 232.315 177.785 232.274 177.585C232.268 177.563 232.265 177.539 232.259 177.517Z" fill="#B0D775"/>
<path d="M244.085 189.74C243.878 189.647 243.691 189.513 243.537 189.347C243.382 189.18 243.263 188.985 243.185 188.772C243.107 188.558 243.073 188.332 243.084 188.105C243.096 187.878 243.152 187.656 243.251 187.452L248.452 170.912C248.546 170.471 248.787 170.075 249.136 169.788C249.485 169.502 249.921 169.343 250.372 169.336C250.413 169.341 250.454 169.348 250.494 169.358C250.702 169.451 250.888 169.585 251.043 169.752C251.198 169.918 251.317 170.114 251.395 170.328C251.473 170.542 251.507 170.769 251.495 170.996C251.484 171.223 251.427 171.446 251.328 171.65L246.127 188.187C246.032 188.628 245.791 189.024 245.443 189.31C245.094 189.596 244.659 189.756 244.208 189.763C244.166 189.758 244.125 189.75 244.085 189.74Z" fill="#B0D775"/>
<path d="M251.073 153.298C244.896 155.43 240.214 162.773 240.605 169.699C240.996 176.625 246.328 180.509 252.504 178.376C258.68 176.243 263.364 168.901 262.973 161.975L262.97 161.921C262.555 155.02 257.233 151.163 251.072 153.297M250.84 149.437C258.917 146.567 265.939 151.569 266.526 160.606C267.113 169.642 261.04 179.29 252.964 182.157C244.887 185.025 237.864 180.024 237.277 170.989L237.273 170.919C236.705 161.892 242.778 152.279 250.84 149.437Z" fill="#B0D775"/>
</g>
<path d="M266.098 250.172C267.152 250.786 268.174 251.451 269.16 252.167C269.66 234.02 282.72 226.778 298.809 236.067C302.143 238.027 305.235 240.373 308.021 243.055C314.142 236.032 324.538 235.055 336.367 241.896C354.406 252.308 369.132 276.983 370.355 298.163C373.795 298.922 377.09 300.227 380.116 302.029C397.751 312.209 412.048 336.971 412.048 357.33C412.048 358.315 411.994 359.251 411.921 360.188C410.628 378.438 396.9 385.469 380.116 375.778L266.098 309.95C251.804 301.69 240.217 281.622 240.217 265.118C240.217 248.613 251.806 241.92 266.098 250.172Z" fill="#00B8D4" stroke="#FEF2EB"/>
<path d="M332.065 228.151L336.15 225.791C342.373 221.662 351.232 221.928 361.094 227.624C379.13 238.036 393.855 262.711 395.082 283.891L370.347 298.185C369.118 277.005 354.392 252.33 336.359 241.918C327.408 236.747 319.276 236.048 313.2 239.059L332.065 228.151Z" fill="#202020" stroke="#FEF2EB"/>
<path d="M272.366 234.177C274.85 232.739 277.723 232.122 280.577 232.411L278.083 233.853C272.769 236.791 269.402 243.122 269.154 252.168C268.154 251.45 267.131 250.774 266.092 250.173C258.986 246.073 252.551 245.663 247.872 248.318L272.366 234.177Z" fill="#202020" stroke="#FEF2EB"/>
<path d="M404.852 287.759C422.487 297.939 436.781 322.701 436.781 343.06C436.781 344.045 436.73 344.981 436.654 345.902C436.054 354.41 432.744 360.476 427.687 363.551L427.652 363.57L427.474 363.669L402.953 377.824C408.01 374.749 411.316 368.682 411.92 360.176C411.993 359.255 412.047 358.317 412.047 357.316C412.047 336.952 397.753 312.193 380.114 302.017C377.088 300.214 373.793 298.909 370.353 298.151L395.088 283.857C398.531 284.627 401.827 285.944 404.852 287.759Z" fill="#202020" stroke="#FEF2EB"/>
<path d="M280.581 232.414L302.568 219.708C307.933 216.601 315.337 217.037 323.532 221.766C326.598 223.565 329.457 225.695 332.057 228.119L313.192 239.01C311.22 240.008 309.464 241.387 308.027 243.066C305.241 240.384 302.149 238.038 298.815 236.079C290.747 231.422 283.441 230.924 278.098 233.856L280.581 232.414Z" fill="#202020" stroke="#FEF2EB"/>
<path d="M344.017 302.685L302.149 278.513V268.091L344.017 292.264V302.685Z" fill="#202020" stroke="#FEF2EB" stroke-linecap="round" stroke-linejoin="round"/>
<path d="M345.907 301.596L344.087 302.645L344.017 302.685V292.264L345.907 291.171V301.596Z" fill="#202020" stroke="#FEF2EB" stroke-linecap="round" stroke-linejoin="round"/>
<path d="M345.907 291.17L344.017 292.263L302.149 268.091L304.039 267.001L345.907 291.17Z" fill="#202020" stroke="#FEF2EB" stroke-linecap="round" stroke-linejoin="round"/>
<path d="M304.239 278.653L304.922 280.114L311.491 283.907L312.908 283.246L309.608 276.153L304.239 278.653Z" fill="#FEF2EB"/>
<path d="M309.937 277.788C309.887 276.862 309.62 275.961 309.156 275.157C308.693 274.353 308.046 273.67 307.269 273.163C307.01 272.979 306.71 272.862 306.394 272.823C306.079 272.783 305.759 272.823 305.462 272.937L305.386 272.982L301.651 275.138L305.285 281.758L309.097 279.558C309.385 279.368 309.616 279.103 309.764 278.791C309.912 278.479 309.972 278.132 309.937 277.788Z" fill="#202020" stroke="#FEF2EB"/>
<path d="M300.767 276.908C300.767 275.208 301.961 274.515 303.435 275.366C304.212 275.873 304.859 276.556 305.322 277.36C305.786 278.164 306.053 279.065 306.103 279.991C306.103 281.691 304.909 282.384 303.435 281.533C302.658 281.026 302.012 280.343 301.548 279.539C301.085 278.735 300.817 277.834 300.767 276.908Z" fill="#202020" stroke="#FEF2EB"/>
<path d="M312.155 283.223L312.835 284.681L319.407 288.481L320.824 287.82L317.524 280.727L312.155 283.223Z" fill="#FEF2EB"/>
<path d="M317.834 282.357C317.784 281.431 317.516 280.53 317.053 279.727C316.589 278.924 315.943 278.241 315.166 277.735C314.907 277.55 314.607 277.434 314.291 277.394C313.976 277.355 313.656 277.394 313.359 277.509L313.283 277.553L309.547 279.714L313.181 286.33L316.993 284.13C317.285 283.942 317.518 283.676 317.666 283.363C317.815 283.05 317.873 282.701 317.834 282.357Z" fill="#202020" stroke="#FEF2EB"/>
<path d="M308.679 281.477C308.679 279.777 309.879 279.085 311.35 279.936C312.127 280.442 312.774 281.125 313.237 281.929C313.701 282.733 313.968 283.634 314.018 284.561C314.018 286.261 312.824 286.953 311.35 286.102C310.574 285.594 309.928 284.91 309.464 284.107C309 283.304 308.731 282.403 308.679 281.477Z" fill="#202020" stroke="#FEF2EB"/>
<path d="M320.07 287.792L320.75 289.253L327.322 293.046L328.739 292.384L325.439 285.292L320.07 287.792Z" fill="#FEF2EB"/>
<path d="M325.75 286.928C325.7 286.001 325.432 285.099 324.967 284.296C324.503 283.492 323.857 282.809 323.079 282.303C322.821 282.12 322.521 282.004 322.208 281.964C321.894 281.925 321.575 281.963 321.279 282.077L321.2 282.122L317.465 284.279L321.099 290.895L324.911 288.695C325.202 288.507 325.434 288.243 325.582 287.93C325.73 287.618 325.789 287.271 325.75 286.928Z" fill="#202020" stroke="#FEF2EB"/>
<path d="M316.605 286.048C316.605 284.348 317.799 283.656 319.276 284.507C320.054 285.012 320.7 285.695 321.164 286.498C321.628 287.301 321.895 288.202 321.944 289.129C321.944 290.829 320.75 291.521 319.276 290.67C318.499 290.163 317.852 289.481 317.388 288.678C316.924 287.875 316.656 286.974 316.605 286.048Z" fill="#202020" stroke="#FEF2EB"/>
<path d="M327.986 292.362L328.666 293.823L335.235 297.616L336.655 296.955L333.355 289.862L327.986 292.362Z" fill="#FEF2EB"/>
<path d="M333.665 291.497C333.615 290.571 333.346 289.669 332.882 288.866C332.418 288.062 331.771 287.379 330.994 286.872C330.735 286.689 330.434 286.572 330.119 286.532C329.804 286.493 329.484 286.533 329.187 286.647L329.111 286.691L325.376 288.849L328.994 295.462L332.806 293.261C333.103 293.08 333.341 292.817 333.493 292.505C333.645 292.192 333.705 291.843 333.665 291.497Z" fill="#202020" stroke="#FEF2EB"/>
<path d="M324.511 290.614C324.511 288.914 325.705 288.222 327.179 289.073C327.956 289.58 328.603 290.263 329.067 291.067C329.531 291.87 329.8 292.772 329.85 293.698C329.85 295.398 328.656 296.09 327.179 295.239C326.402 294.733 325.755 294.05 325.291 293.246C324.828 292.443 324.561 291.541 324.511 290.614Z" fill="#202020" stroke="#FEF2EB"/>
<path d="M341.577 296.063C341.527 295.137 341.259 294.236 340.796 293.433C340.332 292.63 339.686 291.947 338.909 291.441C338.65 291.257 338.349 291.14 338.034 291.1C337.719 291.061 337.399 291.1 337.102 291.215L337.026 291.259L333.291 293.416L336.934 300.026L340.746 297.826C341.034 297.637 341.265 297.373 341.411 297.062C341.558 296.75 341.616 296.405 341.577 296.063Z" fill="#202020" stroke="#FEF2EB"/>
<path d="M332.426 295.186C332.426 293.486 333.62 292.794 335.094 293.645C335.872 294.151 336.518 294.834 336.982 295.638C337.446 296.441 337.715 297.343 337.765 298.27C337.765 299.97 336.565 300.662 335.094 299.811C334.317 299.304 333.671 298.621 333.207 297.817C332.744 297.013 332.476 296.112 332.426 295.186Z" fill="#202020" stroke="#FEF2EB"/>
<path d="M335.095 296.727L328.475 300.539C327.647 301.018 326.959 301.706 326.481 302.535C326.002 303.364 325.75 304.304 325.75 305.262V321.779M327.179 292.159L320.559 295.971C319.731 296.449 319.042 297.138 318.564 297.967C318.086 298.796 317.834 299.736 317.834 300.694V317.211M319.267 287.588L312.647 291.4C311.819 291.881 311.133 292.572 310.656 293.402C310.18 294.233 309.931 295.175 309.934 296.133V312.65M311.351 283.017L304.731 286.829C303.898 287.306 303.207 287.996 302.726 288.827C302.245 289.658 301.992 290.601 301.993 291.562V308.08M303.435 278.45L296.815 282.262C295.986 282.74 295.297 283.429 294.818 284.258C294.339 285.087 294.087 286.027 294.086 286.985V303.5" stroke="#FEF2EB" stroke-width="3" stroke-linecap="round" stroke-linejoin="round"/>
<path d="M339.221 376.134C339.221 377.366 338.347 377.868 337.283 377.255L272.166 339.655C271.603 339.286 271.135 338.79 270.798 338.207C270.462 337.624 270.267 336.97 270.229 336.298V287.178C270.229 285.949 271.103 285.444 272.17 286.06L337.287 323.66C337.851 324.029 338.319 324.526 338.656 325.11C338.992 325.693 339.187 326.348 339.225 327.021L339.221 376.134Z" fill="#FEF2EB"/>
<path d="M338.744 322.815L273.627 285.215C273.43 285.069 273.197 284.98 272.954 284.959C272.71 284.937 272.465 284.982 272.245 285.091L270.863 285.898C271.078 285.814 271.31 285.785 271.538 285.813C271.767 285.841 271.985 285.926 272.172 286.06L337.289 323.66C337.852 324.029 338.321 324.526 338.658 325.11C338.994 325.693 339.189 326.348 339.227 327.021V376.134C339.252 376.373 339.213 376.614 339.114 376.833C339.015 377.052 338.861 377.241 338.665 377.382L340.056 376.575C340.275 376.444 340.451 376.254 340.564 376.025C340.676 375.797 340.721 375.541 340.691 375.289V326.173C340.653 325.5 340.456 324.845 340.118 324.262C339.78 323.679 339.309 323.183 338.744 322.816V322.815Z" fill="#202020" stroke="#FEF2EB"/>
<path d="M272.16 288.295V336.645L337.28 374.245V325.894L272.16 288.295Z" fill="#202020" stroke="#FEF2EB"/>
<path d="M293.121 403.6C292.52 403.904 291.856 404.062 291.182 404.062C290.509 404.062 289.844 403.904 289.243 403.6L224.126 366C223.893 365.923 223.69 365.773 223.547 365.574C223.403 365.374 223.326 365.135 223.326 364.889C223.326 364.643 223.403 364.404 223.547 364.204C223.69 364.005 223.893 363.855 224.126 363.777L268.513 338.15C269.114 337.847 269.779 337.688 270.452 337.688C271.126 337.688 271.79 337.847 272.391 338.15L337.507 375.75C337.741 375.828 337.944 375.977 338.088 376.177C338.232 376.377 338.309 376.616 338.309 376.862C338.309 377.109 338.232 377.348 338.088 377.548C337.944 377.748 337.741 377.897 337.507 377.974L293.121 403.6Z" fill="#202020" stroke="#FEF2EB"/>
<path d="M310.004 365.146L306.818 363.307L308.412 362.389L311.595 364.229L310.004 365.146Z" fill="#202020" stroke="#FEF2EB"/>
<path d="M272.456 343.467L269.27 341.632L270.865 340.711L274.047 342.551L272.456 343.467Z" fill="#202020" stroke="#FEF2EB"/>
<path d="M277.82 346.564L274.634 344.725L276.225 343.807L279.411 345.646L277.82 346.564Z" fill="#202020" stroke="#FEF2EB"/>
<path d="M283.183 349.661L280 347.823L281.591 346.904L284.777 348.744L283.183 349.661Z" fill="#202020" stroke="#FEF2EB"/>
<path d="M288.547 352.758L285.361 350.919L286.956 350.001L290.139 351.841L288.547 352.758Z" fill="#202020" stroke="#FEF2EB"/>
<path d="M293.912 355.856L290.726 354.017L292.317 353.099L295.503 354.939L293.912 355.856Z" fill="#202020" stroke="#FEF2EB"/>
<path d="M299.271 358.953L296.088 357.114L297.679 356.195L300.865 358.035L299.271 358.953Z" fill="#202020" stroke="#FEF2EB"/>
<path d="M304.64 362.049L301.457 360.211L303.048 359.292L306.231 361.132L304.64 362.049Z" fill="#202020" stroke="#FEF2EB"/>
<path d="M315.366 368.244L312.183 366.405L313.774 365.487L316.96 367.327L315.366 368.244Z" fill="#202020" stroke="#FEF2EB"/>
<path d="M320.731 371.341L317.548 369.502L319.139 368.583L322.322 370.419L320.731 371.341Z" fill="#202020" stroke="#FEF2EB"/>
<path d="M326.096 374.438L322.91 372.599L324.504 371.68L327.687 373.516L326.096 374.438Z" fill="#202020" stroke="#FEF2EB"/>
<path d="M331.461 377.534L328.275 375.695L329.866 374.775L333.052 376.614L331.461 377.534Z" fill="#202020" stroke="#FEF2EB"/>
<path d="M269.632 348.033L263.908 344.726L267.091 342.887L272.818 346.194L269.632 348.033Z" fill="#202020" stroke="#FEF2EB"/>
<path d="M266.671 352.26L258.765 347.697L261.951 345.857L269.851 350.421L266.671 352.26Z" fill="#202020" stroke="#FEF2EB"/>
<path d="M263.485 356.615L253.4 350.794L256.586 348.955L266.668 354.776L263.485 356.615Z" fill="#202020" stroke="#FEF2EB"/>
<path d="M252.638 357.844L246.911 354.544L251.221 352.055L256.948 355.354L252.638 357.844Z" fill="#202020" stroke="#FEF2EB"/>
<path d="M260.537 362.409L254.813 359.102L259.123 356.615L264.85 359.915L260.537 362.409Z" fill="#202020" stroke="#FEF2EB"/>
<path d="M268.447 366.974L262.72 363.667L267.034 361.18L272.758 364.48L268.447 366.974Z" fill="#202020" stroke="#FEF2EB"/>
<path d="M295.701 382.71L289.977 379.403L294.287 376.916L300.014 380.216L295.701 382.71Z" fill="#202020" stroke="#FEF2EB"/>
<path d="M309.099 390.443L297.87 383.96L302.18 381.47L313.412 387.953L309.099 390.443Z" fill="#202020" stroke="#FEF2EB"/>
<path d="M287.81 378.154L270.626 368.231L274.936 365.741L292.124 375.664L287.81 378.154Z" fill="#202020" stroke="#FEF2EB"/>
<path d="M276.499 351.995L271.811 349.289L274.997 347.451L279.682 350.156L276.499 351.995Z" fill="#202020" stroke="#FEF2EB"/>
<path d="M273.535 356.221L268.85 353.521L272.033 351.682L276.721 354.382L273.535 356.221Z" fill="#202020" stroke="#FEF2EB"/>
<path d="M270.498 360.494L265.81 357.787L268.996 355.948L273.681 358.654L270.498 360.494Z" fill="#202020" stroke="#FEF2EB"/>
<path d="M277.368 364.457L272.683 361.75L275.866 359.911L280.554 362.617L277.368 364.457Z" fill="#202020" stroke="#FEF2EB"/>
<path d="M284.227 368.419L279.542 365.719L282.725 363.88L287.413 366.586L284.227 368.419Z" fill="#202020" stroke="#FEF2EB"/>
<path d="M291.091 372.383L286.406 369.682L289.592 367.844L294.277 370.544L291.091 372.383Z" fill="#202020" stroke="#FEF2EB"/>
<path d="M297.955 376.348L293.27 373.642L296.456 371.803L301.141 374.509L297.955 376.348Z" fill="#202020" stroke="#FEF2EB"/>
<path d="M304.823 380.31L300.138 377.604L303.321 375.766L308.006 378.471L304.823 380.31Z" fill="#202020" stroke="#FEF2EB"/>
<path d="M315.737 386.612L307.002 381.568L310.185 379.729L318.92 384.773L315.737 386.612Z" fill="#202020" stroke="#FEF2EB"/>
<path d="M280.4 360.185L275.715 357.485L278.901 355.646L283.586 358.346L280.4 360.185Z" fill="#202020" stroke="#FEF2EB"/>
<path d="M287.267 364.148L282.579 361.443L285.765 359.604L290.45 362.31L287.267 364.148Z" fill="#202020" stroke="#FEF2EB"/>
<path d="M294.132 368.112L289.447 365.406L292.63 363.568L297.315 366.273L294.132 368.112Z" fill="#202020" stroke="#FEF2EB"/>
<path d="M301.001 372.078L296.316 369.372L299.499 367.533L304.187 370.239L301.001 372.078Z" fill="#202020" stroke="#FEF2EB"/>
<path d="M307.86 376.039L303.175 373.339L306.361 371.5L311.046 374.206L307.86 376.039Z" fill="#202020" stroke="#FEF2EB"/>
<path d="M320.953 383.599L310.039 377.299L313.225 375.46L324.139 381.76L320.953 383.599Z" fill="#202020" stroke="#FEF2EB"/>
<path d="M283.363 355.96L278.678 353.255L281.861 351.416L286.546 354.122L283.363 355.96Z" fill="#202020" stroke="#FEF2EB"/>
<path d="M290.232 359.921L285.547 357.221L288.73 355.382L293.418 358.082L290.232 359.921Z" fill="#202020" stroke="#FEF2EB"/>
<path d="M297.092 363.885L292.407 361.18L295.593 359.344L300.278 362.049L297.092 363.885Z" fill="#202020" stroke="#FEF2EB"/>
<path d="M303.956 367.85L299.271 365.144L302.457 363.305L307.141 366.015L303.956 367.85Z" fill="#202020" stroke="#FEF2EB"/>
<path d="M310.823 371.814L306.135 369.108L309.321 367.269L314.006 369.975L310.823 371.814Z" fill="#202020" stroke="#FEF2EB"/>
<path d="M317.687 375.782L313.002 373.076L316.185 371.237L320.873 373.943L317.687 375.782Z" fill="#202020" stroke="#FEF2EB"/>
<path d="M326.097 380.633L319.868 377.033L323.054 375.194L329.28 378.794L326.097 380.633Z" fill="#202020" stroke="#FEF2EB"/>
<path d="M329.132 372.685L277.671 342.973L279.218 342.08L330.679 371.792L329.132 372.685Z" fill="#FEF2EB"/>
<path d="M287.811 381.991L261.551 366.83L245.231 376.25L271.494 391.411L287.811 381.991Z" stroke="#FEF2EB"/>
<path d="M337.511 377.973L293.121 403.601C292.15 404.096 291.027 404.209 289.976 403.919C289.726 403.826 289.481 403.719 289.242 403.601L224.125 366.001C224.053 365.961 223.984 365.917 223.919 365.868L223.871 365.83C223.833 365.798 223.795 365.77 223.763 365.738L223.712 365.69C223.673 365.652 223.636 365.611 223.601 365.569C223.565 365.521 223.531 365.471 223.501 365.42C223.416 365.278 223.367 365.118 223.358 364.953V365.906C223.377 366.148 223.46 366.381 223.6 366.58C223.74 366.779 223.93 366.937 224.152 367.037L289.269 404.637C290.676 405.216 292.219 405.382 293.716 405.113C294.386 404.954 294.971 404.795 295.663 404.652L337.544 380.47C337.767 380.37 337.959 380.212 338.1 380.013C338.241 379.813 338.325 379.579 338.344 379.336V376.873C338.302 377.109 338.205 377.331 338.06 377.523C337.915 377.714 337.727 377.868 337.511 377.973Z" fill="#202020" stroke="#FEF2EB"/>
<path d="M304.452 346.228C304.187 346.098 303.959 345.902 303.79 345.66C303.723 345.553 303.665 345.442 303.616 345.327C303.562 345.2 303.521 345.068 303.492 344.934C303.425 344.574 303.394 344.209 303.399 343.844C303.333 343.813 303.266 343.78 303.199 343.744C301.257 342.644 299.691 339.165 299.707 335.957C299.723 332.749 301.325 331.032 303.279 332.157C305.233 333.282 306.779 336.774 306.75 339.967C306.728 342.451 305.757 344.025 304.412 344.078V344.158C304.409 344.355 304.418 344.552 304.44 344.748C304.455 344.886 304.484 345.022 304.526 345.155C304.555 345.247 304.6 345.333 304.658 345.41C304.699 345.461 304.75 345.502 304.808 345.532C304.846 345.558 304.891 345.573 304.938 345.573C304.984 345.573 305.029 345.558 305.067 345.532C305.167 345.475 305.214 344.997 305.261 344.832L305.544 345.188C305.495 345.422 305.423 345.652 305.33 345.873C305.265 345.997 305.176 346.108 305.067 346.198C304.982 346.266 304.877 346.307 304.767 346.313H304.743C304.641 346.309 304.541 346.28 304.452 346.228ZM304.43 342.285C305.213 342.022 305.75 340.96 305.763 339.397C305.782 337.106 304.668 334.597 303.272 333.797C301.872 332.997 300.727 334.219 300.714 336.522C300.701 338.825 301.822 341.322 303.214 342.106C303.279 342.142 303.346 342.176 303.414 342.206L303.436 339.006L302.755 338.619C303.156 338.534 303.523 338.334 303.812 338.045C304.175 337.688 304.408 337.221 304.473 336.717L304.457 338.844L305.457 339.414L305.451 340.151L304.451 339.582L304.43 342.285ZM312.494 337.085L308.362 319.269C308.152 318.362 308.362 317.554 308.833 317.469L311.223 317.016C311.692 316.927 312.241 317.59 312.448 318.496L316.527 336.296C316.727 337.18 316.519 337.97 316.057 338.062L313.704 338.53C313.675 338.535 313.644 338.538 313.614 338.539C313.174 338.529 312.682 337.913 312.495 337.085H312.494ZM287.034 336.923L285.056 328.964C284.873 328.229 285.039 327.573 285.427 327.498C285.815 327.423 286.276 327.96 286.457 328.698L286.782 330.023L289.322 329.533C289.753 329.452 290.265 330.05 290.465 330.868L291.039 333.21V333.217C291.239 334.032 291.051 334.758 290.621 334.84L288.091 335.334L288.417 336.651V336.658C288.596 337.384 288.429 338.032 288.044 338.106C288.024 338.109 288.003 338.111 287.982 338.112C287.615 338.112 287.202 337.603 287.034 336.923ZM302.047 329.847L300.553 323.556C300.34 322.642 300.553 321.828 301.025 321.729L306.358 320.712C306.836 320.627 307.393 321.301 307.603 322.212L310.516 334.712C310.716 335.612 310.51 336.412 310.043 336.512L307.416 337.031C306.499 333.14 304.227 330.09 302.047 329.847ZM293.035 335.475L291.221 328.052C291.012 327.177 291.211 326.399 291.667 326.302L298.567 324.977C299.025 324.899 299.567 325.533 299.775 326.404L300.663 330.126C299.271 330.916 298.501 333.173 298.651 336.019L294.246 336.884C294.22 336.888 294.192 336.891 294.165 336.891C293.728 336.891 293.238 336.289 293.035 335.475Z" fill="#7AEBFC"/>
<path d="M70.2473 362.015V551.885C70.2473 551.885 9.39425 494.928 0.703247 460.838V288.515C0.703247 288.515 32.7613 332.915 70.2473 362.015Z" stroke="#FEF2EB"/>
<path d="M298.352 441.811V616.377C298.352 616.377 167.637 620.462 70.1702 551.762V362.011C70.1702 362.011 146.537 427.762 298.352 441.811Z" fill="#202020" stroke="#FEF2EB"/>
<path d="M101.103 437.229C98.8977 437.229 97.1033 439.023 97.1033 441.229V540.229C97.1033 542.434 98.8977 544.229 101.103 544.229C103.309 544.229 105.103 542.434 105.103 540.229V441.229C105.103 439.023 103.309 437.229 101.103 437.229ZM101.103 436.229C103.865 436.229 106.103 438.467 106.103 441.229V540.229C106.103 542.99 103.865 545.229 101.103 545.229C98.3418 545.229 96.1033 542.99 96.1033 540.229V441.229C96.1033 438.467 98.3418 436.229 101.103 436.229Z" fill="#FEF2EB"/>
<path d="M122.103 459.229C119.898 459.229 118.103 461.023 118.103 463.229V551.229C118.103 553.434 119.898 555.229 122.103 555.229C124.309 555.229 126.103 553.434 126.103 551.229V463.229C126.103 461.023 124.309 459.229 122.103 459.229ZM122.103 458.229C124.865 458.229 127.103 460.467 127.103 463.229V551.229C127.103 553.99 124.865 556.229 122.103 556.229C119.342 556.229 117.103 553.99 117.103 551.229V463.229C117.103 460.467 119.342 458.229 122.103 458.229Z" fill="#FEF2EB"/>
<path d="M140.103 488.229C137.898 488.229 136.103 490.023 136.103 492.229V560.229C136.103 562.434 137.898 564.229 140.103 564.229C142.309 564.229 144.103 562.434 144.103 560.229V492.229C144.103 490.023 142.309 488.229 140.103 488.229ZM140.103 487.229C142.865 487.229 145.103 489.467 145.103 492.229V560.229C145.103 562.99 142.865 565.229 140.103 565.229C137.342 565.229 135.103 562.99 135.103 560.229V492.229C135.103 489.467 137.342 487.229 140.103 487.229Z" fill="#FEF2EB"/>
<path d="M161.103 513.229C158.898 513.229 157.103 515.023 157.103 517.229V568.229C157.103 570.434 158.898 572.229 161.103 572.229C163.309 572.229 165.103 570.434 165.103 568.229V517.229C165.103 515.023 163.309 513.229 161.103 513.229ZM161.103 512.229C163.865 512.229 166.103 514.467 166.103 517.229V568.229C166.103 570.99 163.865 573.229 161.103 573.229C158.342 573.229 156.103 570.99 156.103 568.229V517.229C156.103 514.467 158.342 512.229 161.103 512.229Z" fill="#FEF2EB"/>
<path d="M182.103 501.229C179.898 501.229 178.103 503.023 178.103 505.229V574.229C178.103 576.434 179.898 578.229 182.103 578.229C184.309 578.229 186.103 576.434 186.103 574.229V505.229C186.103 503.023 184.309 501.229 182.103 501.229ZM182.103 500.229C184.865 500.229 187.103 502.467 187.103 505.229V574.229C187.103 576.99 184.865 579.229 182.103 579.229C179.342 579.229 177.103 576.99 177.103 574.229V505.229C177.103 502.467 179.342 500.229 182.103 500.229Z" fill="#FEF2EB"/>
<path d="M206.103 494.229C203.898 494.229 202.103 496.023 202.103 498.229V580.229C202.103 582.434 203.898 584.229 206.103 584.229C208.309 584.229 210.103 582.434 210.103 580.229V498.229C210.103 496.023 208.309 494.229 206.103 494.229ZM206.103 493.229C208.865 493.229 211.103 495.467 211.103 498.229V580.229C211.103 582.99 208.865 585.229 206.103 585.229C203.342 585.229 201.103 582.99 201.103 580.229V498.229C201.103 495.467 203.342 493.229 206.103 493.229Z" fill="#FEF2EB"/>
<path d="M230.103 457.229C227.898 457.229 226.103 459.023 226.103 461.229V583.229C226.103 585.434 227.898 587.229 230.103 587.229C232.309 587.229 234.103 585.434 234.103 583.229V461.229C234.103 459.023 232.309 457.229 230.103 457.229ZM230.103 456.229C232.865 456.229 235.103 458.467 235.103 461.229V583.229C235.103 585.99 232.865 588.229 230.103 588.229C227.342 588.229 225.103 585.99 225.103 583.229V461.229C225.103 458.467 227.342 456.229 230.103 456.229Z" fill="#FEF2EB"/>
<path d="M90.2034 404.329V538.796C90.2034 538.796 162.237 590.329 262.003 590.329" stroke="#FEF2EB"/>
<path d="M43.8509 477.455C58.2176 474.663 66.4396 454.782 62.2153 433.049C57.991 411.317 42.9201 395.964 28.5534 398.756C14.1868 401.549 5.96475 421.43 10.1891 443.162C14.4134 464.894 29.4843 480.248 43.8509 477.455Z" fill="#202020"/>
<path d="M43.7556 476.964C57.8511 474.225 65.8961 454.606 61.7245 433.145C57.5529 411.684 42.7444 396.507 28.6488 399.247C14.5533 401.987 6.50828 421.606 10.6799 443.067C14.8515 464.528 29.66 479.704 43.7556 476.964Z" stroke="#FEF2EB"/>
<path d="M58.5413 422.329L33.5532 439.099L27.6414 399.174C27.6414 399.174 45.3752 394.645 57.5872 420.395L57.6414 420.511L58.5413 422.329Z" stroke="#FEF2EB"/>
</g>
<defs>
<clipPath id="clip0_53_6652">
<rect width="605.585" height="616.255" fill="white" transform="translate(0.203247 0.689453)"/>
</clipPath>
</defs>
</svg>
