<svg width="664" height="460" viewBox="0 0 664 460" fill="none" xmlns="http://www.w3.org/2000/svg">
<g clip-path="url(#clip0_53_6552)">
<path d="M424.091 72.0382C421.461 72.4722 420.698 76.7151 422.017 79.3801C422.874 80.1273 423.851 80.7253 424.906 81.1492C424.906 81.1492 433.227 84.5662 435.094 84.7102C436.961 84.8542 441.124 84.1322 441.453 80.9692C441.135 79.0152 439.493 78.4771 437.481 77.2801C434.856 75.7251 432.607 73.4642 430.491 72.4302C428.752 71.5792 424.091 72.0382 424.091 72.0382Z" fill="#262423"/>
<path d="M435.023 83.8552C433.103 83.7052 424.542 80.2011 424.542 80.2011C423.497 79.7727 422.522 79.1881 421.651 78.4672C421.747 78.7856 421.865 79.0967 422.005 79.3982C422.863 80.1452 423.84 80.7432 424.896 81.1671C424.896 81.1671 433.216 84.5841 435.083 84.7281C436.95 84.8721 441.113 84.1502 441.443 80.9872C441.432 80.9193 441.417 80.8524 441.396 80.7871C440.516 83.4101 436.786 84.0062 435.023 83.8552Z" fill="#262423"/>
<path d="M429.761 69.2231C427.846 69.7995 425.969 70.4986 424.143 71.3162C424.178 71.7384 424.104 72.1625 423.929 72.5482L423.828 72.7271C423.042 73.4901 422.21 74.8432 424.62 75.6182C429.303 77.0862 433.293 73.9472 431.455 72.8892C430.215 72.1662 429.919 70.2171 429.761 69.2231Z" fill="#262423"/>
<path d="M432.242 73.5071C431.895 73.0441 431.086 71.8071 429.652 72.8311C429.078 73.1808 428.617 73.6884 428.324 74.2933C428.03 74.8982 427.917 75.5748 427.998 76.2421C428.172 77.3121 431.253 76.5191 431.368 76.3581C431.483 76.1971 432.242 73.5071 432.242 73.5071Z" fill="#262423"/>
<path d="M401.351 85.1671C398.715 85.6011 397.956 89.8441 399.275 92.5091C400.133 93.2562 401.11 93.8542 402.166 94.2781C402.166 94.2781 410.479 97.6951 412.352 97.8391C414.225 97.9831 418.376 97.2901 418.712 94.0991C418.389 92.1451 416.752 91.6071 414.734 90.4101C412.115 88.8551 409.866 86.5941 407.75 85.5601C406.007 84.7281 401.351 85.1671 401.351 85.1671Z" fill="#262423"/>
<path d="M412.286 96.9852C410.361 96.8352 401.799 93.3262 401.799 93.3262C400.751 92.9003 399.776 92.3154 398.908 91.5922C398.998 91.9119 399.116 92.2233 399.26 92.5232C400.118 93.2702 401.095 93.8682 402.151 94.2922C402.151 94.2922 410.464 97.7091 412.338 97.8531C414.212 97.9971 418.362 97.3042 418.698 94.1122C418.688 94.0436 418.671 93.9765 418.646 93.9122C417.779 96.5402 414.044 97.1352 412.286 96.9852Z" fill="#262423"/>
<path d="M407.019 82.3522C405.103 82.9276 403.226 83.6267 401.4 84.4452C401.431 84.8688 401.358 85.2935 401.186 85.6822C401.15 85.7379 401.116 85.7956 401.087 85.8552C400.295 86.6182 399.462 87.9712 401.879 88.7462C406.556 90.2152 410.551 87.0752 408.707 86.0172C407.494 85.3062 407.181 83.3462 407.019 82.3522Z" fill="#262423"/>
<path d="M409.505 86.6362C409.158 86.1742 408.349 84.9361 406.915 85.9541C406.338 86.3036 405.875 86.8119 405.581 87.418C405.287 88.0241 405.174 88.7024 405.256 89.3712C405.429 90.4402 408.511 89.6482 408.633 89.4872C408.755 89.3262 409.505 86.6362 409.505 86.6362Z" fill="#262423"/>
<path d="M430.627 135.419L427.317 132.892L429.627 112.872L432.941 115.404L430.627 135.419Z" fill="#262423"/>
<path d="M433.457 110.96L430.145 108.428L431.689 95.0962L434.996 97.6281L433.457 110.96Z" fill="#262423"/>
<path d="M399.938 129.546L396.625 127.014L430.146 108.432L433.458 110.964L399.938 129.546Z" fill="#262423"/>
<path d="M435.511 93.1921L432.197 90.6602L433.741 77.3282L437.053 79.8601L435.511 93.1921Z" fill="#262423"/>
<path d="M401.991 111.774L398.678 109.242L432.198 90.6602L435.511 93.1921L401.991 111.774Z" fill="#262423"/>
<path d="M437.561 75.4261L434.25 72.8921L435.793 59.5601L439.105 62.0921L437.561 75.4261Z" fill="#262423"/>
<path d="M404.047 94.0081L400.734 91.4761L434.25 72.8951L437.562 75.4271L404.047 94.0081Z" fill="#262423"/>
<path d="M439.621 57.6541L436.308 55.1222L437.845 41.7902L441.158 44.3221L439.621 57.6541Z" fill="#262423"/>
<path d="M406.1 76.2321L402.788 73.7002L436.308 55.1222L439.62 57.6541L406.1 76.2321Z" fill="#262423"/>
<path d="M408.153 58.4641L404.839 55.9321L438.361 37.3561L441.672 39.8882L408.153 58.4641Z" fill="#262423"/>
<path d="M586.971 84.8381L472.245 18.5891C469.256 16.8454 465.829 16.0014 462.372 16.1584C458.916 16.3154 455.579 17.4667 452.761 19.4741L375.695 63.9561C378.322 62.719 381.21 62.1405 384.11 62.2705C387.01 62.4004 389.835 63.2351 392.341 64.7021L507.096 130.977C511.517 133.527 515.189 137.197 517.741 141.617C520.294 146.037 521.637 151.051 521.635 156.155V250.895L601.504 204.777V110.022C601.505 104.918 600.162 99.9031 597.61 95.4822C595.058 91.0614 591.388 87.39 586.967 84.8371L586.971 84.8381Z" fill="#262423" stroke="#FEF2EB" stroke-linecap="round" stroke-linejoin="round"/>
<path d="M365.186 80.3811V160.569L521.636 250.898V156.135C521.633 151.035 520.287 146.025 517.735 141.61C515.183 137.194 511.513 133.528 507.095 130.98L392.34 64.7021C389.589 63.1121 386.466 62.2748 383.288 62.2743C380.11 62.2738 376.988 63.1103 374.235 64.6995C371.483 66.2887 369.197 68.5747 367.609 71.3275C366.02 74.0803 365.184 77.2029 365.186 80.3811Z" fill="#262423" stroke="#FEF2EB" stroke-linecap="round" stroke-linejoin="round"/>
<path d="M335.487 102.483V190.065L471.187 268.414V181.381C471.188 177.726 470.227 174.136 468.4 170.97C466.574 167.805 463.946 165.176 460.781 163.349L345.419 96.7491C344.412 96.1672 343.27 95.8607 342.107 95.8604C340.945 95.86 339.802 96.1659 338.796 96.7473C337.789 97.3287 336.953 98.165 336.372 99.1721C335.791 100.179 335.486 101.321 335.487 102.483Z" fill="#FEF2EB"/>
<path d="M501.152 140.022L385.819 73.4221C384.792 72.8238 383.621 72.5159 382.433 72.5312C381.245 72.5465 380.083 72.8845 379.072 73.5092L338.857 96.7192C339.856 96.1455 340.989 95.846 342.141 95.8511C343.294 95.8562 344.424 96.1657 345.418 96.7482L460.777 163.356C463.94 165.184 466.567 167.813 468.393 170.979C470.218 174.144 471.178 177.734 471.176 181.388V268.415L511.577 245.093V158.06C511.577 154.403 510.614 150.81 508.784 147.643C506.953 144.476 504.321 141.848 501.152 140.022Z" fill="#00B8D4" stroke="#FEF2EB"/>
<path d="M466.192 154.574L351.414 88.3191C348.425 86.5776 344.997 85.7353 341.541 85.8931C338.085 86.051 334.748 87.2024 331.93 89.2091L254.911 133.686C257.539 132.453 260.427 131.876 263.328 132.006C266.228 132.136 269.053 132.968 271.56 134.432L386.315 200.687C390.736 203.24 394.406 206.911 396.958 211.332C399.511 215.752 400.855 220.767 400.856 225.871V320.61L480.731 274.493V179.753C480.731 174.648 479.388 169.633 476.836 165.211C474.283 160.79 470.612 157.118 466.19 154.566L466.192 154.574Z" fill="#262423" stroke="#FEF2EB"/>
<path d="M244.406 150.116V230.298L400.856 320.609V225.869C400.856 220.765 399.512 215.751 396.961 211.331C394.409 206.911 390.739 203.24 386.319 200.687L271.561 134.447C268.81 132.86 265.689 132.024 262.513 132.024C259.336 132.025 256.215 132.86 253.464 134.448C250.712 136.036 248.427 138.319 246.837 141.069C245.248 143.82 244.409 146.94 244.406 150.116Z" fill="#262423" stroke="#FEF2EB"/>
<path d="M214.707 172.213V259.801L350.408 338.15V251.111C350.409 247.456 349.447 243.866 347.62 240.701C345.794 237.535 343.166 234.907 340.001 233.079L224.639 166.479C223.632 165.898 222.49 165.591 221.327 165.591C220.165 165.591 219.023 165.897 218.016 166.478C217.009 167.059 216.174 167.896 215.593 168.903C215.012 169.91 214.706 171.052 214.707 172.214L214.707 172.213Z" fill="#FEF2EB"/>
<path d="M380.389 209.757L265.034 143.157C264.008 142.559 262.839 142.251 261.652 142.266C260.465 142.28 259.304 142.616 258.292 143.238L218.071 166.446C219.07 165.869 220.202 165.565 221.355 165.565C222.509 165.565 223.641 165.869 224.639 166.446L339.995 233.077C343.161 234.904 345.789 237.533 347.615 240.698C349.442 243.864 350.403 247.454 350.401 251.109V338.146L390.802 314.824V227.789C390.802 224.133 389.84 220.542 388.011 217.376C386.183 214.21 383.552 211.582 380.385 209.755L380.389 209.757Z" fill="#00B8D4" stroke="#FEF2EB"/>
<path d="M345.406 224.312L230.651 158.054C227.664 156.31 224.237 155.466 220.782 155.623C217.327 155.78 213.99 156.931 211.173 158.939L134.132 203.421C136.759 202.184 139.648 201.606 142.549 201.736C145.45 201.866 148.275 202.7 150.781 204.167L265.536 270.422C269.957 272.974 273.627 276.644 276.18 281.063C278.732 285.483 280.076 290.496 280.076 295.6V390.362L359.946 344.244V249.499C359.948 244.394 358.605 239.378 356.053 234.957C353.5 230.535 349.828 226.864 345.406 224.312Z" fill="#262423" stroke="#FEF2EB" stroke-linecap="round" stroke-linejoin="round"/>
<path d="M123.628 219.845V300.033L280.078 390.361V295.598C280.077 290.495 278.733 285.482 276.181 281.063C273.629 276.643 269.959 272.974 265.539 270.422L150.799 204.166C148.047 202.574 144.923 201.735 141.743 201.734C138.563 201.732 135.439 202.568 132.685 204.157C129.93 205.747 127.643 208.033 126.053 210.787C124.463 213.541 123.627 216.665 123.628 219.845Z" fill="#262423" stroke="#FEF2EB" stroke-linecap="round" stroke-linejoin="round"/>
<path d="M250.702 286.198L153.112 229.841C147.29 226.482 142.572 229.205 142.572 235.923V310.965L261.224 379.491V304.45C261.224 297.732 256.529 289.551 250.702 286.198Z" fill="#262423" stroke="#FEF2EB"/>
<path d="M261.224 304.45C261.224 297.732 256.512 289.55 250.685 286.198L207.538 261.286L6.62951 377.266C5.09943 378.27 3.82556 379.617 2.9099 381.202C1.99425 382.786 1.46225 384.562 1.3565 386.389C1.3565 388.297 2.11951 389.558 3.31051 389.989L121.211 458.059L125.304 445.785L261.224 367.314L261.224 304.45Z" fill="#262423" stroke="#FEF2EB"/>
<path d="M125.305 445.811C123.775 446.813 122.501 448.16 121.585 449.743C120.669 451.327 120.137 453.102 120.031 454.928C120.031 458.264 122.397 459.651 125.305 457.975L261.224 379.487V367.317L125.305 445.811Z" fill="#262423" stroke="#FEF2EB" stroke-linecap="round" stroke-linejoin="round"/>
<path d="M122.505 453.505C122.558 452.534 122.839 451.589 123.326 450.748C123.812 449.906 124.491 449.191 125.305 448.66C126.843 447.775 128.098 448.493 128.098 450.279C128.044 451.247 127.763 452.189 127.278 453.029C126.793 453.868 126.117 454.582 125.305 455.112C123.759 456.009 122.505 455.315 122.505 453.505ZM135.767 445.839C135.82 444.87 136.1 443.927 136.585 443.086C137.07 442.245 137.747 441.531 138.56 441C140.104 440.11 141.352 440.832 141.352 442.613C141.3 443.583 141.021 444.526 140.535 445.367C140.05 446.208 139.373 446.923 138.56 447.452C137.029 448.342 135.767 447.621 135.767 445.839ZM149.717 437.791C149.77 436.822 150.05 435.879 150.535 435.038C151.021 434.197 151.697 433.483 152.51 432.953C154.053 432.062 155.31 432.785 155.31 434.566C155.258 435.536 154.976 436.48 154.49 437.321C154.003 438.162 153.325 438.876 152.51 439.405C150.972 440.283 149.719 439.572 149.719 437.791H149.717ZM163.656 429.744C163.709 428.774 163.99 427.83 164.476 426.989C164.963 426.148 165.641 425.434 166.456 424.905C167.994 424.015 169.249 424.738 169.249 426.518C169.195 427.487 168.915 428.43 168.43 429.271C167.945 430.112 167.269 430.826 166.456 431.357C164.906 432.247 163.658 431.521 163.658 429.744H163.656ZM177.595 421.696C177.649 420.726 177.931 419.783 178.417 418.942C178.904 418.101 179.581 417.387 180.396 416.857C181.934 415.967 183.188 416.69 183.188 418.47C183.135 419.439 182.855 420.382 182.37 421.223C181.884 422.064 181.208 422.778 180.396 423.309C178.851 424.199 177.596 423.477 177.596 421.696H177.595ZM191.534 413.649C191.587 412.679 191.868 411.735 192.355 410.894C192.841 410.053 193.52 409.339 194.335 408.81C195.878 407.92 197.126 408.637 197.126 410.417C197.074 411.387 196.794 412.331 196.309 413.173C195.823 414.015 195.147 414.731 194.333 415.262C192.789 416.146 191.535 415.421 191.535 413.649H191.534ZM205.479 405.595C205.531 404.626 205.811 403.682 206.296 402.841C206.782 402 207.459 401.286 208.272 400.756C209.816 399.866 211.072 400.582 211.064 402.369C211.012 403.339 210.732 404.282 210.247 405.123C209.762 405.964 209.086 406.679 208.272 407.209C206.728 408.104 205.479 407.382 205.479 405.595ZM219.418 397.553C219.471 396.583 219.752 395.639 220.238 394.798C220.725 393.957 221.403 393.243 222.219 392.714C223.757 391.824 225.01 392.541 225.01 394.327C224.957 395.295 224.676 396.238 224.191 397.077C223.706 397.917 223.03 398.631 222.219 399.161C220.668 400.056 219.418 399.333 219.418 397.553ZM233.357 389.505C233.409 388.535 233.69 387.591 234.176 386.749C234.663 385.908 235.342 385.195 236.158 384.666C237.701 383.766 238.949 384.492 238.949 386.273C238.897 387.243 238.617 388.187 238.132 389.029C237.647 389.871 236.971 390.587 236.158 391.118C234.63 392.009 233.357 391.286 233.357 389.505ZM247.297 381.458C247.35 380.487 247.631 379.543 248.118 378.701C248.604 377.859 249.282 377.144 250.096 376.613C251.641 375.722 252.888 376.445 252.888 378.226C252.836 379.195 252.556 380.139 252.071 380.98C251.586 381.82 250.91 382.535 250.096 383.065C248.551 383.955 247.297 383.238 247.297 381.458Z" fill="#FEF2EB"/>
<path d="M2.21751 382.557L120.909 451.069C121.384 449.982 122.006 448.967 122.759 448.051L4.08451 379.539C3.32588 380.454 2.69758 381.47 2.21751 382.557ZM165.397 285.626L261.224 340.959V337.311L168.56 283.799L165.397 285.626ZM66.3395 342.815L185.017 411.336L188.181 409.503L69.5015 340.989L66.3395 342.815ZM99.3575 323.736L218.032 392.297L221.194 390.469L102.517 321.927L99.3575 323.736ZM132.381 304.657L251.05 373.219L254.211 371.398L135.537 302.869L132.381 304.657ZM33.3175 361.877L151.987 430.392L155.149 428.571L36.4775 360.056L33.3175 361.877Z" fill="#FEF2EB"/>
<path d="M338.811 270.223L340.736 269.113V255.083L338.811 256.199V270.223Z" fill="#FEF2EB"/>
<path d="M333.365 273.364L335.296 272.248V258.228L333.365 259.338V273.364Z" fill="#FEF2EB"/>
<path d="M327.918 276.509L329.85 275.393V261.373L327.918 262.483V276.509Z" fill="#FEF2EB"/>
<path d="M322.473 279.654L324.403 278.538V264.518L322.473 265.628V279.654Z" fill="#FEF2EB"/>
<path d="M317.027 282.798L318.957 281.676V267.657L317.027 268.773V282.798Z" fill="#FEF2EB"/>
<path d="M476.216 82.5312C472.487 80.3752 470.616 77.5421 470.625 74.7151V54.7751C470.625 57.6021 472.481 60.4292 476.216 62.5862C483.639 66.8762 495.63 66.8762 503.001 62.5862C506.667 60.4532 508.501 57.6722 508.501 54.8792V74.8192C508.501 77.6112 506.663 80.3922 503.001 82.5262C498.853 84.6383 494.265 85.7397 489.61 85.7408C484.955 85.7418 480.366 84.6414 476.216 82.5312Z" fill="#262423" stroke="#FEF2EB"/>
<path d="M465.161 6.83813C471.894 3.06613 480.722 1.18115 489.544 1.18115C498.366 1.18115 507.189 3.06713 513.922 6.83813C520.655 10.6091 524.021 15.5571 524.021 20.5042C524.021 25.4512 520.653 30.3922 513.922 34.1642C507.191 37.9362 498.367 39.8271 489.544 39.8271C480.721 39.8271 471.893 37.9352 465.161 34.1642C458.429 30.3932 455.068 25.4452 455.068 20.5042C455.068 15.5632 458.429 10.6161 465.161 6.83813Z" fill="#262423" stroke="#FEF2EB"/>
<path d="M514.558 33.3261C507.658 37.3091 498.62 39.2981 489.578 39.2981C480.536 39.2981 471.493 37.3211 464.591 33.3261C461.406 31.5972 458.663 29.1557 456.578 26.1921L471.211 57.8451C471.211 57.8451 471.487 58.3591 471.644 58.6311C472.772 60.4269 474.348 61.8976 476.217 62.8981C480.366 65.0112 484.955 66.1127 489.61 66.1127C494.265 66.1127 498.854 65.0112 503.003 62.8981C504.985 61.8436 506.62 60.2371 507.708 58.2731C507.789 58.1111 507.945 57.8221 507.945 57.8221L522.578 26.1691C520.496 29.1447 517.751 31.595 514.558 33.3261Z" fill="#262423" stroke="#FEF2EB" stroke-linecap="round" stroke-linejoin="round"/>
<path d="M231.809 222.03C228.67 220.215 227.103 217.838 227.109 215.462V211.162C227.109 213.538 228.67 215.92 231.809 217.735C238.047 221.335 248.129 221.335 254.356 217.735C257.431 215.943 258.981 213.601 258.981 211.254V215.554C258.981 217.895 257.431 220.237 254.356 222.029C248.129 225.631 238.047 225.631 231.809 222.03Z" fill="#262423" stroke="#FEF2EB" stroke-linecap="round" stroke-linejoin="round"/>
<path d="M231.819 217.735C225.581 214.127 225.546 208.288 231.744 204.686C237.942 201.084 248.031 201.086 254.292 204.686C260.553 208.286 260.564 214.127 254.366 217.735C248.168 221.343 238.058 221.337 231.819 217.735Z" fill="#262423" stroke="#FEF2EB"/>
<path d="M233.376 216.255C230.705 214.711 229.376 212.687 229.381 210.664V195.364C229.381 197.387 230.705 199.411 233.376 200.955C238.684 204.019 247.25 204.019 252.534 200.955C255.147 199.428 256.46 197.439 256.467 195.445V210.745C256.467 212.74 255.154 214.734 252.534 216.255C247.26 219.319 238.677 219.319 233.376 216.255Z" fill="#262423" stroke="#FEF2EB" stroke-linecap="round" stroke-linejoin="round"/>
<path d="M234.23 201.356C233.953 201.217 233.653 201.107 233.387 200.956C232.349 200.377 231.428 199.611 230.67 198.696V214.011C231.427 214.918 232.343 215.678 233.374 216.254C233.64 216.404 233.952 216.52 234.23 216.654V201.356Z" fill="#262423" stroke="#FEF2EB"/>
<path d="M245.615 218.4C248.048 218.162 250.409 217.432 252.552 216.255C253.119 215.918 253.655 215.531 254.153 215.098V199.842C253.653 200.253 253.117 200.619 252.552 200.935C250.41 202.116 248.049 202.845 245.615 203.079V218.4Z" fill="#262423" stroke="#FEF2EB"/>
<path d="M233.387 200.935C228.08 197.871 228.051 192.904 233.324 189.841C238.597 186.778 247.199 186.776 252.484 189.841C257.769 192.906 257.814 197.871 252.547 200.935C247.28 203.999 238.678 204.022 233.387 200.935Z" fill="#262423" stroke="#FEF2EB" stroke-linecap="round" stroke-linejoin="round"/>
<path d="M447.414 396.924L369.406 441.955C364.521 444.782 356.519 444.782 351.628 441.955L306.318 415.755C303.895 414.355 302.677 412.517 302.659 410.667V420.167C302.659 422.012 303.889 423.856 306.318 425.261L351.656 451.436C356.547 454.264 364.55 454.264 369.435 451.436L447.443 406.399C449.86 405.005 451.079 403.167 451.102 401.329V391.836C451.044 393.669 449.831 395.507 447.414 396.924Z" fill="#262423" stroke="#FEF2EB"/>
<path d="M447.414 386.632C452.299 389.453 452.299 394.072 447.414 396.9L369.405 441.931C364.52 444.758 356.519 444.758 351.628 441.931L306.318 415.759C301.427 412.938 301.427 408.318 306.318 405.491L384.326 360.454C389.211 357.633 397.213 357.633 402.103 360.454L447.414 386.632Z" fill="#262423" stroke="#FEF2EB"/>
<path d="M335.371 350.921L343.603 355.674V428.849L335.371 424.091V350.921Z" fill="#262423" stroke="#262423" stroke-linecap="round" stroke-linejoin="round"/>
<path d="M343.603 338.312L424.746 291.312V381.842L343.603 428.842V338.312Z" fill="#262423" stroke="#FEF2EB" stroke-linecap="round" stroke-linejoin="round"/>
<path d="M414.962 243.508C413.92 242.183 412.441 241.27 410.789 240.931C409.137 240.593 407.419 240.85 405.939 241.658L311.21 296.327C310.524 296.698 309.929 297.214 309.465 297.84C309 298.465 308.679 299.185 308.522 299.948C308.366 300.711 308.378 301.499 308.559 302.257C308.739 303.015 309.084 303.724 309.567 304.334L362.595 375.134C363.637 376.46 365.116 377.373 366.768 377.711C368.421 378.05 370.139 377.792 371.619 376.984L466.348 322.338C467.031 321.965 467.626 321.448 468.089 320.822C468.552 320.195 468.873 319.476 469.029 318.713C469.185 317.95 469.173 317.162 468.994 316.404C468.814 315.646 468.472 314.937 467.989 314.325L414.962 243.508Z" fill="#262423" stroke="#FEF2EB" stroke-linecap="round" stroke-linejoin="round"/>
<path d="M371.652 377.012C370.171 377.82 368.452 378.078 366.8 377.739C365.148 377.401 363.669 376.488 362.626 375.162L309.57 304.362C308.8 303.388 308.395 302.175 308.424 300.933C308.454 299.691 308.917 298.499 309.733 297.562L303.02 305.494C302.163 306.426 301.667 307.632 301.62 308.897C301.574 310.162 301.98 311.402 302.767 312.394L355.793 383.194C356.836 384.521 358.314 385.434 359.967 385.773C361.619 386.112 363.339 385.854 364.819 385.044L459.53 330.358C460.206 329.965 460.796 329.438 461.264 328.809L467.624 321.293C467.25 321.701 466.822 322.055 466.351 322.345L371.652 377.012Z" fill="#262423" stroke="#FEF2EB" stroke-linecap="round" stroke-linejoin="round"/>
<path d="M367.664 373.509L313.898 301.756L409.806 245.064L464.013 317.434L367.664 373.509Z" fill="#262423" stroke="#FEF2EB"/>
<path d="M382.118 301.328C376.979 304.271 376.296 311.328 380.599 317.065C384.901 322.802 392.554 325.072 397.688 322.13C402.822 319.188 403.504 312.145 399.203 306.399C394.902 300.653 387.253 298.386 382.118 301.328Z" fill="#262423" stroke="#FEF2EB" stroke-linecap="round" stroke-linejoin="round"/>
<path d="M383.546 297.743C378.406 300.686 377.73 307.733 382.026 313.474C386.322 319.215 393.981 321.487 399.125 318.544C404.27 315.601 404.942 308.554 400.641 302.813C396.34 297.072 388.68 294.8 383.546 297.743Z" fill="#262423" stroke="#FEF2EB"/>
<path d="M386.004 304.334L392.923 313.578L395.733 305.362L386.004 304.334Z" fill="#00B8D4"/>
<path d="M414.188 260.894L329.688 310.076L323.542 301.876L408.042 252.694L414.188 260.894Z" fill="#262423" stroke="#FEF2EB"/>
<path d="M377.956 325.761L352.53 340.561L333.22 314.781L358.651 299.981L377.956 325.761Z" fill="#00B8D4" stroke="#FEF2EB"/>
<path d="M453.438 312.255L428.005 327.055L391.686 278.561L417.118 263.761L453.438 312.255Z" fill="#262423" stroke="#FEF2EB"/>
<path d="M384.685 334.745L359.254 349.545L355.779 344.902L381.206 330.102L384.685 334.745Z" fill="#262423" stroke="#FEF2EB"/>
<path d="M390.173 342.075L364.746 356.875L361.265 352.232L386.699 337.432L390.173 342.075Z" fill="#262423" stroke="#FEF2EB"/>
<path d="M422.335 332.998L369.775 363.598L366.296 358.955L418.855 328.356L422.335 332.998Z" fill="#B0D775" stroke="#FEF2EB"/>
<path d="M63.0905 267.814L80.1565 257.963V238.254L63.0905 248.105V267.814Z" fill="#262423" stroke="#FEF2EB" stroke-linecap="round" stroke-linejoin="round"/>
<path d="M63.0935 267.814L46.0275 257.963V238.254L63.0935 248.105V267.814Z" fill="#262423" stroke="#FEF2EB" stroke-linecap="round" stroke-linejoin="round"/>
<path d="M63.0935 248.105L46.0275 238.254L63.0935 228.402L80.1605 238.254L63.0935 248.105Z" stroke="#FEF2EB" stroke-linecap="round" stroke-linejoin="round"/>
<path d="M610.582 167.177L608.448 169.362L610.165 155.562L612.297 153.377L610.582 167.177Z" fill="#262423" stroke="#FEF2EB" stroke-linecap="round" stroke-linejoin="round"/>
<path d="M636.47 161.436L661.811 197.951C664.227 201.42 663.694 205.698 660.625 207.421L599.926 241.531C596.856 243.265 592.37 241.814 589.948 238.331L564.608 201.816C563.463 200.244 562.944 198.303 563.151 196.37C563.237 195.534 563.521 194.73 563.981 194.026C564.441 193.322 565.062 192.738 565.792 192.323L610.61 167.145L612.344 153.351L618.749 162.601C618.749 162.601 634.054 157.95 636.47 161.436Z" fill="#262423" stroke="#FEF2EB" stroke-linecap="round" stroke-linejoin="round"/>
<path d="M660.625 207.421L599.926 241.531C596.856 243.265 592.37 241.814 589.947 238.331L564.607 201.816C563.463 200.244 562.944 198.303 563.15 196.37C563.291 195.196 563.808 194.098 564.624 193.242L562.492 195.427C561.675 196.283 561.157 197.381 561.016 198.555C560.81 200.488 561.329 202.429 562.473 204.001L587.813 240.516C590.235 243.985 593.689 246.443 598.522 245.277L660.004 210.639C662.029 209.485 661.905 208.165 663.024 204.476L662.102 206.325L660.625 207.421Z" fill="#262423" stroke="#FEF2EB"/>
<path d="M142.975 353.533C142.888 351.968 142.434 350.446 141.65 349.089C140.866 347.732 139.775 346.578 138.464 345.719L70.3945 306.419C67.9135 304.986 65.8825 306.159 65.8825 309.019V368.27C65.9703 369.835 66.4243 371.357 67.208 372.714C67.9917 374.072 69.0832 375.226 70.3945 376.084L138.464 415.384C140.945 416.817 142.975 415.644 142.975 412.784V353.533Z" fill="#262423" stroke="#FEF2EB" stroke-linecap="round" stroke-linejoin="round"/>
<path d="M142.583 413.013V353.767C142.495 352.202 142.041 350.68 141.257 349.322C140.473 347.965 139.382 346.811 138.071 345.952L69.8405 306.823C69.3888 306.498 68.8596 306.296 68.3058 306.24C67.752 306.183 67.1929 306.272 66.6845 306.499L72.9565 302.765C73.4706 302.497 74.0496 302.379 74.6276 302.423C75.2056 302.468 75.7595 302.674 76.2265 303.017L144.458 342.147C145.769 343.006 146.86 344.16 147.644 345.518C148.427 346.875 148.881 348.397 148.969 349.962V409.207C149.034 409.788 148.933 410.376 148.677 410.902C148.421 411.428 148.021 411.87 147.524 412.177L141.363 415.847C141.786 415.514 142.119 415.08 142.332 414.585C142.545 414.09 142.631 413.55 142.583 413.013Z" fill="#262423" stroke="#FEF2EB" stroke-linecap="round" stroke-linejoin="round"/>
<path d="M89.8005 332.57L87.6645 330.621L79.6735 347.28L81.7325 349.189L89.8005 332.57ZM90.8805 351.193L99.0205 347.279L91.7495 335.724L89.8955 337.255L95.2505 346.037L89.8955 348.637L90.8805 351.193ZM77.6055 344.404L79.4795 342.623L74.1245 333.839L80.3355 331.003L79.2355 328.449L70.5825 332.57L77.6055 344.404Z" fill="#B0D775"/>
<path d="M112.538 341.025L103.132 335.594V333.589L112.538 339.02V341.025Z" fill="#B0D775"/>
<path d="M107.667 348.575L103.133 345.956V347.962L107.667 350.58V348.575Z" fill="#B0D775"/>
<path d="M138.528 356.03L114.128 341.945V339.94L138.528 354.025V356.03Z" fill="#B0D775"/>
<path d="M132.617 356.683L108.218 342.598V340.593L132.617 354.678V356.683Z" fill="#B0D775"/>
<path d="M128.893 358.598L106.317 345.562V343.557L128.895 356.592L128.893 358.598Z" fill="#B0D775"/>
<path d="M115.043 359.067L103.133 352.19V350.185L115.043 357.062V359.067Z" fill="#B0D775"/>
<path d="M138.528 372.626L116.633 359.986V357.981L138.526 370.62L138.528 372.626Z" fill="#B0D775"/>
<path d="M108.012 359.702L103.133 356.884V354.878L108.012 357.696V359.702ZM138.527 377.32L109.605 360.62V358.615L138.527 375.315V377.32ZM112.538 367.002L103.132 361.571V359.566L112.538 364.998V367.002Z" fill="#B0D775"/>
<path d="M138.528 382.009L114.128 367.924V365.918L138.528 380.004V382.009Z" fill="#B0D775"/>
<path d="M132.617 383.443L108.221 369.355V367.355L132.621 381.44L132.617 383.443Z" fill="#B0D775"/>
<path d="M136.501 389.751L112.538 375.916V373.911L136.501 387.746V389.751Z" fill="#B0D775"/>
<path d="M223.09 457.814L240.157 447.963V428.254L223.09 438.105V457.814Z" fill="#262423" stroke="#FEF2EB" stroke-linecap="round" stroke-linejoin="round"/>
<path d="M223.093 457.814L206.027 447.963V428.254L223.093 438.105V457.814Z" fill="#262423" stroke="#FEF2EB" stroke-linecap="round" stroke-linejoin="round"/>
<path d="M223.093 438.105L206.027 428.254L223.093 418.402L240.16 428.254L223.093 438.105Z" stroke="#FEF2EB" stroke-linecap="round" stroke-linejoin="round"/>
<path d="M574.091 401.329L591.157 391.478V371.769L574.091 381.62V401.329Z" fill="#262423" stroke="#FEF2EB" stroke-linecap="round" stroke-linejoin="round"/>
<path d="M574.094 401.329L557.028 391.478V371.769L574.094 381.62V401.329Z" fill="#262423" stroke="#FEF2EB" stroke-linecap="round" stroke-linejoin="round"/>
<path d="M574.094 381.62L557.028 371.769L574.094 361.917L591.161 371.769L574.094 381.62Z" stroke="#FEF2EB" stroke-linecap="round" stroke-linejoin="round"/>
<path d="M637.009 179.283L638.679 181.694L583.843 212.494L582.166 210.083L637.009 179.283Z" fill="#B0D775"/>
<path d="M641.715 186.065L643.385 188.476L588.549 219.276L586.872 216.865L641.715 186.065Z" fill="#B0D775"/>
<path d="M623.988 177.173L625.665 179.59L587.451 201.05L585.773 198.633L623.988 177.173Z" fill="#B0D775"/>
<path d="M628.197 206.82C628.629 206.636 629.112 206.613 629.559 206.755C630.006 206.897 630.386 207.195 630.632 207.595C630.775 207.761 630.883 207.956 630.947 208.166C631.01 208.376 631.029 208.598 631.002 208.816C630.975 209.034 630.902 209.244 630.788 209.432C630.675 209.62 630.523 209.783 630.343 209.908C629.91 210.088 629.427 210.108 628.981 209.964C628.535 209.82 628.155 209.521 627.909 209.122C627.764 208.957 627.656 208.764 627.592 208.554C627.528 208.345 627.509 208.124 627.536 207.906C627.563 207.689 627.636 207.48 627.75 207.292C627.864 207.105 628.017 206.944 628.197 206.82ZM620.867 210.937C621.297 210.752 621.78 210.729 622.227 210.873C622.673 211.016 623.052 211.316 623.295 211.717C623.439 211.883 623.546 212.077 623.61 212.287C623.675 212.497 623.694 212.719 623.667 212.937C623.641 213.155 623.569 213.365 623.456 213.553C623.343 213.741 623.191 213.904 623.012 214.03C622.578 214.213 622.094 214.234 621.646 214.089C621.198 213.945 620.817 213.645 620.572 213.244C620.427 213.079 620.318 212.884 620.254 212.674C620.19 212.464 620.171 212.242 620.199 212.024C620.227 211.805 620.301 211.596 620.416 211.408C620.531 211.221 620.685 211.061 620.867 210.937ZM613.534 215.055C613.964 214.871 614.446 214.848 614.892 214.99C615.338 215.133 615.717 215.431 615.962 215.83C616.106 215.996 616.214 216.19 616.279 216.4C616.343 216.61 616.363 216.832 616.336 217.05C616.31 217.268 616.237 217.478 616.124 217.667C616.011 217.855 615.859 218.017 615.679 218.143C615.247 218.327 614.763 218.349 614.316 218.206C613.869 218.062 613.489 217.763 613.244 217.362C613.099 217.197 612.99 217.003 612.925 216.793C612.86 216.583 612.841 216.362 612.868 216.143C612.896 215.925 612.969 215.715 613.084 215.528C613.199 215.34 613.352 215.179 613.534 215.055Z" fill="#B0D775"/>
</g>
<defs>
<clipPath id="clip0_53_6552">
<rect width="662.975" height="458.529" fill="white" transform="translate(0.856506 0.681152)"/>
</clipPath>
</defs>
</svg>
