<svg xmlns="http://www.w3.org/2000/svg" xmlns:xlink="http://www.w3.org/1999/xlink" width="605.585" height="616.255" viewBox="0 0 605.585 616.255">
  <defs>
    <clipPath id="clip-path">
      <rect id="Rectangle_1" data-name="Rectangle 1" width="37.913" height="47.846" fill="#00b8d4"/>
    </clipPath>
    <clipPath id="clip-path-2">
      <rect id="Rectangle_361" data-name="Rectangle 361" width="271.317" height="172.206" fill="none"/>
    </clipPath>
    <linearGradient id="linear-gradient" x1="0.32" y1="0.177" x2="0.668" y2="1.031" gradientUnits="objectBoundingBox">
      <stop offset="0" stop-color="#d1d7f3"/>
      <stop offset="0.3" stop-color="#e4e7f8"/>
      <stop offset="0.72" stop-color="#f8f9fd"/>
      <stop offset="1" stop-color="#fff"/>
    </linearGradient>
    <linearGradient id="linear-gradient-2" x1="0.32" y1="0.177" x2="0.668" y2="1.031" xlink:href="#linear-gradient"/>
    <linearGradient id="linear-gradient-3" x1="0.32" y1="0.177" x2="0.668" y2="1.031" xlink:href="#linear-gradient"/>
    <linearGradient id="linear-gradient-4" x1="0.32" y1="0.177" x2="0.668" y2="1.031" xlink:href="#linear-gradient"/>
  </defs>
  <g id="qt-img3" transform="translate(-1119.1 -2179.462)">
    <g id="Group_7171" data-name="Group 7171" transform="translate(1673.163 -5417.483)">
      <g id="Group_7172" data-name="Group 7172" transform="translate(-543.733 7597.484)">
        <g id="Group_8_copy" data-name="Group 8 copy" transform="translate(0 0)" opacity="0">
          <path id="Rectangle_3" data-name="Rectangle 3" d="M985.694,617.473c15.68-37.914,45.471-67.523,78.87-85.959,7.435,86.757,4.435,127.042,0,158.831-28.865,25.867-54.42,59.772-78.87,100.31C982.847,728.021,985.9,686.946,985.694,617.473Z" transform="translate(-984.474 -473.154)" fill="rgba(2,15,30,0.4)" stroke="#020f1e" stroke-width="1"/>
          <path id="Rectangle_3_copy" data-name="Rectangle 3 copy" d="M1022.555,539.64c65.206-34.443,135.857-53.43,201.556-58.323-.034,51.5-.028,108.935,0,160.547-84.192-5.66-201.556,57.238-201.556,57.238S1023.292,625.3,1022.555,539.64Z" transform="translate(-942.6 -481.317)" fill="#fff" stroke="#020f1e" stroke-width="1"/>
          <g id="Group_7173" data-name="Group 7173" transform="translate(8.967 100.155)">
            <path id="Rectangle_4" data-name="Rectangle 4" d="M983.9,564.719q3.041-5.174,6.421-10.1.677,9.838,1.242,19.2-3.508,4.585-6.718,9.331Q984.424,574.119,983.9,564.719Z" transform="translate(-983.902 -512.356)" fill="none" stroke="#fff" stroke-width="1"/>
            <path id="Rectangle_4_copy" data-name="Rectangle 4 copy" d="M984.478,575.8q3.275-4.595,6.84-9.063.525,9.174.959,17.923-3.682,4.255-7.112,8.58Q984.859,584.674,984.478,575.8Z" transform="translate(-983.188 -497.327)" fill="none" stroke="#fff" stroke-width="1"/>
            <path id="Rectangle_5" data-name="Rectangle 5" d="M.039,44.566c-.22-3.1.506-6.868,1.67-8.343s2.335-.04,2.575,3.114-.552,6.8-1.734,8.217a1.3,1.3,0,0,1-.935.57C.829,48.124.2,46.82.039,44.566Zm6.939-9.147c-.218-2.783.46-6.09,1.551-7.32A210.832,210.832,0,0,1,38.745.309c1.333-1.012,2.638.553,2.888,3.42s-.647,5.961-1.976,6.979A232.36,232.36,0,0,0,9.346,38.24a1.177,1.177,0,0,1-.83.457C7.758,38.7,7.141,37.484,6.978,35.419Z" transform="translate(11.483 0)" fill="none" stroke="#fff" stroke-width="1"/>
            <path id="Rectangle_5_copy" data-name="Rectangle 5 copy" d="M.028,43.291c-.187-2.938.6-6.505,1.791-7.9s2.359-.048,2.567,2.932-.637,6.439-1.851,7.792a1.357,1.357,0,0,1-.956.545C.784,46.663.164,45.426.028,43.291Zm7.118-8.7c-.187-2.624.534-5.755,1.646-6.933A256.864,256.864,0,0,1,39.2.334c1.329-1.02,2.605.379,2.825,3.057s-.7,5.634-2.023,6.661A284.611,284.611,0,0,0,9.5,37.209a1.239,1.239,0,0,1-.856.449C7.886,37.658,7.286,36.525,7.146,34.589Z" transform="translate(12.797 20.428)" fill="none" stroke="#fff" stroke-width="1"/>
            <path id="Rectangle_5_copy_2" data-name="Rectangle 5 copy 2" d="M.019,42.389c-.157-2.791.678-6.183,1.9-7.518s2.386-.083,2.561,2.734-.714,6.116-1.954,7.425a1.431,1.431,0,0,1-.988.537C.742,45.568.133,44.4.019,42.389ZM7.307,34c-.159-2.478.6-5.453,1.734-6.6A315.535,315.535,0,0,1,39.638.364C40.965-.667,42.215.572,42.4,3.07s-.748,5.314-2.073,6.354A348.208,348.208,0,0,0,9.644,36.408a1.312,1.312,0,0,1-.89.452C8.005,36.86,7.424,35.81,7.307,34Z" transform="translate(13.907 39.501)" fill="none" stroke="#fff" stroke-width="1"/>
            <path id="Rectangle_5_copy_3" data-name="Rectangle 5 copy 3" d="M.013,41.889c-.131-2.654.75-5.9,2-7.2s2.41-.149,2.559,2.515-.78,5.83-2.047,7.12a1.521,1.521,0,0,1-1.034.546C.7,44.87.108,43.783.013,41.889Zm7.443-8.2c-.135-2.339.663-5.181,1.811-6.3A384.036,384.036,0,0,1,40.037.4c1.323-1.045,2.545.038,2.7,2.359s-.8,5.009-2.123,6.064C29.666,17.525,19.341,26.6,9.777,35.862a1.394,1.394,0,0,1-.933.466C8.11,36.328,7.553,35.363,7.456,33.686Z" transform="translate(14.838 57.262)" fill="none" stroke="#fff" stroke-width="1"/>
            <path id="Rectangle_5_copy_4" data-name="Rectangle 5 copy 4" d="M.009,41.834C-.1,39.313.824,36.19,2.1,34.9s2.432-.258,2.555,2.255-.841,5.568-2.131,6.864a1.626,1.626,0,0,1-1.095.576C.654,44.6.086,43.6.009,41.834Zm7.58-8.163c-.111-2.2.722-4.924,1.886-6.044,9.629-9.276,19.97-18.4,30.9-27.185C41.7-.618,42.889.3,43.014,2.437a7.637,7.637,0,0,1-2.178,5.769C29.922,17.071,19.575,26.262,9.9,35.587a1.5,1.5,0,0,1-.995.5C8.193,36.086,7.668,35.212,7.589,33.671Z" transform="translate(15.673 74.886)" fill="none" stroke="#fff" stroke-width="1"/>
            <path id="Rectangle_5_copy_5" data-name="Rectangle 5 copy 5" d="M.006,42.267c-.093-2.408.863-5.449,2.16-6.753s2.448-.4,2.551,1.988a10.2,10.2,0,0,1-2.192,6.693,1.739,1.739,0,0,1-1.169.628C.608,44.822.071,43.907.006,42.267Zm7.683-8.272a8.7,8.7,0,0,1,1.94-5.856C19.351,18.729,29.7,9.447,40.585.492,41.9-.589,43.059.177,43.152,2.149A7.529,7.529,0,0,1,40.93,7.665c-10.857,9.056-21.2,18.451-30.95,27.984a1.6,1.6,0,0,1-1.062.548C8.241,36.2,7.752,35.408,7.689,33.995Z" transform="translate(16.325 90.065)" fill="none" stroke="#fff" stroke-width="1"/>
          </g>
          <path id="Rectangle_6_copy_3" data-name="Rectangle 6 copy 3" d="M4.886,134.631c.044-2.617,2.237-6.066,4.968-7.554q15.27-8.352,31.271-15.665c2.859-1.3,5.111-.139,4.961,2.464s-2.618,5.658-5.451,6.957q-15.867,7.263-30.989,15.7a5.249,5.249,0,0,1-2.482.756C5.769,137.293,4.861,136.362,4.886,134.631Zm-.137-19.383a9.854,9.854,0,0,1,4.833-8.165q10.967-5.756,22.3-11.045c2.869-1.335,5.241.065,5.241,2.99s-2.348,6.292-5.185,7.647Q20.7,112.02,9.828,117.874a4.881,4.881,0,0,1-2.277.65C5.933,118.524,4.807,117.35,4.749,115.248Zm47.023-3.831c.154-2.605,2.6-5.794,5.518-6.983a393.158,393.158,0,0,1,71.944-21.845c3.144-.627,5.584,1.167,5.412,3.916s-2.915,5.386-6.078,5.983a374.247,374.247,0,0,0-71.883,21.4,5.93,5.93,0,0,1-2.2.482A2.533,2.533,0,0,1,51.772,111.417ZM42.82,96.466a9.163,9.163,0,0,1,5.27-7.635,431.937,431.937,0,0,1,82-25.794c3.13-.637,5.605,1.232,5.5,4.087s-2.751,5.62-5.888,6.257a415.038,415.038,0,0,0-81.689,26,5.42,5.42,0,0,1-2.128.485C44.064,99.865,42.814,98.623,42.82,96.466ZM3.813,93.278c-.188-3.368,1.9-7.348,4.727-8.74a511.79,511.79,0,0,1,61.9-25.818c3.038-1.033,5.545.748,5.562,3.864a8.528,8.528,0,0,1-5.453,7.5A509.062,509.062,0,0,0,9.174,96.667a4.552,4.552,0,0,1-2.062.549C5.292,97.217,3.954,95.774,3.813,93.278ZM2.2,68.69c-.28-3.751,1.781-7.969,4.655-9.27,10.706-4.876,21.7-9.411,32.91-13.567,3-1.109,5.6.942,5.762,4.45A9.018,9.018,0,0,1,40.407,58.7q-16.646,6.573-32.6,14.2a4.248,4.248,0,0,1-1.834.45C3.965,73.349,2.418,71.6,2.2,68.69ZM82.02,60.614a8.178,8.178,0,0,1,5.523-7.364A436.072,436.072,0,0,1,130.512,42.7c3.132-.6,5.644,1.377,5.6,4.327s-2.645,5.789-5.774,6.417a420.049,420.049,0,0,0-42.8,10.97,5.63,5.63,0,0,1-1.674.27A3.75,3.75,0,0,1,82.02,60.614ZM51.487,48.139c-.15-3.488,2.179-7.231,5.236-8.234a484.687,484.687,0,0,1,73.929-18.234,4.659,4.659,0,0,1,5.68,4.63,7.006,7.006,0,0,1-5.728,6.467A468.03,468.03,0,0,0,57.2,52.406a4.993,4.993,0,0,1-1.672.3C53.291,52.711,51.608,50.96,51.487,48.139ZM.039,41.452c-.35-4.136,1.7-8.57,4.628-9.742A469.6,469.6,0,0,1,68.959,11.2c3.149-.758,5.813,1.591,5.933,5.142s-2.319,7.052-5.429,7.919A485.956,485.956,0,0,0,5.869,46.55a4,4,0,0,1-1.594.35C2.078,46.9.323,44.812.039,41.452Zm81.067-26.61c-.111-3.521,2.365-6.979,5.54-7.625C101.266,4.193,116,1.8,130.655.041A4.975,4.975,0,0,1,136.4,5.032a6.763,6.763,0,0,1-5.735,6.411c-14.584,2.1-29.2,4.892-43.686,8.328a5.274,5.274,0,0,1-1.23.149C83.178,19.92,81.2,17.891,81.106,14.842Z" transform="translate(102.38 30.305)" fill="rgba(2,15,30,0.4)"/>
        </g>
        <g id="Group_7171-2" data-name="Group 7171" transform="translate(328.95 5.157)">
          <g id="Group_7183" data-name="Group 7183" transform="translate(0 0)">
            <g id="Group_7184" data-name="Group 7184" transform="translate(0 0)">
              <path id="Path_24728" data-name="Path 24728" d="M100.5,11.505c122.506,33.2,151.314,82.372,151.314,82.372V278.9S227.585,211.865,100.5,169.5" transform="translate(13.991 1.089)" fill="none"/>
              <path id="Path_24729" data-name="Path 24729" d="M100.5,11.505c122.506,33.2,151.314,82.372,151.314,82.372V278.9S227.585,211.865,100.5,169.5" transform="translate(13.991 1.089)" fill="rgba(255,255,255,0.7)" stroke="#020f1e" stroke-width="1"/>
              <path id="Path_24730" data-name="Path 24730" d="M114.991,171.1A406.572,406.572,0,0,0,.5,165.372V.5C17.973.694,37.156,1.685,57.746,3.94,78.577,6.22,97.727,9.45,114.991,13.1Z" transform="translate(-0.5 -0.505)" fill="none" stroke="#707070" stroke-width="1"/>
              <path id="Path_24731" data-name="Path 24731" d="M114.991,171.1A406.572,406.572,0,0,0,.5,165.372V.5C17.973.694,37.156,1.685,57.746,3.94,78.577,6.22,97.727,9.45,114.991,13.1Z" transform="translate(-0.5 -0.505)" fill="none" stroke="#020f1e" stroke-width="1"/>
            </g>
          </g>
          <rect id="Rectangle_11" data-name="Rectangle 11" width="20.338" height="17.565" transform="translate(11.565 15.829)" fill="none" stroke="#020f1e" stroke-width="1"/>
          <rect id="Rectangle_11_copy" data-name="Rectangle 11 copy" width="20.338" height="17.565" transform="translate(11.565 37.092)" fill="none" stroke="#020f1e" stroke-width="1"/>
          <ellipse id="Ellipse_14" data-name="Ellipse 14" cx="3.698" cy="3.698" rx="3.698" ry="3.698" transform="translate(47.973 18.823)" fill="none" stroke="#020f1e" stroke-width="1"/>
          <ellipse id="Ellipse_14_copy" data-name="Ellipse 14 copy" cx="3.698" cy="3.698" rx="3.698" ry="3.698" transform="translate(47.973 31.765)" fill="none" stroke="#020f1e" stroke-width="1"/>
          <ellipse id="Ellipse_14_copy_2" data-name="Ellipse 14 copy 2" cx="3.698" cy="3.698" rx="3.698" ry="3.698" transform="translate(47.973 46.557)" fill="none" stroke="#020f1e" stroke-width="1"/>
          <ellipse id="Ellipse_14_copy_3" data-name="Ellipse 14 copy 3" cx="3.698" cy="3.698" rx="3.698" ry="3.698" transform="translate(47.973 59.499)" fill="none" stroke="#020f1e" stroke-width="1"/>
          <ellipse id="Ellipse_14_copy_4" data-name="Ellipse 14 copy 4" cx="3.698" cy="3.698" rx="3.698" ry="3.698" transform="translate(47.973 74.291)" fill="none" stroke="#020f1e" stroke-width="1"/>
          <ellipse id="Ellipse_14_copy_5" data-name="Ellipse 14 copy 5" cx="3.698" cy="3.698" rx="3.698" ry="3.698" transform="translate(47.973 87.233)" fill="none" stroke="#020f1e" stroke-width="1"/>
          <ellipse id="Ellipse_14_copy_6" data-name="Ellipse 14 copy 6" cx="3.698" cy="3.698" rx="3.698" ry="3.698" transform="translate(47.973 102.949)" fill="none" stroke="#020f1e" stroke-width="1"/>
          <ellipse id="Ellipse_14_copy_7" data-name="Ellipse 14 copy 7" cx="3.698" cy="3.698" rx="3.698" ry="3.698" transform="translate(47.973 115.891)" fill="none" stroke="#020f1e" stroke-width="1"/>
          <ellipse id="Ellipse_14_copy_8" data-name="Ellipse 14 copy 8" cx="3.698" cy="3.698" rx="3.698" ry="3.698" transform="translate(47.973 130.683)" fill="none" stroke="#020f1e" stroke-width="1"/>
          <ellipse id="Ellipse_14_copy_9" data-name="Ellipse 14 copy 9" cx="3.698" cy="3.698" rx="3.698" ry="3.698" transform="translate(47.973 143.625)" fill="none" stroke="#020f1e" stroke-width="1"/>
          <path id="Rectangle_12" data-name="Rectangle 12" d="M566.7,155l19.414,2.29a3.7,3.7,0,0,1,0,7.4L566.7,162.4a3.7,3.7,0,1,1,0-7.4Z" transform="translate(-502.186 -136.177)" fill="none" stroke="#020f1e" stroke-width="1"/>
          <path id="Rectangle_12_copy" data-name="Rectangle 12 copy" d="M566.7,169l19.414,2.29a3.7,3.7,0,0,1,0,7.4L566.7,176.4a3.7,3.7,0,1,1,0-7.4Z" transform="translate(-502.186 -137.235)" fill="none" stroke="#020f1e" stroke-width="1"/>
          <path id="Rectangle_12_copy_2" data-name="Rectangle 12 copy 2" d="M566.7,185l19.414,2.29a3.7,3.7,0,0,1,0,7.4L566.7,192.4a3.7,3.7,0,1,1,0-7.4Z" transform="translate(-502.186 -138.443)" fill="none" stroke="#020f1e" stroke-width="1"/>
          <path id="Rectangle_12_copy_3" data-name="Rectangle 12 copy 3" d="M566.7,199l28.658,3.435a3.7,3.7,0,0,1,0,7.4L566.7,206.4a3.7,3.7,0,1,1,0-7.4Z" transform="translate(-502.057 -139.501)" fill="none" stroke="#020f1e" stroke-width="1"/>
          <path id="Rectangle_12_copy_4" data-name="Rectangle 12 copy 4" d="M566.7,215l19.414,2.29a3.7,3.7,0,0,1,0,7.4L566.7,222.4a3.7,3.7,0,1,1,0-7.4Z" transform="translate(-502.186 -140.709)" fill="none" stroke="#020f1e" stroke-width="1"/>
          <path id="Rectangle_12_copy_5" data-name="Rectangle 12 copy 5" d="M566.7,229l28.658,3.435a3.7,3.7,0,1,1,0,7.4L566.7,236.4a3.7,3.7,0,1,1,0-7.4Z" transform="translate(-502.057 -141.767)" fill="none" stroke="#020f1e" stroke-width="1"/>
          <path id="Rectangle_12_copy_6" data-name="Rectangle 12 copy 6" d="M3.7,0,23.112,2.29a3.7,3.7,0,0,1,0,7.4L3.7,7.4A3.7,3.7,0,1,1,3.7,0Z" transform="translate(60.814 102.949)" fill="none" stroke="#020f1e" stroke-width="1"/>
          <path id="Rectangle_12_copy_7" data-name="Rectangle 12 copy 7" d="M3.7,0,32.356,3.435a3.7,3.7,0,1,1,0,7.4L3.7,7.4A3.7,3.7,0,1,1,3.7,0Z" transform="translate(60.943 115.891)" fill="none" stroke="#020f1e" stroke-width="1"/>
          <path id="Rectangle_12_copy_8" data-name="Rectangle 12 copy 8" d="M566.7,276l19.414,2.29a3.7,3.7,0,0,1,0,7.4L566.7,283.4a3.7,3.7,0,1,1,0-7.4Z" transform="translate(-502.186 -145.317)" fill="none" stroke="#020f1e" stroke-width="1"/>
          <path id="Rectangle_12_copy_9" data-name="Rectangle 12 copy 9" d="M566.7,290l28.658,3.435a3.7,3.7,0,1,1,0,7.4L566.7,297.4a3.7,3.7,0,1,1,0-7.4Z" transform="translate(-502.057 -146.375)" fill="none" stroke="#020f1e" stroke-width="1"/>
          <g id="Group_7160" data-name="Group 7160" transform="translate(135.597 44.352)">
            <path id="Shape_116" data-name="Shape 116" d="M663.92,189.547,688.88,200.64s3-3.812-.924-6.471L665.768,184S660.915,184,663.92,189.547Z" transform="translate(-662.938 -184)" fill="none" stroke="#020f1e" stroke-width="1"/>
            <path id="Shape_117" data-name="Shape 117" d="M.514,4.8,19.927,17.744s3.985.217,2.774-3.7L3.287.18A2.174,2.174,0,0,0,.514,1.1,3.749,3.749,0,0,0,.514,4.8Z" transform="translate(37.274 17.398) rotate(-9)" fill="none" stroke="#020f1e" stroke-width="1"/>
            <path id="Shape_118" data-name="Shape 118" d="M4.8.924,24.217,14.791a3.7,3.7,0,0,1,.924,3.7s-1.023,3.684-4.622,0L1.105,5.547s-2.487-2.325,0-4.622A3.273,3.273,0,0,1,2.954,0,3.281,3.281,0,0,1,4.8.924Z" transform="translate(69.912 33.662) rotate(-8)" fill="none" stroke="#020f1e" stroke-width="1"/>
            <path id="Shape_120" data-name="Shape 120" d="M663.9,242.555l24.036,12.018s3.232,1.392,3.7-1.849a4.8,4.8,0,0,0-2.773-4.622l-22.187-10.169s-2.623-1.843-3.7,0C662.977,237.933,661.9,241.015,663.9,242.555Z" transform="translate(-658.42 -202.188)" fill="none" stroke="#020f1e" stroke-width="1"/>
            <path id="Shape_120_copy" data-name="Shape 120 copy" d="M679.9,265.555l24.036,12.018s3.233,1.392,3.7-1.849a4.8,4.8,0,0,0-2.774-4.622l-22.187-10.169s-2.622-1.843-3.7,0C678.976,260.933,677.9,264.015,679.9,265.555Z" transform="translate(-678.686 -195.217)" fill="none" stroke="#020f1e" stroke-width="1"/>
            <path id="Shape_121" data-name="Shape 121" d="M21.382,19.732s2.539.468,2.773-1.849c0,0,1.46-2.614-1.849-4.622L3.817.318a2.9,2.9,0,0,0-3.7.924s-.607,2.648.925,3.7C7.678,9.49,21.382,19.732,21.382,19.732Z" transform="matrix(0.985, -0.174, 0.174, 0.985, 58.247, 61.498)" fill="none" stroke="#020f1e" stroke-width="1"/>
            <path id="Shape_121_copy" data-name="Shape 121 copy" d="M21.382,19.732s2.539.468,2.773-1.849c0,0,1.46-2.614-1.849-4.622L3.817.318a2.9,2.9,0,0,0-3.7.924s-.607,2.648.925,3.7C7.678,9.49,21.382,19.732,21.382,19.732Z" transform="translate(67.88 95.641) rotate(-9)" fill="none" stroke="#020f1e" stroke-width="1"/>
            <path id="Shape_122" data-name="Shape 122" d="M4.036.31l5.547,3.7a5.507,5.507,0,0,1,2.773,5.547s-.047,2.537-4.622,0l-5.547-3.7S-1.029,4.168.339,1.235C.339,1.235,1.395-.746,4.036.31Z" transform="translate(43.786 84.28) rotate(-11)" fill="none" stroke="#020f1e" stroke-width="1"/>
            <path id="Shape_123" data-name="Shape 123" d="M.255.88s-1.5,2.537,2.774,5.547L20.593,17.521s3.519,1.48,3.7-.925c0,0-1.1-4.595-3.7-5.547L3.953.88S1.18-1.1.255.88Z" transform="translate(10.486 92.041) rotate(-7)" fill="none" stroke="#020f1e" stroke-width="1"/>
            <path id="Shape_124" data-name="Shape 124" d="M.115,3.734,14.906,19.449s2.858-1.029,1.849-5.547L2.888.036S-.678-.625.115,3.734Z" transform="matrix(0.946, -0.326, 0.326, 0.946, 48.55, 108.168)" fill="none" stroke="#020f1e" stroke-width="1"/>
            <path id="Shape_125" data-name="Shape 125" d="M2.262.01,6.884,6.482s1.538,4.65-1.849,3.7L.413,4.633S-1.3-.254,2.262.01Z" transform="matrix(0.914, -0.407, 0.407, 0.914, 76.114, 141.843)" fill="none" stroke="#020f1e" stroke-width="1"/>
            <path id="Shape_126" data-name="Shape 126" d="M22.35,20.515,2.011,6.648S-.677,3.9.162,1.1c0,0,1.142-3.01,6.471.924l16.64,12.942S26.707,18.8,22.35,20.515Z" transform="matrix(0.985, -0.174, 0.174, 0.985, 42.306, 124.878)" fill="none" stroke="#020f1e" stroke-width="1"/>
            <path id="Shape_127" data-name="Shape 127" d="M687.649,322.707s1.405-3.274-3.7-5.547l-22.187-10.169s-3.085-.765-2.773,1.849c0,0-1.1,2.141,3.7,4.622l21.263,10.169S687.121,325.085,687.649,322.707Z" transform="translate(-653.623 -200.879)" fill="none" stroke="#020f1e" stroke-width="1"/>
            <path id="Shape_119" data-name="Shape 119" d="M.934,4.676l5.547,5.547s2.338.955,2.773-.924c0,0,.547-2.281-1.849-4.622L1.859.054S.441-.494.01,1.9A3.751,3.751,0,0,0,.934,4.676Z" transform="translate(41.784 53.982) rotate(-13)" fill="none" stroke="#020f1e" stroke-width="1"/>
          </g>
        </g>
      </g>
      <g id="Group_7106" data-name="Group 7106" transform="translate(-517.583 7665.999)">
        <g id="_4" data-name="4" transform="translate(0 0)">
          <path id="Shape_115" data-name="Shape 115" d="M209.061,322.113s-10.115-1.856-16.634-5.73-8.074-6.542-8.074-6.542-21.038-25.731,3.712-70.528A122.2,122.2,0,0,1,223.329,205.9l78.88-45.472s32.477-23.566,56.608,13.92c0,0,14.535,41.7-13.92,68.672l-75.168,54.752-15.9,31.761-9.152-1.137-11.6-9.79S221.31,323.412,209.061,322.113Z" transform="translate(-176.013 -153.122)" fill="#fff" stroke="#020f1e" stroke-width="1"/>
          <path id="Shape_114" data-name="Shape 114" d="M193.83,308.66s-15.16-52.024,34.336-87.232l95.584-55.68s32.786-15.523,39.9,21.344c0,0,4.328,36.445-18.56,58.464l-74.24,53.824L255.078,330,240.23,317.012S208.06,337.118,193.83,308.66Z" transform="translate(-177.138 -153.797)" fill="#fff" stroke="#020f1e" stroke-width="1"/>
          <path id="Shape_113" data-name="Shape 113" d="M264.969,281.221l56.608-36.192s12.37-8.408,6.5-27.84c0,0-3.715-11.192-17.632-4.64,0,0-7.427-12.43-25.056-.928,0,0-17.635,10.461-18.56,35.264,0,0-17.635,8.914-14.848,27.84C251.977,274.725,255.07,283.077,264.969,281.221Z" transform="translate(-181.461 -156.982)" fill="#00b8d4"/>
          <path id="Ellipse_13" data-name="Ellipse 13" d="M290.657,217.981c10.616-6.732,19.981-3.451,20.734,7.846.783,11.746-8,27.194-19.4,33.931C280.85,266.343,272,261.723,272,249.984,272,238.678,280.265,224.571,290.657,217.981Z" transform="translate(-182.924 -157.541)" fill="#fff"/>
          <path id="Shape_111" data-name="Shape 111" d="M286.208,231,276,248.632l10.208,6.5,2.784-4.64-6.5-4.64,7.424-12.992Z" transform="translate(-183.212 -158.729)" fill="#00b8d4"/>
          <path id="Shape_112" data-name="Shape 112" d="M294,246.344l3.712,1.856,9.28-16.7L296.784,225,294,229.64l7.424,3.712Z" transform="translate(-184.508 -158.297)" fill="#00b8d4"/>
          <path id="Shape_110" data-name="Shape 110" d="M345.97,312.928A61.63,61.63,0,0,1,333.8,308.7a22.241,22.241,0,0,1-7.313-5.976s-23.822-37.795,18.56-75.168L416.5,186.72s19.971-13.809,41.649,12.621c0,0,7.841,17.328,3.823,31.923,0,0-5.571,27.474-23.2,38.048l-13.92,7.424L414.642,298.08l-12.1-8.686L371.954,307.36S356.488,317.568,345.97,312.928Z" transform="translate(-186.367 -155.281)" fill="#fff" stroke="#020f1e" stroke-width="1"/>
          <path id="Rectangle_10" data-name="Rectangle 10" d="M363.926,233.211,435.3,194.524c14.932-8.093,27.869,2.035,29.015,22.791,1.16,21.011-10.164,45.139-25.415,53.72l-13.865,7.8L415.825,298.7,403.8,290.783l-37.843,21.291c-15.971,8.985-29.331-1.861-29.718-24.036C335.859,266.14,348.307,241.676,363.926,233.211Z" transform="translate(-187.549 -155.902)" fill="#fff" stroke="#020f1e" stroke-width="1"/>
          <g id="Group_1586" data-name="Group 1586" transform="translate(243.728 357.63)">
            <path id="Shape_134_copy_3" data-name="Shape 134 copy 3" d="M438.9,843.094l51.04,29.7s8.383,4.824,16.7-.928l47.328-27.84s7.146-3.992-.928-9.28L503.86,806.9a15.267,15.267,0,0,0-13.92.928l-47.328,26.912S434.57,838.609,438.9,843.094Z" transform="translate(-437.034 -734.677)" fill="#00b8d4" opacity="0.05"/>
            <path id="Shape_134_copy_2" data-name="Shape 134 copy 2" d="M438.9,822.095l51.04,29.7s8.383,4.824,16.7-.928l47.328-27.84s7.146-3.992-.928-9.28L503.86,785.9a15.268,15.268,0,0,0-13.92.928l-47.328,26.912S434.57,817.609,438.9,822.095Z" transform="translate(-437.034 -733.165)" fill="#00b8d4" opacity="0.1"/>
            <path id="Shape_134_copy" data-name="Shape 134 copy" d="M438.9,801.095l51.04,29.7s8.383,4.824,16.7-.928l47.328-27.84s7.146-3.992-.928-9.28L503.86,764.9a15.268,15.268,0,0,0-13.92.928l-47.328,26.912S434.57,796.609,438.9,801.095Z" transform="translate(-437.034 -731.653)" fill="#00b8d4" opacity="0.1"/>
            <path id="Shape_135" data-name="Shape 135" d="M437,764.276l.928,12.064s-.587,3.123,1.856,4.64l51.04,29.7s6.682,3.587,12.992,0l50.112-29.7a4.554,4.554,0,0,0,2.784-4.64V764.276s.5-3.373-5.568-6.5L505.671,731.8a14.211,14.211,0,0,0-14.848-.928L443.5,758.708S436.69,762.575,437,764.276Z" transform="translate(-436.989 -729.171)" fill="#fff" stroke="#020f1e" stroke-width="1"/>
            <path id="Shape_134" data-name="Shape 134" d="M438.9,767.094l51.04,29.7s8.383,4.824,16.7-.928l47.328-27.84s7.146-3.992-.928-9.28L503.86,730.9a15.267,15.267,0,0,0-13.92.928l-47.328,26.912S434.57,762.609,438.9,767.094Z" transform="translate(-437.034 -729.205)" fill="#fff" stroke="#020f1e" stroke-width="1"/>
            <path id="Shape_24" data-name="Shape 24" d="M24.375,25.626l4.179-2.771,16.018,2.771-4.875-9,4.178-2.078L50.84,27.7l-3.482,2.078Zm-20.2-6.233L40.393,9.7l2.785,2.078L7.661,21.47ZM0,2.078,3.482,0,25.768,4.155,22.286,6.926,6.964,4.155l4.875,9L7.661,15.93Z" transform="translate(36.156 19.717)" fill="#00b8d4"/>
          </g>
          <g id="Group_7105" data-name="Group 7105" transform="matrix(0.995, 0.105, -0.105, 0.995, 199.295, 71.014)">
            <g id="Group_23" data-name="Group 23" transform="translate(0 0)" clip-path="url(#clip-path)">
              <path id="Path_118" data-name="Path 118" d="M1.219.118a1.274,1.274,0,0,1,1.8,1.15L5.7,17.241A2.481,2.481,0,0,1,4.519,19.8a1.274,1.274,0,0,1-1.8-1.15L.041,2.677A2.481,2.481,0,0,1,1.219.118" transform="translate(13.072 0)" fill="#00b8d4"/>
              <path id="Path_119" data-name="Path 119" d="M4.285.485c2.868-1.357,5.644.229,6.2,3.544A8.277,8.277,0,0,1,6.3,12.486C3.429,13.844.653,12.257.1,8.943A8.278,8.278,0,0,1,4.285.485" transform="translate(13.117 16.829)" fill="#00b8d4"/>
              <path id="Path_120" data-name="Path 120" d="M11.341.329a2.315,2.315,0,0,1,.106,2.746l-8.8,14.3c-.522.852-1.435,1.153-2.04.671a1.06,1.06,0,0,1-.108-.1A2.316,2.316,0,0,1,.393,15.2L9.191.9c.521-.853,1.434-1.155,2.04-.674a1.126,1.126,0,0,1,.11.1" transform="translate(20.239 1.805)" fill="#00b8d4"/>
              <path id="Path_121" data-name="Path 121" d="M.135,1.465A1.91,1.91,0,0,0,.9,3.9L12.845,8.383a1.666,1.666,0,0,0,1.95-1.214c.023-.058.043-.118.062-.178a1.911,1.911,0,0,0-.763-2.435L2.147.069A1.666,1.666,0,0,0,.2,1.284c-.023.059-.044.12-.062.181" transform="translate(0 15.543)" fill="#00b8d4"/>
              <path id="Path_122" data-name="Path 122" d="M16.139,1.673C16.165.614,15.5-.116,14.624.015L1.528,2.626A2.273,2.273,0,0,0,0,4.814c0,.026,0,.051,0,.077C-.024,5.949.643,6.68,1.517,6.548l13.1-2.611A2.273,2.273,0,0,0,16.14,1.749c0-.025,0-.051,0-.076" transform="translate(21.772 17.391)" fill="#00b8d4"/>
              <path id="Path_123" data-name="Path 123" d="M10.682,14.8a2.464,2.464,0,0,0,.232-2.8L2.707.517A1.244,1.244,0,0,0,.672.536Q.619.592.57.651a2.464,2.464,0,0,0-.232,2.8L8.543,14.934a1.245,1.245,0,0,0,2.035-.02c.036-.038.07-.077.1-.118" transform="translate(19.757 24.824)" fill="#00b8d4"/>
              <path id="Path_124" data-name="Path 124" d="M.138,12.307A2.56,2.56,0,0,1,.915,9.564L12.895.309a1.217,1.217,0,0,1,1.982.528c.008.021.015.044.023.065a2.56,2.56,0,0,1-.777,2.743L2.143,12.9A1.217,1.217,0,0,1,.16,12.373c-.008-.021-.015-.044-.023-.066" transform="translate(0.021 24.62)" fill="#00b8d4"/>
              <path id="Path_125" data-name="Path 125" d="M1.126,20.94A1.7,1.7,0,0,1,.057,18.753L3.492,1.768A1.992,1.992,0,0,1,5.235,0a1.151,1.151,0,0,1,.124.009A1.7,1.7,0,0,1,6.428,2.2L2.993,19.182A1.993,1.993,0,0,1,1.251,20.95a1.031,1.031,0,0,1-.125-.009" transform="translate(12.069 26.896)" fill="#00b8d4"/>
              <path id="Path_126" data-name="Path 126" d="M12.137,5.15c-5.916,2.767-9.8,10.557-8.685,17.4s6.823,10.145,12.738,7.377,9.8-10.557,8.685-17.4l-.009-.054c-1.136-6.815-6.83-10.091-12.73-7.324M11.5,1.337c7.727-3.7,15.232.536,16.763,9.456S24.77,29.94,17.043,33.637,1.811,33.1.28,24.182l-.012-.07C-1.243,15.2,3.785,5.008,11.5,1.337" transform="translate(4.182 5.731)" fill="#00b8d4"/>
            </g>
          </g>
        </g>
        <g id="_3rd_row_1" data-name="3rd row_1" transform="translate(121.675 147.98)">
          <path id="Path_23269" data-name="Path 23269" d="M366.4,170.129a36.253,36.253,0,0,1,3.062,1.995c.5-18.147,13.56-25.389,29.649-16.1a49.279,49.279,0,0,1,9.212,6.988c6.121-7.023,16.517-8,28.346-1.159,18.039,10.412,32.765,35.087,33.988,56.267a32.914,32.914,0,0,1,9.761,3.866c17.635,10.18,31.932,34.941,31.932,55.3,0,.985-.054,1.922-.127,2.859-1.293,18.249-15.021,25.281-31.805,15.59L366.4,229.906c-14.294-8.259-25.881-28.327-25.881-44.832S352.108,161.877,366.4,170.129Z" transform="translate(-258.66 -137.68)" fill="#00b8d4" stroke="#020f1e" stroke-width="1"/>
          <path id="Path_23270" data-name="Path 23270" d="M589.145,128.693l4.085-2.36h0c6.223-4.129,15.082-3.863,24.944,1.833,18.036,10.412,32.761,35.087,33.988,56.267h0l-24.735,14.294c-1.229-21.18-15.955-45.855-33.988-56.267-8.951-5.171-17.083-5.87-23.159-2.859h0Z" transform="translate(-415.438 -118.266)" fill="#fff" stroke="#020f1e" stroke-width="1"/>
          <path id="Path_23271" data-name="Path 23271" d="M389.113,154.864h0a13.649,13.649,0,0,1,8.211-1.766l-2.494,1.442h0c-5.314,2.938-8.681,9.269-8.929,18.315-1-.718-2.023-1.394-3.062-1.995-7.106-4.1-13.541-4.51-18.22-1.855Z" transform="translate(-275.105 -138.411)" fill="#fff" stroke="#020f1e" stroke-width="1"/>
          <path id="Path_23272" data-name="Path 23272" d="M784.709,319.067c17.635,10.18,31.929,34.941,31.929,55.3,0,.985-.051,1.922-.127,2.843-.6,8.507-3.91,14.573-8.967,17.648h0l-.035.019-.178.1L782.81,409.131h0c5.057-3.075,8.363-9.142,8.967-17.648.073-.921.127-1.858.127-2.859,0-20.364-14.294-45.124-31.933-55.3a32.914,32.914,0,0,0-9.761-3.866h0l24.735-14.294A32.961,32.961,0,0,1,784.709,319.067Z" transform="translate(-538.215 -249.031)" fill="#fff" stroke="#020f1e" stroke-width="1"/>
          <path id="Path_23273" data-name="Path 23273" d="M462.261,121.663l21.987-12.706h0c5.365-3.107,12.769-2.671,20.964,2.058a48.547,48.547,0,0,1,8.525,6.353l-18.865,10.892h0a16.73,16.73,0,0,0-5.165,4.056,49.28,49.28,0,0,0-9.212-6.988c-8.068-4.657-15.374-5.155-20.717-2.223h0Z" transform="translate(-340.038 -106.973)" fill="#fff" stroke="#020f1e" stroke-width="1"/>
          <path id="Path_23281" data-name="Path 23281" d="M577.358,300.134,535.49,275.962V265.54l41.868,24.173Z" transform="translate(-391.699 -215.173)" fill="#fff" stroke="#020f1e" stroke-linecap="round" stroke-linejoin="round" stroke-width="1"/>
          <path id="Path_23282" data-name="Path 23282" d="M669.19,348.625l-1.82,1.049-.07.04V339.293l1.89-1.093Z" transform="translate(-481.641 -264.753)" fill="#fff" stroke="#020f1e" stroke-linecap="round" stroke-linejoin="round" stroke-width="1"/>
          <path id="Path_23283" data-name="Path 23283" d="M579.248,286.279l-1.89,1.093L535.49,263.2l1.89-1.09Z" transform="translate(-391.699 -212.832)" fill="#fff" stroke="#020f1e" stroke-linecap="round" stroke-linejoin="round" stroke-width="1"/>
          <path id="Path_23284" data-name="Path 23284" d="M542.07,293.42l.683,1.461,6.569,3.793,1.417-.661-3.3-7.093Z" transform="translate(-396.189 -232.491)" fill="url(#linear-gradient)"/>
          <path id="Path_23285" data-name="Path 23285" d="M542.2,285.356a5.9,5.9,0,0,0-2.668-4.625,1.922,1.922,0,0,0-1.807-.226h0l-.076.044h0l-3.735,2.157,3.634,6.62,3.812-2.2h0A1.892,1.892,0,0,0,542.2,285.356Z" transform="translate(-390.621 -225.291)" fill="#fff" stroke="#020f1e" stroke-width="1"/>
          <path id="Path_23286" data-name="Path 23286" d="M531.14,289.2c0-1.7,1.194-2.392,2.668-1.541a5.9,5.9,0,0,1,2.668,4.625c0,1.7-1.194,2.392-2.668,1.541A5.9,5.9,0,0,1,531.14,289.2Z" transform="translate(-388.731 -230.016)" fill="#fff" stroke="#020f1e" stroke-width="1"/>
          <path id="Path_23287" data-name="Path 23287" d="M566.99,307.81l.68,1.458,6.572,3.8,1.417-.661-3.3-7.093Z" transform="translate(-413.193 -242.31)" fill="url(#linear-gradient-2)"/>
          <path id="Path_23288" data-name="Path 23288" d="M567.067,299.743a5.9,5.9,0,0,0-2.668-4.622,1.923,1.923,0,0,0-1.807-.226h0l-.076.044h0L558.78,297.1l3.634,6.616,3.812-2.2h0A1.863,1.863,0,0,0,567.067,299.743Z" transform="translate(-407.591 -235.11)" fill="#fff" stroke="#020f1e" stroke-width="1"/>
          <path id="Path_23289" data-name="Path 23289" d="M556.05,303.587c0-1.7,1.2-2.392,2.671-1.541a5.9,5.9,0,0,1,2.668,4.625c0,1.7-1.194,2.392-2.668,1.541A5.925,5.925,0,0,1,556.05,303.587Z" transform="translate(-405.729 -239.834)" fill="#fff" stroke="#020f1e" stroke-width="1"/>
          <path id="Path_23290" data-name="Path 23290" d="M591.91,322.19l.68,1.461,6.572,3.793,1.417-.661-3.3-7.093Z" transform="translate(-430.198 -252.122)" fill="url(#linear-gradient-3)"/>
          <path id="Path_23291" data-name="Path 23291" d="M591.981,314.129a5.905,5.905,0,0,0-2.671-4.625,1.925,1.925,0,0,0-1.8-.226h0l-.079.045h0l-3.735,2.157,3.634,6.616,3.812-2.2h0A1.857,1.857,0,0,0,591.981,314.129Z" transform="translate(-424.589 -244.925)" fill="#fff" stroke="#020f1e" stroke-width="1"/>
          <path id="Path_23292" data-name="Path 23292" d="M581,317.977c0-1.7,1.194-2.392,2.671-1.541a5.888,5.888,0,0,1,2.668,4.622c0,1.7-1.194,2.392-2.668,1.541A5.9,5.9,0,0,1,581,317.977Z" transform="translate(-422.753 -249.653)" fill="#fff" stroke="#020f1e" stroke-width="1"/>
          <path id="Path_23293" data-name="Path 23293" d="M616.83,336.58l.68,1.461,6.569,3.793,1.42-.661-3.3-7.093Z" transform="translate(-447.202 -261.942)" fill="url(#linear-gradient-4)"/>
          <path id="Path_23294" data-name="Path 23294" d="M616.9,328.516a5.906,5.906,0,0,0-2.671-4.625,1.922,1.922,0,0,0-1.807-.225h0l-.076.044h0l-3.735,2.157,3.618,6.613,3.812-2.2h0A1.825,1.825,0,0,0,616.9,328.516Z" transform="translate(-441.593 -254.742)" fill="#fff" stroke="#020f1e" stroke-width="1"/>
          <path id="Path_23295" data-name="Path 23295" d="M605.89,332.358c0-1.7,1.194-2.392,2.668-1.541a5.906,5.906,0,0,1,2.671,4.625c0,1.7-1.194,2.392-2.671,1.541A5.894,5.894,0,0,1,605.89,332.358Z" transform="translate(-439.737 -259.467)" fill="#fff" stroke="#020f1e" stroke-width="1"/>
          <path id="Path_23297" data-name="Path 23297" d="M641.817,342.9a5.9,5.9,0,0,0-2.668-4.622,1.923,1.923,0,0,0-1.807-.226h0l-.076.044h0l-3.735,2.157,3.643,6.61,3.812-2.2h0A1.858,1.858,0,0,0,641.817,342.9Z" transform="translate(-458.598 -264.561)" fill="#fff" stroke="#020f1e" stroke-width="1"/>
          <path id="Path_23298" data-name="Path 23298" d="M630.81,346.747c0-1.7,1.194-2.392,2.668-1.541a5.906,5.906,0,0,1,2.671,4.625c0,1.7-1.2,2.392-2.671,1.541A5.9,5.9,0,0,1,630.81,346.747Z" transform="translate(-456.742 -269.285)" fill="#fff" stroke="#020f1e" stroke-width="1"/>
          <path id="Path_23299" data-name="Path 23299" d="M551.118,316.427l-6.62,3.812a5.457,5.457,0,0,0-2.725,4.723v16.517m1.429-29.62-6.62,3.812a5.454,5.454,0,0,0-2.725,4.723v16.517m1.433-29.623-6.62,3.812a5.454,5.454,0,0,0-2.713,4.733V332.35m1.417-29.633-6.62,3.812a5.451,5.451,0,0,0-2.738,4.733V327.78m1.442-29.63-6.62,3.812a5.457,5.457,0,0,0-2.729,4.723V323.2" transform="translate(-374.381 -237.424)" fill="none" stroke="#def6f9" stroke-linecap="round" stroke-linejoin="round" stroke-width="3"/>
          <path id="Path_23300" data-name="Path 23300" d="M503.992,411.619c0,1.232-.874,1.734-1.938,1.121l-65.117-37.6A4.3,4.3,0,0,1,435,371.783v-49.12c0-1.229.874-1.734,1.941-1.118l65.117,37.6a4.31,4.31,0,0,1,1.938,3.361Z" transform="translate(-323.129 -253.209)" fill="#020f1e"/>
          <path id="Path_23301" data-name="Path 23301" d="M504.88,356.481l-65.117-37.6a1.333,1.333,0,0,0-1.382-.124h0l-1.382.807h0a1.388,1.388,0,0,1,1.309.162l65.117,37.6a4.31,4.31,0,0,1,1.938,3.361V409.8a1.364,1.364,0,0,1-.562,1.248h0l1.391-.807h0a1.319,1.319,0,0,0,.635-1.286V359.839a4.3,4.3,0,0,0-1.947-3.357Z" transform="translate(-324.494 -251.39)" fill="#fff" stroke="#020f1e" stroke-width="1"/>
          <path id="Path_23302" data-name="Path 23302" d="M441.08,329.15V377.5L506.2,415.1V366.749Z" transform="translate(-327.278 -258.578)" fill="#fff" stroke="#020f1e" stroke-width="1"/>
          <path id="Path_23303" data-name="Path 23303" d="M357.135,550.558a4.3,4.3,0,0,1-3.878,0l-65.117-37.6a1.172,1.172,0,0,1,0-2.223l44.387-25.627a4.3,4.3,0,0,1,3.878,0l65.116,37.6a1.172,1.172,0,0,1,0,2.224Z" transform="translate(-222.372 -364.681)" fill="#fff" stroke="#020f1e" stroke-width="1"/>
          <path id="Path_23311" data-name="Path 23311" d="M553.376,565.167l-3.186-1.839,1.594-.918,3.183,1.839Z" transform="translate(-401.73 -417.744)" fill="#fff" stroke="#020f1e" stroke-width="1"/>
          <g id="Group_7177" data-name="Group 7177" transform="translate(88.553 122.987)">
            <path id="Path_23304" data-name="Path 23304" d="M435.166,496.917l-3.186-1.836,1.595-.921L436.757,496Z" transform="translate(-409.621 -494.16)" fill="#fff" stroke="#020f1e" stroke-width="1"/>
            <path id="Path_23305" data-name="Path 23305" d="M452.056,506.667l-3.186-1.839,1.591-.918,3.186,1.839Z" transform="translate(-421.147 -500.813)" fill="#fff" stroke="#020f1e" stroke-width="1"/>
            <path id="Path_23306" data-name="Path 23306" d="M468.943,516.417l-3.183-1.839,1.591-.918,3.186,1.839Z" transform="translate(-432.671 -507.466)" fill="#fff" stroke="#020f1e" stroke-width="1"/>
            <path id="Path_23307" data-name="Path 23307" d="M485.826,526.167l-3.186-1.839,1.595-.918,3.183,1.839Z" transform="translate(-444.19 -514.119)" fill="#fff" stroke="#020f1e" stroke-width="1"/>
            <path id="Path_23308" data-name="Path 23308" d="M502.716,535.917l-3.186-1.839,1.591-.918L504.307,535Z" transform="translate(-455.715 -520.772)" fill="#fff" stroke="#020f1e" stroke-width="1"/>
            <path id="Path_23309" data-name="Path 23309" d="M519.6,545.667l-3.183-1.839,1.591-.918,3.186,1.839Z" transform="translate(-467.24 -527.425)" fill="#fff" stroke="#020f1e" stroke-width="1"/>
            <path id="Path_23310" data-name="Path 23310" d="M536.493,555.417l-3.183-1.839,1.591-.918,3.183,1.839Z" transform="translate(-478.764 -534.078)" fill="#fff" stroke="#020f1e" stroke-width="1"/>
            <path id="Path_23312" data-name="Path 23312" d="M570.263,574.917l-3.183-1.839,1.591-.918L571.857,574Z" transform="translate(-501.808 -547.384)" fill="#fff" stroke="#020f1e" stroke-width="1"/>
            <path id="Path_23313" data-name="Path 23313" d="M587.153,584.667l-3.183-1.839,1.591-.918,3.183,1.836Z" transform="translate(-513.333 -554.037)" fill="#fff" stroke="#020f1e" stroke-width="1"/>
            <path id="Path_23314" data-name="Path 23314" d="M604.036,594.417l-3.186-1.839,1.594-.918,3.183,1.836Z" transform="translate(-524.851 -560.69)" fill="#fff" stroke="#020f1e" stroke-width="1"/>
            <path id="Path_23315" data-name="Path 23315" d="M620.926,604.16l-3.186-1.839,1.591-.921,3.186,1.839Z" transform="translate(-536.376 -567.336)" fill="#fff" stroke="#020f1e" stroke-width="1"/>
            <path id="Path_23316" data-name="Path 23316" d="M420.824,506.156l-5.724-3.307,3.183-1.839,5.727,3.307Z" transform="translate(-398.103 -498.834)" fill="#fff" stroke="#020f1e" stroke-width="1"/>
            <path id="Path_23317" data-name="Path 23317" d="M406.816,516.764,398.91,512.2l3.186-1.839,7.9,4.564Z" transform="translate(-387.056 -505.214)" fill="#fff" stroke="#020f1e" stroke-width="1"/>
            <path id="Path_23318" data-name="Path 23318" d="M392.105,527.772l-10.085-5.822,3.186-1.839,10.082,5.822Z" transform="translate(-375.531 -511.867)" fill="#fff" stroke="#020f1e" stroke-width="1"/>
            <path id="Path_23319" data-name="Path 23319" d="M367.317,535.654l-5.727-3.3,4.31-2.49,5.727,3.3Z" transform="translate(-361.59 -518.52)" fill="#fff" stroke="#020f1e" stroke-width="1"/>
            <path id="Path_23320" data-name="Path 23320" d="M392.2,550.024l-5.724-3.307,4.31-2.487,5.727,3.3Z" transform="translate(-378.574 -528.326)" fill="#fff" stroke="#020f1e" stroke-width="1"/>
            <path id="Path_23321" data-name="Path 23321" d="M417.087,564.394l-5.727-3.307,4.314-2.487,5.724,3.3Z" transform="translate(-395.551 -538.131)" fill="#fff" stroke="#020f1e" stroke-width="1"/>
            <path id="Path_23322" data-name="Path 23322" d="M502.894,613.934l-5.724-3.307,4.31-2.487,5.727,3.3Z" transform="translate(-454.104 -571.935)" fill="#fff" stroke="#020f1e" stroke-width="1"/>
            <path id="Path_23323" data-name="Path 23323" d="M533.249,631.453,522.02,624.97l4.31-2.49,11.232,6.483Z" transform="translate(-471.061 -581.72)" fill="#fff" stroke="#020f1e" stroke-width="1"/>
            <path id="Path_23324" data-name="Path 23324" d="M453.434,585.373,436.25,575.45l4.31-2.49,17.188,9.923Z" transform="translate(-412.535 -547.93)" fill="#fff" stroke="#020f1e" stroke-width="1"/>
            <path id="Path_23325" data-name="Path 23325" d="M444.668,519.925l-4.688-2.706,3.186-1.839,4.685,2.706Z" transform="translate(-415.08 -508.64)" fill="#fff" stroke="#020f1e" stroke-width="1"/>
            <path id="Path_23326" data-name="Path 23326" d="M435.345,533.232l-4.685-2.7,3.183-1.839,4.688,2.7Z" transform="translate(-408.721 -517.722)" fill="#fff" stroke="#020f1e" stroke-width="1"/>
            <path id="Path_23327" data-name="Path 23327" d="M425.778,546.676l-4.688-2.706,3.186-1.839,4.685,2.706Z" transform="translate(-402.191 -526.893)" fill="#fff" stroke="#020f1e" stroke-width="1"/>
            <path id="Path_23328" data-name="Path 23328" d="M447.4,559.155l-4.685-2.706,3.183-1.839,4.688,2.706Z" transform="translate(-416.943 -535.409)" fill="#fff" stroke="#020f1e" stroke-width="1"/>
            <path id="Path_23329" data-name="Path 23329" d="M469.005,571.632l-4.685-2.7,3.183-1.839,4.688,2.706Z" transform="translate(-431.689 -543.924)" fill="#fff" stroke="#020f1e" stroke-width="1"/>
            <path id="Path_23330" data-name="Path 23330" d="M490.615,584.112l-4.685-2.7,3.186-1.839,4.685,2.7Z" transform="translate(-446.435 -552.44)" fill="#fff" stroke="#020f1e" stroke-width="1"/>
            <path id="Path_23331" data-name="Path 23331" d="M512.225,596.586l-4.685-2.706,3.186-1.839,4.685,2.706Z" transform="translate(-461.181 -560.949)" fill="#fff" stroke="#020f1e" stroke-width="1"/>
            <path id="Path_23332" data-name="Path 23332" d="M533.845,609.065l-4.685-2.706,3.183-1.839,4.685,2.706Z" transform="translate(-475.933 -569.465)" fill="#fff" stroke="#020f1e" stroke-width="1"/>
            <path id="Path_23333" data-name="Path 23333" d="M559.505,623.883l-8.735-5.044L553.953,617l8.735,5.044Z" transform="translate(-490.679 -577.981)" fill="#fff" stroke="#020f1e" stroke-width="1"/>
            <path id="Path_23334" data-name="Path 23334" d="M456.955,545.712l-4.685-2.7,3.186-1.839,4.685,2.7Z" transform="translate(-423.466 -526.238)" fill="#fff" stroke="#020f1e" stroke-width="1"/>
            <path id="Path_23335" data-name="Path 23335" d="M478.568,558.185l-4.688-2.706,3.186-1.839,4.685,2.706Z" transform="translate(-438.212 -534.747)" fill="#fff" stroke="#020f1e" stroke-width="1"/>
            <path id="Path_23336" data-name="Path 23336" d="M500.185,570.665l-4.685-2.706,3.183-1.839,4.685,2.706Z" transform="translate(-452.964 -543.263)" fill="#fff" stroke="#020f1e" stroke-width="1"/>
            <path id="Path_23337" data-name="Path 23337" d="M521.8,583.146l-4.685-2.706,3.183-1.839,4.688,2.706Z" transform="translate(-467.71 -551.779)" fill="#fff" stroke="#020f1e" stroke-width="1"/>
            <path id="Path_23338" data-name="Path 23338" d="M543.405,595.622l-4.685-2.7,3.186-1.839,4.685,2.706Z" transform="translate(-482.456 -560.294)" fill="#fff" stroke="#020f1e" stroke-width="1"/>
            <path id="Path_23339" data-name="Path 23339" d="M571.244,611.691l-10.914-6.3,3.186-1.839,10.914,6.3Z" transform="translate(-497.202 -568.803)" fill="#fff" stroke="#020f1e" stroke-width="1"/>
            <path id="Path_23340" data-name="Path 23340" d="M466.285,532.405,461.6,529.7l3.183-1.839,4.685,2.706Z" transform="translate(-429.833 -517.156)" fill="#fff" stroke="#020f1e" stroke-width="1"/>
            <path id="Path_23341" data-name="Path 23341" d="M487.9,544.882l-4.685-2.7,3.183-1.839,4.688,2.7Z" transform="translate(-444.579 -525.672)" fill="#fff" stroke="#020f1e" stroke-width="1"/>
            <path id="Path_23342" data-name="Path 23342" d="M509.505,557.362l-4.685-2.706,3.186-1.836,4.685,2.706Z" transform="translate(-459.324 -534.187)" fill="#fff" stroke="#020f1e" stroke-width="1"/>
            <path id="Path_23343" data-name="Path 23343" d="M531.115,569.835l-4.685-2.706,3.186-1.839L534.3,568Z" transform="translate(-474.07 -542.696)" fill="#fff" stroke="#020f1e" stroke-width="1"/>
            <path id="Path_23344" data-name="Path 23344" d="M552.728,582.315l-4.688-2.706,3.186-1.839,4.685,2.706Z" transform="translate(-488.816 -551.212)" fill="#fff" stroke="#020f1e" stroke-width="1"/>
            <path id="Path_23345" data-name="Path 23345" d="M574.345,594.8l-4.685-2.706,3.183-1.839,4.688,2.706Z" transform="translate(-503.569 -559.728)" fill="#fff" stroke="#020f1e" stroke-width="1"/>
            <path id="Path_23346" data-name="Path 23346" d="M597.5,608.165l-6.229-3.6,3.186-1.839,6.226,3.6Z" transform="translate(-518.314 -568.243)" fill="#fff" stroke="#020f1e" stroke-width="1"/>
          </g>
          <path id="Path_23347" data-name="Path 23347" d="M509.891,529.075,458.43,499.363l1.547-.893,51.461,29.712Z" transform="translate(-339.117 -374.114)" fill="#020f1e"/>
          <path id="Path_23348" data-name="Path 23348" d="M398.88,591.551,372.62,576.39l-16.32,9.421,26.263,15.161Z" transform="translate(-269.427 -427.284)" fill="none" stroke="#020f1e" stroke-width="1"/>
          <path id="Path_23349" data-name="Path 23349" d="M401.6,583.5,357.21,609.128a4.362,4.362,0,0,1-3.145.318,7.559,7.559,0,0,1-.734-.318l-65.117-37.6a1.645,1.645,0,0,1-.206-.133h0l-.048-.038c-.038-.032-.076-.06-.108-.092l-.051-.048a1.308,1.308,0,0,1-.111-.121h0a1.334,1.334,0,0,1-.1-.149,1,1,0,0,1-.143-.467h0v.953h0a1.353,1.353,0,0,0,.794,1.131l65.117,37.6a7.97,7.97,0,0,0,4.447.476c.67-.159,1.255-.318,1.947-.461l41.881-24.182a1.357,1.357,0,0,0,.8-1.134V582.4A1.517,1.517,0,0,1,401.6,583.5Z" transform="translate(-222.447 -423.251)" fill="#fff" stroke="#020f1e" stroke-width="1"/>
          <path id="Shape_97" data-name="Shape 97" d="M19.47,29.225a1.727,1.727,0,0,1-.662-.568,2.339,2.339,0,0,1-.174-.333,2.124,2.124,0,0,1-.124-.393,5.516,5.516,0,0,1-.093-1.09q-.1-.046-.2-.1c-1.942-1.1-3.508-4.579-3.492-7.787s1.618-4.925,3.572-3.8,3.5,4.617,3.471,7.81c-.022,2.484-.993,4.058-2.338,4.111v.08a4.538,4.538,0,0,0,.028.59,2.111,2.111,0,0,0,.086.407.817.817,0,0,0,.132.255.441.441,0,0,0,.15.122.225.225,0,0,0,.259,0c.1-.057.147-.535.194-.7l.283.356a3.734,3.734,0,0,1-.214.685,1.051,1.051,0,0,1-.263.325.522.522,0,0,1-.3.115h-.024A.609.609,0,0,1,19.47,29.225Zm-.022-3.943c.783-.263,1.32-1.325,1.333-2.888.019-2.291-1.095-4.8-2.491-5.6h0c-1.4-.8-2.545.422-2.558,2.725s1.108,4.8,2.5,5.584a2.164,2.164,0,0,0,.2.1l.022-3.2-.681-.387a2.109,2.109,0,0,0,1.057-.574,2.273,2.273,0,0,0,.661-1.328l-.016,2.127,1,.57-.006.737-1-.569Zm8.064-5.2L23.38,2.266c-.21-.907,0-1.715.471-1.8l2.39-.453h0c.469-.089,1.018.574,1.225,1.48l4.079,17.8c.2.884-.008,1.674-.47,1.766l-2.353.468a.46.46,0,0,1-.09.009C28.192,21.526,27.7,20.91,27.513,20.082ZM2.052,19.92.074,11.961c-.183-.735-.017-1.391.371-1.466s.849.462,1.03,1.2L1.8,13.02l2.54-.49h0c.431-.081.943.517,1.143,1.335l.574,2.342,0,.007c.2.815.012,1.541-.418,1.623h0l-2.53.494.326,1.317,0,.007c.179.726.012,1.374-.373,1.448A.385.385,0,0,1,3,21.109C2.633,21.109,2.22,20.6,2.052,19.92Zm15.013-7.076L15.571,6.553c-.213-.914,0-1.728.472-1.827l5.333-1.017c.478-.085,1.035.589,1.245,1.5l2.913,12.5c.2.9-.006,1.7-.473,1.8l-2.627.519C21.517,16.137,19.245,13.087,17.065,12.844ZM8.053,18.472,6.239,11.049c-.209-.875-.01-1.653.446-1.75l6.9-1.325c.458-.078,1,.556,1.208,1.427l.888,3.722h0c-1.392.79-2.162,3.047-2.012,5.893l-4.405.865a.464.464,0,0,1-.081.007C8.746,19.888,8.256,19.286,8.053,18.472Z" transform="translate(126.624 99.279)" fill="#00b8d4"/>
        </g>
      </g>
      <g id="_4-2" data-name="4" transform="translate(-553.563 7884.77)">
        <g id="Group_1589" data-name="Group 1589" transform="translate(0 0)">
          <path id="Shape_130" data-name="Shape 130" d="M308.544,427.5v189.87S247.691,560.413,239,526.323V354S271.058,398.4,308.544,427.5Z" transform="translate(-239 -354)" fill="none" stroke="#020f1e" stroke-width="1"/>
          <path id="Shape_131" data-name="Shape 131" d="M522.182,499.8V674.366S391.467,678.451,294,609.751V420S370.367,485.751,522.182,499.8Z" transform="translate(-224.533 -346.504)" fill="rgba(255,255,255,0.7)" stroke="#020f1e" stroke-width="1"/>
        </g>
        <g id="Group_10900" data-name="Group 10900" transform="translate(-1115.6 -3100.286)">
          <g id="Path_46325" data-name="Path 46325" transform="translate(1211 3229)" fill="none" stroke-linecap="round">
            <path d="M5,19a5,5,0,0,1,5,5v99a5,5,0,0,1-10,0V24A5,5,0,0,1,5,19Z" stroke="none"/>
            <path d="M 5 20 C 2.79438591003418 20 1 21.79438781738281 1 24 L 1 123 C 1 125.2056121826172 2.79438591003418 127 5 127 C 7.20561408996582 127 9 125.2056121826172 9 123 L 9 24 C 9 21.79438781738281 7.20561408996582 20 5 20 M 5 19 C 7.761428833007812 19 10 21.23857116699219 10 24 L 10 123 C 10 125.7614135742188 7.761428833007812 128 5 128 C 2.238571643829346 128 0 125.7614135742188 0 123 L 0 24 C 0 21.23857116699219 2.238571643829346 19 5 19 Z" stroke="none" fill="#020f1e"/>
          </g>
          <g id="Path_46319" data-name="Path 46319" transform="translate(1232 3240)" fill="none" stroke-linecap="round">
            <path d="M5,30a5,5,0,0,1,5,5v88a5,5,0,0,1-10,0V35A5,5,0,0,1,5,30Z" stroke="none"/>
            <path d="M 5 31 C 2.794386863708496 31 1 32.79438781738281 1 35 L 1 123 C 1 125.2056121826172 2.794386863708496 127 5 127 C 7.205613136291504 127 9 125.2056121826172 9 123 L 9 35 C 9 32.79438781738281 7.205613136291504 31 5 31 M 5 30 C 7.76142692565918 30 10 32.23857116699219 10 35 L 10 123 C 10 125.7614135742188 7.76142692565918 128 5 128 C 2.238573551177979 128 0 125.7614135742188 0 123 L 0 35 C 0 32.23857116699219 2.238573551177979 30 5 30 Z" stroke="none" fill="#020f1e"/>
          </g>
          <g id="Path_46320" data-name="Path 46320" transform="translate(1250 3249)" fill="none" stroke-linecap="round">
            <path d="M5,50a5,5,0,0,1,5,5v68a5,5,0,0,1-10,0V55A5,5,0,0,1,5,50Z" stroke="none"/>
            <path d="M 5 51 C 2.794388771057129 51 1 52.79438781738281 1 55 L 1 123 C 1 125.2056121826172 2.794388771057129 127 5 127 C 7.205611228942871 127 9 125.2056121826172 9 123 L 9 55 C 9 52.79438781738281 7.205611228942871 51 5 51 M 5 50 C 7.761422157287598 50 10 52.23856353759766 10 55 L 10 123 C 10 125.7614212036133 7.761422157287598 128 5 128 C 2.238577842712402 128 0 125.7614212036133 0 123 L 0 55 C 0 52.23856353759766 2.238577842712402 50 5 50 Z" stroke="none" fill="#020f1e"/>
          </g>
          <g id="Path_46321" data-name="Path 46321" transform="translate(1271 3257)" fill="none" stroke-linecap="round">
            <path d="M5,67a5,5,0,0,1,5,5v51a5,5,0,0,1-10,0V72A5,5,0,0,1,5,67Z" stroke="none"/>
            <path d="M 5 68 C 2.794390201568604 68 1 69.79438781738281 1 72 L 1 123 C 1 125.2056121826172 2.794390201568604 127 5 127 C 7.205610275268555 127 9 125.2056121826172 9 123 L 9 72 C 9 69.79438781738281 7.205610275268555 68 5 68 M 5 67 C 7.761420249938965 67 10 69.23857116699219 10 72 L 10 123 C 10 125.7614212036133 7.761420249938965 128 5 128 C 2.238580226898193 128 0 125.7614212036133 0 123 L 0 72 C 0 69.23857116699219 2.238580226898193 67 5 67 Z" stroke="none" fill="#020f1e"/>
          </g>
          <g id="Path_46322" data-name="Path 46322" transform="translate(1292 3263)" fill="none" stroke-linecap="round">
            <path d="M5,49a5,5,0,0,1,5,5v69a5,5,0,0,1-10,0V54A5,5,0,0,1,5,49Z" stroke="none"/>
            <path d="M 5 50 C 2.794388771057129 50 1 51.79438781738281 1 54 L 1 123 C 1 125.2056121826172 2.794388771057129 127 5 127 C 7.205611228942871 127 9 125.2056121826172 9 123 L 9 54 C 9 51.79438781738281 7.205611228942871 50 5 50 M 5 49 C 7.761422157287598 49 10 51.23856353759766 10 54 L 10 123 C 10 125.7614212036133 7.761422157287598 128 5 128 C 2.238577842712402 128 0 125.7614212036133 0 123 L 0 54 C 0 51.23856353759766 2.238577842712402 49 5 49 Z" stroke="none" fill="#020f1e"/>
          </g>
          <g id="Path_46323" data-name="Path 46323" transform="translate(1316 3269)" fill="none" stroke-linecap="round">
            <path d="M5,36a5,5,0,0,1,5,5v82a5,5,0,0,1-10,0V41A5,5,0,0,1,5,36Z" stroke="none"/>
            <path d="M 5 37 C 2.794387340545654 37 1 38.79438781738281 1 41 L 1 123 C 1 125.2056121826172 2.794387340545654 127 5 127 C 7.205612182617188 127 9 125.2056121826172 9 123 L 9 41 C 9 38.79438781738281 7.205612182617188 37 5 37 M 5 36 C 7.761425018310547 36 10 38.23857879638672 10 41 L 10 123 C 10 125.7614288330078 7.761425018310547 128 5 128 C 2.238574981689453 128 0 125.7614288330078 0 123 L 0 41 C 0 38.23857879638672 2.238574981689453 36 5 36 Z" stroke="none" fill="#020f1e"/>
          </g>
          <g id="Path_46324" data-name="Path 46324" transform="translate(1340 3272)" fill="none" stroke-linecap="round">
            <path d="M5-4a5,5,0,0,1,5,5V123a5,5,0,0,1-10,0V1A5,5,0,0,1,5-4Z" stroke="none"/>
            <path d="M 5 -3 C 2.794400215148926 -3 1 -1.205596923828125 1 1 L 1 123 C 1 125.2055969238281 2.794400215148926 127 5 127 C 7.205599784851074 127 9 125.2055969238281 9 123 L 9 1 C 9 -1.205596923828125 7.205599784851074 -3 5 -3 M 5 -4 C 7.761418342590332 -4 10 -1.761436462402344 10 1 L 10 123 C 10 125.7614212036133 7.761418342590332 128 5 128 C 2.238581657409668 128 0 125.7614212036133 0 123 L 0 1 C 0 -1.761436462402344 2.238581657409668 -4 5 -4 Z" stroke="none" fill="#020f1e"/>
          </g>
          <path id="Path_46326" data-name="Path 46326" d="M2905.1-2441.9v134.467s72.034,51.533,171.8,51.533" transform="translate(-1700 5658)" fill="none" stroke="#020f1e" stroke-width="1"/>
        </g>
        <g id="Group_10901" data-name="Group 10901" transform="translate(-1115.6 -3106.286)">
          <g id="Ellipse_1791" data-name="Ellipse 1791" transform="translate(1117.437 3221.584) rotate(-11)" fill="#fff" stroke="#020f1e" stroke-width="1">
            <ellipse cx="26.5" cy="40.086" rx="26.5" ry="40.086" stroke="none"/>
            <ellipse cx="26.5" cy="40.086" rx="26" ry="39.586" fill="none"/>
          </g>
          <path id="Path_46327" data-name="Path 46327" d="M2873.438-2417.9l-24.988,16.77-5.912-39.925s17.734-4.529,29.946,21.221l.054.116Z" transform="translate(-1700 5658)" fill="none" stroke="#020f1e" stroke-width="1"/>
        </g>
      </g>
    </g>
  </g>
</svg>
