<svg xmlns="http://www.w3.org/2000/svg" xmlns:xlink="http://www.w3.org/1999/xlink" width="662.975" height="458.529" viewBox="0 0 662.975 458.529">
  <defs>
    <linearGradient id="linear-gradient" x1="0.291" y1="0.872" x2="0.644" y2="0.214" gradientUnits="objectBoundingBox">
      <stop offset="0" stop-color="#423eaf"/>
      <stop offset="0.49" stop-color="#302b8e"/>
      <stop offset="1" stop-color="#1f196f"/>
    </linearGradient>
    <linearGradient id="linear-gradient-2" x1="-0.821" y1="1.887" x2="0.957" y2="0.125" xlink:href="#linear-gradient"/>
    <linearGradient id="linear-gradient-3" x1="0.291" y1="0.872" x2="0.643" y2="0.214" xlink:href="#linear-gradient"/>
    <linearGradient id="linear-gradient-4" x1="-0.819" y1="1.886" x2="0.956" y2="0.126" xlink:href="#linear-gradient"/>
  </defs>
  <g id="qt-img2" transform="translate(0.5 -2.182)">
    <path id="Path_22274" data-name="Path 22274" d="M887.733,381.959c-2.63.434-3.394,4.677-2.075,7.342a10.166,10.166,0,0,0,2.89,1.769s8.32,3.417,10.187,3.561,6.03-.578,6.359-3.741c-.318-1.954-1.96-2.492-3.972-3.689-2.625-1.555-4.874-3.816-6.99-4.85C892.393,381.5,887.733,381.959,887.733,381.959Z" transform="translate(-464.998 -308.42)" fill="url(#linear-gradient)"/>
    <path id="Path_22275" data-name="Path 22275" d="M898.862,398.558c-1.92-.15-10.481-3.654-10.481-3.654a11.173,11.173,0,0,1-2.891-1.734,6.917,6.917,0,0,0,.353.931,10.18,10.18,0,0,0,2.891,1.769s8.32,3.417,10.187,3.561,6.03-.578,6.36-3.741a1.224,1.224,0,0,0-.047-.2C904.354,398.113,900.625,398.709,898.862,398.558Z" transform="translate(-465.195 -313.202)" fill="#121047"/>
    <path id="Path_22276" data-name="Path 22276" d="M894.6,377.18a46.619,46.619,0,0,0-5.619,2.093,2.479,2.479,0,0,1-.214,1.232l-.1.179c-.786.763-1.618,2.116.792,2.891,4.683,1.468,8.672-1.671,6.834-2.729C895.053,380.123,894.758,378.174,894.6,377.18Z" transform="translate(-466.195 -306.456)" fill="#fff"/>
    <path id="Path_22277" data-name="Path 22277" d="M900.685,383.809c-.347-.463-1.156-1.7-2.59-.676a3.5,3.5,0,0,0-1.654,3.411c.174,1.07,3.255.277,3.37.116S900.685,383.809,900.685,383.809Z" transform="translate(-469.799 -308.801)" fill="url(#linear-gradient-2)"/>
    <path id="Path_22279" data-name="Path 22279" d="M848.4,404.675c-2.636.434-3.394,4.677-2.075,7.342a10.173,10.173,0,0,0,2.89,1.769s8.314,3.417,10.187,3.561,6.024-.549,6.36-3.74c-.324-1.954-1.96-2.492-3.978-3.689-2.619-1.555-4.868-3.816-6.984-4.85C853.057,404.236,848.4,404.675,848.4,404.675Z" transform="translate(-448.406 -318.007)" fill="url(#linear-gradient-3)"/>
    <path id="Path_22280" data-name="Path 22280" d="M859.528,421.264c-1.925-.15-10.487-3.659-10.487-3.659a10.987,10.987,0,0,1-2.891-1.734,5.874,5.874,0,0,0,.352.931,10.18,10.18,0,0,0,2.891,1.769s8.313,3.417,10.187,3.561,6.024-.549,6.36-3.741a.846.846,0,0,0-.052-.2C865.021,420.819,861.286,421.414,859.528,421.264Z" transform="translate(-448.599 -322.778)" fill="#121047"/>
    <path id="Path_22281" data-name="Path 22281" d="M855.263,399.89a46.274,46.274,0,0,0-5.619,2.093,2.6,2.6,0,0,1-.214,1.237,1.738,1.738,0,0,0-.1.173c-.792.763-1.625,2.116.792,2.891,4.677,1.469,8.672-1.671,6.828-2.729C855.737,402.844,855.425,400.884,855.263,399.89Z" transform="translate(-449.6 -316.037)" fill="#fff"/>
    <path id="Path_22282" data-name="Path 22282" d="M861.351,406.517c-.347-.462-1.156-1.7-2.59-.682a3.5,3.5,0,0,0-1.659,3.417c.173,1.069,3.255.277,3.377.116S861.351,406.517,861.351,406.517Z" transform="translate(-453.203 -318.38)" fill="url(#linear-gradient-4)"/>
    <path id="Path_22290" data-name="Path 22290" d="M898.6,475.227,895.29,472.7,897.6,452.68l3.313,2.532Z" transform="translate(-469.329 -338.307)" fill="#6b67e9"/>
    <path id="Path_22291" data-name="Path 22291" d="M903.493,437.8l-3.313-2.532,1.544-13.332,3.307,2.532Z" transform="translate(-471.392 -325.339)" fill="#6b67e9"/>
    <path id="Path_22292" data-name="Path 22292" d="M845.513,466.114l-3.313-2.532L875.721,445l3.312,2.532Z" transform="translate(-446.932 -335.067)" fill="#807dfb"/>
    <path id="Path_22293" data-name="Path 22293" d="M907.043,407.064l-3.313-2.532,1.544-13.332,3.312,2.532Z" transform="translate(-472.889 -312.371)" fill="#6b67e9"/>
    <path id="Path_22294" data-name="Path 22294" d="M849.063,435.374l-3.313-2.532L879.27,414.26l3.313,2.532Z" transform="translate(-448.429 -322.099)" fill="#807dfb"/>
    <path id="Path_22295" data-name="Path 22295" d="M910.592,376.334,907.28,373.8l1.543-13.332L912.136,363Z" transform="translate(-474.387 -299.407)" fill="#6b67e9"/>
    <path id="Path_22296" data-name="Path 22296" d="M852.622,404.644l-3.312-2.532,33.515-18.581,3.312,2.532Z" transform="translate(-449.932 -309.135)" fill="#807dfb"/>
    <path id="Path_22297" data-name="Path 22297" d="M914.153,345.594l-3.313-2.532,1.538-13.332,3.313,2.532Z" transform="translate(-475.889 -286.439)" fill="#6b67e9"/>
    <path id="Path_22298" data-name="Path 22298" d="M856.173,373.9l-3.313-2.532L886.38,352.79l3.312,2.532Z" transform="translate(-451.429 -296.167)" fill="#807dfb"/>
    <path id="Path_22300" data-name="Path 22300" d="M859.723,343.168l-3.313-2.532,33.521-18.576,3.312,2.532Z" transform="translate(-452.927 -283.203)" fill="#807dfb"/>
    <path id="Path_22313" data-name="Path 22313" d="M1017.275,354.061,902.549,287.812a17.969,17.969,0,0,0-19.483.885h0L806,333.179a17.87,17.87,0,0,1,16.645.746L937.4,400.2a29.057,29.057,0,0,1,14.54,25.178v94.74L1031.809,474V379.245a29.082,29.082,0,0,0-14.537-25.185Z" transform="translate(-431.661 -267.722)" fill="#fff" stroke="#020f1e" stroke-linecap="round" stroke-linejoin="round" stroke-width="1"/>
    <path id="Path_22314" data-name="Path 22314" d="M787.82,383.268v80.188l156.45,90.329V459.022a29.058,29.058,0,0,0-14.54-25.155L814.975,367.589a18.1,18.1,0,0,0-27.155,15.679Z" transform="translate(-423.991 -301.386)" fill="#fff" stroke="#020f1e" stroke-linecap="round" stroke-linejoin="round" stroke-width="1"/>
    <path id="Path_22316" data-name="Path 22316" d="M736.45,429.877v87.582l135.7,78.349V508.775a20.812,20.812,0,0,0-10.406-18.032l-115.362-66.6a6.619,6.619,0,0,0-9.932,5.735Z" transform="translate(-402.32 -325.893)" fill="#ced3f8"/>
    <path id="Path_22317" data-name="Path 22317" d="M904.575,450.391l-115.333-66.6a6.557,6.557,0,0,0-6.747.087L742.28,407.088a6.54,6.54,0,0,1,6.562.029L864.2,473.725A20.813,20.813,0,0,1,874.6,491.757v87.027L915,555.462V468.429A20.812,20.812,0,0,0,904.575,450.391Z" transform="translate(-404.78 -308.868)" fill="#00b8d4" stroke="#020f1e" stroke-width="1"/>
    <path id="Path_22318" data-name="Path 22318" d="M808.361,474.681,693.583,408.426a17.981,17.981,0,0,0-19.483.89h0L597.08,453.793a17.922,17.922,0,0,1,16.65.746l114.755,66.255a29.088,29.088,0,0,1,14.54,25.184v94.739L822.9,594.6v-94.74a29.077,29.077,0,0,0-14.54-25.187Z" transform="translate(-343.526 -318.606)" fill="#fff" stroke="#020f1e" stroke-width="1"/>
    <path id="Path_22319" data-name="Path 22319" d="M578.91,503.9v80.182l156.45,90.311v-94.74a29.084,29.084,0,0,0-14.537-25.182l-114.758-66.24A18.107,18.107,0,0,0,578.91,503.9Z" transform="translate(-335.86 -352.283)" fill="#fff" stroke="#020f1e" stroke-width="1"/>
    <path id="Path_22321" data-name="Path 22321" d="M527.54,550.487v87.588l135.7,78.349V629.385a20.815,20.815,0,0,0-10.407-18.032l-115.362-66.6a6.62,6.62,0,0,0-9.932,5.735Z" transform="translate(-314.189 -376.773)" fill="#ced3f8"/>
    <path id="Path_22322" data-name="Path 22322" d="M695.678,571.011l-115.356-66.6a6.561,6.561,0,0,0-6.741.081L533.36,527.7a6.562,6.562,0,0,1,6.568,0l115.356,66.631a20.812,20.812,0,0,1,10.406,18.032V699.4l40.4-23.322V589.043a20.815,20.815,0,0,0-10.416-18.034Z" transform="translate(-316.645 -359.753)" fill="#00b8d4" stroke="#020f1e" stroke-width="1"/>
    <path id="Path_22323" data-name="Path 22323" d="M599.445,595.3,484.69,529.042a17.958,17.958,0,0,0-19.478.885h0L388.17,574.409a17.881,17.881,0,0,1,16.65.746l114.755,66.255a29.075,29.075,0,0,1,14.54,25.178V761.35l79.87-46.118V620.487A29.069,29.069,0,0,0,599.445,595.3Z" transform="translate(-255.395 -369.487)" fill="#fff" stroke="#020f1e" stroke-linecap="round" stroke-linejoin="round" stroke-width="1"/>
    <path id="Path_22324" data-name="Path 22324" d="M370,624.494v80.188L526.45,795.01V700.247a29.074,29.074,0,0,0-14.538-25.176l-114.74-66.256A18.107,18.107,0,0,0,370,624.494Z" transform="translate(-247.729 -403.148)" fill="#fff" stroke="#020f1e" stroke-linecap="round" stroke-linejoin="round" stroke-width="1"/>
    <path id="Path_22325" data-name="Path 22325" d="M510.9,710.307,413.31,653.95c-5.822-3.359-10.54-.636-10.54,6.082v75.042L521.421,803.6V728.559C521.421,721.841,516.727,713.66,510.9,710.307Z" transform="translate(-261.554 -422.608)" fill="#fff" stroke="#020f1e" stroke-width="1"/>
    <path id="Path_22326" data-name="Path 22326" d="M418.378,752.554c0-6.718-4.712-14.9-10.539-18.252L364.692,709.39,163.783,825.37a11.72,11.72,0,0,0-5.273,9.123c0,1.908.763,3.169,1.954,3.6l117.9,68.07,4.093-12.274,135.92-78.471Z" transform="translate(-158.51 -446.603)" fill="#fff" stroke="#020f1e" stroke-width="1"/>
    <path id="Path_22327" data-name="Path 22327" d="M369.053,971.284a11.709,11.709,0,0,0-5.273,9.117c0,3.336,2.365,4.723,5.273,3.047l135.92-78.488V892.79Z" transform="translate(-245.105 -523.972)" fill="#fff" stroke="#020f1e" stroke-linecap="round" stroke-linejoin="round" stroke-width="1"/>
    <path id="Path_22328" data-name="Path 22328" d="M368.06,985.484a6.181,6.181,0,0,1,2.8-4.845c1.538-.885,2.792-.167,2.792,1.619a6.181,6.181,0,0,1-2.792,4.833C369.314,987.988,368.06,987.294,368.06,985.484Zm13.262-7.666a6.179,6.179,0,0,1,2.792-4.839c1.544-.89,2.792-.168,2.792,1.613a6.162,6.162,0,0,1-2.792,4.839C382.583,980.321,381.322,979.6,381.322,977.818Zm13.95-8.048a6.173,6.173,0,0,1,2.793-4.838c1.543-.891,2.8-.168,2.8,1.613a6.171,6.171,0,0,1-2.8,4.839C396.527,972.262,395.273,971.551,395.273,969.77Zm13.939-8.047a6.163,6.163,0,0,1,2.8-4.839c1.538-.89,2.792-.167,2.792,1.613a6.184,6.184,0,0,1-2.792,4.839C410.461,964.226,409.212,963.5,409.212,961.723Zm13.939-8.048a6.18,6.18,0,0,1,2.8-4.839c1.538-.89,2.792-.167,2.792,1.613a6.18,6.18,0,0,1-2.792,4.839C424.405,956.178,423.151,955.456,423.151,953.675Zm13.939-8.047a6.168,6.168,0,0,1,2.8-4.839c1.543-.89,2.792-.173,2.792,1.607a6.188,6.188,0,0,1-2.793,4.845C438.344,948.125,437.09,947.4,437.09,945.628Zm13.945-8.054a6.163,6.163,0,0,1,2.793-4.839c1.544-.89,2.8-.174,2.792,1.613a6.175,6.175,0,0,1-2.792,4.84C452.283,940.083,451.034,939.361,451.034,937.574Zm13.939-8.042a6.163,6.163,0,0,1,2.8-4.839c1.538-.89,2.792-.173,2.792,1.613a6.181,6.181,0,0,1-2.792,4.834C466.222,932.035,464.973,931.312,464.973,929.532Zm13.939-8.048a6.156,6.156,0,0,1,2.8-4.839c1.543-.9,2.792-.174,2.792,1.607a6.184,6.184,0,0,1-2.792,4.845C480.184,923.988,478.912,923.265,478.912,921.484Zm13.939-8.047a6.19,6.19,0,0,1,2.8-4.845c1.544-.891,2.792-.168,2.792,1.613a6.174,6.174,0,0,1-2.792,4.839C494.106,915.934,492.851,915.217,492.851,913.437Z" transform="translate(-246.911 -530.478)" fill="#020f1e"/>
    <path id="Path_22329" data-name="Path 22329" d="M160,847.088,278.692,915.6a12.816,12.816,0,0,1,1.85-3.018L161.867,844.07A12.878,12.878,0,0,0,160,847.088Zm163.18-96.931,95.827,55.333v-3.648L326.342,748.33Zm-99.058,57.189L342.8,875.867l3.163-1.833L227.284,805.52Zm33.018-19.079,118.674,68.561L378.976,855,260.3,786.458Zm33.023-19.079,118.669,68.562,3.162-1.821L293.319,767.4ZM191.1,826.408l118.669,68.515,3.162-1.821L194.26,824.587Z" transform="translate(-159.139 -463.03)" fill="#020f1e"/>
    <path id="Path_22330" data-name="Path 22330" d="M742.2,713.8l1.925-1.11V698.66l-1.925,1.116Z" transform="translate(-404.746 -442.076)" fill="#020f1e"/>
    <path id="Path_22331" data-name="Path 22331" d="M732.78,719.236l1.931-1.116V704.1l-1.931,1.11Z" transform="translate(-400.772 -444.371)" fill="#020f1e"/>
    <path id="Path_22332" data-name="Path 22332" d="M723.36,724.676l1.931-1.116V709.54l-1.931,1.11Z" transform="translate(-396.798 -446.666)" fill="#020f1e"/>
    <path id="Path_22333" data-name="Path 22333" d="M713.94,730.116,715.871,729V714.98l-1.931,1.11Z" transform="translate(-392.824 -448.961)" fill="#020f1e"/>
    <path id="Path_22334" data-name="Path 22334" d="M704.52,735.551l1.931-1.122V720.41l-1.931,1.116Z" transform="translate(-388.85 -451.252)" fill="#020f1e"/>
    <path id="Path_22336" data-name="Path 22336" d="M975.79,379.946c-3.729-2.156-5.6-4.989-5.591-7.816V352.19c0,2.827,1.856,5.654,5.591,7.811,7.423,4.29,19.414,4.29,26.785,0,3.666-2.133,5.5-4.914,5.5-7.707v19.94c0,2.792-1.838,5.573-5.5,7.707a29.529,29.529,0,0,1-26.785.006Z" transform="translate(-500.93 -295.914)" fill="#fff" stroke="#020f1e" stroke-width="1"/>
    <path id="Path_22338" data-name="Path 22338" d="M956.995,263.417c6.733-3.772,15.561-5.657,24.383-5.657s17.644,1.886,24.377,5.657,10.1,8.719,10.1,13.666-3.369,9.888-10.1,13.66-15.554,5.663-24.377,5.663-17.651-1.892-24.383-5.663-10.094-8.719-10.094-13.66S950.263,267.195,956.995,263.417Z" transform="translate(-493.19 -255.078)" fill="#fff" stroke="#020f1e" stroke-width="1"/>
    <path id="Path_22339" data-name="Path 22339" d="M1003.881,309.867c-6.9,3.983-15.939,5.972-24.981,5.972s-18.085-1.977-24.987-5.972a23.519,23.519,0,0,1-8.013-7.134h0l14.633,31.653s.277.514.434.786a12.192,12.192,0,0,0,4.573,4.267,29.505,29.505,0,0,0,26.785,0,11.62,11.62,0,0,0,4.706-4.625c.081-.162.237-.451.237-.451L1011.9,302.71h0A23.4,23.4,0,0,1,1003.881,309.867Z" transform="translate(-490.679 -275.04)" fill="#fff" stroke="#020f1e" stroke-linecap="round" stroke-linejoin="round" stroke-width="1"/>
    <path id="Path_22347" data-name="Path 22347" d="M553.69,633.559c-3.139-1.815-4.706-4.192-4.7-6.568v-4.3c0,2.376,1.561,4.758,4.7,6.573,6.238,3.6,16.321,3.6,22.548,0,3.075-1.792,4.625-4.134,4.625-6.481v4.3c0,2.341-1.55,4.683-4.625,6.475C570.011,637.16,559.928,637.16,553.69,633.559Z" transform="translate(-323.238 -410.028)" fill="#fff" stroke="#020f1e" stroke-linecap="round" stroke-linejoin="round" stroke-width="1"/>
    <path id="Path_22348" data-name="Path 22348" d="M553.709,622.567c-6.238-3.608-6.273-9.447-.075-13.049s16.286-3.6,22.547,0,6.273,9.441.075,13.049S559.948,626.169,553.709,622.567Z" transform="translate(-323.246 -403.331)" fill="#fff" stroke="#020f1e" stroke-width="1"/>
    <path id="Path_22350" data-name="Path 22350" d="M556.915,616.258c-2.671-1.544-4-3.568-3.995-5.591v-15.3c0,2.023,1.324,4.047,3.995,5.591,5.308,3.064,13.875,3.064,19.159,0,2.613-1.527,3.925-3.516,3.932-5.51v15.3c0,1.995-1.312,3.989-3.932,5.51C570.8,619.322,562.216,619.322,556.915,616.258Z" transform="translate(-324.896 -398.502)" fill="#fff" stroke="#020f1e" stroke-linecap="round" stroke-linejoin="round" stroke-width="1"/>
    <path id="Path_22351" data-name="Path 22351" d="M558.711,603.789c-.277-.139-.578-.249-.844-.4a9.6,9.6,0,0,1-2.717-2.26v15.315a9.663,9.663,0,0,0,2.705,2.243c.266.15.578.266.856.4Z" transform="translate(-325.837 -400.932)" fill="#fff" stroke="#020f1e" stroke-width="1"/>
    <path id="Path_22352" data-name="Path 22352" d="M581,621.668a18.071,18.071,0,0,0,6.938-2.145,11.087,11.087,0,0,0,1.6-1.157V603.11a10.946,10.946,0,0,1-1.6,1.093A17.927,17.927,0,0,1,581,606.347Z" transform="translate(-336.742 -401.767)" fill="#fff" stroke="#020f1e" stroke-width="1"/>
    <path id="Path_22354" data-name="Path 22354" d="M556.931,595.228c-5.307-3.064-5.336-8.031-.063-11.094s13.875-3.065,19.16,0,5.33,8.03.063,11.094S562.222,598.315,556.931,595.228Z" transform="translate(-324.901 -392.792)" fill="#00b8d4" stroke="#020f1e" stroke-linecap="round" stroke-linejoin="round" stroke-width="1"/>
    <path id="Path_22367" data-name="Path 22367" d="M824.424,940.288l-78.008,45.031c-4.885,2.827-12.887,2.827-17.778,0l-45.309-26.2c-2.423-1.4-3.642-3.238-3.66-5.088h0v9.5h0c0,1.845,1.231,3.689,3.66,5.094L728.667,994.8c4.891,2.828,12.893,2.828,17.778,0l78.008-45.037c2.417-1.394,3.636-3.232,3.659-5.07h0V935.2h0C828.055,937.033,826.841,938.871,824.424,940.288Z" transform="translate(-378.367 -541.863)" fill="#fff" stroke="#020f1e" stroke-width="1"/>
    <path id="Path_22368" data-name="Path 22368" d="M824.418,905.554c4.885,2.821,4.885,7.44,0,10.268L746.41,960.853c-4.885,2.827-12.887,2.827-17.778,0l-45.309-26.172c-4.891-2.821-4.891-7.441,0-10.268l78.008-45.037c4.885-2.821,12.887-2.821,17.777,0Z" transform="translate(-378.361 -517.421)" fill="#fff" stroke="#020f1e" stroke-width="1"/>
    <path id="Path_22370" data-name="Path 22370" d="M736.25,864.43l8.233,4.753v73.175L736.25,937.6Z" transform="translate(-402.236 -512.008)" fill="#fff" stroke="#707070" stroke-linecap="round" stroke-linejoin="round" stroke-width="1"/>
    <path id="Path_22371" data-name="Path 22371" d="M750.49,808.327l81.142-47v90.53l-81.142,47Z" transform="translate(-408.243 -468.514)" fill="#fff" stroke="#020f1e" stroke-linecap="round" stroke-linejoin="round" stroke-width="1"/>
    <path id="Path_22372" data-name="Path 22372" d="M796.172,676.653a7.134,7.134,0,0,0-9.024-1.85l-94.729,54.669a5.336,5.336,0,0,0-1.642,8.007l53.027,70.8a7.134,7.134,0,0,0,9.025,1.85l94.728-54.646a5.353,5.353,0,0,0,1.642-8.013Z" transform="translate(-382.566 -431.644)" fill="#fff" stroke="#020f1e" stroke-linecap="round" stroke-linejoin="round" stroke-width="1"/>
    <path id="Path_22373" data-name="Path 22373" d="M747.9,851.583a7.134,7.134,0,0,1-9.025-1.85l-53.056-70.8a5.325,5.325,0,0,1,.162-6.8l-6.712,7.932h0a5.314,5.314,0,0,0-.254,6.9l53.027,70.8a7.128,7.128,0,0,0,9.025,1.85l94.711-54.686a5.782,5.782,0,0,0,1.734-1.549h0l6.36-7.516a5.961,5.961,0,0,1-1.272,1.052Z" transform="translate(-377.605 -473.07)" fill="#fff" stroke="#020f1e" stroke-linecap="round" stroke-linejoin="round" stroke-width="1"/>
    <path id="Path_22374" data-name="Path 22374" d="M752.876,809.775,699.11,738.022l95.907-56.692L849.224,753.7Z" transform="translate(-386.568 -434.765)" fill="#fff" stroke="#020f1e" stroke-width="1"/>
    <path id="Path_22375" data-name="Path 22375" d="M813.936,777.709c-5.139,2.943-5.822,10-1.52,15.737s11.956,8.007,17.09,5.065,5.816-9.985,1.515-15.731S819.071,774.767,813.936,777.709Z" transform="translate(-433.174 -474.88)" fill="#fff" stroke="#020f1e" stroke-linecap="round" stroke-linejoin="round" stroke-width="1"/>
    <path id="Path_22376" data-name="Path 22376" d="M816.408,771.51c-5.14,2.943-5.816,9.99-1.52,15.731s11.956,8.013,17.1,5.07,5.816-9.99,1.515-15.731S821.542,768.567,816.408,771.51Z" transform="translate(-434.219 -472.266)" fill="#fff" stroke="#020f1e" stroke-width="1"/>
    <path id="Path_22377" data-name="Path 22377" d="M823.83,783.85l6.92,9.244,2.81-8.216-9.73-1.029Z" transform="translate(-439.183 -478.015)" fill="#00b8d4"/>
    <path id="Path_22378" data-name="Path 22378" d="M806.44,702.724l-84.5,49.182-6.145-8.2,84.5-49.182Z" transform="translate(-393.609 -440.329)" fill="#fff" stroke="#020f1e" stroke-width="1"/>
    <path id="Path_22379" data-name="Path 22379" d="M777.266,802.1,751.84,816.9,732.53,791.12l25.432-14.8Z" transform="translate(-400.667 -474.838)" fill="#00b8d4" stroke="#020f1e" stroke-width="1"/>
    <path id="Path_22380" data-name="Path 22380" d="M895.411,762.164l-25.433,14.8L833.66,728.47l25.432-14.8Z" transform="translate(-443.33 -448.408)" fill="#fff" stroke="#020f1e" stroke-width="1"/>
    <path id="Path_22381" data-name="Path 22381" d="M800.457,833.063l-25.432,14.8-3.475-4.643,25.427-14.8Z" transform="translate(-417.128 -496.817)" fill="#fff" stroke="#020f1e" stroke-width="1"/>
    <path id="Path_22382" data-name="Path 22382" d="M809.947,845.742l-25.427,14.8-3.48-4.643,25.433-14.8Z" transform="translate(-421.131 -502.166)" fill="#fff" stroke="#020f1e" stroke-width="1"/>
    <path id="Path_22383" data-name="Path 22383" d="M845.779,830.042l-52.559,30.6-3.48-4.643L842.3,825.4Z" transform="translate(-424.801 -495.543)" fill="#00b8d4" stroke="#020f1e" stroke-width="1"/>
    <g id="Group_10894" data-name="Group 10894">
      <path id="Path_22402" data-name="Path 22402" d="M638.05,314.66l17.066-9.851V285.1l-17.066,9.851Z" transform="translate(-576.316 -45.345)" fill="#fff" stroke="#020f1e" stroke-linecap="round" stroke-linejoin="round" stroke-width="1"/>
      <path id="Path_22403" data-name="Path 22403" d="M625.6,314.66l-17.066-9.851V285.1l17.066,9.851Z" transform="translate(-563.863 -45.345)" fill="#fff" stroke="#020f1e" stroke-linecap="round" stroke-linejoin="round" stroke-width="1"/>
      <path id="Path_22404" data-name="Path 22404" d="M625.6,287.763l-17.066-9.851L625.6,268.06l17.067,9.852Z" transform="translate(-563.863 -38.157)" fill="#00b8d4" stroke="#020f1e" stroke-linecap="round" stroke-linejoin="round" stroke-width="1"/>
    </g>
    <path id="Path_22436" data-name="Path 22436" d="M1210.723,536.54l-2.134,2.185,1.717-13.8,2.133-2.185Z" transform="translate(-601.498 -367.862)" fill="#fff" stroke="#020f1e" stroke-linecap="round" stroke-linejoin="round" stroke-width="1"/>
    <path id="Path_22437" data-name="Path 22437" d="M1203.522,530.778l25.34,36.515c2.416,3.469,1.884,7.747-1.185,9.47l-60.7,34.11c-3.07,1.734-7.556.283-9.978-3.2l-25.34-36.515a7.84,7.84,0,0,1-1.457-5.446,5.277,5.277,0,0,1,2.642-4.047l44.817-25.178,1.734-13.794,6.405,9.25S1201.106,527.292,1203.522,530.778Z" transform="translate(-568.408 -367.841)" fill="#fff" stroke="#020f1e" stroke-linecap="round" stroke-linejoin="round" stroke-width="1"/>
    <path id="Path_22438" data-name="Path 22438" d="M1226.121,605.872l-60.7,34.11c-3.07,1.734-7.556.283-9.979-3.2l-25.34-36.515a7.84,7.84,0,0,1-1.456-5.446,5.476,5.476,0,0,1,1.474-3.128l-2.133,2.185a5.477,5.477,0,0,0-1.475,3.128,7.841,7.841,0,0,0,1.457,5.446l25.34,36.515c2.422,3.469,5.876,5.927,10.709,4.761L1225.5,609.09c2.025-1.154,1.9-2.474,3.019-6.163l-.922,1.849Z" transform="translate(-566.852 -396.95)" fill="#fff" stroke="#020f1e" stroke-width="1"/>
    <g id="Group_7159" data-name="Group 7159" transform="translate(64.526 306.51)">
      <path id="Path_4117" data-name="Path 4117" d="M590.821,536.68a10.01,10.01,0,0,0-4.512-7.814l-68.069-39.3c-2.481-1.433-4.512-.26-4.512,2.6v59.251a10.009,10.009,0,0,0,4.512,7.814l68.069,39.3c2.481,1.433,4.512.26,4.512-2.6Z" transform="translate(-513.728 -488.156)" fill="#fff" stroke="#020f1e" stroke-linecap="round" stroke-linejoin="round" stroke-width="1"/>
      <path id="Path_4118" data-name="Path 4118" d="M590.642,596.677V537.431a10.01,10.01,0,0,0-4.512-7.815L517.9,490.487a3.181,3.181,0,0,0-3.156-.324l6.272-3.734,0,0a3.1,3.1,0,0,1,3.27.252l68.231,39.13a10.01,10.01,0,0,1,4.511,7.815v59.245a3.084,3.084,0,0,1-1.445,2.97l-6.161,3.67A3.233,3.233,0,0,0,590.642,596.677Z" transform="translate(-513.942 -488.673)" fill="#fff" stroke="#020f1e" stroke-linecap="round" stroke-linejoin="round" stroke-width="1"/>
      <path id="Path_8003" data-name="Path 8003" d="M566.46,588.26l-2.136-1.949-7.991,16.659,2.059,1.909Zm1.08,18.623,8.14-3.914-7.271-11.555-1.854,1.531,5.355,8.782-5.355,2.6Zm-13.275-6.789,1.874-1.781-5.355-8.784,6.211-2.836-1.1-2.554-8.653,4.121Z" transform="translate(-542.542 -560.699)" fill="#00b8d4"/>
      <g id="Group_551" data-name="Group 551" transform="translate(37.249 28.579)">
        <path id="Path_7939" data-name="Path 7939" d="M677.285,609.552l-9.407-5.431v-2.005l9.407,5.431Z" transform="translate(-667.878 -602.115)" fill="#00b8d4"/>
        <path id="Path_7940" data-name="Path 7940" d="M672.413,655.3l-4.534-2.619v2.006l4.534,2.618Z" transform="translate(-667.878 -640.313)" fill="#00b8d4"/>
        <path id="Path_7941" data-name="Path 7941" d="M737.257,644.177l-24.4-14.085v-2.005l24.4,14.085Z" transform="translate(-701.861 -621.735)" fill="#00b8d4"/>
        <path id="Path_7942" data-name="Path 7942" d="M713.087,646.849l-24.4-14.085v-2.005l24.4,14.085Z" transform="translate(-683.601 -623.754)" fill="#00b8d4"/>
        <path id="Path_7943" data-name="Path 7943" d="M703.477,657.927,680.9,644.891v-2.005l22.578,13.035Z" transform="translate(-677.715 -632.917)" fill="#00b8d4"/>
        <path id="Path_7944" data-name="Path 7944" d="M679.79,678.87l-11.911-6.877v-2.005l11.911,6.877Z" transform="translate(-667.878 -653.391)" fill="#00b8d4"/>
        <path id="Path_7945" data-name="Path 7945" d="M744.994,716.516,723.1,703.876v-2.005l21.892,12.639Z" transform="translate(-709.598 -677.478)" fill="#00b8d4"/>
        <path id="Path_7946" data-name="Path 7946" d="M672.759,694l-4.88-2.818v-2.006l4.88,2.818Zm30.515,17.618-28.923-16.7v-2.005l28.923,16.7ZM677.285,701.3l-9.407-5.431v-2.005l9.407,5.432Z" transform="translate(-667.878 -667.886)" fill="#00b8d4"/>
        <path id="Path_7947" data-name="Path 7947" d="M737.257,750.423l-24.4-14.085v-2.006l24.4,14.086Z" transform="translate(-701.861 -702.002)" fill="#00b8d4"/>
        <path id="Path_7948" data-name="Path 7948" d="M713.087,756.288,688.69,742.2V740.2l24.4,14.085Z" transform="translate(-683.601 -706.433)" fill="#00b8d4"/>
        <path id="Path_7949" data-name="Path 7949" d="M730.312,782.859,706.35,769.024v-2.005l23.962,13.835Z" transform="translate(-696.943 -726.696)" fill="#00b8d4"/>
      </g>
    </g>
    <g id="Group_10895" data-name="Group 10895" transform="translate(160 190)">
      <path id="Path_22402-2" data-name="Path 22402" d="M638.05,314.66l17.066-9.851V285.1l-17.066,9.851Z" transform="translate(-576.316 -45.345)" fill="#fff" stroke="#020f1e" stroke-linecap="round" stroke-linejoin="round" stroke-width="1"/>
      <path id="Path_22403-2" data-name="Path 22403" d="M625.6,314.66l-17.066-9.851V285.1l17.066,9.851Z" transform="translate(-563.863 -45.345)" fill="#fff" stroke="#020f1e" stroke-linecap="round" stroke-linejoin="round" stroke-width="1"/>
      <path id="Path_22404-2" data-name="Path 22404" d="M625.6,287.763l-17.066-9.851L625.6,268.06l17.067,9.852Z" transform="translate(-563.863 -38.157)" fill="#00b8d4" stroke="#020f1e" stroke-linecap="round" stroke-linejoin="round" stroke-width="1"/>
    </g>
    <g id="Group_10896" data-name="Group 10896" transform="translate(511 133.515)">
      <path id="Path_22402-3" data-name="Path 22402" d="M638.05,314.66l17.066-9.851V285.1l-17.066,9.851Z" transform="translate(-576.316 -45.345)" fill="#fff" stroke="#020f1e" stroke-linecap="round" stroke-linejoin="round" stroke-width="1"/>
      <path id="Path_22403-3" data-name="Path 22403" d="M625.6,314.66l-17.066-9.851V285.1l17.066,9.851Z" transform="translate(-563.863 -45.345)" fill="#fff" stroke="#020f1e" stroke-linecap="round" stroke-linejoin="round" stroke-width="1"/>
      <path id="Path_22404-3" data-name="Path 22404" d="M625.6,287.763l-17.066-9.851L625.6,268.06l17.067,9.852Z" transform="translate(-563.863 -38.157)" fill="#00b8d4" stroke="#020f1e" stroke-linecap="round" stroke-linejoin="round" stroke-width="1"/>
    </g>
    <path id="Path_46316" data-name="Path 46316" d="M1217.972,567.55l1.671,2.411-54.837,30.8-1.677-2.411Z" transform="translate(-582.32 -386.766)" fill="#00b8d4"/>
    <path id="Path_46317" data-name="Path 46317" d="M1226.112,579.28l1.671,2.411-54.837,30.8-1.676-2.411Z" transform="translate(-585.754 -391.714)" fill="#00b8d4"/>
    <path id="Path_46318" data-name="Path 46318" d="M1207.585,563.9l1.677,2.417-38.215,21.46-1.677-2.417Z" transform="translate(-584.953 -385.226)" fill="#00b8d4"/>
    <path id="Path_46422" data-name="Path 46422" d="M1231.564,615.065a1.954,1.954,0,0,1,2.434.775,1.568,1.568,0,0,1-.289,2.313,1.971,1.971,0,0,1-2.434-.786A1.552,1.552,0,0,1,1231.564,615.065Zm-7.331,4.117a1.942,1.942,0,0,1,2.428.78,1.569,1.569,0,0,1-.283,2.313,1.966,1.966,0,0,1-2.44-.786A1.553,1.553,0,0,1,1224.233,619.181ZM1216.9,623.3a1.948,1.948,0,0,1,2.428.775,1.565,1.565,0,0,1-.283,2.313,1.954,1.954,0,0,1-2.434-.781A1.55,1.55,0,0,1,1216.9,623.3Z" transform="translate(-604.723 -406.744)" fill="#00b8d4"/>
  </g>
</svg>
