<svg width="33" height="33" viewBox="0 0 33 33" fill="none" xmlns="http://www.w3.org/2000/svg">
  <path
    d="M21.6687 18.8752C17.7484 18.8752 8.82895 19.4545 8.82895 19.4545C14.5097 26.1437 24.8184 23.1104 24.8184 23.1104C27.1276 22.512 26.4378 21.624 26.4378 21.624C25.8679 21.1538 23.4589 19.0056 23.4589 19.0056C23.3342 18.9124 22.6623 18.8752 21.6686 18.8752M21.6686 18.3506C22.1958 18.3506 22.6186 18.3613 22.9254 18.3821C23.3937 18.4139 23.6159 18.4672 23.7746 18.586C23.7863 18.595 23.798 18.6046 23.8097 18.6146C23.8337 18.636 26.2177 20.7614 26.7738 21.2201C26.8036 21.2447 26.8306 21.2726 26.8543 21.3032C26.9566 21.4432 27.0234 21.6058 27.049 21.7772C27.0747 21.9485 27.0584 22.1235 27.0016 22.2873C26.7999 22.8766 26.1315 23.3115 24.9587 23.6162C24.8775 23.6397 24.2922 23.8047 23.3626 23.97C22.0643 24.2 20.7485 24.3175 19.4299 24.3211C17.5197 24.3427 15.6195 24.0435 13.809 23.4361C11.7179 22.729 9.85815 21.4702 8.42731 19.7936C8.36434 19.7194 8.32328 19.6293 8.30867 19.5332C8.29407 19.4372 8.30651 19.3389 8.34461 19.2495C8.38271 19.1601 8.44497 19.083 8.52445 19.0268C8.60393 18.9705 8.69751 18.9374 8.79475 18.9311C8.88402 18.9254 17.7765 18.3506 21.6687 18.3506H21.6686Z"
    fill="#F9D291" />
  <path
    d="M8.63983 19.092L8.61703 19.0909C8.19286 19.0636 7.77209 18.9976 7.36 18.8937C6.43868 18.6585 5.84007 18.2756 5.58085 17.7553C5.30829 17.2084 5.42878 16.5546 5.93917 15.8121L5.94408 15.8049L5.94952 15.7981C5.96232 15.7818 6.27153 15.3921 6.85558 14.7963C7.65188 13.9877 8.50892 13.2408 9.41926 12.5622C10.6698 11.6239 12.0243 10.8319 13.456 10.2016C15.141 9.45832 16.9367 8.99527 18.7718 8.83084C19.2065 8.77017 19.6451 8.74095 20.084 8.74341C21.1308 8.73023 22.1709 8.91163 23.1511 9.27831C24.4283 9.79136 25.3305 10.6508 25.8323 11.8332L25.8347 11.839C26.0619 12.4771 26.1579 13.1542 26.1171 13.83C26.084 14.4494 25.904 15.0521 25.5918 15.5886C25.174 16.2688 24.5722 16.8177 23.8554 17.172L23.8132 17.194L8.63983 19.092ZM6.368 16.1163C5.97776 16.6868 5.87147 17.1596 6.0523 17.5219C6.28644 17.9919 6.96433 18.2509 7.4905 18.3854C7.86126 18.4781 8.23943 18.5385 8.62071 18.5657L23.6516 16.6867C24.858 16.0415 25.5108 15.0698 25.5918 13.7978C25.6268 13.2 25.5433 12.6011 25.3463 12.0354C24.3223 9.62874 21.6105 9.26922 20.0846 9.26922C19.6704 9.26664 19.2567 9.29388 18.8465 9.35071L18.8365 9.35228H18.8263C14.8953 9.68609 11.7197 11.505 9.74759 12.972C8.85822 13.6338 8.02081 14.3624 7.24267 15.1513C6.71334 15.6911 6.41044 16.0635 6.368 16.1162V16.1163Z"
    fill="#F9D291" />
  <path d="M10.9634 20.3683C10.9634 20.3683 13.0668 23.8962 20.9885 22.7005C20.9885 22.7005 14.1509 23.4181 10.9634 20.3683Z"
    fill="#F9D291" />
  <path
    d="M11.024 20.3052C13.1896 22.3772 17.0959 22.6865 19.2323 22.6865C20.272 22.6865 20.973 22.6143 20.9801 22.6136L21.0023 22.7871C19.9761 22.9467 18.9394 23.0297 17.9007 23.0354C16.7599 23.0474 15.6223 22.9109 14.5169 22.6293C13.7596 22.4342 13.0342 22.1323 12.3624 21.7328C11.2966 21.0841 10.9048 20.4402 10.8892 20.4131L11.024 20.3052ZM18.5071 22.8497C17.3439 22.8187 16.1862 22.6796 15.0489 22.4342C13.9379 22.2053 12.8741 21.7899 11.9027 21.2056C12.0827 21.3444 12.2704 21.4729 12.465 21.5903C13.4213 22.1696 15.1404 22.86 17.9 22.86C18.0992 22.8603 18.3015 22.8569 18.5071 22.8497Z"
    fill="#F9D291" />
  <path d="M8.61619 18.753C8.61619 18.753 6.42837 17.456 11.2646 14.8831C11.2646 14.8831 7.25165 17.1425 8.77106 18.5993L8.61619 18.753Z"
    fill="#F9D291" />
  <path
    d="M8.63015 18.8628L8.57157 18.8278C8.46783 18.761 8.37521 18.6784 8.29708 18.583C8.12285 18.379 8.02974 18.1184 8.0354 17.8505C8.0447 17.4495 8.26674 17.0173 8.69539 16.5658C9.22437 16.0086 10.0747 15.4162 11.2229 14.8052L11.3073 14.9584C11.2812 14.9731 8.68557 16.449 8.52281 17.7323C8.50344 17.8812 8.52153 18.0325 8.57545 18.1727C8.62937 18.3129 8.71742 18.4375 8.83167 18.5352L8.89622 18.597L8.63015 18.8628ZM9.06108 16.4533C8.40811 17.0505 8.21921 17.5179 8.21062 17.8522C8.20446 18.0765 8.28167 18.2951 8.4274 18.466C8.48029 18.5301 8.5403 18.5881 8.6063 18.6388L8.64716 18.598C8.53287 18.4826 8.44659 18.3426 8.39491 18.1888C8.34323 18.0349 8.32752 17.8714 8.349 17.7106C8.4246 17.3163 8.60929 16.951 8.88218 16.6558C8.93772 16.5894 8.99736 16.5218 9.06108 16.4533Z"
    fill="#F9D291" />
  <path d="M23.8877 16.6862C23.8877 16.6862 25.5404 15.6545 24.9006 13.5123C24.9006 13.5123 25.6658 15.4034 24.0206 16.6862H23.8877Z"
    fill="#F9D291" />
  <path
    d="M24.0512 16.7737H23.5825L23.8412 16.6121C24.1313 16.4091 24.3772 16.1497 24.564 15.8494C24.9884 15.1753 25.0735 14.398 24.8166 13.5373L24.9819 13.4796C25.1136 13.8452 25.1758 14.232 25.1652 14.6202C25.1594 14.987 25.0802 15.3488 24.9323 15.6846C24.7395 16.1066 24.4448 16.4744 24.0747 16.7552L24.0512 16.7737Z"
    fill="#F9D291" />
  <path
    d="M24.0301 16.6782C24.0301 16.6782 23.6741 18.2321 24.0518 19.0321C24.0518 19.0321 19.9907 19.9961 8.48738 19.6397C8.48738 19.6397 8.09837 18.6788 8.69785 18.5491C8.69785 18.5491 16.1646 16.7552 24.0301 16.6782Z"
    fill="#F9D291" />
  <mask id="mask0_173_12939" style="mask-type:luminance" maskUnits="userSpaceOnUse" x="15" y="10" width="9" height="7">
    <path d="M23.1184 10.2088L15.6553 10.5988L15.9912 16.9895L23.4543 16.5995L23.1184 10.2088Z" fill="white" />
  </mask>
  <g mask="url(#mask0_173_12939)">
    <path
      d="M19.6633 15.3491C19.961 15.3336 20.2217 15.695 20.2459 16.155C20.2701 16.6149 20.048 17.0016 19.751 17.0171C19.4539 17.0326 19.1925 16.671 19.1684 16.2113C19.1442 15.7515 19.3662 15.3646 19.6633 15.3491ZM19.735 16.7138C19.924 16.7039 20.0653 16.4579 20.0499 16.1652C20.0345 15.8725 19.8682 15.6426 19.6792 15.6524C19.4902 15.6623 19.349 15.9084 19.3643 16.201C19.3797 16.4937 19.5465 16.7236 19.735 16.7138Z"
      fill="#F9D291" />
    <path
      d="M19.546 13.1271C20.6344 13.0702 21.5918 14.3946 21.6804 16.0799C21.769 17.7652 20.9557 19.1821 19.8673 19.2389C18.7789 19.2958 17.8214 17.9704 17.7329 16.2861C17.6444 14.6019 18.4576 13.184 19.546 13.1271ZM19.8433 18.783C20.7697 18.7346 21.4619 17.5285 21.3865 16.0947C21.3111 14.6609 20.4967 13.5336 19.5699 13.582C18.6432 13.6304 17.9514 14.8364 18.0268 16.2708C18.1022 17.7051 18.917 18.8314 19.8433 18.783Z"
      fill="#F9D291" />
    <path
      d="M19.5992 15.478L19.5566 14.6683C19.506 14.6268 19.4656 14.5742 19.4387 14.5147C19.4117 14.4551 19.3988 14.3901 19.4011 14.3248C19.3922 14.2603 19.3983 14.1946 19.4189 14.1329C19.4395 14.0711 19.474 14.0148 19.5198 13.9684L19.465 12.9249C19.3897 12.9165 19.3354 12.8891 19.3336 12.8538C19.3317 12.8185 19.3827 12.7856 19.4568 12.7694L19.4472 12.5864C19.3073 12.4971 19.1884 12.1471 19.1661 11.7223C19.1399 11.2239 19.2568 10.8128 19.4273 10.8039C19.5977 10.795 19.7569 11.1917 19.7831 11.69C19.8054 12.1144 19.724 12.4753 19.5942 12.5788L19.6038 12.7619C19.679 12.7703 19.7333 12.7977 19.7352 12.833C19.7371 12.8683 19.6861 12.9012 19.612 12.9174L19.6671 13.967C19.7141 14.0094 19.7514 14.0614 19.7764 14.1194C19.8015 14.1775 19.8138 14.2402 19.8125 14.3033C19.8205 14.3661 19.8149 14.4299 19.7961 14.4903C19.7772 14.5508 19.7456 14.6065 19.7032 14.6536L19.7461 15.47L19.5992 15.478Z"
      fill="#F9D291" />
    <path
      d="M19.8385 15.5531L19.5164 15.5699L19.4714 14.7143C19.3707 14.6113 19.3141 14.4733 19.3137 14.3294C19.299 14.1863 19.3408 14.0432 19.4302 13.9302L19.3811 12.997C19.2987 12.9721 19.2496 12.923 19.2462 12.8584C19.2428 12.7938 19.2865 12.7399 19.3659 12.7065L19.3619 12.6309C19.1914 12.4776 19.097 12.0765 19.0787 11.7269C19.0631 11.5014 19.0834 11.2749 19.1388 11.0557C19.2161 10.7836 19.336 10.7211 19.4228 10.7166C19.5097 10.712 19.636 10.7617 19.7409 11.0243C19.8189 11.2365 19.8629 11.4596 19.871 11.6855C19.8894 12.0347 19.8377 12.4438 19.6842 12.614L19.6881 12.6898C19.7706 12.7147 19.8197 12.7638 19.8231 12.8284C19.8265 12.893 19.7828 12.947 19.7034 12.9804L19.753 13.9233C19.8471 14.0261 19.8996 14.16 19.9004 14.2991C19.9142 14.4376 19.876 14.5762 19.7932 14.6882L19.8385 15.5531ZM19.5935 14.0227L19.5711 14.0388C19.5378 14.077 19.5132 14.1219 19.4989 14.1705C19.4847 14.2191 19.4813 14.2702 19.4888 14.3203C19.4865 14.3709 19.4953 14.4214 19.5145 14.4683C19.5338 14.5153 19.563 14.5575 19.6002 14.592L19.6241 14.6056L19.6474 14.5869C19.6789 14.5483 19.7021 14.5035 19.7155 14.4555C19.7288 14.4075 19.7321 14.3573 19.7251 14.3079C19.7268 14.2582 19.7183 14.2087 19.6999 14.1624C19.6816 14.1162 19.6539 14.0742 19.6186 14.0391L19.5935 14.0227ZM19.432 10.8912C19.3658 10.8947 19.2256 11.1801 19.2538 11.7177C19.2757 12.1332 19.3934 12.4483 19.4946 12.5129L19.5179 12.5278L19.5394 12.5106C19.6333 12.4356 19.7174 12.1101 19.6955 11.6947C19.6675 11.157 19.4981 10.8878 19.432 10.8912Z"
      fill="#F9D291" />
    <path
      d="M19.9765 15.6061L20.3127 15.0095C20.2722 14.8756 20.2865 14.7312 20.3526 14.6078C20.4197 14.4885 20.521 14.4472 20.6037 14.4933L21.0375 13.7247C20.9851 13.6376 20.957 13.5601 20.9716 13.5341C20.9862 13.5081 21.0394 13.5412 21.1019 13.6103L21.1779 13.4754C21.1298 13.1658 21.1945 12.8493 21.3602 12.5831C21.567 12.2155 21.8413 12.063 21.9725 12.2415C22.1038 12.4201 22.0424 12.8625 21.8355 13.2293C21.6594 13.5414 21.4345 13.6996 21.2904 13.6292L21.2145 13.7641C21.2668 13.8512 21.2949 13.9287 21.2803 13.9547C21.2657 13.9807 21.2125 13.9475 21.15 13.8785L20.7141 14.6521C20.7488 14.782 20.7328 14.9202 20.6694 15.0388C20.6051 15.153 20.5092 15.1958 20.4286 15.1585L20.0899 15.7597L19.9765 15.6061Z"
      fill="#F9D291" />
    <path
      d="M20.0997 15.9214L19.8727 15.6124L20.2188 14.999C20.1843 14.8523 20.2049 14.6981 20.2766 14.5654C20.2992 14.5174 20.3337 14.476 20.3768 14.445C20.4199 14.414 20.4702 14.3944 20.523 14.3881C20.5362 14.3874 20.5494 14.3879 20.5624 14.3895L20.9367 13.7254C20.8519 13.5674 20.8825 13.512 20.8947 13.4912C20.9035 13.4758 20.916 13.4628 20.9311 13.4535C20.9462 13.4441 20.9634 13.4388 20.9812 13.4379C21.0167 13.4373 21.0514 13.4492 21.079 13.4716L21.0838 13.4632C21.0457 13.1419 21.1162 12.8171 21.284 12.5402C21.4413 12.2613 21.6404 12.0891 21.8166 12.0799C21.8607 12.0774 21.9048 12.0863 21.9446 12.1057C21.9843 12.1251 22.0184 12.1543 22.0435 12.1906C22.128 12.3379 22.1546 12.5113 22.1181 12.677C22.0865 12.8864 22.0168 13.0883 21.9123 13.2726C21.755 13.5517 21.5559 13.7237 21.3797 13.7329C21.3644 13.7338 21.3491 13.7334 21.3338 13.7317L21.3155 13.7641C21.4 13.9217 21.3693 13.9762 21.3571 13.9978C21.3484 14.0133 21.3359 14.0263 21.3208 14.0356C21.3057 14.0449 21.2885 14.0503 21.2707 14.0512C21.2351 14.0518 21.2005 14.0398 21.1729 14.0174L20.8077 14.6648C20.8362 14.8066 20.8145 14.954 20.7462 15.0816C20.7235 15.1295 20.6891 15.171 20.646 15.202C20.6029 15.233 20.5525 15.2526 20.4998 15.2589C20.4909 15.2593 20.4819 15.2593 20.4731 15.2587L20.0997 15.9214ZM20.3932 15.0457L20.4652 15.0793C20.4729 15.083 20.4815 15.0847 20.4901 15.0843C20.5128 15.0785 20.534 15.0675 20.5518 15.0522C20.5696 15.0369 20.5836 15.0177 20.5927 14.9961C20.645 14.898 20.6584 14.7839 20.6304 14.6763L20.6203 14.6418L20.6363 14.6123L20.5609 14.5702C20.552 14.565 20.5419 14.5625 20.5317 14.5629C20.5089 14.5687 20.4878 14.5797 20.47 14.595C20.4522 14.6103 20.4381 14.6295 20.429 14.6511C20.3751 14.7531 20.3632 14.872 20.3958 14.9826L20.4081 15.0192L20.3932 15.0457ZM21.2559 13.5149L21.3294 13.5508C21.3422 13.5568 21.3564 13.5594 21.3705 13.5583C21.4627 13.5535 21.6186 13.4368 21.7594 13.1869C21.9639 12.8241 21.9987 12.4248 21.9021 12.2933C21.8941 12.2805 21.8828 12.2701 21.8693 12.2633C21.8559 12.2564 21.8408 12.2534 21.8257 12.2545C21.7336 12.2593 21.5776 12.376 21.4369 12.6259C21.2837 12.8718 21.2216 13.1634 21.2616 13.4502L21.2722 13.4857L21.2559 13.5149Z"
      fill="#F9D291" />
    <path
      d="M20.1919 16.0683L20.7145 16.0339C20.7205 15.978 20.7446 15.9256 20.7832 15.8846C20.8218 15.8436 20.8728 15.8163 20.9284 15.8068C20.9844 15.8088 21.0382 15.8292 21.0814 15.8649C21.1245 15.9007 21.1546 15.9496 21.1669 16.0042L21.84 15.9598C21.8415 15.8434 21.8559 15.7608 21.8792 15.7596C21.9024 15.7584 21.926 15.8384 21.9405 15.953L22.0587 15.9452C22.0957 15.8299 22.1683 15.729 22.266 15.657C22.3638 15.5851 22.4818 15.5456 22.6033 15.5442C22.7425 15.5224 22.8847 15.5564 22.9989 15.6386C23.1132 15.7209 23.1902 15.8449 23.2132 15.9835C23.2063 16.1245 23.1445 16.2574 23.0409 16.3537C22.9373 16.45 22.8001 16.5022 22.6584 16.4992C22.5385 16.5142 22.4168 16.4906 22.3112 16.4319C22.2056 16.3731 22.1216 16.2823 22.0714 16.1726L21.9532 16.1804C21.9517 16.2968 21.9373 16.3794 21.914 16.3806C21.8907 16.3818 21.8672 16.3018 21.8527 16.1872L21.1752 16.2317C21.1671 16.2846 21.1424 16.3335 21.1047 16.3715C21.0669 16.4095 21.0181 16.4346 20.9652 16.4432C20.9118 16.4418 20.8602 16.4233 20.8182 16.3904C20.7762 16.3576 20.7459 16.3121 20.7318 16.2607L20.2048 16.2954L20.1919 16.0683Z"
      fill="#F9D291" />
    <path
      d="M20.1228 16.3887L20.1 15.9873L20.6472 15.9507C20.6655 15.8897 20.7013 15.8354 20.7502 15.7944C20.799 15.7534 20.8588 15.7275 20.9222 15.7199C20.9613 15.718 21.0004 15.7238 21.0372 15.7373C21.0739 15.7507 21.1076 15.7714 21.1361 15.798C21.172 15.8307 21.2015 15.8697 21.2231 15.9131L21.7554 15.8777C21.7631 15.767 21.7893 15.6776 21.873 15.6722C21.8865 15.6715 21.9 15.6734 21.9127 15.678C21.9255 15.6825 21.9371 15.6896 21.9471 15.6987C21.9601 15.7104 21.985 15.7328 22.0072 15.8271C22.0639 15.7188 22.1485 15.6276 22.2522 15.5625C22.3558 15.4975 22.475 15.4612 22.5974 15.4571C22.6924 15.4491 22.7881 15.4601 22.8788 15.4894C22.9695 15.5186 23.0535 15.5656 23.1258 15.6275C23.2285 15.7167 23.2915 15.8429 23.301 15.9784C23.3191 16.2894 23.0336 16.5619 22.6647 16.5865C22.5697 16.5944 22.4741 16.5835 22.3833 16.5542C22.2926 16.525 22.2086 16.478 22.1363 16.4161C22.0973 16.381 22.0635 16.3406 22.0358 16.2961C22.025 16.3906 21.9963 16.4627 21.9213 16.4676C21.9077 16.4684 21.8942 16.4665 21.8814 16.4619C21.8687 16.4574 21.8569 16.4503 21.847 16.4411C21.8329 16.4285 21.8032 16.4018 21.7804 16.2797L21.2426 16.3146C21.2229 16.3724 21.1871 16.4233 21.1394 16.4615C21.0916 16.4997 21.034 16.5235 20.9732 16.5301C20.9341 16.5321 20.895 16.5262 20.8582 16.5128C20.8215 16.4994 20.7878 16.4787 20.7593 16.452C20.7275 16.4232 20.7007 16.3893 20.68 16.3517L20.1228 16.3887ZM20.2841 16.1493L20.2871 16.2021L20.791 16.169L20.8139 16.2298C20.8264 16.2649 20.8471 16.2965 20.8743 16.3221C20.8855 16.3331 20.8988 16.3417 20.9134 16.3474C20.928 16.3532 20.9437 16.356 20.9594 16.3557C20.9935 16.3477 21.0244 16.3296 21.0478 16.3036C21.0713 16.2777 21.0861 16.2452 21.0905 16.2105L21.1057 16.1484L22.1315 16.081L22.154 16.1433C22.1747 16.1985 22.2088 16.2478 22.2533 16.2866C22.3082 16.3328 22.3718 16.3678 22.4404 16.3894C22.5089 16.411 22.5811 16.4188 22.6527 16.4124C22.771 16.4162 22.8861 16.3744 22.9742 16.2956C23.0622 16.2167 23.1163 16.107 23.1251 15.9894C23.1221 15.945 23.1103 15.9015 23.0903 15.8617C23.0702 15.8219 23.0424 15.7864 23.0085 15.7574C22.9536 15.7111 22.89 15.6762 22.8214 15.6546C22.7529 15.633 22.6807 15.6252 22.6091 15.6316C22.5065 15.6325 22.4067 15.6651 22.3235 15.7248C22.2402 15.7846 22.1776 15.8686 22.1441 15.9653L22.1293 16.0282L21.1049 16.0957L21.0837 16.0315C21.0717 15.9918 21.0497 15.9559 21.0198 15.9271C21.0086 15.9161 20.9953 15.9075 20.9807 15.9017C20.9661 15.8959 20.9504 15.8932 20.9347 15.8935C20.8987 15.9025 20.8664 15.9225 20.8424 15.9507C20.8185 15.979 20.804 16.014 20.801 16.0509L20.7877 16.1164L20.2841 16.1493Z"
      fill="#F9D291" />
    <path
      d="M18.8915 15.2389C18.8152 15.2844 18.7155 15.2518 18.6394 15.1449C18.5639 15.0335 18.5335 14.8978 18.5545 14.765L18.0399 14.0412C17.9851 14.1166 17.9356 14.1549 17.9183 14.1306C17.9011 14.1062 17.9209 14.0254 17.9639 13.9342L17.8742 13.8079C17.7381 13.8929 17.4982 13.7597 17.2902 13.4673C17.0457 13.1236 16.9383 12.6901 17.0501 12.4988C17.162 12.3075 17.4507 12.4306 17.695 12.7747C17.8879 13.022 17.9857 13.33 17.9705 13.643L18.0602 13.7693C18.1151 13.6939 18.1646 13.6556 18.1818 13.6799C18.1991 13.7042 18.1793 13.7851 18.1363 13.8763L18.6483 14.5953C18.7257 14.5408 18.8307 14.5714 18.91 14.683C18.9887 14.7989 19.0181 14.9411 18.9918 15.0785L19.3887 15.6368L19.292 15.8018L18.8915 15.2389Z"
      fill="#F9D291" />
    <path
      d="M19.2991 15.9632L18.8582 15.3431C18.8494 15.3446 18.8406 15.3456 18.8317 15.346C18.7785 15.3453 18.7264 15.331 18.6803 15.3047C18.6342 15.2783 18.5956 15.2407 18.568 15.1954C18.4867 15.0756 18.4496 14.9313 18.4632 14.7873L18.0316 14.1814C18.0064 14.2065 17.9732 14.222 17.9378 14.2251C17.9201 14.2261 17.9023 14.2226 17.8863 14.2149C17.8703 14.2072 17.8565 14.1955 17.8463 14.1811C17.8319 14.1608 17.7956 14.1098 17.8631 13.9443L17.8419 13.9139C17.8269 13.9173 17.8117 13.9193 17.7964 13.9202C17.6202 13.9294 17.4041 13.779 17.2185 13.5178C17.0954 13.3454 17.0049 13.1519 16.9517 12.9469C16.898 12.7859 16.9063 12.6107 16.9749 12.4554C16.996 12.4167 17.0268 12.3841 17.0643 12.3607C17.1018 12.3373 17.1446 12.3238 17.1888 12.3217C17.365 12.3125 17.581 12.463 17.7667 12.724C17.9627 12.9818 18.0669 13.2975 18.0627 13.621L18.0684 13.6289C18.0935 13.6038 18.1267 13.5883 18.1622 13.5852C18.1799 13.5842 18.1976 13.5877 18.2136 13.5954C18.2296 13.6031 18.2434 13.6148 18.2537 13.6292C18.2681 13.6495 18.3043 13.7005 18.2368 13.866L18.6787 14.4874C18.6915 14.4845 18.7046 14.4826 18.7178 14.4819C18.7709 14.4827 18.823 14.4969 18.8691 14.5232C18.9152 14.5496 18.9539 14.5872 18.9814 14.6325C19.0666 14.757 19.1032 14.9082 19.0844 15.0577L19.4928 15.6318L19.2991 15.9632ZM18.6279 14.7165L18.6469 14.7442L18.6405 14.7796C18.6238 14.8897 18.6493 15.002 18.7118 15.0942C18.7232 15.1147 18.7391 15.1324 18.7584 15.1457C18.7778 15.1591 18.7999 15.1678 18.8232 15.1712C18.8318 15.1707 18.8401 15.1681 18.8474 15.1636L18.9155 15.1228L18.8975 15.0976L18.9058 15.0599C18.9267 14.9465 18.9024 14.8295 18.8381 14.7337C18.8268 14.7132 18.8108 14.6955 18.7915 14.6822C18.7722 14.6688 18.75 14.6601 18.7268 14.6567C18.7165 14.6573 18.7067 14.6609 18.6985 14.6669L18.6279 14.7165ZM17.198 12.4963C17.1829 12.4968 17.1683 12.5014 17.1556 12.5096C17.143 12.5178 17.1329 12.5293 17.1263 12.5428C17.0439 12.6835 17.1205 13.077 17.3619 13.4158C17.5281 13.6505 17.6954 13.7503 17.7875 13.7455C17.8017 13.7451 17.8155 13.7411 17.8277 13.7338L17.897 13.6904L17.8781 13.6632L17.8849 13.6268C17.8945 13.3374 17.8021 13.0537 17.6238 12.8251C17.4575 12.5913 17.2901 12.4915 17.198 12.4963Z"
      fill="#F9D291" />
    <path
      d="M19.218 16.1191L18.6946 16.1394C18.6828 16.0844 18.6533 16.0348 18.6107 15.9981C18.568 15.9613 18.5144 15.9395 18.4581 15.9358C18.4026 15.9437 18.3512 15.9696 18.3121 16.0096C18.2729 16.0496 18.2481 16.1015 18.2416 16.157L17.5675 16.183C17.5539 16.0674 17.5309 15.9868 17.5076 15.988C17.4843 15.9892 17.4693 16.0712 17.4669 16.1867L17.3485 16.1913C17.2996 16.0804 17.2169 15.9877 17.1121 15.9263C17.0073 15.8649 16.8859 15.838 16.7649 15.8492C16.6241 15.842 16.4861 15.8905 16.3811 15.9842C16.276 16.0779 16.2124 16.2093 16.204 16.3496C16.2256 16.4892 16.301 16.615 16.4142 16.7C16.5275 16.785 16.6695 16.8226 16.8101 16.8047C16.931 16.8071 17.0495 16.771 17.1484 16.7016C17.2472 16.6322 17.3213 16.5331 17.3597 16.4188L17.4781 16.4142C17.4918 16.5298 17.5147 16.6104 17.538 16.6092C17.5613 16.608 17.5764 16.526 17.5787 16.4105L18.2572 16.3842C18.2708 16.4359 18.3005 16.482 18.342 16.5158C18.3835 16.5497 18.4347 16.5695 18.4883 16.5726C18.5412 16.5656 18.5905 16.5418 18.6289 16.5048C18.6672 16.4677 18.6926 16.4193 18.7012 16.3668L19.2287 16.3467L19.218 16.1191Z"
      fill="#F9D291" />
    <path
      d="M19.3206 16.4306L18.7645 16.4521C18.7478 16.4916 18.7247 16.5281 18.6961 16.5602C18.6705 16.5897 18.6392 16.6138 18.604 16.631C18.5689 16.6482 18.5306 16.6582 18.4915 16.6603C18.4303 16.66 18.3705 16.6423 18.319 16.6093C18.2675 16.5763 18.2266 16.5294 18.2009 16.474L17.6624 16.4953C17.6517 16.6201 17.6248 16.6498 17.6124 16.6636C17.6035 16.6737 17.5926 16.6819 17.5804 16.6878C17.5682 16.6936 17.5549 16.6969 17.5414 16.6975C17.4662 16.7006 17.4302 16.6318 17.4095 16.5389C17.3865 16.5859 17.357 16.6295 17.3218 16.6684C17.2562 16.7375 17.1775 16.7928 17.0902 16.8313C17.0029 16.8697 16.9089 16.8905 16.8135 16.8923C16.4439 16.9067 16.1315 16.6651 16.1169 16.3538C16.1122 16.2181 16.1616 16.086 16.2543 15.9866C16.3198 15.9175 16.3983 15.862 16.4855 15.8234C16.5726 15.7849 16.6666 15.764 16.7619 15.762C16.884 15.7532 17.0063 15.777 17.1162 15.8308C17.2261 15.8847 17.3197 15.9666 17.3875 16.0683C17.3997 15.9722 17.4226 15.9468 17.4339 15.9344C17.4428 15.9242 17.4537 15.916 17.4659 15.9102C17.4781 15.9043 17.4913 15.901 17.5049 15.9004C17.5888 15.8972 17.6239 15.9837 17.6434 16.0925L18.1758 16.0719C18.1928 16.0265 18.218 15.9847 18.2503 15.9484C18.2759 15.9189 18.3072 15.8948 18.3424 15.8776C18.3775 15.8604 18.4158 15.8504 18.4549 15.8483C18.5189 15.8492 18.5812 15.8686 18.6342 15.9044C18.6872 15.9401 18.7285 15.9905 18.7531 16.0494L19.3012 16.029L19.3206 16.4306ZM18.6326 16.2822L19.1371 16.2626L19.1351 16.2092L18.6321 16.2283L18.612 16.1646C18.6052 16.1283 18.5871 16.095 18.5603 16.0694C18.5335 16.0439 18.4994 16.0273 18.4627 16.0221C18.447 16.0234 18.4318 16.0278 18.4178 16.0351C18.4039 16.0423 18.3916 16.0523 18.3816 16.0644C18.3549 16.0961 18.3368 16.1342 18.329 16.1748L18.3146 16.241L17.5529 16.2714L17.2874 16.2813L17.2661 16.2202C17.2227 16.1275 17.1516 16.0505 17.0625 15.9998C16.9735 15.949 16.8708 15.927 16.7687 15.9368C16.6968 15.9379 16.6259 15.9532 16.5599 15.9818C16.494 16.0105 16.4344 16.0518 16.3847 16.1036C16.3539 16.1358 16.3298 16.1738 16.314 16.2153C16.2981 16.2569 16.2906 16.3012 16.2921 16.3457C16.3132 16.4617 16.3785 16.5652 16.4743 16.6344C16.5701 16.7036 16.689 16.7332 16.8062 16.7171C16.8781 16.716 16.9491 16.7007 17.015 16.6721C17.081 16.6434 17.1405 16.6021 17.1903 16.5503C17.2305 16.5071 17.2593 16.4546 17.274 16.3975L17.2899 16.3336L18.3171 16.2938L18.3388 16.354C18.3467 16.388 18.3649 16.4188 18.391 16.4422C18.417 16.4655 18.4496 16.4804 18.4844 16.4847C18.5 16.4834 18.5153 16.479 18.5292 16.4717C18.5431 16.4645 18.5555 16.4545 18.5655 16.4424C18.5898 16.4142 18.6071 16.3806 18.6158 16.3443L18.6326 16.2822Z"
      fill="#F9D291" />
  </g>
  <path
    d="M11.9692 0.43866H20.3079C21.8941 0.438779 23.4154 1.06701 24.5371 2.1852L30.4346 8.06498C31.5563 9.18337 32.1866 10.7002 32.1867 12.2818V20.5955C32.1868 21.3788 32.032 22.1544 31.7314 22.8781C31.4308 23.6018 30.9901 24.2593 30.4346 24.8132L24.5374 30.6918C23.4157 31.8101 21.8943 32.4385 20.3079 32.4387H11.9692C10.3829 32.4386 8.86171 31.8104 7.73997 30.6923L1.84248 24.8123C0.720743 23.6939 0.0904907 22.1771 0.090332 20.5955V12.2818C0.0904521 10.7003 0.720574 9.18367 1.84213 8.06533L7.73962 2.18554C8.86138 1.06718 10.3828 0.438818 11.9692 0.43866ZM20.3079 31.9141C21.0246 31.916 21.7346 31.7761 22.3967 31.5026C23.0588 31.2292 23.66 30.8275 24.1654 30.3209L30.0626 24.4422C30.5709 23.9381 30.9739 23.3386 31.2482 22.6783C31.5225 22.0179 31.6627 21.3099 31.6607 20.5952V12.2818C31.6626 11.5673 31.5224 10.8594 31.2481 10.1993C30.9738 9.53912 30.5709 8.93976 30.0627 8.43586L24.1649 2.55608C23.6596 2.04954 23.0585 1.64794 22.3964 1.37453C21.7344 1.10113 21.0245 0.961334 20.3079 0.96325H11.9692C11.2524 0.961359 10.5425 1.10119 9.88035 1.37466C9.21821 1.64813 8.61704 2.0498 8.11162 2.55643L2.21413 8.43639C1.70606 8.94022 1.30326 9.53951 1.02902 10.1996C0.754793 10.8596 0.614581 11.5674 0.616502 12.2818V20.5953C0.614606 21.3099 0.754861 22.0177 1.02915 22.6779C1.30344 23.338 1.70632 23.9374 2.21448 24.4413L8.11215 30.3212C8.6175 30.8278 9.21859 31.2294 9.88064 31.5028C10.5427 31.7762 11.2526 31.916 11.9692 31.9141H20.3079Z"
    fill="#F9D291" />
</svg>