<svg id="captain-icon" xmlns="http://www.w3.org/2000/svg" xmlns:xlink="http://www.w3.org/1999/xlink" width="34" height="34" viewBox="0 0 34 34">
  <defs>
    <clipPath id="clip-path">
      <rect id="Rectangle_291" data-name="Rectangle 291" width="8.781" height="7.542" fill="none"/>
    </clipPath>
  </defs>
  <path id="Path_17296" data-name="Path 17296" d="M21.142,0a7,7,0,0,1,4.95,2.05L31.95,7.908A7,7,0,0,1,34,12.858v8.284a7,7,0,0,1-2.05,4.95L26.092,31.95A7,7,0,0,1,21.142,34H12.858a7,7,0,0,1-4.95-2.05L2.05,26.092A7,7,0,0,1,0,21.142V12.858a7,7,0,0,1,2.05-4.95L7.908,2.05A7,7,0,0,1,12.858,0Z" transform="translate(0 0)" fill="#4b4b4c"/>
  <g id="Group_1516" data-name="Group 1516" transform="translate(-138.732 -292.468)">
    <path id="Shape_14" data-name="Shape 14" d="M246.525,634.347s2.169,2.526,2.839,3.081c0,0,.81,1.047-1.9,1.752,0,0-12.68,3.57-19.355-4.313C228.106,634.867,245.8,633.8,246.525,634.347Z" transform="translate(-81.268 -322.09)" fill="#feda94"/>
    <path id="Shape_12" data-name="Shape 12" d="M119.172,259.043s-5.057-.242-2.906-3.381c0,0,5.764-7.32,14.86-8.094,0,0,6.13-1,7.974,3.353,0,0,1.55,3.763-1.906,5.868Z" transform="translate(28 53)" fill="#feda94"/>
    <path id="Shape_13" data-name="Shape 13" d="M326,692s2.472,4.158,11.779,2.748C337.779,694.748,329.745,695.594,326,692Z" transform="translate(-176.087 -378.143)" fill="#34394b"/>
    <path id="Shape_7" data-name="Shape 7" d="M188.375,444.561s-2.571-1.528,3.111-4.561c0,0-4.715,2.663-2.93,4.379Z" transform="translate(-41.219 -132.607)" fill="#34394b"/>
    <path id="Shape_8" data-name="Shape 8" d="M828.581,406.718a3.248,3.248,0,0,0,1.19-3.74,3.3,3.3,0,0,1-1.034,3.74Z" transform="translate(-663.481 -97.2)" fill="#34394b"/>
    <path id="Shape_15" data-name="Shape 15" d="M226.8,514a5.6,5.6,0,0,0,.026,2.774s-4.947.929-18.463.509c0,0-.282-.925.423-1.078A91.256,91.256,0,0,1,226.8,514Z" transform="translate(-61.53 -204.492)" fill="#ff9e2c"/>
    <g id="Mask_Group_5" data-name="Mask Group 5" transform="translate(155.929 302.344) rotate(-3)" clip-path="url(#clip-path)">
      <g id="Group_540" data-name="Group 540" transform="translate(0.087 0.473)">
        <path id="Ellipse_2" data-name="Ellipse 2" d="M.634,0c.35,0,.634.442.634.984s-.284.984-.634.984S0,1.527,0,.984.284,0,.634,0Zm0,1.61c.222,0,.4-.281.4-.626S.856.358.634.358.23.639.23.984.411,1.61.634,1.61Z" transform="translate(3.688 5.364)" fill="#34394b"/>
        <path id="Ellipse_2_copy" data-name="Ellipse 2 copy" d="M2.322,0C3.6,0,4.645,1.618,4.645,3.606S3.6,7.211,2.322,7.211,0,5.594,0,3.606,1.042,0,2.322,0Zm0,6.675C3.412,6.675,4.3,5.3,4.3,3.606S3.412.537,2.322.537.346,1.914.346,3.606,1.232,6.675,2.322,6.675Z" transform="translate(1.999 2.741)" fill="#34394b"/>
        <path id="Rectangle_1" data-name="Rectangle 1" d="M.277,5.511V4.556a.5.5,0,0,1-.161-.413.5.5,0,0,1,.161-.413V2.5c-.088-.014-.15-.05-.15-.092s.062-.077.15-.092V2.1A1.479,1.479,0,0,1,0,1.065C0,.477.163,0,.363,0S.726.477.726,1.065A1.479,1.479,0,0,1,.449,2.1v.216c.088.014.15.05.15.092s-.062.077-.15.092V3.737a.52.52,0,0,1,.15.405.52.52,0,0,1-.15.405v.963Z" transform="translate(3.963 0)" fill="#34394b"/>
        <path id="Rectangle_1_copy" data-name="Rectangle 1 copy" d="M0,3.934l.431-.681A.623.623,0,0,1,.5,2.782C.589,2.646.71,2.6.8,2.663l.556-.878c-.056-.106-.084-.2-.066-.228s.079.012.148.1l.1-.154A1.546,1.546,0,0,1,1.81.461c.265-.419.6-.583.74-.364a1.3,1.3,0,0,1-.222,1.155c-.226.357-.5.528-.664.437l-.1.154c.056.106.084.2.066.228s-.079-.012-.148-.1l-.559.883a.626.626,0,0,1-.076.452c-.083.131-.2.175-.29.126l-.435.687Z" transform="translate(4.674 1.752)" fill="#34394b"/>
        <path id="Rectangle_1_copy-2" data-name="Rectangle 1 copy" d="M0,2.59l.429-.441a.3.3,0,0,1,.008-.367A.3.3,0,0,1,.8,1.767L1.353,1.2c-.09-.1-.143-.187-.124-.206s.1.032.207.121l.1-.1A.68.68,0,0,1,1.692.235a.628.628,0,0,1,.879-.1.64.64,0,0,1-.077.888.667.667,0,0,1-.77.175l-.1.1c.09.1.143.187.124.206s-.1-.032-.207-.121l-.556.572a.3.3,0,0,1-.017.351.292.292,0,0,1-.348.024l-.433.445Z" transform="translate(6.729 4.411) rotate(45)" fill="#34394b"/>
        <path id="Rectangle_1_copy_2" data-name="Rectangle 1 copy 2" d="M2.057,3.435c-.092.049-.207,0-.29-.126a.626.626,0,0,1-.076-.452l-.559-.883c-.069.085-.129.127-.148.1s.009-.123.066-.228l-.1-.154c-.165.092-.438-.08-.664-.437A1.3,1.3,0,0,1,.065.1C.208-.121.54.042.8.461A1.546,1.546,0,0,1,1.075,1.5l.1.154c.069-.085.129-.127.148-.1s-.009.123-.066.228l.556.878c.094-.059.216-.017.3.119a.623.623,0,0,1,.072.47l.431.681-.123.188Z" transform="translate(1.366 1.752)" fill="#34394b"/>
        <path id="Rectangle_1_copy-3" data-name="Rectangle 1 copy" d="M0,.189.429.63A.3.3,0,0,0,.437,1,.3.3,0,0,0,.8,1.011l.553.568c-.09.1-.143.187-.124.206s.1-.032.207-.121l.1.1a.68.68,0,0,0,.159.779.628.628,0,0,0,.879.1.64.64,0,0,0-.077-.888.667.667,0,0,0-.77-.175l-.1-.1c.09-.1.143-.187.124-.206s-.1.032-.207.121L.988.819A.3.3,0,0,0,.971.468.292.292,0,0,0,.624.445L.191,0Z" transform="translate(3.886 6.376) rotate(135)" fill="#34394b"/>
      </g>
    </g>
  </g>
</svg>
