<svg xmlns="http://www.w3.org/2000/svg" xmlns:xlink="http://www.w3.org/1999/xlink" width="400" height="400" viewBox="0 0 400 400">
  <defs>
    <clipPath id="clip-path">
      <rect id="Rectangle_291" data-name="Rectangle 291" width="94.455" height="81.127" transform="translate(133.6 144.372)" fill="none"/>
    </clipPath>
  </defs>
  <g id="Group_532" data-name="Group 532" transform="translate(-60 -374)">
    <g id="Group_475" data-name="Group 475" transform="translate(-64)">
      <g id="Group_419" data-name="Group 419">
        <path id="Polygon_14" data-name="Polygon 14" d="M252.826,0a72.46,72.46,0,0,1,51.227,21.218l74.724,74.724A72.464,72.464,0,0,1,400,147.174V252.826a72.464,72.464,0,0,1-21.225,51.242l-74.717,74.709A72.464,72.464,0,0,1,252.826,400H147.174a72.459,72.459,0,0,1-51.227-21.218L21.223,304.058A72.464,72.464,0,0,1,0,252.826V147.174A72.46,72.46,0,0,1,21.218,95.947L95.942,21.223A72.464,72.464,0,0,1,147.174,0Z" transform="translate(124 374)" fill="#4b4b4c"/>
        <g id="Ellipse_28" data-name="Ellipse 28" transform="translate(150 400)" fill="none" stroke="red" stroke-width="1" opacity="0">
          <circle cx="174" cy="174" r="174" stroke="none"/>
          <circle cx="174" cy="174" r="173.5" fill="none"/>
        </g>
      </g>
    </g>
    <g id="Group_539" data-name="Group 539" transform="translate(-15.732 179.532)">
      <path id="Shape_14" data-name="Shape 14" d="M426.236,635.857s23.337,27.178,30.54,33.139c0,0,8.717,11.259-20.468,18.844,0,0-136.4,38.406-208.2-46.394C228.106,641.446,418.439,630.009,426.236,635.857Z" transform="translate(-50.971 -208.578)" fill="#feda94"/>
      <path id="Shape_12" data-name="Shape 12" d="M152.725,371.982s-54.4-2.6-31.261-36.365c0,0,62-78.737,159.848-87.072,0,0,65.937-10.809,85.772,36.063,0,0,16.674,40.473-20.507,63.118Z" transform="translate(28 53)" fill="#feda94"/>
      <path id="Shape_13" data-name="Shape 13" d="M326,692s26.586,44.723,126.709,29.565C452.709,721.565,366.287,730.663,326,692Z" transform="translate(-115.781 -247.502)" fill="#34394b"/>
      <path id="Shape_7" data-name="Shape 7" d="M194.034,489.059S166.383,472.619,227.5,440c0,0-50.719,28.643-31.515,47.11Z" transform="translate(-13.478 -65.04)" fill="#34394b"/>
      <path id="Shape_8" data-name="Shape 8" d="M828.581,443.214s20.888-13.083,12.8-40.236c0,0,9.671,23.974-11.121,40.236Z" transform="translate(-455.009 -45.396)" fill="#34394b"/>
      <path id="Shape_15" data-name="Shape 15" d="M407.234,514s-4.5,19.7.274,29.84c0,0-53.217,9.991-198.608,5.473,0,0-3.029-9.95,4.549-11.595C213.449,537.717,307.816,514.975,407.234,514Z" transform="translate(-31.866 -116.282)" fill="#f6911a"/>
      <g id="Mask_Group_5" data-name="Mask Group 5" transform="translate(133.098 183.25) rotate(-3)" clip-path="url(#clip-path)">
        <g id="Group_540" data-name="Group 540" transform="translate(134.692 149.465)">
          <path id="Ellipse_2" data-name="Ellipse 2" d="M-3.181-10C.578-10,3.637-5.251,3.637.587S.578,11.174-3.181,11.174-10,6.425-10,.587-6.941-10-3.181-10Zm0,17.324C-.789,7.324,1.158,4.3,1.158.587S-.789-6.15-3.181-6.15-7.521-3.128-7.521.587-5.574,7.324-3.181,7.324Z" transform="translate(49.522 67.697)" fill="#34394b"/>
          <path id="Ellipse_2_copy" data-name="Ellipse 2 copy" d="M9.981-15C23.755-15,34.961,2.4,34.961,23.787S23.755,62.574,9.981,62.574-15,45.174-15,23.787-3.794-15,9.981-15Zm0,71.8C21.7,56.8,31.242,41.99,31.242,23.787S21.7-9.225,9.981-9.225-11.281,5.584-11.281,23.787-1.743,56.8,9.981,56.8Z" transform="translate(36.355 44.489)" fill="#34394b"/>
          <path id="Rectangle_1" data-name="Rectangle 1" d="M2.975,59.287V49.009c-1.011-.647-1.736-2.394-1.736-4.448s.724-3.8,1.736-4.448V26.875c-.944-.155-1.612-.538-1.612-.986s.668-.831,1.612-.986V22.58C1.268,21.356,0,16.839,0,11.453,0,5.128,1.748,0,3.905,0S7.81,5.128,7.81,11.453c0,5.386-1.267,9.9-2.975,11.126V24.9c.944.155,1.612.538,1.612.986s-.668.831-1.612.986V40.2a5.6,5.6,0,0,1,1.612,4.362,5.6,5.6,0,0,1-1.612,4.362V59.287Z" transform="translate(42.475 0)" fill="#34394b"/>
          <path id="Rectangle_1_copy" data-name="Rectangle 1 copy" d="M0,42.317l4.64-7.331a6.7,6.7,0,0,1,.77-5.061C6.336,28.46,7.642,28,8.655,28.641L14.631,19.2c-.6-1.137-.907-2.137-.7-2.457s.852.134,1.594,1.051l1.049-1.658c-.666-2.731.469-7.333,2.9-11.174,2.855-4.512,6.417-6.266,7.955-3.919S27.9,8.949,25.041,13.46c-2.431,3.841-5.375,5.684-7.145,4.7l-1.049,1.658c.6,1.137.907,2.137.7,2.457s-.852-.134-1.594-1.051l-6.015,9.5a6.731,6.731,0,0,1-.819,4.865C8.235,37,7,37.474,6,36.948L1.326,44.34Z" transform="translate(50.126 18.843)" fill="#34394b"/>
          <path id="Rectangle_1_copy-2" data-name="Rectangle 1 copy" d="M.575,28.351l4.617-4.744a3.272,3.272,0,0,1,.082-3.948A3.206,3.206,0,0,1,9.187,19.5l5.947-6.11c-.972-1.1-1.538-2.008-1.337-2.214s1.111.346,2.222,1.3l1.044-1.073c-1.336-2.429-.706-5.9,1.713-8.384C21.619.1,25.852-.354,28.234,2s2.008,6.63-.833,9.55c-2.419,2.486-5.848,3.187-8.283,1.888l-1.044,1.073c.972,1.1,1.538,2.008,1.337,2.214s-1.111-.346-2.222-1.3L11.2,21.571a3.209,3.209,0,0,1-.18,3.773,3.144,3.144,0,0,1-3.739.254L2.628,30.381Z" transform="translate(72.176 46.697) rotate(45)" fill="#34394b"/>
          <path id="Rectangle_1_copy_2" data-name="Rectangle 1 copy 2" d="M22.125,36.948c-.994.525-2.23.047-3.119-1.357a6.732,6.732,0,0,1-.819-4.865l-6.015-9.5c-.743.917-1.392,1.371-1.594,1.051s.1-1.32.7-2.457l-1.049-1.658c-1.77.986-4.714-.857-7.145-4.7C.233,8.949-.835,3.388.7,1.041S5.8.449,8.659,4.961C11.09,8.8,12.226,13.4,11.56,16.135l1.049,1.658c.743-.917,1.392-1.371,1.594-1.051s-.1,1.32-.7,2.457l5.976,9.442c1.013-.639,2.319-.181,3.246,1.284a6.7,6.7,0,0,1,.77,5.061l4.64,7.331L26.8,44.34Z" transform="translate(14.548 18.843)" fill="#34394b"/>
          <path id="Rectangle_1_copy-3" data-name="Rectangle 1 copy" d="M-.04,1.989,4.577,6.733a3.272,3.272,0,0,0,.082,3.948,3.206,3.206,0,0,0,3.914.158l5.947,6.111c-.972,1.1-1.538,2.008-1.337,2.214s1.111-.346,2.222-1.3l1.044,1.073c-1.336,2.429-.706,5.9,1.713,8.384,2.841,2.92,7.075,3.378,9.456,1.023s2.008-6.63-.833-9.55C24.366,16.3,20.937,15.6,18.5,16.9L17.458,15.83c.972-1.1,1.538-2.008,1.337-2.214s-1.111.346-2.222,1.3l-5.985-6.15A3.209,3.209,0,0,0,10.407,5a3.144,3.144,0,0,0-3.739-.254L2.013-.041Z" transform="translate(41.59 68.586) rotate(135)" fill="#34394b"/>
        </g>
      </g>
    </g>
  </g>
</svg>
