<svg width="33" height="33" viewBox="0 0 33 33" fill="none" xmlns="http://www.w3.org/2000/svg">
<g clip-path="url(#clip0_2005_51)">
<path d="M30.1042 8.21093C31.0967 9.20362 31.6546 10.5497 31.6553 11.9535M30.1042 8.21093L31.6553 11.9535M30.1042 8.21093L24.1263 2.23114C23.1331 1.23796 21.7861 0.679901 20.3815 0.679688H11.9291C10.5245 0.679725 9.17748 1.23763 8.18422 2.2307L2.20673 8.20866M31.6553 11.9535V20.4059C31.6551 21.8105 31.097 23.1575 30.1038 24.1507L24.1263 30.1287C23.133 31.1218 21.786 31.6797 20.3815 31.6797H11.9295M2.20673 8.20866L1.85775 7.85971M2.20673 8.20866C1.21343 9.20198 0.655357 10.5492 0.655273 11.954V20.4059C0.65526 21.1016 0.792261 21.7904 1.05846 22.4331C1.32466 23.0758 1.71484 23.6597 2.20672 24.1516L8.18423 30.1282M8.18423 30.1282C9.17756 31.1215 10.5248 31.6796 11.9295 31.6797M8.18423 30.1282L11.9295 31.6797" stroke="#34B3E4"/>
<path d="M17.768 27.7397L24.7347 19.9114L17.897 12.2114C17.897 12.2114 17.5036 11.6801 16.8649 11.9975C16.7534 12.0623 16.6623 12.1566 16.6016 12.2699C16.5408 12.3832 16.5129 12.511 16.5208 12.6391V14.7353C16.5208 14.7353 16.5602 15.2013 16.9939 15.7192L20.7353 19.8686L16.9509 24.1464C16.9509 24.1464 16.5638 24.6127 16.5638 25.1731V27.3547C16.5638 27.3547 16.5579 27.6875 16.9939 27.8681C17.0798 27.8988 17.1705 27.9141 17.2618 27.913C17.4452 27.913 17.6234 27.852 17.768 27.7397ZM13.9405 20.5958C14.3765 20.4153 14.3706 20.0825 14.3706 20.0825V17.9008C14.3706 17.3404 13.9836 16.8742 13.9836 16.8742L10.1992 12.5964L13.9405 8.44692C14.3742 7.92905 14.4136 7.46303 14.4136 7.46303V5.36691C14.4216 5.23876 14.3936 5.11093 14.3329 4.99764C14.2721 4.88435 14.181 4.79005 14.0696 4.72524C13.4308 4.40787 13.0375 4.93913 13.0375 4.93913L6.19971 12.6391L13.1665 20.4675C13.311 20.5798 13.4892 20.6408 13.6726 20.6407C13.7639 20.6418 13.8547 20.6266 13.9405 20.5958ZM25.8958 15.5053C25.9528 15.5053 26.0075 15.4827 26.0479 15.4426C26.0882 15.4025 26.1108 15.3481 26.1108 15.2914V13.9225C26.1108 13.8658 26.0882 13.8114 26.0479 13.7712C26.0075 13.7311 25.9528 13.7086 25.8958 13.7086H24.5197C24.4626 13.7086 24.408 13.7311 24.3676 13.7712C24.3273 13.8114 24.3046 13.8658 24.3046 13.9225V15.2914C24.3046 15.3481 24.3273 15.4025 24.3676 15.4426C24.408 15.4827 24.4626 15.5053 24.5197 15.5053H25.8958ZM19.8322 11.4414C19.8892 11.4414 19.9439 11.4188 19.9842 11.3787C20.0245 11.3386 20.0472 11.2842 20.0472 11.2275V9.77303C20.0472 9.7163 20.0245 9.6619 19.9842 9.62179C19.9439 9.58168 19.8892 9.55914 19.8322 9.55914H18.37C18.313 9.55914 18.2583 9.58168 18.218 9.62179C18.1777 9.6619 18.155 9.7163 18.155 9.77303V11.2275C18.155 11.2842 18.1777 11.3386 18.218 11.3787C18.2583 11.4188 18.313 11.4414 18.37 11.4414H19.8322ZM25.3798 10.5003C25.4368 10.5003 25.4915 10.4777 25.5318 10.4376C25.5721 10.3975 25.5948 10.3431 25.5948 10.2864V8.23303C25.5948 8.1763 25.5721 8.1219 25.5318 8.08178C25.4915 8.04167 25.4368 8.01914 25.3798 8.01914H23.3155C23.2585 8.01914 23.2038 8.04167 23.1635 8.08178C23.1232 8.1219 23.1005 8.1763 23.1005 8.23303V10.2864C23.1005 10.3431 23.1232 10.3975 23.1635 10.4376C23.2038 10.4777 23.2585 10.5003 23.3155 10.5003H25.3798Z" fill="#34B3E4"/>
</g>
<defs>
<clipPath id="clip0_2005_51">
<rect width="33" height="33" fill="white"/>
</clipPath>
</defs>
</svg>
