<svg xmlns="http://www.w3.org/2000/svg" width="57.173" height="57.173" viewBox="0 0 57.173 57.173"><g transform="translate(3.896)"><rect width="57.173" height="57.173" rx="28.586" transform="translate(-3.896)" fill="#fff"/><path d="M11.963,8.067A6.134,6.134,0,1,0,18.1,14.2,6.125,6.125,0,0,0,11.963,8.067Zm0,10.123A3.988,3.988,0,1,1,15.952,14.2a4,4,0,0,1-3.988,3.988ZM19.78,7.816a1.431,1.431,0,1,1-1.431-1.431A1.428,1.428,0,0,1,19.78,7.816Zm4.063,1.452A7.081,7.081,0,0,0,21.91,4.254,7.127,7.127,0,0,0,16.9,2.322c-1.975-.112-7.9-.112-9.872,0A7.117,7.117,0,0,0,2.012,4.249,7.1,7.1,0,0,0,.079,9.262c-.112,1.975-.112,7.9,0,9.872a7.081,7.081,0,0,0,1.933,5.013A7.136,7.136,0,0,0,7.025,26.08c1.975.112,7.9.112,9.872,0a7.081,7.081,0,0,0,5.013-1.933,7.127,7.127,0,0,0,1.933-5.013c.112-1.975.112-7.891,0-9.866ZM21.291,21.254a4.038,4.038,0,0,1-2.274,2.274c-1.575.625-5.312.481-7.053.481s-5.483.139-7.053-.481a4.038,4.038,0,0,1-2.274-2.274c-.625-1.575-.481-5.312-.481-7.053s-.139-5.483.481-7.053A4.038,4.038,0,0,1,4.911,4.874c1.575-.625,5.312-.481,7.053-.481s5.483-.139,7.053.481a4.038,4.038,0,0,1,2.274,2.274c.625,1.575.481,5.312.481,7.053S21.915,19.684,21.291,21.254Z" transform="translate(13.109 14.762)"/></g></svg>