<svg xmlns="http://www.w3.org/2000/svg" width="400" height="400" viewBox="0 0 400 400">
  <g id="Group_7086" data-name="Group 7086" transform="translate(-48 -313)">
    <g id="Group_520" data-name="Group 520" transform="translate(-76 -61)">
      <g id="Group_419" data-name="Group 419">
        <path id="Polygon_14" data-name="Polygon 14" d="M252.826,0a72.46,72.46,0,0,1,51.227,21.218l74.724,74.724A72.464,72.464,0,0,1,400,147.174V252.826a72.464,72.464,0,0,1-21.225,51.242l-74.717,74.709A72.464,72.464,0,0,1,252.826,400H147.174a72.459,72.459,0,0,1-51.227-21.218L21.223,304.058A72.464,72.464,0,0,1,0,252.826V147.174A72.46,72.46,0,0,1,21.218,95.947L95.942,21.223A72.464,72.464,0,0,1,147.174,0Z" transform="translate(124 374)" fill="#4b4b4c"/>
        <g id="Ellipse_28" data-name="Ellipse 28" transform="translate(150 400)" fill="none" stroke="red" stroke-width="1" opacity="0">
          <circle cx="174" cy="174" r="174" stroke="none"/>
          <circle cx="174" cy="174" r="173.5" fill="none"/>
        </g>
      </g>
    </g>
    <g id="Group_562" data-name="Group 562" transform="translate(16331.068 -1150.467)">
      <g id="Group_560" data-name="Group 560" transform="translate(-16252.068 1569.467)">
        <path id="Path_558" data-name="Path 558" d="M85.574,124.371C68.844,120.963,53.938,106.452,49.9,89.4A47.091,47.091,0,0,1,79.947,34.142a51.608,51.608,0,0,1,26-1.429c15.541,3.648,28.94,15.7,33.937,30.6,2.219,6.426,2.931,17.287,1.584,23.946a47.341,47.341,0,0,1-34.967,36.713,57.418,57.418,0,0,1-11.9,1.072,51.038,51.038,0,0,1-9.037-.677m98.779-92.742c-1.719,6.628-3.241,7.806-10.519,10.034S160.027,32,151.068,23.356c-11.021-10.464-18.474-15.143-31.636-19.5A77.417,77.417,0,0,0,42.125,21.295c-7.85,7.456-12.45,13.482-16.73,21.964-5.709,11.418-7.533,19.346-8.165,34.729-.32,8.8-.1,15.419-1.292,18.355C14.643,115.1,0,109.778,0,109.778S9.509,123.356,13.663,123.4c9.444-6.433,16.883.968,25.763,9.531,8.645,8.248,13.242,11.658,20.933,15.541a78.306,78.306,0,0,0,65.414,2.064C136,146.176,140.759,143,148.529,135.709c17.287-16.175,25.455-35.759,25.455-60.974,0-4.44.395-9.2.949-10.7a24.944,24.944,0,0,1,16.015-15.223" transform="translate(85.301 0) rotate(8)" fill="#ffd93d"/>
        <path id="Path_559" data-name="Path 559" d="M1676.735,78.586a14.383,14.383,0,0,1-3.635-14.145,11.669,11.669,0,0,1,3.766-6.386,14.205,14.205,0,0,1,13.36-4.027,14.667,14.667,0,0,1-.36,28.782,14.757,14.757,0,0,1-2.737.259,14.457,14.457,0,0,1-10.393-4.483m37.721-51.7c-.785-1.342-.884-1.867-.884-4.322s.1-2.979.917-4.354a9.273,9.273,0,0,1,5.37-4.061,5.763,5.763,0,0,1,3.8-.131,8.31,8.31,0,0,1,5.632,3.57,8.7,8.7,0,0,1-3.6,13.031,8.232,8.232,0,0,1-3.525.79,9.027,9.027,0,0,1-7.707-4.522m5.4-18.8a14.749,14.749,0,0,0-10.936,8.186l-1.244,2.489.1,3.929c.262,11.493.328,10.609-.818,13.065a17.094,17.094,0,0,1-6.287,6.876A17.826,17.826,0,0,1,1697,44.041c-1.865.491-2.521.491-5.762.131a38.676,38.676,0,0,0-5.894-.23,24.625,24.625,0,0,0-22.659,23.216c-.36,3.9-1.243,5.993-3.275,7.891-2.129,2-2.423,9.693.753,8.644a8.581,8.581,0,0,1,5.665-.1c1.9.491,3.013,1.212,5.666,3.569a32.106,32.106,0,0,0,10.15,5.206,34.512,34.512,0,0,0,11.46-.163,35.471,35.471,0,0,0,5.24-2.064,17.949,17.949,0,0,0,6.091-4.518,19.072,19.072,0,0,0,4.518-6.091,21.32,21.32,0,0,0,2.619-11.133c.034-4.289-.327-5.992-2.194-10.642-1.178-2.881-1.309-3.568-1.309-5.893a14.5,14.5,0,0,1,12.083-14.212c1.244-.2,3.275-.49,4.485-.654a14.561,14.561,0,0,0,12.018-12.213c1.533-8.781-5.8-16.9-14.459-16.9a14.012,14.012,0,0,0-2.339.2" transform="translate(-1399.842 -6.178)" fill="#ffd93d"/>
        <path id="Path_560" data-name="Path 560" d="M5.951,69.132a6.016,6.016,0,0,1-.156-3.69,8.212,8.212,0,0,1,4.376-5.69,6.961,6.961,0,0,1,3.439-1.032A9.659,9.659,0,0,1,19.363,60.6c4.564,3.815,3.815,11.318-1.407,13.883a9.4,9.4,0,0,1-4.117.994,8.166,8.166,0,0,1-7.889-6.341M37.56,33.27a12.976,12.976,0,0,1-3.753-6.6A14,14,0,0,1,49.534,9.6,14.152,14.152,0,0,1,61.228,21.139,14.292,14.292,0,0,1,50.5,37.115a13.468,13.468,0,0,1-3.03.344A13.972,13.972,0,0,1,37.56,33.27m28.8-24.919a18.774,18.774,0,0,1-3.5-2.5,23.869,23.869,0,0,0-18.79-5.6,23.6,23.6,0,0,0-19.2,16.884,16.336,16.336,0,0,0-.719,6.252c0,4.252.219,5.285,1.907,9.536,2.469,6.191,1.469,11.63-2.94,16.164a13.925,13.925,0,0,1-9.629,4A14,14,0,0,0,0,67v.172A14.039,14.039,0,0,0,7.858,79.7a16.681,16.681,0,0,0,3.408,1.25,14.39,14.39,0,0,0,13.789-5.17,14.076,14.076,0,0,0,2.376-4.585,16.674,16.674,0,0,0,.249-7.628,14.438,14.438,0,0,1-.374-3.439C27.274,52.842,33.59,46.37,40.686,46.4c1.032,0,3.252.125,4.909.281A23.025,23.025,0,0,0,66.949,36.21c2.47-3.784,3.377-6.6,3.877-11.756.313-3.565,1-5.316,2.783-7.161" transform="translate(11.295 96.658) rotate(8)" fill="#ffd93d"/>
      </g>
      <circle id="Ellipse_46" data-name="Ellipse 46" cx="61" cy="61" r="61" transform="translate(-16144.068 1598.467)" fill="#4b4b4c"/>
      <g id="Group_559" data-name="Group 559" transform="translate(-16133.068 1609.467)">
        <path id="Path_33" data-name="Path 33" d="M3.85,0A4.01,4.01,0,0,1,7.7,4.152V39.9a4.01,4.01,0,0,1-3.85,4.152A4.01,4.01,0,0,1,0,39.9V4.152A4.01,4.01,0,0,1,3.85,0Z" transform="translate(45.784 0)" fill="#ffd93d"/>
        <circle id="Ellipse_25" data-name="Ellipse 25" cx="13.432" cy="13.432" r="13.432" transform="translate(36.75 38.715)" fill="#ffd93d"/>
        <path id="Path_34" data-name="Path 34" d="M3.907,0A4.366,4.366,0,0,1,8.1,4.1L9.333,38.153a3.672,3.672,0,0,1-3.9,3.811,4.366,4.366,0,0,1-4.191-4.1L0,3.814A3.672,3.672,0,0,1,3.907,0Z" transform="translate(87.955 17.984) rotate(54)" fill="#ffd93d"/>
        <path id="Path_35" data-name="Path 35" d="M3.907,41.963a4.366,4.366,0,0,0,4.191-4.1L9.333,3.814A3.672,3.672,0,0,0,5.429,0,4.366,4.366,0,0,0,1.238,4.1L0,38.153A3.672,3.672,0,0,0,3.907,41.963Z" transform="matrix(-0.588, 0.809, -0.809, -0.588, 45.176, 42.651)" fill="#ffd93d"/>
        <path id="Path_36" data-name="Path 36" d="M4.078,40.994a4.16,4.16,0,0,0,4.2-3.925L8.806,3.8A3.863,3.863,0,0,0,4.729,0a4.16,4.16,0,0,0-4.2,3.925L0,37.192A3.863,3.863,0,0,0,4.078,40.994Z" transform="translate(57.676 57.933) rotate(-78)" fill="#ffd93d"/>
        <path id="Path_38" data-name="Path 38" d="M3.792,43.4a4.312,4.312,0,0,0,4.034-4.212L8.877,3.97A3.721,3.721,0,0,0,5.087,0,4.312,4.312,0,0,0,1.053,4.214L0,39.43A3.721,3.721,0,0,0,3.792,43.4Z" transform="matrix(0.891, -0.454, 0.454, 0.891, 49.377, 60.821)" fill="#ffd93d"/>
        <path id="Path_37" data-name="Path 37" d="M4.078,0a4.16,4.16,0,0,1,4.2,3.925l.528,33.267a3.863,3.863,0,0,1-4.077,3.8,4.16,4.16,0,0,1-4.2-3.925L0,3.8A3.863,3.863,0,0,1,4.078,0Z" transform="matrix(-0.208, -0.978, 0.978, -0.208, 1.831, 66.456)" fill="#ffd93d"/>
        <path id="Path_39" data-name="Path 39" d="M3.792,0A4.312,4.312,0,0,1,7.827,4.214L8.877,39.43A3.721,3.721,0,0,1,5.087,43.4a4.312,4.312,0,0,1-4.034-4.212L0,3.97A3.721,3.721,0,0,1,3.792,0Z" transform="matrix(-0.891, -0.454, 0.454, -0.891, 31.218, 99.606)" fill="#ffd93d"/>
        <path id="Path_40" data-name="Path 40" d="M36.058,8.534a27.679,27.679,0,1,0,27.56,27.679A27.651,27.651,0,0,0,36.058,8.534m0-8.534A36.214,36.214,0,1,1,0,36.213,36.136,36.136,0,0,1,36.058,0Z" transform="translate(14.112 15.776)" fill="#ffd93d"/>
      </g>
    </g>
  </g>
</svg>
