<svg width="33" height="33" viewBox="0 0 33 33" fill="none" xmlns="http://www.w3.org/2000/svg">
<g clip-path="url(#clip0_2005_54)">
<path d="M24.8208 2.48973C23.8276 1.49672 22.4807 0.938827 21.0762 0.938721M24.8208 2.48973L21.0762 0.938721M24.8208 2.48973L30.7988 8.46764C31.7919 9.46092 32.35 10.808 32.3501 12.2126V20.6647C32.3501 21.3603 32.2131 22.0492 31.9469 22.6919C31.6807 23.3346 31.2905 23.9186 30.7986 24.4105L24.8212 30.3874C23.8279 31.3806 22.4808 31.9386 21.0762 31.9387H12.624C11.2195 31.9386 9.8726 31.3807 8.87938 30.3877L2.90144 24.4098C1.90827 23.4165 1.35024 22.0694 1.3501 20.6648V12.2126C1.3502 10.8081 1.9081 9.46118 2.90111 8.46797L8.87901 2.49007C9.87227 1.4969 11.2193 0.938866 12.624 0.938721H21.0762" stroke="#B0D775"/>
<path d="M11.4977 27.1164V24.8307C11.4977 24.8307 11.5583 24.4021 11.1405 24.4021H8.21196C8.15528 24.4007 8.0989 24.4108 8.04625 24.4318C7.99359 24.4528 7.94576 24.4844 7.90567 24.5245C7.86558 24.5645 7.83406 24.6124 7.81303 24.665C7.792 24.7177 7.7819 24.7741 7.78334 24.8307V27.1164H11.4977Z" fill="#B0D775"/>
<path d="M16.2929 27.1164V22.545C16.2929 22.545 16.3535 22.1163 15.9357 22.1163H13.0072C12.9505 22.1149 12.8941 22.125 12.8414 22.146C12.7888 22.1671 12.741 22.1986 12.7009 22.2387C12.6608 22.2788 12.6293 22.3266 12.6082 22.3792C12.5872 22.4319 12.5771 22.4883 12.5785 22.545V27.1164H16.2929Z" fill="#B0D775"/>
<path d="M21.0881 27.1165V16.9022C21.0881 16.9022 21.1487 16.4736 20.7309 16.4736H17.8024C17.7457 16.4722 17.6893 16.4823 17.6366 16.5033C17.584 16.5243 17.5362 16.5558 17.4961 16.5959C17.456 16.636 17.4245 16.6839 17.4034 16.7365C17.3824 16.7892 17.3723 16.8456 17.3737 16.9022V27.1165H21.0881Z" fill="#B0D775"/>
<path d="M25.8832 27.1165V12.3309C25.8832 12.3309 25.9438 11.9022 25.526 11.9022H22.5975C22.5408 11.9008 22.4844 11.9109 22.4317 11.9319C22.3791 11.953 22.3313 11.9845 22.2912 12.0246C22.2511 12.0647 22.2196 12.1125 22.1985 12.1651C22.1775 12.2178 22.1674 12.2742 22.1688 12.3309V27.1165H25.8832Z" fill="#B0D775"/>
<mask id="mask0_2005_54" style="mask-type:luminance" maskUnits="userSpaceOnUse" x="9" y="4" width="10" height="17">
<path d="M9.65996 20.729C9.56885 20.7211 9.48306 20.6828 9.41646 20.6201C9.34987 20.5575 9.30635 20.4742 9.29296 20.3837C9.27956 20.2932 9.29707 20.2009 9.34266 20.1216C9.38824 20.0424 9.45923 19.9808 9.54415 19.9469L9.95086 19.7844C10.0006 19.7632 10.0541 19.7523 10.1082 19.7521C10.1622 19.7519 10.2158 19.7626 10.2657 19.7834C10.3156 19.8042 10.3609 19.8347 10.3988 19.8732C10.4368 19.9118 10.4667 19.9575 10.4868 20.0077C10.5068 20.0579 10.5167 20.1116 10.5157 20.1657C10.5147 20.2197 10.503 20.2731 10.4812 20.3225C10.4593 20.372 10.4278 20.4166 10.3885 20.4537C10.3492 20.4909 10.3029 20.5198 10.2523 20.5388L9.84561 20.7013C9.78675 20.725 9.72315 20.7345 9.65996 20.729Z" fill="white"/>
<path d="M15.7107 11.9911L13.3088 13.5523C13.2027 13.6213 13.1282 13.7297 13.102 13.8536C13.0757 13.9775 13.0997 14.1067 13.1687 14.2129C13.2377 14.3191 13.3461 14.3935 13.47 14.4198C13.5939 14.4461 13.7231 14.4221 13.8293 14.353L15.831 13.052L17.132 15.0535C17.201 15.1597 17.3093 15.2341 17.4332 15.2604C17.5571 15.2866 17.6864 15.2626 17.7926 15.1936C17.8987 15.1246 17.9732 15.0162 17.9994 14.8923C18.0257 14.7685 18.0017 14.6392 17.9327 14.533L16.3715 12.1311C16.3373 12.0785 16.2931 12.0332 16.2414 11.9977C16.1897 11.9622 16.1315 11.9372 16.0701 11.9242C16.0088 11.9112 15.9454 11.9104 15.8838 11.9219C15.8221 11.9334 15.7633 11.9569 15.7107 11.9911Z" fill="white"/>
<path d="M11.2293 19.9362C11.14 19.9285 11.0558 19.8915 10.9897 19.8309C10.9237 19.7704 10.8795 19.6897 10.864 19.6014C10.8485 19.5132 10.8627 19.4222 10.9043 19.3429C10.9458 19.2635 11.0125 19.2001 11.0938 19.1625C15.1747 17.2778 15.3896 12.8977 15.3913 12.8542C15.3971 12.7477 15.4446 12.6478 15.5234 12.576C15.6022 12.5042 15.7061 12.4663 15.8126 12.4704C15.9192 12.4745 16.0198 12.5203 16.0929 12.598C16.166 12.6756 16.2056 12.7789 16.2032 12.8855C16.1956 13.085 15.9627 17.8084 11.4348 19.9C11.3706 19.9298 11.2998 19.9423 11.2293 19.9362Z" fill="white"/>
<path d="M10.6243 8.15713C10.6202 7.84732 10.7083 7.54329 10.8775 7.2837C11.0466 7.02411 11.2892 6.82069 11.5742 6.69928C11.8593 6.57788 12.174 6.54399 12.4784 6.60191C12.7827 6.65984 13.063 6.80697 13.2835 7.02459C13.5041 7.24222 13.6549 7.52051 13.7169 7.82408C13.7788 8.12766 13.7491 8.4428 13.6315 8.72945C13.5139 9.01609 13.3137 9.26129 13.0564 9.43387C12.7991 9.60645 12.4963 9.69861 12.1864 9.69864C11.9827 9.69999 11.7806 9.6612 11.5918 9.58447C11.403 9.50773 11.2312 9.39456 11.0861 9.25142C10.9411 9.10828 10.8256 8.93796 10.7464 8.7502C10.6671 8.56244 10.6257 8.36091 10.6243 8.15713ZM14.6503 5.04068L13.5013 6.24299C13.11 5.98195 12.6498 5.84332 12.1794 5.84477C11.709 5.84623 11.2497 5.9877 10.86 6.25117L9.72222 5.06006C9.6613 4.99672 9.5778 4.96005 9.48993 4.95805C9.40207 4.95605 9.31699 4.98889 9.25325 5.04939L9.21911 5.0821C9.15573 5.143 9.11903 5.22652 9.11703 5.31439C9.11503 5.40227 9.1479 5.48736 9.20845 5.55108L10.3392 6.73437C10.0163 7.14041 9.84126 7.64429 9.84298 8.16305C9.84469 8.6818 10.023 9.18452 10.3486 9.58841L9.20845 10.7815C9.1479 10.8452 9.11503 10.9303 9.11703 11.0181C9.11903 11.106 9.15573 11.1895 9.21911 11.2504L9.25325 11.2831C9.31696 11.3437 9.40206 11.3766 9.48994 11.3746C9.57781 11.3726 9.66132 11.3359 9.72222 11.2725L10.8718 10.0695C11.2586 10.3279 11.713 10.4666 12.1782 10.4683C12.6433 10.47 13.0987 10.3346 13.4874 10.0791L14.5896 11.2321C14.6505 11.2955 14.7341 11.3322 14.8219 11.3342C14.9098 11.3362 14.9949 11.3033 15.0586 11.2428L15.0929 11.2101C15.1563 11.1491 15.193 11.0656 15.195 10.9777C15.197 10.8898 15.1642 10.8047 15.1036 10.7409L14.0149 9.60157C14.3461 9.19561 14.5279 8.68818 14.5297 8.16422C14.5315 7.64027 14.3533 7.13159 14.0248 6.72335L15.1644 5.53099C15.225 5.46724 15.2578 5.38212 15.2558 5.29421C15.2538 5.20631 15.2171 5.12277 15.1537 5.06184L15.1194 5.02913C15.0557 4.96858 14.9706 4.93571 14.8827 4.93771C14.7949 4.93971 14.7112 4.9773 14.6503 5.04068Z" fill="white"/>
</mask>
<g mask="url(#mask0_2005_54)">
<path d="M9.95078 19.7844L10.3219 20.713L10.3316 20.7091L10.3412 20.705L9.95078 19.7844ZM10.2523 20.5388L9.90069 19.6026L9.8909 19.6063L9.88119 19.6102L10.2523 20.5388ZM9.84553 20.7013L9.47447 19.7727L9.47265 19.7734L9.84553 20.7013ZM15.8311 13.052L16.6695 12.507L16.1245 11.6685L15.2861 12.2135L15.8311 13.052ZM15.3913 12.8542L14.3928 12.7994L14.3923 12.8077L14.392 12.816L15.3913 12.8542ZM16.2032 12.8855L17.2025 12.9236L17.2028 12.9157L17.203 12.9077L16.2032 12.8855ZM11.4348 19.9L11.0154 18.9922L11.0135 18.9931L11.4348 19.9ZM10.6243 8.15713L11.6243 8.1505L11.6242 8.14392L10.6243 8.15713ZM12.1864 9.69864V8.69861L12.1798 8.69866L12.1864 9.69864ZM13.5013 6.24299L12.9463 7.07487L13.6444 7.54059L14.2242 6.93388L13.5013 6.24299ZM10.86 6.25117L10.1369 6.9419L10.7204 7.5527L11.4201 7.0796L10.86 6.25117ZM9.72222 5.06006L10.4454 4.36932L10.443 4.36684L9.72222 5.06006ZM9.25325 5.04939L8.56478 4.32411L8.5613 4.32744L9.25325 5.04939ZM9.21911 5.0821L8.52717 4.36015L8.52628 4.36101L9.21911 5.0821ZM9.20845 5.55108L8.48354 6.23993L8.48545 6.24193L9.20845 5.55108ZM10.3392 6.73437L11.1219 7.35675L11.6647 6.6741L11.0622 6.04352L10.3392 6.73437ZM10.3486 9.58841L11.0716 10.2793L11.6782 9.6445L11.1272 8.96088L10.3486 9.58841ZM9.20845 10.7815L8.48547 10.0906L8.48354 10.0926L9.20845 10.7815ZM9.21911 11.2504L8.52628 11.9715L8.52718 11.9724L9.21911 11.2504ZM9.25325 11.2831L8.56131 12.0051L8.5644 12.008L9.25325 11.2831ZM9.72222 11.2725L10.4434 11.9653L10.4453 11.9633L9.72222 11.2725ZM10.8718 10.0695L11.4273 9.23798L10.729 8.77144L10.1488 9.37864L10.8718 10.0695ZM13.4874 10.0791L14.2103 9.38809L13.6344 8.78564L12.938 9.24352L13.4874 10.0791ZM14.5896 11.2321L13.8668 11.9231L13.8685 11.925L14.5896 11.2321ZM15.0586 11.2428L15.7475 11.9677L15.7487 11.9665L15.0586 11.2428ZM15.0929 11.2101L15.783 11.9338L15.7859 11.9311L15.0929 11.2101ZM15.1036 10.7409L15.8286 10.0522L15.8266 10.0501L15.1036 10.7409ZM14.0149 9.60157L13.2401 8.96936L12.6816 9.65377L13.2919 10.2924L14.0149 9.60157ZM14.0248 6.72335L13.3019 6.03243L12.6958 6.66664L13.2457 7.35018L14.0248 6.72335ZM15.1644 5.53099L15.8873 6.22192L15.8894 6.21973L15.1644 5.53099ZM15.1537 5.06184L15.8467 4.34085L15.8438 4.33808L15.1537 5.06184ZM15.1194 5.02913L15.8095 4.30537L15.8083 4.30422L15.1194 5.02913ZM9.74592 19.7327C9.87902 19.7442 10.0044 19.8002 10.1017 19.8918L8.73114 21.3484C8.96165 21.5653 9.25858 21.6981 9.5739 21.7253L9.74592 19.7327ZM10.1017 19.8918C10.199 19.9834 10.2626 20.1051 10.2821 20.2372L8.30366 20.5302C8.35002 20.8433 8.50063 21.1316 8.73114 21.3484L10.1017 19.8918ZM10.2821 20.2372C10.3017 20.3694 10.2761 20.5043 10.2095 20.6201L8.47568 19.6232C8.31791 19.8975 8.2573 20.2171 8.30366 20.5302L10.2821 20.2372ZM10.2095 20.6201C10.1429 20.736 10.0392 20.8259 9.91507 20.8755L9.17307 19.0182C8.87916 19.1357 8.63345 19.3488 8.47568 19.6232L10.2095 20.6201ZM9.91507 20.8755L10.3219 20.713L9.57972 18.8557L9.17307 19.0182L9.91507 20.8755ZM10.3412 20.705C10.2685 20.7359 10.1903 20.7519 10.1113 20.7521L10.105 18.7521C9.91785 18.7527 9.7327 18.7906 9.56039 18.8637L10.3412 20.705ZM10.1113 20.7521C10.0323 20.7524 9.95399 20.7368 9.88106 20.7064L10.6503 18.8603C10.4776 18.7883 10.2922 18.7515 10.105 18.7521L10.1113 20.7521ZM9.88106 20.7064C9.80812 20.6761 9.74199 20.6314 9.68654 20.5751L11.1111 19.1713C10.9798 19.038 10.8231 18.9323 10.6503 18.8603L9.88106 20.7064ZM9.68654 20.5751C9.63109 20.5189 9.58742 20.4521 9.5581 20.3787L11.4154 19.6366C11.3459 19.4628 11.2425 19.3046 11.1111 19.1713L9.68654 20.5751ZM9.5581 20.3787C9.52878 20.3053 9.51441 20.2269 9.51581 20.1479L11.5155 20.1834C11.5189 19.9963 11.4848 19.8104 11.4154 19.6366L9.5581 20.3787ZM9.51581 20.1479C9.51722 20.0689 9.53438 19.991 9.56628 19.9187L11.396 20.7264C11.4716 20.5551 11.5122 20.3706 11.5155 20.1834L9.51581 20.1479ZM9.56628 19.9187C9.59819 19.8464 9.6442 19.7812 9.70163 19.7269L11.0754 21.1805C11.2114 21.052 11.3204 20.8976 11.396 20.7264L9.56628 19.9187ZM9.70163 19.7269C9.75905 19.6727 9.82673 19.6304 9.90069 19.6026L10.6038 21.475C10.779 21.4092 10.9394 21.3091 11.0754 21.1805L9.70163 19.7269ZM9.88119 19.6102L9.47447 19.7727L10.2166 21.6299L10.6233 21.4674L9.88119 19.6102ZM9.47265 19.7734C9.55929 19.7386 9.6529 19.7247 9.74592 19.7327L9.5739 21.7253C9.79332 21.7442 10.0141 21.7113 10.2184 21.6292L9.47265 19.7734ZM15.1658 11.1527L12.764 12.7139L13.8539 14.3908L16.2558 12.8295L15.1658 11.1527ZM12.764 12.7139C12.4354 12.9274 12.2051 13.2627 12.1238 13.6461L14.0803 14.0611C14.0515 14.1966 13.9701 14.3152 13.8539 14.3908L12.764 12.7139ZM12.1238 13.6461C12.0425 14.0294 12.1168 14.4293 12.3304 14.7579L14.0073 13.6679C14.0828 13.7841 14.109 13.9255 14.0803 14.0611L12.1238 13.6461ZM12.3304 14.7579C12.5439 15.0864 12.8792 15.3167 13.2626 15.398L13.6776 13.4416C13.8132 13.4703 13.9317 13.5517 14.0073 13.6679L12.3304 14.7579ZM13.2626 15.398C13.6459 15.4793 14.0458 15.405 14.3744 15.1915L13.2844 13.5146C13.4006 13.4391 13.542 13.4128 13.6776 13.4416L13.2626 15.398ZM14.3744 15.1915L16.3761 13.8904L15.2861 12.2135L13.2844 13.5146L14.3744 15.1915ZM14.9926 13.5969L16.2936 15.5985L17.9705 14.5085L16.6695 12.507L14.9926 13.5969ZM16.2936 15.5985C16.5072 15.927 16.8425 16.1573 17.2258 16.2386L17.6408 14.2821C17.7764 14.3109 17.895 14.3923 17.9705 14.5085L16.2936 15.5985ZM17.2258 16.2386C17.6092 16.3199 18.0091 16.2456 18.3376 16.0321L17.2477 14.3552C17.3639 14.2797 17.5053 14.2534 17.6408 14.2821L17.2258 16.2386ZM18.3376 16.0321C18.6662 15.8185 18.8965 15.4832 18.9778 15.0999L17.0213 14.6848C17.0501 14.5493 17.1315 14.4307 17.2477 14.3552L18.3376 16.0321ZM18.9778 15.0999C19.0591 14.7165 18.9848 14.3166 18.7712 13.988L17.0943 15.078C17.0188 14.9618 16.9925 14.8204 17.0213 14.6848L18.9778 15.0999ZM18.7712 13.988L17.21 11.5861L15.5331 12.6761L17.0943 15.078L18.7712 13.988ZM17.21 11.5861C17.1043 11.4234 16.9675 11.2831 16.8075 11.1733L15.6755 12.8221C15.6189 12.7833 15.5705 12.7337 15.5331 12.6761L17.21 11.5861ZM16.8075 11.1733C16.6475 11.0634 16.4674 10.9862 16.2775 10.946L15.8629 12.9025C15.7957 12.8883 15.7321 12.861 15.6755 12.8221L16.8075 11.1733ZM16.2775 10.946C16.0877 10.9057 15.8917 10.9033 15.701 10.9388L16.0668 12.905C15.9993 12.9176 15.93 12.9167 15.8629 12.9025L16.2775 10.946ZM15.701 10.9388C15.5102 10.9743 15.3285 11.0468 15.1658 11.1527L16.2558 12.8295C16.1983 12.867 16.1343 12.8925 16.0668 12.905L15.701 10.9388ZM11.3162 18.9399C11.4466 18.9511 11.5688 19.0052 11.6653 19.0936L10.3141 20.5682C10.5428 20.7777 10.8343 20.9058 11.1433 20.9325L11.3162 18.9399ZM11.6653 19.0936C11.7619 19.1821 11.8264 19.3 11.849 19.429L9.87895 19.7739C9.93244 20.0794 10.0855 20.3586 10.3141 20.5682L11.6653 19.0936ZM11.849 19.429C11.8716 19.5579 11.8509 19.6907 11.7902 19.8067L10.0184 18.879C9.87446 19.1537 9.82546 19.4684 9.87895 19.7739L11.849 19.429ZM11.7902 19.8067C11.7294 19.9227 11.6321 20.0154 11.5132 20.0703L10.6746 18.2546C10.393 18.3846 10.1623 18.6042 10.0184 18.879L11.7902 19.8067ZM11.5132 20.0703C13.8383 18.9966 15.061 17.2051 15.6935 15.7068C16.3201 14.2226 16.3869 12.9869 16.3906 12.8923L14.392 12.816C14.394 12.7649 14.3525 13.7411 13.851 14.929C13.3554 16.1029 12.4304 17.4438 10.6746 18.2546L11.5132 20.0703ZM16.3898 12.909C16.3812 13.0645 16.3119 13.2105 16.1967 13.3154L14.8501 11.8367C14.5772 12.0852 14.413 12.4309 14.3928 12.7994L16.3898 12.909ZM16.1967 13.3154C16.0816 13.4202 15.9298 13.4757 15.7741 13.4697L15.8512 11.4712C15.4824 11.4569 15.1229 11.5882 14.8501 11.8367L16.1967 13.3154ZM15.7741 13.4697C15.6184 13.4637 15.4714 13.3967 15.3646 13.2833L16.8212 11.9127C16.5683 11.644 16.2199 11.4854 15.8512 11.4712L15.7741 13.4697ZM15.3646 13.2833C15.2579 13.1698 15.2 13.019 15.2035 12.8632L17.203 12.9077C17.2112 12.5388 17.074 12.1814 16.8212 11.9127L15.3646 13.2833ZM15.2039 12.8473C15.198 13.0026 14.9799 17.1609 11.0154 18.9922L11.8541 20.8079C16.9455 18.456 17.1932 13.1674 17.2025 12.9236L15.2039 12.8473ZM11.0135 18.9931C11.108 18.9492 11.2123 18.9309 11.3162 18.9399L11.1433 20.9325C11.388 20.9538 11.6333 20.9105 11.8561 20.807L11.0135 18.9931ZM11.6242 8.14392C11.6228 8.03244 11.6545 7.92304 11.7153 7.82962L10.0397 6.73778C9.7622 7.16355 9.61765 7.66219 9.62436 8.17033L11.6242 8.14392ZM11.7153 7.82962C11.7762 7.73621 11.8635 7.66301 11.966 7.61932L11.1824 5.77925C10.7148 5.97837 10.3171 6.31202 10.0397 6.73778L11.7153 7.82962ZM11.966 7.61932C12.0686 7.57563 12.1819 7.56344 12.2914 7.58428L12.6653 5.61955C12.1661 5.52454 11.6499 5.58013 11.1824 5.77925L11.966 7.61932ZM12.2914 7.58428C12.4009 7.60513 12.5018 7.65807 12.5811 7.73638L13.9859 6.3128C13.6242 5.95587 13.1645 5.71455 12.6653 5.61955L12.2914 7.58428ZM12.5811 7.73638C12.6605 7.8147 12.7148 7.91484 12.7371 8.02408L14.6967 7.62409C14.595 7.12618 14.3476 6.66974 13.9859 6.3128L12.5811 7.73638ZM12.7371 8.02408C12.7594 8.13332 12.7487 8.24672 12.7064 8.34987L14.5567 9.10902C14.7496 8.63887 14.7983 8.12199 14.6967 7.62409L12.7371 8.02408ZM12.7064 8.34987C12.6641 8.45302 12.592 8.54126 12.4994 8.60336L13.6134 10.2643C14.0355 9.98132 14.3638 9.57916 14.5567 9.10902L12.7064 8.34987ZM12.4994 8.60336C12.4068 8.66546 12.2978 8.6986 12.1864 8.69861L12.1865 10.6986C12.6947 10.6986 13.1914 10.5474 13.6134 10.2643L12.4994 8.60336ZM12.1798 8.69866C12.1073 8.69914 12.0355 8.68535 11.9683 8.65806L11.2153 10.5108C11.5257 10.637 11.858 10.7008 12.1931 10.6986L12.1798 8.69866ZM11.9683 8.65806C11.9012 8.63078 11.8401 8.59053 11.7885 8.53963L10.3837 9.96321C10.6222 10.1986 10.9048 10.3847 11.2153 10.5108L11.9683 8.65806ZM11.7885 8.53963C11.7369 8.48873 11.6959 8.42816 11.6677 8.3614L9.82501 9.13901C9.95531 9.44776 10.1452 9.72783 10.3837 9.96321L11.7885 8.53963ZM11.6677 8.3614C11.6395 8.29463 11.6248 8.22297 11.6243 8.1505L9.62429 8.16375C9.62651 8.49886 9.69471 8.83025 9.82501 9.13901L11.6677 8.3614ZM13.9273 4.34979L12.7783 5.5521L14.2242 6.93388L15.3732 5.73157L13.9273 4.34979ZM14.0562 5.41111C13.4997 5.03986 12.8453 4.84271 12.1763 4.84478L12.1825 6.84477C12.4543 6.84393 12.7202 6.92403 12.9463 7.07487L14.0562 5.41111ZM12.1763 4.84478C11.5074 4.84685 10.8541 5.04805 10.2999 5.42274L11.4201 7.0796C11.6453 6.92736 11.9107 6.84561 12.1825 6.84477L12.1763 4.84478ZM11.5832 5.56044L10.4454 4.36932L8.99911 5.75079L10.1369 6.9419L11.5832 5.56044ZM10.443 4.36684C10.199 4.11317 9.86454 3.96631 9.51267 3.95831L9.4672 5.95779C9.29105 5.95378 9.12364 5.88027 9.0015 5.75328L10.443 4.36684ZM9.51267 3.95831C9.16082 3.95031 8.82006 4.08179 8.56478 4.32411L9.94171 5.77466C9.81391 5.89597 9.64333 5.9618 9.4672 5.95779L9.51267 3.95831ZM8.5613 4.32744L8.52717 4.36015L9.91106 5.80405L9.94519 5.77134L8.5613 4.32744ZM8.52628 4.36101C8.27234 4.605 8.1253 4.93958 8.11729 5.29165L10.1168 5.33713C10.1128 5.51345 10.0392 5.68101 9.91195 5.8032L8.52628 4.36101ZM8.11729 5.29165C8.10928 5.6437 8.24094 5.98463 8.48354 6.23993L9.93335 4.86223C10.0549 4.99009 10.1208 5.16083 10.1168 5.33713L8.11729 5.29165ZM8.48545 6.24193L9.61611 7.42522L11.0622 6.04352L9.93145 4.86023L8.48545 6.24193ZM9.5564 6.11199C9.09213 6.69585 8.84052 7.4204 8.84298 8.16635L10.843 8.15974C10.842 7.86817 10.9404 7.58497 11.1219 7.35675L9.5564 6.11199ZM8.84298 8.16635C8.84544 8.91229 9.10184 9.63517 9.56995 10.2159L11.1272 8.96088C10.9442 8.73386 10.844 8.45131 10.843 8.15974L8.84298 8.16635ZM9.62556 8.89754L8.48547 10.0906L9.93142 11.4723L11.0716 10.2793L9.62556 8.89754ZM8.48354 10.0926C8.24095 10.3479 8.10928 10.6888 8.11729 11.0409L10.1168 10.9954C10.1208 11.1717 10.0549 11.3424 9.93335 11.4703L8.48354 10.0926ZM8.11729 11.0409C8.1253 11.3929 8.27234 11.7275 8.52628 11.9715L9.91195 10.5293C10.0392 10.6515 10.1128 10.8191 10.1168 10.9954L8.11729 11.0409ZM8.52718 11.9724L8.56131 12.0051L9.94518 10.5612L9.91105 10.5285L8.52718 11.9724ZM8.5644 12.008C8.81968 12.2506 9.16061 12.3823 9.51268 12.3743L9.4672 10.3748C9.64351 10.3708 9.81425 10.4367 9.94209 10.5582L8.5644 12.008ZM9.51268 12.3743C9.86475 12.3663 10.1994 12.2192 10.4434 11.9653L9.00113 10.5796C9.12331 10.4525 9.29088 10.3788 9.4672 10.3748L9.51268 12.3743ZM10.4453 11.9633L11.5948 10.7603L10.1488 9.37864L8.99922 10.5816L10.4453 11.9633ZM10.3163 10.901C10.8665 11.2685 11.5128 11.4659 12.1745 11.4683L12.1818 9.46834C11.9131 9.46736 11.6507 9.38723 11.4273 9.23798L10.3163 10.901ZM12.1745 11.4683C12.8362 11.4707 13.4839 11.2781 14.0368 10.9146L12.938 9.24352C12.7135 9.39113 12.4505 9.46933 12.1818 9.46834L12.1745 11.4683ZM12.7646 10.77L13.8668 11.9231L15.3125 10.5411L14.2103 9.38809L12.7646 10.77ZM13.8685 11.925C14.1125 12.1789 14.4471 12.3259 14.7992 12.3339L14.8447 10.3345C15.021 10.3385 15.1886 10.4121 15.3107 10.5393L13.8685 11.925ZM14.7992 12.3339C15.1512 12.3419 15.4922 12.2103 15.7475 11.9677L14.3698 10.5179C14.4976 10.3964 14.6684 10.3304 14.8447 10.3345L14.7992 12.3339ZM15.7487 11.9665L15.783 11.9338L14.4029 10.4863L14.3686 10.519L15.7487 11.9665ZM15.7859 11.9311C16.0398 11.687 16.1868 11.3525 16.1948 11.0004L14.1953 10.955C14.1993 10.7787 14.2729 10.6112 14.4 10.4891L15.7859 11.9311ZM16.1948 11.0004C16.2028 10.6484 16.0711 10.3075 15.8286 10.0522L14.3786 11.4297C14.2572 11.3019 14.1913 11.1312 14.1953 10.955L16.1948 11.0004ZM15.8266 10.0501L14.7379 8.91072L13.2919 10.2924L14.3806 11.4318L15.8266 10.0501ZM14.7897 10.2337C15.2658 9.65023 15.5271 8.92083 15.5297 8.16768L13.5297 8.16076C13.5287 8.45552 13.4264 8.74098 13.2401 8.96936L14.7897 10.2337ZM15.5297 8.16768C15.5323 7.41453 15.2761 6.68334 14.804 6.09651L13.2457 7.35018C13.4305 7.57984 13.5307 7.86601 13.5297 8.16076L15.5297 8.16768ZM14.7478 7.41427L15.8873 6.22192L14.4415 4.84007L13.3019 6.03243L14.7478 7.41427ZM15.8894 6.21973C16.1319 5.96444 16.2636 5.62354 16.2556 5.27148L14.2561 5.31694C14.2521 5.1407 14.318 4.97005 14.4394 4.84225L15.8894 6.21973ZM16.2556 5.27148C16.2476 4.91943 16.1006 4.58485 15.8467 4.34085L14.4608 5.78282C14.3337 5.66067 14.2601 5.49319 14.2561 5.31694L16.2556 5.27148ZM15.8438 4.33808L15.8095 4.30537L14.4294 5.75288L14.4637 5.7856L15.8438 4.33808ZM15.8083 4.30422C15.553 4.06163 15.2121 3.92996 14.86 3.93797L14.9055 5.93745C14.7292 5.94146 14.5584 5.87552 14.4306 5.75403L15.8083 4.30422ZM14.86 3.93797C14.5079 3.94598 14.1733 4.09302 13.9293 4.34696L15.3715 5.73263C15.2493 5.8598 15.0818 5.93344 14.9055 5.93745L14.86 3.93797Z" fill="#B0D775"/>
</g>
</g>
<defs>
<clipPath id="clip0_2005_54">
<rect width="33" height="33" fill="white"/>
</clipPath>
</defs>
</svg>
