<svg id="QT-icon" xmlns="http://www.w3.org/2000/svg" width="34" height="34" viewBox="0 0 34 34">
  <path id="Path_17292" data-name="Path 17292" d="M21.142,0a7,7,0,0,1,4.95,2.05L31.95,7.908A7,7,0,0,1,34,12.858v8.284a7,7,0,0,1-2.05,4.95L26.092,31.95A7,7,0,0,1,21.142,34H12.858a7,7,0,0,1-4.95-2.05L2.05,26.092A7,7,0,0,1,0,21.142V12.858a7,7,0,0,1,2.05-4.95L7.908,2.05A7,7,0,0,1,12.858,0Z" transform="translate(0 0)" fill="#4b4b4c"/>
  <g id="Group_1514" data-name="Group 1514" transform="translate(712 -423)">
    <g id="Group_508" data-name="Group 508" transform="translate(-709 427)">
      <g id="Group_505" data-name="Group 505" transform="translate(17.145 2.018)">
        <path id="Path_180" data-name="Path 180" d="M1.129-.023l.143.045c-.128.406-.15.607-.079.743s.248.234.654.363L1.8,1.272a1.975,1.975,0,0,0-.556-.119c-.26,0-.378.149-.55.693L.552,1.8C.788,1.055.723.931-.023.7L.023.552A1.972,1.972,0,0,0,.578.671C.838.671.957.522,1.129-.023ZM1.2,1A.521.521,0,0,1,1.06.835.521.521,0,0,1,1,.621a.49.49,0,0,1-.387.2.489.489,0,0,1,.2.385A.49.49,0,0,1,1.2,1Z" transform="matrix(0.875, 0.485, -0.485, 0.875, 0.884, 0)" fill="#7fdbe9"/>
      </g>
      <g id="Group_503" data-name="Group 503" transform="translate(7.214 0) rotate(20)">
        <path id="Path_183" data-name="Path 183" d="M14.377.208l-1.41,1.41a.71.71,0,0,0,0,1l5.511,5.511a.71.71,0,0,0,1,0l1.41-1.41a.71.71,0,0,0,0-1L15.38.208A.71.71,0,0,0,14.377.208ZM4.495,18.229a.643.643,0,0,0,0-.911l-.72-.72a.643.643,0,0,0-.911,0L1.385,18.076l-.406-.406a.58.58,0,0,0-.813,0,.58.58,0,0,0,0,.813l2.444,2.444a.575.575,0,0,0,.813-.813l-.406-.406Z" transform="translate(0 0)" fill="#7fdbe9"/>
        <path id="Path_184" data-name="Path 184" d="M8.363.207,5.229,3.341a.725.725,0,0,0,0,1.016L7.162,6.29a3.5,3.5,0,0,1,4.519.369L13.245,5.1a.725.725,0,0,0,0-1.016L9.379.213A.719.719,0,0,0,8.363.207Zm-2.013,6.9L5.2,5.964a.7.7,0,0,0-.973,0L.2,10a.7.7,0,0,0,0,.973l2.284,2.284a.7.7,0,0,0,.973,0l2.592-2.592a3.527,3.527,0,0,1,.3-3.553Z" transform="translate(3.594 4.046)" fill="#7fdbe9"/>
        <g id="Group_504" data-name="Group 504" transform="translate(9.371 11.619) rotate(-20)">
          <path id="Path_185" data-name="Path 185" d="M2.689,0A2.689,2.689,0,1,0,5.377,2.689,2.689,2.689,0,0,0,2.689,0Zm0,.761A1.927,1.927,0,1,1,.761,2.689,1.927,1.927,0,0,1,2.689.761Z" transform="translate(0 0)" fill="#7fdbe9"/>
          <path id="t" d="M.8.787A3.067,3.067,0,0,1,0,1.33H.52V3.539A1.388,1.388,0,0,0,.6,4.066a.492.492,0,0,0,.1.151.648.648,0,0,0,.135.109,1.012,1.012,0,0,0,.509.091.7.7,0,0,0,.244-.045.8.8,0,0,0,.23-.133,1.053,1.053,0,0,0,.2-.221,1.377,1.377,0,0,0,.156-.308h-.14a.473.473,0,0,1-.172.217A.411.411,0,0,1,1.623,4a.354.354,0,0,1-.131-.023.227.227,0,0,1-.1-.084.482.482,0,0,1-.068-.167A1.183,1.183,0,0,1,1.3,3.46V1.33h.768V.987H1.3V0A1.594,1.594,0,0,1,.8.787Z" transform="translate(2.32 1.79)" fill="#7fdbe9"/>
        </g>
      </g>
    </g>
    <g id="Group_524" data-name="Group 524" transform="translate(-688.633 443.957)">
      <path id="Ellipse_37" data-name="Ellipse 37" d="M.49.191A.969.969,0,0,0,.3.63,4.689,4.689,0,0,0,.184,1.723,4.689,4.689,0,0,0,.3,2.817a.969.969,0,0,0,.189.438A.969.969,0,0,0,.68,2.817,4.689,4.689,0,0,0,.8,1.723,4.689,4.689,0,0,0,.68.63.969.969,0,0,0,.49.191M.49,0c.271,0,.49.772.49,1.723S.761,3.447.49,3.447,0,2.675,0,1.723.22,0,.49,0Z" transform="translate(3.447 1.128) rotate(90)" fill="#7fdbe9"/>
      <g id="Group_524-2" data-name="Group 524" transform="translate(0.028 0)">
        <path id="Ellipse_35" data-name="Ellipse 35" d="M.49.191A.969.969,0,0,0,.3.63,4.689,4.689,0,0,0,.184,1.723,4.689,4.689,0,0,0,.3,2.817a.969.969,0,0,0,.189.438A.969.969,0,0,0,.68,2.817,4.689,4.689,0,0,0,.8,1.723,4.689,4.689,0,0,0,.68.63.969.969,0,0,0,.49.191M.49,0c.271,0,.49.772.49,1.723S.761,3.447.49,3.447,0,2.675,0,1.723.22,0,.49,0Z" transform="matrix(0.839, 0.545, -0.545, 0.839, 1.877, 0)" fill="#7fdbe9"/>
        <path id="Ellipse_38" data-name="Ellipse 38" d="M.49.191A.969.969,0,0,0,.3.63,4.689,4.689,0,0,0,.184,1.723,4.689,4.689,0,0,0,.3,2.817a.969.969,0,0,0,.189.438A.969.969,0,0,0,.68,2.817,4.689,4.689,0,0,0,.8,1.723,4.689,4.689,0,0,0,.68.63.969.969,0,0,0,.49.191M.49,0c.271,0,.49.772.49,1.723S.761,3.447.49,3.447,0,2.675,0,1.723.22,0,.49,0Z" transform="matrix(-0.839, 0.545, -0.545, -0.839, 3.4, 2.891)" fill="#7fdbe9"/>
      </g>
    </g>
    <g id="Group_525" data-name="Group 525" transform="translate(-700.606 431.516)">
      <g id="Group_1515" data-name="Group 1515" transform="translate(0 0)">
        <path id="Path_186" data-name="Path 186" d="M1.178-.5h0c.122,0,.232.121.328.36a3.52,3.52,0,0,1,.2.869c0,.024.01.093.015.149l.112.017a2.2,2.2,0,0,1,.729.246c.19.113.294.245.294.374s-.1.261-.294.374a2.2,2.2,0,0,1-.729.246l-.106.016c-.018.13-.038.278-.042.308a3.087,3.087,0,0,1-.2.756c-.092.209-.2.315-.31.315s-.217-.1-.308-.312a3.052,3.052,0,0,1-.2-.747c0-.027-.017-.131-.039-.319L.523,2.134a2.2,2.2,0,0,1-.729-.246C-.4,1.775-.5,1.642-.5,1.514s.1-.261.294-.374A2.2,2.2,0,0,1,.523.894h0L.635.878C.64.822.647.753.65.729a3.519,3.519,0,0,1,.2-.869C.946-.379,1.056-.5,1.178-.5Zm0,3.843c.017,0,.077-.053.148-.222A2.979,2.979,0,0,0,1.5,2.43c0-.031.031-.223.051-.374l.009-.07.07-.009L1.8,1.952c.616-.108.871-.339.871-.438,0-.043-.053-.126-.2-.215A2.048,2.048,0,0,0,1.8,1.076L1.625,1.05l-.074-.009L1.544.967c0-.037-.017-.182-.021-.216a3.326,3.326,0,0,0-.18-.8c-.078-.2-.146-.258-.165-.263s-.087.062-.165.263a3.326,3.326,0,0,0-.18.8C.829.784.815.929.812.966L.806,1.04l-.252.036c-.614.108-.869.338-.869.438s.255.33.869.438L.8,1.988l.008.07c.033.283.043.365.046.383a2.945,2.945,0,0,0,.176.683C1.1,3.291,1.161,3.339,1.178,3.343Z" transform="translate(0.477 0.477)" fill="#7fdbe9"/>
        <path id="Path_187" data-name="Path 187" d="M3.665,8.216A.971.971,0,0,1,3.182,8a5.519,5.519,0,0,1-.862-.78,6.416,6.416,0,0,1-.552-.687,2.366,2.366,0,0,1-.308-.571.309.309,0,0,1,.032-.327.206.206,0,0,1,.15-.056.889.889,0,0,1,.443.187l.138.092-.151.069-.005,0-.007,0-.008,0-.008,0L2,5.963l-.043-.028a.677.677,0,0,0-.312-.143h0a.292.292,0,0,0,.019.11,2.175,2.175,0,0,0,.282.516,6.209,6.209,0,0,0,.533.662,5.32,5.32,0,0,0,.827.749.772.772,0,0,0,.362.177h0a.291.291,0,0,0-.019-.11,1.054,1.054,0,0,0-.05-.125L3.562,7.7l.067-.04h0l.092-.112.062.131a1.276,1.276,0,0,1,.064.159.309.309,0,0,1-.032.327A.206.206,0,0,1,3.665,8.216Z" transform="translate(-1.187 -4.765)" fill="#7fdbe9"/>
        <path id="Path_188" data-name="Path 188" d="M4.374,8.216h0a.206.206,0,0,1-.15-.056.309.309,0,0,1-.032-.327,1.277,1.277,0,0,1,.064-.159l.062-.131.092.112h0l.067.04-.035.075a1.054,1.054,0,0,0-.05.125.291.291,0,0,0-.019.11h0a.772.772,0,0,0,.362-.177,5.32,5.32,0,0,0,.827-.749A6.209,6.209,0,0,0,6.1,6.419,2.175,2.175,0,0,0,6.38,5.9a.292.292,0,0,0,.019-.11h0a.677.677,0,0,0-.312.143l-.043.028-.046-.021-.008,0-.008,0-.007,0-.005,0-.151-.069.138-.092A.889.889,0,0,1,6.4,5.582a.206.206,0,0,1,.15.056.309.309,0,0,1,.032.327,2.366,2.366,0,0,1-.308.571,6.416,6.416,0,0,1-.552.687A5.519,5.519,0,0,1,4.857,8,.971.971,0,0,1,4.374,8.216Z" transform="translate(-3.542 -4.765)" fill="#7fdbe9"/>
      </g>
    </g>
  </g>
</svg>
