<svg xmlns="http://www.w3.org/2000/svg" xmlns:xlink="http://www.w3.org/1999/xlink" width="400" height="400" viewBox="0 0 400 400">
  <defs>
    <clipPath id="clip-path">
      <rect id="Rectangle_289" data-name="Rectangle 289" width="35.918" height="43.203" fill="none" stroke="#7fdbe9" stroke-width="2"/>
    </clipPath>
  </defs>
  <g id="Group_510" data-name="Group 510" transform="translate(-60 -374)">
    <g id="Group_432" data-name="Group 432" transform="translate(-64)">
      <g id="Group_419" data-name="Group 419">
        <path id="Polygon_14" data-name="Polygon 14" d="M252.826,0a72.46,72.46,0,0,1,51.227,21.218l74.724,74.724A72.464,72.464,0,0,1,400,147.174V252.826a72.464,72.464,0,0,1-21.225,51.242l-74.717,74.709A72.464,72.464,0,0,1,252.826,400H147.174a72.459,72.459,0,0,1-51.227-21.218L21.223,304.058A72.464,72.464,0,0,1,0,252.826V147.174A72.46,72.46,0,0,1,21.218,95.947L95.942,21.223A72.464,72.464,0,0,1,147.174,0Z" transform="translate(124 374)" fill="#4b4b4c"/>
        <g id="Ellipse_28" data-name="Ellipse 28" transform="translate(150 400)" fill="none" stroke="red" stroke-width="1" opacity="0">
          <circle cx="174" cy="174" r="174" stroke="none"/>
          <circle cx="174" cy="174" r="173.5" fill="none"/>
        </g>
      </g>
      <g id="Group_496" data-name="Group 496" transform="translate(-170.028 -285.309)" opacity="0">
        <path id="Path_123" data-name="Path 123" d="M1726.87,565.44h10.958v68.552H1726.87Z" transform="translate(-1112.067 218.466)" fill="#7b7b7b"/>
        <path id="Path_124" data-name="Path 124" d="M1694.55,674.11h10.958v61.431H1694.55Z" transform="translate(-1093.051 154.528)" fill="#7b7b7b"/>
        <path id="Path_125" data-name="Path 125" d="M1662.23,815.51h10.957v16.852H1662.23Z" transform="translate(-1074.034 71.332)" fill="#7b7b7b"/>
        <path id="Path_126" data-name="Path 126" d="M1610.894,748.048h10.958v18.828h-10.958Zm-13.3-25.488h10.958v25.488H1597.59Z" transform="translate(-1036.002 126.021)" fill="#7b7b7b"/>
        <path id="Path_127" data-name="Path 127" d="M1565.26,594.33h10.958v61.431H1565.26Z" transform="translate(-1016.979 201.469)" fill="#7b7b7b"/>
        <path id="Path_128" data-name="Path 128" d="M1475.891,668.95h10.957v61.431h-10.957Zm-13.3,50.589h10.958v34.4h-10.958Zm-13.3,13.58h10.957v48.905h-10.957Zm-13.3-26.542h10.958v43.678H1435.98Z" transform="translate(-940.914 157.564)" fill="#7b7b7b"/>
        <path id="Path_129" data-name="Path 129" d="M1384.644,720.295H1395.6v23.771h-10.958Zm-13.3-7.875H1382.3v12.143H1371.34Z" transform="translate(-902.882 131.987)" fill="#7b7b7b"/>
        <path id="Path_130" data-name="Path 130" d="M1339.02,622.11h10.958v38.1H1339.02Z" transform="translate(-883.866 185.123)" fill="#7b7b7b"/>
        <path id="Path_131" data-name="Path 131" d="M1287.684,520.26h10.958v56.71h-10.958Zm-13.3,13.843h10.958v71.326H1274.38Z" transform="translate(-845.833 245.049)" fill="#7b7b7b"/>
        <path id="Path_132" data-name="Path 132" d="M1223.044,648.71H1234v91.109h-10.957Zm-13.3,69.791H1220.7v35.363H1209.74Z" transform="translate(-807.801 169.473)" fill="#7b7b7b"/>
        <path id="Path_133" data-name="Path 133" d="M1177.42,883.96h10.957v19.318H1177.42Z" transform="translate(-788.784 31.058)" fill="#7b7b7b"/>
        <path id="Path_134" data-name="Path 134" d="M1145.1,923.1h10.958v21.334H1145.1Z" transform="translate(-769.768 8.029)" fill="#7b7b7b"/>
        <path id="Path_135" data-name="Path 135" d="M1112.78,888.88h10.957v25.183H1112.78Z" transform="translate(-750.752 28.163)" fill="#7b7b7b"/>
      </g>
      <g id="Group_499" data-name="Group 499" transform="translate(328.611 587.704)">
        <g id="Group_430" data-name="Group 430" transform="translate(0)">
          <path id="Path_72" data-name="Path 72" d="M107.915,87.274c-4.441.718-8.148,2.536-8.148,5.329s3.707,4.609,8.149,5.328c.592,5.381,2.093,9.873,4.4,9.873s3.8-4.493,4.4-9.873c4.44-.718,8.148-2.536,8.148-5.329s-3.707-4.609-8.148-5.328c-.593-5.381-2.093-9.873-4.4-9.873s-3.805,4.493-4.4,9.873m7.5-.176c.03.253.131,1.295.153,1.557.217.027,1.076.149,1.285.186,4.253.744,6.734,2.448,6.734,3.76s-2.481,3.017-6.734,3.761c-.194.034-.941.141-1.222.178-.14,1.048-.33,2.44-.364,2.673-.672,4.474-1.952,7.052-2.956,7.052s-2.268-2.546-2.943-6.969c-.041-.269-.214-1.749-.33-2.749l-1.269-.183c-4.253-.745-6.734-2.448-6.734-3.761s2.48-3.017,6.734-3.761l1.285-.185c.021-.264.122-1.3.152-1.558.614-5.153,2.021-8.16,3.1-8.16s2.49,3.007,3.1,8.16" transform="translate(-99.767 -77.401)" fill="#4b4b4c"/>
          <path id="Path_73" data-name="Path 73" d="M115.161,101.066a38.542,38.542,0,0,1-6.021-5.448c-2.991-3.258-5.338-6.672-5.977-8.7-.255-.808-.234-1.367.065-1.661.494-.487,1.694-.129,3.395,1-.032.015-.065.03-.1.048s-.069.027-.1.042c-1.546-1.015-2.653-1.364-3.069-.957-.24.238-.247.745-.019,1.468.633,2,2.962,5.384,5.935,8.622a38.478,38.478,0,0,0,5.989,5.42c1.741,1.207,2.995,1.648,3.441,1.208.242-.238.248-.745.02-1.468a7.957,7.957,0,0,0-.389-.971l0,0a.765.765,0,0,0,.136-.127,8.406,8.406,0,0,1,.421,1.046c.255.808.234,1.367-.065,1.661C118.308,102.769,117.005,102.346,115.161,101.066Z" transform="translate(-99.824 -77.537)" fill="#4b4b4c" stroke="#4b4b4c" stroke-width="1"/>
          <path id="Path_74" data-name="Path 74" d="M109.628,101.066a38.626,38.626,0,0,0,6.019-5.448c2.991-3.258,5.338-6.672,5.977-8.7.256-.808.234-1.367-.065-1.661-.494-.487-1.694-.129-3.395,1a.959.959,0,0,1,.1.048c.035.013.07.027.1.042,1.546-1.015,2.655-1.364,3.069-.957.242.238.247.745.019,1.468-.633,2-2.962,5.384-5.935,8.622a38.479,38.479,0,0,1-5.989,5.42c-1.74,1.207-2.994,1.648-3.441,1.208-.242-.238-.248-.745-.019-1.468a7.944,7.944,0,0,1,.388-.971l0,0a.8.8,0,0,1-.136-.127,8.559,8.559,0,0,0-.421,1.046c-.255.808-.234,1.367.066,1.661C106.48,102.769,107.783,102.346,109.628,101.066Z" transform="translate(-99.872 -77.537)" fill="#4b4b4c" stroke="#4b4b4c" stroke-width="1"/>
        </g>
      </g>
    </g>
    <g id="Group_501" data-name="Group 501" transform="translate(822)">
      <g id="Group_508" data-name="Group 508" transform="translate(-822.293 22.25)">
        <g id="Group_505" data-name="Group 505" transform="translate(-122 0.258)">
          <path id="Path_180" data-name="Path 180" d="M0,6.766C8.481,9.446,10.342,8.483,13.022,0c-2.68,8.485-1.715,10.342,6.77,13.022C11.308,10.342,9.446,11.3,6.77,19.788,9.446,11.3,8.481,9.446,0,6.766Z" transform="matrix(0.875, 0.485, -0.485, 0.875, 430.932, 426.385)" fill="none" stroke="#7fdbe9" stroke-width="1"/>
        </g>
        <g id="Group_503" data-name="Group 503" transform="translate(8844 3575.26) rotate(20)">
          <path id="Path_183" data-name="Path 183" d="M160.4,3.78l-15.3,15.3a7.7,7.7,0,0,0,0,10.89l59.8,59.8a7.7,7.7,0,0,0,10.89,0l15.3-15.3a7.7,7.7,0,0,0,0-10.89l-59.8-59.8A7.7,7.7,0,0,0,160.4,3.78ZM53.171,199.333a6.976,6.976,0,0,0,0-9.888l-7.817-7.817a6.976,6.976,0,0,0-9.888,0L19.432,197.663l-4.409-4.409A6.236,6.236,0,0,0,6.2,202.073L32.728,228.6a6.236,6.236,0,1,0,8.819-8.819l-4.409-4.409,16.034-16.034Z" transform="translate(-9219.4 -21.525)" fill="#7fdbe9"/>
          <path id="Path_184" data-name="Path 184" d="M153.52,69.484,119.514,103.49a7.864,7.864,0,0,0,0,11.024l20.978,20.978a38.011,38.011,0,0,1,49.039,4.009l16.97-16.97a7.864,7.864,0,0,0,0-11.024L164.544,69.551a7.8,7.8,0,0,0-11.024-.067Zm-21.847,74.894-12.427-12.427a7.542,7.542,0,0,0-10.556,0L64.93,175.712a7.542,7.542,0,0,0,0,10.556l24.787,24.787a7.542,7.542,0,0,0,10.556,0L128.4,182.928a38.267,38.267,0,0,1,3.274-38.549Z" transform="translate(-9238.774 -43.335)" fill="#7fdbe9"/>
          <g id="Group_504" data-name="Group 504" transform="translate(-9533.452 -334.819) rotate(-20)">
            <path id="Path_185" data-name="Path 185" d="M99.175,0A29.175,29.175,0,1,0,128.35,29.175,29.175,29.175,0,0,0,99.175,0Zm0,8.26A20.915,20.915,0,1,1,78.26,29.175,20.913,20.913,0,0,1,99.175,8.26Z" transform="translate(174 558)" fill="#7fdbe9"/>
            <path id="t" d="M119.25,355a33.279,33.279,0,0,1-8.693,5.895H116.2v23.966a15.062,15.062,0,0,0,.817,5.719,5.338,5.338,0,0,0,1.051,1.634,7.036,7.036,0,0,0,1.46,1.187,10.983,10.983,0,0,0,5.523.992,7.637,7.637,0,0,0,2.647-.486,8.635,8.635,0,0,0,2.491-1.44,11.427,11.427,0,0,0,2.16-2.393,14.942,14.942,0,0,0,1.693-3.346h-1.518a5.131,5.131,0,0,1-1.868,2.354,4.46,4.46,0,0,1-2.491.8,3.838,3.838,0,0,1-1.421-.253,2.467,2.467,0,0,1-1.109-.914,5.231,5.231,0,0,1-.74-1.809,12.832,12.832,0,0,1-.272-2.9V360.89h8.33v-3.723h-8.33v-10.71A17.3,17.3,0,0,1,119.25,355Z" transform="translate(158.618 230.963)" fill="#7fdbe9"/>
          </g>
        </g>
      </g>
      <g id="Group_524" data-name="Group 524" transform="translate(-1278.686 -584.45) rotate(19)">
        <g id="Ellipse_37" data-name="Ellipse 37" transform="translate(1167.693 876.942) rotate(90)" fill="none" stroke="#7fdbe9" stroke-width="2">
          <ellipse cx="4.075" cy="14.32" rx="4.075" ry="14.32" stroke="none"/>
          <ellipse cx="4.075" cy="14.32" rx="3.075" ry="13.32" fill="none"/>
        </g>
        <g id="Group_524-2" data-name="Group 524" transform="translate(1141.207 866.967)">
          <g id="Ellipse_35" data-name="Ellipse 35" transform="matrix(0.819, 0.574, -0.574, 0.819, 16.427, 0)" fill="none" stroke="#7fdbe9" stroke-width="2">
            <ellipse cx="4.075" cy="14.32" rx="4.075" ry="14.32" stroke="none"/>
            <ellipse cx="4.075" cy="14.32" rx="3.075" ry="13.32" fill="none"/>
          </g>
          <g id="Ellipse_42" data-name="Ellipse 42" transform="matrix(0.819, -0.574, 0.574, 0.819, 0, 4.674)" fill="none" stroke="#7fdbe9" stroke-width="2">
            <ellipse cx="4.075" cy="14.32" rx="4.075" ry="14.32" stroke="none"/>
            <ellipse cx="4.075" cy="14.32" rx="3.075" ry="13.32" fill="none"/>
          </g>
        </g>
      </g>
      <g id="Group_525" data-name="Group 525" transform="translate(-617.918 476)">
        <g id="Group_525-2" data-name="Group 525" transform="translate(0 0)" clip-path="url(#clip-path)">
          <path id="Path_186" data-name="Path 186" d="M22.446,12.954c.046.387.2,1.976.234,2.376.331.04,1.642.228,1.961.283,6.491,1.135,10.278,3.736,10.278,5.739s-3.787,4.6-10.278,5.74c-.3.052-1.436.216-1.865.271-.214,1.6-.5,3.724-.556,4.079-1.025,6.829-2.979,10.763-4.511,10.763s-3.462-3.886-4.491-10.637c-.063-.411-.327-2.67-.5-4.2l-1.937-.279C4.285,25.957.5,23.358.5,21.353s3.785-4.6,10.277-5.74l1.961-.282c.031-.4.186-1.991.232-2.378C13.907,5.089,16.054.5,17.707.5S21.508,5.089,22.446,12.954Z" transform="translate(0.25 0.249)" fill="none" stroke="#7fdbe9" stroke-width="2"/>
          <path id="Path_187" data-name="Path 187" d="M21.008,31.027a58.889,58.889,0,0,1-9.188-8.314C7.254,17.74,3.673,12.531,2.7,9.441c-.39-1.234-.357-2.087.1-2.535.754-.744,2.586-.2,5.181,1.534-.049.022-.1.046-.145.073s-.106.04-.159.064C5.313,7.029,3.622,6.5,2.989,7.117c-.367.363-.376,1.136-.028,2.24.965,3.051,4.52,8.217,9.058,13.16a58.726,58.726,0,0,0,9.14,8.272c2.657,1.842,4.571,2.516,5.252,1.844.369-.363.378-1.136.03-2.24a12.4,12.4,0,0,0-.594-1.483l.007,0a1.168,1.168,0,0,0,.207-.193,12.832,12.832,0,0,1,.643,1.6c.39,1.234.357,2.087-.1,2.535C25.811,33.627,23.823,32.981,21.008,31.027Z" transform="translate(1.212 3.285)" fill="none" stroke="#7fdbe9" stroke-width="2"/>
          <path id="Path_188" data-name="Path 188" d="M11.126,31.027a58.889,58.889,0,0,0,9.188-8.314c4.565-4.973,8.146-10.182,9.122-13.272.39-1.234.357-2.087-.1-2.535-.754-.744-2.586-.2-5.181,1.534.049.022.1.046.145.073s.106.04.159.064c2.36-1.549,4.051-2.082,4.683-1.46.367.363.376,1.136.028,2.24-.965,3.051-4.52,8.217-9.058,13.16a58.726,58.726,0,0,1-9.14,8.272C8.318,32.632,6.4,33.3,5.723,32.633c-.369-.363-.378-1.136-.03-2.24a12.4,12.4,0,0,1,.594-1.483l-.007,0a1.168,1.168,0,0,1-.207-.193,12.832,12.832,0,0,0-.643,1.6c-.39,1.234-.357,2.087.1,2.535C6.322,33.627,8.31,32.981,11.126,31.027Z" transform="translate(2.575 3.285)" fill="none" stroke="#7fdbe9" stroke-width="2"/>
        </g>
      </g>
    </g>
  </g>
</svg>
