<svg width="33" height="33" viewBox="0 0 33 33" fill="none" xmlns="http://www.w3.org/2000/svg">
<g clip-path="url(#clip0_2005_67)">
<path d="M20.4839 0.938721C21.8884 0.938827 23.2353 1.49672 24.2286 2.48973L30.2065 8.46764C31.1997 9.46092 31.7577 10.808 31.7578 12.2126V20.6647C31.7578 21.3603 31.6208 22.0492 31.3546 22.6919C31.0884 23.3346 30.6982 23.9186 30.2063 24.4105L24.2289 30.3874C23.2356 31.3806 21.8885 31.9386 20.4839 31.9387H12.0317C10.6272 31.9386 9.28032 31.3807 8.2871 30.3877L2.30916 24.4098C1.31599 23.4165 0.757959 22.0694 0.757812 20.6648V12.2126C0.757919 10.8081 1.31582 9.46118 2.30882 8.46797L8.28673 2.49007C9.28 1.4969 10.6271 0.938866 12.0317 0.938721H20.4839Z" stroke="#80CED0"/>
<path d="M19.2744 11.6956L15.7735 13.3283C15.624 13.3996 15.5085 13.5267 15.4519 13.6824C15.3952 13.838 15.402 14.0097 15.4707 14.1604L16.4778 16.3203C17.1749 16.1249 17.9186 16.1835 18.5764 16.4857C19.2342 16.7879 19.7633 17.3139 20.0692 17.97L21.8164 17.1553C21.9659 17.084 22.0814 16.9568 22.1381 16.8012C22.1947 16.6455 22.188 16.4739 22.1193 16.3232L20.105 12.0036C20.0357 11.8527 19.9092 11.7355 19.7535 11.6778C19.5977 11.62 19.4254 11.6264 19.2744 11.6956ZM15.568 16.7487L14.9715 15.4693C14.9031 15.3263 14.7813 15.2159 14.6323 15.1617C14.4833 15.1074 14.319 15.1138 14.1747 15.1793L9.6694 17.2803C9.52641 17.3488 9.41595 17.4705 9.36173 17.6195C9.30751 17.7685 9.31384 17.9328 9.37936 18.0771L10.5694 20.6292C10.6378 20.7722 10.7596 20.8826 10.9086 20.9368C11.0576 20.9911 11.2219 20.9847 11.3662 20.9192L14.2618 19.5686C14.2094 19.0249 14.3027 18.477 14.5323 17.9814C14.7619 17.4858 15.1194 17.0603 15.568 16.7487Z" fill="#80CED0"/>
<path d="M22.3984 9.12065L20.8344 9.8498C20.6868 9.91865 20.5725 10.0433 20.5168 10.1964C20.4611 10.3495 20.4685 10.5184 20.5373 10.666L23.3876 16.7786C23.4565 16.9262 23.5812 17.0405 23.7342 17.0962C23.8873 17.1519 24.0562 17.1445 24.2039 17.0757L25.7679 16.3464C25.9155 16.2775 26.0298 16.1529 26.0855 15.9998C26.1412 15.8467 26.1338 15.6778 26.065 15.5301L23.2146 9.41774C23.1458 9.2701 23.0211 9.15586 22.868 9.10015C22.7149 9.04444 22.546 9.05181 22.3984 9.12065ZM9.02742 20.8516C9.09389 20.8208 9.15363 20.7771 9.20319 20.7231C9.25275 20.6692 9.29116 20.606 9.31622 20.5371C9.34129 20.4682 9.3525 20.3951 9.34923 20.3219C9.34595 20.2487 9.32825 20.1769 9.29714 20.1105L8.92451 19.3114C8.89369 19.245 8.85004 19.1852 8.79607 19.1357C8.7421 19.0861 8.67887 19.0477 8.61001 19.0226C8.54116 18.9976 8.46803 18.9863 8.39483 18.9896C8.32163 18.9929 8.24979 19.0106 8.18345 19.0417L6.54445 19.806L6.33428 19.3553C6.27766 19.2365 6.17666 19.1448 6.05305 19.0998C5.92944 19.0548 5.79311 19.0602 5.67341 19.1147C5.55468 19.1714 5.46294 19.2724 5.41795 19.396C5.37296 19.5196 5.37832 19.6559 5.43287 19.7756L6.69728 22.4871C6.75652 22.6009 6.85737 22.6874 6.97881 22.7286C7.10025 22.7698 7.23291 22.7626 7.34915 22.7084C7.46537 22.6542 7.5562 22.5572 7.60269 22.4377C7.64918 22.3182 7.64775 22.1853 7.59869 22.0668L7.38853 21.6161L9.02742 20.8516Z" fill="#80CED0"/>
<path d="M20.9932 6.89744L21.1157 7.02636L21.1146 7.02838C20.8517 7.27777 20.7527 7.4175 20.7493 7.54394C20.7459 7.67037 20.8374 7.81644 21.0883 8.07995L20.9594 8.20248L20.9577 8.20153C20.851 8.07728 20.7269 7.96912 20.5893 7.88041C20.4026 7.77694 20.2557 7.84012 19.9045 8.17333L19.782 8.04441L19.7829 8.04269C20.046 7.79299 20.1447 7.65349 20.1484 7.52667C20.1522 7.39986 20.0612 7.25563 19.8109 6.99144L19.9398 6.8689L19.9421 6.8702C20.0482 6.99367 20.1715 7.10121 20.3083 7.18947C20.4944 7.29363 20.6417 7.23071 20.9932 6.89744ZM20.5916 7.6861C20.5609 7.59034 20.5637 7.48697 20.5995 7.393C20.5038 7.42389 20.4004 7.42109 20.3064 7.38508C20.3371 7.48085 20.3344 7.58421 20.2985 7.67818C20.3943 7.64726 20.4977 7.65006 20.5916 7.6861Z" fill="#80CED0"/>
<path d="M24.2701 20.8098C24.2112 20.9808 23.676 20.9514 23.0759 20.7448C22.4759 20.5382 22.0361 20.2318 22.0949 20.0609C22.1538 19.8899 22.6883 19.919 23.2891 20.1259C23.8898 20.3328 24.3289 20.6389 24.2701 20.8098Z" fill="#80CED0"/>
<path d="M24.0659 19.7446C24.1721 19.891 23.8409 20.3124 23.3272 20.6853C22.8135 21.0582 22.3102 21.2425 22.204 21.0961C22.0977 20.9498 22.4284 20.5288 22.9426 20.1555C23.4569 19.7822 23.9597 19.5983 24.0659 19.7446Z" fill="#80CED0"/>
<path d="M22.8182 19.3148C22.992 19.2649 23.2751 19.72 23.4503 20.3301C23.6256 20.9402 23.6271 21.4762 23.4533 21.5261C23.2795 21.576 22.9966 21.1216 22.8211 20.5108C22.6457 19.9001 22.6444 19.3647 22.8182 19.3148Z" fill="#80CED0"/>
<path d="M13.2275 8.48889C13.6056 8.48889 13.7431 9.29813 13.7845 9.64587C13.7857 9.65671 13.788 9.67733 13.7903 9.70151L13.8147 9.70542C14.4058 9.80871 14.7877 10.0585 14.7877 10.3415C14.7877 10.6245 14.4058 10.8748 13.8149 10.9778L13.7927 10.9813C13.7804 11.0723 13.7687 11.1575 13.7656 11.1779C13.7086 11.5579 13.563 12.1943 13.2275 12.1943C13.0871 12.1943 12.9667 12.0834 12.8698 11.8647C12.7818 11.648 12.7217 11.421 12.691 11.1891C12.6887 11.1742 12.6835 11.1358 12.6655 10.9817L12.6401 10.9778C12.0492 10.8745 11.6675 10.6247 11.6675 10.3417C11.6675 10.0587 12.0492 9.80836 12.6401 9.70542H12.6455L12.6645 9.70276C12.667 9.6784 12.6691 9.6576 12.6705 9.64658C12.7119 9.29813 12.8492 8.48889 13.2275 8.48889ZM14.4286 10.3417C14.393 10.2825 14.1951 10.133 13.753 10.0558C13.7313 10.0521 13.6286 10.038 13.6046 10.0345L13.4615 10.0167L13.449 9.87307C13.4463 9.84196 13.4343 9.71591 13.4312 9.68818C13.4122 9.41408 13.3431 9.14578 13.2275 8.89653C13.1117 9.14569 13.0426 9.41393 13.0234 9.688C13.0202 9.71538 13.0079 9.84053 13.0056 9.87182L12.9946 10.014L12.6986 10.0562C12.2591 10.1337 12.0627 10.2827 12.0266 10.3417C12.0622 10.4007 12.2591 10.5499 12.6988 10.6272L12.9871 10.6688L13.003 10.8048C13.0328 11.0629 13.0407 11.1227 13.0426 11.1355C13.0682 11.3617 13.1307 11.5822 13.2277 11.7883C13.3258 11.5792 13.3889 11.3554 13.4142 11.1259C13.4181 11.0997 13.4408 10.9324 13.4584 10.8011L13.4762 10.6659L13.6115 10.6482C13.6462 10.6437 13.7336 10.6304 13.7537 10.6277C14.1951 10.5511 14.3925 10.4009 14.4286 10.3417Z" fill="#80CED0"/>
<path d="M13.9449 11.7125C13.7698 11.6919 13.6043 11.6212 13.4685 11.5088C13.1889 11.3053 12.9316 11.0729 12.7008 10.8154C12.3757 10.4889 12.1144 10.1046 11.9302 9.68229C11.9009 9.61999 11.8904 9.55055 11.8999 9.48238C11.9093 9.41422 11.9384 9.35027 11.9835 9.29829C12.0099 9.27284 12.0411 9.25292 12.0753 9.2397C12.1095 9.22648 12.146 9.22023 12.1826 9.22131C12.3428 9.2386 12.4949 9.30064 12.6215 9.40034L12.8882 9.57811L12.5981 9.71003L12.5872 9.71642L12.5723 9.72176L12.4834 9.76229L12.4013 9.70896C12.3737 9.69118 12.3492 9.67589 12.3273 9.66327C12.5018 9.99062 12.7212 10.292 12.979 10.5587C13.1907 10.7958 13.4268 11.0101 13.6832 11.1978C13.7284 11.2291 13.7668 11.2533 13.7991 11.2718L13.7975 11.2682L13.7296 11.123L13.8491 11.0519L14.0167 10.8489L14.1364 11.1013C14.1599 11.1502 14.1801 11.2005 14.1968 11.2521C14.226 11.3144 14.2366 11.3838 14.2271 11.452C14.2176 11.5201 14.1886 11.5841 14.1435 11.6361C14.1171 11.6613 14.086 11.6811 14.0519 11.6942C14.0178 11.7074 13.9814 11.7136 13.9449 11.7125Z" fill="#80CED0"/>
<path d="M12.5103 11.7125C12.4736 11.7137 12.4371 11.7075 12.4029 11.6942C12.3686 11.6809 12.3374 11.6609 12.3111 11.6354C12.266 11.5833 12.237 11.5193 12.2277 11.4511C12.2183 11.3829 12.2289 11.3135 12.2583 11.2512C12.275 11.1996 12.2953 11.1491 12.3189 11.1003L12.4385 10.8478L12.6062 11.0508L12.7249 11.1219L12.6575 11.2675L12.6559 11.2711C12.6883 11.2533 12.7271 11.2283 12.7719 11.197C13.0284 11.0094 13.2645 10.7953 13.4764 10.5584C13.7342 10.2913 13.9535 9.98958 14.1279 9.66186C14.1061 9.67448 14.0815 9.68942 14.054 9.70755L13.9719 9.76089L13.883 9.72035L13.8682 9.71502L13.8572 9.70862L13.5674 9.57689L13.8332 9.39911C13.9602 9.29917 14.1128 9.23711 14.2735 9.22009C14.3102 9.21901 14.3468 9.22528 14.381 9.23853C14.4152 9.25178 14.4464 9.27174 14.4728 9.29724C14.5179 9.34921 14.5469 9.41312 14.5564 9.48125C14.5658 9.54937 14.5553 9.61878 14.5262 9.68106C14.3417 10.1033 14.0801 10.4875 13.7548 10.8139C13.524 11.0714 13.2667 11.3038 12.9871 11.5072C12.8514 11.6202 12.6858 11.6915 12.5103 11.7125Z" fill="#80CED0"/>
<path d="M17.2877 16.9231C16.8242 16.9232 16.3711 17.0606 15.9858 17.3182C15.6004 17.5757 15.3001 17.9417 15.1227 18.3699C14.9454 18.7981 14.899 19.2693 14.9894 19.7239C15.0799 20.1785 15.3031 20.596 15.6308 20.9238C15.9586 21.2515 16.3761 21.4746 16.8307 21.5651C17.2853 21.6555 17.7565 21.609 18.1847 21.4317C18.6129 21.2543 18.9789 20.9539 19.2364 20.5685C19.4939 20.1832 19.6313 19.7301 19.6313 19.2666C19.6313 18.9588 19.5707 18.6541 19.4529 18.3698C19.3351 18.0854 19.1625 17.8271 18.9449 17.6095C18.7272 17.3918 18.4689 17.2192 18.1845 17.1015C17.9002 16.9837 17.5954 16.9231 17.2877 16.9231ZM17.2877 17.5866C17.6199 17.5866 17.9448 17.6851 18.221 17.8697C18.4973 18.0543 18.7126 18.3167 18.8398 18.6237C18.9669 18.9307 19.0002 19.2685 18.9354 19.5944C18.8706 19.9202 18.7106 20.2196 18.4756 20.4545C18.2407 20.6895 17.9413 20.8495 17.6154 20.9143C17.2895 20.9791 16.9517 20.9459 16.6448 20.8187C16.3378 20.6916 16.0754 20.4762 15.8908 20.2C15.7062 19.9237 15.6077 19.5989 15.6077 19.2666C15.6077 19.046 15.6511 18.8275 15.7355 18.6237C15.8199 18.4198 15.9437 18.2346 16.0997 18.0786C16.2557 17.9226 16.4409 17.7989 16.6447 17.7144C16.8486 17.63 17.067 17.5866 17.2877 17.5866Z" fill="#80CED0"/>
<path d="M17.6646 19.1688C17.4584 19.3627 17.2227 19.5225 16.9663 19.6424H17.4197V21.5674C17.4117 21.7233 17.434 21.8793 17.4853 22.0268C17.5051 22.0753 17.5338 22.1198 17.5697 22.158C17.6044 22.1949 17.6438 22.2269 17.687 22.2533C17.8258 22.3179 17.9789 22.3454 18.1315 22.3329C18.2044 22.3327 18.2766 22.3194 18.3448 22.2938C18.4175 22.2668 18.4852 22.2277 18.545 22.1783C18.6116 22.1227 18.67 22.058 18.7185 21.9861C18.7749 21.9025 18.8206 21.8122 18.8545 21.7173H18.731C18.7009 21.7939 18.6487 21.8598 18.5809 21.9064C18.5221 21.9473 18.4524 21.9696 18.3807 21.9704C18.3417 21.971 18.303 21.9641 18.2666 21.9502C18.2303 21.935 18.1994 21.9095 18.1777 21.8767C18.149 21.8325 18.1288 21.7832 18.1183 21.7315C18.1022 21.655 18.0949 21.5768 18.0965 21.4986V19.6424H18.7654V19.3432H18.0963V18.483C18.0238 18.7494 17.8735 18.9882 17.6646 19.1688Z" fill="#80CED0"/>
</g>
<defs>
<clipPath id="clip0_2005_67">
<rect width="33" height="33" fill="white"/>
</clipPath>
</defs>
</svg>
