<svg width="33" height="33" viewBox="0 0 33 33" fill="none" xmlns="http://www.w3.org/2000/svg">
<g clip-path="url(#clip0_2005_42)">
<path d="M24.4708 2.55101C23.4776 1.55801 22.1306 1.00011 20.7262 1M24.4708 2.55101L20.7262 1M24.4708 2.55101L30.4487 8.52892C31.4419 9.5222 31.9999 10.8693 32 12.2739V20.7259C32.0001 21.4216 31.863 22.1105 31.5968 22.7532C31.3306 23.3959 30.9404 23.9798 30.4485 24.4717L24.4711 30.4486C23.4778 31.4418 22.1308 31.9999 20.7261 32H12.2739C10.8695 31.9999 9.52251 31.442 8.52929 30.449L2.55135 24.4711M20.7262 1H12.2739M2.55135 24.4711C1.55818 23.4778 1.00015 22.1307 1 20.7261M2.55135 24.4711L1 20.7261M1 20.7261V12.2739M1 12.2739C1.00011 10.8695 1.55799 9.5225 2.55098 8.52929M1 12.2739L2.55098 8.52929M2.55098 8.52929L8.52892 2.55135M8.52892 2.55135C9.52218 1.55818 10.8693 1.00014 12.2739 1M8.52892 2.55135L12.2739 1" stroke="#B79EC7"/>
<path d="M4.55298 9.54602C4.59814 9.57909 4.75387 9.69269 4.89769 9.79918C6.50827 11.0005 8.3146 11.914 10.2367 12.4993C11.1912 12.7776 12.1697 12.9654 13.1594 13.0603L13.6417 13.1007L13.7044 13.3428C13.8285 13.8155 14.1146 14.2296 14.513 14.5128C14.7853 14.6888 15.3574 14.8506 15.3574 14.7478C15.3363 14.4432 15.2952 14.1403 15.2342 13.8411C15.1403 13.4776 14.9995 13.1278 14.8152 12.8006C14.7524 12.698 14.7073 12.613 14.7197 12.613C14.7731 12.613 15.1388 13.0609 15.2975 13.3174C15.6527 13.8909 15.8586 14.5442 15.8964 15.2177C15.8964 15.3496 15.8874 15.3572 15.7224 15.4488C15.6009 15.5131 15.471 15.5601 15.3364 15.5883C15.1327 15.6324 14.9859 15.6138 14.5937 15.4891C14.5428 15.4742 14.516 15.5151 14.4355 15.7242C14.3508 15.9759 14.2045 16.2024 14.0099 16.3831C13.8153 16.5637 13.5785 16.6928 13.3212 16.7585C13.2463 16.7734 13.1773 16.7878 13.1624 16.7915C13.1505 16.7915 13.1412 16.7844 13.1412 16.7656C13.1412 16.7512 13.1926 16.7071 13.2525 16.6667C13.5091 16.4546 13.7096 16.1825 13.8362 15.8746C13.9412 15.6104 14.0342 15.2324 14.0012 15.1956C13.9921 15.1851 13.9354 15.269 13.8751 15.3793C13.7745 15.5468 13.6592 15.7052 13.5308 15.8525C13.353 16.0733 13.1301 16.2536 12.8771 16.3814C12.624 16.5092 12.3466 16.5814 12.0634 16.5933L11.7492 16.6154L12.0097 16.5055C12.5594 16.2858 13.0236 15.8946 13.3332 15.3901C13.4708 15.174 13.5852 14.944 13.6746 14.7039C13.6684 14.7039 13.537 14.8578 13.3782 15.0486C12.4556 16.164 11.2104 16.5451 10.0035 16.0797C9.91976 16.0497 9.83764 16.0155 9.75743 15.9771C9.75743 15.9732 10.0241 15.97 10.3507 15.97C10.6083 15.9781 10.8662 15.962 11.1208 15.922C11.7123 15.7602 12.2618 15.4723 12.7315 15.0781C12.9872 14.8469 13.2199 14.5914 13.4262 14.3153C13.5011 14.1978 13.4828 14.2054 13.2618 14.4107C12.6052 15.0352 11.7588 15.4225 10.857 15.5112C9.73698 15.6324 8.68294 15.2326 7.83263 14.3666C7.64365 14.1757 7.64365 14.1615 7.84454 14.2491C7.91565 14.2788 8.16151 14.3633 8.38925 14.4294C9.67117 14.8299 11.0511 14.7832 12.303 14.2971C12.6215 14.1695 12.9291 14.0162 13.2227 13.8386C13.0801 13.864 12.9398 13.9008 12.8031 13.9485C11.7075 14.2863 10.2664 14.4294 9.47618 14.2788C7.94282 13.972 6.56124 13.1481 5.5624 11.945C5.23298 11.5562 5.22463 11.5197 5.49129 11.7176C6.03308 12.086 6.59712 12.4205 7.18018 12.7194C8.6024 13.4017 9.78534 13.6875 11.1956 13.6875C11.7749 13.695 12.3536 13.6474 12.9238 13.5453C13.0973 13.4863 12.9119 13.4564 12.382 13.4564C11.5523 13.4551 10.7261 13.3491 9.92294 13.1409C8.16905 12.6564 6.5747 11.7162 5.30196 10.4159C5.02165 10.1449 4.76495 9.8505 4.53467 9.53589C4.54128 9.5379 4.54788 9.54136 4.55298 9.54602Z" fill="#B79EC7"/>
<path d="M27.6116 9.54602C27.5664 9.57909 27.4107 9.69269 27.2669 9.79918C25.6563 11.0005 23.85 11.914 21.9278 12.4993C20.9734 12.7776 19.9948 12.9654 19.0052 13.0603L18.5229 13.1007L18.4601 13.3428C18.3361 13.8155 18.0499 14.2296 17.6516 14.5128C17.3792 14.6888 16.8071 14.8506 16.8071 14.7478C16.8282 14.4432 16.8694 14.1403 16.9303 13.8411C17.0242 13.4776 17.1651 13.1278 17.3493 12.8006C17.4121 12.698 17.4573 12.613 17.4448 12.613C17.3915 12.613 17.0258 13.0609 16.867 13.3174C16.5118 13.8909 16.3059 14.5442 16.2681 15.2177C16.2681 15.3496 16.2772 15.3572 16.4421 15.4488C16.5636 15.5131 16.6935 15.5601 16.8281 15.5883C17.0318 15.6324 17.1787 15.6138 17.5709 15.4891C17.6217 15.4742 17.6485 15.5151 17.7291 15.7242C17.8137 15.9759 17.96 16.2024 18.1547 16.3831C18.3493 16.5637 18.5861 16.6928 18.8434 16.7585C18.9182 16.7734 18.9872 16.7878 19.0021 16.7915C19.0141 16.7915 19.0233 16.7844 19.0233 16.7656C19.0233 16.7512 18.9719 16.7071 18.912 16.6667C18.6554 16.4546 18.455 16.1825 18.3284 15.8746C18.2233 15.6104 18.1303 15.2324 18.1634 15.1956C18.1725 15.1851 18.2292 15.269 18.2894 15.3793C18.3901 15.5468 18.5053 15.7052 18.6338 15.8525C18.8116 16.0733 19.0344 16.2536 19.2875 16.3814C19.5405 16.5092 19.8179 16.5814 20.1012 16.5933L20.4153 16.6154L20.1549 16.5055C19.6052 16.2858 19.141 15.8946 18.8313 15.3901C18.6937 15.174 18.5793 14.944 18.49 14.7039C18.4962 14.7039 18.6276 14.8578 18.7863 15.0486C19.709 16.164 20.9541 16.5451 22.1611 16.0797C22.2448 16.0497 22.3269 16.0155 22.4071 15.9771C22.4071 15.9732 22.1405 15.97 21.8139 15.97C21.5562 15.9781 21.2984 15.962 21.0437 15.922C20.4523 15.7602 19.9028 15.4723 19.4331 15.0781C19.1774 14.8469 18.9447 14.5914 18.7383 14.3153C18.6635 14.1978 18.6818 14.2054 18.9028 14.4107C19.5594 15.0352 20.4058 15.4225 21.3076 15.5112C22.4276 15.6324 23.4816 15.2326 24.3319 14.3666C24.5209 14.1757 24.5209 14.1615 24.32 14.2491C24.2489 14.2788 24.003 14.3633 23.7753 14.4294C22.4934 14.8299 21.1135 14.7832 19.8615 14.2971C19.543 14.1695 19.2355 14.0162 18.9419 13.8386C19.0844 13.864 19.2247 13.9008 19.3614 13.9485C20.4571 14.2863 21.8981 14.4294 22.6884 14.2788C24.2217 13.972 25.6033 13.1481 26.6021 11.945C26.9316 11.5562 26.9399 11.5197 26.6733 11.7176C26.1315 12.086 25.5674 12.4205 24.9844 12.7194C23.5621 13.4017 22.3792 13.6875 20.9689 13.6875C20.3896 13.695 19.811 13.6474 19.2407 13.5453C19.0672 13.4863 19.2526 13.4564 19.7826 13.4564C20.6123 13.4551 21.4385 13.3491 22.2416 13.1409C23.9955 12.6564 25.5899 11.7162 26.8626 10.4159C27.1429 10.1449 27.3996 9.8505 27.6299 9.53589C27.6233 9.5379 27.6167 9.54136 27.6116 9.54602Z" fill="#B79EC7"/>
<path d="M15.9114 10.5374C15.7916 10.6985 15.6269 10.9258 15.546 11.051L15.4028 11.2711L15.5016 11.3703L15.6033 11.4729L15.774 11.2672C15.8694 11.1536 15.9533 11.0691 15.9624 11.0801C16.0013 11.2925 16.0284 11.5069 16.0435 11.7223C16.1059 12.3825 16.1324 12.5255 16.1501 12.3198C16.1564 12.2508 16.1866 11.9465 16.2163 11.6442C16.2313 11.4548 16.2563 11.2663 16.2911 11.0794C16.2998 11.0684 16.3841 11.1529 16.4801 11.2665L16.6536 11.4755L16.7524 11.3729L16.8513 11.2741L16.6557 10.9806C16.5478 10.819 16.3834 10.5879 16.2932 10.467L16.1288 10.2469L15.9114 10.5374Z" fill="#B79EC7"/>
<path d="M14.5627 10.8587C15.0723 11.107 15.4914 11.5086 15.7611 12.0072C15.9182 12.3029 16.0341 12.6188 16.1056 12.946C16.1176 13.0194 16.1353 13.0816 16.1474 13.0816C16.1795 13.0224 16.1998 12.9576 16.2073 12.8907C16.2864 12.4839 16.4519 12.0988 16.6926 11.7614C16.9334 11.424 17.2437 11.1423 17.6027 10.9352C17.8544 10.8032 17.8363 10.7775 17.5759 10.8948C17.1379 11.111 16.7633 11.4369 16.4888 11.8409C16.3545 12.0528 16.2507 12.2825 16.1805 12.5232C16.1805 12.6258 16.1325 12.5526 16.0669 12.3583C15.8895 11.8847 15.5813 11.4713 15.178 11.1663C14.9828 11.0279 14.7718 10.9135 14.5494 10.8253C14.5313 10.8204 14.5129 10.8169 14.4943 10.8148C14.4804 10.8148 14.5019 10.8272 14.5638 10.858" fill="#B79EC7"/>
<path d="M15.4253 11.6199L15.5269 11.7408L15.4203 11.9868L15.3124 12.2323L15.4802 12.4812C15.6761 12.7702 15.8219 13.0902 15.9113 13.4277C16.0039 13.7614 16.0002 13.7763 15.8935 13.5376C15.8419 13.4226 15.7807 13.3122 15.7104 13.2076C15.5226 12.9657 15.3011 12.7521 15.0526 12.5731L14.8459 12.4186L14.9221 12.251C14.9911 12.1077 15.2777 11.5648 15.3143 11.5173L15.3172 11.5153C15.3598 11.5425 15.3967 11.5781 15.4253 11.6199Z" fill="#B79EC7"/>
<path d="M16.8641 11.6199L16.7624 11.7408L16.8691 11.9868L16.977 12.2323L16.8092 12.4812C16.6132 12.7702 16.4675 13.0902 16.378 13.4277C16.2854 13.7614 16.2892 13.7763 16.3958 13.5376C16.4474 13.4226 16.5087 13.3122 16.5789 13.2076C16.7667 12.9657 16.9882 12.7521 17.2367 12.5731L17.4435 12.4186L17.3672 12.251C17.2982 12.1077 17.0116 11.5648 16.975 11.5173L16.9722 11.5153C16.9295 11.5425 16.8926 11.5781 16.8641 11.6199Z" fill="#B79EC7"/>
<path d="M15.2525 23.4306C15.5069 22.8796 15.7093 22.306 15.857 21.7173C15.8748 21.6285 15.9021 21.5707 15.914 21.5893C15.9813 21.7589 16.0325 21.9343 16.0669 22.1134C15.8907 22.5134 15.6827 22.8986 15.4447 23.2653C15.3862 23.3724 15.3088 23.4682 15.2164 23.5481C15.2035 23.5481 15.2141 23.5108 15.2525 23.4306ZM16.8991 23.3941C16.8243 23.2875 16.6858 23.067 16.5932 22.906C16.5005 22.7449 16.3933 22.5717 16.3635 22.5209C16.3177 22.4394 16.2776 22.3548 16.2436 22.2677L16.1837 22.1061L16.2648 21.8347C16.3094 21.688 16.3482 21.5671 16.3516 21.5671C16.3549 21.5671 16.4115 21.7613 16.4744 22.0002C16.5372 22.2347 16.6925 22.6859 16.8188 22.9975C16.9024 23.1869 16.9763 23.3804 17.0403 23.5773C16.9895 23.5195 16.9427 23.4583 16.9002 23.3941M16.0164 21.714L15.921 21.4532L15.9958 21.0976C16.0346 20.9021 16.0764 20.6645 16.0847 20.5693C16.0852 20.5082 16.0996 20.448 16.1269 20.3933C16.1538 20.448 16.1681 20.5082 16.1686 20.5693C16.1777 20.6647 16.2195 20.8996 16.2575 21.09L16.3286 21.4386L16.236 21.7067C16.2099 21.7983 16.1737 21.8868 16.1281 21.9705C16.0791 21.8903 16.0407 21.8041 16.014 21.714M16.0801 19.3625C16.0499 19.3077 16.0829 19.2781 16.14 19.3077C16.1459 19.3095 16.1513 19.3125 16.156 19.3164C16.1607 19.3203 16.1646 19.3252 16.1674 19.3306C16.1701 19.3361 16.1718 19.3421 16.1722 19.3482C16.1726 19.3543 16.1717 19.3605 16.1697 19.3662C16.1664 19.3757 16.1606 19.3841 16.1528 19.3903C16.145 19.3966 16.1356 19.4006 16.1256 19.4018C16.1089 19.4018 16.092 19.3883 16.0801 19.3625ZM16.0801 18.6734C16.0759 18.6633 16.0751 18.652 16.0778 18.6414C16.0806 18.6307 16.0867 18.6212 16.0954 18.6144C16.1309 18.589 16.1843 18.6221 16.1843 18.6734C16.1843 18.6955 16.1636 18.706 16.1407 18.706C16.1285 18.7064 16.1165 18.7036 16.1057 18.6979C16.0949 18.6922 16.0865 18.6838 16.0801 18.6734ZM16.1988 15.9511C16.1839 16.0524 16.159 16.152 16.1245 16.2484C16.0895 16.1521 16.0643 16.0525 16.0493 15.9511C16.0076 15.72 15.9869 15.661 15.9505 15.6797C15.9265 15.6907 15.7923 15.7342 15.6547 15.7785L15.4029 15.8557L15.4806 15.9181C15.6273 16.0356 15.7021 16.2153 15.7798 16.6484C15.8771 17.1381 15.9323 17.6353 15.9448 18.1344V18.4597L15.87 18.3753C15.8294 18.3303 15.8034 18.2742 15.7951 18.2142C15.7923 17.8987 15.5251 16.8126 15.3128 16.2516L15.19 15.9245L15.0164 15.8889C14.9124 15.8646 14.8125 15.825 14.7201 15.7714L14.5972 15.6946L14.5642 15.7861C14.534 15.8667 14.5464 15.8997 14.708 16.1309C15.0994 16.718 15.3315 17.3968 15.3818 18.1006L15.4173 18.5273L15.6394 18.7911L15.8609 19.0519L15.7473 19.1728C15.6812 19.2389 15.5695 19.3454 15.4984 19.4116L15.3661 19.5248L15.3839 19.1801C15.3958 18.9346 15.393 18.8832 15.3748 19.0007C15.276 19.624 15.2909 19.5838 15.1082 19.7271C14.6554 20.0586 14.1474 20.307 13.6077 20.4608C13.5329 20.4829 13.5032 20.4964 13.5388 20.5006C13.7425 20.5122 14.6588 20.2221 15.0301 20.0277C15.1798 19.9472 15.183 19.9543 15.119 20.1778C14.9398 20.731 14.685 21.2569 14.3619 21.7405C13.9514 22.3682 13.1247 23.1709 12.6019 23.4571C12.5403 23.4831 12.485 23.522 12.4397 23.5712C12.4397 23.6077 12.7748 23.5492 12.8593 23.4941C12.9257 23.4572 12.9957 23.4274 13.0684 23.4052C13.1436 23.3831 13.2243 23.3577 13.2486 23.3506C13.6381 23.1717 14.0001 22.9382 14.3236 22.6573C14.6622 22.3473 14.9662 22.0016 15.2303 21.6261C15.3804 21.4061 15.4015 21.3216 15.2755 21.443C14.8684 21.8352 14.1855 22.4002 14.1615 22.3675C14.2323 22.2518 14.3113 22.1415 14.398 22.0372C14.5048 21.9036 14.6019 21.7626 14.6886 21.6151C14.7184 21.5415 14.7535 21.4702 14.7937 21.4018C15.0229 20.9423 15.1881 20.4536 15.2847 19.9493C15.3617 19.8532 15.456 19.7723 15.5628 19.7109C15.8266 19.5312 15.839 19.5278 15.8472 19.6043C15.8078 20.2602 15.7137 20.9117 15.5658 21.552C15.5452 21.6144 15.5064 21.754 15.4819 21.8637C15.4269 22.1052 15.3557 22.3428 15.2685 22.5748C15.1486 22.9216 15.0108 23.2621 14.8557 23.5947C14.8037 23.6948 14.7568 23.7976 14.7153 23.9026C14.7153 23.9362 14.3231 24.6219 14.1519 24.8861C14.063 25.0297 13.8959 25.2757 13.7786 25.434C13.5475 25.7495 13.5652 25.7495 13.967 25.4269C14.3568 25.1032 14.7087 24.7364 15.0159 24.3335C15.269 24.0136 15.4916 23.6706 15.6808 23.3092C15.6961 23.2688 15.7407 23.1696 15.7825 23.0891C15.8243 23.0085 15.9144 22.7995 15.9862 22.6235C16.0236 22.512 16.0708 22.404 16.1272 22.3008C16.1827 22.4111 16.2305 22.525 16.2705 22.6418C16.6988 23.7566 17.6394 24.9966 18.5377 25.6244L18.6874 25.7269L18.4749 25.4368C18.0101 24.8101 17.6192 24.1319 17.3098 23.4157C16.988 22.661 16.7433 21.8757 16.5795 21.0718C16.4934 20.5949 16.4322 20.1137 16.3964 19.6304V19.5092L16.5853 19.6411C16.6711 19.7057 16.7612 19.7645 16.8548 19.8171C16.8859 19.8366 16.9121 19.863 16.9313 19.8942C16.9505 19.9255 16.9623 19.9608 16.9656 19.9973C17.1612 20.8701 17.5256 21.6733 17.9626 22.1762C18.0796 22.3152 18.1516 22.4146 18.1213 22.3997C17.7772 22.1636 17.4526 21.9001 17.1508 21.6117C17.0627 21.5169 16.9655 21.4308 16.8607 21.3547C16.8333 21.384 17.1661 21.8462 17.4596 22.1838C17.9001 22.7063 18.4598 23.1152 19.0915 23.3758C19.6305 23.5739 19.6904 23.5892 19.7565 23.5778C19.8099 23.5668 19.7828 23.5371 19.6156 23.4345C19.1487 23.125 18.723 22.7574 18.3487 22.3406C17.7971 21.697 17.3789 20.9501 17.1183 20.1435C17.065 19.9675 17.065 19.9479 17.1092 19.9709C17.5753 20.2063 18.071 20.3779 18.5828 20.4811C18.7295 20.4989 18.7142 20.4916 18.4687 20.411C18.0865 20.2821 17.7214 20.1071 17.3816 19.8898C16.986 19.6372 16.9773 19.6222 16.9087 19.2189L16.8516 18.8702L16.8666 19.1968L16.8844 19.5229L16.753 19.4096C16.6819 19.3469 16.5702 19.2409 16.5041 19.1746L16.3905 19.0501L16.6154 18.786L16.8364 18.5184L16.8609 18.1885C16.8998 17.4368 17.1462 16.7107 17.5729 16.0907C17.7082 15.8997 17.7196 15.8706 17.687 15.7861L17.6545 15.6946L17.5313 15.7714C17.4389 15.8251 17.339 15.8647 17.2349 15.8889L17.0614 15.9245L16.9386 16.2516C16.7297 16.805 16.4595 17.8949 16.4561 18.2029C16.4561 18.2839 16.3516 18.4565 16.3247 18.4229C16.2967 18.0905 16.3066 17.7558 16.3544 17.4256C16.4685 16.4642 16.5855 16.0389 16.7706 15.9175C16.8127 15.8921 16.8392 15.8629 16.8333 15.8551C16.7531 15.8224 16.6712 15.7943 16.5878 15.7707C16.4913 15.7459 16.3963 15.7154 16.3034 15.6791C16.2991 15.6769 16.2943 15.6758 16.2895 15.6757C16.2588 15.6757 16.2381 15.7385 16.2006 15.9506" fill="#B79EC7"/>
</g>
<defs>
<clipPath id="clip0_2005_42">
<rect width="33" height="33" fill="white"/>
</clipPath>
</defs>
</svg>
