<svg xmlns="http://www.w3.org/2000/svg" xmlns:xlink="http://www.w3.org/1999/xlink" width="400" height="400" viewBox="0 0 400 400">
  <defs>
    <clipPath id="clip-path">
      <path id="Path_77" data-name="Path 77" d="M14.189,30.684c24.793,29.129,59.283,45.6,95.5,45.645,6.855,0,9.554.414,6.927,1.1-6.885,1.649-26.214,2.381-34.268,1.241C61.9,75.826,43.473,68.257,23.736,54.721L20.93,52.8l1.685,2.243C33.29,69.265,50.55,80.828,68.122,85.463c12.468,3.251,30.334,2.153,46.887-2.987A34,34,0,0,1,120.25,81.1c.264.324-7.79,4.264-12.061,5.919C99.242,90.507,92.615,91.7,82.168,91.7a71.438,71.438,0,0,1-27.384-4.864c-2.021-.732-3.778-1.331-3.928-1.331a13.365,13.365,0,0,0,1.985,2.2c13.482,13.674,30.448,17.848,48.722,11.977,7.263-2.339,13.068-5.829,19.4-11.7l3.185-2.939L122.721,87.2c-3.293,4.912-9.848,11.011-15.725,14.543a41.34,41.34,0,0,1-24.013,6.147c-6.7-.132-6.813.048-.972,1.931a33.556,33.556,0,0,0,23.107-.648c6.9-2.795,11.575-6.279,17.044-12.846,1.871-2.333,3.448-4.036,3.448-3.8a20.662,20.662,0,0,1-1.349,3.209c-4.27,8.948-10.567,15.185-18.316,18.214-4.42,1.7-4.42,1.883-.192,1.607,7.383-.414,13.26-3.394,18.352-9.266a41.692,41.692,0,0,0,4.312-5.919,9.026,9.026,0,0,1,1.529-2.339c.378.456-.78,5.416-2.015,8.534-1.463,3.67-4.87,8.3-7.3,9.907a4.728,4.728,0,0,0-1.385,1.193c0,.5,2.993-.09,5.2-1.008a20.674,20.674,0,0,0,11.011-12.025c1.014-2.567,1.313-3.077,1.949-2.891,4.792,1.559,6.741,1.793,9.29,1.241a20.657,20.657,0,0,0,4.87-1.745L153.805,100l-.258-3.574c-.636-9.548-5.655-21.29-11.989-28.079-2.615-2.843-3.406-3.3-1.979-1.193,3.706,5.416,6.441,14,7.191,22.85l.222,2.843h-1.271c-2.027,0-6.855-1.7-9.254-3.257a25.724,25.724,0,0,1-10.111-14.543l-.858-3.119-6.183-.552c-25.614-2.3-52.32-10.555-76.477-23.719-8.912-4.864-23.857-14.5-29.4-19.041a9.178,9.178,0,0,0-1.919-1.391c-.228,0,.63,1.074,2.669,3.46" transform="translate(-11.484 -27.224)" fill="#bda0fd"/>
    </clipPath>
    <clipPath id="clip-path-2">
      <path id="Path_78" data-name="Path 78" d="M42.856,32.669l-1.271,1.511,1.343,3.077,1.349,3.071-2.1,3.119a38.791,38.791,0,0,0-5.392,11.839c-1.157,4.174-1.121,4.36.222,1.373A27.878,27.878,0,0,1,39.3,52.532,40.051,40.051,0,0,1,47.534,44.6l2.585-1.931-.972-2.105c-.864-1.793-4.456-8.582-4.906-9.176l-.036-.024a4.694,4.694,0,0,0-1.349,1.307" transform="translate(-35.958 -31.362)" fill="#bda0fd"/>
    </clipPath>
    <clipPath id="clip-path-3">
      <path id="Path_79" data-name="Path 79" d="M33.028,30.461A33.94,33.94,0,0,1,48.015,44.824a45.957,45.957,0,0,1,4.306,11.743c.15.918.372,1.7.522,1.7a6.555,6.555,0,0,0,.75-2.387c2.171-10.5,8.954-20.043,17.452-24.451,3.149-1.649,2.921-1.973-.336-.5a35.365,35.365,0,0,0-13.6,11.833c-1.607,2.525-3.856,7.485-3.856,8.534,0,1.283-.6.366-1.421-2.063-1.613-5.092-6.177-11.239-11.125-14.909a37.522,37.522,0,0,0-7.862-4.264,4.574,4.574,0,0,0-.69-.132c-.174,0,.1.156.87.54" transform="translate(-32.108 -29.921)" fill="#bda0fd"/>
    </clipPath>
    <clipPath id="clip-path-4">
      <path id="Path_80" data-name="Path 80" d="M40.424,32.341c-1.5,2.015-3.556,4.858-4.57,6.423l-1.793,2.753L35.3,42.759l1.271,1.283L38.7,41.469c1.193-1.421,2.243-2.477,2.357-2.339a72.976,72.976,0,0,1,1.014,8.03c.78,8.258,1.121,10.045,1.343,7.473.078-.864.456-4.678.828-8.438a68.067,68.067,0,0,1,.936-7.065c.108-.138,1.163.918,2.363,2.339l2.171,2.615L50.949,42.8l1.235-1.235-2.435-3.67c-1.349-2.021-3.406-4.912-4.534-6.423l-2.057-2.753Z" transform="translate(-34.061 -28.719)" fill="#bda0fd"/>
    </clipPath>
    <clipPath id="clip-path-5">
      <path id="Path_81" data-name="Path 81" d="M33.832,40.587l-1.008,2.105,3.221,2.387c3.814,2.891,7.79,7.341,9.32,10.507.642,1.283,1.163,2.159,1.241,1.973a21.063,21.063,0,0,0-.858-3.532,35.821,35.821,0,0,0-4.984-10.465L38.7,40.443l1.271-3.161,1.241-3.173-1.085-1.373a5.881,5.881,0,0,0-1.349-1.379c-.264,0-3.035,5.188-4.948,9.23" transform="translate(-32.824 -31.357)" fill="#bda0fd"/>
    </clipPath>
    <clipPath id="clip-path-6">
      <path id="Path_82" data-name="Path 82" d="M177.817,27.362c-.564.414-2.513,1.835-4.312,3.167C153.025,45.714,129.653,57.552,106.732,64.3a198.189,198.189,0,0,1-36.553,7.017l-6.033.5-.786,3.029A26.068,26.068,0,0,1,53.248,89.482c-3.406,2.2-10.561,4.222-10.561,2.939a86.8,86.8,0,0,1,1.541-11.329A54.054,54.054,0,0,1,49.47,68.059c.786-1.283,1.349-2.345,1.193-2.345-.672,0-5.242,5.6-7.227,8.81-4.456,7.209-7.491,16.882-7.491,23.767,0,1.649.114,1.745,2.177,2.891a18.351,18.351,0,0,0,4.828,1.745c2.549.552,4.384.318,9.29-1.241.636-.186.972.324,1.979,2.939,2.663,6.879,7.8,11.611,13.938,12.936.936.186,1.8.366,1.985.414.15,0,.264-.09.264-.324,0-.18-.642-.732-1.391-1.235-2.435-1.607-5.841-6.237-7.3-9.908-1.313-3.3-2.477-8.03-2.063-8.492.114-.132.822.918,1.577,2.3a41.6,41.6,0,0,0,4.306,5.919c5.092,5.871,10.933,8.852,18.352,9.266l3.928.276L84.56,114.4a34.4,34.4,0,0,1-16.552-13.95c-1.8-2.987-4.648-8.582-4.27-8.582.078,0,1.721,1.925,3.706,4.312,11.539,13.95,27.114,18.717,42.209,12.894a32.62,32.62,0,0,0,3.077-1.283c0-.048-3.34-.09-7.419-.09a51.659,51.659,0,0,1-9.632-.6A53.138,53.138,0,0,1,75.534,96.546,66.606,66.606,0,0,1,66.844,87c-.936-1.469-.708-1.373,2.057,1.193,9.032,8.168,18.58,12.57,30.076,13.764,14.01,1.517,27.192-3.484,37.825-14.315,2.363-2.387,2.363-2.567-.15-1.469-.894.372-3.964,1.427-6.813,2.255a74.153,74.153,0,0,1-48.95-1.655c-3.934-1.607-11.719-5.464-11.5-5.733a33.974,33.974,0,0,1,5.248,1.373c13.7,4.222,31.726,6.015,41.609,4.132,18.652-3.532,35.84-13.764,48.95-29.183,4.12-4.864,4.234-5.32.9-2.843A198.881,198.881,0,0,1,144.97,67.052C127.182,75.586,112.387,79.16,94.749,79.16c-8.276,0-18.915-.918-21.614-1.787-2.171-.738.15-1.1,6.777-1.1a123.306,123.306,0,0,0,30.754-3.946c21.422-5.781,41.009-17.3,57.784-34.082,4.108-4.138,10.087-11,9.6-11a.578.578,0,0,0-.228.126" transform="translate(-35.946 -27.236)" fill="#bda0fd"/>
    </clipPath>
    <clipPath id="clip-path-7">
      <path id="Path_83" data-name="Path 83" d="M63.022,137.1a121.834,121.834,0,0,0,7.563-21.428c.228-1.1.564-1.835.714-1.6a36.369,36.369,0,0,1,1.913,6.555c0,.918-5.284,10.645-7.79,14.405-1.517,2.261-2.585,3.538-2.855,3.538-.162,0-.036-.468.456-1.469m20.6-.456c-.936-1.337-2.663-4.09-3.826-6.105-1.193-2.021-2.507-4.174-2.879-4.816a25,25,0,0,1-1.5-3.167l-.75-2.021,1.014-3.394c.558-1.835,1.044-3.346,1.086-3.346s.75,2.429,1.535,5.416c.786,2.933,2.729,8.576,4.306,12.474a76.453,76.453,0,0,1,2.771,7.251h-.006a21.133,21.133,0,0,1-1.751-2.291M72.57,115.628l-1.193-3.263.936-4.444c.486-2.435,1.008-5.416,1.121-6.609a5.03,5.03,0,0,1,.528-2.2,5.075,5.075,0,0,1,.522,2.2c.114,1.193.636,4.132,1.122,6.513l.9,4.36-1.157,3.352a16.089,16.089,0,0,1-1.349,3.3,13.552,13.552,0,0,1-1.427-3.209M73.4,86.217c-.378-.684.036-1.056.75-.684a.567.567,0,0,1,.372.732.668.668,0,0,1-.552.438c-.21,0-.42-.162-.57-.486m0-8.624a.63.63,0,0,1,.192-.738c.444-.318,1.122.1,1.122.738,0,.276-.258.408-.546.408a.868.868,0,0,1-.768-.408m1.493-34.047a19.582,19.582,0,0,1-.93,3.718,19.052,19.052,0,0,1-.942-3.718c-.522-2.891-.78-3.628-1.235-3.394-.3.138-1.979.684-3.7,1.235l-3.149.966.972.78c1.835,1.469,2.771,3.718,3.742,9.134a109.444,109.444,0,0,1,2.063,18.586V74.93l-.936-1.056a3.778,3.778,0,0,1-.936-2.015c-.036-3.946-3.376-17.53-6.033-24.547l-1.535-4.09L60.1,42.767A13.511,13.511,0,0,1,56.4,41.3l-1.535-.96-.414,1.145c-.378,1.008-.228,1.421,1.8,4.312a50.965,50.965,0,0,1,8.426,24.637l.444,5.326,2.777,3.3,2.771,3.263L69.241,83.83c-.828.828-2.213,2.159-3.107,2.987l-1.655,1.415.228-4.312c.15-3.071.114-3.712-.114-2.243-1.235,7.8-1.05,7.293-3.328,9.086A59.247,59.247,0,0,1,42.5,99.939c-.936.276-1.307.456-.864.5,2.549.144,14.01-3.484,18.652-5.913,1.871-1.008,1.913-.918,1.121,1.877-1.643,5.691-5.128,12.846-9.47,19.545-5.134,7.85-15.473,17.89-22.022,21.47a5.855,5.855,0,0,0-2.027,1.427c0,.456,4.192-.276,5.248-.966a13.529,13.529,0,0,1,2.615-1.1c.942-.276,1.949-.594,2.255-.684,2.657-.828,8.756-4.774,13.446-8.678a79.492,79.492,0,0,0,11.341-12.888c1.877-2.753,2.141-3.808.564-2.291C58.266,117.139,49.726,124.2,49.426,123.8a35.352,35.352,0,0,1,2.957-4.132,44.776,44.776,0,0,0,3.634-5.278,20.2,20.2,0,0,1,1.313-2.663c2.171-3.67,6.105-15.365,6.141-18.166,0-.318,1.571-1.7,3.478-2.981,3.3-2.249,3.454-2.291,3.562-1.331.3,2.753-2.363,21.1-3.52,24.361-.258.78-.744,2.525-1.05,3.9a68.439,68.439,0,0,1-2.663,8.9,133.009,133.009,0,0,1-5.164,12.756,41.338,41.338,0,0,0-1.757,3.85c0,.42-4.906,9-7.047,12.3-1.157,1.787-3.257,4.864-4.714,6.837-2.885,3.946-2.663,3.946,2.357-.09a83.968,83.968,0,0,0,13.11-13.674c3.406-4.4,7.641-10.921,8.312-12.8.192-.5.75-1.745,1.271-2.753S71.3,129.205,72.2,127a24.842,24.842,0,0,1,1.763-4.036,33.926,33.926,0,0,1,1.793,4.264c5.356,13.944,17.116,29.453,28.355,37.3l1.871,1.283-2.657-3.628A126.911,126.911,0,0,1,88.75,136.912,152.216,152.216,0,0,1,79.616,107.6a173.95,173.95,0,0,1-2.291-18.028V88.052L79.688,89.7a29.991,29.991,0,0,0,3.37,2.2,2.978,2.978,0,0,1,1.385,2.255c2.435,10.915,7,20.96,12.468,27.252,1.463,1.739,2.363,2.981,1.985,2.795-1.607-.78-8.906-6.7-12.132-9.86a25.016,25.016,0,0,0-3.628-3.215c-.342.366,3.82,6.147,7.491,10.369,5.841,6.789,13.554,12.39,20.409,14.909,6.741,2.477,7.491,2.663,8.318,2.525.672-.138.33-.51-1.763-1.793-4.648-2.843-10.375-7.8-15.845-13.668-6.033-6.519-12.468-17.986-15.389-27.479-.678-2.2-.678-2.435-.114-2.159,5.278,2.753,14.3,5.871,18.43,6.381,1.835.222,1.643.132-1.427-.876a62.04,62.04,0,0,1-13.6-6.519c-4.948-3.161-5.056-3.346-5.913-8.39l-.714-4.36.186,4.084.222,4.078-1.643-1.415c-.9-.786-2.285-2.111-3.113-2.939l-1.421-1.559,2.813-3.3,2.765-3.352.306-4.126a50.914,50.914,0,0,1,8.906-26.244c1.691-2.387,1.835-2.753,1.427-3.808l-.408-1.145-1.541.96a13.435,13.435,0,0,1-3.706,1.469l-2.171.456-1.535,4.09c-2.621,6.921-5.991,20.553-6.033,24.4,0,1.014-1.307,3.173-1.643,2.753-.414-.546-.228-7.521.372-12.474,1.427-12.024,2.885-17.344,5.206-18.861.528-.318.858-.684.786-.78A29.231,29.231,0,0,0,79.724,41.3a30.867,30.867,0,0,1-3.556-1.145.389.389,0,0,0-.174-.042c-.384,0-.642.786-1.1,3.436" transform="translate(-27.89 -40.11)" fill="#bda0fd"/>
    </clipPath>
  </defs>
  <g id="Group_455" data-name="Group 455" transform="translate(-124 -374)">
    <g id="Group_419" data-name="Group 419">
      <path id="Polygon_14" data-name="Polygon 14" d="M252.826,0a72.46,72.46,0,0,1,51.227,21.218l74.724,74.724A72.464,72.464,0,0,1,400,147.174V252.826a72.464,72.464,0,0,1-21.225,51.242l-74.717,74.709A72.464,72.464,0,0,1,252.826,400H147.174a72.459,72.459,0,0,1-51.227-21.218L21.223,304.058A72.464,72.464,0,0,1,0,252.826V147.174A72.46,72.46,0,0,1,21.218,95.947L95.942,21.223A72.464,72.464,0,0,1,147.174,0Z" transform="translate(124 374)" fill="#4b4b4c"/>
      <g id="Ellipse_28" data-name="Ellipse 28" transform="translate(150 400)" fill="none" stroke="red" stroke-width="1" opacity="0">
        <circle cx="174" cy="174" r="174" stroke="none"/>
        <circle cx="174" cy="174" r="173.5" fill="none"/>
      </g>
    </g>
    <g id="Group_454" data-name="Group 454" transform="translate(125.699 366.048)">
      <g id="Group_441" data-name="Group 441" transform="translate(54.301 122.952)">
        <g id="Group_440" data-name="Group 440" clip-path="url(#clip-path)">
          <rect id="Rectangle_87" data-name="Rectangle 87" width="142.513" height="90.949" transform="translate(-0.192 0)" fill="#bda0fd"/>
        </g>
      </g>
      <g id="Group_443" data-name="Group 443" transform="translate(201.076 147.768)">
        <g id="Group_442" data-name="Group 442" clip-path="url(#clip-path-2)">
          <rect id="Rectangle_88" data-name="Rectangle 88" width="14.489" height="28.283" transform="translate(-0.328 0)" fill="#bda0fd"/>
        </g>
      </g>
      <g id="Group_445" data-name="Group 445" transform="translate(177.985 139.126)">
        <g id="Group_444" data-name="Group 444" clip-path="url(#clip-path-3)">
          <rect id="Rectangle_89" data-name="Rectangle 89" width="42.209" height="28.811" transform="translate(-0.123 -0.468)" fill="#bda0fd"/>
        </g>
      </g>
      <g id="Group_447" data-name="Group 447" transform="translate(189.701 131.918)">
        <g id="Group_446" data-name="Group 446" clip-path="url(#clip-path-4)">
          <rect id="Rectangle_90" data-name="Rectangle 90" width="18.124" height="28.487" transform="translate(0 0)" fill="#bda0fd"/>
        </g>
      </g>
      <g id="Group_449" data-name="Group 449" transform="translate(182.282 147.738)">
        <g id="Group_448" data-name="Group 448" clip-path="url(#clip-path-5)">
          <rect id="Rectangle_91" data-name="Rectangle 91" width="13.818" height="26.388" transform="translate(0 0)" fill="#bda0fd"/>
        </g>
      </g>
      <g id="Group_451" data-name="Group 451" transform="translate(201.006 123.024)">
        <g id="Group_450" data-name="Group 450" clip-path="url(#clip-path-6)">
          <path id="Path_84" data-name="Path 84" d="M0,0H142.591V90.739H0Z" fill="#bda0fd"/>
        </g>
      </g>
      <g id="Group_453" data-name="Group 453" transform="translate(152.692 200.233)">
        <g id="Group_452" data-name="Group 452" clip-path="url(#clip-path-7)">
          <rect id="Rectangle_93" data-name="Rectangle 93" width="92.136" height="126.177" transform="translate(0 -0.192)" fill="#bda0fd"/>
        </g>
      </g>
    </g>
  </g>
</svg>
