<svg id="Tarian" xmlns="http://www.w3.org/2000/svg" xmlns:xlink="http://www.w3.org/1999/xlink" width="34" height="34" viewBox="0 0 34 34">
  <defs>
    <clipPath id="clip-path">
      <path id="Path_77" data-name="Path 77" d="M11.744,27.556a12.061,12.061,0,0,0,9.168,4.382c.658,0,.917.04.665.106a13.344,13.344,0,0,1-3.29.119,12.79,12.79,0,0,1-5.627-2.3l-.269-.185.162.215a8.335,8.335,0,0,0,4.369,2.921,8.806,8.806,0,0,0,4.5-.287,3.263,3.263,0,0,1,.5-.132,6.728,6.728,0,0,1-1.158.568,6.117,6.117,0,0,1-2.5.449,6.858,6.858,0,0,1-2.629-.467c-.194-.07-.363-.128-.377-.128a1.283,1.283,0,0,0,.191.211,4.365,4.365,0,0,0,4.677,1.15,4.745,4.745,0,0,0,1.863-1.123l.306-.282-.137.207a5.349,5.349,0,0,1-1.51,1.4,3.969,3.969,0,0,1-2.305.59c-.644-.013-.654,0-.093.185a3.222,3.222,0,0,0,2.218-.062,3.829,3.829,0,0,0,1.636-1.233,1.971,1.971,0,0,1,.331-.365,1.984,1.984,0,0,1-.13.308,3.323,3.323,0,0,1-1.758,1.749c-.424.164-.424.181-.018.154a2.4,2.4,0,0,0,1.762-.89,4,4,0,0,0,.414-.568.867.867,0,0,1,.147-.225,2.526,2.526,0,0,1-.895,1.77.454.454,0,0,0-.133.115c0,.048.287-.009.5-.1a1.985,1.985,0,0,0,1.057-1.154c.1-.246.126-.3.187-.278a1.538,1.538,0,0,0,.892.119,1.983,1.983,0,0,0,.468-.168l.215-.119-.025-.343a4.831,4.831,0,0,0-1.151-2.7c-.251-.273-.327-.317-.19-.115a4.811,4.811,0,0,1,.69,2.194l.021.273h-.122a2.3,2.3,0,0,1-.888-.313,2.47,2.47,0,0,1-.971-1.4l-.082-.3-.594-.053a19.167,19.167,0,0,1-7.342-2.277,25,25,0,0,1-2.822-1.828.881.881,0,0,0-.184-.134c-.022,0,.06.1.256.332" transform="translate(-11.484 -27.224)" fill="#bda0fd"/>
    </clipPath>
    <clipPath id="clip-path-2">
      <path id="Path_78" data-name="Path 78" d="M36.62,31.488l-.122.145.129.3.13.295-.2.3a3.724,3.724,0,0,0-.518,1.137c-.111.4-.108.419.021.132a2.676,2.676,0,0,1,.22-.4,3.845,3.845,0,0,1,.791-.762l.248-.185-.093-.2c-.083-.172-.428-.824-.471-.881l0,0a.451.451,0,0,0-.13.126" transform="translate(-35.958 -31.362)" fill="#bda0fd"/>
    </clipPath>
    <clipPath id="clip-path-3">
      <path id="Path_79" data-name="Path 79" d="M32.2,29.973a3.258,3.258,0,0,1,1.439,1.379,4.412,4.412,0,0,1,.413,1.127c.014.088.036.163.05.163a.629.629,0,0,0,.072-.229,3.477,3.477,0,0,1,1.675-2.347c.3-.158.28-.189-.032-.048a3.4,3.4,0,0,0-1.305,1.136,3.206,3.206,0,0,0-.37.819c0,.123-.058.035-.136-.2a3.2,3.2,0,0,0-1.068-1.431,3.6,3.6,0,0,0-.755-.409.439.439,0,0,0-.066-.013c-.017,0,.009.015.083.052" transform="translate(-32.108 -29.921)" fill="#bda0fd"/>
    </clipPath>
    <clipPath id="clip-path-4">
      <path id="Path_80" data-name="Path 80" d="M34.672,29.067c-.144.193-.341.466-.439.617l-.172.264.119.119.122.123.2-.247c.115-.136.215-.238.226-.225a7.006,7.006,0,0,1,.1.771c.075.793.108.964.129.717.007-.083.044-.449.079-.81a6.537,6.537,0,0,1,.09-.678c.01-.013.112.088.227.225l.208.251.119-.123.119-.119-.234-.352c-.13-.194-.327-.472-.435-.617l-.2-.264Z" transform="translate(-34.061 -28.719)" fill="#bda0fd"/>
    </clipPath>
    <clipPath id="clip-path-5">
      <path id="Path_81" data-name="Path 81" d="M32.921,32.243l-.1.2.309.229a3.354,3.354,0,0,1,.895,1.009c.062.123.112.207.119.189a2.022,2.022,0,0,0-.082-.339,3.439,3.439,0,0,0-.478-1l-.2-.3.122-.3.119-.3-.1-.132a.565.565,0,0,0-.13-.132,6.96,6.96,0,0,0-.475.886" transform="translate(-32.824 -31.357)" fill="#bda0fd"/>
    </clipPath>
    <clipPath id="clip-path-6">
      <path id="Path_82" data-name="Path 82" d="M49.566,27.248l-.414.3a20.909,20.909,0,0,1-6.41,3.242,19.027,19.027,0,0,1-3.509.674l-.579.048-.075.291a2.5,2.5,0,0,1-.971,1.4c-.327.211-1.014.405-1.014.282a8.332,8.332,0,0,1,.148-1.088,5.189,5.189,0,0,1,.5-1.251c.075-.123.13-.225.115-.225a3.9,3.9,0,0,0-.694.846,4.849,4.849,0,0,0-.719,2.282c0,.158.011.168.209.278a1.762,1.762,0,0,0,.463.168,1.545,1.545,0,0,0,.892-.119c.061-.018.093.031.19.282a1.91,1.91,0,0,0,1.338,1.242l.191.04c.014,0,.025-.009.025-.031s-.062-.07-.134-.119a2.436,2.436,0,0,1-.7-.951,2.268,2.268,0,0,1-.2-.815c.011-.013.079.088.151.221a3.993,3.993,0,0,0,.413.568,2.391,2.391,0,0,0,1.762.89l.377.026-.313-.132a3.3,3.3,0,0,1-1.589-1.339,4.38,4.38,0,0,1-.41-.824c.007,0,.165.185.356.414a3.48,3.48,0,0,0,4.052,1.238,3.131,3.131,0,0,0,.3-.123s-.321-.009-.712-.009a4.96,4.96,0,0,1-.925-.058,5.1,5.1,0,0,1-1.934-1.013,6.394,6.394,0,0,1-.834-.916c-.09-.141-.068-.132.2.115A4.883,4.883,0,0,0,42,34.41a4.335,4.335,0,0,0,3.631-1.374c.227-.229.227-.246-.014-.141-.086.036-.381.137-.654.216a7.119,7.119,0,0,1-4.7-.159,7.58,7.58,0,0,1-1.1-.55,3.26,3.26,0,0,1,.5.132,9.862,9.862,0,0,0,3.995.4,8.2,8.2,0,0,0,4.7-2.8c.4-.467.406-.511.086-.273a19.093,19.093,0,0,1-2.028,1.2,10.477,10.477,0,0,1-4.821,1.162,10.967,10.967,0,0,1-2.075-.172c-.208-.071.014-.106.651-.106a11.837,11.837,0,0,0,2.952-.379,12.373,12.373,0,0,0,5.547-3.272,8.234,8.234,0,0,0,.921-1.057.055.055,0,0,0-.022.012" transform="translate(-35.946 -27.236)" fill="#bda0fd"/>
    </clipPath>
    <clipPath id="clip-path-7">
      <path id="Path_83" data-name="Path 83" d="M31.263,49.421a11.7,11.7,0,0,0,.726-2.057c.022-.106.054-.176.069-.154a3.491,3.491,0,0,1,.184.629,9.792,9.792,0,0,1-.748,1.383,1.226,1.226,0,0,1-.274.34c-.016,0,0-.045.044-.141m1.978-.044c-.09-.128-.256-.393-.367-.586s-.241-.4-.276-.462a2.4,2.4,0,0,1-.144-.3l-.072-.194.1-.326c.054-.176.1-.321.1-.321s.072.233.147.52.262.823.413,1.2a7.337,7.337,0,0,1,.266.7h0a2.029,2.029,0,0,1-.168-.22M32.179,47.36l-.115-.313.09-.427c.047-.234.1-.52.108-.634a.483.483,0,0,1,.051-.211.487.487,0,0,1,.05.211c.011.115.061.4.108.625l.086.419-.111.322a1.544,1.544,0,0,1-.13.317,1.3,1.3,0,0,1-.137-.308m.079-2.823c-.036-.066,0-.1.072-.066a.054.054,0,0,1,.036.07.064.064,0,0,1-.053.042c-.02,0-.04-.016-.055-.047m0-.828a.061.061,0,0,1,.018-.071c.043-.031.108.009.108.071,0,.026-.025.039-.052.039a.083.083,0,0,1-.074-.039M32.4,40.44a1.879,1.879,0,0,1-.089.357,1.83,1.83,0,0,1-.09-.357c-.05-.278-.075-.348-.119-.326s-.19.066-.355.119l-.3.093.093.075c.176.141.266.357.359.877a10.507,10.507,0,0,1,.2,1.784v.392l-.09-.1a.363.363,0,0,1-.09-.193,11.187,11.187,0,0,0-.579-2.357l-.147-.393-.208-.044a1.3,1.3,0,0,1-.356-.141l-.147-.092-.04.11c-.036.1-.022.136.173.414a4.893,4.893,0,0,1,.809,2.365l.043.511.267.317.266.313-.136.145c-.079.079-.212.207-.3.287l-.159.136.022-.414c.014-.295.011-.356-.011-.215-.119.748-.1.7-.32.872a5.688,5.688,0,0,1-1.8.881c-.09.026-.126.044-.083.048A6.689,6.689,0,0,0,31,45.334c.18-.1.184-.088.108.18a7.3,7.3,0,0,1-3.023,3.938.562.562,0,0,0-.195.137c0,.044.4-.026.5-.093a1.3,1.3,0,0,1,.251-.106l.216-.066a5.418,5.418,0,0,0,1.291-.833,7.631,7.631,0,0,0,1.089-1.237c.18-.264.206-.366.054-.22a9.343,9.343,0,0,1-1.337,1.11,3.394,3.394,0,0,1,.284-.4,4.3,4.3,0,0,0,.349-.507,1.939,1.939,0,0,1,.126-.256,6.755,6.755,0,0,0,.59-1.744,1.181,1.181,0,0,1,.334-.286c.317-.216.332-.22.342-.128a14.167,14.167,0,0,1-.338,2.339c-.025.075-.071.242-.1.374a6.57,6.57,0,0,1-.256.854,12.77,12.77,0,0,1-.5,1.225,3.969,3.969,0,0,0-.169.37c0,.04-.471.864-.677,1.181-.111.172-.313.467-.453.656-.277.379-.256.379.226-.009A8.061,8.061,0,0,0,30.979,50.5a7.851,7.851,0,0,0,.8-1.229c.018-.048.072-.168.122-.264s.158-.348.245-.559a2.385,2.385,0,0,1,.169-.387,3.256,3.256,0,0,1,.172.409,8.54,8.54,0,0,0,2.722,3.581l.18.123-.255-.348a12.183,12.183,0,0,1-1.4-2.427,14.613,14.613,0,0,1-.877-2.814,16.7,16.7,0,0,1-.22-1.731v-.146l.227.158a2.879,2.879,0,0,0,.324.211.286.286,0,0,1,.133.216,6.2,6.2,0,0,0,1.2,2.616c.14.167.227.286.191.268a9.314,9.314,0,0,1-1.165-.947,2.4,2.4,0,0,0-.348-.309,4.746,4.746,0,0,0,.719,1,5.113,5.113,0,0,0,1.959,1.431c.647.238.719.256.8.242s.032-.049-.169-.172a7.94,7.94,0,0,1-1.521-1.312A7.684,7.684,0,0,1,33.5,45.475c-.065-.211-.065-.234-.011-.207a6.981,6.981,0,0,0,1.769.613c.176.021.158.013-.137-.084a5.956,5.956,0,0,1-1.305-.626c-.475-.3-.485-.321-.568-.805l-.069-.419.018.392.021.392-.158-.136c-.086-.075-.219-.2-.3-.282l-.136-.15.27-.317.265-.322.029-.4a4.888,4.888,0,0,1,.855-2.52c.162-.229.176-.264.137-.366l-.039-.11L34,40.224a1.29,1.29,0,0,1-.356.141l-.208.044-.147.393a11.348,11.348,0,0,0-.579,2.343c0,.1-.126.3-.158.264a5.268,5.268,0,0,1,.036-1.2c.137-1.154.277-1.665.5-1.811.051-.031.082-.066.075-.075a2.8,2.8,0,0,0-.295-.1,2.962,2.962,0,0,1-.341-.11.037.037,0,0,0-.017,0c-.037,0-.062.075-.106.33" transform="translate(-27.89 -40.11)" fill="#bda0fd"/>
    </clipPath>
  </defs>
  <g id="Path_17295" data-name="Path 17295" transform="translate(0 0)" fill="#4b4b4c">
    <path d="M 21.14212989807129 33.75 L 12.85785961151123 33.75 C 11.05486965179443 33.75 9.359800338745117 33.04787826538086 8.08489990234375 31.77297019958496 L 2.227030038833618 25.91510009765625 C 0.9521200060844421 24.64019966125488 0.25 22.94511985778809 0.25 21.14212989807129 L 0.25 12.85785961151123 C 0.25 11.05486965179443 0.9521300196647644 9.359800338745117 2.22704005241394 8.084890365600586 L 8.08489990234375 2.227030038833618 C 9.359809875488281 0.9521200060844421 11.05488967895508 0.25 12.85787010192871 0.25 L 21.14213943481445 0.25 C 22.94512939453125 0.25 24.64019966125488 0.9521200060844421 25.91510009765625 2.227030038833618 L 31.77297019958496 8.08489990234375 C 33.04787826538086 9.359800338745117 33.75 11.05488014221191 33.75 12.85787010192871 L 33.75 21.14213943481445 C 33.75 22.94512939453125 33.04787826538086 24.64019966125488 31.77297019958496 25.91510009765625 L 25.91510009765625 31.77297019958496 C 24.64019966125488 33.04787826538086 22.94511985778809 33.75 21.14212989807129 33.75 Z" stroke="none"/>
    <path d="M 12.85787010192871 0.5 C 11.12166023254395 0.5 9.489370346069336 1.176120758056641 8.261669158935547 2.403799057006836 L 2.403810501098633 8.261659622192383 C 1.176120758056641 9.489360809326172 0.5 11.12165069580078 0.5 12.85786056518555 L 0.5 21.14212989807129 C 0.5 22.87833976745605 1.176120758056641 24.51062965393066 2.403799057006836 25.73833084106445 L 8.261669158935547 31.59618949890137 C 9.489360809326172 32.82387924194336 11.12165069580078 33.5 12.85786056518555 33.5 L 21.14212989807129 33.5 C 22.87833976745605 33.5 24.51062965393066 32.82387924194336 25.73833084106445 31.59619903564453 L 31.59618949890137 25.73833084106445 C 32.82387924194336 24.51063919067383 33.5 22.87834930419922 33.5 21.14213943481445 L 33.5 12.85787010192871 C 33.5 11.12165069580078 32.82387924194336 9.489360809326172 31.59618949890137 8.261669158935547 L 25.73833084106445 2.403799057006836 C 24.51062965393066 1.176120758056641 22.87833976745605 0.5 21.14213943481445 0.5 L 12.85787010192871 0.5 M 12.85787010192871 0 L 21.14213943481445 0 C 22.99864959716797 0 24.77912139892578 0.7374992370605469 26.09188079833984 2.050249099731445 L 31.94973945617676 7.908119201660156 C 33.26250076293945 9.220869064331055 34 11.00135040283203 34 12.85787010192871 L 34 21.14213943481445 C 34 22.99864959716797 33.26250076293945 24.77912902832031 31.94973945617676 26.09188079833984 L 26.09188079833984 31.94974899291992 C 24.77912139892578 33.26250076293945 22.99864959716797 34 21.14212989807129 34 L 12.85786056518555 34 C 11.00135040283203 34 9.220869064331055 33.26250076293945 7.908119201660156 31.94973945617676 L 2.050249099731445 26.09188079833984 C 0.7374992370605469 24.77912139892578 0 22.99864959716797 0 21.14212989807129 L 0 12.85786056518555 C 0 11.00135040283203 0.7374992370605469 9.220869064331055 2.050260543823242 7.908109664916992 L 7.908119201660156 2.050249099731445 C 9.220880508422852 0.7374992370605469 11.00135040283203 0 12.85787010192871 0 Z" stroke="none" fill="#7d42fb"/>
  </g>
  <g id="Group_1508" data-name="Group 1508" transform="translate(3 9.91)">
    <g id="Group_441" data-name="Group 441">
      <g id="Group_440" data-name="Group 440" clip-path="url(#clip-path)">
        <rect id="Rectangle_87" data-name="Rectangle 87" width="13.682" height="8.731" transform="translate(-0.018 0)" fill="#bda0fd"/>
      </g>
    </g>
    <g id="Group_443" data-name="Group 443" transform="translate(14.091 2.382)">
      <g id="Group_442" data-name="Group 442" clip-path="url(#clip-path-2)">
        <rect id="Rectangle_88" data-name="Rectangle 88" width="1.391" height="2.715" transform="translate(-0.031 0)" fill="#bda0fd"/>
      </g>
    </g>
    <g id="Group_445" data-name="Group 445" transform="translate(11.874 1.553)">
      <g id="Group_444" data-name="Group 444" clip-path="url(#clip-path-3)">
        <rect id="Rectangle_89" data-name="Rectangle 89" width="4.052" height="2.766" transform="translate(-0.012 -0.045)" fill="#bda0fd"/>
      </g>
    </g>
    <g id="Group_447" data-name="Group 447" transform="translate(12.999 0.861)">
      <g id="Group_446" data-name="Group 446" clip-path="url(#clip-path-4)">
        <rect id="Rectangle_90" data-name="Rectangle 90" width="1.74" height="2.735" transform="translate(0 0)" fill="#bda0fd"/>
      </g>
    </g>
    <g id="Group_449" data-name="Group 449" transform="translate(12.287 2.38)">
      <g id="Group_448" data-name="Group 448" clip-path="url(#clip-path-5)">
        <rect id="Rectangle_91" data-name="Rectangle 91" width="1.327" height="2.533" transform="translate(0 0)" fill="#bda0fd"/>
      </g>
    </g>
    <g id="Group_451" data-name="Group 451" transform="translate(14.084 0.007)">
      <g id="Group_450" data-name="Group 450" clip-path="url(#clip-path-6)">
        <path id="Path_84" data-name="Path 84" d="M0,0H13.689V8.711H0Z" fill="#bda0fd"/>
      </g>
    </g>
    <g id="Group_453" data-name="Group 453" transform="translate(9.446 7.419)">
      <g id="Group_452" data-name="Group 452" clip-path="url(#clip-path-7)">
        <rect id="Rectangle_93" data-name="Rectangle 93" width="8.845" height="12.113" transform="translate(0 -0.018)" fill="#bda0fd"/>
      </g>
    </g>
  </g>
</svg>
