<svg xmlns="http://www.w3.org/2000/svg" width="57.173" height="57.173" viewBox="0 0 57.173 57.173"><g transform="translate(1.679)"><rect width="57.173" height="57.173" rx="28.586" transform="translate(-1.679)" fill="#fff"/><path d="M21.478,8.226c.015.213.015.425.015.638A13.864,13.864,0,0,1,7.534,22.823,13.865,13.865,0,0,1,0,20.621a10.15,10.15,0,0,0,1.185.061,9.826,9.826,0,0,0,6.091-2.1,4.915,4.915,0,0,1-4.587-3.4,6.187,6.187,0,0,0,.927.076,5.189,5.189,0,0,0,1.291-.167A4.907,4.907,0,0,1,.972,10.277v-.061a4.941,4.941,0,0,0,2.218.623A4.914,4.914,0,0,1,1.671,4.277,13.946,13.946,0,0,0,11.787,9.411a5.539,5.539,0,0,1-.122-1.124A4.911,4.911,0,0,1,20.157,4.93,9.659,9.659,0,0,0,23.27,3.745a4.893,4.893,0,0,1-2.157,2.7,9.836,9.836,0,0,0,2.825-.759,10.547,10.547,0,0,1-2.461,2.537Z" transform="translate(15.321 15.619)"/></g></svg>