<svg xmlns="http://www.w3.org/2000/svg" width="57.173" height="57.173" viewBox="0 0 57.173 57.173"><rect width="57.173" height="57.173" rx="28.586" fill="#fff"/><path d="M22.1,6.866a2.7,2.7,0,0,0-1.9-1.913C18.525,4.5,11.8,4.5,11.8,4.5s-6.724,0-8.4.452A2.7,2.7,0,0,0,1.5,6.866a28.342,28.342,0,0,0-.449,5.209A28.342,28.342,0,0,0,1.5,17.284a2.662,2.662,0,0,0,1.9,1.883c1.677.452,8.4.452,8.4.452s6.724,0,8.4-.452a2.662,2.662,0,0,0,1.9-1.883,28.342,28.342,0,0,0,.449-5.209A28.342,28.342,0,0,0,22.1,6.866ZM9.6,15.272V8.877l5.62,3.2-5.62,3.2Z" transform="translate(17.004 16.564)"/></svg>