<svg width="228" height="272" viewBox="0 0 228 272" fill="none" xmlns="http://www.w3.org/2000/svg">
<path d="M203.31 321.781C179.441 315.972 160.517 296.958 154.079 273.323C146.995 247.288 164.518 219.06 149.004 194.751C145.366 189.089 138.588 187.273 132.607 190.357C119.177 197.186 108.404 207.657 97.1513 217.295C88.6862 224.4 78.1577 231.773 66.7044 232.102C39.5695 232.798 38.4112 195.58 40.1756 177.189C42.7371 150.576 48.0866 121.429 31.8214 97.7384C23.7288 85.9624 12.3854 79.7594 -0.599816 74.874C-11.02 70.9103 -25.2314 67.1024 -27.075 54.3059C-28.0369 47.8384 -35.8549 44.2204 -41.6451 45.7152C-48.427 47.413 -51.2562 54.0364 -50.2358 60.2853C-48.4779 71.6528 -40.7754 80.5123 -31.5755 86.8439C-21.8583 93.4312 -10.255 95.603 0.0323528 100.937C21.9989 112.096 20.4934 139.578 18.1646 160.512C15.5487 183.83 12.6556 207.309 23.9879 228.857C34.2798 248.604 54.5773 259.433 76.6135 255.027C104.6 249.403 120.327 223.505 144.69 211.287C139.225 209.822 133.759 208.358 128.293 206.893C135.89 218.771 129.848 235.195 128.338 248.265C126.775 262.843 129.222 277.325 134.841 290.898C145.898 317.411 169.099 338.391 197.26 345.234C212.164 348.642 218.374 325.466 203.31 321.781Z" fill="white"/>
</svg>
