<svg width="297" height="366" viewBox="0 0 297 366" fill="none" xmlns="http://www.w3.org/2000/svg">
<path opacity="0.6" d="M434.703 316.017C376.183 340.285 309.119 351.214 247.374 332.571C191.273 315.696 147.906 272.784 126.949 218.622C116.47 191.782 111.15 163.174 111.311 134.405C111.472 120.744 111.795 105.636 116.631 92.779C118.727 87.1538 122.112 81.6894 127.594 78.9572C131.463 77.0285 137.911 76.0643 141.297 79.6001C149.357 88.2789 140.974 107.244 135.493 114.958C128.238 125.244 116.47 132.959 103.895 134.244C75.1996 137.137 50.5341 113.19 37.9595 89.8861C11.037 39.9026 24.7401 -30.492 70.202 -65.3679C75.3608 -69.3859 78.1014 -75.654 74.5547 -81.922C71.6529 -87.065 63.1086 -90.1186 57.9498 -86.2613C6.52307 -46.8853 -13.9509 26.0808 9.90854 86.5109C22.4831 118.172 48.2771 148.709 82.9378 156.584C118.727 164.781 154.839 143.245 165.479 108.208C170.476 91.8146 169.67 70.2784 154.677 59.3496C140.652 49.2243 120.5 52.5994 107.926 63.5282C93.739 75.9035 90.0311 95.6719 88.2578 113.512C86.4844 130.709 86.8069 148.066 88.9027 165.102C97.2857 233.408 133.236 299.302 193.53 335.142C268.332 379.662 363.447 371.465 441.152 339.321C447.117 336.91 451.469 331.285 449.535 324.535C447.923 318.749 440.829 313.445 434.703 316.017Z" fill="white"/>
</svg>
