<svg width="231" height="204" viewBox="0 0 231 204" fill="none" xmlns="http://www.w3.org/2000/svg">
<path opacity="0.9" d="M246.59 1.52485C227.579 -4.34276 208.848 7.53216 199.063 23.3188C188.578 40.0834 188.299 62.576 174.879 77.3847C169.987 82.8332 163.557 86.8846 156.148 85.0685C150.556 83.6714 145.943 79.4803 142.029 75.5685C131.685 65.5098 122.879 53.076 109.179 47.2084C76.0499 32.8188 46.4151 71.3774 57.598 102.392C61.0927 111.892 67.1036 119.576 72.9746 127.679C78.0069 134.524 83.0393 141.649 83.4586 150.311C83.878 158.553 78.2866 162.605 70.3187 161.487C61.0928 160.09 53.8238 153.105 46.9743 147.237C38.4472 140.112 28.5224 131.451 16.5007 133.546C4.33924 135.642 -0.972693 147.517 0.145608 158.833C1.26391 170.568 7.69407 180.208 14.2641 189.568C19.4362 196.972 27.9632 208.288 22.5115 217.369C15.662 228.965 33.6945 239.582 40.6838 227.987C51.8668 208.987 39.9849 190.127 29.2213 174.34C26.8449 170.708 24.1889 167.075 22.6513 163.024C21.9523 161.208 21.3932 159.252 21.1137 157.436C20.9739 156.597 21.3932 155.34 21.1137 154.502C20.4147 152.127 22.0922 154.642 19.9954 154.083C28.103 156.318 34.8127 164.421 41.2429 169.45C55.7808 180.906 77.308 188.869 93.663 175.737C108.341 163.862 106.244 142.348 97.9965 127.259C90.7276 113.848 73.9532 101.274 76.6091 84.3699C78.2866 73.4729 87.5125 61.4583 99.674 65.7892C111.416 69.9803 119.244 82.5538 127.771 90.9361C138.535 101.274 151.675 108.679 167.051 105.745C188.439 101.693 199.901 80.5979 206.331 61.7377C211.224 47.4878 219.471 15.0762 241.278 21.7821C253.999 25.6938 259.59 5.43659 246.59 1.52485Z" fill="white"/>
</svg>
