<svg width="219" height="179" viewBox="0 0 219 179" fill="none" xmlns="http://www.w3.org/2000/svg">
<path opacity="0.9" d="M217.475 246.59C223.343 227.579 211.468 208.848 195.681 199.063C178.917 188.578 156.424 188.299 141.615 174.879C136.167 169.987 132.115 163.557 133.932 156.148C135.329 150.556 139.52 145.943 143.431 142.029C153.49 131.685 165.924 122.879 171.792 109.179C186.181 76.0499 147.623 46.4151 116.608 57.598C107.108 61.0927 99.4244 67.1036 91.3215 72.9746C84.4759 78.007 77.351 83.0393 68.6893 83.4586C60.4467 83.878 56.3952 78.2866 57.5128 70.3187C58.9099 61.0928 65.8952 53.8238 71.7628 46.9743C78.8877 38.4473 87.5494 28.5224 85.4539 16.5007C83.3583 4.33926 71.4833 -0.972674 60.1672 0.145629C48.432 1.26393 38.7924 7.69409 29.4321 14.2641C22.0278 19.4362 10.7117 27.9632 1.63082 22.5116C-9.9647 15.662 -20.5823 33.6945 -8.98674 40.6839C10.0132 51.8668 28.8733 39.9849 44.66 29.2213C48.2923 26.8449 51.9246 24.189 55.9761 22.6513C57.7922 21.9524 59.7481 21.3932 61.5643 21.1137C62.4025 20.9739 63.6599 21.3932 64.4981 21.1137C66.8731 20.4147 64.3584 22.0922 64.9172 19.9954C62.6819 28.103 54.579 34.8128 49.5497 41.243C38.0938 55.7808 30.1307 77.308 43.2629 93.6631C55.1379 108.341 76.6524 106.244 91.7406 97.9965C105.152 90.7276 117.726 73.9532 134.63 76.6091C145.527 78.2866 157.542 87.5125 153.211 99.674C149.02 111.416 136.446 119.244 128.064 127.771C117.726 138.535 110.321 151.675 113.255 167.051C117.307 188.439 138.402 199.901 157.262 206.331C171.512 211.224 203.924 219.471 197.218 241.278C193.306 253.999 213.563 259.59 217.475 246.59Z" fill="white"/>
</svg>
