<svg width="188" height="363" viewBox="0 0 188 363" fill="none" xmlns="http://www.w3.org/2000/svg">
<path opacity="0.8" d="M176.922 479.065C146.102 460.456 124.659 426.339 122.862 390.119C120.887 350.61 138.233 311.719 126.669 272.497C116.498 237.818 86.5134 212.488 49.0297 221.478C30.5338 225.907 14.2536 237.293 -1.47016 247.477C-14.79 256.139 -30.5344 267.557 -47.1209 267.963C-53.2109 268.19 -61.3035 266.846 -63.3113 260.009C-66.0099 251.249 -58.6949 240.509 -54.6127 233.444C-40.7174 209.878 -26.6144 186.431 -12.5113 162.984C-8.62531 156.499 -11.6608 149.762 -17.1648 145.617C-34.0925 132.944 -57.847 138.079 -74.2589 148.974C-83.9948 155.271 -91.9245 163.717 -100.401 171.432C-107.458 177.889 -115.859 185.233 -125.896 185.815C-131.286 186.03 -141.238 184.306 -142.622 177.828C-143.556 173.688 -140.258 168.942 -138.545 165.497C-135.948 160.762 -133.394 155.864 -131.584 150.813C-125.61 133.759 -129.062 114.314 -137.76 98.908C-148.406 80.1614 -166.646 67.8392 -187.969 65.6506C-204.219 64.0341 -204.248 89.5047 -188.162 91.1651C-169.562 93.0297 -155.328 112.045 -154.042 129.963C-153.276 141.348 -158.834 148.807 -163.405 158.637C-169.45 171.495 -169.993 185.865 -160.294 197.139C-141.608 218.999 -110.551 212.258 -90.6775 196.572C-76.0047 185.09 -51.2841 151.423 -29.7277 167.597C-31.2643 161.863 -32.8447 155.965 -34.3813 150.23C-47.2398 171.763 -60.2185 193.504 -73.0771 215.036C-83.3704 232.37 -95.9333 254.35 -84.6073 274.32C-75.5706 290.337 -56.4315 294.867 -39.4641 292.603C-19.8294 289.801 -2.52157 278.314 13.8142 267.791C28.642 258.198 45.6309 244.866 64.0327 244.677C80.3352 244.523 91.9578 255.106 98.6964 269.105C116.579 306.985 95.4761 350.219 97.4513 389.728C99.8152 435.279 125.301 477.268 164.316 500.882C178.09 509.659 190.817 487.634 176.922 479.065Z" fill="white"/>
</svg>
