<svg width="274" height="395" viewBox="0 0 274 395" fill="none" xmlns="http://www.w3.org/2000/svg">
<path opacity="0.6" d="M-160.703 49.9832C-102.183 25.7147 -35.1189 14.7857 26.6255 33.4291C82.7274 50.3045 126.094 93.2164 147.051 147.379C157.53 174.218 162.85 202.826 162.689 231.595C162.528 245.256 162.205 260.364 157.369 273.221C155.273 278.846 151.888 284.311 146.406 287.043C142.537 288.972 136.089 289.936 132.703 286.4C124.643 277.721 133.026 258.756 138.507 251.042C145.762 240.756 157.53 233.041 170.105 231.756C198.8 228.863 223.466 252.81 236.04 276.114C262.963 326.097 249.26 396.492 203.798 431.368C198.639 435.386 195.899 441.654 199.445 447.922C202.347 453.065 210.891 456.119 216.05 452.261C267.477 412.885 287.951 339.919 264.091 279.489C251.517 247.828 225.723 217.291 191.062 209.416C155.273 201.219 119.161 222.756 108.521 257.792C103.524 274.185 104.33 295.722 119.323 306.651C133.348 316.776 153.5 313.401 166.074 302.472C180.261 290.097 183.969 270.328 185.742 252.488C187.516 235.292 187.193 217.934 185.097 200.898C176.714 132.592 140.764 66.6978 80.4704 30.8576C5.66784 -13.6614 -89.4475 -5.46471 -167.152 26.679C-173.117 29.0898 -177.469 34.7149 -175.535 41.465C-173.923 47.2509 -166.829 52.5547 -160.703 49.9832Z" fill="white"/>
</svg>
