<svg width="154" height="219" viewBox="0 0 154 219" fill="none" xmlns="http://www.w3.org/2000/svg">
<path opacity="0.8" d="M-84.8234 217.528C-66.4111 223.194 -48.2696 211.726 -38.7927 196.482C-28.6389 180.293 -28.3682 158.573 -15.3713 144.272C-10.6328 139.011 -4.40512 135.099 2.77024 136.852C8.18562 138.201 12.6533 142.249 16.444 146.026C26.4625 155.74 34.9917 167.746 48.2593 173.412C80.3454 187.308 109.047 150.073 98.2162 120.124C94.8316 110.95 89.01 103.53 83.3239 95.7053C78.4501 89.0948 73.5762 82.2145 73.1701 73.8502C72.7639 65.8906 78.1792 61.9782 85.8961 63.0575C94.8315 64.4066 101.871 71.152 108.505 76.8181C116.764 83.6985 126.376 92.0628 138.019 90.0391C149.798 88.0155 154.942 76.5483 153.859 65.6207C152.776 54.2885 146.548 44.9798 140.185 35.9409C135.176 28.7908 126.918 17.8632 132.198 9.09418C138.831 -2.10321 121.367 -12.3562 114.598 -1.15884C103.767 17.1887 115.275 35.4013 125.699 50.6459C128.001 54.1535 130.573 57.6612 132.062 61.5735C132.739 63.3273 133.281 65.216 133.551 66.9698C133.687 67.7793 133.281 68.9935 133.551 69.8029C134.228 72.0963 132.604 69.668 134.634 70.2076C126.782 68.0491 120.284 60.2244 114.056 55.3677C99.9762 44.3052 79.127 36.6155 63.287 49.2969C49.0717 60.7641 51.1024 81.5399 59.0901 96.11C66.1301 109.061 82.3762 121.203 79.8039 137.527C78.1792 148.05 69.2439 159.652 57.4655 155.47C46.0932 151.422 38.5117 139.281 30.2532 131.186C19.8286 121.203 7.10255 114.053 -7.78972 116.886C-28.5035 120.798 -39.6051 141.169 -45.8328 159.382C-50.5712 173.143 -58.5589 204.441 -79.6788 197.966C-91.9988 194.188 -97.4141 213.75 -84.8234 217.528Z" fill="white"/>
</svg>
