<svg width="297" height="374" viewBox="0 0 297 374" fill="none" xmlns="http://www.w3.org/2000/svg">
<path opacity="0.85" d="M524.459 213.21C474.214 251.797 412.263 279.711 347.798 277.684C289.24 275.904 236.245 245.678 201.983 198.786C184.915 175.572 172.372 149.316 165.081 121.486C161.701 108.249 158.103 93.5725 159.447 79.9014C160.015 73.9255 161.871 67.771 166.458 63.7132C169.696 60.8489 175.675 58.2485 179.861 60.7876C189.893 67.0844 186.704 87.5727 183.406 96.443C179.061 108.256 169.69 118.754 157.877 123.25C130.907 133.471 100.884 116.724 82.7068 97.4688C43.765 56.1565 38.7817 -15.3861 73.6679 -60.8401C77.611 -66.0563 78.6359 -72.8202 73.5878 -77.9567C69.4538 -82.1734 60.4103 -82.9115 56.4256 -77.8505C16.9425 -26.5059 16.0512 49.273 54.7381 101.469C75.0788 128.797 107.897 151.617 143.415 150.253C180.106 148.907 209.413 118.759 210.623 82.162C211.207 65.0338 204.855 44.44 187.544 37.764C171.376 31.6138 152.785 40.0894 143.467 53.9004C132.967 69.5259 134.502 89.5803 137.406 107.271C140.144 124.341 144.948 141.024 151.382 156.937C177.158 220.745 228.938 275.09 296.453 294.104C380.229 317.746 469.982 285.21 536.719 234.051C541.857 230.178 544.605 223.618 540.99 217.599C537.935 212.427 529.711 209.14 524.459 213.21Z" fill="white"/>
</svg>
