<svg width="661" height="665" viewBox="0 0 661 665" fill="none" xmlns="http://www.w3.org/2000/svg">
<g clip-path="url(#clip0_125_62)">
<path d="M45.465 169.45L104.035 136.26C105.912 135.001 108.12 134.329 110.38 134.329C112.64 134.329 114.848 135.001 116.725 136.26L124.534 141.141C124.534 141.141 129.228 145.005 137.224 140.165L377.364 2.52507C377.364 2.52507 387.691 -4.41393 388.102 7.40607V245.592C388.102 245.592 389.155 255.574 381.269 260.235L51.322 443.755L44.489 447.655C44.489 447.655 33.248 451.422 32.775 439.846V196.782C32.775 196.782 31.575 176.568 45.465 169.45Z" stroke="#FEF2EB"/>
<path d="M65.964 181.164L124.534 147.974C124.534 147.974 130.723 143.447 137.224 147.974L145.033 152.855C145.033 152.855 150.039 156.968 157.723 151.879L397.863 14.2391C397.863 14.2391 408.19 7.30006 408.601 19.1201V257.306C408.601 257.306 409.654 267.288 401.768 271.949L71.821 455.469L64.988 459.369C64.988 459.369 53.746 463.135 53.274 451.56V208.496C53.274 208.496 52.245 187.761 65.964 181.164Z" stroke="#FEF2EB"/>
<path d="M87.44 193.854L146.01 160.664C146.01 160.664 152.344 156.593 158.7 160.664L166.543 165.564C166.909 166.193 172.217 168.738 179.196 164.564L419.339 26.9291C419.339 26.9291 429.666 19.9901 430.077 31.8101V269.996C430.077 269.996 431.13 279.978 423.244 284.639L93.297 468.159L86.464 472.059C86.464 472.059 75.222 475.825 74.75 464.25V221.186C74.75 221.186 73.107 200.972 87.44 193.854Z" stroke="#FEF2EB"/>
<path d="M12.274 327.59L93.296 280.734V357.852L12.274 404.521C12.274 404.521 0.559987 411.556 0.559987 395.921V344.185C0.559987 344.185 -0.684024 333.192 12.274 327.59Z" fill="#262423" stroke="#FEF2EB"/>
<path d="M29.846 345.161V337.352C29.846 337.352 27.823 331.983 33.746 326.614L40.579 322.714V329.547C40.579 329.547 35.488 329.757 35.698 336.38V343.217C35.698 343.217 36.464 349.284 31.798 351.026C31.798 351.026 35.911 352.49 35.698 355.907V363.717C35.698 363.717 36.325 367.552 39.598 364.693V372.502L34.717 374.454C34.717 374.454 29.836 375.361 29.836 370.554V362.745C29.836 362.745 30.323 357.655 25.936 358.845V352.007C27.1234 351.301 28.1077 350.299 28.7929 349.099C29.4781 347.899 29.8409 346.543 29.846 345.161Z" fill="#B0D775"/>
<path d="M52.298 321.733V315.876C64.012 307.787 63.036 316.852 63.036 316.852V324.666C63.244 329.338 67.917 328.566 67.917 328.566V334.423C65.894 334.772 64.988 338.323 64.988 338.323C62.826 340.066 63.036 351.013 63.036 351.013C63.1732 352.6 62.9841 354.198 62.4804 355.709C61.9767 357.22 61.1689 358.612 60.107 359.799L53.274 364.68V357.847C54.5897 357.489 55.7635 356.735 56.6365 355.687C57.5095 354.639 58.0396 353.349 58.155 351.99V342.228C57.806 336.719 61.084 335.395 61.084 335.395C56.69 336.023 57.184 329.538 57.184 329.538V323.681C56.69 318.177 52.298 321.733 52.298 321.733Z" fill="#B0D775"/>
<path d="M111.847 490.611V243.639C111.397 240.134 111.882 236.571 113.254 233.314C114.625 230.057 116.834 227.22 119.656 225.092L181.156 189.95C182.897 188.81 184.932 188.202 187.013 188.202C189.094 188.202 191.129 188.81 192.87 189.95L200.679 194.831C207.716 200.331 215.322 193.855 215.322 193.855L453.506 56.2141C468.678 48.0471 467.172 65.0001 467.172 65.0001V285.615C467.172 302.504 457.41 308.067 457.41 308.067L124.535 500.376C108.738 505.469 111.847 490.611 111.847 490.611Z" stroke="#FEF2EB"/>
<path d="M458.387 67.9281V296.353L125.512 487.683V259.258L458.387 67.9281Z" stroke="#FEF2EB" stroke-linecap="round" stroke-linejoin="round"/>
<path d="M375.958 115.372L375.583 245.791L125.489 382.76L125.558 259.173L375.958 115.372Z" stroke="#FEF2EB"/>
<path d="M422.393 88.3381V274.206L125.579 441.406" stroke="#FEF2EB" stroke-linecap="round" stroke-linejoin="round"/>
<path d="M275.593 173.099V186.537L125.486 271.761" stroke="#FEF2EB" stroke-miterlimit="10" stroke-linecap="round" stroke-linejoin="round"/>
<path d="M166.745 464.054L125.802 439.283" stroke="#FEF2EB" stroke-linecap="round"/>
<path d="M217.06 434.823L126.143 382.323L375.576 245.793L375.976 115.638" stroke="#FEF2EB" stroke-miterlimit="10" stroke-linecap="round" stroke-linejoin="round"/>
<path d="M266.316 406.347L125.789 327.578L322.699 214.435V145.802" stroke="#FEF2EB" stroke-miterlimit="10" stroke-linecap="round" stroke-linejoin="round"/>
<path d="M125.802 268.806L316.516 377.579" stroke="#FEF2EB" stroke-linecap="round"/>
<path d="M165.68 235.906L361.421 351.416" stroke="#FEF2EB" stroke-linecap="round"/>
<path d="M216.823 206.943L408.082 325.06" stroke="#FEF2EB" stroke-miterlimit="10" stroke-linecap="round"/>
<path d="M264.656 179.61L457.938 295.775" stroke="#FEF2EB" stroke-miterlimit="10" stroke-linecap="round"/>
<path d="M313.464 151.301L458.914 233.3" stroke="#FEF2EB" stroke-miterlimit="10" stroke-linecap="round"/>
<path d="M363.665 122.27L458.425 176.97" stroke="#FEF2EB" stroke-linecap="round"/>
<path d="M410.918 95.5291L458.426 121.267" stroke="#FEF2EB" stroke-linecap="round"/>
<path d="M105.987 211.425L163.581 179.211C163.581 179.211 169.064 175.577 175.081 177.768L191.351 188.668C191.351 188.668 184.915 186.968 181.151 189.948L121.604 224.114C121.604 224.114 113.196 227.771 111.842 238.757V495.492C111.862 496.85 112.196 498.185 112.818 499.392L96.223 490.606C96.223 490.606 93.294 488.648 93.294 479.868V238.758C93.294 238.758 92.014 218.172 105.987 211.425Z" stroke="#FEF2EB"/>
<path d="M196.771 183.117L434.958 45.4761C434.958 45.4761 439.968 40.4671 446.672 43.5241L463.631 54.6851C462.393 54.2209 461.071 54.0212 459.751 54.0991C457.511 54.2023 455.347 54.9354 453.505 56.2141L212.39 195.807C212.39 195.807 206.551 199.118 201.652 195.807L186.623 185.507C190.183 185.949 193.783 185.101 196.771 183.117Z" stroke="#FEF2EB" stroke-linecap="round" stroke-linejoin="round"/>
<path d="M167.304 210.279C170.64 208.556 173.344 210.219 173.344 213.993C173.24 216.022 172.633 217.994 171.579 219.731C170.525 221.468 169.056 222.916 167.304 223.945C163.968 225.668 161.265 224.005 161.265 220.231C161.369 218.202 161.975 216.23 163.029 214.493C164.083 212.756 165.552 211.308 167.304 210.279Z" stroke="#FEF2EB"/>
<path d="M149.182 219.631C152.518 217.908 155.222 219.571 155.222 223.345C155.118 225.374 154.511 227.346 153.457 229.083C152.403 230.82 150.934 232.268 149.182 233.297C145.846 235.02 143.142 233.357 143.142 229.583C143.246 227.554 143.853 225.582 144.907 223.845C145.961 222.108 147.43 220.66 149.182 219.631Z" stroke="#FEF2EB"/>
<path d="M131.063 228.989C134.399 227.266 137.104 228.929 137.104 232.703C137 234.732 136.393 236.704 135.339 238.441C134.284 240.178 132.815 241.626 131.063 242.655C127.727 244.378 125.023 242.715 125.023 238.941C125.127 236.912 125.734 234.94 126.788 233.203C127.842 231.466 129.311 230.018 131.063 228.989Z" stroke="#FEF2EB"/>
<path d="M199.851 338.86L312.74 277.359C312.74 277.359 337.476 262.967 328.866 225.093C328.866 225.093 323.273 203.233 295.834 213.876C295.834 213.876 283.321 189.158 248.134 208.75C248.134 208.75 213.075 226.355 207.989 273.572C207.989 273.572 173.136 288.226 175.922 324.721C175.922 324.721 180.709 341.078 199.851 338.86Z" fill="#262423" stroke="#FEF2EB" stroke-width="2"/>
<path d="M244.644 236.206C245.865 235.164 247.442 235.166 248.168 236.211L260.645 252.487C261.458 253.452 261.178 255.141 260.017 256.261C258.796 257.304 257.219 257.302 256.492 256.257L244.016 239.981C243.202 239.015 243.482 237.327 244.644 236.206Z" fill="#4E8EFF"/>
<path d="M258.448 253.563C262.449 249.93 267.791 249.723 270.379 253.1C272.968 256.477 271.825 262.163 267.822 265.792C263.819 269.421 258.478 269.627 255.891 266.254C253.305 262.882 254.447 257.194 258.448 253.563Z" fill="#4E8EFF"/>
<path d="M273.93 225.944C274.249 226.015 274.549 226.156 274.809 226.357C275.068 226.557 275.279 226.813 275.429 227.104C275.578 227.396 275.661 227.717 275.673 228.044C275.684 228.372 275.623 228.698 275.494 228.999L268.358 251.702C268.168 252.35 267.773 252.918 267.234 253.324C266.694 253.729 266.038 253.948 265.363 253.95C265.287 253.944 265.212 253.933 265.137 253.917C264.817 253.846 264.517 253.705 264.257 253.505C263.998 253.305 263.785 253.05 263.635 252.758C263.486 252.467 263.402 252.146 263.39 251.818C263.378 251.49 263.439 251.164 263.568 250.863L270.706 228.16C270.895 227.511 271.289 226.941 271.829 226.535C272.369 226.129 273.027 225.909 273.703 225.908C273.781 225.914 273.859 225.925 273.936 225.941" fill="#4E8EFF"/>
<path d="M230.065 265.76C230.038 266.081 230.087 266.405 230.206 266.705C230.326 267.004 230.513 267.273 230.753 267.488C230.994 267.703 231.281 267.86 231.592 267.946C231.903 268.032 232.23 268.045 232.547 267.984L254.352 264.42C255.02 264.281 255.627 263.936 256.089 263.433C256.55 262.931 256.843 262.296 256.924 261.619C256.932 261.536 256.935 261.453 256.934 261.37C256.961 261.049 256.912 260.725 256.793 260.425C256.673 260.126 256.486 259.858 256.246 259.642C256.006 259.427 255.719 259.27 255.408 259.184C255.097 259.098 254.77 259.085 254.453 259.146L232.646 262.706C231.979 262.845 231.371 263.19 230.91 263.692C230.448 264.194 230.156 264.828 230.074 265.505C230.067 265.589 230.064 265.674 230.064 265.757" fill="#4E8EFF"/>
<path d="M292.866 240.655C292.371 239.43 290.909 239.082 289.548 239.866L269.462 252.36C268.86 252.719 268.396 253.269 268.144 253.923C267.892 254.577 267.867 255.297 268.073 255.966L268.114 256.058C268.61 257.279 270.071 257.627 271.432 256.842L291.519 244.348C292.121 243.99 292.585 243.439 292.837 242.785C293.088 242.131 293.113 241.412 292.907 240.742C292.894 240.713 292.881 240.685 292.866 240.651" fill="#4E8EFF"/>
<path d="M291.071 269.537C291.711 268.074 291.258 266.609 290.03 266.17L270.795 259.042C270.153 258.863 269.469 258.916 268.862 259.19C268.255 259.465 267.764 259.944 267.474 260.544C267.436 260.612 267.4 260.68 267.365 260.75C266.728 262.212 267.181 263.675 268.406 264.118L287.645 271.248C288.286 271.425 288.969 271.372 289.575 271.098C290.181 270.823 290.672 270.345 290.962 269.746C291.001 269.677 291.037 269.604 291.071 269.537Z" fill="#4E8EFF"/>
<path d="M240.201 288.466C239.181 287.716 239.129 286.089 240.081 284.771L254.975 265.509C255.96 264.296 257.531 263.92 258.483 264.671C258.507 264.69 258.531 264.709 258.553 264.729C259.573 265.479 259.626 267.105 258.674 268.422L243.78 287.686C242.796 288.899 241.225 289.274 240.272 288.525C240.248 288.506 240.224 288.486 240.201 288.466Z" fill="#4E8EFF"/>
<path d="M267.045 291.439C266.746 291.559 266.422 291.608 266.1 291.583C265.778 291.557 265.467 291.457 265.19 291.291C264.913 291.124 264.679 290.896 264.505 290.624C264.331 290.352 264.222 290.043 264.188 289.722L261.194 267.847C261.127 267.163 261.28 266.476 261.632 265.886C261.983 265.295 262.514 264.832 263.146 264.565C263.214 264.533 263.283 264.506 263.354 264.484C263.654 264.365 263.978 264.316 264.299 264.342C264.621 264.369 264.932 264.469 265.209 264.636C265.485 264.802 265.719 265.031 265.893 265.303C266.066 265.575 266.175 265.884 266.209 266.205L269.206 288.077C269.273 288.76 269.12 289.447 268.769 290.038C268.418 290.629 267.888 291.092 267.255 291.36C267.188 291.392 267.117 291.418 267.045 291.439Z" fill="#4E8EFF"/>
<path d="M253.416 247.01C245.147 254.465 242.74 266.177 248.04 273.169C253.339 280.161 264.337 279.785 272.605 272.329C280.872 264.873 283.28 253.162 277.982 246.171L277.94 246.116C272.628 239.167 261.657 239.568 253.416 247.01ZM250.438 243.125C261.195 233.293 275.611 232.669 282.642 241.73C289.672 250.791 286.637 266.112 275.884 275.943C265.13 285.774 250.707 286.4 243.68 277.337L243.627 277.267C236.639 268.202 239.689 252.918 250.438 243.125Z" fill="#4E8EFF"/>
<path d="M543.241 48.5511L653.21 113.573C657.078 115.86 660.21 121.992 660.21 127.273V197.973C660.21 203.249 657.074 205.673 653.21 203.386L543.241 138.359C539.372 136.072 536.241 129.94 536.241 124.659V53.9591C536.241 48.6821 539.376 46.2591 543.241 48.5461" stroke="#FEF2EB"/>
<path d="M543.241 48.5511L653.21 113.573C657.078 115.86 660.21 121.992 660.21 127.273V197.973C660.21 203.249 657.074 205.673 653.21 203.386L543.241 138.359C539.372 136.072 536.241 129.94 536.241 124.659V53.9591C536.237 48.6871 539.372 46.2641 543.241 48.5511Z" stroke="#262423"/>
<path d="M530.551 58.3121L640.52 123.334C644.388 125.621 647.52 131.753 647.52 137.034V207.734C647.52 213.01 644.384 215.434 640.52 213.147L530.551 148.12C526.682 145.833 523.551 139.701 523.551 134.42V63.7201C523.547 58.4481 526.682 56.0251 530.551 58.3121Z" stroke="#FEF2EB"/>
<path d="M506.219 72.8101L611.651 133.333C611.651 133.333 622.975 137.639 621.413 152.856V219.236C621.413 219.236 623.625 230.7 610.675 224.117L505.243 162.618C505.243 162.618 498.41 159.118 498.41 148.952V79.6431C498.41 79.6431 497.434 67.7661 506.219 72.8101Z" stroke="#262423"/>
<path d="M510.1 65.9531C510.1 65.9531 511.612 64.5241 514.981 66.9291L620.435 127.471C623.341 129.178 625.763 131.598 627.472 134.503C629.18 137.408 630.118 140.702 630.197 144.071V214.351C630.197 214.351 630.57 219.779 628.245 221.208L621.412 225.108V147.971C621.412 147.971 620.533 137.634 614.579 135.281L502.29 69.8571L510.1 65.9531Z" stroke="#FEF2EB"/>
<path d="M632.71 365.102C635.248 362.238 628.22 359.115 628.22 359.115" stroke="#FEF2EB" stroke-linecap="round"/>
<path d="M476.286 369.182L542.786 408.253C545.598 409.664 548.685 410.443 551.83 410.536C554.975 410.628 558.102 410.033 560.992 408.79C560.992 408.79 633.229 365.004 633.302 364.972L633.316 368.078L633.603 427.47C633.603 427.47 634.115 429.07 630.674 431.37L559.41 476.27C559.41 476.27 553.821 479.947 545.744 476.27L478.388 435.27C478.388 435.27 474.51 433.456 474.491 430.389L473.604 364.389C473.604 364.389 473.162 366.888 476.286 369.182Z" stroke="#FEF2EB" stroke-linecap="round" stroke-linejoin="round"/>
<path d="M542.82 382.566C542.82 382.566 552.086 388.584 561.367 383.542L627.747 345.471C627.747 345.471 632.628 342.542 632.628 339.614V354.365C632.678 354.909 632.541 355.455 632.238 355.91C631.775 356.504 631.22 357.021 630.595 357.441L563.319 398.184C563.319 398.184 553.737 403.726 541.843 397.208L478.392 360.114C478.392 360.114 473.192 357.43 473.511 354.257V340.59L542.82 382.566Z" stroke="#FEF2EB" stroke-linecap="round" stroke-linejoin="round"/>
<path d="M476.44 335.709L545.748 294.709C545.748 294.709 554.948 291.78 560.391 295.685L627.747 333.756C627.747 333.756 636.777 337.905 629.699 344.494L560.391 384.517C560.391 384.517 550.791 389.398 541.844 382.565L478.392 345.462C478.392 345.462 468.309 341.801 476.44 335.7" fill="#262423"/>
<path d="M476.439 335.709L545.747 294.709C545.747 294.709 552.2 289.885 560.39 295.685L627.746 333.756C627.746 333.756 637.256 338.004 629.698 344.494L560.39 384.518C557.372 385.719 554.107 386.169 550.876 385.829C547.645 385.489 544.545 384.369 541.843 382.566L478.392 345.471C478.392 345.471 468.793 340.883 476.439 335.709Z" stroke="#FEF2EB"/>
<path d="M538.502 456.844C539.008 456.731 539.536 456.777 540.014 456.976C540.492 457.176 540.896 457.519 541.17 457.958C541.445 458.398 541.576 458.911 541.546 459.428C541.516 459.945 541.326 460.44 541.002 460.845C540.679 461.249 540.238 461.543 539.74 461.686C539.242 461.829 538.712 461.814 538.223 461.642C537.734 461.471 537.311 461.152 537.011 460.73C536.711 460.307 536.55 459.802 536.55 459.284C536.493 458.703 536.665 458.123 537.029 457.667C537.394 457.211 537.923 456.916 538.502 456.844ZM529.755 452.002C530.261 451.888 530.789 451.935 531.267 452.134C531.745 452.334 532.149 452.677 532.423 453.116C532.698 453.556 532.829 454.069 532.799 454.586C532.769 455.104 532.579 455.599 532.255 456.003C531.932 456.407 531.491 456.701 530.993 456.844C530.495 456.987 529.965 456.972 529.476 456.8C528.987 456.629 528.564 456.31 528.264 455.888C527.964 455.465 527.803 454.96 527.803 454.442C527.746 453.861 527.918 453.281 528.283 452.825C528.647 452.369 529.176 452.074 529.755 452.002ZM481.32 425.517C481.826 425.403 482.354 425.45 482.832 425.649C483.31 425.849 483.714 426.192 483.988 426.631C484.263 427.071 484.394 427.584 484.364 428.101C484.334 428.619 484.144 429.114 483.82 429.518C483.497 429.922 483.056 430.216 482.558 430.359C482.06 430.502 481.53 430.487 481.041 430.315C480.552 430.144 480.129 429.825 479.829 429.403C479.529 428.98 479.368 428.475 479.368 427.957C479.311 427.376 479.483 426.796 479.847 426.34C480.212 425.884 480.741 425.589 481.32 425.517Z" fill="#FEF2EB"/>
<path d="M477.262 359.761C476.178 360.225 475.223 360.945 474.48 361.861C473.96 362.626 473.672 363.524 473.65 364.449" stroke="#FEF2EB" stroke-linecap="round"/>
<path d="M581.382 414.611V419.268L576.51 422.504V417.847L581.382 414.611Z" stroke="#FEF2EB"/>
<path d="M581.382 424.373V429.03L576.51 432.266V427.609L581.382 424.373Z" stroke="#FEF2EB"/>
<path d="M581.382 434.633V439.29L576.51 442.526V437.869L581.382 434.633Z" stroke="#FEF2EB"/>
<path d="M590.168 408.754V413.411L585.296 416.647V411.99L590.168 408.754Z" stroke="#FEF2EB"/>
<path d="M590.168 418.516V423.173L585.296 426.409V421.752L590.168 418.516Z" stroke="#FEF2EB"/>
<path d="M590.168 428.776V433.433L585.296 436.669V432.012L590.168 428.776Z" stroke="#FEF2EB"/>
<path d="M598.953 402.897V407.554L594.081 410.79V406.133L598.953 402.897Z" stroke="#FEF2EB"/>
<path d="M598.953 412.659V417.316L594.081 420.552V415.895L598.953 412.659Z" stroke="#FEF2EB"/>
<path d="M598.953 422.919V427.576L594.081 430.812V426.155L598.953 422.919Z" stroke="#FEF2EB"/>
<path d="M607.739 397.04V401.697L602.867 404.933V400.276L607.739 397.04Z" stroke="#FEF2EB"/>
<path d="M607.739 406.802V411.459L602.867 414.695V410.038L607.739 406.802Z" stroke="#FEF2EB"/>
<path d="M607.739 417.062V421.719L602.867 424.955V420.298L607.739 417.062Z" stroke="#FEF2EB"/>
<path d="M616.524 391.183V395.84L611.652 399.076V394.419L616.524 391.183Z" stroke="#FEF2EB"/>
<path d="M616.524 400.945V405.602L611.652 408.838V404.181L616.524 400.945Z" stroke="#FEF2EB"/>
<path d="M616.524 411.205V415.862L611.652 419.098V414.441L616.524 411.205Z" stroke="#FEF2EB"/>
<path d="M491.501 417.386L491.501 417.385L489.933 399.544C489.947 399.51 489.965 399.466 489.989 399.417C490.053 399.287 490.145 399.143 490.268 399.035C490.383 398.933 490.521 398.864 490.704 398.86C490.896 398.855 491.192 398.92 491.615 399.195L525.54 422.033C525.541 422.034 525.542 422.034 525.543 422.035C526.509 422.707 527.283 423.294 527.86 423.999C528.423 424.687 528.809 425.505 528.958 426.659L530.6 445.46C530.481 445.915 530.276 446.094 530.042 446.143C529.731 446.208 529.157 446.103 528.223 445.496L516.345 437.502L515.448 436.898L515.569 437.973C515.656 438.751 515.89 439.917 516.365 441.063C516.838 442.203 517.573 443.378 518.695 444.1L518.695 444.101L518.706 444.107C518.821 444.177 518.936 444.279 519.04 444.398L504.099 434.338L504.089 434.331L504.08 434.325C503.957 434.251 503.834 434.14 503.725 434.011C504.158 434.261 504.576 434.383 504.971 434.331C505.491 434.263 505.827 433.917 506.028 433.539C506.224 433.169 506.322 432.718 506.369 432.294C506.417 431.862 506.417 431.418 506.394 431.037L506.379 430.786L506.168 430.649C502.866 428.493 499.899 426.549 497.526 424.899C495.14 423.241 493.395 421.908 492.508 420.971L492.507 420.97C492.356 420.811 492.202 420.529 492.061 420.142C491.923 419.766 491.814 419.335 491.73 418.921C491.646 418.509 491.588 418.124 491.552 417.841C491.534 417.7 491.521 417.585 491.512 417.506C491.508 417.466 491.505 417.436 491.503 417.415L491.501 417.393L491.501 417.387L491.501 417.386ZM519.642 444.729C519.642 444.729 519.641 444.729 519.639 444.729C519.641 444.729 519.642 444.729 519.642 444.729ZM503.144 433.703C503.144 433.703 503.145 433.703 503.147 433.703C503.145 433.703 503.144 433.703 503.144 433.703Z" stroke="#FEF2EB"/>
<path d="M510.464 428.592C512.514 429.779 513.723 433.355 510.721 431.538C508.671 430.35 507.462 426.774 510.464 428.592Z" fill="#FEF2EB"/>
<path d="M504.582 421.025C505.37 422.14 506.892 422.306 505.826 420.845C505.729 420.724 500.573 414.384 500.476 414.263L505.197 414.508C506.128 414.378 504.486 412.48 503.84 412.53L498.263 412.241C496.475 412.028 504.476 420.523 504.584 421.025L504.582 421.025ZM514.279 427.465C514.594 427.975 515.094 428.343 515.674 428.492C524.829 429.098 522.171 429.588 514.932 419.997C514.145 418.885 512.621 418.715 513.688 420.177C513.789 420.296 518.939 426.637 519.038 426.757L514.316 426.512C513.92 426.489 513.906 426.92 514.281 427.465M506.928 424.092C507.44 424.59 508.002 424.81 508.185 424.575L513.185 418.239C513.388 418.029 513.141 417.45 512.636 416.945C512.108 416.424 511.518 416.171 511.327 416.444L506.328 422.78C506.148 423.01 506.418 423.597 506.93 424.092L506.928 424.092Z" fill="#4E8EFF"/>
<path d="M584.461 348.643L587.361 344.761C588.135 343.724 587.238 342.534 585.352 342.107L583.752 341.745C581.866 341.318 580.497 340.245 580.493 339.345C580.489 338.445 581.846 337.369 583.727 336.937L585.327 336.57C587.207 336.139 588.098 334.946 587.311 333.91L584.377 330.036C583.593 328.999 581.432 328.51 579.551 328.942L577.951 329.31C576.157 329.735 574.274 329.586 572.569 328.883C572.299 328.766 572.058 328.589 571.865 328.366C571.672 328.142 571.532 327.879 571.455 327.594C571.378 327.309 571.367 327.01 571.421 326.721C571.475 326.431 571.594 326.157 571.769 325.919L572.426 325.038C573.2 323.999 572.3 322.811 570.414 322.384L563.369 320.784C561.485 320.357 559.328 320.852 558.554 321.891L557.895 322.773C556.734 323.922 555.168 324.567 553.535 324.57C551.902 324.572 550.334 323.932 549.169 322.787L548.504 321.906C547.719 320.87 545.557 320.38 543.675 320.813L536.645 322.434C534.763 322.865 533.874 324.057 534.661 325.094L535.327 325.974C535.504 326.21 535.626 326.482 535.683 326.772C535.74 327.061 535.731 327.36 535.656 327.645C535.581 327.93 535.443 328.195 535.252 328.419C535.06 328.644 534.82 328.822 534.55 328.94C532.848 329.646 530.967 329.801 529.173 329.381L527.573 329.02C525.687 328.593 523.532 329.089 522.757 330.128L519.857 334.01C519.082 335.049 519.983 336.237 521.866 336.664L523.466 337.027C525.35 337.454 526.719 338.527 526.724 339.427C526.729 340.327 525.369 341.402 523.489 341.835L521.889 342.202C520.007 342.635 519.12 343.826 519.905 344.862L522.84 348.734C523.623 349.772 525.785 350.262 527.667 349.828L529.267 349.461C531.062 349.038 532.944 349.187 534.65 349.888C534.921 350.005 535.162 350.182 535.355 350.406C535.548 350.629 535.688 350.893 535.765 351.178C535.842 351.463 535.853 351.761 535.799 352.051C535.744 352.341 535.625 352.615 535.45 352.853L534.794 353.733C534.02 354.772 534.92 355.962 536.805 356.389L543.85 357.989C545.735 358.415 547.894 357.921 548.667 356.882L549.324 356.001C550.485 354.853 552.05 354.207 553.683 354.204C555.316 354.202 556.884 354.842 558.048 355.986L558.714 356.867C559.5 357.904 561.659 358.394 563.543 357.96L570.571 356.343C572.452 355.91 573.34 354.72 572.555 353.684L571.889 352.803C571.712 352.567 571.591 352.295 571.534 352.006C571.477 351.717 571.486 351.418 571.56 351.133C571.635 350.848 571.773 350.584 571.964 350.359C572.155 350.135 572.394 349.957 572.664 349.838C574.366 349.131 576.248 348.976 578.043 349.395L579.643 349.757C581.529 350.184 583.687 349.688 584.462 348.65L584.461 348.643ZM548.219 346.608C540.978 344.968 537.519 340.408 540.495 336.416C543.471 332.424 551.755 330.522 558.995 332.161C566.235 333.8 569.689 338.361 566.714 342.354C563.739 346.347 555.455 348.248 548.214 346.608H548.219Z" fill="#4E8EFF"/>
<path d="M504.551 71.3121L614.52 135.334C618.388 137.621 621.52 143.753 621.52 149.034V221.734C621.52 227.01 618.384 229.434 614.52 227.147L504.551 160.12C500.682 157.833 497.551 151.701 497.551 146.42V76.7201C497.547 71.4481 500.682 69.0251 504.551 71.3121Z" fill="#262423" stroke="#FEF2EB"/>
<path d="M574.797 139.589L598.225 166.922V172.779H574.797V165.946H591.397L574.797 146.422V139.589Z" fill="#B0D775"/>
<path d="M556.25 123.969L571.869 181.563L566.012 178.634L550.393 121.04L556.25 123.969Z" fill="#B0D775"/>
<path d="M547.464 123.97V130.803H530.864L547.464 150.326V158.135L523.064 129.826V123.969L547.464 123.97Z" fill="#B0D775"/>
</g>
<path d="M427.676 363.52L427.662 360.414L267.964 359.831L268.851 425.831C268.87 428.898 272.748 430.712 272.748 430.712L340.104 471.712C348.181 475.389 353.77 471.712 353.77 471.712L425.034 426.812C428.475 424.512 427.963 422.912 427.963 422.912L427.676 363.52Z" fill="#262423" stroke="#FEF2EB" stroke-linecap="round" stroke-linejoin="round"/>
<path d="M270.799 355.151L340.107 314.151C340.107 314.151 346.56 309.327 354.75 315.127L423.106 353.198C423.106 353.198 432.616 357.446 425.058 363.936L354.75 403.96C351.732 405.161 348.467 405.611 345.236 405.271C342.005 404.931 338.906 403.811 336.203 402.008L272.752 364.913C272.752 364.913 263.153 360.325 270.799 355.151Z" fill="#262423" stroke="#FEF2EB"/>
<path d="M337.18 378.008C337.18 378.008 346.446 384.026 355.727 378.984L422.107 340.913C422.107 340.913 426.988 337.984 426.988 335.056V349.807C427.039 350.351 426.901 350.897 426.598 351.352C426.135 351.946 425.581 352.463 424.955 352.883L357.679 393.626C357.679 393.626 348.097 399.168 336.203 392.65L272.752 355.556C272.752 355.556 267.552 352.872 267.871 349.699V336.032L337.18 378.008Z" fill="#262423" stroke="#FEF2EB" stroke-linecap="round" stroke-linejoin="round"/>
<path d="M270.8 331.151L340.108 290.151C340.108 290.151 349.308 287.222 354.751 291.127L422.107 329.198C422.107 329.198 431.137 333.347 424.059 339.936L354.751 379.959C354.751 379.959 345.151 384.84 336.204 378.007L272.752 340.904C272.752 340.904 262.669 337.243 270.8 331.142" fill="#262423"/>
<path d="M270.799 331.151L340.107 290.151C340.107 290.151 346.56 285.327 354.75 291.127L422.106 329.198C422.106 329.198 431.616 333.446 424.058 339.936L354.75 379.96C351.732 381.161 348.467 381.611 345.236 381.271C342.005 380.931 338.906 379.811 336.203 378.008L272.752 340.913C272.752 340.913 263.153 336.325 270.799 331.151Z" stroke="#FEF2EB"/>
<path d="M332.862 452.286C333.368 452.172 333.896 452.219 334.374 452.418C334.852 452.618 335.256 452.961 335.531 453.4C335.805 453.839 335.936 454.353 335.906 454.87C335.876 455.387 335.686 455.882 335.363 456.287C335.039 456.691 334.598 456.985 334.1 457.128C333.602 457.271 333.072 457.256 332.583 457.084C332.094 456.913 331.671 456.594 331.371 456.171C331.072 455.749 330.911 455.244 330.91 454.726C330.853 454.145 331.025 453.564 331.39 453.109C331.755 452.653 332.283 452.357 332.862 452.286ZM324.115 447.444C324.621 447.33 325.149 447.376 325.627 447.576C326.105 447.776 326.509 448.119 326.784 448.558C327.058 448.997 327.189 449.511 327.159 450.028C327.129 450.545 326.939 451.04 326.616 451.445C326.292 451.849 325.851 452.143 325.353 452.286C324.855 452.429 324.325 452.414 323.836 452.242C323.347 452.071 322.924 451.752 322.624 451.329C322.325 450.907 322.164 450.402 322.163 449.884C322.106 449.303 322.278 448.722 322.643 448.266C323.008 447.811 323.536 447.515 324.115 447.444ZM275.68 420.959C276.186 420.845 276.714 420.891 277.192 421.091C277.67 421.291 278.074 421.634 278.349 422.073C278.623 422.512 278.754 423.026 278.724 423.543C278.694 424.06 278.504 424.555 278.181 424.96C277.857 425.364 277.416 425.658 276.918 425.801C276.42 425.944 275.89 425.929 275.401 425.757C274.912 425.586 274.489 425.267 274.189 424.844C273.89 424.422 273.729 423.917 273.728 423.399C273.671 422.818 273.843 422.237 274.208 421.781C274.573 421.326 275.101 421.03 275.68 420.959Z" fill="#FEF2EB"/>
<path d="M280.561 399.483C280.561 399.483 281.712 392.007 290.323 395.583C290.323 395.583 292.389 389.998 302.037 394.607C305.611 396.791 308.621 399.784 310.825 403.345C313.029 406.906 314.366 410.935 314.727 415.107C314.727 415.107 323.26 420.2 321.56 431.707C321.56 431.707 319.782 434.664 315.703 432.683L285.442 415.112C285.442 415.112 279.698 409.883 280.561 399.483Z" stroke="#FEF2EB"/>
<path d="M303.014 403.87L307.895 413.15L303.014 416.079V403.87Z" stroke="#FEF2EB"/>
<path d="M300.085 402.412V414.126L295.204 405.34L300.085 402.412Z" stroke="#FEF2EB"/>
<path d="M302.31 398.224C302.31 398.224 311.435 402.284 311.799 415.304C311.799 415.304 311.554 425.948 300.412 420.997C297.415 419.06 294.967 416.384 293.305 413.226C291.643 410.068 290.823 406.535 290.923 402.968C290.923 402.968 290.331 393.005 302.31 398.224Z" stroke="#FEF2EB"/>
<path d="M375.742 410.053V414.71L370.87 417.945V413.289L375.742 410.053Z" stroke="#FEF2EB"/>
<path d="M375.742 419.815V424.472L370.87 427.707V423.051L375.742 419.815Z" stroke="#FEF2EB"/>
<path d="M375.742 430.075V434.732L370.87 437.967V433.311L375.742 430.075Z" stroke="#FEF2EB"/>
<path d="M384.528 404.196V408.853L379.656 412.088V407.432L384.528 404.196Z" stroke="#FEF2EB"/>
<path d="M384.528 413.958V418.615L379.656 421.85V417.194L384.528 413.958Z" stroke="#FEF2EB"/>
<path d="M384.528 424.218V428.875L379.656 432.11V427.454L384.528 424.218Z" stroke="#FEF2EB"/>
<path d="M393.313 398.339V402.996L388.441 406.231V401.575L393.313 398.339Z" stroke="#FEF2EB"/>
<path d="M393.313 408.101V412.758L388.441 415.993V411.337L393.313 408.101Z" stroke="#FEF2EB"/>
<path d="M393.313 418.361V423.018L388.441 426.253V421.597L393.313 418.361Z" stroke="#FEF2EB"/>
<path d="M402.099 392.482V397.139L397.227 400.374V395.718L402.099 392.482Z" stroke="#FEF2EB"/>
<path d="M402.099 402.244V406.901L397.227 410.136V405.48L402.099 402.244Z" stroke="#FEF2EB"/>
<path d="M402.099 412.504V417.161L397.227 420.396V415.74L402.099 412.504Z" stroke="#FEF2EB"/>
<path d="M410.884 386.625V391.282L406.012 394.517V389.861L410.884 386.625Z" stroke="#FEF2EB"/>
<path d="M410.884 396.387V401.044L406.012 404.279V399.623L410.884 396.387Z" stroke="#FEF2EB"/>
<path d="M410.884 406.647V411.304L406.012 414.539V409.883L410.884 406.647Z" stroke="#FEF2EB"/>
<path d="M328.764 358.384L332.072 356.108L328.985 353.608C328.985 353.608 341.864 354.47 342.664 346.321L346.412 344.5L350.381 347.231C350.381 347.231 348.764 358.383 328.851 358.383L328.764 358.384ZM308.264 345.638L311.571 347.914L315.54 345.638C315.54 345.638 316.564 352.406 327.226 353.377L330.754 356.336L327.006 358.157C327.006 358.157 309.726 356.958 308.264 345.638ZM308.264 344.27C310.432 331.785 330.092 332.67 330.092 332.67L326.344 334.713L330.092 337.444C316.738 337.293 315.764 344.728 315.764 344.728L311.571 346.776L308.264 344.27ZM346.629 343.587L343.101 345.41C343.513 342.663 343.674 339.885 343.582 337.11C337.902 337.017 331.636 337.21 331.636 337.21L328.108 334.71L332.077 332.434C335.569 332.469 339.457 332.484 343.233 332.487C343.05 329.5 343.228 326.501 343.763 323.557L347.291 321.509L351.264 324.016C350.928 326.825 350.798 329.655 350.875 332.484C356.907 332.469 361.407 332.437 361.407 332.437L357.874 334.486L361.402 336.986C359.766 337.086 354.796 337.15 351.166 337.186C351.25 339.903 351.244 343.986 350.598 346.093L346.629 343.587ZM359.638 334.487L363.164 332.209C363.164 332.209 375.783 332.877 378.157 326.519L381.685 328.34L386.095 325.84C386.095 325.84 386.278 331.879 374.409 335.627C370.691 336.302 366.936 336.757 363.164 336.989L359.638 334.487ZM378.6 325.155C379.658 316.734 366.473 316.055 366.473 316.055L369.564 314.001L365.812 311.27C387.956 313.44 386.097 324.926 386.097 324.926L381.908 327.202L378.6 325.155ZM347.511 320.602L343.983 322.65C343.983 322.65 345.664 311.437 364.048 311.27L368.017 314.001L364.93 315.822C364.93 315.822 354.398 314.578 351.48 323.105L347.511 320.602Z" fill="#4E8EFF"/>
<path d="M371.709 550.943C374.248 548.079 367.22 544.955 367.22 544.955" stroke="#FEF2EB" stroke-linecap="round"/>
<path d="M215.286 555.022L281.786 594.093C284.598 595.504 287.685 596.283 290.83 596.376C293.974 596.469 297.102 595.873 299.992 594.63C299.992 594.63 372.229 550.844 372.302 550.812L372.316 553.918L372.603 613.31C372.603 613.31 373.115 614.91 369.674 617.21L298.41 662.11C298.41 662.11 292.821 665.787 284.744 662.11L217.388 621.11C217.388 621.11 213.51 619.296 213.491 616.229L212.604 550.229C212.604 550.229 212.162 552.728 215.286 555.022Z" stroke="#FEF2EB" stroke-linecap="round" stroke-linejoin="round"/>
<path d="M281.82 568.406C281.82 568.406 291.086 574.424 300.367 569.382L366.747 531.311C366.747 531.311 371.628 528.382 371.628 525.454V540.205C371.678 540.75 371.541 541.295 371.238 541.75C370.775 542.344 370.22 542.861 369.595 543.281L302.319 584.024C302.319 584.024 292.737 589.566 280.843 583.048L217.392 545.954C217.392 545.954 212.192 543.27 212.511 540.097V526.43L281.82 568.406Z" stroke="#FEF2EB" stroke-linecap="round" stroke-linejoin="round"/>
<path d="M215.44 521.549L284.748 480.549C284.748 480.549 293.948 477.62 299.391 481.525L366.747 519.596C366.747 519.596 375.777 523.745 368.699 530.334L299.391 570.357C299.391 570.357 289.791 575.238 280.844 568.405L217.392 531.302C217.392 531.302 207.309 527.641 215.44 521.54" fill="#262423"/>
<path d="M215.439 521.549L284.747 480.549C284.747 480.549 291.2 475.725 299.39 481.525L366.746 519.596C366.746 519.596 376.256 523.844 368.698 530.334L299.39 570.358C296.372 571.559 293.107 572.009 289.876 571.669C286.645 571.329 283.545 570.209 280.843 568.406L217.392 531.311C217.392 531.311 207.793 526.723 215.439 521.549Z" stroke="#FEF2EB"/>
<path d="M277.502 642.684C278.007 642.571 278.536 642.617 279.013 642.817C279.491 643.016 279.896 643.359 280.17 643.799C280.445 644.238 280.576 644.752 280.546 645.269C280.516 645.786 280.326 646.281 280.002 646.685C279.679 647.09 279.237 647.384 278.739 647.526C278.242 647.669 277.712 647.654 277.223 647.483C276.734 647.311 276.311 646.992 276.011 646.57C275.711 646.147 275.55 645.642 275.55 645.124C275.493 644.543 275.665 643.963 276.029 643.507C276.394 643.051 276.923 642.756 277.502 642.684ZM268.755 637.842C269.26 637.729 269.789 637.775 270.266 637.975C270.744 638.174 271.149 638.517 271.423 638.957C271.698 639.396 271.829 639.91 271.799 640.427C271.769 640.944 271.579 641.439 271.255 641.843C270.932 642.248 270.49 642.542 269.992 642.685C269.495 642.827 268.965 642.812 268.476 642.641C267.987 642.469 267.564 642.15 267.264 641.728C266.964 641.305 266.803 640.8 266.803 640.282C266.746 639.701 266.918 639.121 267.282 638.665C267.647 638.209 268.176 637.914 268.755 637.842ZM220.32 611.357C220.825 611.244 221.354 611.29 221.831 611.49C222.309 611.689 222.714 612.032 222.988 612.472C223.263 612.911 223.394 613.425 223.364 613.942C223.334 614.459 223.144 614.954 222.82 615.358C222.497 615.763 222.055 616.057 221.557 616.199C221.06 616.342 220.53 616.327 220.041 616.156C219.552 615.984 219.129 615.665 218.829 615.243C218.529 614.82 218.368 614.315 218.368 613.797C218.311 613.216 218.483 612.636 218.847 612.18C219.212 611.724 219.741 611.429 220.32 611.357Z" fill="#FEF2EB"/>
<path d="M216.262 545.601C215.178 546.065 214.223 546.786 213.48 547.701C212.96 548.466 212.672 549.365 212.65 550.289" stroke="#FEF2EB" stroke-linecap="round"/>
<path d="M320.382 600.452V605.108L315.51 608.344V603.687L320.382 600.452Z" stroke="#FEF2EB"/>
<path d="M320.382 610.214V614.87L315.51 618.106V613.449L320.382 610.214Z" stroke="#FEF2EB"/>
<path d="M320.382 620.474V625.13L315.51 628.366V623.709L320.382 620.474Z" stroke="#FEF2EB"/>
<path d="M329.168 594.595V599.251L324.296 602.487V597.83L329.168 594.595Z" stroke="#FEF2EB"/>
<path d="M329.168 604.357V609.013L324.296 612.249V607.592L329.168 604.357Z" stroke="#FEF2EB"/>
<path d="M329.168 614.617V619.273L324.296 622.509V617.852L329.168 614.617Z" stroke="#FEF2EB"/>
<path d="M337.953 588.738V593.394L333.081 596.63V591.973L337.953 588.738Z" stroke="#FEF2EB"/>
<path d="M337.953 598.5V603.156L333.081 606.392V601.735L337.953 598.5Z" stroke="#FEF2EB"/>
<path d="M337.953 608.76V613.416L333.081 616.652V611.995L337.953 608.76Z" stroke="#FEF2EB"/>
<path d="M346.739 582.881V587.537L341.867 590.773V586.116L346.739 582.881Z" stroke="#FEF2EB"/>
<path d="M346.739 592.643V597.299L341.867 600.535V595.878L346.739 592.643Z" stroke="#FEF2EB"/>
<path d="M346.739 602.903V607.559L341.867 610.795V606.138L346.739 602.903Z" stroke="#FEF2EB"/>
<path d="M355.524 577.024V581.68L350.652 584.916V580.259L355.524 577.024Z" stroke="#FEF2EB"/>
<path d="M355.524 586.786V591.442L350.652 594.678V590.021L355.524 586.786Z" stroke="#FEF2EB"/>
<path d="M355.524 597.046V601.702L350.652 604.938V600.281L355.524 597.046Z" stroke="#FEF2EB"/>
<path d="M230.501 603.227L230.501 603.225L228.933 585.384C228.947 585.35 228.965 585.306 228.989 585.257C229.053 585.127 229.145 584.984 229.267 584.875C229.382 584.773 229.521 584.704 229.704 584.7C229.896 584.695 230.191 584.76 230.615 585.035L264.54 607.873C264.541 607.874 264.542 607.875 264.543 607.875C265.509 608.548 266.283 609.134 266.859 609.839C267.423 610.528 267.809 611.346 267.958 612.499L269.6 631.301C269.481 631.755 269.276 631.934 269.042 631.983C268.731 632.049 268.157 631.943 267.223 631.336L255.345 623.342L254.448 622.739L254.568 623.813C254.656 624.591 254.89 625.757 255.365 626.903C255.838 628.043 256.573 629.218 257.695 629.941L257.695 629.941L257.706 629.947C257.821 630.017 257.936 630.119 258.04 630.238L243.099 620.178L243.089 620.171L243.08 620.165C242.957 620.091 242.834 619.98 242.725 619.851C243.158 620.101 243.576 620.223 243.971 620.171C244.491 620.103 244.827 619.757 245.027 619.379C245.224 619.009 245.322 618.559 245.369 618.134C245.417 617.702 245.417 617.259 245.394 616.878L245.379 616.627L245.168 616.489C241.866 614.333 238.899 612.389 236.526 610.739C234.14 609.082 232.395 607.749 231.508 606.812L231.507 606.811C231.356 606.652 231.202 606.369 231.06 605.982C230.923 605.606 230.814 605.176 230.73 604.762C230.646 604.35 230.588 603.964 230.552 603.681C230.533 603.54 230.521 603.425 230.512 603.346C230.508 603.306 230.505 603.276 230.503 603.255L230.501 603.233L230.501 603.228L230.501 603.227ZM258.642 630.569C258.642 630.57 258.641 630.569 258.638 630.569C258.641 630.569 258.642 630.569 258.642 630.569ZM242.144 619.543C242.143 619.543 242.145 619.543 242.147 619.544C242.145 619.544 242.144 619.543 242.144 619.543Z" stroke="#FEF2EB"/>
<path d="M249.464 614.432C251.514 615.619 252.723 619.195 249.721 617.378C247.671 616.191 246.462 612.614 249.464 614.432Z" fill="#FEF2EB"/>
<path d="M243.582 606.865C244.37 607.98 245.892 608.146 244.826 606.685C244.729 606.564 239.573 600.224 239.476 600.103L244.197 600.348C245.127 600.218 243.486 598.32 242.84 598.37L237.263 598.082C235.475 597.868 243.476 606.363 243.584 606.865L243.582 606.865ZM253.279 613.306C253.594 613.815 254.094 614.183 254.674 614.332C263.829 614.938 261.171 615.428 253.932 605.838C253.145 604.725 251.62 604.555 252.688 606.018C252.788 606.136 257.939 612.477 258.038 612.597L253.316 612.352C252.92 612.329 252.906 612.76 253.281 613.306M245.928 609.933C246.44 610.43 247.002 610.65 247.185 610.415L252.185 604.079C252.388 603.869 252.141 603.29 251.635 602.785C251.108 602.264 250.518 602.011 250.327 602.284L245.328 608.62C245.148 608.85 245.418 609.437 245.93 609.932L245.928 609.933Z" fill="#4E8EFF"/>
<path d="M323.461 534.483L326.361 530.601C327.135 529.564 326.238 528.374 324.352 527.947L322.752 527.585C320.866 527.158 319.497 526.085 319.493 525.185C319.489 524.285 320.846 523.209 322.727 522.777L324.327 522.41C326.207 521.979 327.098 520.786 326.311 519.75L323.377 515.876C322.593 514.839 320.432 514.35 318.551 514.782L316.951 515.15C315.157 515.575 313.274 515.426 311.569 514.723C311.298 514.606 311.058 514.429 310.865 514.206C310.672 513.983 310.532 513.719 310.455 513.434C310.378 513.149 310.367 512.851 310.421 512.561C310.475 512.271 310.594 511.997 310.769 511.759L311.426 510.878C312.2 509.839 311.3 508.651 309.414 508.224L302.369 506.624C300.485 506.197 298.328 506.692 297.554 507.731L296.895 508.613C295.734 509.762 294.168 510.407 292.535 510.41C290.902 510.413 289.333 509.772 288.169 508.627L287.504 507.746C286.719 506.71 284.557 506.22 282.675 506.653L275.645 508.274C273.763 508.705 272.874 509.897 273.661 510.934L274.327 511.814C274.504 512.05 274.626 512.323 274.683 512.612C274.74 512.901 274.731 513.2 274.656 513.485C274.581 513.771 274.443 514.035 274.251 514.26C274.06 514.484 273.82 514.662 273.55 514.78C271.848 515.487 269.967 515.641 268.173 515.221L266.573 514.86C264.687 514.433 262.532 514.929 261.757 515.968L258.857 519.85C258.082 520.889 258.983 522.077 260.866 522.504L262.466 522.867C264.35 523.294 265.719 524.367 265.724 525.267C265.729 526.167 264.369 527.242 262.489 527.675L260.889 528.042C259.007 528.475 258.12 529.666 258.905 530.702L261.84 534.574C262.623 535.612 264.785 536.102 266.667 535.668L268.267 535.301C270.062 534.878 271.944 535.027 273.65 535.728C273.921 535.846 274.162 536.023 274.355 536.246C274.547 536.469 274.688 536.733 274.765 537.018C274.841 537.303 274.853 537.601 274.799 537.892C274.744 538.182 274.625 538.456 274.45 538.693L273.794 539.573C273.02 540.612 273.92 541.802 275.805 542.229L282.85 543.829C284.735 544.255 286.894 543.761 287.667 542.722L288.324 541.841C289.484 540.693 291.05 540.047 292.683 540.045C294.316 540.042 295.884 540.682 297.048 541.826L297.714 542.707C298.5 543.744 300.659 544.234 302.543 543.8L309.571 542.183C311.452 541.75 312.34 540.56 311.555 539.524L310.889 538.643C310.712 538.408 310.59 538.135 310.534 537.846C310.477 537.557 310.486 537.259 310.56 536.974C310.635 536.688 310.773 536.424 310.964 536.2C311.155 535.975 311.394 535.797 311.664 535.678C313.366 534.971 315.248 534.816 317.043 535.235L318.643 535.597C320.529 536.024 322.687 535.528 323.462 534.49L323.461 534.483ZM287.219 532.448C279.978 530.808 276.519 526.248 279.495 522.256C282.471 518.264 290.755 516.362 297.995 518.001C305.235 519.64 308.689 524.201 305.714 528.194C302.739 532.187 294.455 534.088 287.214 532.448H287.219Z" fill="#4E8EFF"/>
<defs>
<clipPath id="clip0_125_62">
<rect width="660.71" height="663.411" fill="white"/>
</clipPath>
</defs>
</svg>
