<svg xmlns="http://www.w3.org/2000/svg" xmlns:xlink="http://www.w3.org/1999/xlink" width="873" height="700" viewBox="0 0 873 700">
  <defs>
    <clipPath id="clip-path">
      <rect id="Rectangle_283" data-name="Rectangle 283" width="873" height="700" transform="translate(-4691 1491)" fill="#fff"/>
    </clipPath>
  </defs>
  <g id="Group_1513" data-name="Group 1513" transform="translate(-1047 -3450)">
    <g id="Mask_Group_9" data-name="Mask Group 9" transform="translate(5738 1959)" opacity="0.5" clip-path="url(#clip-path)">
      <g id="Group_1506" data-name="Group 1506">
        <circle id="Ellipse_986" data-name="Ellipse 986" cx="317.5" cy="317.5" r="317.5" transform="translate(-4675 1707)" fill="#1d88fe"/>
        <circle id="Ellipse_987" data-name="Ellipse 987" cx="372" cy="372" r="372" transform="translate(-4440 1557)" fill="#8fc3ff"/>
      </g>
    </g>
    <g id="Secondary_shapes" data-name="Secondary shapes" transform="translate(1008.721 3412.918)">
      <rect id="Rectangle_282" data-name="Rectangle 282" width="218.763" height="170.744" rx="19.14" transform="translate(437.219 262.935)" fill="#ced3f8"/>
      <path id="Path_88" data-name="Path 88" d="M128,1626.768c0-6.984,106.946-12.648,238.874-12.648s238.874,5.664,238.874,12.648-106.942,12.648-238.874,12.648S128,1633.756,128,1626.768Z" transform="translate(0 -1003.271)" opacity="0.1"/>
      <path id="Path_89" data-name="Path 89" d="M1479.238,1309.986c1.02,3.644,33.934,17.219,36.942,11.089,2.342-4.771-2.667-7.364-4.558-8.162-2.98-1.252-10.332-3.81-9.079-5.87,2.313-3.723,20.118,5.116,24.589,7s13.663,4.33,18.086,1.29,5.867-4.784-2.138-7.648-24.479-6.543-19.05-9.571,17.551,2.818,25.722,3.594,24-.482,21-5.861c-2.677-4.812-26.9-3.682-25.252-7.589,1.321-3.131,7.986-.923,18.784-.861s21.01,0,21.639-6.412c.5-5.153-6.427-3.732-12.25-3.841s-13.938-.563-11.922-3.187,30.462.654,33.132-7.489c1.766-5.388-4.524-4.158-11.3-4.665s-9.117-1.187-8.566-2.5,9.8-2.1,14.887-2.408,12.288-2.483,12.166-7.238-8.228-3.419-11.108-2.232-6.13,1.1-6.477.232,8.882-5.454,5.77-9.831-11.505.87-13.591,5.817-5.081,11.556-6.888,10.795.626-6.49,2.5-11,1.628-6.737.426-7.247c-4.01-1.691-9.868,2.755-11.271,6.052s-6.781,22.8-9.445,21.674.128-8.228,1.666-11.872,5.125-12.15.657-14.035-11.709,8.553-14.21,15.679-5.676,18.972-7.736,18.1-1.118-10.8.751-15.222,7.432-11.383,1.932-13.7-9.47,3.964-13.149,12.654c-1.534,3.632-5.235,12.657-4.236,18.819,1.133,7.013.548,10.7-1.071,11.042-3.225.686-3.4-5.635-2.5-10.153s4.533-18.431-2.68-18.612-7.288,11.75-7.792,16.546-.808,21.843-4.539,21.8-1.174-8.976-.676-11.834-.363-9.1-2.874-8.062-18.108,28.433-16.292,34.923Z" transform="translate(-928.102 -743.403)" fill="#00b8d4"/>
      <path id="Path_90" data-name="Path 90" d="M263.135,1401.11c-19.99,21.33-46.607,15.028-68.215-11.771C216.807,1373.7,251.245,1371.459,263.135,1401.11Z" transform="translate(-45.969 -841.108)" fill="#0ba6bd"/>
      <path id="Path_91" data-name="Path 91" d="M279.416,1428.858a.845.845,0,0,1-.2-.022c-5.4-1.252-14.667-2.589-24.479-4-11.931-1.719-25.456-3.666-35.449-5.948a.865.865,0,0,1,.382-1.688c9.928,2.257,23.415,4.2,35.315,5.911,9.849,1.418,19.151,2.755,24.623,4.026a.867.867,0,0,1-.194,1.709Z" transform="translate(-62.247 -867.989)" fill="#46bed0"/>
      <path id="Path_92" data-name="Path 92" d="M1115.441,1301.222c-4.746-1.879-8.9-5.341-7.514-8.2,1.309-2.717,6.261-1.734,10.732.379-1.19-4.27-1.014-8.522,1.653-9.3,5.238-1.521,9.445,13.919,7.514,17.876-1.709,5.591-16.324,11.023-18.214,5.9C1108.7,1305.445,1111.653,1302.972,1115.441,1301.222Z" transform="translate(-672.954 -776.506)" fill="#feda94"/>
      <path id="Path_93" data-name="Path 93" d="M1192.219,1379.011a.864.864,0,0,1-.845-.7c-3.842-19.31-16.311-35.618-21.821-38.063a.864.864,0,1,1,.7-1.565c6.549,2.905,18.991,20.062,22.817,39.306a.864.864,0,0,1-.679,1.018A.811.811,0,0,1,1192.219,1379.011Z" transform="translate(-715.052 -813.983)" fill="#ffd19b"/>
      <path id="Path_94" data-name="Path 94" d="M1154.856,1331.365c.21-.852,1.108-1.5,1.966-2.01-1.205-.682-2.5-2.414-1.587-3.613.661-.858,2.192.15,3.372,1.233a6.2,6.2,0,0,1,.05-1.681c.88-4.486,3.5,2.248,2.16,4.317a13.1,13.1,0,0,1-1.772,1.957c-1.666,1.559-4.6,1.45-4.189-.2Z" transform="translate(-705.349 -803.832)" fill="#ff9e2c"/>
      <path id="Path_95" data-name="Path 95" d="M1284.988,1282.528c23.265-33.7,6.734-68.272-36.376-89.908C1233.694,1227.23,1240.845,1275.052,1284.988,1282.528Z" transform="translate(-764.924 -713.732)" fill="#00b8d4"/>
      <path id="Path_96" data-name="Path 96" d="M1435,1457.058c15.027,25.985,43.1,25.857,70.942,4.089C1487.687,1440.418,1453.784,1430.165,1435,1457.058Z" transform="translate(-897.814 -884.247)" fill="#0a94a9"/>
      <path id="Path_97" data-name="Path 97" d="M1378.079,1289.179c47.168-2.048,67.455-41.291,57.371-95.969C1393.235,1203.563,1354.245,1243.392,1378.079,1289.179Z" transform="translate(-853.73 -714.137)" fill="#7fdbe9"/>
      <path id="Path_98" data-name="Path 98" d="M1392.1,1314.737a.846.846,0,0,1-.4-.1.864.864,0,0,1-.366-1.168c4.2-8.03,12.351-20.838,20.976-34.4,10.425-16.38,22.228-34.942,29.927-49.491a.867.867,0,0,1,1.531.811c-7.717,14.608-19.555,33.2-30,49.609-8.609,13.528-16.743,26.3-20.907,34.272A.861.861,0,0,1,1392.1,1314.737Z" transform="translate(-867.75 -738.827)" fill="#50c5d6"/>
      <g id="Group_1502" data-name="Group 1502">
        <path id="Path_99" data-name="Path 99" d="M305.272,693.3c-8.923.977-12.723-6.574-14.592-11.271,2.749-.084,13.907.194,14.592,11.271Z" transform="translate(-111.75 -362.987)" fill="#7fdbe9"/>
        <path id="Path_100" data-name="Path 100" d="M387.636,758.73a.867.867,0,0,1-.773-.473c-8.337-16.317-27.121-40.189-54.709-58.247a.867.867,0,0,1,.939-1.45c27.9,18.243,46.858,42.39,55.314,58.917a.867.867,0,0,1-.77,1.252Zm-2.811-13.572c-1.431-18.049,11.233-22.15,20.782-25.647.022,5.563,1.615,24.936-20.782,25.647Zm-9.686-14.414c-4.721-13.775,4.314-19.467,11.036-24.107C387.291,710.974,392.41,725.719,375.138,730.744Zm-13.45-13.29c-6.719-10.547-.313-17.134,4.383-22.35C367.881,698.485,375.107,709.781,361.688,717.454ZM347.681,705.7c-5.839-5.134-3.156-10.175-1.252-14.088C348.088,693.3,354.359,698.792,347.681,705.7ZM376.2,749.024c-13.071-9.217-21.871-1.431-28.8,4.239C351.6,755.8,365.586,765.721,376.2,749.024Z" transform="translate(-140.011 -369.574)" fill="#7fdbe9"/>
        <path id="Path_101" data-name="Path 101" d="M358.526,763.615c-9.9-9.608-18.44-4.154-25.124-.254C336.646,766.066,347.237,776.4,358.526,763.615Zm-15.5-16.292c-8.318-4.436-12.9.758-16.543,4.58C329.129,753.067,338.036,757.854,343.026,747.322Zm-11.214-10.241c-4.289-3.444-7.467-.939-9.962.855C323.24,738.885,327.845,742.579,331.812,737.082Z" transform="translate(-133.161 -399.63)" fill="#7fdbe9"/>
      </g>
      <path id="Path_102" data-name="Path 102" d="M308.567,1123.872c12.448-2.849,25.9-19.317,24.6-31.8s-13.065-14.458-11.9-21.414,13.443-15.654,10.832-24.914c-4.64-16.449-29.961-4.108-34.623-15.873s9.884-17.754,7.251-29.429-22.942-.285-31.414-12.185-31.057-33.881-42.177-19.323c-8.788,11.505,9.026,15.913,9,22.166-.025,7.129-9.079,8.181-7.382,16.042,2.392,11.111,17.448,11.2,17.9,20.641s-11.643,12.523-4.411,22.673c8.951,12.576,28.1-2.5,31.019,17.567s-22.269,13.077-22.212,25.725c.063,13.8,24.83,11.014,22.666,20.162C274.767,1126.358,289.263,1128.283,308.567,1123.872Z" transform="translate(-69.172 -556.769)" fill="#00b8d4"/>
      <path id="Path_103" data-name="Path 103" d="M353.241,1170.3a.867.867,0,0,1-.864-.8,19.623,19.623,0,0,1,.532-4.53c.726-3.9,1.628-8.766-.742-12.084a47.5,47.5,0,0,0-4.724-5.385c-2.883-2.977-5.867-6.055-7.579-10.3-3.463-8.6-2.013-15.763-.733-22.087.939-4.593,1.728-8.556.463-12.191-1.046-3.008-3.131-3.757-5.748-4.674-2.758-.977-5.879-2.082-8.613-5.923a11.9,11.9,0,0,1-2.48-8.625c.091-2.476.185-5.037-2.987-9.5a13.422,13.422,0,0,0-7.8-5.529,16.547,16.547,0,0,1-8.926-6.089c-6.058-7.714-6.221-14.79-6.34-19.958-.063-2.865-.116-5.128-1.158-6.443-2.5-3.156-5.447-2.436-5.479-2.426a.867.867,0,0,1-.432-1.678c.163-.041,4.07-1,7.27,3.031,1.4,1.769,1.459,4.289,1.531,7.479.116,4.922.269,11.665,5.97,18.925a14.889,14.889,0,0,0,8.14,5.523,14.978,14.978,0,0,1,8.647,6.164c3.516,4.934,3.406,7.924,3.306,10.56a10.234,10.234,0,0,0,2.16,7.561c2.417,3.394,5.144,4.358,7.78,5.291,2.818,1,5.488,1.944,6.809,5.739,1.421,4.07.535,8.453-.4,13.1-1.23,6.086-2.627,12.983.642,21.1,1.584,3.935,4.449,6.888,7.216,9.746a49.589,49.589,0,0,1,4.893,5.585c2.793,3.923,1.775,9.392,1.033,13.406a18.619,18.619,0,0,0-.507,4.07.867.867,0,0,1-.792.939Z" transform="translate(-110.606 -603.362)" fill="#7fdbe9"/>
      <g id="Group_1503" data-name="Group 1503">
        <path id="Path_104" data-name="Path 104" d="M1283.932,248.113h-.507a12.235,12.235,0,0,1-9.661-5.363,13.771,13.771,0,0,1-11.806-2.132c-5.288-3.716-8.306-10.644-8.278-19.057a.864.864,0,1,1,1.728.006c-.025,7.827,2.724,14.248,7.542,17.635a11.79,11.79,0,0,0,10.889,1.7.861.861,0,0,1,1.042.379,10.482,10.482,0,0,0,8.609,5.1c4.2.166,10.813-1.966,18.471-13.058a.867.867,0,1,1,1.425.986C1295.575,245.617,1288.578,248.113,1283.932,248.113Z" transform="translate(-773.26 -46.093)" fill="#3def65"/>
        <path id="Path_105" data-name="Path 105" d="M1291.318,229.243a12.836,12.836,0,0,1-6.982-2.019h-.163c-3.569,0-7.514-1.975-10.419-5.231-4.54-5.1-6.243-12.733-4.8-21.5a.867.867,0,1,1,1.709.282c-1.359,8.237.194,15.363,4.383,20.062,2.683,3.015,6.312,4.793,9.5,4.643a.877.877,0,0,1,.526.147,11.573,11.573,0,0,0,10.726,1.061c5.98-2.191,10.726-8.14,13.014-16.3a.867.867,0,0,1,1.669.47c-2.442,8.707-7.576,15.068-14.088,17.457A14.691,14.691,0,0,1,1291.318,229.243Z" transform="translate(-783.411 -31.687)" fill="#3def65"/>
        <path id="Path_106" data-name="Path 106" d="M1298.451,215.475a10.882,10.882,0,0,1-3.178-.495c-2.154.116-4.32-1.08-6.283-3.475-4.336-5.288-7.307-16.53-4.27-26.946a.867.867,0,1,1,1.662.485c-2.874,9.846-.109,20.419,3.948,25.359,1.612,1.966,3.375,2.974,4.969,2.818a.888.888,0,0,1,.338.038,8.163,8.163,0,0,0,8.453-1.916c5.983-5.463,8-18.471,7.323-21.546a.866.866,0,0,1,1.691-.373c.845,3.854-1.365,17.278-7.846,23.2A9.807,9.807,0,0,1,1298.451,215.475Z" transform="translate(-793.73 -20.806)" fill="#3def65"/>
        <path id="Path_107" data-name="Path 107" d="M1302.636,232.092a.936.936,0,0,1-.131,0,.864.864,0,0,1-.592-.382,57.549,57.549,0,0,1-5.566-12.085c-1.5-4.367-2.373-8.206-2.289-10.018a.867.867,0,0,1,1.731.081c-.147,3.1,3.212,13.863,7.038,20.221,4.7-4.521,9.436-14.984,9.552-18.828a.87.87,0,0,1,.864-.839h.028a.867.867,0,0,1,.839.892c-.138,4.543-5.482,16.28-10.923,20.772a.867.867,0,0,1-.551.185Z" transform="translate(-800.993 -37.927)" fill="#3def65"/>
        <path id="Path_108" data-name="Path 108" d="M1312.669,221.249a.867.867,0,0,1-.833-.626c-1.96-6.906-4.186-14.733-2.686-26.88a.867.867,0,0,1,1.719.213c-1.456,11.8.717,19.448,2.633,26.195a.867.867,0,0,1-.595,1.071A.89.89,0,0,1,1312.669,221.249Z" transform="translate(-811.027 -27.084)" fill="#3def65"/>
        <path id="Path_109" data-name="Path 109" d="M1282.7,211.018a.855.855,0,0,1-.429-.113.87.87,0,0,1-.313-1.18c3.19-5.579,5.544-22.541,3.873-27.948a.866.866,0,0,1,1.653-.513c1.844,5.948-.526,23.208-4.023,29.319a.864.864,0,0,1-.761.435Zm-16.1,59.371a.855.855,0,0,1-.357-.078.864.864,0,0,1-.429-1.146c6.374-13.985,15.575-49.3,15.738-54.994a.867.867,0,0,1,1.731.047c-.182,6.434-9.824,42.356-15.895,55.664A.864.864,0,0,1,1266.6,270.389Z" transform="translate(-781.545 -18.585)" fill="#3def65"/>
      </g>
      <path id="Path_110" data-name="Path 110" d="M942.119,415.341C916.547,434.732,888.9,423,870.46,390.007,897.037,377.118,934.724,381.044,942.119,415.341Z" transform="translate(-510.016 -157.735)" fill="#00b8d4"/>
      <path id="Path_111" data-name="Path 111" d="M1021.363,251.091c-43.717-8.453-57.2-47.884-40.192-97.491C1019.1,169.125,1049.943,211.7,1021.363,251.091Z" transform="translate(-581.176)" fill="#7fdbe9"/>
      <g id="Group_1505" data-name="Group 1505">
        <g id="Group_1504" data-name="Group 1504">
          <path id="Path_112" data-name="Path 112" d="M1044.685,276.785a.864.864,0,0,1-.817-.582c-2.774-8-8.581-21.035-14.714-34.839-7.467-16.768-15.932-35.772-21.1-50.48a.864.864,0,0,1,1.631-.573c5.15,14.642,13.6,33.611,21.051,50.348,6.164,13.838,11.987,26.905,14.783,34.976a.867.867,0,0,1-.532,1.1.9.9,0,0,1-.3.047Z" transform="translate(-604.499 -24.821)" fill="#00b8d4"/>
        </g>
        <path id="Path_113" data-name="Path 113" d="M1021.309,253.689a.854.854,0,0,1-.482-.147.867.867,0,0,1-.235-1.2l12.288-18.2a.865.865,0,0,1,1.434.967l-12.285,18.2a.87.87,0,0,1-.72.382Zm-5.369-11.8a.846.846,0,0,1-.288-.05L998.1,235.615a.865.865,0,0,1,.576-1.631l17.551,6.218a.864.864,0,0,1-.291,1.681Zm-8.356-21.1a.885.885,0,0,1-.313-.059.867.867,0,0,1-.489-1.124l2.965-7.533a.867.867,0,0,1,1.612.626l-2.965,7.533A.864.864,0,0,1,1007.584,220.791Zm20.716,48.642a.9.9,0,0,1-.182-.019l-23.386-4.987a.867.867,0,1,1,.36-1.694l23.387,4.987a.867.867,0,0,1-.178,1.713Z" transform="translate(-597.302 -39.829)" fill="#00b8d4"/>
      </g>
      <path id="Path_114" data-name="Path 114" d="M1241.509,1446.58l6.947,9.705c5.848,8.168,4.768,20.848-4.038,33.023-12.4,17.138-35.477,26.877-51.457,21.734a20.294,20.294,0,0,1-10.551-7.407l-6.95-9.705a20.321,20.321,0,0,0,10.547,7.407c15.989,5.144,39.068-4.6,51.466-21.73C1246.274,1467.427,1247.351,1454.748,1241.509,1446.58Z" transform="translate(-719.529 -888.183)" fill="#e19100"/>
      <path id="Path_115" data-name="Path 115" d="M1222.974,1419.912c15.967,5.15,18.894,23.283,6.506,40.424s-35.477,26.874-51.466,21.73-18.9-23.268-6.512-40.405,35.487-26.9,51.472-21.749Z" transform="translate(-711.535 -868.92)" fill="#ffd03e"/>
      <path id="Path_116" data-name="Path 116" d="M1252.965,1444.119l-2.962,4.189c3.713,2.623,4,8.093.294,13.315l-4.959-1.565c2.282-3.212,1.684-6.609-1.334-7.564s-7.32.892-9.593,4.1a6.342,6.342,0,0,0-1.334,4.646,3.657,3.657,0,0,0,2.661,2.93c5.742,1.822,6.888,8.3,2.53,14.439-3.71,5.241-10.2,8.544-15.6,8.306l-2.736,3.863-4.956-1.565,2.733-3.87c-3.7-2.639-3.973-8.083-.263-13.324l4.943,1.565c-2.289,3.231-1.7,6.625,1.321,7.579s7.323-.9,9.608-4.123,1.678-6.609-1.34-7.558a6.988,6.988,0,0,1-5.04-5.607c-.482-2.733.419-5.851,2.533-8.838,3.7-5.225,10.187-8.556,15.582-8.3l2.962-4.186Z" transform="translate(-746.547 -885.422)" fill="#ffe357"/>
      <path id="Path_117" data-name="Path 117" d="M1233.115,1426.624a20.438,20.438,0,0,0-9.971-6.712c-15.986-5.15-39.075,4.608-51.472,21.749-4.727,6.534-7.2,13.208-7.6,19.26Z" transform="translate(-711.705 -868.919)" fill="#fff" opacity="0.35"/>
      <path id="Path_118" data-name="Path 118" d="M1382.3,1473.13c12.623-2.317,27.895,7.545,34.028,21.981s.858,28.067-11.762,30.384-27.895-7.542-34.031-21.978S1369.672,1475.45,1382.3,1473.13Z" transform="translate(-851.772 -906.19)" fill="#fcba06"/>
      <path id="Path_119" data-name="Path 119" d="M1418.124,1490l1.49,3.5c3.992.351,8.2,3.525,10.065,7.908l-3.882.714c-1.146-2.7-3.995-4.539-6.359-4.108s-3.334,2.977-2.192,5.676a7.261,7.261,0,0,0,2.717,3.219,5.076,5.076,0,0,0,3.622.876c4.5-.826,9.937,2.686,12.125,7.827,1.86,4.383.767,8.534-2.376,10.178l1.377,3.234-3.882.711-1.374-3.234c-3.973-.335-8.19-3.522-10.05-7.9l3.879-.711c1.143,2.686,3.995,4.527,6.343,4.095s3.347-2.977,2.192-5.667-4-4.536-6.359-4.1a9.7,9.7,0,0,1-6.922-1.666,13.856,13.856,0,0,1-5.184-6.152c-1.879-4.383-.767-8.534,2.361-10.187l-1.49-3.5Z" transform="translate(-882.316 -918.01)" fill="#ffe357"/>
      <path id="Path_120" data-name="Path 120" d="M1398.545,1476.047c-5.322-2.711-11.02-3.876-16.28-2.912-12.626,2.32-17.9,15.967-11.765,30.387a38.77,38.77,0,0,0,9.336,13.149l17.72-29.852a27.266,27.266,0,0,1,.989-10.773Z" transform="translate(-851.748 -906.195)" fill="#fff" opacity="0.35"/>
      <path id="Path_121" data-name="Path 121" d="M1398.3,1598.128c-11.919,2.191-26.188-6.481-32.913-19.6l-6.531,3.992c6.453,13.775,21.22,23.033,33.5,20.779a17.072,17.072,0,0,0,8.221-3.864l5.948-5.169A17.014,17.014,0,0,1,1398.3,1598.128Z" transform="translate(-845.512 -978.824)" fill="#e19100"/>
      <path id="Path_122" data-name="Path 122" d="M1357.483,1512.734c-4.558-10.716-2.818-20.976,3.544-26.524l-5.948,5.172c-6.365,5.532-8.1,15.807-3.544,26.523.172.4.354.8.538,1.2l6.531-3.992C1358.2,1514.321,1357.824,1513.541,1357.483,1512.734Z" transform="translate(-838.721 -915.406)" fill="#ed9f00"/>
      <rect id="Rectangle_281" data-name="Rectangle 281" width="218.763" height="170.744" rx="19.14" transform="translate(427.219 252.935)" fill="#fff"/>
      <path id="Path_123" data-name="Path 123" d="M1726.87,565.44h8.334v52.139h-8.334Z" transform="translate(-1098.308 -282.904)" fill="#5652cc"/>
      <path id="Path_124" data-name="Path 124" d="M1694.55,674.11h8.334v46.723h-8.334Z" transform="translate(-1076.106 -357.553)" fill="#807dfb"/>
      <path id="Path_125" data-name="Path 125" d="M1662.23,815.51h8.334v12.817h-8.334Z" transform="translate(-1053.905 -454.684)" fill="#ed9f00"/>
      <path id="Path_126" data-name="Path 126" d="M1607.708,741.945h8.334v14.32h-8.334ZM1597.59,722.56h8.334v19.385h-8.334Z" transform="translate(-1009.502 -390.834)" fill="#fcba06"/>
      <path id="Path_127" data-name="Path 127" d="M1565.26,594.33h8.334v46.723h-8.334Z" transform="translate(-987.293 -302.749)" fill="#5652cc"/>
      <path id="Path_128" data-name="Path 128" d="M1466.335,668.95h8.334v46.723h-8.334Zm-10.118,38.477h8.334v26.167h-8.334ZM1446.1,717.755h8.334v37.2H1446.1Zm-10.119-20.187h8.334v33.22h-8.334Z" transform="translate(-898.487 -354.008)" fill="#807dfb"/>
      <path id="Path_129" data-name="Path 129" d="M1381.458,718.409h8.334v18.08h-8.334Zm-10.118-5.989h8.334v9.236h-8.334Z" transform="translate(-854.084 -383.869)" fill="#fcba06"/>
      <path id="Path_130" data-name="Path 130" d="M1339.02,622.11h8.334v28.981h-8.334Z" transform="translate(-831.883 -321.832)" fill="#807dfb"/>
      <path id="Path_131" data-name="Path 131" d="M1284.5,520.26h8.334v43.132H1284.5Zm-10.119,10.529h8.334v54.249h-8.334Z" transform="translate(-787.48 -251.869)" fill="#5652cc"/>
      <path id="Path_132" data-name="Path 132" d="M1219.859,648.71h8.334v69.3h-8.334Zm-10.118,53.081h8.334v26.9h-8.334Z" transform="translate(-743.077 -340.105)" fill="#807dfb"/>
      <path id="Path_133" data-name="Path 133" d="M1177.42,883.96h8.334v14.693h-8.334Z" transform="translate(-720.875 -501.704)" fill="#fcba06"/>
      <path id="Path_134" data-name="Path 134" d="M1145.1,923.1h8.334v11.108H1145.1Z" transform="translate(-698.674 -528.591)" fill="#ed9f00"/>
      <path id="Path_135" data-name="Path 135" d="M1112.78,888.88h8.334v19.154h-8.334Z" transform="translate(-676.473 -505.084)" fill="#fcba06"/>
      <path id="Path_136" data-name="Path 136" d="M410.538,1393.276c0-26.777,12.4-48.485,27.7-48.485H386.3c-15.3,0-27.707,21.708-27.707,48.485s12.4,48.482,27.707,48.482h51.942C422.942,1441.758,410.538,1420.05,410.538,1393.276Z" transform="translate(-158.399 -818.261)" fill="#dde2f8"/>
      <ellipse id="Ellipse_31" data-name="Ellipse 31" cx="27.704" cy="48.486" rx="27.704" ry="48.486" transform="translate(252.14 526.529)" fill="#bbc0e6"/>
      <ellipse id="Ellipse_32" data-name="Ellipse 32" cx="22.391" cy="39.181" rx="22.391" ry="39.181" transform="translate(257.452 535.833)" fill="#5652cc"/>
      <path id="Path_137" data-name="Path 137" d="M543.18,1405.275h43.736c-2.191-17.6-11.152-30.775-21.868-30.775S545.381,1387.677,543.18,1405.275Z" transform="translate(-285.199 -838.67)" fill="#423eaf"/>
      <path id="Path_138" data-name="Path 138" d="M438.328,1344.79H386.386c-14.805,0-26.893,20.315-27.666,45.884.908,0,1.979-1.3,3.278-6.346s4.042-9.236,8.516-9.236h31.6c6.5,0,10.1-2.019,12.874-7.924C419.916,1353.713,428.526,1344.79,438.328,1344.79Z" transform="translate(-158.488 -818.261)" fill="#f6f6fb"/>
      <path id="Path_139" data-name="Path 139" d="M401,1411.362h51.942c-8.4,0-15.92-6.553-21-16.884H380C385.081,1404.809,392.6,1411.362,401,1411.362Zm92.7-36.94H463.2c-7.936,0-22.363-7.68-22.363-34.864,0-18.471,1.309-29.429,4.035-39.018h81.962C528.994,1307.738,537.638,1374.422,493.708,1374.422Z" transform="translate(-173.106 -787.865)" fill="#dde2f8"/>
      <path id="Path_140" data-name="Path 140" d="M706.58,1374.415h11.465c43.93,0,35.286-66.684,33.123-73.885H729.306C743.375,1360.261,712.422,1374.415,706.58,1374.415Z" transform="translate(-397.442 -787.858)" fill="#ced3f8"/>
      <path id="Path_141" data-name="Path 141" d="M584.544,1300.54h-6.2c-2.727,9.6-4.036,20.544-4.036,39.018,0,9.057,1.606,15.935,4.036,21.1C576.758,1352.084,577.412,1320.442,584.544,1300.54Z" transform="translate(-306.583 -787.865)" fill="#f6f6fb"/>
      <path id="Path_142" data-name="Path 142" d="M802.768,1393.276c0-26.777,12.4-48.485,27.707-48.485H778.527c-15.3,0-27.707,21.708-27.707,48.485s12.4,48.482,27.707,48.482h51.948C815.172,1441.758,802.768,1420.05,802.768,1393.276Z" transform="translate(-427.832 -818.261)" fill="#dde2f8"/>
      <ellipse id="Ellipse_33" data-name="Ellipse 33" cx="27.704" cy="48.486" rx="27.704" ry="48.486" transform="translate(374.939 526.529)" fill="#bbc0e6"/>
      <ellipse id="Ellipse_34" data-name="Ellipse 34" cx="22.391" cy="39.181" rx="22.391" ry="39.181" transform="translate(380.252 535.833)" fill="#5652cc"/>
      <path id="Path_143" data-name="Path 143" d="M830.564,1344.79H778.616c-14.8,0-26.893,20.315-27.666,45.884.9,0,1.979-1.3,3.278-6.346s4.039-9.236,8.512-9.236h31.6c6.493,0,10.1-2.019,12.87-7.924C812.149,1353.713,820.759,1344.79,830.564,1344.79Z" transform="translate(-427.922 -818.261)" fill="#f6f6fb"/>
      <path id="Path_144" data-name="Path 144" d="M793.241,1617.474h51.948c-8.4,0-15.923-6.552-21-16.884H772.24C777.318,1610.922,784.841,1617.474,793.241,1617.474Z" transform="translate(-442.546 -993.977)" fill="#dde2f8"/>
      <path id="Path_145" data-name="Path 145" d="M935.4,1405.275h43.733c-2.191-17.6-11.152-30.775-21.865-30.775s-19.67,13.177-21.868,30.775Z" transform="translate(-554.625 -838.67)" fill="#423eaf"/>
      <path id="Path_146" data-name="Path 146" d="M600.26,1288.79h73.375v3.679H600.26Z" transform="translate(-324.408 -779.793)" fill="#807dfb"/>
      <path id="Path_147" data-name="Path 147" d="M754.39,1288.79h25.124v3.679H754.39Z" transform="translate(-430.285 -779.793)" fill="#5652cc"/>
      <path id="Path_148" data-name="Path 148" d="M600.26,1288.79h11.881v3.679H600.26Z" transform="translate(-324.408 -779.793)" fill="#9f9cff"/>
      <path id="Path_149" data-name="Path 149" d="M605.062,874.89H510.094c-17.316,0-24.294,10.958-24.294,21.881,0,65.529,9.286,107.7,24.294,107.7h94.967c15.009,0,24.291-51.879,24.291-107.7C629.353,885.851,622.362,874.89,605.062,874.89Z" transform="translate(-245.783 -495.474)" fill="#dde2f8"/>
      <path id="Path_150" data-name="Path 150" d="M772.24,1004.847h29.585c15.009,0,24.291-51.879,24.291-107.7,0-10.144-6.027-20.312-20.754-21.712-22.319-.169-21.258,28.133-20.876,47.809.435,22.454,8.3,43.868,3.757,59.885C785.2,993.836,781.313,1001.312,772.24,1004.847Z" transform="translate(-442.546 -495.85)" fill="#ced3f8"/>
      <path id="Path_151" data-name="Path 151" d="M605.062,874.89H510.094c-17.316,0-24.294,10.958-24.294,21.881,0,57.086,7.047,96.426,18.784,105.634-14.552-31.934-13.462-90.935-13.036-99.87s8.14-14.937,17.1-14.937h76.045c10.751,0,7.141-12.523,23.9-12.523A32.74,32.74,0,0,0,605.062,874.89Z" transform="translate(-245.783 -495.474)" fill="#f6f6fb"/>
      <path id="Path_152" data-name="Path 152" d="M624.116,1035.879a5.5,5.5,0,0,1-3.691-1.462,5.566,5.566,0,0,1-1.835-3.535,4.424,4.424,0,0,1,4.474-5.009,5.7,5.7,0,0,1,5.526,5.009h4.539a10.922,10.922,0,0,0-8.243-9.251l-.376-3.582h-4.54l.379,3.582a8.39,8.39,0,0,0-6.3,9.251,10.854,10.854,0,0,0,10.538,9.536,5.7,5.7,0,0,1,5.526,5.009,4.42,4.42,0,0,1-4.474,5.009,5.7,5.7,0,0,1-5.526-5.009h-4.536a10.918,10.918,0,0,0,8.24,9.251l.348,3.3h4.546l-.348-3.3a8.394,8.394,0,0,0,6.3-9.251A10.9,10.9,0,0,0,624.116,1035.879Z" transform="translate(-333.847 -593.814)" fill="#ced3f8"/>
      <path id="Path_162" data-name="Path 162" d="M1177.14,726.871c1.813-7.486,3.738-29.153,8.932-27.71s.35,19.636,1.368,20.246c2.167,1.3,13.854-24,19.339-19.958s-10.247,25.2-8.8,26.3,13.565-12.263,16.452-9.042-9.411,18.969-21.01,23.07Z" transform="translate(-720.683 -374.658)" fill="#e9edf7"/>
      <path id="Path_163" data-name="Path 163" d="M1211.829,740.148c9.58-3.388,19.63-14.714,21.211-20.372-6.214,11.424-21.214,15.46-24.01,18.127v.022Zm6.146-23.07c-2.019,2.984-4.906,9.042-1.587,9.042-1.443-1.108,14.285-22.272,8.8-26.3C1226.055,706.013,1219.994,714.094,1217.974,717.077Zm-13.528-5.908c-.648,3.356-1.083,9.417,1.406,8.6-1.018-.626,3.829-18.8-1.368-20.246C1206.09,701.126,1205.1,707.81,1204.446,711.169Z" transform="translate(-739.095 -375.008)" fill="#ced3f8"/>
      <path id="Path_164" data-name="Path 164" d="M594.107,1173.532c7.276-2.53,26.539-12.636,28.139-7.486s-16.324,10.92-16.28,12.107c.078,2.526,27.679-1.337,27.237,5.46s-26.736,5.009-26.887,6.838,17.651,4.768,16.505,8.938-21.045,2.354-30.772-5.181Z" transform="translate(-318.769 -694.487)" fill="#fff"/>
      <path id="Path_165" data-name="Path 165" d="M592.06,1197.371c8.037,6.224,23,8.544,28.612,6.813-12.971.958-24.479-9.474-28.239-10.382h-.019C592.289,1195.06,592.17,1196.263,592.06,1197.371Zm22.729-7.317c-3.6-.085-10.259.767-8.453,3.56.15-1.813,26.458-.041,26.887-6.837C628.464,1190.862,618.389,1190.139,614.789,1190.054Zm-2.357-14.57c-3.171,1.252-8.5,4.186-6.465,5.833-.038-1.187,17.883-6.956,16.28-12.106C621.783,1171.43,615.606,1174.213,612.432,1175.484Z" transform="translate(-318.776 -697.65)" fill="#e9edf7"/>
      <path id="Path_166" data-name="Path 166" d="M865.45,973.512c2.4,6.994,13.741,17.419,23.587,21.781.554-8.049.9-16.421,1.042-24.943Z" transform="translate(-506.575 -561.048)" fill="#ced3f8"/>
      <path id="Path_167" data-name="Path 167" d="M961.41,788a116.662,116.662,0,0,1-46.444,35.6,119.488,119.488,0,0,1-45.928,9.267c-3.278,0-5.948,4.652-5.948,10.391s2.658,10.388,5.948,10.388a140.457,140.457,0,0,0,53.989-10.895,137.211,137.211,0,0,0,54.659-41.836Z" transform="translate(-504.954 -435.787)" fill="#807dfb"/>
      <path id="Path_168" data-name="Path 168" d="M873.921,874.6c-6.481.344-8.544-1.619-9.821-3.757.783,4.136,3.005,7.119,5.635,7.119a140.456,140.456,0,0,0,53.989-10.895,137.212,137.212,0,0,0,54.659-41.836l-2.345-1.86C944.666,862.551,903,873.048,873.921,874.6Z" transform="translate(-505.647 -460.083)" fill="#423eaf"/>
      <path id="Path_169" data-name="Path 169" d="M893.281,875.566c-2.242-3.973-1.193-14.069,0-14.285s-1.318,11.239,3.131,14.285A3.784,3.784,0,0,1,893.281,875.566Zm10.879-.939c-2.5-3.807-2.173-13.951-1-14.251s-.529,11.3,4.129,14.032A3.788,3.788,0,0,1,904.16,874.627Zm10.7-1.938c-2.793-3.6-3.221-13.744-2.076-14.132s.332,11.311,5.181,13.678A3.782,3.782,0,0,1,914.864,872.689Zm11.79-2.987c-3.212-3.237-4.878-13.249-3.788-13.775s1.712,11.186,6.816,12.942A3.794,3.794,0,0,1,926.655,869.7Zm11.606-4.01c-3.672-2.7-6.853-12.348-5.858-13.03s3.4,10.789,8.725,11.743A3.8,3.8,0,0,1,938.26,865.692Zm11.039-4.674c-3.942-2.292-8.14-11.534-7.229-12.323s4.552,10.36,9.937,10.732A3.791,3.791,0,0,1,949.3,861.017Zm10.444-5.573c-4.236-1.687-9.749-10.212-8.957-11.127s6.02,9.58,11.4,9.16A3.788,3.788,0,0,1,959.743,855.445Zm9.74-6.787c-4.32-1.456-10.3-9.661-9.555-10.62s6.54,9.233,11.9,8.519A3.792,3.792,0,0,1,969.483,848.657Zm9.953-7.758c-4.439-1.042-11.155-8.656-10.507-9.68s7.376,8.581,12.632,7.37a3.788,3.788,0,0,1-2.126,2.31Zm8.074-7.789c-4.439-1.043-11.155-8.656-10.507-9.677s7.376,8.581,12.632,7.37a3.788,3.788,0,0,1-2.126,2.307Z" transform="translate(-524.788 -460.074)" fill="#423eaf"/>
      <path id="Path_170" data-name="Path 170" d="M440.621,1003.529c-1.791-5.322-1.7-11.2.185-17.413-.776-11.271-1.2-23.678-1.224-37.1-11.555,12.836-27.128,36-18.647,61.152,6.393,18.947,26.924,33.461,51.907,35.944l2.054-20.663C457.709,1023.732,444.506,1015.041,440.621,1003.529Z" transform="translate(-199.558 -546.396)" fill="#807dfb"/>
      <path id="Path_171" data-name="Path 171" d="M470.239,1088.462c-1.252-4.383,2.085-13.963,3.294-13.9s-3.873,10.644-.241,14.623a3.784,3.784,0,0,1-3.052-.723Zm-11.806-2.893c-.758-4.5,3.657-13.637,4.85-13.437s-5.053,10.125-1.9,14.5A3.8,3.8,0,0,1,458.433,1085.569Zm-11.3-5.566c.125-4.558,6.221-12.673,7.354-12.247s-6.913,8.96-4.662,13.863A3.791,3.791,0,0,1,447.137,1080Zm-2.8-49.516c-3.757-2.6-13.894-2.5-14.223-1.346s11.314-.25,13.925,4.471A3.794,3.794,0,0,0,444.341,1030.487Zm2.871-3.779c-1.55-4.289-9.89-10.078-10.832-9.317s9.392,6.33,8.785,11.7A3.8,3.8,0,0,0,447.212,1026.708Zm-4.3,12.172c-4.364-1.324-13.991,1.878-13.944,3.106s10.685-3.726,14.627-.041A3.791,3.791,0,0,0,442.914,1038.88Zm1.841,8.791c-4.536-.445-13.349,4.6-13.068,5.773s9.749-5.745,14.336-2.9A3.794,3.794,0,0,0,444.755,1047.672Zm-7.245,24.078c.529-4.53,7.329-12.069,8.419-11.54s-7.686,8.766-5.886,13.86A3.863,3.863,0,0,1,437.51,1071.75Z" transform="translate(-206.744 -593.315)" fill="#423eaf"/>
      <path id="Path_172" data-name="Path 172" d="M480.5,1097.787c-12.523-1.944-39.159-5.05-51.36-29.98,7.257,17.767,27.071,31.176,51.006,33.552Zm-28.361-31.432a24.994,24.994,0,0,1-4.214-7.583c-1.791-5.322-1.7-11.2.185-17.413-.263-3.838-.485-7.827-.664-11.919a.112.112,0,0,0,0,.028C437.477,1054.793,447.217,1061.934,452.138,1066.354Z" transform="translate(-206.861 -601.639)" fill="#423eaf"/>
      <path id="Path_173" data-name="Path 173" d="M1439.3,1772.549l-9.705,1.972a2.172,2.172,0,0,0-1.628,1.434l-3.131,9.392a2.167,2.167,0,0,0,.432,2.126l6.575,7.423a2.17,2.17,0,0,0,2.054.689l9.705-1.969a2.173,2.173,0,0,0,1.625-1.437l3.149-9.392a2.17,2.17,0,0,0-.432-2.126l-6.574-7.423a2.167,2.167,0,0,0-2.069-.689Z" transform="translate(-890.753 -1112.069)" fill="#bda0fd"/>
      <path id="Path_174" data-name="Path 174" d="M1779.474,201.288l4.179,14.837a2.167,2.167,0,0,0,3.638.939l10.77-11.026a2.17,2.17,0,0,0-1.014-3.616l-14.959-3.823a2.17,2.17,0,0,0-2.614,2.689Z" transform="translate(-1134.388 -30.867)" fill="#decffe"/>
      <path id="Path_175" data-name="Path 175" d="M271.879,490.46,261.35,501.715a2.167,2.167,0,0,0,1.09,3.594l15.027,3.491a2.166,2.166,0,0,0,2.564-2.742l-4.48-14.752a2.166,2.166,0,0,0-3.672-.845Z" transform="translate(-91.198 -230.916)" fill="#feda94"/>
      <g id="Group_489" data-name="Group 489" transform="translate(267.304 265.837)">
        <path id="Shape_55" data-name="Shape 55" d="M392.659,235.271s-3.423,9.342,1.1,15.423c0,0,14.312,12.306,9.859,27.134a4.23,4.23,0,0,1-6.444-1.026s3.934-9.015-5.456-18.4c0,0-10.085-6.914-6.074-24.092C385.647,234.306,390.362,231.347,392.659,235.271Z" transform="translate(-372.604 -163.964)" fill="#dde2f8"/>
        <path id="Shape_58" data-name="Shape 58" d="M387.338,233.455s-3.847,13.074,3.551,22.064c0,0,10.952,8.355,8.424,19.231l-1.707.186s2.145-9.107-6.47-17.141c0,0-9.8-7.808-5-24.785Z" transform="translate(-372.651 -163.867)" fill="#ced3f8"/>
        <path id="Shape_55_copy" data-name="Shape 55 copy" d="M464.24,234.969s3.45,9.254-1.014,15.31c0,0-14.155,12.283-9.653,26.976a4.205,4.205,0,0,0,6.4-1.05s-3.956-8.926,5.324-18.289c0,0,9.983-6.912,5.909-23.938C471.2,233.978,466.5,231.064,464.24,234.969Z" transform="translate(-404.683 -163.369)" fill="#dde2f8"/>
        <path id="Shape_59" data-name="Shape 59" d="M473.542,233.252l1.649.746s3.768,8.321-2.063,19.923a20.263,20.263,0,0,1-2.572,2.61s-9.21,6.977-7.127,18.823l-1.767.392s-2.079-13,9.13-21.492C470.791,254.254,477.521,248.162,473.542,233.252Z" transform="translate(-408.456 -163.505)" fill="#ced3f8"/>
        <path id="Polygon_1_copy" data-name="Polygon 1 copy" d="M415.326,132.633a16.024,16.024,0,0,1,11.33,4.693l13.532,13.532a16.023,16.023,0,0,1,4.693,11.33v19.137a16.024,16.024,0,0,1-4.693,11.33l-13.532,13.532a16.023,16.023,0,0,1-11.33,4.693H396.189a16.023,16.023,0,0,1-11.33-4.693l-13.532-13.532a16.024,16.024,0,0,1-4.693-11.33V162.189a16.023,16.023,0,0,1,4.693-11.33l13.532-13.532a16.024,16.024,0,0,1,11.33-4.693Z" transform="translate(-360.874 -130.441)" fill="#ced3f8"/>
        <path id="Shape_54" data-name="Shape 54" d="M374.115,228.49s-11.849,11.974-.757,28.7c0,0,15.863,15.583,15.909,32.074,0,0-.023,1.787,4.331,1.227,0,0,3.571-.707,2.358-3.38,0,0-1.234-18.476-17.135-34.092,0,0-7.681-8-1.07-19,0,0,3.271-3.44.038-5.837A3,3,0,0,0,374.115,228.49Z" transform="translate(-365.723 -167.094)" fill="#fff"/>
        <path id="Shape_57" data-name="Shape 57" d="M381.863,229.4a2.767,2.767,0,0,1,.31,3.686s-8.013,10.83-.416,20.188c0,0,9.392,10.427,12.481,16.452,0,0,5.3,9.976,5.4,20.229,0,0-.975,1.311-2.01,1.23,0,0,1.252-8.864-5.445-20.756a84.9,84.9,0,0,0-11.912-15.969s-8.3-9.3.808-21.812A9.269,9.269,0,0,0,381.863,229.4Z" transform="translate(-369.228 -167.832)" fill="#ced3f8"/>
        <path id="Shape_54_copy" data-name="Shape 54 copy" d="M476.935,229.074s11.264,12.381-.452,28.66c0,0-16.4,14.962-17.141,31.411,0,0-.052,1.784-4.352,1.065,0,0-3.517-.837-2.2-3.459,0,0,2-18.386,18.444-33.379,0,0,7.962-7.7,1.859-18.917,0,0-3.1-3.552.207-5.824A2.965,2.965,0,0,1,476.935,229.074Z" transform="translate(-401.6 -167.313)" fill="#fff"/>
        <path id="Shape_56" data-name="Shape 56" d="M471.645,227.457s11.913,10.6,3.136,25.433a24.939,24.939,0,0,1-5.414,5.2s-11.7,8.381-15.625,31.674c0,0-1.255-1.094-1.363-1.765,0,0,1.654-15.952,12.558-28.317a61.988,61.988,0,0,1,4.893-5.266s5.82-4.629,5.622-11.04c0,0,.131-7.721-5.766-12.962A2.54,2.54,0,0,1,471.645,227.457Z" transform="translate(-401.551 -167)" fill="#ced3f8"/>
        <path id="Polygon_1" data-name="Polygon 1" d="M412.326,121.633a16.023,16.023,0,0,1,11.33,4.693l13.532,13.532a16.024,16.024,0,0,1,4.693,11.33v19.137a16.024,16.024,0,0,1-4.693,11.33l-13.532,13.532a16.023,16.023,0,0,1-11.33,4.693H393.188a16.023,16.023,0,0,1-11.33-4.693l-13.532-13.532a16.024,16.024,0,0,1-4.693-11.33V151.188a16.024,16.024,0,0,1,4.693-11.33l13.532-13.532a16.024,16.024,0,0,1,11.33-4.693Z" transform="translate(-363.633 -121.633)" fill="#f8f8f8"/>
        <g id="Left_Eye_copy" transform="translate(18.941 18.941)">
          <g id="Group_60" data-name="Group 60">
            <path id="Path_52" data-name="Path 52" d="M545.159,545.463c-.922-.032-1.8-.318-2.719-.4a1.087,1.087,0,0,1-.986-1.256,14.86,14.86,0,0,0-1.924-9.047c-.429-.811-.3-1.272.493-1.828.906-.62,1.813-1.24,2.671-1.908a1.157,1.157,0,0,0,.3-1.828,1.212,1.212,0,0,0-1.876-.111c-.858.715-1.669,1.51-2.5,2.274a1.1,1.1,0,0,1-1.765,0,14.948,14.948,0,0,0-7.727-3.9c-1.367-.238-1.383-.35-1.447-1.749-.032-.954.175-1.892.191-2.83a1.908,1.908,0,0,0-.6-1.606h-1.24a1.626,1.626,0,0,0-.6,1.494,25.89,25.89,0,0,0,.143,2.926c.191,1.1-.191,1.558-1.32,1.765a14.637,14.637,0,0,0-7.377,3.466c-1.034.906-1.3.874-2.305-.1-.684-.652-1.352-1.336-2.035-1.987a1.306,1.306,0,0,0-1.908-.111,1.324,1.324,0,0,0,.27,2c.731.588,1.526,1.129,2.305,1.669,1.113.779,1.193,1.145.525,2.321a15.656,15.656,0,0,0-2,8.442,1.336,1.336,0,0,1-1.494,1.574c-1.049.016-2.035.334-3.069.413a1.5,1.5,0,0,0-.89.541v1.431c.922,1.018,1.924.334,2.894.111.684-.159,1.351-.413,2.051-.588a1.027,1.027,0,0,1,1.431.747,14.808,14.808,0,0,0,5.469,7.266c.747.541.827,1.033.334,1.876-.572.97-1.145,1.94-1.669,2.941a1.131,1.131,0,0,0,.477,1.653,1.272,1.272,0,0,0,1.749-.525c.461-.954.843-1.956,1.24-2.941.461-1.145.843-1.351,2-.986a14.217,14.217,0,0,0,8.649.048,1.16,1.16,0,0,1,1.685.858c.318.859.668,1.7.97,2.576a2.781,2.781,0,0,0,1.033,1.4h.716c1.065-.731,1.176-1.129.572-2.289-.461-.89-.97-1.765-1.447-2.639a1.114,1.114,0,0,1,.366-1.717,14.661,14.661,0,0,0,5.787-7.329c.318-.859.986-.715,1.622-.541.906.254,1.8.588,2.7.874a1.622,1.622,0,0,0,2-.461v-1.24A2.4,2.4,0,0,0,545.159,545.463Zm-18.522-5.231a2.092,2.092,0,1,1-2.162,2.019A1.936,1.936,0,0,1,526.637,540.232Zm-7.807-6.964a10.722,10.722,0,0,1,5.676-2.719c.906-.111.4.763.572,1.145-.175,1.717-.334,3.387-.509,5.056-.063.588-.381.827-.906.477-1.622-1.1-3.212-2.226-4.817-3.323C518.544,533.682,518.576,533.491,518.83,533.268Zm-4.15,9.4a13.627,13.627,0,0,1,1.463-6.01c.223-.413.4-.62.827-.191,1.288,1.272,2.607,2.5,3.911,3.752.715.7.636,1.034-.318,1.32-1.606.493-3.212.986-4.833,1.479C514.84,543.285,514.681,543.157,514.681,542.664Zm7.552,4.038c-.6,1.574-1.224,3.148-1.812,4.722-.238.652-.556.859-1.145.35a12.807,12.807,0,0,1-3.561-4.706c-.127-.286-.35-.668.207-.747,1.844-.254,3.689-.493,5.39-.731C522.567,545.59,522.614,545.67,522.233,546.7Zm7.25,7.3a12.9,12.9,0,0,1-2.751.4,13.279,13.279,0,0,1-3.212-.477c-.509-.1-.731-.318-.4-.843.986-1.622,1.956-3.243,2.925-4.881.334-.556.7-.509,1,.016.954,1.638,1.876,3.307,2.814,4.945C530.1,553.6,529.976,553.937,529.483,554Zm-.747-17.616a34.454,34.454,0,0,1-.35-4.229v-.541c-.032-1.177.032-1.256,1.177-.922a12.773,12.773,0,0,1,4.674,2.433c.525.445.668.747-.032,1.176-1.415.874-2.766,1.828-4.15,2.719C529.022,537.688,528.879,537.593,528.736,536.384Zm8.665,10.986a12.547,12.547,0,0,1-3.7,4.595c-.413.3-.715.445-.938-.175-.636-1.749-1.256-3.514-1.908-5.263-.223-.6-.064-.922.636-.954.811.127,1.654.318,2.512.413,1,.1,1.987.318,2.973.493C537.528,546.592,537.655,546.862,537.4,547.371Zm-.588-4.34c-1.431-.477-2.846-.97-4.293-1.431-.715-.223-.779-.556-.254-1.049,1.336-1.272,2.671-2.528,3.991-3.8.461-.429.731-.35.986.207a11.752,11.752,0,0,1,1.208,4.865C538.545,543.587,538.529,543.6,536.812,543.03Z" transform="translate(-506.27 -521.28)" fill="#5652cc"/>
          </g>
        </g>
      </g>
    </g>
  </g>
</svg>
