<svg xmlns="http://www.w3.org/2000/svg" xmlns:xlink="http://www.w3.org/1999/xlink" width="548.287" height="636.212" viewBox="0 0 548.287 636.212">
  <defs>
    <clipPath id="clip-path">
      <rect id="Rectangle_293" data-name="Rectangle 293" width="547.265" height="586.515" fill="#fff" stroke="#020f1e" stroke-linecap="round" stroke-linejoin="round" stroke-width="1"/>
    </clipPath>
    <clipPath id="clip-path-2">
      <rect id="Rectangle_296" data-name="Rectangle 296" width="547.265" height="586.515" fill="none" stroke="#707070" stroke-linecap="round" stroke-linejoin="round" stroke-width="1"/>
    </clipPath>
    <clipPath id="clip-path-10">
      <path id="Path_20261" data-name="Path 20261" d="M124.374,49.506c-.014,0-.025.006-.025.014v1.164c0,.008.011.014.025.014H126.6c.014,0,.026-.006.026-.014V49.52c0-.008-.011-.014-.026-.014Z" transform="translate(-124.349 -49.506)" fill="none"/>
    </clipPath>
    <clipPath id="clip-path-11">
      <path id="Path_20263" data-name="Path 20263" d="M65.439,71.312c-.014,0-.026.006-.026.014V72.49c0,.008.011.014.026.014h2.226c.014,0,.026-.006.026-.014V71.326c0-.008-.011-.014-.025-.014Z" transform="translate(-65.413 -71.312)" fill="none"/>
    </clipPath>
    <clipPath id="clip-path-12">
      <path id="Path_20265" data-name="Path 20265" d="M70.747,41.292c-.019,0-.034.008-.034.018v1.538c0,.01.015.018.034.018h2.942c.019,0,.034-.008.034-.018V41.31c0-.01-.015-.018-.034-.018Z" transform="translate(-70.713 -41.292)" fill="none"/>
    </clipPath>
    <clipPath id="clip-path-13">
      <path id="Path_20267" data-name="Path 20267" d="M88.049,61.839a1.275,1.275,0,0,0-.622.159l-8.281,5.05,8.281,5.05c.526.321,1.53.126,1.53-.3V70.614a1.1,1.1,0,0,0-.625-.883l-4.4-2.682,4.4-2.682a1.1,1.1,0,0,0,.625-.883V62.295c-.018-.255-.406-.456-.874-.456h-.034" transform="translate(-79.146 -61.839)" fill="none"/>
    </clipPath>
    <clipPath id="clip-path-14">
      <path id="Path_20269" data-name="Path 20269" d="M179.461,23.413a.449.449,0,0,0-.294.336v1.189a1.1,1.1,0,0,0,.624.883l4.4,2.682-4.4,2.682a1.1,1.1,0,0,0-.625.883v1.188c0,.423,1,.618,1.53.3l8.281-5.05-8.281-5.05a1.3,1.3,0,0,0-.655-.16,1.37,1.37,0,0,0-.581.12" transform="translate(-179.167 -23.293)" fill="none"/>
    </clipPath>
  </defs>
  <g id="compage-img1" transform="translate(0.5 0.66)">
    <g id="Group_1520" data-name="Group 1520" transform="translate(0 -0.031)">
      <g id="Mask_Group_6" data-name="Mask Group 6" clip-path="url(#clip-path)">
        <path id="Path_17367" data-name="Path 17367" d="M552.047,210.642l-26.668-15.355a6.964,6.964,0,0,0-8.889,0l-3.233,3.233s-4.66,2.64-10.506-1.616L369.409,120.131s-13.516-7.516-19.335,6.788l9.637,131.4s-2.29,8.455,6.465,12.93L547.245,386.076s10.459-2.494,12.884-10.575V226.8S561.61,217.212,552.047,210.642Z" transform="translate(-57.47 -29.136)" fill="none" stroke="#020f1e" stroke-linecap="round" stroke-linejoin="round" stroke-width="1"/>
        <path id="Path_17300" data-name="Path 17300" d="M554.271,210.539,527.6,195.185a6.964,6.964,0,0,0-8.889,0l-3.233,3.232s-4.768,2.209-10.506-1.616L371.633,120.028s-10.372-7.168-9.7,3.233V258.219s-2.29,8.456,6.465,12.93L552.655,377.822s7.273,5.657,9.7-2.424V226.7S563.834,217.109,554.271,210.539Z" transform="translate(-69.392 -22.568)" fill="#fff" stroke="#020f1e" stroke-linecap="round" stroke-linejoin="round" stroke-width="1"/>
      </g>
    </g>
    <g id="Group_1522" data-name="Group 1522" transform="translate(0.671 -0.159)">
      <g id="Group_1583" data-name="Group 1583">
        <path id="Path_17301" data-name="Path 17301" d="M465.417,396.272s-7.92-4.732-15.936-8.722L301.592,302.7s-40.472-26.314-38.79-63.034V24.7s.956-14.154-8.081-19.4L245.831.454a13.181,13.181,0,0,0-11.314,1.616L18.746,128.947S-1,139.51.967,165.313V375.428s-4.51,55.845,48.488,89.836l155.161,92.127s20.549,16.791,44.447,4.174l214.72-129.246s12.762-3.69,7.064-28.251" transform="translate(-0.83 0.159)" fill="#fff" stroke="#020f1e" stroke-linecap="round" stroke-linejoin="round" stroke-width="1"/>
      </g>
    </g>
    <g id="Group_1524" data-name="Group 1524" transform="translate(15.341 8.932)">
      <g id="Group_1584" data-name="Group 1584">
        <path id="Path_17302" data-name="Path 17302" d="M466.126,397.761,295.611,296.744s-28.967-23.914-29.093-63.034V27.636s-.412-22.3-14.546-15.355L36.2,137.542s-18.048,9.7-20.2,31.517V382.406s-1.918,43.7,40.407,72.732l155.969,91.319s16.742,9.411,37.982,0l216.579-129.3s10.363-8.291-.808-19.4" transform="translate(-15.984 -10.942)" fill="#fff" stroke="#020f1e" stroke-linecap="round" stroke-linejoin="round" stroke-width="1"/>
      </g>
    </g>
    <g id="Group_1526" data-name="Group 1526" transform="translate(0 -0.031)">
      <g id="Group_1525" data-name="Group 1525" clip-path="url(#clip-path-2)">
        <path id="Path_17303" data-name="Path 17303" d="M30.637,276.338l1.8-1.045v14.142l2.226-1.293v-16.5l-4.026,2.338Zm12.1-9.673a8.8,8.8,0,0,0-3.9,4.471,18.4,18.4,0,0,0-1.132,6.779q0,3.959,1.132,5.531t3.9-.036a8.8,8.8,0,0,0,3.9-4.493,18.721,18.721,0,0,0,1.132-6.846q0-3.914-1.132-5.463t-3.9.058m2.671,9.967a7.44,7.44,0,0,1-.823,2.559,4.775,4.775,0,0,1-1.848,1.865q-1.219.708-1.848.282a2.277,2.277,0,0,1-.823-1.6,19.671,19.671,0,0,1-.194-3.078,22.384,22.384,0,0,1,.2-3.218,7.74,7.74,0,0,1,.823-2.548,4.7,4.7,0,0,1,1.839-1.872q1.219-.708,1.839-.264a2.373,2.373,0,0,1,.823,1.593,17.7,17.7,0,0,1,.2,2.982,24.605,24.605,0,0,1-.193,3.3M49.818,265.2l1.8-1.046V278.3L53.843,277v-16.5l-4.025,2.338Zm12.1-9.673a8.807,8.807,0,0,0-3.9,4.471,18.4,18.4,0,0,0-1.132,6.778q0,3.96,1.132,5.532t3.9-.036a8.79,8.79,0,0,0,3.9-4.494,18.713,18.713,0,0,0,1.132-6.846q0-3.914-1.132-5.464t-3.9.059m2.672,9.967a7.468,7.468,0,0,1-.823,2.559,4.778,4.778,0,0,1-1.849,1.865q-1.219.708-1.848.281a2.282,2.282,0,0,1-.823-1.6,19.676,19.676,0,0,1-.193-3.078,22.511,22.511,0,0,1,.2-3.218,7.792,7.792,0,0,1,.823-2.548,4.7,4.7,0,0,1,1.838-1.871q1.219-.708,1.839-.264a2.376,2.376,0,0,1,.823,1.593,17.78,17.78,0,0,1,.2,2.981,24.61,24.61,0,0,1-.193,3.3M69,254.06l1.8-1.045v14.142l2.226-1.293v-16.5L69,251.707Zm12.1-9.672a8.808,8.808,0,0,0-3.9,4.471,18.4,18.4,0,0,0-1.132,6.779q0,3.96,1.132,5.531t3.9-.036a8.8,8.8,0,0,0,3.9-4.494,18.722,18.722,0,0,0,1.132-6.847q0-3.914-1.132-5.463t-3.9.059m2.671,9.966a7.439,7.439,0,0,1-.823,2.559,4.782,4.782,0,0,1-1.848,1.866q-1.22.708-1.848.281a2.281,2.281,0,0,1-.823-1.6,19.66,19.66,0,0,1-.194-3.078,22.382,22.382,0,0,1,.2-3.218,7.784,7.784,0,0,1,.823-2.548,4.7,4.7,0,0,1,1.839-1.871q1.219-.709,1.838-.265a2.37,2.37,0,0,1,.823,1.593,17.691,17.691,0,0,1,.2,2.982,24.45,24.45,0,0,1-.194,3.3m4.413-11.433,1.8-1.045v14.142l2.226-1.293v-16.5l-4.025,2.338Zm12.1-9.672a8.8,8.8,0,0,0-3.9,4.471,18.4,18.4,0,0,0-1.132,6.778q0,3.96,1.132,5.532t3.9-.036a8.8,8.8,0,0,0,3.9-4.493,18.721,18.721,0,0,0,1.132-6.846q0-3.914-1.132-5.463t-3.9.058m2.671,9.967a7.439,7.439,0,0,1-.823,2.559,4.775,4.775,0,0,1-1.848,1.865q-1.219.708-1.849.282a2.28,2.28,0,0,1-.822-1.6,19.671,19.671,0,0,1-.194-3.078,22.384,22.384,0,0,1,.2-3.218,7.758,7.758,0,0,1,.822-2.548,4.7,4.7,0,0,1,1.839-1.872q1.219-.708,1.839-.264a2.373,2.373,0,0,1,.823,1.593,17.7,17.7,0,0,1,.2,2.982,24.6,24.6,0,0,1-.193,3.3m4.412-11.433,1.8-1.046V244.88l2.226-1.292v-16.5l-4.026,2.338Zm12.1-9.673a8.808,8.808,0,0,0-3.9,4.471,18.4,18.4,0,0,0-1.132,6.779q0,3.96,1.132,5.531t3.9-.036a8.794,8.794,0,0,0,3.9-4.494,18.717,18.717,0,0,0,1.132-6.846q0-3.915-1.132-5.464t-3.9.059m2.671,9.967a7.45,7.45,0,0,1-.822,2.559,4.778,4.778,0,0,1-1.849,1.865q-1.219.708-1.848.281a2.282,2.282,0,0,1-.823-1.6,19.674,19.674,0,0,1-.193-3.078,22.508,22.508,0,0,1,.2-3.218,7.791,7.791,0,0,1,.823-2.548,4.7,4.7,0,0,1,1.839-1.871q1.219-.708,1.839-.264a2.372,2.372,0,0,1,.822,1.592,17.7,17.7,0,0,1,.2,2.982,24.473,24.473,0,0,1-.194,3.3m4.413-11.433,1.8-1.045v14.142l2.226-1.293v-16.5l-4.026,2.338Zm12.1-9.673a8.81,8.81,0,0,0-3.9,4.471,18.4,18.4,0,0,0-1.132,6.779q0,3.96,1.132,5.531t3.9-.036a8.793,8.793,0,0,0,3.9-4.493,18.721,18.721,0,0,0,1.132-6.846q0-3.914-1.132-5.463t-3.9.058m2.671,9.967a7.439,7.439,0,0,1-.823,2.559,4.775,4.775,0,0,1-1.848,1.865q-1.22.709-1.848.282a2.281,2.281,0,0,1-.823-1.6,19.662,19.662,0,0,1-.194-3.078,22.384,22.384,0,0,1,.2-3.218,7.766,7.766,0,0,1,.823-2.548,4.7,4.7,0,0,1,1.839-1.871q1.22-.709,1.838-.265a2.373,2.373,0,0,1,.823,1.593,17.694,17.694,0,0,1,.2,2.982,24.455,24.455,0,0,1-.194,3.3m4.413-11.433,1.8-1.045V222.6l2.226-1.293v-16.5l-4.025,2.338Zm12.1-9.673a8.8,8.8,0,0,0-3.9,4.471,18.4,18.4,0,0,0-1.132,6.778q0,3.96,1.132,5.532t3.9-.036a8.8,8.8,0,0,0,3.9-4.493,18.721,18.721,0,0,0,1.132-6.846q0-3.914-1.132-5.463t-3.9.058m2.671,9.967a7.439,7.439,0,0,1-.823,2.559,4.775,4.775,0,0,1-1.848,1.865q-1.219.708-1.849.281a2.28,2.28,0,0,1-.823-1.6,19.784,19.784,0,0,1-.193-3.078,22.51,22.51,0,0,1,.2-3.218,7.789,7.789,0,0,1,.823-2.549,4.7,4.7,0,0,1,1.839-1.871q1.22-.708,1.839-.264a2.373,2.373,0,0,1,.823,1.593,17.788,17.788,0,0,1,.2,2.982,24.6,24.6,0,0,1-.193,3.3m4.412-11.433,1.8-1.046v14.142l2.226-1.292v-16.5l-4.026,2.338Zm12.1-9.673a8.808,8.808,0,0,0-3.9,4.471,18.405,18.405,0,0,0-1.132,6.779q0,3.96,1.132,5.531t3.9-.036a8.8,8.8,0,0,0,3.9-4.494,18.721,18.721,0,0,0,1.132-6.846q0-3.915-1.132-5.464t-3.9.059m2.671,9.966a7.431,7.431,0,0,1-.823,2.56A4.775,4.775,0,0,1,177,203.085q-1.22.708-1.848.281a2.282,2.282,0,0,1-.823-1.6,19.673,19.673,0,0,1-.193-3.078,22.391,22.391,0,0,1,.2-3.218,7.791,7.791,0,0,1,.823-2.548A4.7,4.7,0,0,1,177,191.047q1.219-.708,1.838-.265a2.373,2.373,0,0,1,.823,1.593,17.7,17.7,0,0,1,.2,2.982,24.449,24.449,0,0,1-.194,3.3m4.413-11.433,1.8-1.045v14.142l2.226-1.293v-16.5l-4.026,2.338Zm12.1-9.673a8.809,8.809,0,0,0-3.9,4.471,18.4,18.4,0,0,0-1.132,6.779q0,3.959,1.132,5.531t3.9-.036a8.793,8.793,0,0,0,3.9-4.493,18.721,18.721,0,0,0,1.132-6.846q0-3.914-1.132-5.463t-3.9.058m2.671,9.967a7.439,7.439,0,0,1-.823,2.559,4.775,4.775,0,0,1-1.848,1.865q-1.22.709-1.848.282a2.28,2.28,0,0,1-.823-1.6,19.66,19.66,0,0,1-.194-3.078,22.39,22.39,0,0,1,.2-3.218,7.741,7.741,0,0,1,.823-2.548,4.7,4.7,0,0,1,1.839-1.872q1.219-.708,1.839-.264a2.373,2.373,0,0,1,.823,1.593,17.7,17.7,0,0,1,.2,2.982,24.583,24.583,0,0,1-.194,3.3m4.413-11.433,1.8-1.046v14.142l2.226-1.292V171.4l-4.025,2.338Zm12.1-9.673a8.8,8.8,0,0,0-3.9,4.471,18.4,18.4,0,0,0-1.133,6.778q0,3.96,1.133,5.532t3.9-.036a8.8,8.8,0,0,0,3.9-4.494,18.713,18.713,0,0,0,1.132-6.846q0-3.914-1.132-5.463t-3.9.058m2.671,9.967a7.462,7.462,0,0,1-.823,2.559,4.78,4.78,0,0,1-1.848,1.865q-1.219.708-1.849.281a2.28,2.28,0,0,1-.823-1.6,19.766,19.766,0,0,1-.193-3.077,22.509,22.509,0,0,1,.2-3.218,7.79,7.79,0,0,1,.823-2.549,4.7,4.7,0,0,1,1.839-1.871q1.218-.708,1.839-.264a2.373,2.373,0,0,1,.823,1.593,17.794,17.794,0,0,1,.2,2.982,24.606,24.606,0,0,1-.193,3.3m4.412-11.433,1.8-1.046v14.142l2.226-1.292v-16.5l-4.026,2.338Zm12.1-9.673a8.808,8.808,0,0,0-3.9,4.471,18.4,18.4,0,0,0-1.132,6.779q0,3.96,1.132,5.531t3.9-.036a8.8,8.8,0,0,0,3.9-4.494,18.721,18.721,0,0,0,1.132-6.846q0-3.914-1.132-5.463t-3.9.059m2.671,9.966a7.439,7.439,0,0,1-.823,2.559,4.771,4.771,0,0,1-1.848,1.866q-1.219.708-1.848.281a2.279,2.279,0,0,1-.823-1.6,19.682,19.682,0,0,1-.193-3.078,22.4,22.4,0,0,1,.2-3.218,7.791,7.791,0,0,1,.823-2.548,4.7,4.7,0,0,1,1.838-1.871q1.22-.708,1.839-.265a2.372,2.372,0,0,1,.823,1.593,17.7,17.7,0,0,1,.2,2.982,24.455,24.455,0,0,1-.194,3.3m4.413-11.433,1.8-1.045v14.142l2.226-1.293v-16.5l-4.026,2.338Zm12.1,7.072a8.793,8.793,0,0,0,3.9-4.493,18.723,18.723,0,0,0,1.132-6.847q0-3.914-1.132-5.463t-3.9.058a8.806,8.806,0,0,0-3.9,4.471,18.4,18.4,0,0,0-1.132,6.779q0,3.959,1.132,5.531t3.9-.036m-2.661-9.972a7.741,7.741,0,0,1,.823-2.548,4.7,4.7,0,0,1,1.839-1.872q1.219-.708,1.839-.264a2.373,2.373,0,0,1,.823,1.593,17.709,17.709,0,0,1,.2,2.982,24.608,24.608,0,0,1-.193,3.3,7.439,7.439,0,0,1-.823,2.559,4.776,4.776,0,0,1-1.848,1.865q-1.219.709-1.848.282a2.281,2.281,0,0,1-.823-1.6,19.66,19.66,0,0,1-.194-3.078,22.382,22.382,0,0,1,.2-3.218M30.637,299.774l1.8-1.045v14.142l2.226-1.293v-16.5l-4.026,2.338Zm12.1-9.672a8.8,8.8,0,0,0-3.9,4.471,18.4,18.4,0,0,0-1.132,6.779q0,3.959,1.132,5.531t3.9-.036a8.8,8.8,0,0,0,3.9-4.493,18.721,18.721,0,0,0,1.132-6.846q0-3.914-1.132-5.463t-3.9.058m2.671,9.967a7.44,7.44,0,0,1-.823,2.559,4.775,4.775,0,0,1-1.848,1.865q-1.219.708-1.848.282a2.278,2.278,0,0,1-.823-1.6,19.669,19.669,0,0,1-.194-3.078,22.385,22.385,0,0,1,.2-3.218,7.74,7.74,0,0,1,.823-2.548,4.7,4.7,0,0,1,1.839-1.872q1.219-.708,1.839-.264a2.373,2.373,0,0,1,.823,1.593,17.7,17.7,0,0,1,.2,2.982,24.6,24.6,0,0,1-.193,3.3m4.413-11.433,1.8-1.046v14.142l2.226-1.292v-16.5l-4.025,2.338Zm12.1-9.672a8.807,8.807,0,0,0-3.9,4.471,18.4,18.4,0,0,0-1.132,6.778q0,3.96,1.132,5.532t3.9-.036a8.79,8.79,0,0,0,3.9-4.494,18.714,18.714,0,0,0,1.132-6.846q0-3.914-1.132-5.464t-3.9.059m2.672,9.967a7.468,7.468,0,0,1-.823,2.559,4.777,4.777,0,0,1-1.849,1.865q-1.219.708-1.848.281a2.282,2.282,0,0,1-.823-1.6,19.675,19.675,0,0,1-.193-3.078,22.511,22.511,0,0,1,.2-3.218,7.791,7.791,0,0,1,.823-2.548,4.7,4.7,0,0,1,1.838-1.871q1.219-.708,1.839-.264a2.376,2.376,0,0,1,.823,1.593,17.78,17.78,0,0,1,.2,2.981,24.617,24.617,0,0,1-.193,3.3M69,277.5l1.8-1.045v14.142l2.226-1.293V272.8L69,275.142Zm12.1-9.672a8.808,8.808,0,0,0-3.9,4.471,18.4,18.4,0,0,0-1.132,6.779q0,3.96,1.132,5.531t3.9-.036a8.8,8.8,0,0,0,3.9-4.494,18.722,18.722,0,0,0,1.132-6.847q0-3.914-1.132-5.463t-3.9.059m2.671,9.966a7.439,7.439,0,0,1-.823,2.559,4.783,4.783,0,0,1-1.848,1.866q-1.22.708-1.848.281a2.28,2.28,0,0,1-.823-1.6,19.66,19.66,0,0,1-.194-3.078,22.384,22.384,0,0,1,.2-3.218,7.784,7.784,0,0,1,.823-2.548,4.7,4.7,0,0,1,1.839-1.871q1.219-.709,1.838-.265a2.37,2.37,0,0,1,.823,1.593,17.691,17.691,0,0,1,.2,2.982,24.45,24.45,0,0,1-.194,3.3m4.413-11.433,1.8-1.045v14.142l2.226-1.293v-16.5L88.179,264Zm12.1-9.673a8.8,8.8,0,0,0-3.9,4.471,18.4,18.4,0,0,0-1.132,6.778q0,3.96,1.132,5.532t3.9-.036a8.8,8.8,0,0,0,3.9-4.493,18.722,18.722,0,0,0,1.132-6.847q0-3.914-1.132-5.463t-3.9.058m2.671,9.967a7.439,7.439,0,0,1-.823,2.559,4.775,4.775,0,0,1-1.848,1.865q-1.219.708-1.849.282a2.28,2.28,0,0,1-.822-1.6,19.672,19.672,0,0,1-.194-3.078,22.385,22.385,0,0,1,.2-3.218,7.769,7.769,0,0,1,.822-2.549,4.707,4.707,0,0,1,1.839-1.871q1.219-.708,1.839-.264a2.373,2.373,0,0,1,.823,1.593,17.7,17.7,0,0,1,.2,2.982,24.6,24.6,0,0,1-.193,3.3m4.412-11.433,1.8-1.046v14.142l2.226-1.292v-16.5l-4.026,2.338Zm12.1-9.673a8.809,8.809,0,0,0-3.9,4.471,18.4,18.4,0,0,0-1.132,6.779q0,3.96,1.132,5.531t3.9-.036a8.794,8.794,0,0,0,3.9-4.494,18.717,18.717,0,0,0,1.132-6.846q0-3.915-1.132-5.464t-3.9.059m2.671,9.966a7.448,7.448,0,0,1-.822,2.56,4.777,4.777,0,0,1-1.849,1.865q-1.219.708-1.848.281a2.282,2.282,0,0,1-.823-1.6,19.672,19.672,0,0,1-.193-3.078,22.508,22.508,0,0,1,.2-3.218,7.79,7.79,0,0,1,.823-2.548,4.7,4.7,0,0,1,1.839-1.871q1.219-.708,1.839-.264a2.372,2.372,0,0,1,.822,1.592,17.7,17.7,0,0,1,.2,2.982,24.452,24.452,0,0,1-.194,3.3m4.413-11.433,1.8-1.045v14.142l2.226-1.293v-16.5l-4.026,2.338Zm12.1-9.672a8.8,8.8,0,0,0-3.9,4.471,18.4,18.4,0,0,0-1.132,6.779q0,3.96,1.132,5.531t3.9-.036a8.8,8.8,0,0,0,3.9-4.494,18.721,18.721,0,0,0,1.132-6.846q0-3.914-1.132-5.463t-3.9.059m2.671,9.966a7.439,7.439,0,0,1-.823,2.559,4.775,4.775,0,0,1-1.848,1.865q-1.22.709-1.848.282a2.281,2.281,0,0,1-.823-1.6,19.661,19.661,0,0,1-.194-3.078,22.385,22.385,0,0,1,.2-3.218,7.766,7.766,0,0,1,.823-2.548,4.7,4.7,0,0,1,1.839-1.871q1.22-.709,1.838-.265a2.373,2.373,0,0,1,.823,1.593,17.7,17.7,0,0,1,.2,2.982,24.454,24.454,0,0,1-.194,3.3m4.413-11.433,1.8-1.045v14.142l2.226-1.292v-16.5l-4.025,2.338Zm12.1-9.673a8.8,8.8,0,0,0-3.9,4.471,18.4,18.4,0,0,0-1.132,6.778q0,3.96,1.132,5.532t3.9-.036a8.8,8.8,0,0,0,3.9-4.493,18.721,18.721,0,0,0,1.132-6.847q0-3.914-1.132-5.463t-3.9.058m2.671,9.967a7.439,7.439,0,0,1-.823,2.559,4.775,4.775,0,0,1-1.848,1.865q-1.219.708-1.849.281a2.28,2.28,0,0,1-.823-1.6,19.783,19.783,0,0,1-.193-3.078,22.51,22.51,0,0,1,.2-3.218,7.789,7.789,0,0,1,.823-2.549,4.7,4.7,0,0,1,1.839-1.871q1.22-.708,1.839-.264a2.373,2.373,0,0,1,.823,1.593,17.788,17.788,0,0,1,.2,2.982,24.6,24.6,0,0,1-.193,3.3M164.9,221.8l1.8-1.046V234.9l2.226-1.292v-16.5l-4.026,2.338ZM177,212.13a8.808,8.808,0,0,0-3.9,4.471,18.405,18.405,0,0,0-1.132,6.779q0,3.96,1.132,5.531t3.9-.036a8.8,8.8,0,0,0,3.9-4.494,18.721,18.721,0,0,0,1.132-6.846q0-3.915-1.132-5.464t-3.9.059m2.671,9.966a7.431,7.431,0,0,1-.823,2.56A4.775,4.775,0,0,1,177,226.521q-1.22.708-1.848.281a2.282,2.282,0,0,1-.823-1.6,19.673,19.673,0,0,1-.193-3.078,22.391,22.391,0,0,1,.2-3.218,7.791,7.791,0,0,1,.823-2.548A4.7,4.7,0,0,1,177,214.483q1.219-.708,1.838-.265a2.373,2.373,0,0,1,.823,1.593,17.7,17.7,0,0,1,.2,2.982,24.45,24.45,0,0,1-.194,3.3m4.413-11.433,1.8-1.045v14.142l2.226-1.293v-16.5l-4.026,2.338Zm12.1-9.673a8.809,8.809,0,0,0-3.9,4.471,18.4,18.4,0,0,0-1.132,6.779q0,3.96,1.132,5.531t3.9-.036a8.793,8.793,0,0,0,3.9-4.493,18.721,18.721,0,0,0,1.132-6.846q0-3.914-1.132-5.463t-3.9.058m2.671,9.967a7.439,7.439,0,0,1-.823,2.559,4.782,4.782,0,0,1-1.848,1.866q-1.22.708-1.848.281a2.28,2.28,0,0,1-.823-1.6,19.66,19.66,0,0,1-.194-3.078,22.39,22.39,0,0,1,.2-3.218,7.74,7.74,0,0,1,.823-2.548,4.7,4.7,0,0,1,1.839-1.872q1.219-.708,1.839-.264a2.373,2.373,0,0,1,.823,1.593,17.7,17.7,0,0,1,.2,2.982,24.592,24.592,0,0,1-.194,3.3m4.413-11.433,1.8-1.046v14.142l2.226-1.292v-16.5l-4.025,2.338Zm12.1-9.673a8.8,8.8,0,0,0-3.9,4.471,18.4,18.4,0,0,0-1.133,6.778q0,3.96,1.133,5.532t3.9-.036a8.8,8.8,0,0,0,3.9-4.493,18.721,18.721,0,0,0,1.132-6.847q0-3.914-1.132-5.464t-3.9.059m2.671,9.967a7.462,7.462,0,0,1-.823,2.559,4.781,4.781,0,0,1-1.848,1.865q-1.219.708-1.849.281a2.28,2.28,0,0,1-.823-1.6,19.766,19.766,0,0,1-.193-3.077,22.516,22.516,0,0,1,.2-3.218,7.789,7.789,0,0,1,.823-2.549,4.7,4.7,0,0,1,1.839-1.871q1.218-.708,1.839-.264a2.373,2.373,0,0,1,.823,1.593,17.794,17.794,0,0,1,.2,2.982,24.606,24.606,0,0,1-.193,3.3m4.412-11.433,1.8-1.046v14.142l2.226-1.292V183.7l-4.026,2.338Zm12.1-9.673a8.808,8.808,0,0,0-3.9,4.471,18.4,18.4,0,0,0-1.132,6.779q0,3.96,1.132,5.531t3.9-.036a8.8,8.8,0,0,0,3.9-4.494,18.72,18.72,0,0,0,1.132-6.846q0-3.915-1.132-5.464t-3.9.059m2.671,9.966a7.449,7.449,0,0,1-.823,2.56,4.775,4.775,0,0,1-1.848,1.865q-1.219.708-1.848.281a2.279,2.279,0,0,1-.823-1.6,19.682,19.682,0,0,1-.193-3.078,22.4,22.4,0,0,1,.2-3.218,7.791,7.791,0,0,1,.823-2.548,4.7,4.7,0,0,1,1.838-1.871q1.22-.708,1.839-.265a2.372,2.372,0,0,1,.823,1.593,17.7,17.7,0,0,1,.2,2.982,24.454,24.454,0,0,1-.194,3.3m4.413-11.433,1.8-1.045v14.142l2.226-1.293v-16.5l-4.026,2.338Zm12.1-9.673a8.807,8.807,0,0,0-3.9,4.471,18.4,18.4,0,0,0-1.132,6.779q0,3.959,1.132,5.531t3.9-.036a8.793,8.793,0,0,0,3.9-4.493,18.723,18.723,0,0,0,1.132-6.846q0-3.914-1.132-5.463t-3.9.058m2.671,9.967a7.439,7.439,0,0,1-.823,2.559,4.775,4.775,0,0,1-1.848,1.865q-1.219.709-1.848.282a2.281,2.281,0,0,1-.823-1.6,19.66,19.66,0,0,1-.194-3.078,22.382,22.382,0,0,1,.2-3.218,7.741,7.741,0,0,1,.823-2.548,4.7,4.7,0,0,1,1.839-1.872q1.219-.708,1.839-.264a2.373,2.373,0,0,1,.823,1.593,17.709,17.709,0,0,1,.2,2.982,24.608,24.608,0,0,1-.193,3.3M30.637,323.209l1.8-1.045v14.142l2.226-1.293v-16.5l-4.026,2.338Zm12.1-9.673a8.8,8.8,0,0,0-3.9,4.471,18.4,18.4,0,0,0-1.132,6.778q0,3.96,1.132,5.532t3.9-.036a8.8,8.8,0,0,0,3.9-4.493,18.722,18.722,0,0,0,1.132-6.847q0-3.914-1.132-5.463t-3.9.058M45.4,323.5a7.44,7.44,0,0,1-.823,2.559,4.776,4.776,0,0,1-1.848,1.865q-1.219.708-1.848.282a2.278,2.278,0,0,1-.823-1.6,19.67,19.67,0,0,1-.194-3.078,22.384,22.384,0,0,1,.2-3.218,7.74,7.74,0,0,1,.823-2.548,4.7,4.7,0,0,1,1.839-1.872q1.219-.708,1.839-.264a2.373,2.373,0,0,1,.823,1.593,17.706,17.706,0,0,1,.2,2.982,24.6,24.6,0,0,1-.193,3.3m4.413-11.433,1.8-1.046v14.142l2.226-1.292v-16.5l-4.025,2.338Zm12.1-9.673a8.808,8.808,0,0,0-3.9,4.471,18.4,18.4,0,0,0-1.132,6.779q0,3.96,1.132,5.532t3.9-.036a8.791,8.791,0,0,0,3.9-4.494,18.713,18.713,0,0,0,1.132-6.846q0-3.914-1.132-5.464t-3.9.059m2.672,9.967a7.468,7.468,0,0,1-.823,2.559,4.778,4.778,0,0,1-1.849,1.865q-1.219.708-1.848.281a2.282,2.282,0,0,1-.823-1.6,19.676,19.676,0,0,1-.193-3.078,22.513,22.513,0,0,1,.2-3.218,7.791,7.791,0,0,1,.823-2.548,4.7,4.7,0,0,1,1.838-1.871q1.219-.708,1.839-.264a2.377,2.377,0,0,1,.823,1.593,17.783,17.783,0,0,1,.2,2.982,24.613,24.613,0,0,1-.193,3.3M69,300.932l1.8-1.045v14.142l2.226-1.293v-16.5L69,298.578Zm12.1-9.672a8.808,8.808,0,0,0-3.9,4.471,18.4,18.4,0,0,0-1.132,6.779q0,3.96,1.132,5.531T81.1,308A8.8,8.8,0,0,0,85,303.51a18.721,18.721,0,0,0,1.132-6.847q0-3.914-1.132-5.463t-3.9.059m2.671,9.966a7.438,7.438,0,0,1-.823,2.559,4.782,4.782,0,0,1-1.848,1.866q-1.22.708-1.848.281a2.281,2.281,0,0,1-.823-1.6,19.661,19.661,0,0,1-.194-3.078,22.382,22.382,0,0,1,.2-3.218,7.784,7.784,0,0,1,.823-2.548,4.7,4.7,0,0,1,1.839-1.871q1.219-.709,1.838-.265a2.37,2.37,0,0,1,.823,1.593,17.691,17.691,0,0,1,.2,2.982,24.45,24.45,0,0,1-.194,3.3m4.413-11.433,1.8-1.045v14.142L92.2,301.6V285.1l-4.025,2.338Zm12.1-9.673a8.8,8.8,0,0,0-3.9,4.471,18.4,18.4,0,0,0-1.132,6.778q0,3.96,1.132,5.532t3.9-.036a8.8,8.8,0,0,0,3.9-4.493,18.722,18.722,0,0,0,1.132-6.847q0-3.914-1.132-5.463t-3.9.058m2.671,9.967a7.439,7.439,0,0,1-.823,2.559,4.775,4.775,0,0,1-1.848,1.865q-1.219.708-1.849.281a2.277,2.277,0,0,1-.822-1.6,19.672,19.672,0,0,1-.194-3.078,22.383,22.383,0,0,1,.2-3.218,7.769,7.769,0,0,1,.822-2.549,4.708,4.708,0,0,1,1.839-1.871q1.219-.708,1.839-.264a2.373,2.373,0,0,1,.823,1.593,17.7,17.7,0,0,1,.2,2.982,24.6,24.6,0,0,1-.193,3.3m4.412-11.433,1.8-1.046v14.142l2.226-1.292v-16.5l-4.026,2.338Zm12.1-9.673a8.808,8.808,0,0,0-3.9,4.471,18.4,18.4,0,0,0-1.132,6.779q0,3.96,1.132,5.531t3.9-.036a8.794,8.794,0,0,0,3.9-4.494,18.717,18.717,0,0,0,1.132-6.846q0-3.915-1.132-5.464t-3.9.059m2.671,9.966a7.448,7.448,0,0,1-.822,2.56,4.777,4.777,0,0,1-1.849,1.865q-1.219.708-1.848.281a2.282,2.282,0,0,1-.823-1.6,19.673,19.673,0,0,1-.193-3.078,22.508,22.508,0,0,1,.2-3.218,7.79,7.79,0,0,1,.823-2.548,4.7,4.7,0,0,1,1.839-1.871q1.219-.708,1.839-.264a2.372,2.372,0,0,1,.822,1.592,17.7,17.7,0,0,1,.2,2.982,24.451,24.451,0,0,1-.194,3.3m4.413-11.433,1.8-1.045v14.142l2.226-1.293v-16.5l-4.026,2.338Zm12.1-9.673a8.809,8.809,0,0,0-3.9,4.471,18.4,18.4,0,0,0-1.132,6.779q0,3.96,1.132,5.531t3.9-.036a8.8,8.8,0,0,0,3.9-4.494,18.722,18.722,0,0,0,1.132-6.847q0-3.914-1.132-5.463t-3.9.058m2.671,9.967a7.439,7.439,0,0,1-.823,2.559,4.782,4.782,0,0,1-1.848,1.866q-1.22.708-1.848.281a2.281,2.281,0,0,1-.823-1.6,19.661,19.661,0,0,1-.194-3.078,22.384,22.384,0,0,1,.2-3.218,7.759,7.759,0,0,1,.823-2.548,4.706,4.706,0,0,1,1.839-1.872q1.22-.708,1.838-.264a2.373,2.373,0,0,1,.823,1.593,17.693,17.693,0,0,1,.2,2.982,24.456,24.456,0,0,1-.194,3.3m4.413-11.433,1.8-1.046v14.142l2.226-1.292v-16.5l-4.025,2.338Zm12.1-9.673a8.8,8.8,0,0,0-3.9,4.471,18.4,18.4,0,0,0-1.132,6.778q0,3.96,1.132,5.532t3.9-.036a8.8,8.8,0,0,0,3.9-4.493,18.721,18.721,0,0,0,1.132-6.846q0-3.914-1.132-5.463t-3.9.058m2.671,9.967a7.439,7.439,0,0,1-.823,2.559,4.775,4.775,0,0,1-1.848,1.865q-1.219.708-1.849.281a2.28,2.28,0,0,1-.823-1.6,19.783,19.783,0,0,1-.193-3.078,22.51,22.51,0,0,1,.2-3.218,7.778,7.778,0,0,1,.823-2.548,4.7,4.7,0,0,1,1.839-1.872q1.22-.708,1.839-.264a2.373,2.373,0,0,1,.823,1.593,17.788,17.788,0,0,1,.2,2.982,24.6,24.6,0,0,1-.193,3.3m4.412-11.433,1.8-1.046v14.142l2.226-1.292v-16.5l-4.026,2.338Zm12.1-9.672a8.808,8.808,0,0,0-3.9,4.471,18.405,18.405,0,0,0-1.132,6.779q0,3.96,1.132,5.531t3.9-.036a8.8,8.8,0,0,0,3.9-4.494,18.721,18.721,0,0,0,1.132-6.846q0-3.915-1.132-5.464t-3.9.059m2.671,9.966a7.431,7.431,0,0,1-.823,2.56A4.776,4.776,0,0,1,177,249.957q-1.22.708-1.848.281a2.282,2.282,0,0,1-.823-1.6,19.672,19.672,0,0,1-.193-3.078,22.391,22.391,0,0,1,.2-3.218,7.79,7.79,0,0,1,.823-2.548A4.7,4.7,0,0,1,177,237.919q1.219-.708,1.838-.265a2.373,2.373,0,0,1,.823,1.593,17.7,17.7,0,0,1,.2,2.982,24.45,24.45,0,0,1-.194,3.3m4.413-11.433,1.8-1.045V247.2l2.226-1.293v-16.5l-4.026,2.338Zm12.1-9.673a8.81,8.81,0,0,0-3.9,4.471,18.4,18.4,0,0,0-1.132,6.779q0,3.96,1.132,5.531t3.9-.036a8.793,8.793,0,0,0,3.9-4.493,18.721,18.721,0,0,0,1.132-6.846q0-3.914-1.132-5.463t-3.9.058m2.671,9.967a7.439,7.439,0,0,1-.823,2.559,4.775,4.775,0,0,1-1.848,1.865q-1.22.709-1.848.282a2.281,2.281,0,0,1-.823-1.6,19.66,19.66,0,0,1-.194-3.078,22.389,22.389,0,0,1,.2-3.218,7.741,7.741,0,0,1,.823-2.548,4.7,4.7,0,0,1,1.839-1.872q1.219-.708,1.839-.264a2.373,2.373,0,0,1,.823,1.593,17.7,17.7,0,0,1,.2,2.982,24.592,24.592,0,0,1-.194,3.3m4.413-11.433,1.8-1.046v14.142l2.226-1.292v-16.5l-4.025,2.338Zm12.1-9.673a8.8,8.8,0,0,0-3.9,4.471,18.4,18.4,0,0,0-1.133,6.778q0,3.96,1.133,5.532t3.9-.036a8.8,8.8,0,0,0,3.9-4.493,18.721,18.721,0,0,0,1.132-6.846q0-3.914-1.132-5.464t-3.9.059m2.671,9.967a7.462,7.462,0,0,1-.823,2.559,4.781,4.781,0,0,1-1.848,1.865q-1.219.708-1.849.281a2.28,2.28,0,0,1-.823-1.6,19.767,19.767,0,0,1-.193-3.077,22.517,22.517,0,0,1,.2-3.218,7.79,7.79,0,0,1,.823-2.549,4.7,4.7,0,0,1,1.839-1.871q1.218-.708,1.839-.264a2.373,2.373,0,0,1,.823,1.593,17.8,17.8,0,0,1,.2,2.982,24.606,24.606,0,0,1-.193,3.3m4.412-11.433,1.8-1.046v14.142l2.226-1.292v-16.5l-4.026,2.338Zm12.1-9.673a8.808,8.808,0,0,0-3.9,4.471,18.4,18.4,0,0,0-1.132,6.779q0,3.96,1.132,5.531t3.9-.036a8.8,8.8,0,0,0,3.9-4.494,18.72,18.72,0,0,0,1.132-6.846q0-3.915-1.132-5.464t-3.9.059m2.671,9.966a7.449,7.449,0,0,1-.823,2.56,4.775,4.775,0,0,1-1.848,1.865q-1.219.708-1.848.281a2.279,2.279,0,0,1-.823-1.6,19.681,19.681,0,0,1-.193-3.078,22.4,22.4,0,0,1,.2-3.218,7.791,7.791,0,0,1,.823-2.548,4.7,4.7,0,0,1,1.838-1.871q1.22-.708,1.839-.265a2.372,2.372,0,0,1,.823,1.593,17.7,17.7,0,0,1,.2,2.982,24.455,24.455,0,0,1-.194,3.3m4.413-11.433,1.8-1.045V213.78l2.226-1.293v-16.5l-4.026,2.338Zm12.1-9.673a8.806,8.806,0,0,0-3.9,4.471,18.4,18.4,0,0,0-1.132,6.779q0,3.959,1.132,5.531t3.9-.036a8.793,8.793,0,0,0,3.9-4.493,18.723,18.723,0,0,0,1.132-6.846q0-3.914-1.132-5.463t-3.9.058m2.671,9.967a7.439,7.439,0,0,1-.823,2.559,4.775,4.775,0,0,1-1.848,1.865q-1.219.709-1.848.282a2.281,2.281,0,0,1-.823-1.6,19.659,19.659,0,0,1-.194-3.078,22.383,22.383,0,0,1,.2-3.218,7.741,7.741,0,0,1,.823-2.548,4.7,4.7,0,0,1,1.839-1.872q1.219-.708,1.839-.264a2.373,2.373,0,0,1,.823,1.593,17.709,17.709,0,0,1,.2,2.982,24.607,24.607,0,0,1-.193,3.3M30.637,345.029l1.8-1.045v14.142l2.226-1.293v-16.5l-4.026,2.338Zm12.1-9.672a8.8,8.8,0,0,0-3.9,4.471,18.4,18.4,0,0,0-1.132,6.779q0,3.959,1.132,5.531t3.9-.036a8.8,8.8,0,0,0,3.9-4.493,18.721,18.721,0,0,0,1.132-6.847q0-3.914-1.132-5.463t-3.9.058m2.671,9.967a7.439,7.439,0,0,1-.823,2.559,4.775,4.775,0,0,1-1.848,1.865q-1.219.708-1.848.282a2.278,2.278,0,0,1-.823-1.6,19.67,19.67,0,0,1-.194-3.078,22.385,22.385,0,0,1,.2-3.218,7.741,7.741,0,0,1,.823-2.548,4.7,4.7,0,0,1,1.839-1.872q1.219-.708,1.839-.264a2.373,2.373,0,0,1,.823,1.593,17.7,17.7,0,0,1,.2,2.982,24.6,24.6,0,0,1-.193,3.3m4.413-11.433,1.8-1.046v14.142l2.226-1.292V329.2l-4.025,2.338Zm12.1-9.673a8.806,8.806,0,0,0-3.9,4.471,18.4,18.4,0,0,0-1.132,6.778q0,3.96,1.132,5.532t3.9-.036a8.791,8.791,0,0,0,3.9-4.494,18.714,18.714,0,0,0,1.132-6.846q0-3.914-1.132-5.464t-3.9.059m2.672,9.967a7.468,7.468,0,0,1-.823,2.559,4.778,4.778,0,0,1-1.849,1.865q-1.219.708-1.848.281a2.282,2.282,0,0,1-.823-1.6,19.676,19.676,0,0,1-.193-3.078,22.512,22.512,0,0,1,.2-3.218,7.791,7.791,0,0,1,.823-2.548,4.7,4.7,0,0,1,1.838-1.871q1.219-.708,1.839-.264a2.376,2.376,0,0,1,.823,1.593,17.779,17.779,0,0,1,.2,2.981,24.62,24.62,0,0,1-.193,3.3M69,322.751l1.8-1.045v14.142l2.226-1.293v-16.5L69,320.4Zm12.1-9.672a8.808,8.808,0,0,0-3.9,4.471,18.4,18.4,0,0,0-1.132,6.779q0,3.96,1.132,5.531t3.9-.036A8.8,8.8,0,0,0,85,325.33a18.721,18.721,0,0,0,1.132-6.846q0-3.914-1.132-5.463t-3.9.059m2.671,9.966a7.439,7.439,0,0,1-.823,2.559,4.782,4.782,0,0,1-1.848,1.866q-1.22.708-1.848.281a2.281,2.281,0,0,1-.823-1.6,19.659,19.659,0,0,1-.194-3.078,22.382,22.382,0,0,1,.2-3.218,7.785,7.785,0,0,1,.823-2.548,4.7,4.7,0,0,1,1.839-1.871q1.219-.709,1.838-.265a2.37,2.37,0,0,1,.823,1.593,17.691,17.691,0,0,1,.2,2.982,24.45,24.45,0,0,1-.194,3.3m4.413-11.433,1.8-1.045V324.71l2.226-1.293v-16.5l-4.025,2.338Zm12.1-9.672a8.8,8.8,0,0,0-3.9,4.471,18.4,18.4,0,0,0-1.132,6.778q0,3.96,1.132,5.532t3.9-.036a8.8,8.8,0,0,0,3.9-4.493,18.722,18.722,0,0,0,1.132-6.847q0-3.914-1.132-5.463t-3.9.058m2.671,9.967a7.439,7.439,0,0,1-.823,2.559,4.775,4.775,0,0,1-1.848,1.865q-1.219.708-1.849.281a2.276,2.276,0,0,1-.822-1.6,19.671,19.671,0,0,1-.194-3.078,22.382,22.382,0,0,1,.2-3.218,7.769,7.769,0,0,1,.822-2.549,4.706,4.706,0,0,1,1.839-1.871q1.219-.708,1.839-.264a2.373,2.373,0,0,1,.823,1.593,17.7,17.7,0,0,1,.2,2.982,24.6,24.6,0,0,1-.193,3.3m4.412-11.433,1.8-1.046v14.142l2.226-1.292v-16.5l-4.026,2.338Zm12.1-9.673a8.808,8.808,0,0,0-3.9,4.471,18.4,18.4,0,0,0-1.132,6.779q0,3.96,1.132,5.531t3.9-.036a8.794,8.794,0,0,0,3.9-4.494,18.717,18.717,0,0,0,1.132-6.846q0-3.915-1.132-5.464t-3.9.059m2.671,9.966a7.448,7.448,0,0,1-.822,2.56,4.777,4.777,0,0,1-1.849,1.865q-1.219.708-1.848.281a2.282,2.282,0,0,1-.823-1.6,19.673,19.673,0,0,1-.193-3.078,22.509,22.509,0,0,1,.2-3.218,7.79,7.79,0,0,1,.823-2.548,4.7,4.7,0,0,1,1.839-1.871q1.219-.708,1.839-.264a2.373,2.373,0,0,1,.822,1.592,17.7,17.7,0,0,1,.2,2.982,24.451,24.451,0,0,1-.194,3.3m4.413-11.433,1.8-1.045v14.142l2.226-1.293v-16.5l-4.026,2.338Zm12.1-9.673a8.81,8.81,0,0,0-3.9,4.471,18.4,18.4,0,0,0-1.132,6.779q0,3.96,1.132,5.531t3.9-.036a8.8,8.8,0,0,0,3.9-4.494,18.722,18.722,0,0,0,1.132-6.847q0-3.914-1.132-5.463t-3.9.058m2.671,9.967a7.439,7.439,0,0,1-.823,2.559,4.775,4.775,0,0,1-1.848,1.865q-1.22.709-1.848.282a2.281,2.281,0,0,1-.823-1.6,19.661,19.661,0,0,1-.194-3.078,22.385,22.385,0,0,1,.2-3.218,7.765,7.765,0,0,1,.823-2.548,4.707,4.707,0,0,1,1.839-1.872q1.22-.708,1.838-.264a2.373,2.373,0,0,1,.823,1.593,17.693,17.693,0,0,1,.2,2.982,24.454,24.454,0,0,1-.194,3.3m4.413-11.433,1.8-1.045v14.141L149.747,290v-16.5l-4.025,2.338Zm12.1-9.673a8.8,8.8,0,0,0-3.9,4.471,18.4,18.4,0,0,0-1.132,6.778q0,3.96,1.132,5.532t3.9-.036a8.8,8.8,0,0,0,3.9-4.493,18.721,18.721,0,0,0,1.132-6.846q0-3.914-1.132-5.463t-3.9.058m2.671,9.967a7.438,7.438,0,0,1-.823,2.559,4.775,4.775,0,0,1-1.848,1.865q-1.219.708-1.849.281a2.28,2.28,0,0,1-.823-1.6,19.765,19.765,0,0,1-.193-3.077,22.511,22.511,0,0,1,.2-3.218,7.789,7.789,0,0,1,.823-2.549,4.7,4.7,0,0,1,1.839-1.871q1.22-.708,1.839-.264a2.373,2.373,0,0,1,.823,1.593,17.788,17.788,0,0,1,.2,2.982,24.6,24.6,0,0,1-.193,3.3m4.412-11.433,1.8-1.046v14.142l2.226-1.292v-16.5L164.9,264.7Zm12.1-9.673a8.808,8.808,0,0,0-3.9,4.471,18.405,18.405,0,0,0-1.132,6.779q0,3.96,1.132,5.531t3.9-.036a8.8,8.8,0,0,0,3.9-4.494,18.721,18.721,0,0,0,1.132-6.846q0-3.915-1.132-5.464t-3.9.059m2.671,9.966a7.431,7.431,0,0,1-.823,2.56A4.776,4.776,0,0,1,177,271.777q-1.22.708-1.848.281a2.282,2.282,0,0,1-.823-1.6,19.673,19.673,0,0,1-.193-3.078,22.39,22.39,0,0,1,.2-3.218,7.791,7.791,0,0,1,.823-2.548A4.7,4.7,0,0,1,177,259.739q1.219-.708,1.838-.265a2.374,2.374,0,0,1,.823,1.593,17.7,17.7,0,0,1,.2,2.982,24.45,24.45,0,0,1-.194,3.3m4.413-11.433,1.8-1.045v14.142l2.226-1.293v-16.5l-4.026,2.338Zm12.1-9.673a8.81,8.81,0,0,0-3.9,4.471,18.4,18.4,0,0,0-1.132,6.779q0,3.96,1.132,5.531t3.9-.036a8.793,8.793,0,0,0,3.9-4.493,18.721,18.721,0,0,0,1.132-6.846q0-3.914-1.132-5.463t-3.9.058m2.671,9.967a7.439,7.439,0,0,1-.823,2.559,4.783,4.783,0,0,1-1.848,1.866q-1.22.708-1.848.281a2.281,2.281,0,0,1-.823-1.6,19.66,19.66,0,0,1-.194-3.078,22.391,22.391,0,0,1,.2-3.218,7.741,7.741,0,0,1,.823-2.548,4.7,4.7,0,0,1,1.839-1.872q1.219-.708,1.839-.264a2.373,2.373,0,0,1,.823,1.593,17.7,17.7,0,0,1,.2,2.982,24.593,24.593,0,0,1-.194,3.3m4.413-11.433,1.8-1.046v14.142l2.226-1.292v-16.5l-4.025,2.338Zm12.1-9.673a8.8,8.8,0,0,0-3.9,4.471,18.394,18.394,0,0,0-1.133,6.778q0,3.96,1.133,5.532t3.9-.036a8.8,8.8,0,0,0,3.9-4.493,18.72,18.72,0,0,0,1.132-6.846q0-3.914-1.132-5.464t-3.9.059m2.671,9.967a7.462,7.462,0,0,1-.823,2.559,4.781,4.781,0,0,1-1.848,1.865q-1.219.708-1.849.281a2.28,2.28,0,0,1-.823-1.6,19.767,19.767,0,0,1-.193-3.077,22.517,22.517,0,0,1,.2-3.218,7.789,7.789,0,0,1,.823-2.549,4.7,4.7,0,0,1,1.839-1.871q1.218-.708,1.839-.264a2.373,2.373,0,0,1,.823,1.593,17.794,17.794,0,0,1,.2,2.982,24.606,24.606,0,0,1-.193,3.3m4.412-11.433,1.8-1.046v14.142l2.226-1.292v-16.5l-4.026,2.338Zm12.1-9.673a8.808,8.808,0,0,0-3.9,4.471,18.4,18.4,0,0,0-1.132,6.779q0,3.96,1.132,5.531t3.9-.036a8.8,8.8,0,0,0,3.9-4.494,18.72,18.72,0,0,0,1.132-6.846q0-3.915-1.132-5.464t-3.9.059m2.671,9.966a7.449,7.449,0,0,1-.823,2.56,4.775,4.775,0,0,1-1.848,1.865q-1.219.708-1.848.281a2.279,2.279,0,0,1-.823-1.6,19.682,19.682,0,0,1-.193-3.078,22.4,22.4,0,0,1,.2-3.218,7.791,7.791,0,0,1,.823-2.548,4.7,4.7,0,0,1,1.838-1.871q1.22-.708,1.839-.265a2.372,2.372,0,0,1,.823,1.593,17.7,17.7,0,0,1,.2,2.982,24.456,24.456,0,0,1-.194,3.3m4.413-11.433,1.8-1.045V235.6l2.226-1.293v-16.5l-4.026,2.338Zm12.1-9.673a8.806,8.806,0,0,0-3.9,4.471,18.4,18.4,0,0,0-1.132,6.779q0,3.959,1.132,5.531t3.9-.036a8.8,8.8,0,0,0,3.9-4.493,18.723,18.723,0,0,0,1.132-6.847q0-3.914-1.132-5.463t-3.9.058m2.671,9.967a7.439,7.439,0,0,1-.823,2.559,4.775,4.775,0,0,1-1.848,1.865q-1.219.709-1.848.282a2.281,2.281,0,0,1-.823-1.6,19.659,19.659,0,0,1-.194-3.078,22.382,22.382,0,0,1,.2-3.218,7.741,7.741,0,0,1,.823-2.548,4.7,4.7,0,0,1,1.839-1.872q1.219-.708,1.839-.264a2.373,2.373,0,0,1,.823,1.593,17.71,17.71,0,0,1,.2,2.982,24.607,24.607,0,0,1-.193,3.3" transform="translate(-5.878 -27.498)" fill="#020f1e"/>
      </g>
    </g>
    <g id="Group_1528" data-name="Group 1528" transform="translate(0 -0.031)">
      <g id="Group_1527" data-name="Group 1527" clip-path="url(#clip-path-2)">
        <path id="Path_17304" data-name="Path 17304" d="M114.372,164.078c-1.908-8.163-9.7-3.233-9.7-3.233-1.908-5.233-8.889-2.424-8.889-2.424-14.838,6.889-14.546,21.011-14.546,21.011-9.08,6.08-7.273,13.738-7.273,13.738,1.122,7.293,8.889,3.233,8.889,3.233L107.1,181.857c10.607-8.081,7.273-17.779,7.273-17.779" transform="translate(-14.163 -30.251)" fill="none" stroke="#fff" stroke-linecap="round" stroke-linejoin="round" stroke-width="1"/>
      </g>
    </g>
    <g id="Group_1532" data-name="Group 1532" transform="translate(0 -0.031)">
      <g id="Group_1531" data-name="Group 1531" clip-path="url(#clip-path-2)">
        <path id="Path_17308" data-name="Path 17308" d="M250.218,185.681,187.184,177.6l-62.226,81.621S118.1,342.4,189.608,340.843c0,0,64.8-37.5,60.61-155.161" transform="translate(-23.941 -34.076)" fill="#fff" stroke="#020f1e" stroke-linecap="round" stroke-linejoin="round" stroke-width="1"/>
      </g>
    </g>
    <g id="Group_1534" data-name="Group 1534" transform="translate(0 -0.031)">
      <g id="Group_1533" data-name="Group 1533" clip-path="url(#clip-path-2)">
        <path id="Path_17309" data-name="Path 17309" d="M192.335,192.667,136.2,264.159s-2.436,72.78,53.983,69.068c0,0,51.223-32.061,52.69-134.1Z" transform="translate(-26.129 -36.967)" fill="#005dff" stroke="#020f1e" stroke-linecap="round" stroke-linejoin="round" stroke-width="1"/>
      </g>
    </g>
    <g id="Group_1536" data-name="Group 1536" transform="translate(0 -0.031)">
      <g id="Group_1535" data-name="Group 1535" clip-path="url(#clip-path-2)">
        <path id="Path_17310" data-name="Path 17310" d="M246.093,200.408l-8.027-.808c1.228,89.644-46.117,130.918-46.117,130.918-25.946.749-38.124-13.1-38.124-13.1,13.4,20.439,40.548,17.951,40.548,17.951,59.143-50.9,51.72-134.958,51.72-134.958" transform="translate(-29.514 -38.297)" fill="#fff" stroke="#020f1e" stroke-linecap="round" stroke-linejoin="round" stroke-width="1"/>
      </g>
    </g>
    <g id="Group_1538" data-name="Group 1538" transform="translate(0 -0.031)">
      <g id="Group_1537" data-name="Group 1537" clip-path="url(#clip-path-2)">
        <path id="Path_17311" data-name="Path 17311" d="M191.317,248.126S178.171,249.258,180.6,265.2a9.624,9.624,0,0,0,7.543,7.543v12.93s3.61,3.34,5.657-1.832V271.293s6.357-3.987,6.519-13.792c0,0,.215-10.021-9-9.374" transform="translate(-34.593 -47.602)" fill="#fff" stroke="#020f1e" stroke-linecap="round" stroke-linejoin="round" stroke-width="1"/>
      </g>
    </g>
    <g id="Group_1540" data-name="Group 1540" transform="translate(0 -0.031)">
      <g id="Group_1539" data-name="Group 1539" clip-path="url(#clip-path-2)">
        <path id="Path_17312" data-name="Path 17312" d="M219.581,571.257l-19.4,11.314s-25.759,11.152-46-.552c0,0-12.189-6.317-12.189-16.419v13.738s11.9,23.618,50.1,14.546c0,0,8.445-2.492,27.476-13.738l33.133,18.587v-8.081Z" transform="translate(-27.245 -108.52)" fill="#fff" stroke="#020f1e" stroke-linecap="round" stroke-linejoin="round" stroke-width="1"/>
      </g>
    </g>
    <g id="Group_1542" data-name="Group 1542" transform="translate(109.098 322.091)">
      <g id="Group_1585" data-name="Group 1585">
        <path id="Path_17313" data-name="Path 17313" d="M291.778,398.6,135,491.535l33.942,19.4-20.648,12.445c-15.549,9.453-2.788,21.5-2.788,21.5,21.423,19.352,52.529,6.465,52.529,6.465l20.2-11.314,33.133,18.587L408.957,468.1Z" transform="translate(-135 -398.6)" fill="#fff" stroke="#020f1e" stroke-linecap="round" stroke-linejoin="round" stroke-width="1"/>
      </g>
      <g id="Group_1663" data-name="Group 1663" transform="translate(20.539 126.192)">
        <g id="Group_1635" data-name="Group 1635" transform="translate(0)">
          <g id="Group_1647" data-name="Group 1647">
            <path id="Path_20259" data-name="Path 20259" d="M30.385,0a10.662,10.662,0,0,1,4.943,1.109l7.21,3.905a3.291,3.291,0,0,1,2.048,2.677v5.522a3.292,3.292,0,0,1-2.048,2.678l-7.209,3.9A10.659,10.659,0,0,1,30.385,20.9H20.191A10.659,10.659,0,0,1,15.248,19.8l-7.21-3.905a3.292,3.292,0,0,1-2.048-2.677V7.692A3.291,3.291,0,0,1,8.038,5.014l7.21-3.905A10.661,10.661,0,0,1,20.191,0Z" transform="translate(-5.991)" fill="#005dff"/>
          </g>
        </g>
        <g id="Group_1637" data-name="Group 1637" transform="translate(14.606 6.109)">
          <g id="Group_1636" data-name="Group 1636" clip-path="url(#clip-path-10)">
            <path id="Path_20260" data-name="Path 20260" d="M115.439,45.7l2.274-1.194,2.2,1.231-2.274,1.194Z" transform="translate(-116.539 -45.125)" fill="#8fc3ff"/>
          </g>
        </g>
        <g id="Group_1639" data-name="Group 1639" transform="translate(7.333 8.8)">
          <g id="Group_1638" data-name="Group 1638" clip-path="url(#clip-path-11)">
            <path id="Path_20262" data-name="Path 20262" d="M56.5,67.51l2.274-1.194,2.2,1.231-2.274,1.194Z" transform="translate(-57.603 -66.933)" fill="#8fc3ff"/>
          </g>
        </g>
        <g id="Group_1641" data-name="Group 1641" transform="translate(7.987 5.096)">
          <g id="Group_1640" data-name="Group 1640" clip-path="url(#clip-path-12)">
            <path id="Path_20264" data-name="Path 20264" d="M58.939,36.269l3-1.577,2.91,1.627-3,1.577Z" transform="translate(-60.392 -35.506)" fill="#8fc3ff"/>
          </g>
        </g>
        <g id="Group_1643" data-name="Group 1643" transform="translate(9.028 7.631)">
          <g id="Group_1642" data-name="Group 1642" clip-path="url(#clip-path-13)">
            <path id="Path_20266" data-name="Path 20266" d="M0,48.254l14.673-7.948,14.673,7.948L14.673,56.2Z" transform="translate(-9.767 -42.964)" fill="#8fc3ff"/>
          </g>
        </g>
        <g id="Group_1645" data-name="Group 1645" transform="translate(21.371 2.874)">
          <g id="Group_1644" data-name="Group 1644" clip-path="url(#clip-path-14)">
            <path id="Path_20268" data-name="Path 20268" d="M100.018,9.707,114.691,1.76l14.673,7.948-14.673,7.948Z" transform="translate(-109.785 -4.417)" fill="#8fc3ff"/>
          </g>
        </g>
      </g>
    </g>
    <g id="Group_1544" data-name="Group 1544" transform="translate(0 -0.031)">
      <g id="Group_1543" data-name="Group 1543" clip-path="url(#clip-path-2)">
        <path id="Path_17314" data-name="Path 17314" d="M450.324,457.6v.661a3,3,0,0,0,0-.661m0,28.285V458.261c-.154,1.75-1.579,6.812-12.122,13.077L305.668,548.111s-9.7,6.465-26.668,1.616v28.285s14.279,7.048,27.477-1.616l139-81.621s5.448-3.355,4.849-8.889" transform="translate(-53.531 -87.799)" fill="#fff" stroke="#020f1e" stroke-linecap="round" stroke-linejoin="round" stroke-width="1"/>
      </g>
    </g>
    <g id="Group_1546" data-name="Group 1546" transform="translate(0 -0.031)">
      <g id="Group_1545" data-name="Group 1545" clip-path="url(#clip-path-2)">
        <path id="Path_17370" data-name="Path 17370" d="M21.011,0c11.6,0,21.011,5.97,21.011,13.334S32.616,26.668,21.011,26.668,0,20.7,0,13.334,9.407,0,21.011,0Z" transform="translate(130.109 443.341)" fill="none" stroke="#020f1e" stroke-linecap="round" stroke-width="1" opacity="0"/>
      </g>
    </g>
    <g id="Group_1548" data-name="Group 1548" transform="translate(0 -0.031)">
      <g id="Group_1547" data-name="Group 1547" clip-path="url(#clip-path-2)">
        <path id="Path_17315" data-name="Path 17315" d="M134.7,506.765V485.733s-5.5-7.112-5.536-7.758l-.242,28.79a7.206,7.206,0,0,0,4.1,6.465l27.759,17.132,6.99-4.2Z" transform="translate(-24.736 -91.708)" fill="#fff" stroke="#020f1e" stroke-linecap="round" stroke-linejoin="round" stroke-width="1"/>
      </g>
    </g>
    <g id="Group_1550" data-name="Group 1550" transform="translate(0 -0.031)">
      <g id="Group_1549" data-name="Group 1549" clip-path="url(#clip-path-2)">
        <path id="Path_17316" data-name="Path 17316" d="M416.721,431.907,290.653,361.6,135.491,447.262c-13.8,8.168-.828,16.223-.828,16.223l155.99-87.339,113.138,63.034L250.246,531.308c16.486,6.95,31.517-4.041,31.517-4.041l134.15-78.389c13.679-9.935.808-16.971.808-16.971" transform="translate(-24.777 -69.379)" fill="#fff" stroke="#020f1e" stroke-linecap="round" stroke-linejoin="round" stroke-width="1"/>
      </g>
    </g>
    <path id="Path_17317" data-name="Path 17317" d="M136,466.878V487.89l155.969-92.127V379.6Z" transform="translate(-26.094 -72.864)" fill="#fff" stroke="#020f1e" stroke-linecap="round" stroke-linejoin="round" stroke-width="1"/>
    <path id="Path_17318" data-name="Path 17318" d="M329,379.6v15.355l96.168,58.185,16.971-10.506Z" transform="translate(-63.125 -72.864)" fill="#fff" stroke="#020f1e" stroke-linecap="round" stroke-linejoin="round" stroke-width="1"/>
    <g id="Group_1552" data-name="Group 1552" transform="translate(0 -0.031)">
      <g id="Group_1551" data-name="Group 1551" clip-path="url(#clip-path-2)">
        <path id="Path_17319" data-name="Path 17319" d="M385.814,441.977l-86.47-54.145c-5.768-4.16-11.854-3.862-15.355-1.616L160.345,460.564c-4.686,2.988-2.728,10.195.878,12.3l91.1,53.171a13.4,13.4,0,0,0,12.351-.027l121.14-72.717c3.215-2.486,3.326-9.23,0-11.314" transform="translate(-30.236 -73.792)" fill="#fff" stroke="#020f1e" stroke-linecap="round" stroke-linejoin="round" stroke-width="1"/>
        <path id="Path_17320" data-name="Path 17320" d="M385.254,441.4l-88.263-55.3a13.3,13.3,0,0,0-12.672-.175L161.182,459.594c-3.474,2.078-3.362,5.472.245,7.577l91.1,53.171a13.4,13.4,0,0,0,12.351-.026l120.2-71.463c3.418-2.032,3.5-5.365.171-7.449" transform="translate(-30.439 -73.756)" fill="#fff" stroke="#020f1e" stroke-linecap="round" stroke-linejoin="round" stroke-width="1"/>
        <path id="Path_17321" data-name="Path 17321" d="M291.381,410.422l25.778,15.943a3.965,3.965,0,0,0,3.753.036,1.226,1.226,0,0,0,.01-2.282l-25.754-15.96a4,4,0,0,0-3.793-.044,1.24,1.24,0,0,0,.006,2.307m36.364,22.49,8.671,5.363a3.934,3.934,0,0,0,3.725.031,1.216,1.216,0,0,0,.021-2.263l-8.664-5.369a3.951,3.951,0,0,0-3.74-.034,1.22,1.22,0,0,0-.013,2.272m21.6,13.362,4.9,3.032a3.909,3.909,0,0,0,3.7.025,1.206,1.206,0,0,0,.031-2.246l-4.9-3.035a3.921,3.921,0,0,0-3.709-.028,1.21,1.21,0,0,0-.025,2.252m9.668,15-25.143-15.489a3.943,3.943,0,0,0-3.724-.027,1.209,1.209,0,0,0-.015,2.255L355.3,463.485a3.908,3.908,0,0,0,3.685.019,1.2,1.2,0,0,0,.032-2.23M310.882,433.9a1.22,1.22,0,0,0,0,2.273l8.72,5.362a3.96,3.96,0,0,0,3.737.029,1.215,1.215,0,0,0,.012-2.264l-8.713-5.368a3.973,3.973,0,0,0-3.752-.032m-9.395-5.782a1.226,1.226,0,0,0,0-2.285l-5.033-3.1a4,4,0,0,0-3.778-.038,1.229,1.229,0,0,0,.006,2.29l5.038,3.1a3.991,3.991,0,0,0,3.768.035m-35.324-2.624,25.931,15.827a4,4,0,0,0,3.761.03,1.218,1.218,0,0,0,0-2.272l-25.908-15.845a4.031,4.031,0,0,0-3.8-.037,1.231,1.231,0,0,0,.02,2.3M315.2,453.17a1.207,1.207,0,0,0,.007-2.253l-8.716-5.331a3.981,3.981,0,0,0-3.748-.027,1.212,1.212,0,0,0,0,2.262l8.724,5.325a3.968,3.968,0,0,0,3.733.024m9.277,7.916,4.932,3.01a3.945,3.945,0,0,0,3.708.019,1.2,1.2,0,0,0,.016-2.237l-4.926-3.014a3.952,3.952,0,0,0-3.717-.021,1.2,1.2,0,0,0-.013,2.242M334.257,476l-25.294-15.377a3.976,3.976,0,0,0-3.731-.02,1.2,1.2,0,0,0,0,2.245l25.316,15.36a3.938,3.938,0,0,0,3.693.013,1.188,1.188,0,0,0,.018-2.221m-35.879-19.561a1.206,1.206,0,0,0,0-2.253l-8.766-5.33a4,4,0,0,0-3.759-.026,1.212,1.212,0,0,0,.009,2.264l8.774,5.323a3.99,3.99,0,0,0,3.745.022M276.4,443.1a1.218,1.218,0,0,0-.015-2.275l-5.063-3.077a4.027,4.027,0,0,0-3.786-.032,1.221,1.221,0,0,0,.019,2.281l5.068,3.074a4.021,4.021,0,0,0,3.776.029m-35.416-2.551,26.084,15.713a4.029,4.029,0,0,0,3.769.023,1.209,1.209,0,0,0-.018-2.261l-26.061-15.73a4.066,4.066,0,0,0-3.809-.031,1.223,1.223,0,0,0,.035,2.287m49.311,27.468a1.2,1.2,0,0,0-.007-2.243l-8.767-5.292a4.013,4.013,0,0,0-3.756-.021,1.2,1.2,0,0,0,.014,2.252l8.775,5.286a4,4,0,0,0,3.742.018m9.345,7.866,4.961,2.988a3.975,3.975,0,0,0,3.716.012,1.19,1.19,0,0,0,0-2.226l-4.957-2.992a3.98,3.98,0,0,0-3.724-.014,1.193,1.193,0,0,0,0,2.232m9.894,14.836-25.442-15.266a4.005,4.005,0,0,0-3.74-.014,1.194,1.194,0,0,0,.012,2.235l25.465,15.249a3.973,3.973,0,0,0,3.7.006,1.18,1.18,0,0,0,0-2.21m-48.679-26.966a1.2,1.2,0,0,0,.023,2.253l8.825,5.284a4.022,4.022,0,0,0,3.753.016,1.2,1.2,0,0,0-.016-2.244l-8.817-5.29a4.035,4.035,0,0,0-3.768-.02m-9.535-7.962-5.092-3.056a4.063,4.063,0,0,0-3.795-.024,1.212,1.212,0,0,0,.034,2.27l5.1,3.052a4.055,4.055,0,0,0,3.785.022,1.21,1.21,0,0,0-.029-2.264m-5.465,15.4a1.2,1.2,0,0,0-.032-2.251L219.61,453.318a4.1,4.1,0,0,0-3.818-.024c-1.041.623-1.019,1.642.048,2.277l26.237,15.6a4.061,4.061,0,0,0,3.778.016m19.572,11.647a1.191,1.191,0,0,0-.021-2.233l-8.819-5.254a4.045,4.045,0,0,0-3.764-.014,1.2,1.2,0,0,0,.028,2.243l8.826,5.247a4.034,4.034,0,0,0,3.75.011m9.413,7.815,4.991,2.967a4.005,4.005,0,0,0,3.724.007,1.182,1.182,0,0,0-.011-2.217l-4.987-2.97a4.011,4.011,0,0,0-3.733-.008,1.184,1.184,0,0,0,.015,2.222M284.848,505.4l-25.591-15.154a4.04,4.04,0,0,0-3.748-.007,1.186,1.186,0,0,0,.026,2.226L281.148,507.6a4.008,4.008,0,0,0,3.71,0,1.173,1.173,0,0,0-.01-2.2m-36.3-21.5-8.868-5.251a4.067,4.067,0,0,0-3.776-.013,1.2,1.2,0,0,0,.037,2.243l8.876,5.246a4.057,4.057,0,0,0,3.762.009,1.191,1.191,0,0,0-.03-2.234m-22.249-13.175-5.122-3.033a4.093,4.093,0,0,0-3.8-.018c-1.038.62-1.016,1.632.048,2.26l5.127,3.03a4.09,4.09,0,0,0,3.793.015c1.035-.618,1.017-1.628-.043-2.255" transform="translate(-41.256 -78.216)" fill="#c1d1e9" stroke="#707070" stroke-linecap="round" stroke-linejoin="round" stroke-width="1"/>
      </g>
    </g>
    <g id="Group_1554" data-name="Group 1554" transform="translate(0 -0.031)">
      <g id="Group_1553" data-name="Group 1553" clip-path="url(#clip-path-2)">
        <path id="Path_17322" data-name="Path 17322" d="M385.814,425.977l-86.47-54.145c-5.768-4.16-11.854-3.862-15.355-1.616L160.345,444.564c-4.686,2.988-2.728,10.195.878,12.3l91.1,53.171a13.4,13.4,0,0,0,12.351-.027l121.14-72.717c3.215-2.486,3.326-9.23,0-11.314" transform="translate(-30.236 -70.722)" fill="#fff" stroke="#020f1e" stroke-linecap="round" stroke-linejoin="round" stroke-width="1"/>
        <path id="Path_17323" data-name="Path 17323" d="M385.254,425.4l-88.263-55.3a13.3,13.3,0,0,0-12.672-.174L161.182,443.594c-3.474,2.079-3.362,5.472.245,7.577l91.1,53.171a13.4,13.4,0,0,0,12.351-.026l120.2-71.463c3.418-2.032,3.5-5.365.171-7.449" transform="translate(-30.439 -70.686)" fill="#fff" stroke="#020f1e" stroke-linecap="round" stroke-linejoin="round" stroke-width="1"/>
        <path id="Path_17324" data-name="Path 17324" d="M291.381,394.422l25.778,15.943a3.965,3.965,0,0,0,3.753.036,1.226,1.226,0,0,0,.01-2.281l-25.754-15.961a4,4,0,0,0-3.793-.044,1.24,1.24,0,0,0,.006,2.307m36.364,22.49,8.671,5.364a3.936,3.936,0,0,0,3.725.03,1.216,1.216,0,0,0,.021-2.263l-8.664-5.369a3.95,3.95,0,0,0-3.74-.034,1.22,1.22,0,0,0-.013,2.272m21.6,13.362,4.9,3.032a3.911,3.911,0,0,0,3.7.026,1.207,1.207,0,0,0,.031-2.247l-4.9-3.035a3.919,3.919,0,0,0-3.709-.027,1.209,1.209,0,0,0-.025,2.251m9.668,15-25.143-15.489a3.943,3.943,0,0,0-3.724-.027,1.209,1.209,0,0,0-.015,2.255L355.3,447.485a3.908,3.908,0,0,0,3.685.019,1.2,1.2,0,0,0,.032-2.23M310.882,417.9a1.22,1.22,0,0,0,0,2.273l8.72,5.362a3.96,3.96,0,0,0,3.737.029,1.215,1.215,0,0,0,.012-2.264l-8.713-5.368a3.973,3.973,0,0,0-3.752-.032m-9.395-5.782a1.226,1.226,0,0,0,0-2.285l-5.033-3.1a4,4,0,0,0-3.778-.038,1.23,1.23,0,0,0,.006,2.291l5.038,3.1a3.989,3.989,0,0,0,3.768.035m-35.324-2.624,25.931,15.828a4,4,0,0,0,3.761.029,1.217,1.217,0,0,0,0-2.272l-25.908-15.845a4.032,4.032,0,0,0-3.8-.037,1.231,1.231,0,0,0,.02,2.3M315.2,437.17a1.207,1.207,0,0,0,.007-2.253l-8.716-5.33a3.98,3.98,0,0,0-3.748-.027,1.213,1.213,0,0,0,0,2.263l8.724,5.324a3.968,3.968,0,0,0,3.733.024m9.277,7.916,4.932,3.01a3.945,3.945,0,0,0,3.708.019,1.2,1.2,0,0,0,.016-2.237l-4.926-3.014a3.951,3.951,0,0,0-3.717-.021,1.2,1.2,0,0,0-.013,2.242M334.257,460l-25.294-15.377a3.976,3.976,0,0,0-3.731-.02,1.2,1.2,0,0,0,0,2.245l25.316,15.36a3.938,3.938,0,0,0,3.693.013,1.188,1.188,0,0,0,.018-2.221m-35.879-19.56a1.207,1.207,0,0,0,0-2.254l-8.766-5.33a4.005,4.005,0,0,0-3.759-.026,1.212,1.212,0,0,0,.009,2.264l8.774,5.323a3.992,3.992,0,0,0,3.745.023M276.4,427.1a1.218,1.218,0,0,0-.015-2.275l-5.063-3.077a4.03,4.03,0,0,0-3.786-.032,1.221,1.221,0,0,0,.019,2.281l5.068,3.075a4.023,4.023,0,0,0,3.776.028m-35.416-2.551,26.084,15.712a4.029,4.029,0,0,0,3.769.023,1.209,1.209,0,0,0-.018-2.261l-26.061-15.73a4.066,4.066,0,0,0-3.809-.031,1.223,1.223,0,0,0,.035,2.287m49.311,27.468a1.2,1.2,0,0,0-.007-2.243l-8.767-5.292a4.013,4.013,0,0,0-3.756-.02,1.2,1.2,0,0,0,.014,2.252l8.775,5.285a4,4,0,0,0,3.742.018m9.345,7.866,4.961,2.988a3.975,3.975,0,0,0,3.716.012,1.19,1.19,0,0,0,0-2.226l-4.957-2.992a3.979,3.979,0,0,0-3.724-.015,1.193,1.193,0,0,0,0,2.232m9.894,14.836-25.442-15.266a4.008,4.008,0,0,0-3.74-.014,1.194,1.194,0,0,0,.012,2.235l25.465,15.249a3.972,3.972,0,0,0,3.7.006,1.18,1.18,0,0,0,0-2.21m-48.679-26.966a1.2,1.2,0,0,0,.023,2.253l8.825,5.284a4.023,4.023,0,0,0,3.753.016,1.2,1.2,0,0,0-.016-2.244l-8.817-5.29a4.034,4.034,0,0,0-3.768-.02m-9.535-7.963-5.092-3.055a4.063,4.063,0,0,0-3.795-.024,1.213,1.213,0,0,0,.034,2.27l5.1,3.052a4.055,4.055,0,0,0,3.785.022,1.21,1.21,0,0,0-.029-2.264m-5.465,15.4a1.2,1.2,0,0,0-.032-2.251L219.61,437.318a4.1,4.1,0,0,0-3.818-.023c-1.041.622-1.019,1.641.048,2.276l26.237,15.6a4.061,4.061,0,0,0,3.778.016m19.572,11.647a1.191,1.191,0,0,0-.021-2.233l-8.819-5.254a4.045,4.045,0,0,0-3.764-.014,1.2,1.2,0,0,0,.028,2.243l8.826,5.247a4.034,4.034,0,0,0,3.75.01m9.413,7.815,4.991,2.967a4.007,4.007,0,0,0,3.724.006,1.182,1.182,0,0,0-.011-2.217l-4.987-2.97a4.011,4.011,0,0,0-3.733-.008,1.184,1.184,0,0,0,.015,2.222M284.848,489.4l-25.591-15.154a4.04,4.04,0,0,0-3.748-.007,1.186,1.186,0,0,0,.026,2.226L281.148,491.6a4.005,4.005,0,0,0,3.71,0,1.173,1.173,0,0,0-.01-2.2m-36.3-21.5-8.868-5.251a4.07,4.07,0,0,0-3.776-.013,1.2,1.2,0,0,0,.037,2.243l8.876,5.246a4.057,4.057,0,0,0,3.762.009,1.191,1.191,0,0,0-.03-2.234m-22.249-13.175-5.122-3.033a4.093,4.093,0,0,0-3.8-.018c-1.038.62-1.016,1.632.048,2.26l5.127,3.03a4.09,4.09,0,0,0,3.793.015c1.035-.618,1.017-1.628-.043-2.255" transform="translate(-41.256 -75.147)" fill="#c1d1e9" stroke="#707070" stroke-linecap="round" stroke-linejoin="round" stroke-width="1"/>
      </g>
    </g>
    <g id="Group_1556" data-name="Group 1556" transform="translate(0 -0.031)">
      <g id="Group_1555" data-name="Group 1555" clip-path="url(#clip-path-2)">
        <path id="Path_17325" data-name="Path 17325" d="M385.814,408.976l-86.47-54.145c-5.768-4.159-11.854-3.862-15.355-1.616L160.345,427.564c-4.686,2.988-2.728,10.195.878,12.3l91.1,53.171a13.4,13.4,0,0,0,12.351-.027l121.14-72.717c3.215-2.486,3.326-9.231,0-11.314" transform="translate(-30.236 -67.46)" fill="#fff" stroke="#020f1e" stroke-linecap="round" stroke-linejoin="round" stroke-width="1"/>
        <path id="Path_17326" data-name="Path 17326" d="M385.254,408.4l-88.263-55.3a13.3,13.3,0,0,0-12.672-.175L161.182,426.594c-3.474,2.079-3.362,5.472.245,7.577l91.1,53.171a13.4,13.4,0,0,0,12.351-.026l120.2-71.463c3.418-2.032,3.5-5.365.171-7.449" transform="translate(-30.439 -67.425)" fill="#fff" stroke="#020f1e" stroke-linecap="round" stroke-linejoin="round" stroke-width="1"/>
        <path id="Path_17327" data-name="Path 17327" d="M291.381,377.422l25.778,15.943a3.965,3.965,0,0,0,3.753.036,1.226,1.226,0,0,0,.01-2.282l-25.754-15.96a4,4,0,0,0-3.793-.044,1.24,1.24,0,0,0,.006,2.307m36.364,22.49,8.671,5.364a3.936,3.936,0,0,0,3.725.03,1.216,1.216,0,0,0,.021-2.263l-8.664-5.369a3.951,3.951,0,0,0-3.74-.034,1.22,1.22,0,0,0-.013,2.272m21.6,13.362,4.9,3.032a3.909,3.909,0,0,0,3.7.025,1.206,1.206,0,0,0,.031-2.246l-4.9-3.035a3.921,3.921,0,0,0-3.709-.028,1.21,1.21,0,0,0-.025,2.252m9.668,15-25.143-15.489a3.943,3.943,0,0,0-3.724-.027,1.209,1.209,0,0,0-.015,2.255L355.3,430.485a3.908,3.908,0,0,0,3.685.019,1.2,1.2,0,0,0,.032-2.23M310.882,400.9a1.22,1.22,0,0,0,0,2.273l8.72,5.362a3.96,3.96,0,0,0,3.737.029,1.215,1.215,0,0,0,.012-2.264l-8.713-5.368a3.973,3.973,0,0,0-3.752-.032m-9.395-5.782a1.226,1.226,0,0,0,0-2.285l-5.033-3.1a4,4,0,0,0-3.778-.038,1.23,1.23,0,0,0,.006,2.291l5.038,3.1a3.992,3.992,0,0,0,3.768.035m-35.324-2.624,25.931,15.827a4,4,0,0,0,3.761.03,1.217,1.217,0,0,0,0-2.272l-25.908-15.845a4.031,4.031,0,0,0-3.8-.037,1.231,1.231,0,0,0,.02,2.3M315.2,420.17a1.207,1.207,0,0,0,.007-2.253l-8.716-5.33a3.981,3.981,0,0,0-3.748-.028,1.212,1.212,0,0,0,0,2.262l8.724,5.325a3.968,3.968,0,0,0,3.733.024m9.277,7.916,4.932,3.01a3.945,3.945,0,0,0,3.708.019,1.2,1.2,0,0,0,.016-2.237l-4.926-3.014a3.951,3.951,0,0,0-3.717-.021,1.2,1.2,0,0,0-.013,2.242M334.257,443l-25.294-15.377a3.976,3.976,0,0,0-3.731-.02,1.2,1.2,0,0,0,0,2.245l25.316,15.36a3.939,3.939,0,0,0,3.693.013,1.188,1.188,0,0,0,.018-2.221m-35.879-19.56a1.207,1.207,0,0,0,0-2.254l-8.766-5.33a4.005,4.005,0,0,0-3.759-.026,1.212,1.212,0,0,0,.009,2.264l8.774,5.323a3.992,3.992,0,0,0,3.745.023M276.4,410.1a1.218,1.218,0,0,0-.015-2.275l-5.063-3.077a4.027,4.027,0,0,0-3.786-.031,1.221,1.221,0,0,0,.019,2.28l5.068,3.074a4.021,4.021,0,0,0,3.776.029m-35.416-2.551,26.084,15.713a4.03,4.03,0,0,0,3.769.023,1.209,1.209,0,0,0-.018-2.261l-26.061-15.73a4.066,4.066,0,0,0-3.809-.031,1.223,1.223,0,0,0,.035,2.287m49.311,27.468a1.2,1.2,0,0,0-.007-2.243l-8.767-5.292a4.012,4.012,0,0,0-3.756-.021,1.2,1.2,0,0,0,.014,2.252l8.775,5.286a4,4,0,0,0,3.742.018m9.345,7.866,4.961,2.989a3.975,3.975,0,0,0,3.716.012,1.19,1.19,0,0,0,0-2.226l-4.957-2.992a3.98,3.98,0,0,0-3.724-.014,1.193,1.193,0,0,0,0,2.232m9.894,14.836-25.442-15.266a4.005,4.005,0,0,0-3.74-.014,1.193,1.193,0,0,0,.012,2.234l25.465,15.249a3.972,3.972,0,0,0,3.7.006,1.18,1.18,0,0,0,0-2.21m-48.679-26.966a1.2,1.2,0,0,0,.023,2.253l8.825,5.284a4.022,4.022,0,0,0,3.753.016,1.2,1.2,0,0,0-.016-2.244l-8.817-5.29a4.034,4.034,0,0,0-3.768-.019m-9.535-7.963-5.092-3.055a4.063,4.063,0,0,0-3.795-.024,1.212,1.212,0,0,0,.034,2.27l5.1,3.052a4.055,4.055,0,0,0,3.785.022,1.21,1.21,0,0,0-.029-2.264m-5.465,15.4a1.2,1.2,0,0,0-.032-2.251L219.61,420.318a4.1,4.1,0,0,0-3.818-.024c-1.041.623-1.019,1.642.048,2.277l26.237,15.6a4.061,4.061,0,0,0,3.778.016m19.572,11.647a1.191,1.191,0,0,0-.021-2.233l-8.819-5.254a4.045,4.045,0,0,0-3.764-.014,1.2,1.2,0,0,0,.028,2.243l8.826,5.247a4.034,4.034,0,0,0,3.75.01m9.413,7.815,4.991,2.967a4,4,0,0,0,3.724.007,1.182,1.182,0,0,0-.011-2.217l-4.987-2.97a4.011,4.011,0,0,0-3.733-.008,1.184,1.184,0,0,0,.015,2.222M284.848,472.4l-25.591-15.154a4.04,4.04,0,0,0-3.748-.007,1.186,1.186,0,0,0,.026,2.226L281.148,474.6a4.006,4.006,0,0,0,3.71,0,1.173,1.173,0,0,0-.01-2.2m-36.3-21.5-8.868-5.251a4.067,4.067,0,0,0-3.776-.013,1.2,1.2,0,0,0,.037,2.243l8.876,5.246a4.057,4.057,0,0,0,3.762.009,1.19,1.19,0,0,0-.03-2.234m-22.249-13.175-5.122-3.033a4.094,4.094,0,0,0-3.8-.018c-1.038.62-1.016,1.632.048,2.26l5.127,3.03a4.09,4.09,0,0,0,3.793.015c1.035-.618,1.017-1.628-.043-2.255" transform="translate(-41.256 -71.885)" fill="#c1d1e9" stroke="#707070" stroke-linecap="round" stroke-linejoin="round" stroke-width="1"/>
      </g>
    </g>
    <g id="Group_1558" data-name="Group 1558" transform="translate(0 -0.031)">
      <g id="Group_1557" data-name="Group 1557" clip-path="url(#clip-path-2)">
        <path id="Path_17328" data-name="Path 17328" d="M385.814,388.977l-86.47-54.145c-5.768-4.159-11.854-3.862-15.355-1.616L160.345,407.564c-4.686,2.988-2.728,10.195.878,12.3l91.1,53.171a13.4,13.4,0,0,0,12.351-.027l121.14-72.717c3.215-2.486,3.326-9.23,0-11.314" transform="translate(-30.236 -63.623)" fill="#fff" stroke="#020f1e" stroke-linecap="round" stroke-linejoin="round" stroke-width="1"/>
        <path id="Path_17329" data-name="Path 17329" d="M385.254,388.4l-88.263-55.3a13.3,13.3,0,0,0-12.672-.175L161.182,406.594c-3.474,2.079-3.362,5.472.245,7.577l91.1,53.171a13.4,13.4,0,0,0,12.351-.026l120.2-71.463c3.418-2.032,3.5-5.365.171-7.449" transform="translate(-30.439 -63.587)" fill="#fff" stroke="#020f1e" stroke-linecap="round" stroke-linejoin="round" stroke-width="1"/>
        <path id="Path_17330" data-name="Path 17330" d="M291.381,357.422l25.778,15.943a3.966,3.966,0,0,0,3.753.036,1.226,1.226,0,0,0,.01-2.281l-25.754-15.961a4,4,0,0,0-3.793-.044,1.24,1.24,0,0,0,.006,2.307m36.364,22.49,8.671,5.364a3.936,3.936,0,0,0,3.725.03,1.216,1.216,0,0,0,.021-2.263l-8.664-5.369a3.95,3.95,0,0,0-3.74-.034,1.22,1.22,0,0,0-.013,2.272m21.6,13.362,4.9,3.032a3.911,3.911,0,0,0,3.7.026,1.207,1.207,0,0,0,.031-2.247l-4.9-3.035a3.919,3.919,0,0,0-3.709-.027,1.209,1.209,0,0,0-.025,2.251m9.668,15-25.143-15.489a3.943,3.943,0,0,0-3.724-.027,1.21,1.21,0,0,0-.015,2.255L355.3,410.485a3.908,3.908,0,0,0,3.685.019,1.2,1.2,0,0,0,.032-2.23M310.882,380.9a1.22,1.22,0,0,0,0,2.273l8.72,5.362a3.96,3.96,0,0,0,3.737.029,1.215,1.215,0,0,0,.012-2.264l-8.713-5.368a3.972,3.972,0,0,0-3.752-.032m-9.395-5.782a1.226,1.226,0,0,0,0-2.285l-5.033-3.1a4,4,0,0,0-3.778-.038,1.23,1.23,0,0,0,.006,2.291l5.038,3.1a3.989,3.989,0,0,0,3.768.035m-35.324-2.624,25.931,15.828a4,4,0,0,0,3.761.029,1.217,1.217,0,0,0,0-2.272l-25.908-15.845a4.031,4.031,0,0,0-3.8-.037,1.231,1.231,0,0,0,.02,2.3M315.2,400.17a1.207,1.207,0,0,0,.007-2.253l-8.716-5.33a3.98,3.98,0,0,0-3.748-.028,1.213,1.213,0,0,0,0,2.263l8.724,5.324a3.968,3.968,0,0,0,3.733.024m9.277,7.917,4.932,3.01a3.944,3.944,0,0,0,3.708.019,1.2,1.2,0,0,0,.016-2.237l-4.926-3.014a3.952,3.952,0,0,0-3.717-.021,1.2,1.2,0,0,0-.013,2.242M334.257,423l-25.294-15.377a3.976,3.976,0,0,0-3.731-.02,1.2,1.2,0,0,0,0,2.245l25.316,15.36a3.938,3.938,0,0,0,3.693.013,1.188,1.188,0,0,0,.018-2.221m-35.879-19.56a1.207,1.207,0,0,0,0-2.254l-8.766-5.33a4.005,4.005,0,0,0-3.759-.026,1.212,1.212,0,0,0,.009,2.264l8.774,5.323a3.992,3.992,0,0,0,3.745.023M276.4,390.1a1.218,1.218,0,0,0-.015-2.275l-5.063-3.077a4.029,4.029,0,0,0-3.786-.032,1.221,1.221,0,0,0,.019,2.281l5.068,3.075a4.023,4.023,0,0,0,3.776.028m-35.416-2.551,26.084,15.712a4.03,4.03,0,0,0,3.769.023,1.209,1.209,0,0,0-.018-2.261l-26.061-15.73a4.066,4.066,0,0,0-3.809-.031,1.223,1.223,0,0,0,.035,2.287m49.311,27.468a1.2,1.2,0,0,0-.007-2.243l-8.767-5.292a4.012,4.012,0,0,0-3.756-.02,1.2,1.2,0,0,0,.014,2.252l8.775,5.285a4,4,0,0,0,3.742.018m9.345,7.866,4.961,2.988a3.975,3.975,0,0,0,3.716.012,1.19,1.19,0,0,0,0-2.226l-4.957-2.992a3.98,3.98,0,0,0-3.724-.015,1.193,1.193,0,0,0,0,2.232m9.894,14.836-25.442-15.266a4.008,4.008,0,0,0-3.74-.014,1.194,1.194,0,0,0,.012,2.235l25.465,15.249a3.973,3.973,0,0,0,3.7.006,1.18,1.18,0,0,0,0-2.21m-48.679-26.966a1.2,1.2,0,0,0,.023,2.253l8.825,5.284a4.022,4.022,0,0,0,3.753.016,1.2,1.2,0,0,0-.016-2.244l-8.817-5.29a4.035,4.035,0,0,0-3.768-.019m-9.535-7.962-5.092-3.056a4.064,4.064,0,0,0-3.795-.024,1.212,1.212,0,0,0,.034,2.27l5.1,3.052a4.056,4.056,0,0,0,3.785.022,1.21,1.21,0,0,0-.029-2.264m-5.465,15.4a1.2,1.2,0,0,0-.032-2.251L219.61,400.318a4.1,4.1,0,0,0-3.818-.023c-1.041.622-1.019,1.641.048,2.276l26.237,15.6a4.061,4.061,0,0,0,3.778.016m19.572,11.647a1.191,1.191,0,0,0-.021-2.233l-8.819-5.254a4.045,4.045,0,0,0-3.764-.014,1.2,1.2,0,0,0,.028,2.243l8.826,5.247a4.035,4.035,0,0,0,3.75.01m9.413,7.815,4.991,2.967a4.005,4.005,0,0,0,3.724.006,1.182,1.182,0,0,0-.011-2.217l-4.987-2.97a4.011,4.011,0,0,0-3.733-.008,1.184,1.184,0,0,0,.015,2.222M284.848,452.4l-25.591-15.154a4.04,4.04,0,0,0-3.748-.007,1.186,1.186,0,0,0,.026,2.226L281.148,454.6a4.006,4.006,0,0,0,3.71,0,1.173,1.173,0,0,0-.01-2.2m-36.3-21.5-8.868-5.251a4.068,4.068,0,0,0-3.776-.013,1.2,1.2,0,0,0,.037,2.243l8.876,5.246a4.056,4.056,0,0,0,3.762.009,1.191,1.191,0,0,0-.03-2.234m-22.249-13.175-5.122-3.033a4.094,4.094,0,0,0-3.8-.018c-1.038.62-1.016,1.632.048,2.26l5.127,3.03a4.09,4.09,0,0,0,3.793.015c1.035-.618,1.017-1.628-.043-2.255" transform="translate(-41.256 -68.048)" fill="#005dff"/>
        <path id="Path_17331" data-name="Path 17331" d="M566.28,225.339c-1.674-.335-3.031,1.2-3.031,3.435s1.357,4.312,3.031,4.647,3.03-1.2,3.03-3.435-1.357-4.312-3.03-4.647" transform="translate(-108.069 -43.227)" fill="#020f1e" stroke="#707070" stroke-linecap="round" stroke-linejoin="round" stroke-width="1"/>
        <path id="Path_17332" data-name="Path 17332" d="M579.28,232.339c-1.674-.335-3.031,1.2-3.031,3.435s1.357,4.312,3.031,4.647,3.03-1.2,3.03-3.435-1.357-4.312-3.03-4.647" transform="translate(-110.564 -44.57)" fill="none" stroke="#020f1e" stroke-linecap="round" stroke-linejoin="round" stroke-width="1"/>
        <path id="Path_17333" data-name="Path 17333" d="M593.28,240.339c-1.674-.335-3.031,1.2-3.031,3.435s1.357,4.312,3.031,4.647,3.031-1.2,3.031-3.435-1.357-4.312-3.031-4.647" transform="translate(-113.25 -46.105)" fill="none" stroke="#020f1e" stroke-linecap="round" stroke-linejoin="round" stroke-width="1"/>
        <g id="Left_Eye_copy" transform="matrix(0.883, -0.469, 0.469, 0.883, 310.975, 189.053)">
          <g id="Group_60" data-name="Group 60" transform="translate(0)">
            <path id="Path_52" data-name="Path 52" d="M89.886,69.431c-2.132-.092-4.152-.913-6.284-1.141-1.36-.137-2.5-1.643-2.278-3.606.955-9.312-.955-17.848-4.447-25.973-.992-2.328-.7-3.652,1.139-5.25,2.095-1.78,4.19-3.561,6.174-5.478a3.8,3.8,0,0,0,.7-5.25c-1.066-1.735-2.756-1.963-4.336-.32-1.984,2.054-3.859,4.337-5.77,6.528-1.47,1.689-2.609,1.689-4.079,0a32.676,32.676,0,0,0-17.86-11.184c-3.16-.685-3.2-1-3.344-5.021-.074-2.739.4-5.432.441-8.125A6.261,6.261,0,0,0,48.544,0H45.678a5.268,5.268,0,0,0-1.4,4.291c.11,2.785-.037,5.569.331,8.4.441,3.15-.441,4.473-3.05,5.067a31.494,31.494,0,0,0-17.051,9.951c-2.389,2.6-3.013,2.511-5.329-.273-1.58-1.872-3.124-3.835-4.7-5.706-1.506-1.734-3.271-1.781-4.41-.32a4.4,4.4,0,0,0,.625,5.752c1.69,1.689,3.528,3.241,5.328,4.793,2.572,2.237,2.756,3.287,1.213,6.665A53.917,53.917,0,0,0,12.6,62.857c.11,2.921-1.029,4.474-3.454,4.519s-4.7.959-7.092,1.187A3.447,3.447,0,0,0,0,70.116v4.108c2.132,2.922,4.447.959,6.688.32,1.58-.456,3.124-1.187,4.74-1.689,1.58-.5,2.719-.091,3.307,2.145A42.866,42.866,0,0,0,27.377,95.861c1.727,1.552,1.911,2.967.772,5.386-1.323,2.784-2.646,5.569-3.859,8.445-.845,2.008-.331,3.88,1.1,4.747a2.686,2.686,0,0,0,4.043-1.507c1.066-2.739,1.948-5.614,2.866-8.445,1.065-3.286,1.948-3.88,4.63-2.83a26.8,26.8,0,0,0,19.991.137c2.094-.776,3.16-.091,3.9,2.465.735,2.465,1.543,4.884,2.242,7.4a8.085,8.085,0,0,0,2.389,4.017H67.1c2.462-2.1,2.719-3.241,1.323-6.573-1.066-2.556-2.242-5.067-3.344-7.577-.882-1.963-.882-3.469.845-4.93A41.865,41.865,0,0,0,79.3,75.548c.735-2.465,2.278-2.054,3.748-1.552,2.1.73,4.153,1.689,6.248,2.511,1.764.73,3.381.685,4.63-1.323V71.622A5.13,5.13,0,0,0,89.886,69.431ZM47.075,54.413c2.94.046,4.7,2.42,4.667,6.208-.037,3.7-1.948,5.888-5,5.8-2.977-.091-4.7-2.373-4.667-6.208C42.114,56.558,44.025,54.367,47.075,54.413ZM29.031,34.419c3.822-4.063,8.085-7.03,13.119-7.806,2.095-.32.919,2.191,1.323,3.286-.4,4.93-.772,9.723-1.176,14.516-.147,1.689-.882,2.374-2.095,1.37-3.748-3.15-7.423-6.391-11.135-9.541C28.37,35.606,28.443,35.058,29.031,34.419ZM19.44,61.4c.331-6.756,1.139-12.234,3.381-17.255.515-1.187.919-1.78,1.911-.548,2.976,3.652,6.027,7.167,9.04,10.773,1.654,2.009,1.47,2.967-.735,3.789-3.712,1.415-7.423,2.83-11.171,4.245C19.807,63.177,19.44,62.812,19.44,61.4ZM36.9,72.991c-1.4,4.519-2.83,9.038-4.189,13.557-.551,1.872-1.286,2.465-2.646,1a37.09,37.09,0,0,1-8.232-13.512c-.294-.822-.808-1.917.478-2.145,4.262-.73,8.526-1.415,12.457-2.1C37.667,69.8,37.777,70.025,36.9,72.991ZM53.653,93.944c-2.168.32-4.263,1.415-6.358,1.141-2.646.137-5-.776-7.423-1.369-1.176-.274-1.691-.913-.919-2.419,2.278-4.656,4.52-9.312,6.762-14.014.772-1.6,1.617-1.461,2.315.045,2.2,4.7,4.336,9.5,6.5,14.2C55.086,92.8,54.792,93.762,53.653,93.944ZM51.926,43.366c-.367-4.063-.845-8.08-.808-12.142V29.672c-.074-3.378.073-3.606,2.719-2.647a28.071,28.071,0,0,1,10.8,6.984c1.213,1.278,1.544,2.145-.074,3.378-3.27,2.51-6.394,5.25-9.591,7.806C52.587,47.109,52.256,46.835,51.926,43.366ZM71.953,74.909A35.691,35.691,0,0,1,63.391,88.1c-.955.867-1.654,1.278-2.168-.5-1.47-5.021-2.9-10.088-4.41-15.109-.515-1.735-.147-2.648,1.47-2.739,1.874.365,3.822.913,5.806,1.187,2.315.274,4.594.913,6.872,1.415C72.247,72.672,72.541,73.448,71.953,74.909ZM70.593,62.447c-3.308-1.369-6.578-2.785-9.922-4.109-1.654-.639-1.8-1.6-.588-3.013,3.087-3.651,6.174-7.258,9.224-10.91,1.065-1.232,1.69-1,2.278.593a40.481,40.481,0,0,1,2.793,13.968C74.6,64.045,74.562,64.09,70.593,62.447Z" fill="#005dff"/>
          </g>
        </g>
      </g>
    </g>
    <g id="Group_1560" data-name="Group 1560" transform="translate(0 -0.031)">
      <g id="Group_1559" data-name="Group 1559" clip-path="url(#clip-path-2)">
        <path id="Path_17342" data-name="Path 17342" d="M122.539,275.489,107.993,266.6s-3.4,80.054,61.118,89.818c0,0-50.206-10.552-46.572-80.929" transform="translate(-20.714 -51.152)" fill="#fff" stroke="#020f1e" stroke-linecap="round" stroke-linejoin="round" stroke-width="1"/>
      </g>
    </g>
    <path id="Path_17343" data-name="Path 17343" d="M171.041,167.6l-63,79.965,14.465,8.93,62.277-80.005Z" transform="translate(-20.729 -32.188)" fill="#fff" stroke="#020f1e" stroke-linecap="round" stroke-linejoin="round" stroke-width="1"/>
    <path id="Path_17344" data-name="Path 17344" d="M249.842,175.681,186,167.6l13.738,9.7,62.226,6.465Z" transform="translate(-35.687 -32.188)" fill="#fff" stroke="#020f1e" stroke-linecap="round" stroke-linejoin="round" stroke-width="1"/>
    <path id="Path_17345" data-name="Path 17345" d="M180.546,672.6,166,679.873l14.546,8.889,13.738-8.076Z" transform="translate(-31.85 -129.081)" fill="#005dff" stroke="#020f1e" stroke-linecap="round" stroke-linejoin="round" stroke-width="1"/>
    <path id="Path_17346" data-name="Path 17346" d="M166,681.6v16.971l14.546,8.081V690.489Z" transform="translate(-31.85 -130.808)" fill="#fff" stroke="#020f1e" stroke-linecap="round" stroke-linejoin="round" stroke-width="1"/>
    <path id="Path_17347" data-name="Path 17347" d="M184,690.681v16.163l13.738-8.889V682.6Z" transform="translate(-35.304 -131)" fill="none" stroke="#020f1e" stroke-linecap="round" stroke-linejoin="round" stroke-width="1"/>
    <g id="Group_1562" data-name="Group 1562" transform="translate(0 -0.031)">
      <g id="Group_1561" data-name="Group 1561" clip-path="url(#clip-path-2)">
        <path id="Path_17348" data-name="Path 17348" d="M178.628,660.6,156,673.53v25.86l22.628,12.93,21.82-13.738V673.53Z" transform="translate(-29.931 -126.748)" fill="none" stroke="#020f1e" stroke-linecap="round" stroke-linejoin="round" stroke-width="1"/>
      </g>
    </g>
    <path id="Path_17349" data-name="Path 17349" d="M102.546,626.6,88,633.873l14.546,8.89,13.738-8.89Z" transform="translate(-16.884 -120.255)" fill="#005dff" stroke="#020f1e" stroke-linecap="round" stroke-linejoin="round" stroke-width="1"/>
    <path id="Path_17350" data-name="Path 17350" d="M88,635.6v16.971l14.546,8.081V644.489Z" transform="translate(-16.884 -121.982)" fill="#fff" stroke="#020f1e" stroke-linecap="round" stroke-linejoin="round" stroke-width="1"/>
    <path id="Path_17351" data-name="Path 17351" d="M106,644.489v16.162l13.738-8.889V635.6Z" transform="translate(-20.338 -121.982)" fill="#fff" stroke="#020f1e" stroke-linecap="round" stroke-linejoin="round" stroke-width="1"/>
    <path id="Path_17352" data-name="Path 17352" d="M100.628,614.6,78,627.53v25.86l22.628,12.93,21.82-13.738V627.53Z" transform="translate(-14.966 -117.953)" fill="none" stroke="#020f1e" stroke-linecap="round" stroke-linejoin="round" stroke-width="1"/>
    <path id="Path_17353" data-name="Path 17353" d="M25.546,580.6,11,587.873l14.546,8.889,13.738-8.889Z" transform="translate(-2.111 -111.429)" fill="#005dff" stroke="#020f1e" stroke-linecap="round" stroke-linejoin="round" stroke-width="1"/>
    <path id="Path_17354" data-name="Path 17354" d="M11,589.6v16.971l14.546,8.081V598.49Z" transform="translate(-2.111 -113.156)" fill="#fff" stroke="#020f1e" stroke-linecap="round" stroke-linejoin="round" stroke-width="1"/>
    <path id="Path_17355" data-name="Path 17355" d="M29,598.49v16.163l13.738-8.889V589.6Z" transform="translate(-5.564 -113.156)" fill="#fff" stroke="#020f1e" stroke-linecap="round" stroke-linejoin="round" stroke-width="1"/>
    <g id="Group_1564" data-name="Group 1564" transform="translate(0 -0.031)">
      <g id="Group_1563" data-name="Group 1563" clip-path="url(#clip-path-2)">
        <path id="Path_17356" data-name="Path 17356" d="M23.628,568.6,1,581.53v25.86l22.628,12.93,21.82-13.738V581.53Z" transform="translate(-0.192 -109.096)" fill="none" stroke="#020f1e" stroke-linecap="round" stroke-linejoin="round" stroke-width="1"/>
      </g>
    </g>
    <g id="Group_1566" data-name="Group 1566" transform="translate(0 -0.031)">
      <g id="Group_1565" data-name="Group 1565" clip-path="url(#clip-path-2)">
        <path id="Path_17357" data-name="Path 17357" d="M292.041,643.6c-2.231,0-4.041,1.085-4.041,2.424s1.809,2.424,4.041,2.424,4.041-1.085,4.041-2.424-1.809-2.424-4.041-2.424" transform="translate(-55.258 -123.486)" fill="#fff"/>
      </g>
    </g>
    <g id="Group_1568" data-name="Group 1568" transform="translate(0 -0.031)">
      <g id="Group_1567" data-name="Group 1567" clip-path="url(#clip-path-2)">
        <path id="Path_17358" data-name="Path 17358" d="M322.041,623.6c-2.231,0-4.041,1.086-4.041,2.424s1.809,2.424,4.041,2.424,4.041-1.085,4.041-2.424-1.809-2.424-4.041-2.424" transform="translate(-61.014 -118.841)" fill="#fff"/>
      </g>
    </g>
    <g id="Group_1570" data-name="Group 1570" transform="translate(0 -0.031)">
      <g id="Group_1569" data-name="Group 1569" clip-path="url(#clip-path-2)">
        <path id="Path_17359" data-name="Path 17359" d="M337.041,616.6c-2.231,0-4.041,1.085-4.041,2.424s1.809,2.424,4.041,2.424,4.041-1.085,4.041-2.424-1.809-2.424-4.041-2.424" transform="translate(-63.892 -118.306)" fill="#fff"/>
      </g>
    </g>
    <g id="Group_1572" data-name="Group 1572" transform="translate(0 -0.031)">
      <g id="Group_1571" data-name="Group 1571" clip-path="url(#clip-path-2)">
        <path id="Path_17360" data-name="Path 17360" d="M503.424,516.6a2.027,2.027,0,1,0,2.424,1.988,2.239,2.239,0,0,0-2.424-1.988" transform="translate(-96.126 -98.811)" fill="#fff"/>
      </g>
    </g>
    <g id="Group_1574" data-name="Group 1574" transform="translate(0 -0.031)">
      <g id="Group_1573" data-name="Group 1573" clip-path="url(#clip-path-2)">
        <path id="Path_17361" data-name="Path 17361" d="M427.437,565.782c-.734-.367-1.8-.754-2.352-.443l-10.466,6.227c-1.063.6-1.31,1.644-.471,2.337a3.207,3.207,0,0,0,3.546.02l10.183-6.823c.526-.352-.213-1.227-.44-1.317" transform="translate(-79.365 -108.448)" fill="#f5f9ff"/>
      </g>
    </g>
    <g id="Group_1576" data-name="Group 1576" transform="translate(0 -0.031)">
      <g id="Group_1575" data-name="Group 1575" clip-path="url(#clip-path-2)">
        <path id="Path_17362" data-name="Path 17362" d="M522.437,505.84a2.765,2.765,0,0,0-2.3-.105l-10.515,5.888c-1.063.6-1.31,1.645-.471,2.337a3.208,3.208,0,0,0,3.546.02l10.183-6.015c.526-.352.313-1.749-.441-2.125" transform="translate(-97.593 -96.995)" fill="#fff"/>
      </g>
    </g>
    <g id="Group_1578" data-name="Group 1578" transform="translate(0 -0.031)">
      <g id="Group_1577" data-name="Group 1577" clip-path="url(#clip-path-2)">
        <path id="Path_17363" data-name="Path 17363" d="M539.013,496.84a2.765,2.765,0,0,0-2.3-.105l-8.09,4.272c-1.064.6-1.31,1.645-.471,2.337a3.206,3.206,0,0,0,3.546.02l7.759-4.4c.526-.352.313-1.749-.441-2.125" transform="translate(-101.238 -95.268)" fill="#fff"/>
      </g>
    </g>
    <g id="Group_1580" data-name="Group 1580" transform="translate(0 -0.031)">
      <g id="Group_1579" data-name="Group 1579" clip-path="url(#clip-path-2)">
        <path id="Path_17364" data-name="Path 17364" d="M538.013,504.84a2.766,2.766,0,0,0-2.3-.1l-8.09,4.272c-1.064.6-1.31,1.644-.471,2.337a3.207,3.207,0,0,0,3.546.02l7.759-4.4c.526-.352.313-1.749-.441-2.126" transform="translate(-100.238 -95.995)" fill="#fff"/>
      </g>
    </g>
    <g id="Group_1518" data-name="Group 1518" transform="translate(492.961 255.824)">
      <g id="Group_1582" data-name="Group 1582">
        <path id="Path_17298" data-name="Path 17298" d="M659.3,344.076,610,316.6v45.255l46.064,26.668s8.081,2.812,8.081-3.233v-29.9s1.522-7.855-4.849-11.314" transform="translate(-610 -316.6)" fill="#fff" stroke="#020f1e" stroke-linecap="round" stroke-linejoin="round" stroke-width="1"/>
      </g>
      <path id="Path_17368" data-name="Path 17368" d="M656.889,367.419v-4.041s-2.68-.582-2.424-6.465c0,0,1.94-8.89-6.465-11.314v4.041s3.785,1.843,3.233,5.657c0,0-1.711,6.368,2.425,8.081a4.721,4.721,0,0,0-2.425,4.849s1.36,5.075-2.424,3.233V375.5s5.239,4.429,5.657-.808l.808-4.849s-1.226-2.521,1.616-2.424" transform="translate(-617.291 -322.164)" fill="#005dff"/>
      <path id="Path_17369" data-name="Path 17369" d="M637.7,345.067v-4.849c-8.243-5.5-7.273,4.849-7.273,4.849A2.7,2.7,0,0,1,628,348.3v4.041c2.168.388,3.233,9.7,3.233,9.7.067,4.913,6.465,8.889,6.465,8.889v-4.849c-3.812-1.875-3.232-7.273-3.232-7.273.229-2.845-1.616-6.465-1.616-6.465,2.653-.1,1.616-4.849,1.616-4.849-.9-3.491,3.232-2.424,3.232-2.424" transform="translate(-613.454 -320.823)" fill="#005dff"/>
    </g>
    <g id="Group_1601" data-name="Group 1601" transform="translate(273.632 537.928)">
      <path id="Shape_26" data-name="Shape 26" d="M897.993,800v15.333s-.723,1.609,2.706,3.608l69.545,38.684s7.093,4.917,14.43.9l52.409-30.665s2.884-1.547,2.705-4.509V810.115s-.121.115-4.509,3.316l-47,27.057a17.53,17.53,0,0,1-16.234,1.8L901.6,803.607S897.718,800.155,897.993,800Z" transform="translate(-897.97 -762.99)" fill="none" stroke="#232323" stroke-width="1"/>
      <path id="Shape_25" data-name="Shape 25" d="M953.9,760.811l-52.311,29.763s-8.389,3.714,0,9.019l69.447,37.88a15.665,15.665,0,0,0,16.234,0l49.6-28.861s5.741-4.1.9-8.117L965.63,760.811S959.617,756.9,953.9,760.811Z" transform="translate(-897.866 -759.074)" fill="none" stroke="#000" stroke-width="1"/>
      <path id="Shape_24" data-name="Shape 24" d="M31.567,33.37l5.412-3.608L57.722,33.37,51.409,21.645,56.82,18.94l9.02,17.136-4.51,2.706ZM5.412,25.253l46.9-12.627,3.607,2.706-46,12.626ZM0,2.705,4.51,0,33.371,5.411l-4.51,3.608L9.019,5.411l6.314,11.725L9.922,20.743Z" transform="translate(38.001 19.775)" fill="#005dff"/>
    </g>
  </g>
</svg>
