<svg xmlns="http://www.w3.org/2000/svg" xmlns:xlink="http://www.w3.org/1999/xlink" width="716.759" height="619.322" viewBox="0 0 716.759 619.322">
  <defs>
    <linearGradient id="linear-gradient" x1="0.5" y1="1" x2="0.5" gradientUnits="objectBoundingBox">
      <stop offset="0" stop-color="#173f4f"/>
      <stop offset="1" stop-color="#2f5361"/>
    </linearGradient>
    <linearGradient id="linear-gradient-2" x1="0.727" y1="0.689" x2="0.829" y2="0.758" gradientUnits="objectBoundingBox">
      <stop offset="0" stop-color="#292c2f"/>
      <stop offset="1" stop-opacity="0"/>
    </linearGradient>
    <linearGradient id="linear-gradient-3" x1="1.282" y1="1" x2="1.282" y2="-0.08" gradientUnits="objectBoundingBox">
      <stop offset="0" stop-color="#bf4231"/>
      <stop offset="1" stop-color="#e05e4c"/>
    </linearGradient>
    <linearGradient id="linear-gradient-4" x1="1.571" y1="1.166" x2="1.571" gradientUnits="objectBoundingBox">
      <stop offset="0" stop-color="#eff0f1"/>
      <stop offset="1" stop-color="#fcfcfc"/>
    </linearGradient>
    <linearGradient id="linear-gradient-5" x1="0.158" y1="0.217" x2="1.146" y2="0.893" xlink:href="#linear-gradient-2"/>
    <linearGradient id="linear-gradient-6" x1="-0.1" y1="0.063" x2="1.1" y2="0.813" xlink:href="#linear-gradient-2"/>
    <linearGradient id="linear-gradient-7" x1="0.333" y1="1.25" x2="0.333" y2="-0.156" xlink:href="#linear-gradient-4"/>
    <linearGradient id="linear-gradient-8" x1="0.681" y1="1.29" x2="0.681" y2="-0.161" xlink:href="#linear-gradient-3"/>
    <linearGradient id="linear-gradient-9" x1="0.625" y1="1" x2="0.625" gradientUnits="objectBoundingBox">
      <stop offset="0" stop-color="#be4434"/>
      <stop offset="0.25" stop-color="#c44837"/>
      <stop offset="1" stop-color="#cb4c3b"/>
    </linearGradient>
    <linearGradient id="linear-gradient-10" x1="0" y1="0.408" x2="0.636" y2="0.765" xlink:href="#linear-gradient-2"/>
    <linearGradient id="linear-gradient-11" x1="-72.436" y1="36.418" x2="-71.386" y2="37.564" gradientUnits="objectBoundingBox">
      <stop offset="0" stop-color="#9fae8d"/>
      <stop offset="1" stop-color="#fff"/>
    </linearGradient>
    <linearGradient id="linear-gradient-12" x1="0.147" y1="0.889" x2="0.485" y2="0.244" gradientUnits="objectBoundingBox">
      <stop offset="0" stop-color="#5d6b4c"/>
      <stop offset="1" stop-color="#daeac6"/>
    </linearGradient>
    <linearGradient id="linear-gradient-13" x1="-223.149" y1="-3.096" x2="-221.603" y2="-2.19" gradientUnits="objectBoundingBox">
      <stop offset="0" stop-color="#171815"/>
      <stop offset="1" stop-color="#171815" stop-opacity="0"/>
    </linearGradient>
    <linearGradient id="linear-gradient-14" x1="0.149" y1="0.568" x2="1" y2="0.5" gradientUnits="objectBoundingBox">
      <stop offset="0" stop-color="#f6bb7c"/>
      <stop offset="1" stop-color="#f6bb7c" stop-opacity="0"/>
    </linearGradient>
    <linearGradient id="linear-gradient-15" x1="1.448" y1="0.108" x2="1.626" y2="0.783" xlink:href="#linear-gradient-14"/>
    <linearGradient id="linear-gradient-16" y1="0.5" x2="0.698" y2="0.19" gradientUnits="objectBoundingBox">
      <stop offset="0" stop-color="#f9cd9f"/>
      <stop offset="1" stop-color="#f9cd9f" stop-opacity="0"/>
    </linearGradient>
    <linearGradient id="linear-gradient-17" x1="-158.084" y1="-7.21" x2="-159.807" y2="-7.074" xlink:href="#linear-gradient-13"/>
  </defs>
  <g id="tarian-img2" transform="translate(-11661.059 -2797.833)">
    <g id="Group_11050" data-name="Group 11050" transform="translate(12081.353 2988.722)">
      <path id="Path_23890" data-name="Path 23890" d="M1060.6,370.274a13.976,13.976,0,0,1-12.586,0l-41.921-24.19c-3.458-2-3.458-5.269,0-7.269L1047.327,315a13.948,13.948,0,0,1,12.586,0l41.921,24.19c3.458,2,3.458,5.269,0,7.26Z" transform="translate(-1003.498 -313.495)" fill="#fff" stroke="#020f1e" stroke-width="1"/>
      <path id="Path_23891" data-name="Path 23891" d="M1003.519,351.525h0c-.067,1.362.791,2.744,2.582,3.811l41.921,24.2a13.986,13.986,0,0,0,12.576,0l41.235-23.819c1.81-1.048,2.668-2.439,2.582-3.811v-7.431a4.488,4.488,0,0,1-2.582,3.449L1060.6,371.743a13.977,13.977,0,0,1-12.586,0l-41.921-24.19a4.4,4.4,0,0,1-2.591-3.582Z" transform="translate(-1003.498 -314.935)" fill="#fff" stroke="#020f1e" stroke-width="1"/>
      <path id="Shape_6" data-name="Shape 6" d="M302.228,137.163c-2.492.2-4.353,1.012-5.184,2.253A21.376,21.376,0,0,0,288.9,137.6l-1.052-.043.288.64a10.407,10.407,0,0,0,4.5,3.594,18,18,0,0,0,4.6,1.561,4.305,4.305,0,0,1-.241,1.342,4.805,4.805,0,0,1-1.811,2.023l-2.019,1.136-6.191-3.518-3.828,2.2-10.742-6.14-4.252,2.522,5.082,2.924-7.044,4.112,5.459,3.175L268,155.215l5.879,3.439-3.153,1.774.573.4a35.573,35.573,0,0,0,8.657,4.115l1.251.377.114.034c8.042,2.128,14.565,1.37,19.107-1.043,8.966-4.763,10.566-12.171,1.546-21.06,2.474-1.187,3.844-3.077,1.744-5.506l-.536-.613-.951.032ZM268,150.353l2.812-1.635,4.659,2.7-2.843,1.629Zm22.666,8.822c.748.431.945,1.006.439,1.283a2.672,2.672,0,0,1-2.262-.277c-.744-.429-.94-1-.439-1.28h0a2.765,2.765,0,0,1,2.261.277Zm-17.189-5.639,2.849-1.627,4.7,2.719-2.88,1.621Zm-3.665,2.094,3.1-1.769,4.661,2.711-3.13,1.761Zm29.672,8.1c-4.786,2.5-9.605,2.5-14.665,1.845.653-.305,1.277-.6,1.8-.88.468-.254.937-.508,1.33-.77a8.634,8.634,0,0,0,2.321-1.99,26.122,26.122,0,0,0,10.241,1.246ZM284.814,152.5l-3.2,1.8-4.7-2.72,3.167-1.809Zm-5.6-3.224-3.161,1.81-4.665-2.7,3.126-1.818Zm9.432,1.069-3.241,1.824-4.747-2.729,3.2-1.831Zm-5.652-3.234-3.2,1.832-4.706-2.706,3.163-1.839Zm-5.6-3.206-3.157,1.84-4.666-2.683,3.122-1.847Zm15.132,4.259-3.28,1.846-4.789-2.737,3.244-1.853Zm-3.4,10.883a.846.846,0,0,0-.322.079c-.358.2-.221.6.307.909a1.9,1.9,0,0,0,1.607.2c.36-.2.222-.6-.307-.91h0a1.963,1.963,0,0,0-.407-.169c.129.147.05.28-.176.3a.92.92,0,0,1-.5-.123.415.415,0,0,1-.2-.282Z" transform="translate(-237.075 -121.978)" fill="#020f1e"/>
    </g>
    <g id="Group_11068" data-name="Group 11068" transform="translate(11839.59 3101.79)">
      <path id="Path_23890-2" data-name="Path 23890" d="M1068.14,377.773a15.822,15.822,0,0,1-14.248,0l-47.458-27.385c-3.915-2.265-3.915-5.965,0-8.23l46.681-26.965a15.79,15.79,0,0,1,14.248,0l47.458,27.385c3.915,2.265,3.915,5.965,0,8.219Z" transform="translate(-1003.498 -313.495)" fill="#fff" stroke="#020f1e" stroke-width="1"/>
      <path id="Path_23891-2" data-name="Path 23891" d="M1003.522,352.523h0c-.075,1.542.9,3.106,2.923,4.314l47.458,27.4a15.833,15.833,0,0,0,14.237,0l46.681-26.965c2.049-1.186,3.02-2.761,2.923-4.314v-8.413a5.08,5.08,0,0,1-2.923,3.9l-46.681,26.965a15.823,15.823,0,0,1-14.248,0l-47.458-27.385c-1.931-1.079-2.912-2.589-2.934-4.056Z" transform="translate(-1003.498 -311.101)" fill="#fff" stroke="#020f1e" stroke-width="1"/>
      <path id="Shape_6-2" data-name="Shape 6" d="M306.989,137.167c-2.822.228-4.928,1.146-5.869,2.551a24.2,24.2,0,0,0-9.221-2.058l-1.191-.049.326.725a11.782,11.782,0,0,0,5.092,4.069,20.381,20.381,0,0,0,5.2,1.767,4.875,4.875,0,0,1-.273,1.519,5.44,5.44,0,0,1-2.051,2.291l-2.286,1.286-7.009-3.982-4.333,2.486-12.161-6.951-4.813,2.855,5.753,3.31-7.975,4.655,6.18,3.595-4.129,2.368,6.656,3.893-3.569,2.008.648.454a40.272,40.272,0,0,0,9.8,4.658l1.417.427.129.038c9.1,2.409,16.488,1.551,21.631-1.181,10.15-5.392,11.962-13.779,1.75-23.842,2.8-1.344,4.352-3.483,1.975-6.234l-.607-.694-1.076.037ZM268.239,152.1l3.183-1.851L276.7,153.3l-3.219,1.844Zm25.66,9.987c.847.487,1.069,1.138.5,1.453a3.025,3.025,0,0,1-2.561-.313c-.842-.486-1.065-1.135-.5-1.449l0,0a3.13,3.13,0,0,1,2.559.313Zm-19.46-6.384,3.225-1.842,5.319,3.078-3.261,1.835Zm-4.149,2.37,3.505-2,5.276,3.069-3.544,1.994Zm33.591,9.171c-5.418,2.832-10.874,2.835-16.6,2.088.739-.346,1.446-.675,2.04-1,.53-.287,1.06-.575,1.506-.872a9.774,9.774,0,0,0,2.627-2.253,29.573,29.573,0,0,0,11.593,1.411Zm-16.606-12.715-3.625,2.04-5.326-3.08,3.585-2.048Zm-6.342-3.649-3.578,2.049-5.281-3.053,3.539-2.058Zm10.678,1.21-3.669,2.065-5.374-3.089,3.628-2.073Zm-6.4-3.661L281.59,150.5l-5.328-3.063,3.581-2.082Zm-6.344-3.629-3.574,2.083-5.283-3.037,3.534-2.091ZM296,149.62l-3.713,2.089-5.421-3.1,3.672-2.1Zm-3.85,12.32a.958.958,0,0,0-.365.09c-.405.222-.25.683.348,1.029a2.152,2.152,0,0,0,1.819.225c.407-.222.252-.684-.348-1.03h0a2.222,2.222,0,0,0-.46-.191c.146.166.057.317-.2.336a1.042,1.042,0,0,1-.566-.139.47.47,0,0,1-.226-.319Z" transform="translate(-233.231 -119.976)" fill="#020f1e"/>
    </g>
    <g id="Group_11052" data-name="Group 11052" transform="translate(11662.789 3042.707)">
      <path id="Path_23456" data-name="Path 23456" d="M604.688,177.551l-43.141-24.9c-2.335-1.37-3.556-3.167-3.556-4.957s1.183-3.587,3.556-4.957l43.141-24.9a18.972,18.972,0,0,1,17.174,0l43.149,24.9c2.334,1.37,3.556,3.159,3.556,4.957s-1.191,3.587-3.556,4.957l-43.149,24.9a18.972,18.972,0,0,1-17.174,0Z" transform="translate(-557.982 -115.78)" fill="#fff" stroke="#020f1e" stroke-width="1"/>
      <path id="Path_23457" data-name="Path 23457" d="M665,161.737l-43.149,24.9a18.972,18.972,0,0,1-17.174,0l-43.141-24.9c-2.335-1.37-3.556-3.167-3.556-4.957v65.257c0,1.8,1.183,3.587,3.556,4.957l43.149,24.893a18.972,18.972,0,0,0,17.174,0l43.149-24.9c2.334-1.37,3.556-3.159,3.556-4.957V156.78C668.557,158.57,667.366,160.367,665,161.737Z" transform="translate(-557.98 -124.875)" fill="#fff" stroke="#020f1e" stroke-width="1"/>
      <g id="Left_Eye_copy" transform="translate(22.841 13.013)">
        <g id="Group_60" data-name="Group 60">
          <path id="Path_52" data-name="Path 52" d="M568.385,543.959c-1.473-.03-2.869-.3-4.342-.373-.94-.045-1.727-.536-1.575-1.178.66-3.042-.66-5.83-3.072-8.484-.686-.76-.483-1.193.787-1.715,1.448-.582,2.9-1.163,4.266-1.789,1.193-.537,1.27-1.118.482-1.715a2.882,2.882,0,0,0-3-.1c-1.371.671-2.667,1.417-3.987,2.132a2.606,2.606,0,0,1-2.818,0,32.4,32.4,0,0,0-12.342-3.653c-2.184-.224-2.209-.328-2.311-1.64-.051-.895.279-1.774.3-2.654a1.5,1.5,0,0,0-.965-1.506h-1.981c-.787.358-1.016.835-.965,1.4a14.393,14.393,0,0,0,.229,2.744c.3,1.029-.3,1.461-2.108,1.655a32.536,32.536,0,0,0-11.783,3.251c-1.651.85-2.083.82-3.682-.089-1.092-.611-2.159-1.253-3.251-1.864a3.176,3.176,0,0,0-3.047-.1c-.863.537-.711,1.357.432,1.879,1.168.552,2.438,1.059,3.682,1.566,1.778.73,1.9,1.073.838,2.177a10.209,10.209,0,0,0-3.2,7.918c.076.954-.711,1.461-2.387,1.476s-3.25.313-4.9.387a3.005,3.005,0,0,0-1.422.507v1.342c1.473.954,3.073.313,4.622.1,1.092-.149,2.159-.388,3.276-.552,1.092-.164,1.879-.03,2.285.7,1.651,2.818,4.647,5.07,8.736,6.814,1.193.507,1.321.969.533,1.76-.914.91-1.828,1.819-2.666,2.758-.584.656-.229,1.267.762,1.551a2.863,2.863,0,0,0,2.794-.492c.736-.895,1.346-1.834,1.981-2.758.736-1.074,1.346-1.267,3.2-.924a38.084,38.084,0,0,0,13.815.045c1.447-.253,2.184-.03,2.692.8.508.805,1.067,1.6,1.549,2.416a3.292,3.292,0,0,0,1.651,1.312h1.143c1.7-.686,1.879-1.059.914-2.147-.736-.835-1.549-1.655-2.311-2.475-.609-.641-.609-1.133.584-1.61,4.317-1.7,7.466-3.981,9.244-6.874.508-.805,1.574-.671,2.59-.507,1.448.239,2.87.552,4.317.82a3.885,3.885,0,0,0,3.2-.432v-1.163A5.4,5.4,0,0,0,568.385,543.959ZM538.8,539.054c2.031.015,3.251.79,3.225,2.028-.025,1.208-1.346,1.923-3.454,1.893-2.057-.03-3.251-.775-3.225-2.028C535.373,539.754,536.693,539.039,538.8,539.054Zm-12.469-6.531a23.659,23.659,0,0,1,9.066-2.55c1.448-.1.635.716.914,1.074-.279,1.61-.533,3.176-.813,4.742-.1.552-.609.775-1.447.447-2.59-1.029-5.13-2.087-7.695-3.116C525.875,532.91,525.926,532.731,526.332,532.523Zm-6.628,8.812a8.907,8.907,0,0,1,2.336-5.636c.355-.388.635-.582,1.321-.179,2.057,1.193,4.165,2.341,6.247,3.519,1.143.656,1.016.969-.508,1.238-2.565.462-5.13.924-7.72,1.387C519.958,541.916,519.7,541.8,519.7,541.335Zm12.062,3.788c-.965,1.476-1.955,2.952-2.895,4.428-.381.611-.889.805-1.828.328a15.466,15.466,0,0,1-5.689-4.414c-.2-.268-.559-.626.331-.7,2.945-.239,5.892-.462,8.609-.686C532.3,544.078,532.376,544.153,531.766,545.122Zm11.58,6.844a34.3,34.3,0,0,1-4.393.373,35.3,35.3,0,0,1-5.13-.447c-.813-.089-1.168-.3-.635-.79,1.574-1.521,3.123-3.042,4.673-4.578a1.031,1.031,0,0,1,1.6.015c1.524,1.536,3,3.1,4.495,4.637C544.337,551.594,544.134,551.907,543.346,551.966Zm-1.193-16.521a19.385,19.385,0,0,1-.559-3.966v-.507c-.051-1.1.051-1.178,1.879-.865a27.54,27.54,0,0,1,7.466,2.281c.838.417,1.067.7-.051,1.1-2.26.82-4.419,1.715-6.628,2.55C542.61,536.668,542.381,536.578,542.153,535.445Zm13.84,10.3a15.9,15.9,0,0,1-5.917,4.309c-.66.283-1.143.418-1.5-.164-1.016-1.64-2.006-3.3-3.047-4.935-.356-.567-.1-.865,1.016-.895,1.3.119,2.641.3,4.013.388,1.6.089,3.174.3,4.749.462C556.2,545.018,556.4,545.271,555.993,545.749Zm-.94-4.071c-2.286-.447-4.546-.91-6.857-1.342-1.143-.209-1.244-.522-.406-.984,2.133-1.193,4.266-2.371,6.374-3.564.736-.4,1.168-.328,1.575.194a7.676,7.676,0,0,1,1.93,4.563C557.821,542.2,557.8,542.215,555.053,541.678Z" transform="translate(-506.27 -521.28)" fill="#020f1e"/>
        </g>
      </g>
    </g>
    <g id="Group_11056" data-name="Group 11056" transform="translate(12108.396 2826.56)">
      <path id="Path_23456-2" data-name="Path 23456" d="M600.61,172.157,561.236,149.43c-2.131-1.25-3.246-2.891-3.246-4.524s1.08-3.274,3.246-4.524l39.375-22.727a17.315,17.315,0,0,1,15.675,0l39.382,22.727c2.131,1.25,3.246,2.883,3.246,4.524s-1.087,3.274-3.246,4.524l-39.382,22.727a17.316,17.316,0,0,1-15.675,0Z" transform="translate(-557.983 -115.78)" fill="#fff" stroke="#020f1e" stroke-width="1"/>
      <path id="Path_23457-2" data-name="Path 23457" d="M655.657,161.3l-39.382,22.727a17.315,17.315,0,0,1-15.675,0L561.226,161.3c-2.131-1.25-3.246-2.891-3.246-4.524v59.559c0,1.641,1.08,3.274,3.246,4.524l39.382,22.72a17.315,17.315,0,0,0,15.675,0l39.382-22.727c2.131-1.25,3.246-2.883,3.246-4.524V156.78C658.9,158.413,657.816,160.054,655.657,161.3Z" transform="translate(-557.98 -127.661)" fill="#fff" stroke="#020f1e" stroke-width="1"/>
      <g id="Left_Eye_copy-2" data-name="Left_Eye_copy" transform="translate(20.847 11.877)">
        <g id="Group_60-2" data-name="Group 60">
          <path id="Path_52-2" data-name="Path 52" d="M562.962,541.979c-1.344-.027-2.619-.272-3.963-.34-.857-.041-1.576-.49-1.437-1.075.6-2.776-.6-5.321-2.8-7.744-.626-.694-.441-1.089.718-1.565,1.321-.531,2.643-1.062,3.894-1.633,1.089-.49,1.159-1.021.44-1.565a2.631,2.631,0,0,0-2.735-.1c-1.251.612-2.434,1.293-3.639,1.946a2.379,2.379,0,0,1-2.572,0,29.567,29.567,0,0,0-11.264-3.334c-1.993-.2-2.016-.3-2.109-1.5-.047-.817.255-1.619.278-2.422a1.366,1.366,0,0,0-.881-1.375H535.08c-.719.327-.927.762-.881,1.279a13.134,13.134,0,0,0,.209,2.5c.278.939-.278,1.334-1.924,1.51a29.7,29.7,0,0,0-10.754,2.967c-1.507.776-1.9.748-3.361-.082-1-.558-1.97-1.143-2.967-1.7a2.9,2.9,0,0,0-2.781-.1c-.788.49-.649,1.238.394,1.715,1.066.5,2.225.966,3.361,1.429,1.622.667,1.738.98.765,1.987a9.318,9.318,0,0,0-2.92,7.226c.07.871-.649,1.334-2.179,1.347s-2.966.286-4.473.354a2.744,2.744,0,0,0-1.3.463v1.225c1.344.871,2.8.286,4.218.1,1-.136,1.97-.354,2.99-.5,1-.15,1.715-.027,2.086.64,1.507,2.572,4.241,4.627,7.973,6.219,1.089.463,1.206.885.487,1.606-.834.83-1.669,1.66-2.434,2.518-.533.6-.209,1.157.7,1.415a2.612,2.612,0,0,0,2.55-.449c.672-.816,1.229-1.674,1.808-2.517.672-.98,1.229-1.157,2.92-.844a34.759,34.759,0,0,0,12.609.041c1.321-.231,1.993-.027,2.457.735.464.735.973,1.456,1.414,2.2a3,3,0,0,0,1.507,1.2h1.043c1.553-.626,1.715-.966.834-1.96-.672-.762-1.414-1.51-2.109-2.259-.556-.585-.556-1.034.533-1.47,3.94-1.551,6.814-3.633,8.437-6.274.463-.735,1.437-.612,2.364-.463,1.321.218,2.619.5,3.94.749a3.546,3.546,0,0,0,2.92-.395v-1.062A4.923,4.923,0,0,0,562.962,541.979Zm-27-4.477c1.854.014,2.967.721,2.944,1.851-.023,1.1-1.228,1.755-3.152,1.728-1.877-.027-2.967-.707-2.943-1.851C532.832,538.141,534.037,537.488,535.96,537.5Zm-11.38-5.961a21.593,21.593,0,0,1,8.275-2.327c1.321-.1.579.653.834.98-.255,1.47-.487,2.9-.742,4.328-.092.5-.556.708-1.321.408-2.364-.939-4.682-1.905-7.023-2.844C524.163,531.895,524.209,531.732,524.58,531.541Zm-6.049,8.043a8.13,8.13,0,0,1,2.132-5.144c.324-.354.58-.531,1.205-.163,1.877,1.089,3.8,2.137,5.7,3.212,1.043.6.927.885-.464,1.13-2.341.422-4.682.844-7.046,1.266C518.763,540.115,518.531,540.006,518.531,539.584Zm11.009,3.457c-.881,1.347-1.785,2.695-2.642,4.042-.347.558-.811.735-1.669.3a14.115,14.115,0,0,1-5.192-4.028c-.185-.245-.51-.572.3-.639,2.688-.218,5.377-.422,7.857-.626C530.027,542.088,530.1,542.156,529.54,543.041Zm10.569,6.246a31.3,31.3,0,0,1-4.01.34,32.2,32.2,0,0,1-4.682-.408c-.742-.082-1.066-.272-.579-.721,1.437-1.388,2.851-2.776,4.265-4.178a.941.941,0,0,1,1.46.013c1.391,1.4,2.735,2.831,4.1,4.232C541.013,548.947,540.828,549.233,540.109,549.287Zm-1.089-15.078a17.7,17.7,0,0,1-.51-3.62v-.463c-.046-1.007.046-1.075,1.715-.789a25.138,25.138,0,0,1,6.814,2.082c.765.381.974.639-.046,1.007-2.063.748-4.033,1.565-6.049,2.327C539.437,535.324,539.228,535.243,539.02,534.208Zm12.632,9.4a14.515,14.515,0,0,1-5.4,3.933c-.6.259-1.043.381-1.368-.15-.927-1.5-1.831-3.007-2.781-4.5-.325-.517-.093-.789.927-.816,1.182.109,2.411.272,3.662.354,1.46.082,2.9.272,4.334.422C551.837,542.945,552.022,543.177,551.651,543.612Zm-.858-3.715c-2.086-.408-4.149-.83-6.258-1.225-1.043-.191-1.135-.476-.371-.9,1.947-1.089,3.894-2.164,5.818-3.253.672-.367,1.066-.3,1.437.177a7.006,7.006,0,0,1,1.761,4.164C553.32,540.373,553.3,540.387,550.794,539.9Z" transform="translate(-506.27 -521.28)" fill="#020f1e"/>
        </g>
      </g>
    </g>
    <g id="Group_11055" data-name="Group 11055" transform="translate(11723.446 2848.921)">
      <path id="Path_23456-3" data-name="Path 23456" d="M612.84,188.334l-50.673-29.248c-2.742-1.609-4.177-3.72-4.177-5.822s1.389-4.214,4.177-5.822l50.673-29.248a22.284,22.284,0,0,1,20.172,0l50.682,29.248c2.742,1.609,4.177,3.711,4.177,5.822s-1.4,4.214-4.177,5.822l-50.682,29.248a22.284,22.284,0,0,1-20.172,0Z" transform="translate(-557.981 -115.78)" fill="#fff" stroke="#020f1e" stroke-width="1"/>
      <path id="Path_23457-3" data-name="Path 23457" d="M683.684,162.6,633,191.851a22.284,22.284,0,0,1-20.172,0L562.157,162.6c-2.742-1.609-4.177-3.72-4.177-5.822v76.649c0,2.111,1.389,4.214,4.177,5.822l50.682,29.239a22.283,22.283,0,0,0,20.172,0l50.682-29.248c2.742-1.609,4.177-3.711,4.177-5.822V156.78C687.861,158.882,686.462,160.994,683.684,162.6Z" transform="translate(-557.98 -119.306)" fill="#fff" stroke="#020f1e" stroke-width="1"/>
      <g id="Left_Eye_copy-3" data-name="Left_Eye_copy" transform="translate(26.829 15.285)">
        <g id="Group_60-3" data-name="Group 60">
          <path id="Path_52-3" data-name="Path 52" d="M579.229,547.918c-1.73-.035-3.37-.35-5.1-.438-1.1-.052-2.028-.63-1.849-1.383.776-3.573-.775-6.848-3.609-9.965-.806-.893-.567-1.4.924-2.014,1.7-.683,3.4-1.366,5.011-2.1,1.4-.631,1.492-1.314.567-2.014a3.385,3.385,0,0,0-3.52-.123c-1.61.788-3.132,1.664-4.683,2.5a3.061,3.061,0,0,1-3.31,0,38.05,38.05,0,0,0-14.5-4.291c-2.565-.262-2.595-.385-2.714-1.927-.06-1.051.328-2.084.358-3.117a1.757,1.757,0,0,0-1.134-1.769h-2.326c-.925.42-1.193.981-1.133,1.646a16.9,16.9,0,0,0,.268,3.223c.358,1.209-.358,1.716-2.476,1.944a38.219,38.219,0,0,0-13.84,3.818c-1.939,1-2.446.963-4.325-.1-1.283-.718-2.536-1.471-3.818-2.189a3.73,3.73,0,0,0-3.579-.123c-1.014.631-.835,1.594.507,2.207,1.372.648,2.863,1.244,4.325,1.839,2.088.858,2.237,1.261.984,2.557q-4.116,4.335-3.758,9.3c.09,1.121-.835,1.716-2.8,1.734s-3.818.368-5.757.455a3.53,3.53,0,0,0-1.67.6v1.576c1.73,1.121,3.609.368,5.429.123,1.283-.175,2.535-.455,3.848-.648,1.283-.193,2.208-.035,2.684.823,1.939,3.31,5.459,5.955,10.261,8,1.4.6,1.551,1.138.627,2.067-1.074,1.068-2.147,2.137-3.132,3.24-.686.771-.268,1.489.895,1.821,1.223.35,2.714.14,3.281-.578.865-1.051,1.581-2.154,2.327-3.24.865-1.261,1.581-1.489,3.758-1.086a44.734,44.734,0,0,0,16.227.053c1.7-.3,2.565-.035,3.162.945.6.946,1.253,1.874,1.819,2.837a3.866,3.866,0,0,0,1.939,1.541h1.342c2-.806,2.207-1.244,1.074-2.522-.865-.981-1.82-1.944-2.714-2.907-.715-.753-.715-1.331.686-1.892,5.071-2,8.769-4.676,10.857-8.074.6-.946,1.849-.788,3.042-.6,1.7.28,3.371.648,5.071.963a4.563,4.563,0,0,0,3.758-.508v-1.366A6.334,6.334,0,0,0,579.229,547.918Zm-34.749-5.762c2.386.018,3.818.928,3.788,2.382-.03,1.418-1.581,2.259-4.056,2.224-2.416-.035-3.818-.91-3.788-2.382C540.453,542.98,542,542.139,544.479,542.156Zm-14.646-7.671a27.79,27.79,0,0,1,10.649-3c1.7-.123.746.841,1.074,1.261-.328,1.891-.626,3.73-.955,5.569-.119.648-.716.911-1.7.525-3.043-1.208-6.025-2.452-9.038-3.66C529.3,534.941,529.357,534.731,529.834,534.485Zm-7.785,10.35a10.462,10.462,0,0,1,2.744-6.62c.417-.455.746-.683,1.551-.21,2.416,1.4,4.892,2.75,7.338,4.133,1.343.771,1.193,1.139-.6,1.454-3.013.543-6.025,1.086-9.067,1.629C522.347,545.519,522.049,545.379,522.049,544.836Zm14.168,4.449c-1.133,1.734-2.3,3.468-3.4,5.2-.447.718-1.044.946-2.147.385a18.165,18.165,0,0,1-6.682-5.184c-.239-.315-.656-.736.388-.823,3.46-.28,6.92-.543,10.111-.806C536.844,548.059,536.933,548.146,536.217,549.284Zm13.6,8.039a40.285,40.285,0,0,1-5.16.438,41.461,41.461,0,0,1-6.025-.525c-.954-.105-1.372-.35-.745-.928,1.849-1.786,3.668-3.573,5.488-5.377a1.211,1.211,0,0,1,1.879.017c1.79,1.8,3.52,3.643,5.28,5.447C550.982,556.885,550.744,557.253,549.819,557.323Zm-1.4-19.405a22.769,22.769,0,0,1-.656-4.659v-.6c-.06-1.3.06-1.383,2.207-1.016a32.346,32.346,0,0,1,8.769,2.68c.984.49,1.253.823-.06,1.3-2.654.963-5.19,2.014-7.785,2.995C548.954,539.354,548.685,539.249,548.417,537.918Zm16.256,12.1a18.681,18.681,0,0,1-6.95,5.062c-.776.333-1.342.49-1.76-.193-1.193-1.927-2.356-3.87-3.579-5.8-.418-.666-.119-1.016,1.193-1.051,1.521.14,3.1.35,4.713.455,1.879.105,3.728.35,5.578.543C564.911,549.162,565.15,549.46,564.673,550.02Zm-1.1-4.781c-2.685-.525-5.339-1.068-8.054-1.576-1.342-.245-1.461-.613-.477-1.156,2.505-1.4,5.011-2.785,7.487-4.186.865-.473,1.372-.385,1.849.228a9.016,9.016,0,0,1,2.267,5.359C566.821,545.852,566.791,545.869,563.569,545.239Z" transform="translate(-506.27 -521.28)" fill="#020f1e"/>
        </g>
      </g>
    </g>
    <g id="Group_11053" data-name="Group 11053" transform="translate(11661.059 3070.064)">
      <g id="Group_11036" data-name="Group 11036" transform="translate(302.51)">
        <g id="artificial-intelligence-network" transform="translate(0 13.523)">
          <path id="Path_47025" data-name="Path 47025" d="M1065.914,517.218v.487a8.357,8.357,0,0,1-4.221,6.314l-22.31,12.489-88.932,51.14a17.953,17.953,0,0,1-10.156,2.363,18.5,18.5,0,0,1-7.811-2.345l-20.077-11.473-69.684-39.83L824.54,525.955a10.764,10.764,0,0,1-5.448-8.839c-.253-3.914,0-37.083,0-37.083L927.65,447.72a26.165,26.165,0,0,1,26.066-.036l34.364,19.644,77.422,13.851S1066.095,514.115,1065.914,517.218Z" transform="translate(-736.493 -371.625)" fill="#fff" stroke="#020f1e" stroke-linecap="round" stroke-linejoin="round" stroke-width="3"/>
          <path id="Path_46971" data-name="Path 46971" d="M1751.022,407.539l13.042-8.208a7.146,7.146,0,0,1,7.648,0l15.928,9.994a8.259,8.259,0,0,0,8.406.216l29.836-16.65m-91.006,5.628,28.3-16.415a7.168,7.168,0,0,1,7.216,0l14.539,8.46a8.272,8.272,0,0,0,8.46-.09l17.173-10.463M1702.659,382l27.491-15.658a3.875,3.875,0,0,0,.2-6.6l-9.506-6.223a4.691,4.691,0,0,1,.18-7.955l16.957-9.994m-50.78,34.725,17.1-9.669a3.861,3.861,0,0,0,.054-6.692l-10.787-6.332a4.685,4.685,0,0,1,0-8.081l28.321-16.614" transform="translate(-1447.057 -311.788)" fill="none" stroke="#020f1e" stroke-linecap="round" stroke-linejoin="round" stroke-width="3"/>
          <ellipse id="Ellipse_1831" data-name="Ellipse 1831" cx="8.532" cy="6.765" rx="8.532" ry="6.765" transform="translate(376.026 69.247)" fill="none" stroke="#020f1e" stroke-linecap="round" stroke-linejoin="round" stroke-width="3"/>
          <ellipse id="Ellipse_1832" data-name="Ellipse 1832" cx="8.532" cy="6.765" rx="8.532" ry="6.765" transform="translate(360.698 56.263)" fill="none" stroke="#020f1e" stroke-linecap="round" stroke-linejoin="round" stroke-width="3"/>
          <ellipse id="Ellipse_1833" data-name="Ellipse 1833" cx="8.532" cy="6.765" rx="8.532" ry="6.765" transform="translate(289.304 12.307)" fill="none" stroke="#020f1e" stroke-linecap="round" stroke-linejoin="round" stroke-width="3"/>
          <ellipse id="Ellipse_1834" data-name="Ellipse 1834" cx="8.532" cy="6.765" rx="8.532" ry="6.765" transform="translate(273.281 0)" fill="none" stroke="#020f1e" stroke-linecap="round" stroke-linejoin="round" stroke-width="3"/>
          <path id="Path_46972" data-name="Path 46972" d="M626.962,407.457l-12.339-7.775a8.473,8.473,0,0,0-9.037,0l-15.243,9.561a8.258,8.258,0,0,1-8.406.216L552.1,392.809m91.006,5.628-26.67-17.968a8.488,8.488,0,0,0-8.532,0L594,388.55a8.281,8.281,0,0,1-8.442-.09l-17.173-10.481m106.943,3.934L647.4,366.021a3.556,3.556,0,0,1-.18-6.079l10.12-6.62a4.523,4.523,0,0,0-.18-7.685l-17.173-10.12m50.78,34.689-17.552-9.921a3.573,3.573,0,0,1-.054-6.187l11.455-6.728a4.532,4.532,0,0,0,0-7.811L656.058,322.8" transform="translate(-516.717 -311.706)" fill="none" stroke="#020f1e" stroke-linecap="round" stroke-linejoin="round" stroke-width="3"/>
          <ellipse id="Ellipse_1835" data-name="Ellipse 1835" cx="8.532" cy="6.765" rx="8.532" ry="6.765" transform="translate(21.814 68.9)" fill="none" stroke="#020f1e" stroke-linecap="round" stroke-linejoin="round" stroke-width="3"/>
          <ellipse id="Ellipse_1836" data-name="Ellipse 1836" cx="8.532" cy="6.765" rx="8.532" ry="6.765" transform="translate(37.414 54.332)" fill="none" stroke="#020f1e" stroke-linecap="round" stroke-linejoin="round" stroke-width="3"/>
          <ellipse id="Ellipse_1837" data-name="Ellipse 1837" cx="8.532" cy="6.765" rx="8.532" ry="6.765" transform="translate(108.189 12.307)" fill="none" stroke="#020f1e" stroke-linecap="round" stroke-linejoin="round" stroke-width="3"/>
          <ellipse id="Ellipse_1838" data-name="Ellipse 1838" cx="8.532" cy="6.765" rx="8.532" ry="6.765" transform="translate(123.864 0)" fill="none" stroke="#020f1e" stroke-linecap="round" stroke-linejoin="round" stroke-width="3"/>
          <path id="Path_46982" data-name="Path 46982" d="M1712.6,1192.185l26.716,15.351-25.164,14.792,33.065,19.843m40.009-92.271,22.621,12.916a8.347,8.347,0,0,0,8.027.126l11.094-5.862a9.922,9.922,0,0,1,9.813.288l33.769,20.42" transform="translate(-1474.944 -989.606)" fill="none" stroke="#020f1e" stroke-linecap="round" stroke-linejoin="round" stroke-width="3"/>
          <path id="Path_46983" data-name="Path 46983" d="M1797.6,1231.677l43.925,25.561-26.932,14.269,18.6,10.444m-2.2-68.051,34.6,20.438a8.313,8.313,0,0,0,8.081.216l13.385-7a8.49,8.49,0,0,1,8.46.325l21.809,13.6" transform="translate(-1537.541 -1042.061)" fill="none" stroke="#020f1e" stroke-linecap="round" stroke-linejoin="round" stroke-width="3"/>
          <ellipse id="Ellipse_1839" data-name="Ellipse 1839" cx="8.532" cy="6.765" rx="8.532" ry="6.765" transform="translate(395.684 185.95)" fill="none" stroke="#020f1e" stroke-linecap="round" stroke-linejoin="round" stroke-width="3"/>
          <ellipse id="Ellipse_1840" data-name="Ellipse 1840" cx="8.532" cy="6.765" rx="8.532" ry="6.765" transform="translate(376.504 198.361)" fill="none" stroke="#020f1e" stroke-linecap="round" stroke-linejoin="round" stroke-width="3"/>
          <ellipse id="Ellipse_1841" data-name="Ellipse 1841" cx="8.532" cy="6.765" rx="8.532" ry="6.765" transform="translate(293.349 237.717)" fill="none" stroke="#020f1e" stroke-linecap="round" stroke-linejoin="round" stroke-width="3"/>
          <ellipse id="Ellipse_1842" data-name="Ellipse 1842" cx="8.532" cy="6.765" rx="8.532" ry="6.765" transform="translate(271.11 250.22)" fill="none" stroke="#020f1e" stroke-linecap="round" stroke-linejoin="round" stroke-width="3"/>
          <path id="Path_46984" data-name="Path 46984" d="M591.238,1195.653l-21.863,12.573a3.242,3.242,0,0,0-.018,5.61l14.107,8.28a4.3,4.3,0,0,1,.036,7.4l-26.86,16.109M525.306,1155.3l-22.531,12.862a8.556,8.556,0,0,1-8.208.144l-12.176-6.44a7.591,7.591,0,0,0-7.486.216L440,1183.206m133.831,0-37.25,21.683a4.3,4.3,0,0,0,.144,7.522l14.846,7.847a3.247,3.247,0,0,1,.072,5.7l-13.421,7.54m5.917-66.654-34.49,20.384a8.508,8.508,0,0,1-8.28.217l-13.764-7.18a7.6,7.6,0,0,0-7.54.289l-22.278,13.89" transform="translate(-424.838 -994.032)" fill="none" stroke="#020f1e" stroke-linecap="round" stroke-linejoin="round" stroke-width="3"/>
          <ellipse id="Ellipse_1843" data-name="Ellipse 1843" cx="8.532" cy="6.765" rx="8.532" ry="6.765" transform="translate(0 186.906)" fill="none" stroke="#020f1e" stroke-linecap="round" stroke-linejoin="round" stroke-width="3"/>
          <ellipse id="Ellipse_1844" data-name="Ellipse 1844" cx="8.532" cy="6.765" rx="8.532" ry="6.765" transform="translate(18.833 198.988)" fill="none" stroke="#020f1e" stroke-linecap="round" stroke-linejoin="round" stroke-width="3"/>
          <ellipse id="Ellipse_1845" data-name="Ellipse 1845" cx="8.532" cy="6.765" rx="8.532" ry="6.765" transform="translate(97.672 236.31)" fill="none" stroke="#020f1e" stroke-linecap="round" stroke-linejoin="round" stroke-width="3"/>
          <ellipse id="Ellipse_1846" data-name="Ellipse 1846" cx="8.532" cy="6.765" rx="8.532" ry="6.765" transform="translate(116.847 249.262)" fill="none" stroke="#020f1e" stroke-linecap="round" stroke-linejoin="round" stroke-width="3"/>
          <path id="Path_47024" data-name="Path 47024" d="M1065.453,517.134v.487a8.357,8.357,0,0,1-4.221,6.314l-21.845,12.573-88.932,51.14a17.953,17.953,0,0,1-10.156,2.363,18.5,18.5,0,0,1-7.811-2.345l-20.077-11.473-69.684-39.83-18.183-10.408a10.952,10.952,0,0,1,0-18.959L927.654,447.72a26.165,26.165,0,0,1,26.066-.036l34.364,19.644,73.094,41.778A8.558,8.558,0,0,1,1065.453,517.134Z" transform="translate(-736.496 -406.398)" fill="#fff" stroke="#020f1e" stroke-linecap="round" stroke-linejoin="round" stroke-width="3"/>
          <path id="Path_47002" data-name="Path 47002" d="M1157.439,620.777l-29.313,16.848-62.379,35.843-2.255,1.3a2.235,2.235,0,0,1-1.227.325h-.216a2.7,2.7,0,0,1-1.064-.379l-73.707-42.139-21.178-12.1,21.178-12.176,68.656-39.487a11.044,11.044,0,0,1,5.285-1.407,10.334,10.334,0,0,1,5.177,1.407l15.026,8.587,46.685,26.68Z" transform="translate(-856.035 -512.183)" fill="none" stroke="#020f1e" stroke-linecap="round" stroke-linejoin="round" stroke-width="3"/>
          <path id="Path_47001" data-name="Path 47001" d="M1314.4,779.589l8.406,9.813-5.448,3.5L1291,761.46l6.35-4.095,54.117,13.565-5.628,3.626-16.993-4.275Zm9.308-10.878-15.568-3.914c-3.536-.884-6.53-1.84-9.452-2.742l-.126.072c1.786,1.732,3.554,3.518,5.213,5.394l7.631,9.092Zm1.858-29.512,40.209,22.531-5.267,3.391L1320.3,742.591Z" transform="translate(-1122.327 -652.992)" fill="#020f1e"/>
        </g>
        <g id="Group_11048" data-name="Group 11048" transform="translate(134.261)">
          <path id="Path_46837" data-name="Path 46837" d="M723.96,380.709c3.456-6.607,15.389-15.087,27.125-11.625,7.275,2.147,7.5,4.84,7.442,5.445,5.184-2.963,19.922-6.811,22.654,10.621,7.007-.688,18.938,3.028,18.381,19.754,5.239,3.235,14.58,13.815,9.684,28.31,5.353,1.985,4.7,14.956-3.441,22.316s-8.139,9.587-18.567,8.306S723.96,380.709,723.96,380.709Z" transform="translate(-669.581 -368.283)" fill="#7d42fb"/>
          <path id="Path_46838" data-name="Path 46838" d="M794.53,468.641c-4.35,1.462-4.935-4.142-3.512-4.809,3.149-1.483,8.341-6.253,7.442-7.192-.47-.491-5.729,4.893-7.4,4.556s-2.3-3.428-2.747-8.055-2.02-7.066-2.467-9.465.391-3.679,3.578-7.109c5.06-5.444,12.381-4.223,10.919-6.02-1.8-2.21-10.919.71-14.929,6.145-1.737,2.357-3.052,3.143-4.12-.458-2.683-9.069-8.981-11.9-9.177-13.925-.792-8.178,9.033-11.792,7.61-12.712s-6.944,4.1-8.114,5.518-3.511,3.931-4.933-1.044-7.234-10.455-8.321-11.332-2.844-2.383-.961-5.269,5.9-4.223,4.683-5.143-7.359,4.056-9.744,5.269-3.011-2.257-6.573-4.057-4.021-2.326-3.13-4.725,4.351-2.844,2.677-3.8-7.971,4.131-11.931,1.9-2.01-6.291-.688-7.9a24.087,24.087,0,0,0-8.733,8.622s52.853,81.846,63.279,83.128,10.428-.945,18.567-8.306a21.457,21.457,0,0,0,6.139-10.018,32.665,32.665,0,0,1-17.414,16.193Zm1.351-22.045c.5,1.874,7.639-.354,10.316-2.307,2.627-1.915,4.417-3.018,5.677-1.389a4.807,4.807,0,0,0-2.628-2.75,23.587,23.587,0,0,0-.582-17.379c.543,2.79,1.479,10.631-2.467,16.277-4.014,5.743-10.816,5.669-10.315,7.547Zm1.8-29.811a4.929,4.929,0,0,1,6.2-1.29,21.715,21.715,0,0,0-4.322-3.654,24.1,24.1,0,0,0-1.533-9.934c-1.3.084,1.393,4.592-.252,8.431-2.677,6.243-9.923,10.034-8.585,11.262s6.831-2.938,8.489-4.813Zm-21.146-20.053c-1.2,2.119-7.331,6.775-5.436,8.084s6.94-3.985,8.058-5.687,2.174-6.858,6.327-6.913a17.641,17.641,0,0,0-4.3-.129,18.875,18.875,0,0,0-3.292-8.62c-1.3-.95-2.4,1.2-1.6,4.736.863,3.819,1.448,6.411.25,8.53Zm-14.578-14.9c2.291-1.168,8.44-3.195,12.558-1.354-5.485-3.146-12.68-.9-15.988.986,0,1.748-5.6,6.766-4.475,7.35S759.656,383,761.957,381.832Z" transform="translate(-669.581 -375.217)" fill="#fff"/>
          <path id="Path_46839" data-name="Path 46839" d="M635.649,404.665c-3.54-7.04-24.825-12.474-35.195-3.36-4.1-2.676-14.3-.668-20.907,16.559-8.866,4.182-16.992,19.33-8.755,36.354,4.131,8.534,11.708,11.484,17.507,14.16.781,6.244,6.579,22.637,29.774,18.733,2.787,5.129,15.5,12.712,27.319,2.453,11.78,5.09,33.414,6.162,40.477-6.466,3.679-6.58-1.246-9.7-2.137-9.593,1.672-3.01,1.606-16.252-4.416-18.925.46-4.585-4.625-17.506-13.964-18.984.167-5.1-5.465-22.027-16.838-22.413-1.938-4.141-5.393-8.516-12.865-8.516Z" transform="translate(-567.374 -386.705)" fill="#7d42fb"/>
          <path id="Path_46840" data-name="Path 46840" d="M702.73,478.508c-1.239,6.576-11.779,11.082-20.241,12.131-8.246,1.021-17.2-.667-16.686-4.475l-.014.063c.095-.793.206-1.452.28-1.825.281-1.422-.78-4.1,6.327-5.6s11.791-6.4,13.383-8.028,1.4-4.277-1.589-1.673a33.508,33.508,0,0,1-18.122,7.777,10.13,10.13,0,0,1-8.475-3.6c-2-2.592-.5-9.534,2.427-11.05a29.149,29.149,0,0,0,9.2-7.707c3.363-4.224,8.029-3.906,7.359-5.411s-7.024.67-9.224,4c-1.785,2.709-5.346,3.869-7.75,5.593,0-.008,0-.019,0-.026-4.621,1.9-8.258-1.125-10.434-5.25s4.046-5.685,7.36-11.544c1.623-2.869,4.573-8.417,4.97-11.929s-1.792-2.007-2.293-.056-4.794,9.532-6.411,11.708-6.8,7.3-13.994,4.293-2.341-10.7-.893-15.166,1.952-10.2.671-10.425-1.649,7.032-2.764,9.279c-1.859,3.746-3.313,7-9.446,9.288s-9.424,0-11.764-1.1-1.339-5.924-5.243-9.49-9.2-2.844-12.712-.5-6.138,7.7-5.036,18.025c1.307,12.237,9.177,14.587,10.448,15.453-1.87,2.482-3.947,4.3-6.314,4.216a73.845,73.845,0,0,0,8.206,4.123c.754,6.03,6.193,21.519,27.453,19.058l.112-.009c.719-.085,1.454-.189,2.209-.316a12.4,12.4,0,0,0,3.342,3.648l0,.008c.113.087.231.171.348.257.049.036.1.073.147.108q.5.354,1.015.674l.084.053c.375.231.767.451,1.172.663l.046.022q.618.319,1.257.594l.017.007h0c5.4,2.306,12.8,2.575,19.9-3.58q.534.23,1.095.45v0c.761.3,1.559.578,2.385.84v.007c.159.051.324.1.483.146l.265.081c12.15,3.636,29.964,3.249,36.249-7.988a8.186,8.186,0,0,0,1.2-5.809Zm-99.3-19.209c-6.827-6.2-8.262-10.678-9.056-14.957-.473-2.538-1.24-9.046,2.257-13.212,4.041-4.814,9.254-3.942,11.791.052,1.67,2.624,2.592,8.728,4.266,9.084s5.018,1.483,4.011,3.124v0a28.523,28.523,0,0,0-6.912,5.691.068.068,0,0,0,0-.012c-2.9-5.22-9.142-10.527-9.978-8.687-.572,1.257,9.033,8.419,7.258,12.73l0,0c-1.131,1.948-2.333,4.163-3.642,6.189Zm58.89,28.66c-7.151,8.949-23.539,3.032-23.539-6.987,0-8.786-4.265-12.936-5.868-12.714s3.508,5.6,3.5,11.933a7.468,7.468,0,0,1-1.353,4.023c-1.368,1.332-12.721,3.5-19.561-1.168a29.377,29.377,0,0,1-11.361-15.389,40.558,40.558,0,0,1,6.293-14.954c3.134-4.73,7.739-7.469,9.777-9.1a.31.31,0,0,0,.027-.016c2.888-2.142,10.519-5.267,11.107-1.7s5.015,6.737,9.031,8.142c3.078,1.077,5.769,1.338,6.1,7.193s-6.439,2.091-7.61,1.254-7.192-4.6-12.8-1.954-7.526,9.4-6.665,14.69c.911,5.6,5.913,8.339,6.749,7.67s-3.344-3.68-3.849-9.366c-.361-4.113,4.6-8.029,9.034-8.615s10.207,2.594,10.786,5.269.252,10.622,1.507,10.622,1.308-7.193,2.341-11.7c.724-3.157,2.928-3.439,4.015-3.355s5.518.919,5.006,3.355v0a22.755,22.755,0,0,0-1.187,4.927c-.783,5.437,4.282,6.6,7.166,9.61C662.451,481.17,662.9,485.074,662.316,487.96Zm9.679-25.778c-2.771,3.4-.741,3.96,0,3.177a81.3,81.3,0,0,1,7.9-7.412c4.57-3.793,12.377-3.459,15.078-2.148a16.857,16.857,0,0,0-1.568-7.166c-.436,3.641-5.181,3.164-9.608,4.573-6.05,1.923-9.033,5.576-11.8,8.975Zm-25.941-34.009c-1.117,6.355.564,1.554,4.962-4.4,4.9-6.635,9.5-7.974,13.158-9.366a18.193,18.193,0,0,0-2.286-3.744c.141,2.519-3.353,2.875-5.129,3.954-2.934,1.783-9.2,5-10.7,13.559Zm48.617,47.169c-3.415,3.6-11.651,5.018-10.648,7.078s10.175-3.652,11.542-4.627,5.063-1.838,6.45-1.032a4.072,4.072,0,0,0-2.622-2.036c1.033-1.858,1.4-7.614.112-12.379.615,3.207.294,7.59-4.833,13Zm-32.058-34.236c-2.231,2.509-2.469,6.342,1.06,2.233a18.93,18.93,0,0,1,17.339-6.524,23.319,23.319,0,0,0-1.637-7.638c.534,3.831-1.544,4.293-5.723,4.962S664.843,438.6,662.612,441.107Zm-40.366-9.979c1.784-.111,2.517-12.621,13.1-19.626,4.727-3.128,11.583-5.616,15.959-5.616a10.31,10.31,0,0,0-3.707-3.726c.78,1.947-9.564,3.559-17.313,10.111s-9.825,18.969-8.041,18.857Zm-17.116-11.31c.762-1.124-1.129-5.186-7.823-5.487a50.566,50.566,0,0,0-2.1,4.754C600.28,416.854,604.295,421.049,605.13,419.818Zm12.782-.064c2.257.668,4.767-4.14,4.265-10.412-.5-6.256-.426-9.561,2.566-10.965a19.163,19.163,0,0,0-8.629,4.149C621.132,409.008,615.654,419.085,617.912,419.755Z" transform="translate(-583.033 -387.926)" fill="#fff"/>
        </g>
      </g>
      <g id="Group_11047" data-name="Group 11047" transform="translate(0 241.486)">
        <g id="Group_11044" data-name="Group 11044">
          <g id="Path_47014" data-name="Path 47014" transform="translate(0 0)" fill="#fff">
            <path d="M 65.66825103759766 105.1052856445312 L 39.93700790405273 105.1052856445312 C 37.13326263427734 105.1052856445312 34.39824676513672 104.5612564086914 31.80794143676758 103.4883117675781 C 29.21762275695801 102.4153594970703 26.89899444580078 100.8661117553711 24.91646194458008 98.88356018066406 L 6.721714973449707 80.68880462646484 C 4.739168643951416 78.70626831054688 3.189915180206299 76.38764190673828 2.116968631744385 73.79732513427734 C 1.044021844863892 71.20700073242188 0.4999952018260956 68.47199249267578 0.4999952018260956 65.66825866699219 L 0.5000085234642029 39.93700408935547 C 0.5000085234642029 37.13327026367188 1.044035196304321 34.39825439453125 2.116981744766235 31.80793571472168 C 3.189915180206299 29.21761703491211 4.739181995391846 26.89898872375488 6.721728324890137 24.91645622253418 L 24.91646194458008 6.721722602844238 C 26.89900779724121 4.739176273345947 29.21764945983887 3.1899094581604 31.80795478820801 2.116976261138916 C 34.39827346801758 1.044029474258423 37.1332893371582 0.5000028014183044 39.93703460693359 0.5000028014183044 L 65.66825866699219 0.5000161528587341 C 68.47199249267578 0.5000161528587341 71.20700836181641 1.044042825698853 73.79732513427734 2.116989374160767 C 76.38763427734375 3.18992280960083 78.70626068115234 4.739176273345947 80.68881225585938 6.721722602844238 L 98.883544921875 24.91646957397461 C 100.8661041259766 26.89900207519531 102.4153518676758 29.21763038635254 103.4883041381836 31.80794906616211 C 104.5612487792969 34.39825439453125 105.1052780151367 37.13327026367188 105.1052780151367 39.93701553344727 L 105.1052627563477 65.66826629638672 C 105.1052627563477 68.47201538085938 104.5612335205078 71.20703125 103.4883041381836 73.79733276367188 C 102.4153518676758 76.38765716552734 100.8660888671875 78.70628356933594 98.88355255126953 80.68881988525391 L 80.68879699707031 98.88359069824219 C 78.70626068115234 100.8661193847656 76.38761901855469 102.4153747558594 73.79731750488281 103.4883117675781 C 71.20699310302734 104.5612564086914 68.47198486328125 105.1052856445312 65.66825103759766 105.1052856445312 Z" stroke="none"/>
            <path d="M 39.93701934814453 0 L 39.93701934814453 1 C 37.19927978515625 1 34.52864837646484 1.531227111816406 31.99930572509766 2.578910827636719 C 29.46996307373047 3.626602172851562 27.20590972900391 5.139389038085938 25.27001953125 7.07525634765625 L 7.075263977050781 25.26999664306641 C 5.139389038085938 27.20588684082031 3.626609802246094 29.46992492675781 2.57891845703125 31.99927520751953 C 1.531234741210938 34.52861785888672 1.000007629394531 37.19925689697266 1.000007629394531 39.93699645996094 L 0.9999923706054688 65.66825866699219 C 0.9999923706054688 68.40599822998047 1.531219482421875 71.07662963867188 2.578903198242188 73.60597229003906 C 3.626594543457031 76.13531494140625 5.139381408691406 78.39936828613281 7.075248718261719 80.33525848388672 L 25.26998901367188 98.53001403808594 C 27.20587921142578 100.4658889770508 29.46993255615234 101.9786682128906 31.99927520751953 103.0263748168945 C 34.52861785888672 104.0740585327148 37.19926452636719 104.6052703857422 39.93700408935547 104.6052703857422 L 65.66825103759766 104.6052703857422 C 68.40599060058594 104.6052703857422 71.07662200927734 104.0740585327148 73.60596466064453 103.0263748168945 C 76.13530731201172 101.9786834716797 78.39937591552734 100.4658889770508 80.33526611328125 98.530029296875 L 98.53000640869141 80.33527374267578 C 100.4658813476562 78.39938354492188 101.9786605834961 76.13533020019531 103.0263671875 73.60598754882812 C 104.0740509033203 71.07664489746094 104.6052627563477 68.40601348876953 104.6052627563477 65.66827392578125 L 104.6052627563477 39.93701171875 C 104.6052627563477 37.19927215576172 104.0740509033203 34.52864074707031 103.0263671875 31.99929809570312 C 101.9786605834961 29.46995544433594 100.4658813476562 27.20590209960938 98.53000640869141 25.27001190185547 L 80.33526611328125 7.075271606445312 C 78.39936828613281 5.139396667480469 76.13530731201172 3.626617431640625 73.60597991943359 2.578926086425781 C 71.07662963867188 1.531242370605469 68.40599060058594 1.000015258789062 65.66825866699219 1.000015258789062 L 39.93701934814453 1 L 39.93701934814453 0 M 39.93701934814453 0 L 65.66825866699219 1.52587890625e-05 C 71.43466186523438 1.52587890625e-05 76.96487426757812 2.29071044921875 81.04236602783203 6.368156433105469 L 99.23710632324219 24.56291198730469 C 103.3145751953125 28.64038848876953 105.6052627563477 34.17061614990234 105.6052627563477 39.93701171875 L 105.6052627563477 65.66827392578125 C 105.6052627563477 71.43466949462891 103.3145751953125 76.96489715576172 99.23710632324219 81.04237365722656 L 81.04236602783203 99.23712921142578 C 76.96487426757812 103.314582824707 71.43464660644531 105.6052703857422 65.66825103759766 105.6052703857422 L 39.93700408935547 105.6052703857422 C 34.17059326171875 105.6052703857422 28.64036560058594 103.314582824707 24.56288909912109 99.23711395263672 L 6.368148803710938 81.0423583984375 C 2.290695190429688 76.96488952636719 -7.62939453125e-06 71.43466186523438 -7.62939453125e-06 65.66825866699219 L 7.62939453125e-06 39.93699645996094 C 7.62939453125e-06 34.17058563232422 2.290702819824219 28.64035797119141 6.3681640625 24.56289672851562 L 24.56291961669922 6.368156433105469 C 28.64039611816406 2.290702819824219 34.17060852050781 0 39.93701934814453 0 Z" stroke="none" fill="#020f1e"/>
          </g>
          <g id="AppArmor_logo" transform="translate(32.843 23.787)">
            <path id="Path_47003" data-name="Path 47003" d="M34.459,6C27.306,9.789,20.153,11.336,13,12.776V41.014c0,7.906,11.591,18.7,21.459,23.715,9.867-5.011,21.459-15.809,21.459-23.715V12.776C48.765,11.336,41.612,9.789,34.459,6Z" transform="translate(-13 -6)" fill="url(#linear-gradient)"/>
            <path id="Path_47004" data-name="Path 47004" d="M13,36v1.129c0,7.906,11.591,18.7,21.459,23.715,9.867-5.011,21.459-15.809,21.459-23.715V36c0,7.906-11.591,18.7-21.459,23.715C24.591,54.706,13,43.908,13,36Z" transform="translate(-13 -2.118)" fill="#292c2f" opacity="0.2"/>
            <path id="Path_47005" data-name="Path 47005" d="M51.4,14,21.7,50.485l12.66,12.66c9.629-5.212,20.437-15.53,20.437-23.166V17.388Z" transform="translate(-11.875 -4.965)" opacity="0.2" fill="url(#linear-gradient-2)"/>
            <path id="Path_47006" data-name="Path 47006" d="M43.1,12.35l-19.9,39.8a45.59,45.59,0,0,0,9.931,7.242c8.349-4.24,18.071-13.64,18.071-20.329V14.214c-2.714-.547-5.409-1.137-8.1-1.864Z" transform="translate(-11.679 -5.178)" fill="url(#linear-gradient-3)"/>
            <path id="Path_47007" data-name="Path 47007" d="M34.071,9C28.018,12.206,22.052,13.428,16,14.647V39.494c0,3.987,3.582,8.841,8.14,13.087l19.9-39.8A46.945,46.945,0,0,1,34.071,9Z" transform="translate(-12.612 -5.612)" fill="url(#linear-gradient-4)"/>
            <path id="Path_47008" data-name="Path 47008" d="M25.035,14,16,32.071,39.645,55.715a48.066,48.066,0,0,0,4.926-4.11l-1.465-1.465L35.2,34.329Z" transform="translate(-12.612 -4.965)" opacity="0.2" fill="url(#linear-gradient-5)"/>
            <path id="Path_47009" data-name="Path 47009" d="M28,14,41.553,50.141l9.035-18.071H46.071Z" transform="translate(-11.059 -4.965)" opacity="0.2" fill="url(#linear-gradient-6)"/>
            <g id="Group_11043" data-name="Group 11043" transform="translate(3.388 9.035)">
              <path id="Path_47010" data-name="Path 47010" d="M24,14,42.071,50.141l9.035-18.071H46.588l-1.129,2.259H38.682L28.518,14ZM39.812,36.588h4.518l-2.259,4.518Z" transform="translate(-14.965 -14)" fill="url(#linear-gradient-7)"/>
              <path id="Path_47011" data-name="Path 47011" d="M25.035,14,16,32.071h4.518l1.129-2.259h6.776l9.6,19.2h4.518Zm0,9.035,2.259,4.518H22.776Z" transform="translate(-16 -14)" fill="url(#linear-gradient-8)"/>
              <path id="Path_47012" data-name="Path 47012" d="M32,38l4.518,9.035h4.518L36.518,38Z" transform="translate(-13.929 -10.894)" fill="url(#linear-gradient-9)"/>
            </g>
            <path id="Path_47013" data-name="Path 47013" d="M49.035,30,40,48.071l4.085,4.085c4.532-4.391,7.926-9.287,8.3-13.482.022-.26.035-.516.035-.765v-4.52Z" transform="translate(-9.506 -2.894)" opacity="0.2" fill="url(#linear-gradient-10)"/>
          </g>
        </g>
        <g id="Group_11045" data-name="Group 11045" transform="translate(148.235)">
          <g id="Path_47014-2" data-name="Path 47014" transform="translate(0 0)" fill="#fff">
            <path d="M 65.66825103759766 105.1052856445312 L 39.93700790405273 105.1052856445312 C 37.13326263427734 105.1052856445312 34.39824676513672 104.5612564086914 31.80794143676758 103.4883117675781 C 29.21762275695801 102.4153594970703 26.89899444580078 100.8661117553711 24.91646194458008 98.88356018066406 L 6.721714973449707 80.68880462646484 C 4.739168643951416 78.70626831054688 3.189915180206299 76.38764190673828 2.116968631744385 73.79732513427734 C 1.044021844863892 71.20700073242188 0.4999952018260956 68.47199249267578 0.4999952018260956 65.66825866699219 L 0.5000085234642029 39.93700408935547 C 0.5000085234642029 37.13327026367188 1.044035196304321 34.39825439453125 2.116981744766235 31.80793571472168 C 3.189915180206299 29.21761703491211 4.739181995391846 26.89898872375488 6.721728324890137 24.91645622253418 L 24.91646194458008 6.721722602844238 C 26.89900779724121 4.739176273345947 29.21764945983887 3.1899094581604 31.80795478820801 2.116976261138916 C 34.39827346801758 1.044029474258423 37.1332893371582 0.5000028014183044 39.93703460693359 0.5000028014183044 L 65.66825866699219 0.5000161528587341 C 68.47199249267578 0.5000161528587341 71.20700836181641 1.044042825698853 73.79732513427734 2.116989374160767 C 76.38763427734375 3.18992280960083 78.70626068115234 4.739176273345947 80.68881225585938 6.721722602844238 L 98.883544921875 24.91646957397461 C 100.8661041259766 26.89900207519531 102.4153518676758 29.21763038635254 103.4883041381836 31.80794906616211 C 104.5612487792969 34.39825439453125 105.1052780151367 37.13327026367188 105.1052780151367 39.93701553344727 L 105.1052627563477 65.66826629638672 C 105.1052627563477 68.47201538085938 104.5612335205078 71.20703125 103.4883041381836 73.79733276367188 C 102.4153518676758 76.38765716552734 100.8660888671875 78.70628356933594 98.88355255126953 80.68881988525391 L 80.68879699707031 98.88359069824219 C 78.70626068115234 100.8661193847656 76.38761901855469 102.4153747558594 73.79731750488281 103.4883117675781 C 71.20699310302734 104.5612564086914 68.47198486328125 105.1052856445312 65.66825103759766 105.1052856445312 Z" stroke="none"/>
            <path d="M 39.93701934814453 0 L 39.93701934814453 1 C 37.19927978515625 1 34.52864837646484 1.531227111816406 31.99930572509766 2.578910827636719 C 29.46996307373047 3.626602172851562 27.20590972900391 5.139389038085938 25.27001953125 7.07525634765625 L 7.075263977050781 25.26999664306641 C 5.139389038085938 27.20588684082031 3.626609802246094 29.46992492675781 2.57891845703125 31.99927520751953 C 1.531234741210938 34.52861785888672 1.000007629394531 37.19925689697266 1.000007629394531 39.93699645996094 L 0.9999923706054688 65.66825866699219 C 0.9999923706054688 68.40599822998047 1.531219482421875 71.07662963867188 2.578903198242188 73.60597229003906 C 3.626594543457031 76.13531494140625 5.139381408691406 78.39936828613281 7.075248718261719 80.33525848388672 L 25.26998901367188 98.53001403808594 C 27.20587921142578 100.4658889770508 29.46993255615234 101.9786682128906 31.99927520751953 103.0263748168945 C 34.52861785888672 104.0740585327148 37.19926452636719 104.6052703857422 39.93700408935547 104.6052703857422 L 65.66825103759766 104.6052703857422 C 68.40599060058594 104.6052703857422 71.07662200927734 104.0740585327148 73.60596466064453 103.0263748168945 C 76.13530731201172 101.9786834716797 78.39937591552734 100.4658889770508 80.33526611328125 98.530029296875 L 98.53000640869141 80.33527374267578 C 100.4658813476562 78.39938354492188 101.9786605834961 76.13533020019531 103.0263671875 73.60598754882812 C 104.0740509033203 71.07664489746094 104.6052627563477 68.40601348876953 104.6052627563477 65.66827392578125 L 104.6052627563477 39.93701171875 C 104.6052627563477 37.19927215576172 104.0740509033203 34.52864074707031 103.0263671875 31.99929809570312 C 101.9786605834961 29.46995544433594 100.4658813476562 27.20590209960938 98.53000640869141 25.27001190185547 L 80.33526611328125 7.075271606445312 C 78.39936828613281 5.139396667480469 76.13530731201172 3.626617431640625 73.60597991943359 2.578926086425781 C 71.07662963867188 1.531242370605469 68.40599060058594 1.000015258789062 65.66825866699219 1.000015258789062 L 39.93701934814453 1 L 39.93701934814453 0 M 39.93701934814453 0 L 65.66825866699219 1.52587890625e-05 C 71.43466186523438 1.52587890625e-05 76.96487426757812 2.29071044921875 81.04236602783203 6.368156433105469 L 99.23710632324219 24.56291198730469 C 103.3145751953125 28.64038848876953 105.6052627563477 34.17061614990234 105.6052627563477 39.93701171875 L 105.6052627563477 65.66827392578125 C 105.6052627563477 71.43466949462891 103.3145751953125 76.96489715576172 99.23710632324219 81.04237365722656 L 81.04236602783203 99.23712921142578 C 76.96487426757812 103.314582824707 71.43464660644531 105.6052703857422 65.66825103759766 105.6052703857422 L 39.93700408935547 105.6052703857422 C 34.17059326171875 105.6052703857422 28.64036560058594 103.314582824707 24.56288909912109 99.23711395263672 L 6.368148803710938 81.0423583984375 C 2.290695190429688 76.96488952636719 -7.62939453125e-06 71.43466186523438 -7.62939453125e-06 65.66825866699219 L 7.62939453125e-06 39.93699645996094 C 7.62939453125e-06 34.17058563232422 2.290702819824219 28.64035797119141 6.3681640625 24.56289672851562 L 24.56291961669922 6.368156433105469 C 28.64039611816406 2.290702819824219 34.17060852050781 0 39.93701934814453 0 Z" stroke="none" fill="#020f1e"/>
          </g>
          <g id="layer1" transform="translate(24.031 25.4)">
            <g id="g15949" transform="translate(0 0)">
              <g id="g15951">
                <path id="path15953" d="M12346.629,1630.008c-9.652.368-12.131,9.018-10.355,16.56-.162.052-.77.262-1.8.608-.049.015-.081.035-.121.05-5.8,1.958-21.854,7.616-19.22,9.5,1.6,1.143,6.529,2.091,11.417,2.532.883.079,1.773.159,2.634.2a11.637,11.637,0,0,1-.154,1.924c-1.183,7.993,3.175,19.218,16.918,20.434,10.525.931,18.563-7.566,19.446-15.471,4.085,1.7,8.184,2.966,9.952,2.76,3.435-.4-10.454-19.4-16.636-23.422,1.328-6.985-1.719-15.776-11.595-15.674C12346.953,1630.01,12346.781,1630,12346.629,1630.008Z" transform="translate(-12314.844 -1630.006)" fill="#4a4a44" stroke="#21211e" stroke-width="6.958" fill-rule="evenodd"/>
                <path id="path15955" d="M12476.2,1857.486c-5.324,1.515-8.629,2.751-8.273.568.35-2.134,4.035-4.29,7.576-5.3,3.8-1.087,10.111,3.494,10.186,5.414C12485.75,1859.74,12480.451,1856.656,12476.2,1857.486Z" transform="translate(-12434.479 -1803.985)" fill="#f09c42" stroke="#21211e" stroke-linecap="round" stroke-linejoin="round" stroke-width="5.29"/>
                <path id="path15957" d="M12401.046,1857.486c5.412,1.515,8.782,2.751,8.419.568-.356-2.134-4.109-4.29-7.714-5.3-3.865-1.087-10.283,3.494-10.363,5.414C12391.33,1859.74,12396.719,1856.656,12401.046,1857.486Z" transform="translate(-12374.675 -1803.985)" fill="#f09c42" stroke="#464640" stroke-linecap="round" stroke-linejoin="round" stroke-width="3.711"/>
                <path id="path15959" d="M9.978,29.968a15.477,15.477,0,1,0-.023-.009" transform="translate(47.63 48.955) rotate(180)" fill="url(#linear-gradient-11)"/>
                <path id="path15961" d="M5776.958,1019.844a15.575,15.575,0,1,1-.023.009" transform="translate(-5749.38 -1000.857)" fill="none" stroke="#707070" stroke-linecap="round" stroke-linejoin="round" stroke-width="7.904"/>
                <path id="path15963" d="M12423.235,1732.474c-7.811-.191-13.742,9.626-9.724,16.414,3.1,6.214,12.543,8.336,17.615,3.236,4.717-4.273,5.1-12.771-.1-16.8A11.151,11.151,0,0,0,12423.235,1732.474Z" transform="translate(-12390.956 -1710.091)" fill="#171815"/>
                <path id="path15965" d="M1551.727,273.936a4.162,4.162,0,1,1-.006,0" transform="translate(-1520.456 -244.026)" stroke="#707070" stroke-linecap="round" stroke-linejoin="round" stroke-width="2.973" fill="url(#linear-gradient-12)"/>
                <path id="path15967" d="M12423.235,1732.474c-7.811-.191-13.742,9.626-9.724,16.414,3.1,6.214,12.543,8.336,17.615,3.236,4.717-4.273,5.1-12.771-.1-16.8A11.151,11.151,0,0,0,12423.235,1732.474Z" transform="translate(-12390.956 -1710.091)" fill="none"/>
                <path id="path15969" d="M12465.679,1821.424l-.073-4.122" transform="translate(-12432.687 -1776.406)" fill="none" stroke="#fff" stroke-width="4.738" fill-rule="evenodd"/>
                <path id="path15971" d="M12464.2,1736.974v-4.266" transform="translate(-12431.585 -1710.283)" fill="none" stroke="#fff" stroke-width="4.738" fill-rule="evenodd"/>
                <path id="path15973" d="M12496.295,1783.938l4.262-.03" transform="translate(-12456.676 -1750.303)" fill="none" stroke="#fff" stroke-width="4.738" fill-rule="evenodd"/>
                <path id="path15975" d="M12412.17,1785.123l4.27-.1" transform="translate(-12390.919 -1751.173)" fill="none" stroke="#fff" stroke-width="4.738" fill-rule="evenodd"/>
                <path id="path15977" d="M12436.92,1739.607l1.225,2.35" transform="translate(-12410.265 -1715.675)" fill="none" stroke="#fff" stroke-width="4.738" fill-rule="evenodd"/>
                <path id="path15979" d="M12486.386,1739.124l-1.224,2.351" transform="translate(-12447.973 -1715.298)" fill="none" stroke="#fff" stroke-width="4.738" fill-rule="evenodd"/>
                <path id="path15981" d="M12439.816,1820.911l1.224-2.35" transform="translate(-12412.528 -1777.39)" fill="none" stroke="#fff" stroke-width="4.738" fill-rule="evenodd"/>
                <path id="path15983" d="M12486.274,1820.911l-1.222-2.35" transform="translate(-12447.888 -1777.39)" fill="none" stroke="#fff" stroke-width="4.738" fill-rule="evenodd"/>
                <path id="path15985" d="M12501.533,1759.553l-2.455,1" transform="translate(-12458.851 -1731.266)" fill="none" stroke="#fff" stroke-width="4.738" fill-rule="evenodd"/>
                <path id="path15987" d="M12499.984,1804.435l-2.764-1.127" transform="translate(-12457.398 -1765.468)" fill="none" stroke="#fff" stroke-width="4.738" fill-rule="evenodd"/>
                <path id="path15989" d="M12420.19,1762.956l-2.454-1" transform="translate(-12395.27 -1733.146)" fill="none" stroke="#fff" stroke-width="4.738" fill-rule="evenodd"/>
                <path id="path15991" d="M12421.156,1804.325l-2.457,1" transform="translate(-12396.021 -1766.262)" fill="none" stroke="#fff" stroke-width="4.738" fill-rule="evenodd"/>
                <path id="path15993" d="M12439.29,1690.648c-3.922-.251-6.522.312-6.053,2.96a7.2,7.2,0,0,0,5.971,5.33c2.8.186,6.718-3.4,6.581-5.848C12445.675,1691.08,12442.385,1690.365,12439.29,1690.648Z" transform="translate(-12407.343 -1677.36)" fill="#f09c42" stroke="#21211e" stroke-linecap="round" stroke-linejoin="round" stroke-width="3.711"/>
                <path id="path15995" d="M12541.249,1758.956c1.329-2.724-.988-8.52-.632-8.91,1.168-1.258,7.616,11.559,7.616,11.559S12542.514,1759.96,12541.249,1758.956Z" transform="translate(-12491.29 -1723.767)" fill-rule="evenodd" fill="url(#linear-gradient-13)"/>
                <path id="path15997" d="M12401.046,1857.486c5.412,1.515,8.782,2.751,8.419.568-.356-2.134-4.109-4.29-7.714-5.3-3.865-1.087-10.283,3.494-10.363,5.414C12391.33,1859.74,12396.719,1856.656,12401.046,1857.486Z" transform="translate(-12374.675 -1803.985)" fill="#f09c42" stroke="#21211e" stroke-linecap="round" stroke-linejoin="round" stroke-width="5.29"/>
                <path id="path15999" d="M7.148.1C4.481-.568.052,2.243,0,3.427-.045,4.4,3.68,2.5,6.667,3.016c3.737.933,6.064,1.685,5.814.34C12.237,2.04,9.641.727,7.148.1Z" transform="matrix(0.999, -0.048, 0.048, 0.999, 18.246, 50.069)" fill="url(#linear-gradient-14)"/>
                <path id="path16001" d="M7.148,3.984C4.481,4.654.052,1.843,0,.659c-.045-.971,3.679.923,6.667.411C10.4.137,12.731-.614,12.481.73,12.238,2.046,9.641,3.359,7.148,3.984Z" transform="matrix(-0.999, 0.055, -0.055, -0.999, 48.314, 53.947)" fill="url(#linear-gradient-15)"/>
                <path id="path16003" d="M9878.128,1406.229c-1.642.127-2.6.721-2.355,2.148a5.076,5.076,0,0,0,4.145,3.836c1.938.133,4.661-2.45,4.564-4.211-.078-1.445-2.355-1.954-4.506-1.751A13.229,13.229,0,0,0,9878.128,1406.229Z" transform="translate(-9848.858 -1392.207)" fill="url(#linear-gradient-16)"/>
                <path id="path16005" d="M12356.737,1742.409c.227-2.236,3.9-5.422,3.76-5.937-.421-1.661-10.931,5.092-10.931,5.092S12355.148,1742.69,12356.737,1742.409Z" transform="translate(-12341.984 -1713.02)" fill-rule="evenodd" fill="url(#linear-gradient-17)"/>
              </g>
              <path id="path16007" d="M2366.033,737.693a16.972,16.972,0,0,0-.444,1.723c.547.674,1.947.945,2.585,1.562,0,0,.009.011.013.013a.53.53,0,0,1,.069.068c.276.387-.142,1.28,2.706,2.14,3.037.919,3.585.827,4.278.62s1.051-1.239,1.051-1.239.237-1.246,1.12-1.346h.039c.017,0,.035,0,.052,0h.017c.879.1,1.116,1.346,1.116,1.346s.353,1.031,1.051,1.239,1.241.3,4.278-.62c3.089-.933,2.327-1.9,2.787-2.221.638-.617,2.038-.888,2.585-1.562a17.036,17.036,0,0,0-.444-1.723s-.013.012-.013.013c-.177.094-2.025,1.2-2.206,1.279-.491-1.025-1.21-1.065-4.446-.39-3.132.653-3.9,1.635-3.942,1.7h-1.646c-.043-.061-.81-1.044-3.942-1.7-3.236-.674-3.951-.635-4.442.39-.185-.077-2.033-1.186-2.21-1.279C2366.046,737.7,2366.033,737.694,2366.033,737.693Z" transform="translate(-2345.279 -730.108)" fill="#0c0c0c" stroke="#000" stroke-width="2.329" fill-rule="evenodd"/>
            </g>
          </g>
        </g>
        <g id="Group_11046" data-name="Group 11046" transform="translate(296.469)">
          <g id="Path_47014-3" data-name="Path 47014" transform="translate(0 0)" fill="#fff">
            <path d="M 65.66825103759766 105.1052856445312 L 39.93700790405273 105.1052856445312 C 37.13326263427734 105.1052856445312 34.39824676513672 104.5612564086914 31.80794143676758 103.4883117675781 C 29.21762275695801 102.4153594970703 26.89899444580078 100.8661117553711 24.91646194458008 98.88356018066406 L 6.721714973449707 80.68880462646484 C 4.739168643951416 78.70626831054688 3.189915180206299 76.38764190673828 2.116968631744385 73.79732513427734 C 1.044021844863892 71.20700073242188 0.4999952018260956 68.47199249267578 0.4999952018260956 65.66825866699219 L 0.5000085234642029 39.93700408935547 C 0.5000085234642029 37.13327026367188 1.044035196304321 34.39825439453125 2.116981744766235 31.80793571472168 C 3.189915180206299 29.21761703491211 4.739181995391846 26.89898872375488 6.721728324890137 24.91645622253418 L 24.91646194458008 6.721722602844238 C 26.89900779724121 4.739176273345947 29.21764945983887 3.1899094581604 31.80795478820801 2.116976261138916 C 34.39827346801758 1.044029474258423 37.1332893371582 0.5000028014183044 39.93703460693359 0.5000028014183044 L 65.66825866699219 0.5000161528587341 C 68.47199249267578 0.5000161528587341 71.20700836181641 1.044042825698853 73.79732513427734 2.116989374160767 C 76.38763427734375 3.18992280960083 78.70626068115234 4.739176273345947 80.68881225585938 6.721722602844238 L 98.883544921875 24.91646957397461 C 100.8661041259766 26.89900207519531 102.4153518676758 29.21763038635254 103.4883041381836 31.80794906616211 C 104.5612487792969 34.39825439453125 105.1052780151367 37.13327026367188 105.1052780151367 39.93701553344727 L 105.1052627563477 65.66826629638672 C 105.1052627563477 68.47201538085938 104.5612335205078 71.20703125 103.4883041381836 73.79733276367188 C 102.4153518676758 76.38765716552734 100.8660888671875 78.70628356933594 98.88355255126953 80.68881988525391 L 80.68879699707031 98.88359069824219 C 78.70626068115234 100.8661193847656 76.38761901855469 102.4153747558594 73.79731750488281 103.4883117675781 C 71.20699310302734 104.5612564086914 68.47198486328125 105.1052856445312 65.66825103759766 105.1052856445312 Z" stroke="none"/>
            <path d="M 39.93701934814453 0 L 39.93701934814453 1 C 37.19927978515625 1 34.52864837646484 1.531227111816406 31.99930572509766 2.578910827636719 C 29.46996307373047 3.626602172851562 27.20590972900391 5.139389038085938 25.27001953125 7.07525634765625 L 7.075263977050781 25.26999664306641 C 5.139389038085938 27.20588684082031 3.626609802246094 29.46992492675781 2.57891845703125 31.99927520751953 C 1.531234741210938 34.52861785888672 1.000007629394531 37.19925689697266 1.000007629394531 39.93699645996094 L 0.9999923706054688 65.66825866699219 C 0.9999923706054688 68.40599822998047 1.531219482421875 71.07662963867188 2.578903198242188 73.60597229003906 C 3.626594543457031 76.13531494140625 5.139381408691406 78.39936828613281 7.075248718261719 80.33525848388672 L 25.26998901367188 98.53001403808594 C 27.20587921142578 100.4658889770508 29.46993255615234 101.9786682128906 31.99927520751953 103.0263748168945 C 34.52861785888672 104.0740585327148 37.19926452636719 104.6052703857422 39.93700408935547 104.6052703857422 L 65.66825103759766 104.6052703857422 C 68.40599060058594 104.6052703857422 71.07662200927734 104.0740585327148 73.60596466064453 103.0263748168945 C 76.13530731201172 101.9786834716797 78.39937591552734 100.4658889770508 80.33526611328125 98.530029296875 L 98.53000640869141 80.33527374267578 C 100.4658813476562 78.39938354492188 101.9786605834961 76.13533020019531 103.0263671875 73.60598754882812 C 104.0740509033203 71.07664489746094 104.6052627563477 68.40601348876953 104.6052627563477 65.66827392578125 L 104.6052627563477 39.93701171875 C 104.6052627563477 37.19927215576172 104.0740509033203 34.52864074707031 103.0263671875 31.99929809570312 C 101.9786605834961 29.46995544433594 100.4658813476562 27.20590209960938 98.53000640869141 25.27001190185547 L 80.33526611328125 7.075271606445312 C 78.39936828613281 5.139396667480469 76.13530731201172 3.626617431640625 73.60597991943359 2.578926086425781 C 71.07662963867188 1.531242370605469 68.40599060058594 1.000015258789062 65.66825866699219 1.000015258789062 L 39.93701934814453 1 L 39.93701934814453 0 M 39.93701934814453 0 L 65.66825866699219 1.52587890625e-05 C 71.43466186523438 1.52587890625e-05 76.96487426757812 2.29071044921875 81.04236602783203 6.368156433105469 L 99.23710632324219 24.56291198730469 C 103.3145751953125 28.64038848876953 105.6052627563477 34.17061614990234 105.6052627563477 39.93701171875 L 105.6052627563477 65.66827392578125 C 105.6052627563477 71.43466949462891 103.3145751953125 76.96489715576172 99.23710632324219 81.04237365722656 L 81.04236602783203 99.23712921142578 C 76.96487426757812 103.314582824707 71.43464660644531 105.6052703857422 65.66825103759766 105.6052703857422 L 39.93700408935547 105.6052703857422 C 34.17059326171875 105.6052703857422 28.64036560058594 103.314582824707 24.56288909912109 99.23711395263672 L 6.368148803710938 81.0423583984375 C 2.290695190429688 76.96488952636719 -7.62939453125e-06 71.43466186523438 -7.62939453125e-06 65.66825866699219 L 7.62939453125e-06 39.93699645996094 C 7.62939453125e-06 34.17058563232422 2.290702819824219 28.64035797119141 6.3681640625 24.56289672851562 L 24.56291961669922 6.368156433105469 C 28.64039611816406 2.290702819824219 34.17060852050781 0 39.93701934814453 0 Z" stroke="none" fill="#020f1e"/>
          </g>
          <g id="logo-black-98b7a1413b4a74ed961d292cf83da82e" transform="translate(28.837 27.027)">
            <path id="Path_47015" data-name="Path 47015" d="M24.672.153a1.374,1.374,0,0,1,.609,1.861A14.257,14.257,0,0,0,24.064,7.26a25.6,25.6,0,0,0,.1,4.889,1.4,1.4,0,0,1-2.78.362,28.462,28.462,0,0,1-.115-5.45A16.863,16.863,0,0,1,22.787.752a1.41,1.41,0,0,1,1.885-.6Z" transform="translate(8.987 0)" fill="#1a1a1a" fill-rule="evenodd"/>
            <path id="Path_47016" data-name="Path 47016" d="M24.646,16.8c.84-3.945-7.713-4.59-12.1-4.417C-4.727,12.75,2.495,23.2,12.06,24.365,16,24.845,23.595,21.732,24.646,16.8Z" transform="translate(0.885 5.242)" fill="#cfedfc"/>
            <path id="Path_47017" data-name="Path 47017" d="M3.038,14.23a7,7,0,0,1,1.9-1.058l.246.763L6.442,15.5l1.834,1.641,1.41-.206,7.052-.722L24.148,17a6.86,6.86,0,0,1-1.1,2.061,73.9,73.9,0,0,0-10.1-.567c-.743.863-1.013,3.8-1.071,5.548a15.169,15.169,0,0,1-2.461-.48,14.632,14.632,0,0,1,.759-4.415,14.054,14.054,0,0,0-5.759,1.92,9.547,9.547,0,0,1-1.507-1.472l2.827-1.532a20.158,20.158,0,0,1-2.707-3.831Z" transform="translate(1.237 5.586)" fill="#00ace6"/>
            <path id="Path_47018" data-name="Path 47018" d="M21.329,18.82l2.539,1.695L12.39,37.267l-2.758-1.84L7.514,32.346l-1.061-5.09,1.9-4.469,4.558,1.371,8.416-5.339Z" transform="translate(2.737 7.981)" fill="#ffe100"/>
            <path id="Path_47019" data-name="Path 47019" d="M21.754,12.533c3.4-7.243,11.687-5.467,15.6-2.858L26.6,25.365l-1.233-.823c-1.566,1.791-4.766,3.149-6.17,3.6a5.887,5.887,0,0,0,2.7,4.093l-3.532,5.155a11.763,11.763,0,0,1-5.414-8.305L11.421,29c-2.7,6.042,1.535,10.725,4.147,12.468l-4.563,6.657.793-6.252C6.656,37.529,7.576,30.96,8.68,28.219,5.135,27.525-1.014,22.453.142,18.145c2.011-7.5,15.209-7.379,21.611-5.611Zm3.779,6.351c.8-3.922-7.728-4.563-12.1-4.392a24.061,24.061,0,0,0-6.529.88,5.681,5.681,0,0,0,3.173,3.557c5.07-1.139,11.654-.612,15.458-.044Zm-.32,1.037a79.319,79.319,0,0,0-8.654-.423,7.26,7.26,0,0,0-2.905,7.023C17.425,26.586,23.537,23.992,25.213,19.921ZM12.382,26.395A8.551,8.551,0,0,1,14.515,19.7c-5.155.194-8.406,1.638-9.994,2.77A14.077,14.077,0,0,0,12.382,26.395ZM3.617,21.285a21.3,21.3,0,0,1,4.8-1.791,7.479,7.479,0,0,1-2.858-3.6c-2.811,1.333-3.129,3.418-1.942,5.4ZM50.635,8.333a1.416,1.416,0,0,0-1.978.135,14.581,14.581,0,0,1-4.48,3.069,26.563,26.563,0,0,1-4.635,1.733,1.381,1.381,0,0,0-1.01,1.682,1.4,1.4,0,0,0,1.706,1,29.558,29.558,0,0,0,5.169-1.925,17.286,17.286,0,0,0,5.366-3.74,1.37,1.37,0,0,0-.138-1.951Z" transform="translate(0 3.138)" fill="#1a1a1a" fill-rule="evenodd"/>
            <path id="Path_47020" data-name="Path 47020" d="M24.306,19.136c3.4-2.24,7.191,5.352,8.663,9.429,6.095,15.957-6.425,13.238-11.086,4.913-1.918-3.425-1.821-11.541,2.425-14.34Z" transform="translate(8.771 7.943)" fill="#cfedfc"/>
            <path id="Path_47021" data-name="Path 47021" d="M33.99,37.549a6.864,6.864,0,0,0,.285-2.138l-.81.058-1.94-.564L29.3,33.838l-.33-1.37-1.951-6.723-3.5-6.5a6.9,6.9,0,0,0-1.531,1.772,71.788,71.788,0,0,1,4.3,9.033c-.534,1-3.193,2.343-4.819,3.049l.084.157a14.951,14.951,0,0,0,1.283,1.918A15.032,15.032,0,0,0,26.7,32.837a13.6,13.6,0,0,1,.342,5.988,9.617,9.617,0,0,0,1.944.832l.387-3.159a20.846,20.846,0,0,0,4.614,1.051Z" transform="translate(9.103 8.164)" fill="#00ace6"/>
            <path id="Path_47022" data-name="Path 47022" d="M24.639,21.7,22.1,20.008,10.621,36.759l2.758,1.84,3.688.792,5.181-.926,3.5-3.4L22.754,31.4,24.639,21.7Z" transform="translate(4.504 8.485)" fill="#ffe100"/>
            <path id="Path_47023" data-name="Path 47023" d="M37.2,24.344C42.743,18.527,37.987,11.6,34.075,9L23.325,24.685l1.235.823c-1.1,2.1-1.186,5.538-1.089,6.992a6.032,6.032,0,0,1-4.855-.943l-3.532,5.155a12.071,12.071,0,0,0,9.829,1.861l.647,1.371c-4.675,4.725-10.658,2.592-13.271.849L7.727,47.451,13.309,44.4c6.007,3.089,11.842-.2,14.01-2.234,1.972,2.986,9.034,6.726,12.657,4.063,6.309-4.638,1.273-16.676-2.777-21.879Zm-7.382-1.094c3.389-2.193,7.172,5.374,8.64,9.443A23.163,23.163,0,0,1,40.064,39a5.78,5.78,0,0,1-4.528-1.578c-.819-5.067-3.765-10.9-5.718-14.169Zm-.854.679A76.631,76.631,0,0,1,32.585,31.7a7.368,7.368,0,0,1-5.522,5.276c-1.467-3.429-1.3-9.991,1.9-13.043ZM27.655,38.091a8.713,8.713,0,0,0,5.5-4.449c1.737,4.793,1.592,8.308,1.118,10.185a13.981,13.981,0,0,1-6.619-5.736Zm8.072,6.121a20.5,20.5,0,0,0-.1-5.064,7.684,7.684,0,0,0,4.456,1.275c-.206,3.069-2.051,4.138-4.352,3.788Z" transform="translate(3.277 3.815)" fill="#1a1a1a" fill-rule="evenodd"/>
          </g>
        </g>
      </g>
    </g>
    <g id="Group_11069" data-name="Group 11069" transform="translate(11861.133 2798.333)">
      <path id="Shape_8" data-name="Shape 8" d="M210.844,25.168h21.25S226.92,85.422,206.261,153.8c-21.658,71.686-55.207,133.772-55.207,133.772l-19.221-6.536S13.605,225.11,22.364,70.05H41.714s52.128,25.113,94.014-26.627L157.4,41.491S180.354,82.7,210.844,25.168Z" transform="translate(-21.9 -24.974)" fill="#fff" stroke="#020f1e" stroke-linecap="round" stroke-linejoin="round" stroke-width="1"/>
      <path id="Shape_2" data-name="Shape 2" d="M222.327.968s21.25,160.018-81.78,262.4c0,0-122.767-60.015-109.019-217.779,0,0,83.266,31.472,115.683-28.108C147.211,17.317,186.911,74.151,222.327.968Z" transform="translate(-11.715 -0.968)" fill="#fff" stroke="#020f1e" stroke-linecap="round" stroke-linejoin="round" stroke-width="1"/>
      <path id="Shape_3" data-name="Shape 3" d="M213.193,47.834s1.256,119.032-70.475,200.293c0,0-87.289-48.742-91.184-170.446,0,0,61.061,15.4,98.1-24.373C149.637,53.308,186.985,83.476,213.193,47.834Z" transform="translate(-12.434 -2.566)" fill="#7d42fb"/>
      <path id="Shape_7" data-name="Shape 7" d="M163.526,234.519c-4.847-3.085-8.747-8.946-11.23-17.077a20,20,0,0,0-.761-2.38q-.416,1.5-.686,3.027c-.351,1.634-.787,3.593-.991,4.359s-.424,1.7-.493,2.066a104.763,104.763,0,0,1-3.269,10.133,100.353,100.353,0,0,1-5.243,11.816c-2.016,3.771-2.1,3.825-.973.637.572-1.6,1.4-4.048,1.849-5.46.841-2.612,2.751-9.26,2.746-9.526q.3-1.453.679-2.893,1.135-4.719,2-9.5.631-3.226,1.01-6.464c.111-.979.291-2.245.395-2.824q1.029-8.569,1.232-17.27c-.053-.639-.119-.576-1.493,1.674a13.465,13.465,0,0,0-1.441,2.8,92.045,92.045,0,0,1-2.377,13.7q-.3,1.033-.519,2.085-.645,2.206-1.463,4.354-.665,1.7-1.191,3.449a106.868,106.868,0,0,0,5.709-10.863c.647-1.372.545-.592-.209,1.656a97.266,97.266,0,0,1-4.591,11.124,55.829,55.829,0,0,1-5.56,8.874l-.95.993a10.95,10.95,0,0,0-1.1,1.356c-.433.71-2.217,2.206-2.227,1.9a6.056,6.056,0,0,1,.845-1.428,94.679,94.679,0,0,0,12.8-34.775c.3-2.093.283-2.166-.5-1.042a46.339,46.339,0,0,1-7.938,8.215c-.2.073-.035-.139.368-.54a49,49,0,0,0,7.957-10.474c.958-1.736.876-1.343,1.316-7.026.081-1.077.1-.638.076,1.538l-.05,3.048.688-1.335c.38-.773.954-1.99,1.294-2.735l.586-1.349-1.208-1.7-1.224-1.742-.253-3.678a41.508,41.508,0,0,0-4.017-16.2c-.953-1.754-1.024-2.006-.871-2.858l.172-.943.7.417a3.233,3.233,0,0,0,1.672.37l.966-.082.729,2.731a107.906,107.906,0,0,1,2.883,16.521,2.477,2.477,0,0,0,.42,1.227l.408.54-.037-2.882a117.739,117.739,0,0,0-1.075-12.932c-.477-3.777-.912-5.253-1.732-5.984l-.44-.4,1.362-1.324c.747-.739,1.406-1.369,1.6-1.627s.318.234.571,2.275a18.344,18.344,0,0,0,.439,2.552,27.663,27.663,0,0,0,.367-2.908l.017.016c.176-2.047.283-2.674.45-2.747a.13.13,0,0,1,.078-.034,6.933,6.933,0,0,0,1.541.175,6.49,6.49,0,0,1,1.325.186,1.578,1.578,0,0,1-.329.722c-.985,1.554-1.573,5.723-2.093,14.676a66.179,66.179,0,0,0-.062,8.933c.143.2.681-1.535.673-2.267a162.491,162.491,0,0,1,2.4-18.666l.63-3.278.918-.741a8.923,8.923,0,0,0,1.564-1.764l.617-1,.175.763c.176.7.113.993-.591,3.044a70.475,70.475,0,0,0-3.624,20.485l-.1,2.98-1.132,2.9L152.563,187l.6.793c.358.416.942,1.027,1.318,1.378l.688.631-.112-2.762-.1-2.785.321,2.869c.382,3.282.426,3.409,2.465,4.511a12.5,12.5,0,0,0,5.477,1.583c1.216.044,1.289.062.565.29a15.1,15.1,0,0,1-7.427-.483c-.232-.074-.23.089.053,1.435a40.268,40.268,0,0,0,6.246,14.849,19.452,19.452,0,0,0,6.063,5.31c.784.357.975.477.657.747s-.6.315-3.153.2a11.57,11.57,0,0,1-7.963-5.137,19.554,19.554,0,0,1-3.053-5.22,6.568,6.568,0,0,1,1.48,1.346,23.034,23.034,0,0,0,4.848,3.817c.147.04-.209-.566-.785-1.379a38.192,38.192,0,0,1-5.11-15.43,1.476,1.476,0,0,0-.581-1.242,6.852,6.852,0,0,1-1.408-.8l-.994-.635.011,1.044q.343,6.055,1.067,11.716a107.373,107.373,0,0,0,3.813,17.112,54.516,54.516,0,0,0,5.683,12.5l1,1.608ZM152.207,210.9l-.4,2.465.321,1.158a13.546,13.546,0,0,0,.632,1.706c.152.339.713,1.436,1.19,2.477s1.182,2.421,1.563,3.063l0,.076a7.281,7.281,0,0,0,.709,1.071q-.492-2.1-1.138-4.046c-.653-2.185-1.47-5.391-1.808-7.173s-.666-3.237-.666-3.237S152.422,209.562,152.207,210.9Zm-2.125.138a156.478,156.478,0,0,1-2.9,15.726h0c-.177.751-.241,1.091-.17,1.055a15.9,15.9,0,0,0,1.135-2.947q1.769-5.507,3.057-11.154a26.552,26.552,0,0,0-.842-3.9c-.015-.026-.031-.023-.053.017A4.907,4.907,0,0,0,150.081,211.035Zm1.054-10.229c-.026.818-.23,2.945-.414,4.692l-.345,3.171.521,1.9h0a7.932,7.932,0,0,0,.611,1.8,21.163,21.163,0,0,0,.529-2.478l.449-2.476-.4-2.714c-.219-1.464-.458-3.348-.514-4.132a4.213,4.213,0,0,0-.233-1.375,6.383,6.383,0,0,0-.2,1.606Zm.1-10.09a.668.668,0,0,0,.228-.417l0-.025c.033-.225-.04-.4-.167-.4-.317-.088-.473.235-.307.628l0-.005c.063.191.152.262.239.219Zm-.318-6.217a.222.222,0,0,0,.328.126.438.438,0,0,0,.224-.4c-.006-.45-.295-.6-.481-.286a.791.791,0,0,0-.072.557Zm30.921-37.473c-6.03,6.709-12.88,6.039-16.732-1.953-.821-1.407-1.506-2.544-1.537-2.531a33.638,33.638,0,0,0,1.761,5.559c1.329,3.636,3.769,6.211,6.641,7.066l1.284.388-1.557.508c-2.761,1.13-5.724-.179-7.4-3.319a21.849,21.849,0,0,1-1.782-3.529c-.313-.882-.607-1.533-.658-1.41a23.612,23.612,0,0,0,.869,5.83,12.7,12.7,0,0,0,2.98,5.789c.3.224.565.461.565.624s-.049.254-.106.277l-.809.071c-2.676.025-4.852-2.5-5.767-6.758-.431-1.731-.573-2.046-.842-1.792a6.69,6.69,0,0,1-3.951,2.631,4.136,4.136,0,0,1-2.089-.395c-.9-.466-.953-.523-.967-1.751a73.247,73.247,0,0,1,3.1-19.387,51.844,51.844,0,0,1,3.118-8.053,10.8,10.8,0,0,1-.513,2.022,80.151,80.151,0,0,0-2.208,10.921q-.468,4.475-.6,8.854c.008.961,3.074-1.844,4.522-4.1a34.64,34.64,0,0,0,4.286-12.749l.334-2.441,2.547-1.374a81.049,81.049,0,0,0,15.016-11.059A149.348,149.348,0,0,0,207.69,80.465l1.685-2.879.011,0a.4.4,0,0,1,.088-.122q-1.756,4.922-3.88,9.468c-6.371,14.2-14.181,25.7-22.794,33.46a44.007,44.007,0,0,1-12.425,7.823c-2.749,1.09-3.715,1.749-2.814,1.947a27.807,27.807,0,0,0,8.824-2.194c6.917-2.744,13.639-8.424,19.686-16.544q4.22-5.637,8.156-12.076c1.292-2.262,1.254-1.917-.413,2.2-5.008,12.671-11.687,22.648-19.067,28.4a24.218,24.218,0,0,1-16.591,3.737,7.105,7.105,0,0,0-2.155-.157,17.794,17.794,0,0,0,4.709,2.331c6.249,1.829,12.992-.594,19.2-6.738,1.089-1.032,2.264-2.259,2.609-2.666.961-1.167.958-1.04.022,1.026-3.833,8.949-9.252,15-14.726,16.351-4.3,1.19-8.806-.613-12.054-4.93-1.157-1.435-1.258-1.464-.866-.533a29.055,29.055,0,0,0,3.553,5.542,11.7,11.7,0,0,0,8,4.1,12.92,12.92,0,0,0,3.752-1.23c1.572-.694,2.853-1.2,2.853-1.2q-.593.765-1.214,1.43Zm-32.968,8.755a13.253,13.253,0,0,1-2.128,2.238,4.585,4.585,0,0,1-4.158.867c-.29-.049-.4.427-.831,2.558A24.536,24.536,0,0,1,137,172.624c-.988,1.162-2.339,2.222-2.35,1.85a5.2,5.2,0,0,1,.607-1.177,35.713,35.713,0,0,0,3.894-15.742,12.181,12.181,0,0,0-.655,2.08,54.463,54.463,0,0,1-1.856,5.333c-1.947,5.108-4.953,9.019-8.279,10.766-1.98,1.111-1.98.981.045-1.246a39.773,39.773,0,0,0,8.086-17.566q.34-1.344.556-2.731a25.017,25.017,0,0,0-1.515,3.594,40.4,40.4,0,0,1-7.647,13.258c-3.413,3.793-7.331,5.726-11.087,5.425-2.956-.212-2.91-.339.4-1.7a24.308,24.308,0,0,0,11.365-9.787A62.817,62.817,0,0,0,135.6,150.6l.615-1.955-1.426,2.9a43.973,43.973,0,0,1-8.864,12.943c-8.111,8.356-17.878,8.844-24.934.809a6.722,6.722,0,0,1-1.167-1.361,17.861,17.861,0,0,1,2.142.237,23.711,23.711,0,0,0,14.226-1.911,32.4,32.4,0,0,0,12.551-8.97,54.547,54.547,0,0,0,5.573-6.983,18.969,18.969,0,0,0-2.428,2.077c-7.1,6.941-15,11.041-23.026,11.818-9.691-.222-19-5.738-26.5-16.09l-1.136-1.624,1.754,1.114c10.514,7.238,22.123,10,32.823,8.182a54.2,54.2,0,0,0,16.722-7.685c1.228-1.041-.062-.862-3.339.437-18.412,6.96-37.979.08-53.635-20.7l-.041-.106c-1.425-1.848-2.028-2.654-1.893-2.706a4.661,4.661,0,0,1,1.273.928,114.582,114.582,0,0,0,18.393,11.454c13.833,6.579,27.793,8.248,40.349,5.271l2.938-.7.464,2.321a15.347,15.347,0,0,0,4.931,9.477,5.877,5.877,0,0,0,4.214.749l.566-.238-.132-2.122a48.813,48.813,0,0,0-3.577-16.476c-.692-1.423-.319-1.2.928.6,3.2,4.992,5.186,11.816,5.725,19.506l.147,2.634Zm3.11-20.522a56.987,56.987,0,0,1,2.3-10.146l.9-2.8-.618-2.2-.618-2.261.557-1.411.024.05a5.35,5.35,0,0,1,.595-1.266c.2.4,1.823,5.2,2.212,6.466l.433,1.472-1.12,1.935a45.584,45.584,0,0,0-3.578,7.571q-.571,1.769-.98,3.62a17.441,17.441,0,0,1-.427,1.732,16.579,16.579,0,0,1,.315-2.755Zm-3.169,1.41a17.482,17.482,0,0,0-4.357-6.606l-1.515-1.343.451-1.843,0,.085c.61-2.806,1.33-5.573,2.152-8.275a2.886,2.886,0,0,1,.643.887l.5.935-.532,2.717-.541,2.717.993,2.128a29.606,29.606,0,0,1,2.369,7.315,22.685,22.685,0,0,1,.419,2.586.046.046,0,0,1-.008.014c-.048.091-.28-.481-.566-1.316Zm1.476-5.416a44.482,44.482,0,0,0-2.062-8.545,15.882,15.882,0,0,0-7.153-9.177l0-.005c-.371-.192-.5-.277-.419-.307a1.165,1.165,0,0,1,.328,0,11.216,11.216,0,0,1,3.752,2.211A20.77,20.77,0,0,1,150,125.554c.388,1.8.668,2.414.655,1.4a49.676,49.676,0,0,1,1.655-7.413,37.5,37.5,0,0,1,5.994-11.645c1.431-1.68,1.524-1.451.15.351a47.343,47.343,0,0,0-7.6,22.236,9.769,9.769,0,0,1-.313,1.992A3.025,3.025,0,0,1,150.288,131.253Zm-.394-12.114q-.175-3.2-.556-6.312a10.318,10.318,0,0,0-1.052,2.284l-.925,2.425-.6-.829-.587-.8.793-2.536c.45-1.452,1.364-4.106,2.032-5.994l1.2-3.406.98,1.939c.527,1.062,1.482,3.1,2.109,4.527l1.12,2.57-.547,1.193-.547,1.226-.994-1.752c-.554-.96-1.044-1.641-1.091-1.51q-.268,2.936-.36,5.844c-.129,3.066-.268,6.162-.293,6.858a4.076,4.076,0,0,1-.077.889c-.1.172-.283-1.8-.6-6.609Z" transform="translate(-18.823 -16.518)" fill="#fff"/>
    </g>
  </g>
</svg>
