<svg xmlns="http://www.w3.org/2000/svg" width="810.189" height="385.773" viewBox="0 0 810.189 385.773">
  <g id="tarian-img1" transform="translate(-11554.5 -905.295)">
    <g id="account-hacking" transform="translate(11929.265 906.225)">
      <g id="Group_11066" data-name="Group 11066" transform="translate(0 54.901)">
        <path id="Path_46707" data-name="Path 46707" d="M74.817,127.481l13.561,20.311h23.5" transform="translate(-13.176 -113.078)" fill="none" stroke="#020f1e" stroke-width="1"/>
        <path id="Path_46708" data-name="Path 46708" d="M1361.388,2463.26H1402.2" transform="translate(-1303.564 -2409.057)" fill="none" stroke="#020f1e" stroke-width="1"/>
        <path id="Path_46709" data-name="Path 46709" d="M1346.52,2508.06h54.623" transform="translate(-1302.585 -2422.008)" fill="none" stroke="#020f1e" stroke-width="1"/>
        <path id="Path_46710" data-name="Path 46710" d="M1373.791,2530.34h27.451" transform="translate(-1302.544 -2421.974)" fill="none" stroke="#020f1e" stroke-width="1"/>
        <path id="Path_46711" data-name="Path 46711" d="M1345.46,2558.46h56.366" transform="translate(-1302.587 -2421.932)" fill="none" stroke="#020f1e" stroke-width="1"/>
        <path id="Path_46712" data-name="Path 46712" d="M1316.825,2599.924l20.356-15.5h63.772" transform="translate(-1302.63 -2421.893)" fill="none" stroke="#020f1e" stroke-width="1"/>
        <path id="Path_46720" data-name="Path 46720" d="M88.766,869.709a7.823,7.823,0,1,1-7.823,7.823A7.826,7.826,0,0,1,88.766,869.709Zm26.829-45.87a7.823,7.823,0,1,1-7.823,7.823A7.827,7.827,0,0,1,115.6,823.839Zm29.138-27.732a7.823,7.823,0,1,1-7.823,7.823A7.827,7.827,0,0,1,144.733,796.108Zm-27.281-22.1a7.823,7.823,0,1,1-7.823,7.823A7.827,7.827,0,0,1,117.452,774.012Zm13.788-31.471a7.823,7.823,0,1,1-7.823,7.823A7.827,7.827,0,0,1,131.24,742.542Zm7.822-46.535a7.823,7.823,0,1,1-7.823,7.823A7.827,7.827,0,0,1,139.062,696.007Z" transform="translate(-80.943 -696.007)" fill="none" stroke="#020f1e" stroke-width="1" fill-rule="evenodd"/>
      </g>
      <g id="Group_11067" data-name="Group 11067" transform="translate(352.417 61.705)">
        <path id="Path_46719" data-name="Path 46719" d="M538.482,869.7a7.823,7.823,0,1,1-7.823,7.823A7.826,7.826,0,0,1,538.482,869.7Zm-15.647-38.047a7.823,7.823,0,1,1-7.823,7.823A7.826,7.826,0,0,1,522.836,831.654Zm0-36.3a7.823,7.823,0,1,1-7.823,7.823A7.827,7.827,0,0,1,522.836,795.354ZM489.587,770.9a7.823,7.823,0,1,1-7.823,7.823A7.827,7.827,0,0,1,489.587,770.9Zm25.425-20.038a7.823,7.823,0,1,1-7.823,7.823A7.826,7.826,0,0,1,515.013,750.867Zm9.8-49.066a7.823,7.823,0,1,1-7.823,7.823A7.827,7.827,0,0,1,524.813,701.8Z" transform="translate(-463.798 -701.801)" fill="none" stroke="#020f1e" stroke-width="1" fill-rule="evenodd"/>
        <path id="Path_46721" data-name="Path 46721" d="M1740.516,2441.533l-15.356,18.495h-38.725" transform="translate(-1685.533 -2428.914)" fill="none" stroke="#020f1e" stroke-width="1"/>
        <path id="Path_46722" data-name="Path 46722" d="M439.581,178.728H396.851" transform="translate(-396.15 -119.805)" fill="none" stroke="#020f1e" stroke-width="1"/>
        <path id="Path_46723" data-name="Path 46723" d="M1703.359,2506.2h-16.925" transform="translate(-1685.533 -2428.816)" fill="none" stroke="#020f1e" stroke-width="1"/>
        <path id="Path_46724" data-name="Path 46724" d="M1736.977,2530.34h-51.443" transform="translate(-1685.534 -2428.779)" fill="none" stroke="#020f1e" stroke-width="1"/>
        <path id="Path_46725" data-name="Path 46725" d="M1736.977,2567.767H1686" transform="translate(-1685.533 -2428.722)" fill="none" stroke="#020f1e" stroke-width="1"/>
        <path id="Path_46726" data-name="Path 46726" d="M1753.335,2599.685l-19.5-11.685h-47.605" transform="translate(-1685.533 -2428.692)" fill="none" stroke="#020f1e" stroke-width="1"/>
      </g>
      <g id="Group_10988" data-name="Group 10988" transform="translate(80.757 80.293)">
        <path id="Path_46626" data-name="Path 46626" d="M682.612,844.565H968V989.343H682.612Z" transform="translate(-682.612 -844.565)" fill="#fff" stroke="#020f1e" stroke-linecap="round" stroke-linejoin="round" stroke-width="1" fill-rule="evenodd"/>
        <g id="Group_10987" data-name="Group 10987" transform="translate(22.247 54.089)">
          <line id="Line_336" data-name="Line 336" x2="243.369" fill="none" stroke="#020f1e" stroke-width="1"/>
          <line id="Line_337" data-name="Line 337" x2="243.369" transform="translate(0 10.015)" fill="none" stroke="#020f1e" stroke-width="1"/>
          <line id="Line_338" data-name="Line 338" x2="243.369" transform="translate(0 20.03)" fill="none" stroke="#020f1e" stroke-width="1"/>
          <line id="Line_339" data-name="Line 339" x2="243.369" transform="translate(0 30.046)" fill="none" stroke="#020f1e" stroke-width="1"/>
          <line id="Line_340" data-name="Line 340" x2="243.369" transform="translate(0 40.061)" fill="none" stroke="#020f1e" stroke-width="1"/>
          <line id="Line_341" data-name="Line 341" x2="243.369" transform="translate(0 50.076)" fill="none" stroke="#020f1e" stroke-width="1"/>
          <path id="Path_46727" data-name="Path 46727" d="M0,0H183.278" transform="translate(0 60.091)" fill="none" stroke="#020f1e" stroke-width="1"/>
        </g>
      </g>
      <path id="Path_46627" data-name="Path 46627" d="M682.612,844.565H968V866.38H682.612Z" transform="translate(-602.142 -764.272)" fill="#020f1e" fill-rule="evenodd"/>
      <g id="Group_11065" data-name="Group 11065" transform="translate(184.628 32.267)">
        <path id="Path_46628" data-name="Path 46628" d="M1418.066,552.047h0a23.655,23.655,0,0,0-23.586,23.586v20.191a23.676,23.676,0,0,0,15.424,22.121v-1a14.848,14.848,0,0,1-6.668-12.364V575.8a14.83,14.83,0,0,1,29.661,0v3.974h8.755v-4.145A23.654,23.654,0,0,0,1418.066,552.047Z" transform="translate(-1378.002 -552.047)" fill="#020f1e" fill-rule="evenodd"/>
        <path id="Path_46629" data-name="Path 46629" d="M1360.639,704.412h-56.257a10.285,10.285,0,0,0-10.255,10.255v53.619a10.285,10.285,0,0,0,10.255,10.255h56.257a10.285,10.285,0,0,0,10.255-10.255V714.667A10.285,10.285,0,0,0,1360.639,704.412Z" transform="translate(-1294.127 -679.396)" fill="#fff" stroke="#020f1e" stroke-width="1" fill-rule="evenodd"/>
        <path id="Path_46630" data-name="Path 46630" d="M1467.976,838.936v0l.011.029.007.02v0l0,.012.013.035,0,.006v0a9.975,9.975,0,0,0,4.786,5.375l-3.138,7.843h15.319l-3.136-7.839a9.97,9.97,0,0,0,4.9-5.664l0,0v0l.008-.025.007-.021,0-.008,0-.015.008-.024,0-.01,0-.009.013-.041,0-.009v0a9.94,9.94,0,1,0-18.827.343Z" transform="translate(-1438.944 -780.716)" fill="#020f1e" stroke="#020f1e" stroke-width="1" fill-rule="evenodd"/>
      </g>
      <path id="Path_46631" data-name="Path 46631" d="M2103.012,483.3l23.86,42.315h-50.513Z" transform="translate(-1766.77 -455.711)" fill="#fff" stroke="#020f1e" stroke-width="1" fill-rule="evenodd"/>
      <path id="Path_46632" data-name="Path 46632" d="M2214.448,610.61q-.424,2.067-.83,4.136t-.75,4.176a2.6,2.6,0,0,1-.086.611.34.34,0,0,1-.3.212q-.518.093-1.023.2t-1.062.252c-.071,0-.113-.011-.126-.033a.19.19,0,0,1-.02-.1l-.132-13.12a2.232,2.232,0,0,1,.093-.6.375.375,0,0,1,.292-.226q1.15-.258,2.284-.578,1.219-.342,2.444-.657a.408.408,0,0,1,.12-.013q.146,0,.146.133,0,.013-.053.325t-.138.8c-.059.328-.122.7-.193,1.109s-.146.823-.226,1.235-.157.806-.232,1.182Q2214.56,610.137,2214.448,610.61Zm-.465,11q-.039.571-.059.876-.015.229-.033.458c-.009.1-.014.166-.014.193a.186.186,0,0,1-.007.06.533.533,0,0,0-.012.08c-.005.04-.012.124-.021.252l-.04.564q-.027.372-.08,1.023a2.511,2.511,0,0,1-.086.6.369.369,0,0,1-.3.219l-2.364.471a19.689,19.689,0,0,0-2.39.631.4.4,0,0,1-.12.013l-.119-.106-.027-.026.292-3.639a2.554,2.554,0,0,1,.086-.6.368.368,0,0,1,.3-.226q1.129-.2,2.284-.451t2.443-.518a.4.4,0,0,1,.12-.013C2213.934,621.472,2213.982,621.516,2213.982,621.6Z" transform="translate(-1876.871 -563.388)" fill="#7d42fb"/>
      <path id="Path_46633" data-name="Path 46633" d="M1002.262,543.622l18.46,30.294H981.514Z" transform="translate(-853.725 -508.965)" fill="#fff" stroke="#020f1e" stroke-width="1" fill-rule="evenodd"/>
      <path id="Path_46634" data-name="Path 46634" d="M1080.106,632.94q-.294,1.431-.575,2.864t-.519,2.892a1.8,1.8,0,0,1-.06.423.236.236,0,0,1-.207.147q-.359.064-.708.138-.37.079-.735.175c-.049,0-.078-.008-.087-.023a.137.137,0,0,1-.014-.069l-.092-9.084a1.556,1.556,0,0,1,.064-.414.262.262,0,0,1,.2-.156q.8-.178,1.582-.4.843-.237,1.692-.455a.284.284,0,0,1,.083-.009c.068,0,.1.031.1.092,0,.006-.012.081-.037.225s-.057.33-.1.556-.084.483-.133.768-.1.571-.156.855-.107.546-.161.818Q1080.184,632.613,1080.106,632.94Zm-.322,7.613q-.021.3-.041.607-.01.159-.023.317c-.006.07-.009.115-.009.133a.143.143,0,0,1,0,.041.35.35,0,0,0-.009.055q0,.041-.014.175-.037.55-.083,1.1a1.726,1.726,0,0,1-.06.418.256.256,0,0,1-.207.152l-1.636.326a13.667,13.667,0,0,0-1.655.437.283.283,0,0,1-.083.009l-.082-.074-.019-.018.2-2.519a1.751,1.751,0,0,1,.06-.414.254.254,0,0,1,.207-.156q.781-.138,1.581-.313.845-.184,1.692-.359a.277.277,0,0,1,.083-.009Q1079.785,640.461,1079.785,640.552Z" transform="translate(-930.536 -584.072)" fill="#7d42fb"/>
      <path id="Path_46635" data-name="Path 46635" d="M721.87,313.608l23.944,39.277H695.692Z" transform="translate(-613.303 -313.608)" fill="#fff" stroke="#020f1e" stroke-width="1" fill-rule="evenodd"/>
      <path id="Path_46636" data-name="Path 46636" d="M827.147,433.193q-.4,1.956-.786,3.915t-.71,3.953a2.456,2.456,0,0,1-.082.578.322.322,0,0,1-.283.2q-.49.088-.968.189t-1.006.239q-.1,0-.119-.031a.186.186,0,0,1-.019-.094l-.126-12.418a2.147,2.147,0,0,1,.088-.566.357.357,0,0,1,.277-.214q1.068-.239,2.162-.547,1.153-.324,2.313-.622a.383.383,0,0,1,.113-.013c.092,0,.138.042.138.126q0,.013-.05.308-.065.38-.132.76-.082.465-.182,1.05t-.214,1.169q-.113.584-.22,1.119Q827.253,432.745,827.147,433.193Zm-.44,10.407q-.038.54-.056.829-.014.217-.031.434c-.008.1-.012.157-.012.183a.189.189,0,0,1-.006.056.454.454,0,0,0-.013.075q-.006.057-.019.239-.051.751-.113,1.5a2.373,2.373,0,0,1-.082.572.35.35,0,0,1-.283.207l-2.237.446a18.652,18.652,0,0,0-2.262.6.379.379,0,0,1-.113.013l-.113-.1-.025-.025.277-3.444a2.4,2.4,0,0,1,.082-.566.347.347,0,0,1,.283-.214q1.085-.192,2.162-.427,1.094-.239,2.313-.49a.383.383,0,0,1,.113-.013Q826.707,443.474,826.707,443.6Z" transform="translate(-717.291 -414.096)" fill="#7d42fb"/>
      <path id="Path_46637" data-name="Path 46637" d="M659.864,1686.761c-28.043,35.407,26.807,51.621,48.343,33.527,19.759-16.6,60.541-42.854,67.752-57.6,7.681-15.7-.136-41.951-17.494-40.652C729.716,1624.191,672.085,1671.331,659.864,1686.761Zm292.494-45.379c50.374,42.39.673,98.447-38.955,66.35-23.305-18.876-60.852-43.107-67.732-55.922-8.883-16.545-1.808-40.867,16.378-40.949C886.853,1610.749,929.528,1622.169,952.359,1641.382Z" transform="translate(-576.313 -1404.753)" fill="#7d42fb" stroke="#020f1e" stroke-width="1" fill-rule="evenodd"/>
      <path id="Path_46638" data-name="Path 46638" d="M1203.941,1625.23,1109.4,1634l-38.072,152,164.785-.341-32.167-160.428Z" transform="translate(-926.745 -1416.764)" fill="#7d42fb" fill-rule="evenodd"/>
      <path id="Path_46639" data-name="Path 46639" d="M2150.808,1736.869c-26.53-51.651-18.592-74.131,36.609-48.656,16.927,7.812,32.513,10.706,36.111,30.856,4.2,23.508-33.167,65.969-50.323,49.358C2164.931,1760.417,2159.124,1753.061,2150.808,1736.869Z" transform="translate(-1816.748 -1460.604)" fill="#7d42fb" stroke="#020f1e" stroke-width="1" fill-rule="evenodd"/>
      <path id="Path_46640" data-name="Path 46640" d="M2172.616,1872.253c-8.23-7.968-14-15.287-22.274-31.392-7.908-15.4-12.748-28.184-14.156-37.867a.638.638,0,0,0-1.262.184c1.423,9.783,6.294,22.71,14.284,38.266,8.361,16.278,14.2,23.672,22.521,31.726a.638.638,0,1,0,.887-.917Z" transform="translate(-1815.715 -1564.886)" fill-rule="evenodd"/>
      <path id="Path_46641" data-name="Path 46641" d="M1731.913,1752.556a3.638,3.638,0,0,1,1.737,2.989c0,2.137-2.135,3.873-4.766,3.873s-4.767-1.735-4.767-3.873a3.639,3.639,0,0,1,1.737-2.989v-17.425h6.059Z" transform="translate(-1472.361 -1508.621)" fill="#fff" stroke="#020f1e" stroke-linecap="round" stroke-linejoin="round" stroke-width="1" fill-rule="evenodd"/>
      <path id="Path_46642" data-name="Path 46642" d="M2074.481,1611.27c10.248,0,30.714,11.8,30.714,25.759s-5.56,24.421-15.808,24.421-22.157-14.648-22.157-28.61S2064.233,1611.27,2074.481,1611.27Z" transform="translate(-1758.8 -1405.096)" fill="#7d42fb" stroke="#020f1e" stroke-width="1" fill-rule="evenodd"/>
      <path id="Path_46643" data-name="Path 46643" d="M1950.856,1644.882s8.9.707,12.013-7.067-11.589-47.18-41.269-26.853c0,0-15.83,11.887-9.47,21s15.406-7.286,15.547-7c-3.4,6.85-2.244,12.116,7.74,14.3,0,0,6.021,8.776,13.53,3.392Z" transform="translate(-1628.246 -1400.025)" fill="#fff" stroke="#020f1e" stroke-width="1" fill-rule="evenodd"/>
      <path id="Path_46644" data-name="Path 46644" d="M2017.847,1693.732l8.544-8.829a.638.638,0,1,0-.916-.887l-8.544,8.828a.638.638,0,1,0,.916.887Zm-8.112-13.357,8.555-8.818a.638.638,0,0,0-.915-.888l-8.556,8.818a.638.638,0,1,0,.916.888Zm21.449,7.3a17.033,17.033,0,0,1,4.947-3.958,3.1,3.1,0,0,1,2.075-.28,2.581,2.581,0,0,1,1.541,1.678c1.128,2.733.135,5.21-1.708,7.189a17,17,0,0,1-7.325,4.366.637.637,0,1,0,.359,1.223,18.33,18.33,0,0,0,7.9-4.72c2.186-2.347,3.292-5.3,1.953-8.545a3.767,3.767,0,0,0-2.357-2.413,4.356,4.356,0,0,0-2.941.331,18.805,18.805,0,0,0-5.41,4.3.637.637,0,0,0,.968.83Z" transform="translate(-1710.169 -1454.582)" fill-rule="evenodd"/>
      <path id="Path_46645" data-name="Path 46645" d="M796.188,1996.842c-16.8-8.375-62.542-16.484-96.084-21.624-56.25-8.619-79.424,63.362-22.137,74.852,44.276,8.879,112.857,9.954,131.944.439C831.283,2039.856,817.56,2007.5,796.188,1996.842Z" transform="translate(-570.258 -1708.693)" fill="#7d42fb" stroke="#020f1e" stroke-width="1" fill-rule="evenodd"/>
      <path id="Path_46646" data-name="Path 46646" d="M966.447,1993.022c-16.834-8.392-62.663-16.533-96.272-21.683a56.119,56.119,0,0,0-21.512.674.638.638,0,1,0,.294,1.241,54.849,54.849,0,0,1,21.025-.655c33.475,5.129,79.128,13.205,95.9,21.564a.638.638,0,0,0,.569-1.142Z" transform="translate(-740.232 -1705.444)" fill-rule="evenodd"/>
      <path id="Path_46647" data-name="Path 46647" d="M1381.173,1756.532l8.871-15,5.215,3.085-8.871,15a3.638,3.638,0,0,1-.026,3.457c-1.089,1.84-3.81,2.246-6.075.907s-3.219-3.92-2.131-5.76A3.637,3.637,0,0,1,1381.173,1756.532Z" transform="translate(-1182.825 -1513.973)" fill="#fff" stroke="#020f1e" stroke-linecap="round" stroke-linejoin="round" stroke-width="1" fill-rule="evenodd"/>
      <path id="Path_46648" data-name="Path 46648" d="M1305.934,1197.71c24.973,0,43.018,39.124,43.018,60.942s-22.62,44.5-41.162,44.5c-24.973,0-54.91-32.105-54.91-53.923S1280.961,1197.71,1305.934,1197.71Z" transform="translate(-1078.493 -1059.436)" fill="#7d42fb" stroke="#020f1e" stroke-width="1" fill-rule="evenodd"/>
      <path id="Path_46649" data-name="Path 46649" d="M1396.5,1565.644c0,10.755-5.593,21.714-13.453,29.993-7.843,8.261-17.952,13.869-27.072,13.869-15.765,0-33.5-12.978-44.291-27.947a.638.638,0,0,0-1.035.746c11.029,15.3,29.213,28.477,45.326,28.477,9.421,0,19.894-5.733,28-14.267,8.086-8.517,13.8-19.807,13.8-30.87a.637.637,0,0,0-1.275,0Z" transform="translate(-1126.676 -1366.428)" fill="#020f1e" fill-rule="evenodd"/>
      <path id="Path_46650" data-name="Path 46650" d="M1348.828,1519.994c18.871,4.241,30.44,9.731,30.44,21.949s-14.334,24.922-26.084,24.922c-15.825,0-42.98-27.5-42.98-39.715S1333.387,1516.523,1348.828,1519.994Z" transform="translate(-1126.406 -1326.717)" fill="#020f1e" fill-rule="evenodd"/>
      <path id="Path_46651" data-name="Path 46651" d="M1380.15,1517.924c8.007-1.157,18.724.177,27.141,2.068,15.915,3.577,26.637,8.042,29.606,16.684-3.224,10.353-15.185,19.674-25.25,19.674-15.24,0-30.4-25.617-31.5-38.426Z" transform="translate(-1184.868 -1326.716)" fill="#fff" fill-rule="evenodd"/>
      <path id="Path_46652" data-name="Path 46652" d="M1499.985,1551.592h16.259a.638.638,0,1,0,0-1.275h-16.259a.638.638,0,1,0,0,1.275Zm10.483-7.986-6.968-.465.872-14.471a.638.638,0,1,0-1.273-.077l-.909,15.1a.637.637,0,0,0,.594.674l7.6.507a.638.638,0,0,0,.085-1.272Z" transform="translate(-1284.495 -1335.493)" fill="#020f1e" fill-rule="evenodd"/>
      <path id="Path_46653" data-name="Path 46653" d="M1157.01,2011.907l16.12-102.658-200.649.849,12.3,104.355Z" transform="translate(-844.131 -1654.152)" fill="#fff" stroke="#020f1e" stroke-width="1" fill-rule="evenodd"/>
      <path id="Path_46654" data-name="Path 46654" d="M1017.938,2527.281l.483,10.457,180.346.166-.343-12.871-180.486,2.247Z" transform="translate(-882.125 -2168.834)" fill="#020f1e" fill-rule="evenodd"/>
      <circle id="Ellipse_1814" data-name="Ellipse 1814" cx="21.795" cy="21.795" r="21.795" transform="translate(206.878 289.873)" fill="#fff" stroke="#020f1e" stroke-width="1"/>
      <path id="Path_46655" data-name="Path 46655" d="M691.9,2603.42H985.514v15.274H691.9Z" transform="translate(-609.618 -2234.351)" fill="#fff" stroke="#020f1e" stroke-width="1" fill-rule="evenodd"/>
    </g>
    <g id="Group_10973" data-name="Group 10973" transform="translate(11718.713 1157.264)">
      <g id="Group_6" data-name="Group 6" transform="matrix(-0.891, 0.454, -0.454, -0.891, 261.85, 32.045)">
        <path id="Rectangle_2_copy_2" data-name="Rectangle 2 copy 2" d="M26.02,18.741a9.975,9.975,0,0,1-1.175-.07L7.563,16.614A8.583,8.583,0,0,1,.041,7.326,8.109,8.109,0,0,1,8.148,0,8.528,8.528,0,0,1,9.2.066l17.282,2.16a8.192,8.192,0,0,1,4.629,2.438v0l.017.016.061.06c.025.015.3.312.582.65a9.412,9.412,0,0,1,1.979,6.707,7.093,7.093,0,0,1-2.515,4.872A8.148,8.148,0,0,1,26.02,18.741ZM8.71,3.579A4.687,4.687,0,0,0,4.025,7.812a4.961,4.961,0,0,0,4.34,5.367L24.926,15.17a4.737,4.737,0,0,0,.576.035A4.652,4.652,0,0,0,30.14,11a4.914,4.914,0,0,0-4.266-5.33L9.313,3.616A4.925,4.925,0,0,0,8.71,3.579Z" transform="translate(105.538 35.965) rotate(180)" fill="#fff" stroke="#020f1e" stroke-width="1"/>
        <path id="Rectangle_2_copy" data-name="Rectangle 2 copy" d="M25.984,18.738a9.671,9.671,0,0,1-1.138-.068L7.564,16.615a8.493,8.493,0,0,1-3.18-1.038A8.649,8.649,0,0,1,.378,10.633,8.321,8.321,0,0,1,.041,7.325,8.128,8.128,0,0,1,.9,4.4a8.027,8.027,0,0,1,1.793-2.32A8.166,8.166,0,0,1,8.149,0,8.531,8.531,0,0,1,9.2.066l17.282,2.16A7.492,7.492,0,0,1,29.59,3.354a8.659,8.659,0,0,1,2.382,2.268A9.532,9.532,0,0,1,33.42,8.633a9.056,9.056,0,0,1,.3,3.356,7.7,7.7,0,0,1-.818,2.8,7.026,7.026,0,0,1-1.7,2.126,7.478,7.478,0,0,1-2.375,1.349A8.594,8.594,0,0,1,25.984,18.738ZM8.71,3.579A4.686,4.686,0,0,0,4.026,7.811a4.961,4.961,0,0,0,4.34,5.368L24.927,15.17a4.827,4.827,0,0,0,.575.035A4.651,4.651,0,0,0,30.141,11a4.915,4.915,0,0,0-4.266-5.331L9.313,3.616A4.927,4.927,0,0,0,8.71,3.579Z" transform="translate(106.973 34.94) rotate(180)" fill="#fff" stroke="#020f1e" stroke-width="1"/>
        <path id="Rectangle_2_copy_4" data-name="Rectangle 2 copy 4" d="M26.646,15.224a14.408,14.408,0,0,1-3.182-.352L6.4,11a11.9,11.9,0,0,1-1.923-.608,10.052,10.052,0,0,1-1.642-.86A6.926,6.926,0,0,1,.588,7.259a3.933,3.933,0,0,1-.414-3.2,4.371,4.371,0,0,1,1-1.665,6.419,6.419,0,0,1,1.715-1.28A9.316,9.316,0,0,1,5.144.29,11.786,11.786,0,0,1,7.776,0a13,13,0,0,1,2.653.276l18.529,3.87a12.922,12.922,0,0,1,2.187.655,9.921,9.921,0,0,1,1.793.936A6.013,6.013,0,0,1,35.157,8.2a3.648,3.648,0,0,1-.2,3.442,6.7,6.7,0,0,1-3.286,2.631A13.056,13.056,0,0,1,26.646,15.224ZM8.431,2.608a6.151,6.151,0,0,0-2.8.624A3.066,3.066,0,0,0,4.042,4.9a2.255,2.255,0,0,0,.2,1.875,5.121,5.121,0,0,0,3.4,2.192L24.281,12.68a8.332,8.332,0,0,0,1.812.2,7.473,7.473,0,0,0,2.931-.566,3.783,3.783,0,0,0,1.882-1.553A2.1,2.1,0,0,0,30.981,8.8a4.88,4.88,0,0,0-3.542-2.317L9.992,2.774A7.51,7.51,0,0,0,8.431,2.608Z" transform="translate(82.013 27.11) rotate(180)" fill="#fff" stroke="#020f1e" stroke-width="1"/>
        <path id="Rectangle_2_copy_3" data-name="Rectangle 2 copy 3" d="M26.646,15.224a14.409,14.409,0,0,1-3.182-.352L6.4,11a11.9,11.9,0,0,1-1.923-.608,10.052,10.052,0,0,1-1.642-.86A6.926,6.926,0,0,1,.588,7.259a3.933,3.933,0,0,1-.414-3.2,4.371,4.371,0,0,1,1-1.665,6.419,6.419,0,0,1,1.715-1.28A9.316,9.316,0,0,1,5.144.29,11.786,11.786,0,0,1,7.776,0a13,13,0,0,1,2.653.276l18.529,3.87a12.922,12.922,0,0,1,2.187.655,9.921,9.921,0,0,1,1.793.936A6.013,6.013,0,0,1,35.157,8.2a3.648,3.648,0,0,1-.2,3.442,6.7,6.7,0,0,1-3.286,2.631A13.056,13.056,0,0,1,26.646,15.224ZM8.431,2.608a6.151,6.151,0,0,0-2.8.624A3.066,3.066,0,0,0,4.042,4.9a2.255,2.255,0,0,0,.2,1.875,5.121,5.121,0,0,0,3.4,2.192L24.281,12.68a8.332,8.332,0,0,0,1.812.2,7.473,7.473,0,0,0,2.931-.566,3.783,3.783,0,0,0,1.882-1.553A2.1,2.1,0,0,0,30.981,8.8a4.88,4.88,0,0,0-3.542-2.317L9.992,2.774A7.51,7.51,0,0,0,8.431,2.608Z" transform="translate(82.013 28.954) rotate(180)" fill="#fff" stroke="#020f1e" stroke-width="1"/>
        <path id="Shape_6" data-name="Shape 6" d="M6.052,6.763A5.52,5.52,0,0,1,3.592,1.23L.109,0S-.925,6.1,3.387,9.017Z" transform="translate(73.215 22.059)" fill="#fff"/>
        <path id="Rectangle_2_copy_5" data-name="Rectangle 2 copy 5" d="M23.223,18.8a7.561,7.561,0,0,1-1.713-.2L6.052,15a7.763,7.763,0,0,1-2.778-1.259A7.853,7.853,0,0,1,1.239,11.6a7.762,7.762,0,0,1-1.1-2.73A7.545,7.545,0,0,1,.167,5.85a7.394,7.394,0,0,1,.962-2.39,7.3,7.3,0,0,1,1.65-1.847A7.437,7.437,0,0,1,7.412,0,7.7,7.7,0,0,1,9.2.213l15.448,3.7a7.62,7.62,0,0,1,2.728,1.258A7.792,7.792,0,0,1,30.438,10a7.531,7.531,0,0,1-.036,2.99,7.383,7.383,0,0,1-.956,2.373A7.337,7.337,0,0,1,23.223,18.8ZM7.916,3.311A4.244,4.244,0,0,0,3.73,6.691,4.514,4.514,0,0,0,7.124,11.98l14.812,3.47a4.369,4.369,0,0,0,1,.116,4.215,4.215,0,0,0,4.15-3.362,4.473,4.473,0,0,0-3.331-5.249L8.945,3.433A4.448,4.448,0,0,0,7.916,3.311Z" transform="translate(55.826 24.453) rotate(180)" fill="#fff" stroke="#020f1e" stroke-width="1"/>
        <path id="Rectangle_2_copy_5-2" data-name="Rectangle 2 copy 5" d="M23.223,18.8a7.558,7.558,0,0,1-1.712-.2L6.052,15a7.762,7.762,0,0,1-2.778-1.259A7.854,7.854,0,0,1,1.239,11.6a7.761,7.761,0,0,1-1.1-2.73A7.546,7.546,0,0,1,.167,5.85a7.394,7.394,0,0,1,.962-2.39,7.3,7.3,0,0,1,1.65-1.847A7.437,7.437,0,0,1,7.412,0,7.7,7.7,0,0,1,9.2.213l15.448,3.7a7.62,7.62,0,0,1,2.728,1.258A7.793,7.793,0,0,1,30.438,10a7.531,7.531,0,0,1-.036,2.99,7.383,7.383,0,0,1-.956,2.373A7.337,7.337,0,0,1,23.223,18.8ZM7.917,3.311A4.244,4.244,0,0,0,3.73,6.691,4.514,4.514,0,0,0,7.124,11.98l14.812,3.47a4.372,4.372,0,0,0,1,.116,4.216,4.216,0,0,0,4.15-3.362,4.473,4.473,0,0,0-3.331-5.249L8.945,3.433A4.449,4.449,0,0,0,7.917,3.311Z" transform="translate(57.229 23.671) rotate(180)" fill="#fff" stroke="#020f1e" stroke-width="1"/>
        <path id="Shape_8" data-name="Shape 8" d="M11.066,2.778S5.7,1.175,3.484,4.213L0,2.573A12.581,12.581,0,0,1,10.656.319Z" transform="translate(47.708 13.747)" fill="#fff"/>
        <path id="Rectangle_2_copy_5-3" data-name="Rectangle 2 copy 5" d="M26.646,15.224a14.408,14.408,0,0,1-3.182-.352L6.4,11a11.9,11.9,0,0,1-1.923-.608,10.053,10.053,0,0,1-1.642-.86A6.927,6.927,0,0,1,.588,7.26a3.933,3.933,0,0,1-.414-3.2,4.37,4.37,0,0,1,1-1.665,6.419,6.419,0,0,1,1.715-1.28A9.316,9.316,0,0,1,5.144.29,11.787,11.787,0,0,1,7.776,0a13,13,0,0,1,2.653.276l18.529,3.87a12.92,12.92,0,0,1,2.187.656,9.919,9.919,0,0,1,1.793.936A6.013,6.013,0,0,1,35.157,8.2a3.648,3.648,0,0,1-.2,3.442,6.7,6.7,0,0,1-3.285,2.631A13.055,13.055,0,0,1,26.646,15.224ZM8.432,2.608a6.152,6.152,0,0,0-2.8.624A3.066,3.066,0,0,0,4.042,4.9a2.255,2.255,0,0,0,.2,1.875,5.121,5.121,0,0,0,3.4,2.192L24.281,12.68a8.331,8.331,0,0,0,1.812.2,7.473,7.473,0,0,0,2.931-.565,3.784,3.784,0,0,0,1.882-1.553A2.1,2.1,0,0,0,30.981,8.8a4.88,4.88,0,0,0-3.542-2.317L9.992,2.774A7.513,7.513,0,0,0,8.432,2.608Z" transform="translate(35.494 15.224) rotate(180)" fill="#fff" stroke="#020f1e" stroke-width="1"/>
        <path id="Rectangle_2_copy_5-4" data-name="Rectangle 2 copy 5" d="M26.646,15.224a14.408,14.408,0,0,1-3.182-.352L6.4,11a11.9,11.9,0,0,1-1.923-.608,10.053,10.053,0,0,1-1.642-.86A6.927,6.927,0,0,1,.588,7.26a3.933,3.933,0,0,1-.414-3.2,4.37,4.37,0,0,1,1-1.665,6.419,6.419,0,0,1,1.715-1.28A9.316,9.316,0,0,1,5.144.29,11.787,11.787,0,0,1,7.776,0a13,13,0,0,1,2.653.276l18.529,3.87a12.919,12.919,0,0,1,2.187.656,9.922,9.922,0,0,1,1.793.936A6.013,6.013,0,0,1,35.157,8.2a3.648,3.648,0,0,1-.2,3.442,6.7,6.7,0,0,1-3.285,2.631A13.055,13.055,0,0,1,26.646,15.224ZM8.432,2.608a6.152,6.152,0,0,0-2.8.624A3.066,3.066,0,0,0,4.042,4.9a2.255,2.255,0,0,0,.2,1.875,5.121,5.121,0,0,0,3.4,2.192L24.281,12.68a8.331,8.331,0,0,0,1.812.2,7.473,7.473,0,0,0,2.931-.565,3.784,3.784,0,0,0,1.882-1.553A2.1,2.1,0,0,0,30.981,8.8a4.88,4.88,0,0,0-3.542-2.317L9.992,2.774A7.513,7.513,0,0,0,8.432,2.608Z" transform="translate(35.494 17.069) rotate(180)" fill="#fff" stroke="#020f1e" stroke-width="1"/>
        <path id="Shape_10" data-name="Shape 10" d="M7.175,5.533A4.925,4.925,0,0,1,3.487,0L0,.615A7.8,7.8,0,0,0,2.872,6.763" transform="translate(26.597 11.402)" fill="#fff"/>
        <path id="Shape_11" data-name="Shape 11" d="M3.311,7.992S-.379,6.143.032,0L1.261.82A9.193,9.193,0,0,0,5.155,7.582Z" transform="translate(25.339 11.402)" fill="#fff"/>
        <path id="Shape_7" data-name="Shape 7" d="M4.449,7.582l-1.775.6S-.736,4.662.146,0h1.23A9.585,9.585,0,0,0,4.449,7.582Z" transform="translate(71.744 23.288)" fill="#fff"/>
        <path id="Shape_9" data-name="Shape 9" d="M10.041,2.107A15.759,15.759,0,0,0,.615,3.131L0,1.9S3.892-1.136,10.656.467Z" transform="translate(48.733 11.96)" fill="#fff"/>
        <path id="Path_24718" data-name="Path 24718" d="M5.388,7.74S.171,6.416,0,0" transform="translate(26.663 11.875)" fill="none" stroke="#020f1e" stroke-width="1"/>
        <path id="Path_24719" data-name="Path 24719" d="M2.712,5.9S-.453,4.708.055.354L.128,0" transform="translate(76.901 22.932)" fill="none" stroke="#020f1e" stroke-width="1"/>
        <path id="Path_24720" data-name="Path 24720" d="M3.652,9.213S-1.013,6.65.2,0" transform="translate(73.195 21.992)" fill="none" stroke="#020f1e" stroke-width="1"/>
        <path id="Path_24721" data-name="Path 24721" d="M3.206,8.651A8.961,8.961,0,0,1,.172,0" transform="translate(71.723 23.111)" fill="none" stroke="#020f1e" stroke-width="1"/>
        <path id="Path_24722" data-name="Path 24722" d="M7.815.492S1.993-1.3,0,1.966" transform="translate(51.202 16.067)" fill="none" stroke="#020f1e" stroke-width="1"/>
        <path id="Path_24723" data-name="Path 24723" d="M0,2.734S3.317-1.284,11.4.422" transform="translate(47.64 13.748)" fill="none" stroke="#020f1e" stroke-width="1"/>
        <path id="Path_24724" data-name="Path 24724" d="M11.2.513S4.08-1.373,0,2.087" transform="translate(48.298 11.934)" fill="none" stroke="#020f1e" stroke-width="1"/>
        <path id="Path_24725" data-name="Path 24725" d="M4.254,8.623A7.563,7.563,0,0,1,.2,0" transform="translate(25.253 11.316)" fill="none" stroke="#020f1e" stroke-width="1"/>
        <path id="Path_24726" data-name="Path 24726" d="M4.634,5.679S-1.254,4.913.244,0" transform="translate(29.894 11.291)" fill="none" stroke="#020f1e" stroke-width="1"/>
      </g>
      <g id="Group_6-2" data-name="Group 6" transform="matrix(0.966, -0.259, 0.259, 0.966, 0, 90.003)">
        <path id="Rectangle_2_copy_2-2" data-name="Rectangle 2 copy 2" d="M24.59,0a9.43,9.43,0,0,0-1.11.067L7.148,2.009a8.027,8.027,0,0,0-3.005.981A8.173,8.173,0,0,0,.358,7.662a7.863,7.863,0,0,0-.319,3.126A7.68,7.68,0,0,0,.85,13.557a7.586,7.586,0,0,0,1.694,2.192A7.717,7.717,0,0,0,7.7,17.711a8.063,8.063,0,0,0,1-.062L25.03,15.607a7,7,0,0,0,2.939-1.081,8.31,8.31,0,0,0,2.261-2.178A9.055,9.055,0,0,0,31.9,6.28a6.7,6.7,0,0,0-2.377-4.6A7.059,7.059,0,0,0,27.278.433,8.31,8.31,0,0,0,24.59,0ZM8.233,14.329h0a4.429,4.429,0,0,1-4.428-4,4.688,4.688,0,0,1,4.1-5.073L23.558,3.374a4.562,4.562,0,0,1,.544-.033,4.4,4.4,0,0,1,4.383,3.977,4.645,4.645,0,0,1-4.032,5.038L8.8,14.293a4.653,4.653,0,0,1-.569.035Z" transform="translate(99.74 17.711) rotate(180)" fill="#fff" stroke="#020f1e" stroke-width="0.5"/>
        <path id="Rectangle_2_copy-2" data-name="Rectangle 2 copy" d="M24.556,0a9.139,9.139,0,0,0-1.075.064L7.148,2.007a8.026,8.026,0,0,0-3.006.981A8.173,8.173,0,0,0,.358,7.66a7.863,7.863,0,0,0-.319,3.126A7.681,7.681,0,0,0,.85,13.554a7.586,7.586,0,0,0,1.694,2.192A7.717,7.717,0,0,0,7.7,17.709a8.062,8.062,0,0,0,1-.062L25.03,15.6a7.08,7.08,0,0,0,2.935-1.066A8.183,8.183,0,0,0,30.215,12.4,9.008,9.008,0,0,0,31.584,9.55a8.559,8.559,0,0,0,.286-3.172A7.273,7.273,0,0,0,31.1,3.73a6.64,6.64,0,0,0-1.6-2.009A7.067,7.067,0,0,0,27.249.446,8.122,8.122,0,0,0,24.556,0ZM8.232,14.326a4.429,4.429,0,0,1-4.427-4,4.688,4.688,0,0,1,4.1-5.073L23.558,3.372A4.562,4.562,0,0,1,24.1,3.34a4.4,4.4,0,0,1,4.383,3.977,4.645,4.645,0,0,1-4.032,5.038L8.8,14.291A4.656,4.656,0,0,1,8.232,14.326Z" transform="translate(101.096 18.677) rotate(180)" fill="#fff" stroke="#020f1e" stroke-width="0.5"/>
        <path id="Rectangle_2_copy_4-2" data-name="Rectangle 2 copy 4" d="M25.182,0a13.616,13.616,0,0,0-3.007.333L6.047,3.991a11.249,11.249,0,0,0-1.817.574,9.5,9.5,0,0,0-1.552.813A6.545,6.545,0,0,0,.555,7.527a3.717,3.717,0,0,0-.391,3.027,4.131,4.131,0,0,0,.941,1.573,6.066,6.066,0,0,0,1.62,1.209,8.8,8.8,0,0,0,2.136.776,11.139,11.139,0,0,0,2.487.274,12.288,12.288,0,0,0,2.507-.261L27.366,10.47a12.213,12.213,0,0,0,2.067-.619,9.376,9.376,0,0,0,1.695-.884,5.683,5.683,0,0,0,2.1-2.328,3.448,3.448,0,0,0-.193-3.253A6.328,6.328,0,0,0,29.927.9,12.339,12.339,0,0,0,25.182,0ZM7.968,11.923a5.813,5.813,0,0,1-2.647-.59,2.9,2.9,0,0,1-1.5-1.576,2.131,2.131,0,0,1,.193-1.772A4.84,4.84,0,0,1,7.224,5.914L22.947,2.4a7.874,7.874,0,0,1,1.713-.187,7.063,7.063,0,0,1,2.77.534,3.575,3.575,0,0,1,1.778,1.468,1.988,1.988,0,0,1,.071,1.848,4.612,4.612,0,0,1-3.347,2.19L9.443,11.767A7.1,7.1,0,0,1,7.968,11.923Z" transform="translate(77.507 22.756) rotate(180)" fill="#fff" stroke="#020f1e" stroke-width="0.5"/>
        <path id="Rectangle_2_copy_3-2" data-name="Rectangle 2 copy 3" d="M25.182,0a13.617,13.617,0,0,0-3.007.333L6.047,3.991a11.248,11.248,0,0,0-1.817.574,9.5,9.5,0,0,0-1.552.813A6.545,6.545,0,0,0,.555,7.527a3.717,3.717,0,0,0-.391,3.027,4.131,4.131,0,0,0,.941,1.573,6.066,6.066,0,0,0,1.62,1.209,8.8,8.8,0,0,0,2.136.776,11.139,11.139,0,0,0,2.487.274,12.288,12.288,0,0,0,2.507-.261L27.366,10.47a12.212,12.212,0,0,0,2.067-.619,9.376,9.376,0,0,0,1.695-.884,5.683,5.683,0,0,0,2.1-2.328,3.448,3.448,0,0,0-.193-3.253A6.327,6.327,0,0,0,29.927.9,12.339,12.339,0,0,0,25.182,0ZM7.968,11.923a5.813,5.813,0,0,1-2.647-.59,2.9,2.9,0,0,1-1.5-1.576,2.131,2.131,0,0,1,.193-1.772A4.84,4.84,0,0,1,7.224,5.914L22.947,2.4a7.874,7.874,0,0,1,1.713-.187,7.063,7.063,0,0,1,2.77.534,3.575,3.575,0,0,1,1.778,1.468,1.988,1.988,0,0,1,.071,1.848,4.612,4.612,0,0,1-3.347,2.19L9.443,11.767A7.1,7.1,0,0,1,7.968,11.923Z" transform="translate(77.507 21.013) rotate(180)" fill="#fff" stroke="#020f1e" stroke-width="0.5"/>
        <path id="Shape_6-2" data-name="Shape 6" d="M5.719,2.13A5.217,5.217,0,0,0,3.4,7.359L.1,8.521S-.875,2.761,3.2,0Z" transform="translate(69.192 4.621)" fill="#fff"/>
        <path id="Rectangle_2_copy_5-5" data-name="Rectangle 2 copy 5" d="M21.947,0a7.145,7.145,0,0,0-1.618.187L5.719,3.59A7.336,7.336,0,0,0,3.093,4.78,7.422,7.422,0,0,0,1.171,6.8,7.335,7.335,0,0,0,.132,9.384a7.131,7.131,0,0,0,.025,2.858,6.987,6.987,0,0,0,.91,2.259,6.9,6.9,0,0,0,1.559,1.745A7.028,7.028,0,0,0,7.005,17.77a7.28,7.28,0,0,0,1.691-.2l14.6-3.493a7.2,7.2,0,0,0,2.578-1.189,7.364,7.364,0,0,0,2.891-4.566A7.117,7.117,0,0,0,28.732,5.5a6.978,6.978,0,0,0-.9-2.243A6.934,6.934,0,0,0,21.947,0ZM7.481,14.641a4.011,4.011,0,0,1-3.956-3.194,4.266,4.266,0,0,1,3.208-5l14-3.279a4.129,4.129,0,0,1,.941-.109,3.984,3.984,0,0,1,3.922,3.177,4.227,4.227,0,0,1-3.148,4.96L8.453,14.526A4.2,4.2,0,0,1,7.481,14.641Z" transform="translate(52.759 28.65) rotate(180)" fill="#fff" stroke="#020f1e" stroke-width="0.5"/>
        <path id="Rectangle_2_copy_5-6" data-name="Rectangle 2 copy 5" d="M21.947,0a7.143,7.143,0,0,0-1.618.187L5.719,3.59A7.336,7.336,0,0,0,3.093,4.78,7.422,7.422,0,0,0,1.171,6.8,7.335,7.335,0,0,0,.132,9.384a7.132,7.132,0,0,0,.025,2.858,6.988,6.988,0,0,0,.91,2.259,6.9,6.9,0,0,0,1.559,1.745A7.028,7.028,0,0,0,7.005,17.77a7.28,7.28,0,0,0,1.691-.2l14.6-3.492a7.2,7.2,0,0,0,2.578-1.189,7.365,7.365,0,0,0,2.891-4.566A7.117,7.117,0,0,0,28.732,5.5a6.977,6.977,0,0,0-.9-2.243A6.934,6.934,0,0,0,21.947,0ZM7.482,14.641a4.011,4.011,0,0,1-3.957-3.194,4.266,4.266,0,0,1,3.208-5l14-3.279a4.132,4.132,0,0,1,.941-.109,3.984,3.984,0,0,1,3.922,3.177,4.227,4.227,0,0,1-3.148,4.96L8.453,14.526A4.2,4.2,0,0,1,7.482,14.641Z" transform="translate(54.085 29.389) rotate(180)" fill="#fff" stroke="#020f1e" stroke-width="0.5"/>
        <path id="Shape_8-2" data-name="Shape 8" d="M10.458,1.356S5.382,2.871,3.292,0L0,1.549A11.89,11.89,0,0,0,10.071,3.68Z" transform="translate(45.087 17.015)" fill="#fff"/>
        <path id="Rectangle_2_copy_5-7" data-name="Rectangle 2 copy 5" d="M25.182,0a13.617,13.617,0,0,0-3.008.333L6.047,3.99a11.25,11.25,0,0,0-1.817.574,9.5,9.5,0,0,0-1.552.813A6.546,6.546,0,0,0,.555,7.527a3.717,3.717,0,0,0-.391,3.027A4.13,4.13,0,0,0,1.1,12.128a6.067,6.067,0,0,0,1.621,1.209,8.8,8.8,0,0,0,2.136.776,11.139,11.139,0,0,0,2.487.274,12.287,12.287,0,0,0,2.507-.261L27.366,10.47a12.21,12.21,0,0,0,2.067-.619,9.374,9.374,0,0,0,1.695-.884,5.683,5.683,0,0,0,2.1-2.328,3.448,3.448,0,0,0-.193-3.253A6.327,6.327,0,0,0,29.927.9,12.338,12.338,0,0,0,25.182,0ZM7.968,11.923a5.814,5.814,0,0,1-2.647-.59,2.9,2.9,0,0,1-1.5-1.576,2.131,2.131,0,0,1,.193-1.772A4.84,4.84,0,0,1,7.224,5.914L22.947,2.4a7.873,7.873,0,0,1,1.713-.187,7.063,7.063,0,0,1,2.77.534,3.576,3.576,0,0,1,1.778,1.467,1.988,1.988,0,0,1,.071,1.849,4.612,4.612,0,0,1-3.347,2.19L9.443,11.767A7.1,7.1,0,0,1,7.968,11.923Z" transform="translate(33.544 33.989) rotate(180)" fill="#fff" stroke="#020f1e" stroke-width="0.5"/>
        <path id="Rectangle_2_copy_5-8" data-name="Rectangle 2 copy 5" d="M25.182,0a13.617,13.617,0,0,0-3.008.333L6.047,3.99a11.25,11.25,0,0,0-1.817.574,9.5,9.5,0,0,0-1.552.813A6.546,6.546,0,0,0,.555,7.527a3.717,3.717,0,0,0-.391,3.027A4.13,4.13,0,0,0,1.1,12.128a6.067,6.067,0,0,0,1.621,1.209,8.8,8.8,0,0,0,2.136.776,11.139,11.139,0,0,0,2.487.274,12.287,12.287,0,0,0,2.507-.261L27.366,10.47a12.209,12.209,0,0,0,2.067-.619,9.377,9.377,0,0,0,1.695-.884,5.683,5.683,0,0,0,2.1-2.328,3.448,3.448,0,0,0-.193-3.253A6.327,6.327,0,0,0,29.927.9,12.338,12.338,0,0,0,25.182,0ZM7.968,11.923a5.814,5.814,0,0,1-2.647-.59,2.9,2.9,0,0,1-1.5-1.576,2.131,2.131,0,0,1,.193-1.772A4.84,4.84,0,0,1,7.224,5.914L22.947,2.4a7.873,7.873,0,0,1,1.713-.187,7.063,7.063,0,0,1,2.77.534,3.576,3.576,0,0,1,1.778,1.467,1.988,1.988,0,0,1,.071,1.849,4.612,4.612,0,0,1-3.347,2.19L9.443,11.767A7.1,7.1,0,0,1,7.968,11.923Z" transform="translate(33.544 32.246) rotate(180)" fill="#fff" stroke="#020f1e" stroke-width="0.5"/>
        <path id="Shape_10-2" data-name="Shape 10" d="M6.781,1.162A4.654,4.654,0,0,0,3.3,6.391L0,5.81A7.375,7.375,0,0,1,2.714,0" transform="translate(25.136 16.822)" fill="#fff"/>
        <path id="Shape_11-2" data-name="Shape 11" d="M3.129,0S-.359,1.748.03,7.553l1.162-.775A8.688,8.688,0,0,1,4.872.387Z" transform="translate(23.947 15.66)" fill="#fff"/>
        <path id="Shape_7-2" data-name="Shape 7" d="M4.21.173,2.393,0A8.516,8.516,0,0,0,.143,7.339H1.3A9.058,9.058,0,0,1,4.21.173Z" transform="translate(67.797 4.641)" fill="#fff"/>
        <path id="Shape_9-2" data-name="Shape 9" d="M9.49.968A14.893,14.893,0,0,1,.581,0L0,1.162S3.678,4.033,10.071,2.518Z" transform="translate(46.055 19.727)" fill="#fff"/>
        <path id="Path_24718-2" data-name="Path 24718" d="M5.092,0S.162,1.251,0,7.314" transform="translate(25.198 15.452)" fill="none" stroke="#020f1e" stroke-width="0.5"/>
        <path id="Path_24719-2" data-name="Path 24719" d="M2.37,0A5.188,5.188,0,0,0,.046,5.171l.068.335" transform="translate(72.682 6.811)" fill="none" stroke="#020f1e" stroke-width="0.5"/>
        <path id="Path_24720-2" data-name="Path 24720" d="M3.452,0S-.957,2.422.191,8.707" transform="translate(69.174 4.498)" fill="none" stroke="#020f1e" stroke-width="0.5"/>
        <path id="Path_24721-2" data-name="Path 24721" d="M2.658,0A9.1,9.1,0,0,0,.126,7.885" transform="translate(67.819 4.263)" fill="none" stroke="#020f1e" stroke-width="0.5"/>
        <path id="Path_24722-2" data-name="Path 24722" d="M7.386,1.392S1.884,3.09,0,0" transform="translate(48.389 16.947)" fill="none" stroke="#020f1e" stroke-width="0.5"/>
        <path id="Path_24723-2" data-name="Path 24723" d="M0,0S3.135,3.8,10.773,2.186" transform="translate(45.023 18.412)" fill="none" stroke="#020f1e" stroke-width="0.5"/>
        <path id="Path_24724-2" data-name="Path 24724" d="M10.366,1.328S4.362,3.217,0,0" transform="translate(45.866 20.898)" fill="none" stroke="#020f1e" stroke-width="0.5"/>
        <path id="Path_24725-2" data-name="Path 24725" d="M3.462,0A7.245,7.245,0,0,0,.174,7.857" transform="translate(23.885 15.437)" fill="none" stroke="#020f1e" stroke-width="0.5"/>
        <path id="Path_24726-2" data-name="Path 24726" d="M4.162,0S-.7.578.086,5.332" transform="translate(28.396 17.986)" fill="none" stroke="#020f1e" stroke-width="0.5"/>
      </g>
      <g id="Group_5" data-name="Group 5" transform="translate(84.994 15.865)">
        <path id="Shape_2_copy" data-name="Shape 2 copy" d="M828.185,301l5.493,5.493h0s3.282,28.541-6.825,54.665-31.286,35.727-31.286,35.727h0l-7.09-2.558s-42.358-20.222-36.705-80.062c0,0,27.063,16.964,40.932-4.678C792.706,309.587,817.812,322.9,828.185,301Z" transform="translate(-751.254 -301)" fill="#fff" stroke="#020f1e" stroke-width="1"/>
        <path id="Shape_2" data-name="Shape 2" d="M826.745,315s8.021,66.813-38.084,90.817c0,0-42.149-17.824-36.62-75.437,0,0,27.429,14.4,40.648-6.225C792.689,324.155,816.858,335.873,826.745,315Z" transform="translate(-744.321 -309.873)" fill="#fff" stroke="#020f1e" stroke-width="1"/>
        <path id="Shape_3" data-name="Shape 3" d="M830.789,363s-.951,46.81-30.76,67.014c0,0-30.064-18.19-30.028-56.761,0,0,21.57,8.359,35.521-6.958C805.521,366.3,819.62,374.9,830.789,363Z" transform="translate(-754.59 -340.296)" fill="#7d42fb" stroke="#020f1e" stroke-width="1"/>
        <path id="Shape_4" data-name="Shape 4" d="M770,430.73s26.444-19.465,27.465-63.719c0,0-10.539,8.5-23.2,1.305l1.242-1.305s14.18,7.08,25.254-3.19C800.761,363.822,800.633,409.706,770,430.73Z" transform="translate(-724.56 -341.012)" fill="#020f1e"/>
        <path id="Shape_5" data-name="Shape 5" d="M881.019,381S870.082,391.444,849,387.3v-2.924S866.493,391.742,881.019,381Z" transform="translate(-833.75 -351.704)" fill="#020f1e"/>
      </g>
    </g>
    <g id="Group_10983" data-name="Group 10983" transform="translate(11554.5 922.861)">
      <g id="Group_10977" data-name="Group 10977" transform="translate(0 178.802)">
        <path id="Path_46700" data-name="Path 46700" d="M11459.068,1118l76.455,47.7-66.724,29.873a2.474,2.474,0,0,1-3.283-1.184c-.99-2.171-20.8-73.562-20.8-73.562Z" transform="translate(-11378.43 -1081.567)" fill="#fff"/>
        <path id="Path_46698" data-name="Path 46698" d="M11376.7,1083.8l13.7,47.4,7.379,25.793s.382,3.391,4.511,1.086,65.389-29.677,65.389-29.677v5.075l-66.96,31.439s-2.395,2.016-5.407-.331-66.684-49.112-66.684-49.112l-17.794-67.08s-.563-2.4.9-3.433,4.04.472,4.04.472Z" transform="translate(-11310.554 -1044.385)" fill="#fff"/>
        <g id="woman-using-phone-while-working-on-laptop">
          <path id="Path_46694" data-name="Path 46694" d="M116.918,398.66,120.7,412.67q1.884,7.007,3.825,14l7.758,27.97q.977,3.494,1.92,7l.946,3.462a2.368,2.368,0,0,0,.851,1.145l1.467,1.067c3.906,2.854,7.835,5.677,11.722,8.556,7.776,5.756,15.578,11.478,23.315,17.288l23.248,17.379,5.83,4.32.729.539a3.666,3.666,0,0,0,.715.457,2.71,2.71,0,0,0,1.613.2,3,3,0,0,0,.791-.274l.82-.388,1.64-.776c4.373-2.068,8.749-4.131,13.105-6.234,17.462-8.338,34.843-16.843,52.253-25.289l-.32.508-.023-4.672.272.495-44.414-27.934c-7.4-4.652-14.768-9.369-22.154-14.05l-5.536-3.517-2.768-1.759a2.221,2.221,0,0,0-1.159-.354,2.2,2.2,0,0,0-.305.015c-.1.012-.188.03-.337.062l-.8.171c-4.277.91-8.55,1.832-12.834,2.709l-.288.059-.238-.152-16.784-10.729-16.741-10.8-16.76-10.768-8.408-5.339-2.1-1.335a4.08,4.08,0,0,0-1.082-.544,2.7,2.7,0,0,0-1.189-.076,2.939,2.939,0,0,0-1.977,1.261A2.849,2.849,0,0,0,116.918,398.66Zm-.143.038a3.008,3.008,0,0,1,.387-2.448,3.048,3.048,0,0,1,3.361-1.283,4.287,4.287,0,0,1,1.139.559l2.113,1.317,8.452,5.269,16.96,10.449,16.978,10.42L183.1,433.469l-.526-.093c4.267-.955,8.543-1.865,12.817-2.788l.8-.173c.119-.026.3-.066.469-.085a3.721,3.721,0,0,1,2.452.557l2.772,1.752,5.543,3.505c7.386,4.682,14.794,9.328,22.161,14.039l44.217,28.244.274.175,0,.32-.023,4.672,0,.358-.319.15c-17.519,8.216-35.067,16.373-52.535,24.7-4.376,2.062-8.733,4.165-13.092,6.263l-1.635.786-.817.393a3.543,3.543,0,0,1-.916.322,3.242,3.242,0,0,1-1.933-.224,4.189,4.189,0,0,1-.816-.508l-.733-.535-5.863-4.275-23.526-17c-7.855-5.649-15.645-11.388-23.46-17.091-3.908-2.851-7.775-5.758-11.665-8.634l-1.457-1.081a3.565,3.565,0,0,1-1.262-1.734c-.061-.183-.1-.334-.133-.475l-.115-.439-.229-.878-.458-1.755q-.923-3.509-1.814-7.026L124.1,426.784c-1.186-4.69-2.41-9.371-3.643-14.048Z" transform="translate(-116.668 -394.859)" fill="#020f1e"/>
          <path id="Path_46695" data-name="Path 46695" d="M250.532,474.281c1.987,5.933,3.864,11.9,5.675,17.881s3.587,11.977,5.236,18.007l2.4,9.066c.793,3.024,1.59,6.047,2.432,9.057,1.678,6.022,3.5,12,5.354,17.973l.349,1.119.174.56c.029.09.059.195.087.272a1.454,1.454,0,0,0,.089.208,1.488,1.488,0,0,0,1.461.808,2.345,2.345,0,0,0,.908-.342l1.048-.525,2.1-1.036c2.8-1.382,5.607-2.766,8.422-4.123,5.624-2.729,11.243-5.468,16.9-8.133,11.324-5.3,22.689-10.51,34.183-15.451l.064.134c-11.09,5.79-22.309,11.311-33.569,16.744-5.637,2.7-11.31,5.328-16.978,7.965-2.83,1.326-5.673,2.625-8.516,3.926l-2.131.976-1.069.481c-.191.082-.324.154-.577.248a2.381,2.381,0,0,1-.721.144,2.449,2.449,0,0,1-2.347-1.424,2.365,2.365,0,0,1-.126-.336l-.079-.29-.15-.567-.3-1.133c-1.608-6.042-3.251-12.074-5.036-18.065-.889-3-1.824-5.98-2.763-8.962l-2.794-8.953c-1.814-5.982-3.5-12-5.154-18.031s-3.239-12.077-4.715-18.157Z" transform="translate(-184.406 -435.091)" fill="#020f1e"/>
          <path id="Path_46699" data-name="Path 46699" d="M0,0,2.4,2.02l.855,29.13L0,29.267Z" transform="matrix(0.584, -0.812, 0.812, 0.584, 92.403, 54.696)" fill="#020f1e"/>
          <path id="Path_46696" data-name="Path 46696" d="M264.061,497.048c4.325,2.95,8.562,6.016,12.766,9.122,2.111,1.542,4.189,3.127,6.283,4.691l6.232,4.757,6.184,4.82c2.044,1.629,4.105,3.236,6.132,4.887,4.072,3.279,8.112,6.6,12.062,10.035-4.326-2.949-8.563-6.014-12.768-9.121-2.111-1.542-4.188-3.128-6.283-4.692l-6.231-4.758-6.182-4.822c-2.045-1.628-4.1-3.237-6.132-4.887C272.053,503.8,268.012,500.483,264.061,497.048Zm4.8,16.286c2.857,1.9,5.622,3.908,8.356,5.959,1.375,1.015,2.717,2.071,4.075,3.108l4.024,3.172,3.974,3.234c1.307,1.1,2.631,2.178,3.921,3.3,2.6,2.221,5.162,4.482,7.635,6.858-2.858-1.9-5.624-3.906-8.357-5.957-1.376-1.014-2.717-2.072-4.075-3.108l-4.022-3.174-3.972-3.236c-1.308-1.1-2.631-2.179-3.921-3.3C273.9,517.97,271.338,515.709,268.865,513.334Zm1.871,12.815c1.731,1.32,3.358,2.743,4.949,4.2.805.72,1.572,1.477,2.357,2.216l2.3,2.274q2.274,2.3,4.423,4.719c1.436,1.611,2.834,3.259,4.127,5.011-1.732-1.319-3.36-2.741-4.95-4.2s-3.141-2.957-4.654-4.492l-2.24-2.331c-.728-.8-1.474-1.574-2.181-2.39C273.429,529.547,272.031,527.9,270.736,526.149Z" transform="translate(-191.331 -446.624)" fill="#020f1e"/>
          <path id="Path_46697" data-name="Path 46697" d="M282.554,546.279c2.706-1.483,5.469-2.832,8.252-4.134,1.386-.664,2.793-1.278,4.19-1.916l4.222-1.84,4.254-1.766c1.429-.563,2.847-1.151,4.287-1.689,2.868-1.1,5.757-2.155,8.7-3.073-2.7,1.485-5.468,2.835-8.251,4.136-1.386.664-2.794,1.277-4.19,1.915l-4.223,1.838-4.254,1.765c-1.428.564-2.847,1.151-4.287,1.689C288.388,544.306,285.5,545.36,282.554,546.279Zm-4.806-8.544c2.183-1.367,4.429-2.6,6.7-3.791,1.128-.607,2.278-1.166,3.418-1.747l3.453-1.672,3.487-1.6c1.174-.508,2.337-1.041,3.523-1.524,2.36-.992,4.743-1.937,7.188-2.748-2.183,1.369-4.428,2.6-6.7,3.793-1.128.607-2.279,1.164-3.418,1.747l-3.454,1.67-3.488,1.6c-1.174.509-2.337,1.04-3.523,1.524C282.575,535.978,280.193,536.922,277.748,537.736Zm-2.67-11.213a56.459,56.459,0,0,1,5.046-2.8c.852-.441,1.725-.833,2.588-1.248l2.62-1.172c1.756-.761,3.537-1.463,5.337-2.121a55.891,55.891,0,0,1,5.5-1.739,55.842,55.842,0,0,1-5.045,2.8c-1.715.855-3.449,1.666-5.209,2.418l-2.653,1.1c-.895.341-1.78.706-2.685,1.021a56.6,56.6,0,0,1-5.5,1.741Zm-3.473-7.209a27.72,27.72,0,0,1,3.247-2.255q1.68-1.014,3.434-1.879t3.575-1.594a27.362,27.362,0,0,1,3.763-1.214,27.332,27.332,0,0,1-3.246,2.257q-1.68,1.013-3.435,1.877t-3.576,1.592A27.72,27.72,0,0,1,271.606,519.314Zm-2.134-9.321a8.7,8.7,0,0,1,1.4-1.683,13.977,13.977,0,0,1,1.644-1.339,13.738,13.738,0,0,1,1.826-1.078,8.591,8.591,0,0,1,2.068-.73,8.6,8.6,0,0,1-1.4,1.685,13.724,13.724,0,0,1-1.645,1.337,13.971,13.971,0,0,1-1.827,1.076A8.705,8.705,0,0,1,269.472,509.993Z" transform="translate(-194.072 -450.735)" fill="#020f1e"/>
        </g>
      </g>
      <g id="cyber-attack-protection" transform="translate(117.719 144.571)">
        <path id="Path_46675" data-name="Path 46675" d="M1646.446,1204.319l-9.358,9.08-5.188-3.281,12.185-9.409Z" transform="translate(-1559.771 -1185.853)" fill="#fff" stroke="#020f1e" stroke-width="1"/>
        <path id="Path_46666" data-name="Path 46666" d="M1890.95,2040.694l-5.26,1.349-2.5-7.325,5.259-1.348Z" transform="translate(-1788.593 -1944.065)" fill="#fff" stroke="#020f1e" stroke-width="1"/>
        <path id="Path_46667" data-name="Path 46667" d="M1895.629,2096.2l-.349,4.284a1.764,1.764,0,0,0,.193.988h0a1.953,1.953,0,0,0,2.286.806l9.833-2.447a7.605,7.605,0,0,0,2.415-1.089h0a1.69,1.69,0,0,0,.731-2.193h0a1.2,1.2,0,0,0-.79-.515l-7.649-2.391a1.06,1.06,0,0,0-.605.006l-5.115,1.48A1.313,1.313,0,0,0,1895.629,2096.2Z" transform="translate(-1799.597 -1998.908)" fill="#fff" stroke="#020f1e" stroke-width="1"/>
        <rect id="Rectangle_1495" data-name="Rectangle 1495" width="8.392" height="5.609" transform="translate(5.946 87.901) rotate(-0.351)" fill="#fff" stroke="#020f1e" stroke-width="1"/>
        <path id="Path_46668" data-name="Path 46668" d="M832.11,1643.255l-4.392-1.485a1.9,1.9,0,0,0-1.085-.056h0a2.107,2.107,0,0,0-1.442,2.181l-.012,10.929a8.206,8.206,0,0,0,.508,2.812h0a1.822,1.822,0,0,0,2.1,1.338h0a1.287,1.287,0,0,0,.746-.692l4.5-7.379a1.142,1.142,0,0,0,.152-.635l-.211-5.74A1.413,1.413,0,0,0,832.11,1643.255Zm36.114-33.268c-2.292,6.75-3.718,15.284-4.384,25.376a4.98,4.98,0,0,1-3.44,4.439,88.008,88.008,0,0,1-23.619,3.687v7.317l21.939-.487a14.794,14.794,0,0,0,12.915-8.2l10.2-20.472,26.919,7.453a5.84,5.84,0,0,1,3.876,3.491l7.165,18.212,7.188-2.645-6.94-21.653a12,12,0,0,0-6.247-7.051l-23.843-11.3s-4.132-1.729-10.368.448a30.351,30.351,0,0,1-5.045,1.358C872.259,1610.34,869.431,1610.622,868.224,1609.987Z" transform="translate(-825.18 -1556.278)" fill="#fff" stroke="#020f1e" stroke-width="1"/>
        <path id="Path_46669" data-name="Path 46669" d="M1491.549,1075.081a.193.193,0,0,0-.246.219l.473,2.586c.027.134.05.238-.027.318a2.59,2.59,0,0,1-.661.48,3.451,3.451,0,0,1-3.074-.249,7.654,7.654,0,0,1-1.891-1.311.145.145,0,0,1-.038-.115l.562-3.924a.19.19,0,0,0-.062-.166c-2.156-2.071-1.372-5.564-1.372-5.564,2.167-7.558,7.621-5.415,10.153-3.92a2.934,2.934,0,0,1,1.433,2.375C1497.325,1076.219,1492.778,1075.473,1491.549,1075.081Z" transform="translate(-1426.073 -1059.515)" fill="#fff" stroke="#020f1e" stroke-width="1"/>
        <path id="Path_46670" data-name="Path 46670" d="M1466.549,1043.17v2.4a.39.39,0,0,0,.54.359h0a.391.391,0,0,0,.237-.317l.2-1.768a1.1,1.1,0,0,1,.654-.882,2.553,2.553,0,0,0,1.72-2.3.485.485,0,0,1,.521-.49c.986.077,2.963.125,3.861-.608a3.476,3.476,0,0,1,.529-.358,1.9,1.9,0,0,0,1.111-2.2.466.466,0,0,0-.448-.338h-1.753a.24.24,0,0,1-.238-.213l-.167-1.5a.239.239,0,0,0-.338-.19l-1.959.906a1.246,1.246,0,0,1-1.294-.153,4.85,4.85,0,0,0-4.7-.665c-2.091.687-3.355,2.753-4.025,4.264a3.671,3.671,0,0,0,.065,3.1l1.117,2.281a1.944,1.944,0,0,1,.1.261c.214.676.864,3.734,2.11,3.28a.088.088,0,0,0,.056-.083l.406-1.49a1.812,1.812,0,0,0-.3-.995c-.524-.8-1.429-2.5,0-3.024a1.846,1.846,0,0,1,1.463.08A.8.8,0,0,1,1466.549,1043.17Z" transform="translate(-1403.865 -1034.542)" fill="#020f1e"/>
        <path id="Path_46671" data-name="Path 46671" d="M1496.924,1216.93l-.011.224c-.045-.056-.079-.113-.124-.18C1496.834,1216.964,1496.88,1216.942,1496.924,1216.93Z" transform="translate(-1436.741 -1200.623)" fill="#2b91cc"/>
        <path id="Path_46672" data-name="Path 46672" d="M1843.37,1249.168l1.044,2.682,1.212-.25s4.356.462,3.6-3.174a1.557,1.557,0,0,0-2.891-.432c-.01.018-.02.036-.029.055a.044.044,0,0,1-.083-.026l.176-1.188a.378.378,0,0,0-.307-.428h0a.379.379,0,0,0-.427.251l-.406,1.2a1.083,1.083,0,0,1-.534.619Z" transform="translate(-1752.334 -1227.458)" fill="#fff" stroke="#020f1e" stroke-width="1"/>
        <path id="Path_46673" data-name="Path 46673" d="M1343.936,1225.748l-12.415,8.447a4.019,4.019,0,0,1-3.5.5l-6.7-2.17-.429.895a54.394,54.394,0,0,0-5.187,19.381h0s-7.561,5.1-22.177,3.969a1.375,1.375,0,0,1-1.207-1.8l3.27-9.9a57.429,57.429,0,0,0,2.46-10.543c.665-5.078,3.167-13.832,12.408-17.051a.623.623,0,0,1,.079-.034c.045.067.078.123.123.18,1.438,2.011,2.819,2.472,5.336.786l8.706,5.864,5.156,3.471,13.133-6.609Z" transform="translate(-1250.491 -1201.087)" fill="#fff" stroke="#020f1e" stroke-width="1"/>
        <path id="Path_46674" data-name="Path 46674" d="M1764.23,1178.292l1.781,2.26,1.086-.593s4.3-.829,2.521-4.087a1.558,1.558,0,0,0-2.892.43c0,.02-.008.04-.011.061a.044.044,0,0,1-.087,0l-.178-1.187a.38.38,0,0,0-.419-.32h0a.381.381,0,0,0-.334.365l-.038,1.266a1.09,1.09,0,0,1-.331.748Z" transform="translate(-1680.269 -1162.307)" fill="#fff" stroke="#020f1e" stroke-width="1"/>
      </g>
      <g id="Group_10972" data-name="Group 10972" transform="translate(199.24 19.798)">
        <g id="Layer_2" data-name="Layer 2" transform="translate(0 0)">
          <g id="Group_4_copy" data-name="Group 4 copy" transform="translate(0 0)">
            <path id="Shape_101" data-name="Shape 101" d="M609.357,442.768a5.392,5.392,0,0,0-3.059,1.018l-45.385,31.474c-2.578,1.779-4.469,5.231-5.121,9.371L543.224,565.1a18.476,18.476,0,0,0,1.347,10.7q.262.545.562,1.045l33.816,55.774c1.679,2.76,13.416,5.7,16.048,5.01l36.863-13.817c2.209-.571,4.284-2.783,5.652-6.007l24.667-58.4a19.693,19.693,0,0,0,1.253-9.89l-8.5-64.888c-.458-3.472-1.8-6.4-3.644-7.967l-29.459-31.476c-1.185-1.006-11.153-2.422-12.476-2.413Z" transform="translate(-542.974 -442.767)" fill="#fff" stroke="#020f1e" stroke-width="1"/>
            <path id="Shape_101-2" data-name="Shape 101" d="M609.357,442.767a5.392,5.392,0,0,0-3.059,1.018l-45.385,31.474c-2.578,1.779-4.469,5.231-5.121,9.371l-12.569,80.465a18.477,18.477,0,0,0,1.347,10.7q.262.545.562,1.045l33.816,55.774c1.679,2.76,4.193,3.951,6.825,3.259l46.087-12.065c2.209-.571,4.284-2.783,5.652-6.007l24.667-58.4a19.693,19.693,0,0,0,1.253-9.89l-8.5-64.888c-.458-3.472-1.8-6.4-3.644-7.967L613.18,444.29a5.852,5.852,0,0,0-3.822-1.522Z" transform="translate(-530.472 -441.017)" fill="#7d42fb" stroke="#020f1e" stroke-width="1"/>
            <path id="Shape_100" data-name="Shape 100" d="M639.49,490.338c-1.469-.043-2.665,1.924-2.665,4.393,0,.038.005.074.006.112,0,.335-.013.739-.006,1.032.035,1.425.242,2.518.366,3.831a56.368,56.368,0,0,1,.3,7.3,5.051,5.051,0,0,1-.869,2.081l-.063,1.7a24.645,24.645,0,0,0-4.883,1.152c-6.891,2.368-13.3,7.83-18.34,15.742-.32-.3-.88-.868-1.046-1.041a1.661,1.661,0,0,1-1.729-.19,32.944,32.944,0,0,1-3.96-5.031,32.556,32.556,0,0,0-1.951-2.921c-.182-.219-.459-.515-.662-.742a2.981,2.981,0,0,0-2.083-1.087,2.677,2.677,0,0,0-2.4,1.542,5.8,5.8,0,0,0,.742,6.286c.015.016.03.028.045.044.2.223.442.509.624.695a23.784,23.784,0,0,0,2.485,1.993,28.713,28.713,0,0,1,4.409,4.273,5.983,5.983,0,0,1,.591,2.41l.941,1.166a76.3,76.3,0,0,0-6.037,38.615l-1.253.65a6.311,6.311,0,0,1-1.291,1.988,22.871,22.871,0,0,1-5.445,1.861,19.631,19.631,0,0,0-2.952.659c-.237.089-.567.246-.827.36l-.027.012c-.014.006-.033.018-.047.024a5.338,5.338,0,0,0-2.634,5.591c.381,2.275,2.173,3.461,4.009,2.678.013-.006.032-.009.046-.015s.039-.025.059-.035c.255-.11.574-.237.8-.349a25.7,25.7,0,0,0,2.751-1.82,25.765,25.765,0,0,1,5.277-2.829c.669-.153,1.372.423,1.721.659l1.3-.473c2.9,12.42,8.88,22.293,16.689,27.735l-.512,1.887a5.513,5.513,0,0,1,.251,2.292,57.569,57.569,0,0,1-2.563,7.195c-.522,1.232-1.057,2.215-1.529,3.607-.113.334-.257.84-.366,1.19-.736,2.432-.2,4.962,1.214,5.665s3.156-.693,3.908-3.119c0,0,.005-.007.006-.01a.032.032,0,0,0,0-.009c.107-.344.258-.8.348-1.118.4-1.416.53-2.588.81-3.934.741-2.875,1.148-5.816,2.162-7.784a2.692,2.692,0,0,1,1.2-1.073l.627-1.789c8.1,3.194,16.817,1.639,24.492-4.181.162.415.463,1.213.544,1.413a1.627,1.627,0,0,1,1.295.983,42.925,42.925,0,0,1,1.73,6.25c.251,1.176.375,2.237.73,3.432.081.272.216.65.311.937.667,2.018,2.21,2.688,3.444,1.508s1.685-3.7,1.051-5.7c-.094-.288-.224-.708-.322-.978a30.064,30.064,0,0,0-1.328-2.835,37.822,37.822,0,0,1-2.209-5.765,4.773,4.773,0,0,1,.192-2.327c-.095-.153-.3-1.072-.417-1.5,6.792-7.4,11.763-18.024,14.075-29.9.308.041.843.128,1.016.163.357-.418.684-.947,1.326-.942a14.384,14.384,0,0,1,4.088,1.441,13.7,13.7,0,0,0,2.081,1.041c.167.052.406.089.6.134.016,0,.029.015.044.019s.025,0,.035,0c1.363.306,2.68-1.065,2.958-3.082s-.586-3.929-1.936-4.308c-.2-.051-.476-.143-.668-.181a11.857,11.857,0,0,0-2.217-.042,13.567,13.567,0,0,1-4.191-.65c-.494-.254-.847-1.16-1.018-1.53l-.956-.345c1.022-12.033-.735-24.035-4.986-33.876.25-.371.721-1.053.855-1.252a4.381,4.381,0,0,1,.452-2.178,27.288,27.288,0,0,1,3.551-4.094,21.25,21.25,0,0,0,1.966-1.892c.152-.185.359-.474.518-.683a5.761,5.761,0,0,0,.577-5.571c-.81-1.616-2.386-1.749-3.523-.283-.162.208-.383.479-.529.682-.64.889-1.036,1.763-1.577,2.686a32.032,32.032,0,0,1-3.248,4.742,1.825,1.825,0,0,1-1.474.3l-.928,1.071c-5.4-8.745-12.841-14.224-21.031-15.312-.023-.531-.054-1.491-.062-1.78a3.53,3.53,0,0,1-.86-1.995,56.274,56.274,0,0,1,.3-7.24c.122-1.3.325-2.377.36-3.788.008-.321,0-.787-.006-1.134,0-2.447-1.18-4.467-2.641-4.51Zm-3.341,31.153-.8,21.182-.057.047c-.056,1.966-1.164,3.561-2.481,3.562a1.832,1.832,0,0,1-1.309-.6l-.023.019-11.956-11.873c3.858-5.7,8.631-9.685,13.75-11.527A20.359,20.359,0,0,1,636.15,521.491Zm6.65-.153c5.87.97,11.234,4.8,15.311,10.859l-10.839,12.44-.039-.023c-1.02,1.2-2.456.95-3.2-.569a4.6,4.6,0,0,1-.44-1.879l-.011-.008Zm-27.728,20.853,11.093,13.772-.012.089a4.839,4.839,0,0,1,.24,5.072,2.911,2.911,0,0,1-1.2,1.221l-.012.071-14.34,7.393a61.059,61.059,0,0,1,4.232-27.618Zm46.912-2.607a57.876,57.876,0,0,1,3.675,24.688l-12.537-4.454-.011-.083c-1.192-.4-1.895-2.244-1.566-4.116a4.384,4.384,0,0,1,.688-1.744l-.005-.042,9.756-14.25Zm-24.637,16.581,4.269-.347,2.622,4.755-.939,6.293-3.808,3.164-3.869-2.4-.966-6.2Zm13.472,15.716a1.446,1.446,0,0,1,.518,0l.022-.044,12.972,1.949c-1.878,8.54-5.5,16.156-10.338,21.671l-5.149-18.474.017-.036a4.7,4.7,0,0,1,1.2-4.711,1.836,1.836,0,0,1,.762-.358ZM627.6,574.528c1.342-.116,2.408,1.4,2.386,3.384a5.373,5.373,0,0,1-.194,1.377l.041.073L624.3,599.88c-5.406-4.276-9.584-11.308-11.824-20L627.1,574.6l.024.041a1.792,1.792,0,0,1,.478-.114Zm11.8,7.182c.888-.151,1.713.462,2.136,1.585l.051-.007,6.629,17.3a24.855,24.855,0,0,1-2.632,1.545,18.84,18.84,0,0,1-15.042,1.237l6.861-19.543h.011a2.938,2.938,0,0,1,1.986-2.12Z" transform="translate(-562.192 -463.892)" fill="#fff"/>
          </g>
        </g>
      </g>
      <g id="Group_10976" data-name="Group 10976" transform="translate(350.491 65.205)">
        <path id="Path_46682" data-name="Path 46682" d="M2033.037,568.084a6.044,6.044,0,0,1-.033,4.9,5.933,5.933,0,0,1-4.726,3.34,26.209,26.209,0,0,0-8.125,2.268l-1.089.517,7.457,11.446a.751.751,0,0,1-.663,1.161l-43.456-1.933c-.351-.016-2.91-2.08-2.682-2.348l28.7-33.484c.4-.466,2.966,1.672,3.115,2.266l3.687,14.714,1.1-.407a23.505,23.505,0,0,0,7.325-4.414c2.091-1.829,2.453-3.866,4.628-2.395C2029.219,564.353,2032.578,567.033,2033.037,568.084Z" transform="translate(-1979.704 -553.886)" fill="#fff" stroke="#020f1e" stroke-width="1"/>
        <path id="Path_46680" data-name="Path 46680" d="M2034.812,569.45a6.041,6.041,0,0,1-.034,4.9,5.932,5.932,0,0,1-4.725,3.34,26.2,26.2,0,0,0-8.125,2.269l-1.09.517,7.456,11.446a.751.751,0,0,1-.662,1.161l-43.455-1.933a.424.424,0,0,1-.3-.7l28.137-33.173a.751.751,0,0,1,1.3.3L2017,572.3l1.1-.407a23.5,23.5,0,0,0,7.324-4.414,5.847,5.847,0,0,1,9.388,1.974Z" transform="translate(-1983.733 -556.942)" fill="#fff" stroke="#020f1e" stroke-width="1"/>
      </g>
      <g id="Group_10978" data-name="Group 10978" transform="matrix(0.891, -0.454, 0.454, 0.891, 313.567, 15.35)">
        <path id="Path_46682-2" data-name="Path 46682" d="M33.5,8.917A3.8,3.8,0,0,1,33.475,12a3.726,3.726,0,0,1-2.968,2.1,11.871,11.871,0,0,0-4.324,1.259l-.684.325,4.376,7.661a.472.472,0,0,1-.416.729L1.694,22.546c-.221-.01-1.828-1.306-1.685-1.475L18.036.041c.248-.293,1.863,1.05,1.956,1.423l2.315,9.241L23,10.45a14.76,14.76,0,0,0,4.6-2.772c1.313-1.149,1.54-2.428,2.907-1.5A13.916,13.916,0,0,1,33.5,8.917Z" transform="translate(0 0)" fill="#fff" stroke="#020f1e" stroke-width="1"/>
        <path id="Path_46680-2" data-name="Path 46680" d="M32.056,7.81a3.8,3.8,0,0,1-.021,3.079,3.726,3.726,0,0,1-2.968,2.1,16.457,16.457,0,0,0-5.1,1.425l-.684.325,4.683,7.188a.472.472,0,0,1-.416.729L.255,21.439A.266.266,0,0,1,.064,21L17.735.167a.472.472,0,0,1,.818.191L20.868,9.6l.692-.256a14.76,14.76,0,0,0,4.6-2.772,3.672,3.672,0,0,1,5.9,1.24Z" transform="translate(0.024 0.045)" fill="#fff" stroke="#020f1e" stroke-width="1"/>
      </g>
      <g id="Group_10979" data-name="Group 10979" transform="translate(348.424 152.463) rotate(48)">
        <path id="Path_46682-3" data-name="Path 46682" d="M29.9,8.194a3.346,3.346,0,0,1-.019,2.714,2.434,2.434,0,0,1-2.284,1.48,14.507,14.507,0,0,0-4.5,1.256l-.6.286,4.165,7.038a.416.416,0,0,1-.367.643L1.814,20.339C1.619,20.331-.12,18.861.007,18.712L15.905.038c.219-.258,2.344.889,2.426,1.218L20.372,9.4l.61-.225a13.011,13.011,0,0,0,4.055-2.444c1.158-1.013.765-2.131,1.97-1.316A15.389,15.389,0,0,1,29.9,8.194Z" transform="translate(0 0)" fill="#fff" stroke="#020f1e" stroke-width="1"/>
        <path id="Path_46680-3" data-name="Path 46680" d="M28.258,6.885A3.345,3.345,0,0,1,28.24,9.6a3.284,3.284,0,0,1-2.616,1.849,14.507,14.507,0,0,0-4.5,1.256l-.6.286,4.128,6.337a.416.416,0,0,1-.367.643L.224,18.9a.235.235,0,0,1-.168-.386L15.634.147a.416.416,0,0,1,.721.168L18.4,8.461l.61-.225a13.011,13.011,0,0,0,4.055-2.444,3.237,3.237,0,0,1,5.2,1.093Z" transform="translate(0.027 0.041)" fill="#fff" stroke="#020f1e" stroke-width="1"/>
      </g>
      <g id="Group_10981" data-name="Group 10981" transform="translate(149.455 98.112)">
        <path id="Path_46702" data-name="Path 46702" d="M424.859,720.7c-2.227-.873-2.628,2.03-2.79,2.889l-7.215,34.268c-.188.885.757,1.236,1.429,1.062.807-.336,1.235-.493,1.92-2.376l6.3-33.582c.185-.884.986-2.148.358-2.262Zm-10.368,12.122c-1.329-1.1-2.915.641-3.488,1.429l-12.092,16.588a2.09,2.09,0,0,0-.426,1.344c0,.48,1,.983,1.339,1.059l12.092,2.624c.573.124,1.975-.978,2.37-1.869s-.365-1.237-.939-1.361l-10.58-2.3,10.58-14.513c.433-.593-.273-1.553.324-2.622C413.72,733.221,414.818,733.1,414.491,732.824Zm25.913-5.413L428.718,723.9a2.463,2.463,0,0,0-2.322,2.034c-.5,1.58-.089,1.956.485,2.081l9.667,2.3-10.58,14.514c-.573.787-.126,1.267.428,1.589a1.986,1.986,0,0,0,2.322-.61L440.4,729.813a2.714,2.714,0,0,0,.548-1.518C440.953,727.815,440.748,727.484,440.4,727.411Z" transform="translate(-398.484 -720.541)" fill="#fff" stroke="#020f1e" stroke-linecap="round" stroke-linejoin="round" stroke-width="0.5"/>
        <path id="Path_46701" data-name="Path 46701" d="M423.7,721.784a2.592,2.592,0,0,0-1.553,1.914l-7.215,34.268c-.188.885.207,1.46.879,1.287a2.6,2.6,0,0,0,1.553-1.914l7.215-34.268c.185-.884-.207-1.459-.879-1.286Zm-9.953,11.938c-.393-.435-1.18-.151-1.754.638L399.9,750.947a2.707,2.707,0,0,0-.547,1.516c0,.48.2.812.547.887l12.092,2.624c.573.124,1.359-.5,1.755-1.389s.25-1.716-.324-1.84l-10.58-2.3,10.58-14.513C414,735.148,414.14,734.156,413.745,733.722Zm26.735-6.205-12.091-2.624c-.573-.126-1.362.5-1.755,1.388s-.251,1.714.323,1.84l10.58,2.3-10.58,14.514c-.573.787-.72,1.78-.323,2.214s1.18.149,1.755-.639l12.091-16.586a2.714,2.714,0,0,0,.548-1.518C441.028,727.921,440.824,727.59,440.48,727.517Z" transform="translate(-397.647 -721.559)" fill="#fff" stroke="#020f1e" stroke-linecap="round" stroke-linejoin="round" stroke-width="0.5"/>
      </g>
      <g id="Group_10984" data-name="Group 10984" transform="translate(125.53 153.738)">
        <path id="Path_46706" data-name="Path 46706" d="M523.555,378.984l.9-3.607-.723-.393c-.432.258-.875.791-1.644.6a1.038,1.038,0,0,1-.79-.5c-.269-.386-.405-.421-.447-.889a18.53,18.53,0,0,1-.1-2.415,20.834,20.834,0,0,0-.231-3.874c-.154-.667.4-1.152,0-1.379a4.381,4.381,0,0,0-2.423-.551,12.747,12.747,0,0,0-2.357,1.007l-1.037.58.083,3.879.659.275a13.992,13.992,0,0,1,1.6-.874c.224-.049.029-.1.169.084a2.331,2.331,0,0,1,.192,1.185q0,.933.116,3.473a7.912,7.912,0,0,0,.333,2.185,2.527,2.527,0,0,0,.686,1.107,2.637,2.637,0,0,0,1.277.493,10.811,10.811,0,0,0-1.238,1.892,9.089,9.089,0,0,0-.738,2.063,15.854,15.854,0,0,0-.334,2.77c-.06,1.674-.083,2.433-.084,2.887a3.793,3.793,0,0,1-.171,1.426,3.032,3.032,0,0,1-.675.9,8.744,8.744,0,0,1-1.819,1.161v3.85l.868.208s1.679-1.556,2.5-2.266a8.193,8.193,0,0,0,1.559-1.959,7.2,7.2,0,0,0,.853-2.322,21.666,21.666,0,0,0,.218-3.556,20.731,20.731,0,0,1,.205-3.659,6.107,6.107,0,0,1,.853-2.189,5.953,5.953,0,0,1,1.751-1.6Zm-29.584,17.08h.879l.532-.488a.988.988,0,0,1,.815.425,2.859,2.859,0,0,1,.481,1.3,18.309,18.309,0,0,1,.1,2.4,21.631,21.631,0,0,0,.224,3.885,1.929,1.929,0,0,0,.827,1.352A2.5,2.5,0,0,0,499.6,405a10.767,10.767,0,0,0,2.463-1.155l.68-.392.947-3.566-.571-.534a4.353,4.353,0,0,1-2.111.876c-.232.048-.614-.541-.765-.723a3.825,3.825,0,0,1-.173-1.443c0-.6.009-.439-.06-2.1a7.874,7.874,0,0,0-.346-2.266,2.541,2.541,0,0,0-.75-1.137,2.195,2.195,0,0,0-1.2-.441,12.827,12.827,0,0,0,1.385-2.192,10.453,10.453,0,0,0,.821-2.963q.141-1.118.2-4.681a5.607,5.607,0,0,1,.173-1.582,2.547,2.547,0,0,1,.577-.9,9.455,9.455,0,0,1,1.867-1.278l.947-3.541-.947-.574-.9.67a15.617,15.617,0,0,0-2.49,2.068,8.067,8.067,0,0,0-1.5,2.028,7.452,7.452,0,0,0-.853,2.33,21.121,21.121,0,0,0-.224,3.559,22.139,22.139,0,0,1-.192,3.651,6.07,6.07,0,0,1-.86,2.192,5.373,5.373,0,0,1-1.758,1.4ZM514.4,382.154c0-.494.725-.8.152-1.012a3.718,3.718,0,0,0-1.615.168,3.231,3.231,0,0,0-1.462,2.533c0,.612.359,1.236,1.919.97-.068.039-.734.034-.457-.126a3.232,3.232,0,0,0,1.462-2.533Zm-5.1,2.946c0-.617.6-.67.143-1.067a1.919,1.919,0,0,0-1.6.223,3.231,3.231,0,0,0-1.462,2.532,1.334,1.334,0,0,0,2,.99C509.233,387.216,509.236,386.13,509.292,385.1Z" transform="translate(-493.971 -365.936)" fill="#fff" stroke="#020f1e" stroke-linecap="round" stroke-linejoin="round" stroke-width="0.5"/>
        <path id="Path_46705" data-name="Path 46705" d="M523.653,378.917l-.1-3.447a3.649,3.649,0,0,1-1.411.489,1.007,1.007,0,0,1-.821-.422,2.7,2.7,0,0,1-.475-1.3,18.529,18.529,0,0,1-.1-2.415,20.834,20.834,0,0,0-.231-3.874,1.937,1.937,0,0,0-.834-1.34,2.481,2.481,0,0,0-1.758-.074,10.78,10.78,0,0,0-2.463,1.155l-.68.393v3.54a7.146,7.146,0,0,1,1.829-.87.592.592,0,0,1,.6.218,2.331,2.331,0,0,1,.192,1.185q0,.933.116,3.473a7.912,7.912,0,0,0,.333,2.185,2.526,2.526,0,0,0,.686,1.107,2.637,2.637,0,0,0,1.277.493,10.812,10.812,0,0,0-1.238,1.892,9.088,9.088,0,0,0-.738,2.063,15.854,15.854,0,0,0-.334,2.77q-.09,2.511-.09,3.192a4.109,4.109,0,0,1-.2,1.481,3.047,3.047,0,0,1-.622.944,8.987,8.987,0,0,1-1.8,1.241v3.555l.68-.393a15.217,15.217,0,0,0,2.656-1.852,8.192,8.192,0,0,0,1.559-1.959,7.2,7.2,0,0,0,.853-2.322,21.666,21.666,0,0,0,.218-3.556,20.732,20.732,0,0,1,.205-3.659,6.108,6.108,0,0,1,.853-2.189,6.7,6.7,0,0,1,1.849-1.7Zm-29.682,17.188a3.65,3.65,0,0,1,1.411-.489.988.988,0,0,1,.815.425,2.859,2.859,0,0,1,.481,1.3,18.311,18.311,0,0,1,.1,2.4,21.632,21.632,0,0,0,.224,3.885,1.929,1.929,0,0,0,.827,1.351,2.5,2.5,0,0,0,1.771.067,10.773,10.773,0,0,0,2.463-1.155l.68-.393v-3.583a6.948,6.948,0,0,1-1.8.864.639.639,0,0,1-.622-.218,2.223,2.223,0,0,1-.2-1.163q-.007-.9-.109-3.389a7.874,7.874,0,0,0-.346-2.266,2.54,2.54,0,0,0-.75-1.137,2.195,2.195,0,0,0-1.2-.441,12.825,12.825,0,0,0,1.385-2.192,10.453,10.453,0,0,0,.821-2.963q.141-1.118.2-4.681a5.606,5.606,0,0,1,.173-1.582,2.546,2.546,0,0,1,.577-.9,9.45,9.45,0,0,1,1.867-1.278v-3.541l-.68.393a15.515,15.515,0,0,0-2.656,1.844,7.9,7.9,0,0,0-1.552,1.956,7.451,7.451,0,0,0-.853,2.33,21.12,21.12,0,0,0-.224,3.559,22.139,22.139,0,0,1-.192,3.651,6.07,6.07,0,0,1-.86,2.192,6.005,6.005,0,0,1-1.758,1.6ZM514.4,382.2c0-.933-.655-1.31-1.462-.844a3.231,3.231,0,0,0-1.462,2.533c0,.932.654,1.31,1.462.844A3.232,3.232,0,0,0,514.4,382.2Zm-5.1,2.946c0-.932-.655-1.31-1.462-.844a3.231,3.231,0,0,0-1.462,2.533c0,.932.655,1.31,1.462.844A3.232,3.232,0,0,0,509.292,385.142Z" transform="translate(-493.058 -365.978)" fill="#fff" stroke="#020f1e" stroke-linecap="round" stroke-linejoin="round" stroke-width="0.5"/>
      </g>
      <g id="Group_10982" data-name="Group 10982" transform="translate(65.485 170.908)">
        <path id="Path_46702-2" data-name="Path 46702" d="M409.863,729.5c-.945-.783-2.072.455-2.48,1.016l-8.6,11.791a1.485,1.485,0,0,0-.3.956c0,.341.708.7.952.752l8.6,1.865c.408.088,1.4-.7,1.685-1.328s-.259-.879-.668-.967l-7.521-1.633,7.521-10.317c.308-.422-.194-1.1.23-1.864C409.315,729.783,410.095,729.693,409.863,729.5Zm18.421-3.848-8.307-2.5a1.751,1.751,0,0,0-1.651,1.446c-.353,1.123-.063,1.39.345,1.479l6.872,1.632-7.521,10.317c-.408.559-.089.9.3,1.129a1.412,1.412,0,0,0,1.651-.434l8.307-11.366a1.93,1.93,0,0,0,.39-1.08C428.673,725.94,428.528,725.7,428.283,725.653Z" transform="translate(-398.484 -723.127)" fill="#fff" stroke="#020f1e" stroke-linecap="round" stroke-linejoin="round" stroke-width="0.5"/>
        <path id="Path_46701-2" data-name="Path 46701" d="M409.583,730.474c-.28-.31-.839-.107-1.246.453l-8.6,11.791a1.924,1.924,0,0,0-.389,1.077c0,.341.145.577.389.631l8.6,1.865c.408.088.966-.355,1.248-.988s.178-1.22-.23-1.308l-7.521-1.633,7.521-10.317C409.762,731.487,409.864,730.782,409.583,730.474Zm19-4.411-8.595-1.865c-.408-.089-.968.353-1.248.987s-.178,1.218.23,1.308l7.521,1.632-7.521,10.317c-.408.559-.512,1.265-.23,1.574s.839.106,1.248-.454l8.595-11.79a1.929,1.929,0,0,0,.39-1.079C428.978,726.35,428.832,726.115,428.588,726.063Z" transform="translate(-398.14 -724.186)" fill="#fff" stroke="#020f1e" stroke-linecap="round" stroke-linejoin="round" stroke-width="0.5"/>
      </g>
    </g>
  </g>
</svg>
