<svg width="677" height="591" viewBox="0 0 677 591" fill="none" xmlns="http://www.w3.org/2000/svg">
<g clip-path="url(#clip0_117_1306)">
<path d="M88.4651 545.76C88.4651 545.76 124.326 551.996 133.227 515.513C142.128 479.03 138.999 386.807 227.867 386.807" stroke="#FEF2EB"/>
<path d="M88.4651 45.6026C88.4651 45.6026 124.326 39.3667 133.227 75.8497C142.128 112.333 137.858 204.141 230.735 204.141" stroke="#FEF2EB"/>
<path d="M88.7161 211.975C88.7161 211.975 105.667 209.375 113.016 223.675C120.365 237.975 142.666 272.975 195.716 270.675" stroke="#FEF2EB"/>
<path d="M88.7161 378.599C88.7161 378.599 105.667 381.199 113.016 366.899C120.365 352.599 142.666 317.599 195.716 319.899" stroke="#FEF2EB"/>
<path d="M588.013 484.953C588.013 484.953 575.153 491.189 566.25 454.706C557.347 418.223 558.435 326.873 480.634 326.873" stroke="#FEF2EB"/>
<path d="M479.867 297.673H587.867" stroke="#FEF2EB"/>
<path d="M589.013 109.524C589.013 109.524 575.153 103.289 566.25 139.772C557.347 176.255 559.771 266.421 480.367 266.421" stroke="#FEF2EB"/>
<path d="M55.8344 255.071H34.296C32.0255 255.071 29.8116 254.631 27.714 253.762C25.6164 252.893 23.7396 251.639 22.1341 250.034L6.90412 234.804C5.29865 233.198 4.04461 231.321 3.17574 229.224C2.30687 227.126 1.86652 224.912 1.86652 222.642V201.103C1.86652 198.833 2.30688 196.619 3.17575 194.521L2.71657 194.331L3.17575 194.521C4.04462 192.424 5.29866 190.547 6.90413 188.942L22.1341 173.712C23.7395 172.106 25.6163 170.852 27.714 169.983C29.8118 169.114 32.0256 168.674 34.2959 168.674H55.8344C58.1049 168.674 60.3187 169.114 62.4164 169.983C64.514 170.852 66.3908 172.106 67.9963 173.712L83.2263 188.942C84.8317 190.547 86.0858 192.424 86.9547 194.521C87.8235 196.619 88.2639 198.833 88.2639 201.103L88.2639 222.642C88.2639 224.912 87.8235 227.126 86.9547 229.224C86.0858 231.321 84.8317 233.198 83.2263 234.804L67.9963 250.034C66.3908 251.639 64.514 252.893 62.4164 253.762C60.3187 254.631 58.1049 255.071 55.8344 255.071Z" stroke="#FEF2EB"/>
<path d="M44.8665 230.674C41.1087 230.674 37.4352 229.56 34.3107 227.472C31.1862 225.384 28.7509 222.417 27.3128 218.945C25.8747 215.473 25.4985 211.653 26.2316 207.967C26.9647 204.282 28.7743 200.896 31.4315 198.239C34.0887 195.582 37.4742 193.772 41.1598 193.039C44.8454 192.306 48.6657 192.682 52.1375 194.12C55.6093 195.558 58.5767 197.994 60.6644 201.118C62.7522 204.243 63.8665 207.916 63.8665 211.674C63.8615 216.712 61.8581 221.541 58.296 225.103C54.7339 228.666 49.9041 230.669 44.8665 230.674ZM44.8665 194.433C41.4548 194.425 38.1174 195.429 35.2768 197.319C32.4361 199.208 30.2199 201.898 28.9087 205.048C27.5975 208.197 27.2502 211.665 27.9108 215.012C28.5714 218.359 30.2102 221.435 32.6198 223.851C35.0294 226.266 38.1013 227.912 41.4469 228.581C44.7924 229.249 48.2611 228.91 51.4139 227.606C54.5666 226.303 57.2617 224.093 59.158 221.257C61.0543 218.421 62.0665 215.086 62.0665 211.674C62.0665 207.108 60.2557 202.729 57.0313 199.497C53.8068 196.265 49.432 194.444 44.8665 194.433Z" fill="#FEF2EB"/>
<path d="M52.0325 216.685C51.855 216.687 51.6809 216.636 51.5317 216.54C51.3824 216.444 51.2645 216.306 51.1925 216.144C51.1244 215.983 51.107 215.806 51.1427 215.635C51.1785 215.464 51.2657 215.309 51.3925 215.189L55.0375 211.674L51.3925 208.159C51.3083 208.079 51.2412 207.983 51.1953 207.876C51.1495 207.77 51.1258 207.655 51.1258 207.539C51.1258 207.423 51.1495 207.308 51.1953 207.201C51.2412 207.095 51.3083 206.999 51.3925 206.919C51.566 206.754 51.7962 206.662 52.0355 206.662C52.2749 206.662 52.5051 206.754 52.6785 206.919L56.9675 211.054C57.0515 211.134 57.1183 211.23 57.164 211.336C57.2097 211.443 57.2333 211.558 57.2333 211.673C57.2333 211.789 57.2097 211.904 57.164 212.01C57.1183 212.117 57.0515 212.213 56.9675 212.293L52.6785 216.428C52.5047 216.594 52.2731 216.686 52.0325 216.685ZM37.6925 216.685C37.4531 216.686 37.2226 216.593 37.0495 216.428L32.7605 212.293C32.6766 212.213 32.6097 212.117 32.564 212.01C32.5184 211.904 32.4948 211.789 32.4948 211.673C32.4948 211.558 32.5184 211.443 32.564 211.336C32.6097 211.23 32.6766 211.134 32.7605 211.054L37.0495 206.919C37.223 206.754 37.4532 206.662 37.6925 206.662C37.9319 206.662 38.1621 206.754 38.3355 206.919C38.4197 206.999 38.4866 207.095 38.5324 207.202C38.5782 207.308 38.6018 207.423 38.6018 207.539C38.6018 207.655 38.5782 207.77 38.5324 207.876C38.4866 207.983 38.4197 208.079 38.3355 208.159L34.6905 211.674L38.3355 215.189C38.4624 215.309 38.5496 215.464 38.5854 215.635C38.6211 215.806 38.6037 215.983 38.5355 216.144C38.4636 216.306 38.3459 216.444 38.1968 216.54C38.0478 216.636 37.8739 216.686 37.6965 216.685H37.6925ZM42.8625 220.439C42.7898 220.439 42.7174 220.43 42.6465 220.414C42.5324 220.389 42.4244 220.342 42.3288 220.275C42.2332 220.209 42.1519 220.123 42.0897 220.024C42.0276 219.926 41.9858 219.815 41.9669 219.7C41.948 219.585 41.9523 219.467 41.9795 219.354L45.9795 203.585C46.0158 203.43 46.0931 203.287 46.2032 203.172C46.3133 203.057 46.4522 202.974 46.6055 202.931C46.761 202.885 46.9258 202.88 47.0836 202.918C47.2415 202.955 47.3869 203.032 47.5055 203.143C47.621 203.25 47.7046 203.387 47.7473 203.538C47.79 203.69 47.7901 203.85 47.7475 204.002L43.7475 219.771C43.6961 219.965 43.5815 220.136 43.422 220.257C43.2624 220.378 43.0669 220.442 42.8665 220.44L42.8625 220.439Z" fill="#FEF2EB"/>
<path d="M55.8344 89.0713H34.296C32.0255 89.0713 29.8116 88.631 27.714 87.7621C25.6164 86.8932 23.7396 85.6392 22.1341 84.0337L6.90412 68.8037C5.29865 67.1983 4.04461 65.3215 3.17574 63.2238C2.30687 61.1262 1.86652 58.9123 1.86652 56.6419V35.1034C1.86652 32.8329 2.30688 30.6191 3.17575 28.5215L2.71657 28.3313L3.17575 28.5215C4.04462 26.4238 5.29866 24.547 6.90413 22.9415L22.1341 7.71157C23.7395 6.10621 25.6163 4.85219 27.714 3.98327C29.8118 3.11435 32.0256 2.67397 34.2959 2.67397H55.8344C58.1049 2.67397 60.3187 3.11433 62.4164 3.9832C64.514 4.85206 66.3908 6.1061 67.9963 7.71157L83.2263 22.9416C84.8317 24.547 86.0858 26.4238 86.9547 28.5215C87.8235 30.6191 88.2639 32.833 88.2639 35.1034L88.2639 56.6419C88.2639 58.9124 87.8235 61.1262 86.9547 63.2238C86.0858 65.3215 84.8317 67.1983 83.2263 68.8037L67.9963 84.0338C66.3908 85.6392 64.514 86.8932 62.4164 87.7621C60.3187 88.631 58.1049 89.0713 55.8344 89.0713Z" stroke="#FEF2EB"/>
<path d="M45.0902 29.674C44.8168 29.6889 44.5604 29.8116 44.3771 30.0151C44.1938 30.2186 44.0986 30.4864 44.1122 30.7599C44.1122 30.7689 44.1122 30.778 44.1122 30.787C44.1122 30.869 44.1122 30.967 44.1122 31.038C44.139 31.3503 44.1837 31.6608 44.2462 31.968C44.3401 32.5543 44.3766 33.1485 44.3552 33.7419C44.2996 33.9375 44.1892 34.113 44.0372 34.248L44.0142 34.662C43.4192 34.711 42.8284 34.8019 42.2462 34.934C39.8003 35.4866 37.5754 36.7576 35.8572 38.584C35.7492 38.51 35.5572 38.3749 35.5042 38.3329C35.3107 38.3909 35.1021 38.3708 34.9232 38.2769C34.4462 37.9237 34.0048 37.5248 33.6052 37.0859C33.4038 36.8461 33.1888 36.6181 32.9612 36.403C32.9012 36.352 32.8102 36.2819 32.7442 36.2299C32.5506 36.0736 32.3119 35.9836 32.0632 35.973C31.9154 35.9652 31.7678 35.9924 31.6325 36.0523C31.4971 36.1123 31.3778 36.2033 31.2842 36.318C31.1254 36.5412 31.0615 36.8183 31.1065 37.0885C31.1515 37.3587 31.3017 37.6002 31.5242 37.7599L31.5392 37.77C31.6032 37.822 31.6822 37.889 31.7392 37.933C32.0002 38.1064 32.271 38.2647 32.5502 38.407C33.0669 38.6995 33.5539 39.0418 34.0042 39.429C34.1223 39.5946 34.1916 39.79 34.2042 39.993L34.5172 40.2729C32.7865 42.8664 32.0743 46.0076 32.5172 49.094L32.1072 49.213C32.0005 49.3837 31.857 49.5286 31.6872 49.637C31.1136 49.7897 30.5265 49.8862 29.9342 49.925C29.6204 49.932 29.3072 49.957 28.9962 49.9999C28.9212 50.0139 28.8172 50.0409 28.7352 50.0609H28.7272H28.7122C28.5772 50.0792 28.4474 50.1254 28.3312 50.1966C28.215 50.2677 28.1149 50.3624 28.0373 50.4744C27.9597 50.5864 27.9062 50.7133 27.8804 50.8471C27.8546 50.9809 27.8569 51.1186 27.8872 51.2515C27.9176 51.3843 27.9752 51.5094 28.0566 51.6187C28.138 51.7281 28.2412 51.8193 28.3597 51.8865C28.4783 51.9537 28.6095 51.9955 28.7451 52.0092C28.8807 52.0228 29.0176 52.0081 29.1472 51.9659H29.1622L29.1812 51.96C29.2622 51.942 29.3632 51.922 29.4342 51.904C29.7331 51.8089 30.0262 51.6967 30.3122 51.568C30.8613 51.3466 31.4307 51.1792 32.0122 51.068C32.2146 51.0805 32.4094 51.1498 32.5742 51.2679L33.0002 51.1949C33.957 54.1518 35.9628 56.6563 38.6392 58.236L38.4612 58.662C38.544 58.8337 38.5742 59.0261 38.5482 59.215C38.3045 59.7723 38.0082 60.305 37.6632 60.8059C37.4737 61.056 37.2988 61.3168 37.1392 61.5869C37.1002 61.6599 37.0512 61.7729 37.0142 61.8499C36.943 61.9674 36.8972 62.0985 36.8798 62.2348C36.8624 62.3711 36.8738 62.5095 36.9133 62.6411C36.9527 62.7726 37.0193 62.8945 37.1088 62.9987C37.1983 63.103 37.3086 63.1873 37.4327 63.2462C37.5568 63.3051 37.6919 63.3373 37.8292 63.3408C37.9666 63.3442 38.1031 63.3188 38.23 63.2662C38.3569 63.2136 38.4713 63.1349 38.5659 63.0353C38.6605 62.9357 38.7332 62.8174 38.7792 62.688C38.8162 62.612 38.8692 62.511 38.9002 62.439C39.0115 62.1447 39.1056 61.8441 39.1822 61.5389C39.3509 60.9207 39.6058 60.3292 39.9392 59.782C40.0557 59.6727 40.2024 59.6013 40.3602 59.577L40.5812 59.1769C43.4842 60.2933 46.6966 60.3015 49.6052 59.2C49.6672 59.31 49.7832 59.523 49.8142 59.576C50.0136 59.607 50.193 59.7146 50.3142 59.8759C50.5908 60.4008 50.8155 60.9514 50.9852 61.52C51.0625 61.8252 51.1573 62.1257 51.2692 62.42C51.3012 62.492 51.3532 62.594 51.3902 62.671C51.437 62.7993 51.51 62.9164 51.6046 63.0149C51.6993 63.1133 51.8134 63.191 51.9397 63.2429C52.066 63.2948 52.2018 63.3197 52.3383 63.3162C52.4748 63.3126 52.6091 63.2807 52.7326 63.2223C52.856 63.1639 52.9659 63.0804 53.0553 62.9772C53.1447 62.8739 53.2115 62.7531 53.2516 62.6226C53.2916 62.492 53.304 62.3545 53.2879 62.2189C53.2719 62.0833 53.2277 61.9525 53.1582 61.835C53.1212 61.758 53.0692 61.645 53.0312 61.572C52.8716 61.3024 52.6967 61.0423 52.5072 60.7929C52.1684 60.305 51.8781 59.7853 51.6402 59.241C51.5885 59.0462 51.6154 58.839 51.7152 58.6639C51.6526 58.5359 51.5981 58.4039 51.5522 58.269C54.2374 56.6767 56.2436 54.153 57.1892 51.1779C57.3162 51.1979 57.5352 51.2369 57.6072 51.2509C57.7564 51.1154 57.9528 51.0437 58.1542 51.051C58.7357 51.1622 59.3051 51.3296 59.8542 51.551C60.1401 51.6804 60.4333 51.7932 60.7322 51.8889C60.8032 51.9079 60.9042 51.926 60.9852 51.943L61.0042 51.9489H61.0192C61.1488 51.9911 61.2857 52.0058 61.4213 51.9922C61.5569 51.9785 61.6881 51.9367 61.8067 51.8695C61.9252 51.8023 62.0285 51.7111 62.1098 51.6017C62.1912 51.4924 62.2489 51.3673 62.2792 51.2345C62.3095 51.1016 62.3118 50.9639 62.286 50.8301C62.2602 50.6963 62.2068 50.5694 62.1291 50.4574C62.0515 50.3454 61.9514 50.2507 61.8352 50.1796C61.719 50.1084 61.5893 50.0622 61.4542 50.0439C61.3702 50.0249 61.2542 49.993 61.1702 49.977C60.8592 49.934 60.5461 49.909 60.2322 49.9019C59.6399 49.8632 59.0528 49.7667 58.4792 49.614C58.3021 49.5143 58.156 49.3675 58.0572 49.1899L57.6622 49.075C58.0845 45.9911 57.3597 42.8596 55.6252 40.275C55.7252 40.183 55.9182 40.014 55.9722 39.964C55.9587 39.7623 56.0247 39.5634 56.1562 39.4099C56.6065 39.0228 57.0935 38.6805 57.6102 38.3879C57.8901 38.2457 58.1615 38.0874 58.4232 37.9139C58.4862 37.8669 58.5722 37.794 58.6382 37.741C58.7546 37.667 58.8542 37.5694 58.9304 37.4544C59.0066 37.3395 59.0577 37.2097 59.0805 37.0737C59.1033 36.9377 59.0972 36.7984 59.0627 36.6649C59.0281 36.5314 58.9658 36.4066 58.8799 36.2988C58.794 36.1909 58.6863 36.1023 58.5639 36.0388C58.4415 35.9753 58.3071 35.9382 58.1694 35.93C58.0317 35.9218 57.8939 35.9427 57.7648 35.9912C57.6357 36.0398 57.5183 36.115 57.4202 36.2119C57.3532 36.2649 57.2632 36.3339 57.2032 36.3849C56.9749 36.6 56.7593 36.8281 56.5572 37.068C56.1576 37.5074 55.7162 37.907 55.2392 38.261C55.0514 38.3374 54.8461 38.3599 54.6462 38.326L54.2742 38.5909C52.1328 36.3437 49.2486 34.9501 46.1572 34.6689C46.1482 34.5389 46.1372 34.303 46.1342 34.232C45.9677 34.117 45.8529 33.9415 45.8142 33.743C45.7936 33.1494 45.8307 32.5553 45.9252 31.969C45.9877 31.6618 46.0324 31.3513 46.0592 31.0389C46.0592 30.9599 46.0592 30.846 46.0592 30.761C46.0728 30.4874 45.9776 30.2196 45.7943 30.0161C45.6111 29.8126 45.3547 29.69 45.0812 29.675L45.0902 29.674ZM43.8662 37.258L43.5762 42.387L43.5552 42.3969C43.5486 42.5528 43.4998 42.7039 43.4141 42.8342C43.3283 42.9645 43.2088 43.0691 43.0683 43.1369C42.9278 43.2046 42.7716 43.2329 42.6162 43.2189C42.4609 43.2048 42.3123 43.1488 42.1862 43.0569H42.1782L37.9722 40.076C39.3113 38.7601 40.9915 37.8447 42.8232 37.433C43.1673 37.3569 43.5151 37.2985 43.8652 37.258H43.8662ZM46.3172 37.258C48.5267 37.5322 50.5849 38.5247 52.1752 40.0829L47.9962 43.046L47.9812 43.0399C47.8552 43.1319 47.7066 43.1881 47.5513 43.2023C47.3959 43.2166 47.2396 43.1885 47.0989 43.121C46.9583 43.0535 46.8385 42.9491 46.7525 42.819C46.6664 42.6888 46.6173 42.5378 46.6102 42.382L46.3172 37.258ZM36.4472 41.9969L40.2872 45.4319V45.4529C40.4047 45.5553 40.4922 45.6877 40.5405 45.8359C40.5887 45.9841 40.5959 46.1426 40.5612 46.2946C40.5265 46.4465 40.4513 46.5862 40.3435 46.6988C40.2358 46.8114 40.0995 46.8927 39.9492 46.934V46.951L35.0272 48.3719C34.7792 46.1482 35.2788 43.9052 36.4472 41.9969ZM53.7072 41.9969C54.8769 43.8988 55.394 46.1305 55.1802 48.353L50.2322 46.9279V46.907C50.0819 46.8657 49.9456 46.7844 49.8379 46.6718C49.7301 46.5592 49.6549 46.4195 49.6202 46.2675C49.5855 46.1156 49.5927 45.9571 49.6409 45.8089C49.6892 45.6607 49.7767 45.5284 49.8942 45.426V45.416L53.7072 41.9969ZM44.3072 45.697H45.8802L46.8582 46.9189L46.5072 48.4439L45.0952 49.123L43.6782 48.442L43.3272 46.917L44.3072 45.697ZM49.3512 49.8799C49.4182 49.8771 49.4854 49.8821 49.5512 49.895L49.5592 49.8849L54.6512 50.7459C53.8998 52.8587 52.4655 54.6607 50.5752 55.8669L48.5992 51.093L48.6052 51.085C48.5513 50.9573 48.5289 50.8185 48.5398 50.6803C48.5508 50.5421 48.5947 50.4086 48.6681 50.291C48.7414 50.1734 48.8419 50.0751 48.9611 50.0044C49.0804 49.9338 49.2148 49.8928 49.3532 49.8849L49.3512 49.8799ZM40.7992 49.9009C40.9923 49.904 41.1788 49.9718 41.3287 50.0935C41.4787 50.2151 41.5834 50.3836 41.6262 50.572C41.6673 50.7495 41.6505 50.9356 41.5782 51.103L41.5932 51.1219L39.6372 55.848C37.7597 54.6465 36.3312 52.8591 35.5732 50.7629L40.6212 49.9059L40.6292 49.916C40.6849 49.9055 40.7425 49.9004 40.7992 49.9009ZM45.0632 51.972C45.2239 51.9671 45.3828 52.0069 45.5222 52.0868C45.6617 52.1668 45.7762 52.2838 45.8532 52.425H45.8722L48.3602 56.925C48.0334 57.0342 47.7013 57.127 47.3652 57.2029C45.5352 57.6224 43.6245 57.5241 41.8472 56.9189L44.3292 52.4309C44.4004 52.298 44.5051 52.1861 44.633 52.1063C44.761 52.0264 44.9075 51.9815 45.0582 51.976L45.0632 51.972Z" fill="#FEF2EB"/>
<path d="M44.8669 25.2271C44.2678 25.2271 43.666 25.3648 43.1265 25.6255L29.0238 32.4403C27.9223 32.9725 27.1351 33.9618 26.8637 35.1546L23.3744 50.4947C23.1037 51.6847 23.384 52.9152 24.1433 53.8707L33.9125 66.1626C34.6757 67.1231 35.8171 67.6739 37.0439 67.6739H52.6899C53.9166 67.6739 55.058 67.1231 55.8213 66.1626L65.5905 53.8706C66.3498 52.9152 66.63 51.6847 66.3594 50.4947L62.87 35.1546C62.5987 33.9618 61.8114 32.9725 60.71 32.4403L46.6072 25.6255C46.0678 25.3648 45.466 25.2271 44.8669 25.2271ZM44.8669 24.2271C45.611 24.2271 46.3552 24.3931 47.0423 24.7251L61.1451 31.5399C62.5142 32.2014 63.5078 33.4501 63.8451 34.9328L67.3344 50.2729C67.671 51.7525 67.3174 53.3049 66.3733 54.4928L56.6042 66.7848C55.6556 67.9783 54.2144 68.6739 52.6899 68.6739H37.0439C35.5194 68.6739 34.0781 67.9783 33.1296 66.7848L23.3604 54.4928C22.4163 53.3049 22.0627 51.7525 22.3993 50.2729L25.8887 34.9328C26.2259 33.4501 27.2196 32.2015 28.5887 31.5399L42.6914 24.7251C43.3786 24.3931 44.1227 24.2271 44.8669 24.2271Z" fill="#FEF2EB"/>
<path d="M55.8344 422.071H34.296C32.0255 422.071 29.8116 421.631 27.714 420.762C25.6164 419.893 23.7396 418.639 22.1341 417.034L6.90412 401.804C5.29865 400.198 4.04461 398.321 3.17574 396.224C2.30687 394.126 1.86652 391.912 1.86652 389.642V368.103C1.86652 365.833 2.30688 363.619 3.17575 361.521L2.71657 361.331L3.17575 361.521C4.04462 359.424 5.29866 357.547 6.90413 355.942L22.1341 340.712C23.7395 339.106 25.6163 337.852 27.714 336.983C29.8118 336.114 32.0256 335.674 34.2959 335.674H55.8344C58.1049 335.674 60.3187 336.114 62.4164 336.983C64.514 337.852 66.3908 339.106 67.9963 340.712L83.2263 355.942C84.8317 357.547 86.0858 359.424 86.9547 361.521C87.8235 363.619 88.2639 365.833 88.2639 368.103L88.2639 389.642C88.2639 391.912 87.8235 394.126 86.9547 396.224C86.0858 398.321 84.8317 400.198 83.2263 401.804L67.9963 417.034C66.3908 418.639 64.514 419.893 62.4164 420.762C60.3187 421.631 58.1049 422.071 55.8344 422.071Z" stroke="#FEF2EB"/>
<path d="M24.8665 393.338H64.9665M37.0665 372.412H42.2965V393.338H37.0665V372.412ZM47.5315 377.638H52.7665V393.338H47.5365L47.5315 377.638ZM57.9925 365.438H63.2225V393.338H57.9925V365.438ZM26.6095 382.873H31.8395V393.338H26.6095V382.873Z" stroke="#FEF2EB" stroke-width="2" stroke-linecap="round" stroke-linejoin="round"/>
<path d="M61.3665 357.721C62.1949 357.721 62.8665 357.049 62.8665 356.221C62.8665 355.393 62.1949 354.721 61.3665 354.721C60.5381 354.721 59.8665 355.393 59.8665 356.221C59.8665 357.049 60.5381 357.721 61.3665 357.721Z" fill="#FEF2EB"/>
<path d="M50.3665 370.721C51.1949 370.721 51.8665 370.049 51.8665 369.221C51.8665 368.393 51.1949 367.721 50.3665 367.721C49.5381 367.721 48.8665 368.393 48.8665 369.221C48.8665 370.049 49.5381 370.721 50.3665 370.721Z" fill="#FEF2EB"/>
<path d="M39.3665 365.721C40.1949 365.721 40.8665 365.049 40.8665 364.221C40.8665 363.393 40.1949 362.721 39.3665 362.721C38.5381 362.721 37.8665 363.393 37.8665 364.221C37.8665 365.049 38.5381 365.721 39.3665 365.721Z" fill="#FEF2EB"/>
<path d="M29.3665 376.721C30.1949 376.721 30.8665 376.049 30.8665 375.221C30.8665 374.393 30.1949 373.721 29.3665 373.721C28.5381 373.721 27.8665 374.393 27.8665 375.221C27.8665 376.049 28.5381 376.721 29.3665 376.721Z" fill="#FEF2EB"/>
<path d="M29.2255 375.028L39.6865 364.567L50.1475 369.793L60.6075 357.593" stroke="#FEF2EB" stroke-linecap="round" stroke-linejoin="round"/>
<path d="M55.8344 589.071H34.296C32.0255 589.071 29.8116 588.631 27.714 587.762C25.6164 586.893 23.7396 585.639 22.1341 584.034L6.90412 568.804C5.29865 567.198 4.04461 565.321 3.17574 563.224C2.30687 561.126 1.86652 558.912 1.86652 556.642V535.103C1.86652 532.833 2.30688 530.619 3.17575 528.521L2.71657 528.331L3.17575 528.521C4.04462 526.424 5.29866 524.547 6.90413 522.942L22.1341 507.712C23.7395 506.106 25.6163 504.852 27.714 503.983C29.8118 503.114 32.0256 502.674 34.2959 502.674H55.8344C58.1049 502.674 60.3187 503.114 62.4164 503.983C64.514 504.852 66.3908 506.106 67.9963 507.712L83.2263 522.942C84.8317 524.547 86.0858 526.424 86.9547 528.521C87.8235 530.619 88.2639 532.833 88.2639 535.103L88.2639 556.642C88.2639 558.912 87.8235 561.126 86.9547 563.224C86.0858 565.321 84.8317 567.198 83.2263 568.804L67.9963 584.034C66.3908 585.639 64.514 586.893 62.4164 587.762C60.3187 588.631 58.1049 589.071 55.8344 589.071Z" stroke="#FEF2EB"/>
<path d="M60.9185 563.028H29.1475C28.1677 563.027 27.2062 562.762 26.3641 562.261C25.522 561.76 24.8304 561.042 24.362 560.181C23.8935 559.321 23.6656 558.35 23.7022 557.371C23.7387 556.392 24.0383 555.44 24.5695 554.617L40.4555 529.968C40.9488 529.202 41.6263 528.572 42.4262 528.136C43.226 527.699 44.1225 527.471 45.0335 527.471C45.9446 527.471 46.8411 527.699 47.6409 528.136C48.4407 528.572 49.1183 529.202 49.6115 529.968L65.4975 554.617C66.0284 555.44 66.3278 556.392 66.3641 557.371C66.4005 558.35 66.1725 559.32 65.7041 560.181C65.2358 561.041 64.5443 561.76 63.7024 562.261C62.8605 562.762 61.8992 563.027 60.9195 563.028H60.9185ZM41.3365 530.537L25.4505 555.186C25.0202 555.851 24.7773 556.619 24.7473 557.411C24.7174 558.202 24.9016 558.987 25.2804 559.682C25.6593 560.377 26.2188 560.958 26.9 561.362C27.5811 561.766 28.3586 561.978 29.1505 561.977H60.9215C61.7134 561.978 62.491 561.766 63.1721 561.362C63.8532 560.958 64.4128 560.377 64.7916 559.682C65.1705 558.987 65.3547 558.202 65.3247 557.411C65.2948 556.619 65.0518 555.851 64.6215 555.186L48.7365 530.537C48.3377 529.919 47.7904 529.412 47.1448 529.06C46.4991 528.709 45.7757 528.524 45.0405 528.524C44.3054 528.524 43.582 528.709 42.9363 529.06C42.2907 529.412 41.7434 529.919 41.3445 530.537H41.3365Z" fill="#FEF2EB" stroke="#FEF2EB"/>
<path d="M46.4955 555.008C46.4951 555.334 46.3981 555.653 46.2167 555.924C46.0352 556.195 45.7775 556.406 45.4762 556.53C45.1748 556.655 44.8433 556.687 44.5236 556.623C44.2039 556.559 43.9102 556.402 43.6798 556.171C43.4494 555.941 43.2925 555.647 43.229 555.327C43.1656 555.007 43.1984 554.676 43.3232 554.375C43.4481 554.073 43.6595 553.816 43.9306 553.635C44.2017 553.454 44.5205 553.357 44.8465 553.357C45.0632 553.357 45.2778 553.4 45.4779 553.483C45.678 553.566 45.8599 553.688 46.013 553.841C46.1661 553.994 46.2875 554.176 46.3703 554.377C46.4531 554.577 46.4957 554.791 46.4955 555.008ZM46.8675 536.286L46.1125 550.257C46.1061 550.417 46.0539 550.572 45.9621 550.704C45.8703 550.835 45.7428 550.938 45.5945 550.999C45.1291 551.191 44.6078 551.198 44.1375 551.018C43.9839 550.954 43.8532 550.845 43.7624 550.705C43.6716 550.566 43.6249 550.402 43.6285 550.236V536.992C43.6284 536.865 43.6549 536.739 43.7063 536.622C43.7577 536.505 43.8328 536.401 43.9269 536.315C44.0211 536.229 44.1321 536.164 44.2529 536.123C44.3737 536.083 44.5017 536.068 44.6285 536.08L46.8675 536.286Z" fill="#FEF2EB" stroke="#FEF2EB"/>
<path d="M642.834 158.071H621.296C619.025 158.071 616.812 157.631 614.714 156.762C612.616 155.893 610.74 154.639 609.134 153.034L593.904 137.804C592.299 136.198 591.045 134.321 590.176 132.224C589.307 130.126 588.867 127.912 588.867 125.642V104.103C588.867 101.833 589.307 99.6191 590.176 97.5215L589.717 97.3313L590.176 97.5215C591.045 95.4238 592.299 93.547 593.904 91.9415L609.134 76.7116C610.739 75.1062 612.616 73.8522 614.714 72.9833C616.812 72.1143 619.026 71.674 621.296 71.674H642.834C645.105 71.674 647.319 72.1143 649.416 72.9832C651.514 73.8521 653.391 75.1061 654.996 76.7116L670.226 91.9416C671.832 93.547 673.086 95.4238 673.955 97.5215C674.824 99.6191 675.264 101.833 675.264 104.103L675.264 125.642C675.264 127.912 674.824 130.126 673.955 132.224C673.086 134.321 671.832 136.198 670.226 137.804L654.996 153.034C653.391 154.639 651.514 155.893 649.416 156.762C647.319 157.631 645.105 158.071 642.834 158.071Z" stroke="#FEF2EB"/>
<path d="M634.263 98.7659C634.361 98.8259 634.472 98.8628 634.588 98.8739C634.849 98.9632 635.134 98.9491 635.386 98.8345C635.637 98.7199 635.835 98.5135 635.939 98.2576C636.042 98.0018 636.044 97.7159 635.944 97.4586C635.844 97.2013 635.649 96.9921 635.4 96.8739C635.336 96.8309 635.259 96.8118 635.183 96.8199V96.7119C635.189 95.5698 634.753 94.4697 633.966 93.6421C633.178 92.8145 632.101 92.3238 630.961 92.2729C630.379 92.2444 629.797 92.3408 629.256 92.5555C628.714 92.7703 628.225 93.0984 627.821 93.5179C627.407 93.9067 627.078 94.3767 626.854 94.8984C626.631 95.4201 626.517 95.9823 626.521 96.5499V96.7669C624.138 97.6428 622.082 99.2286 620.63 101.31C619.178 103.392 618.399 105.869 618.4 108.407L618.183 111.168C617.92 114.592 616.962 117.926 615.368 120.968C614.381 121.155 613.497 121.694 612.878 122.484C612.492 122.946 612.207 123.483 612.039 124.06C611.871 124.638 611.825 125.244 611.903 125.841C612.065 126.895 612.605 127.854 613.422 128.541C614.238 129.227 615.276 129.594 616.343 129.573H645.308C646.37 129.576 647.399 129.203 648.212 128.518C649.024 127.834 649.568 126.884 649.747 125.837C649.837 125.24 649.797 124.631 649.629 124.051C649.46 123.471 649.168 122.935 648.772 122.48C648.128 121.718 647.254 121.186 646.282 120.964C645.47 119.61 644.062 116.47 643.467 111.164L643.305 108.403C643.29 108.116 643.162 107.846 642.949 107.653C642.736 107.46 642.455 107.36 642.168 107.374C641.88 107.388 641.611 107.516 641.418 107.729C641.225 107.943 641.124 108.224 641.139 108.511L641.356 111.38C641.652 114.672 642.493 117.892 643.846 120.909H617.913C619.239 117.884 620.08 114.668 620.403 111.38L620.62 108.565V108.511C620.625 106.405 621.276 104.351 622.487 102.627C623.697 100.903 625.408 99.5928 627.388 98.8729C627.79 98.7166 628.135 98.4414 628.376 98.0841C628.618 97.7269 628.746 97.3044 628.742 96.8729V96.5479C628.739 96.256 628.795 95.9664 628.906 95.6966C629.018 95.4268 629.183 95.1824 629.392 94.9779C629.592 94.7831 629.83 94.6299 630.09 94.5269C630.35 94.424 630.628 94.3733 630.908 94.3779C631.48 94.4251 632.014 94.6846 632.404 95.1054C632.795 95.5261 633.014 96.0778 633.019 96.6519V96.8729C632.99 97.2811 633.097 97.6873 633.321 98.0292C633.546 98.3712 633.877 98.63 634.263 98.7659ZM647.149 123.887C647.519 124.364 647.693 124.964 647.636 125.565C647.541 126.094 647.26 126.572 646.842 126.91C646.424 127.248 645.899 127.424 645.362 127.406H616.343C615.808 127.414 615.287 127.234 614.872 126.898C614.456 126.561 614.172 126.09 614.069 125.565C614.027 125.267 614.049 124.963 614.133 124.674C614.217 124.385 614.361 124.117 614.556 123.887C614.74 123.661 614.971 123.476 615.232 123.345C615.494 123.215 615.78 123.141 616.072 123.129H645.579C645.881 123.123 646.181 123.188 646.454 123.32C646.727 123.452 646.965 123.646 647.149 123.887Z" fill="#FEF2EB"/>
<path d="M627.929 131.791C627.941 131.652 627.925 131.512 627.883 131.38C627.84 131.247 627.772 131.124 627.681 131.019C627.59 130.913 627.479 130.827 627.354 130.765C627.229 130.703 627.094 130.666 626.955 130.658C626.812 130.647 626.668 130.665 626.532 130.711C626.397 130.757 626.272 130.83 626.165 130.926C626.059 131.022 625.973 131.138 625.913 131.269C625.854 131.399 625.821 131.54 625.818 131.683V131.958C625.93 133.23 626.515 134.413 627.457 135.275C628.399 136.137 629.63 136.615 630.907 136.615C632.183 136.615 633.414 136.137 634.356 135.275C635.298 134.413 635.883 133.23 635.996 131.958V131.633L634.913 131.687L633.83 131.795V131.903C633.765 132.632 633.416 133.307 632.86 133.783C632.303 134.259 631.582 134.497 630.852 134.448C630.496 134.478 630.138 134.437 629.798 134.328C629.458 134.218 629.143 134.043 628.871 133.812C628.599 133.58 628.376 133.297 628.214 132.979C628.052 132.661 627.955 132.314 627.928 131.958V131.796L627.929 131.791Z" fill="#FEF2EB"/>
<path d="M644.387 91.6739C642.995 91.6739 641.634 92.0867 640.476 92.8601C639.319 93.6334 638.417 94.7326 637.884 96.0186C637.352 97.3046 637.212 98.7198 637.484 100.085C637.755 101.45 638.426 102.704 639.41 103.689C640.394 104.673 641.648 105.343 643.013 105.615C644.379 105.886 645.794 105.747 647.08 105.214C648.366 104.682 649.465 103.779 650.238 102.622C651.012 101.465 651.425 100.104 651.425 98.7119C651.426 97.7872 651.246 96.8712 650.893 96.0164C650.54 95.1617 650.021 94.3851 649.367 93.7312C648.713 93.0773 647.937 92.559 647.082 92.2059C646.227 91.8529 645.311 91.6721 644.387 91.6739ZM644.387 103.585C643.423 103.585 642.481 103.299 641.679 102.764C640.878 102.228 640.253 101.467 639.884 100.577C639.516 99.6863 639.419 98.7065 639.607 97.7613C639.795 96.816 640.259 95.9477 640.941 95.2662C641.622 94.5847 642.491 94.1206 643.436 93.9326C644.381 93.7446 645.361 93.8411 646.251 94.2099C647.142 94.5787 647.903 95.2033 648.438 96.0047C648.974 96.806 649.26 97.7482 649.26 98.7119C649.262 99.3527 649.138 99.9876 648.894 100.58C648.65 101.173 648.292 101.711 647.838 102.164C647.385 102.617 646.847 102.976 646.255 103.22C645.662 103.464 645.027 103.588 644.387 103.585Z" fill="#FEF2EB"/>
<path d="M620.9 252.71C618.629 252.71 616.415 253.15 614.318 254.019C612.22 254.888 610.343 256.142 608.738 257.747L593.508 272.977C591.902 274.582 590.648 276.46 589.779 278.557C588.911 280.654 588.47 282.869 588.47 285.139V306.678C588.47 308.948 588.911 311.162 589.779 313.259C590.648 315.357 591.902 317.234 593.508 318.839L608.738 334.069C610.343 335.675 612.22 336.929 614.318 337.798C616.415 338.666 618.629 339.107 620.899 339.107H642.438C644.708 339.107 646.923 338.666 649.02 337.798C651.117 336.929 652.995 335.675 654.6 334.069L669.83 318.839C671.435 317.234 672.689 315.357 673.558 313.259C674.427 311.162 674.867 308.948 674.867 306.678V285.139C674.867 282.869 674.427 280.654 673.558 278.557C672.689 276.46 671.435 274.582 669.83 272.977L654.6 257.747C652.995 256.142 651.117 254.888 649.02 254.019C646.923 253.15 644.708 252.71 642.438 252.71H620.9ZM620.9 251.71H642.438C647.265 251.71 651.894 253.627 655.307 257.04L670.537 272.27C673.95 275.683 675.867 280.312 675.867 285.139V306.678C675.867 311.504 673.95 316.133 670.537 319.546L655.307 334.776C651.894 338.19 647.265 340.107 642.438 340.107H620.899C616.073 340.107 611.444 338.19 608.031 334.776L592.801 319.546C589.387 316.133 587.47 311.504 587.47 306.678V285.139C587.47 280.312 589.387 275.683 592.801 272.27L608.031 257.04C611.444 253.627 616.073 251.71 620.9 251.71Z" fill="#FEF2EB"/>
<path fill-rule="evenodd" clip-rule="evenodd" d="M652.448 285.544L650.948 282.944C650.341 281.887 649.339 281.114 648.163 280.796C646.986 280.477 645.732 280.638 644.674 281.244C644.155 281.549 643.581 281.749 642.985 281.833C642.389 281.916 641.782 281.882 641.199 281.73C640.616 281.579 640.069 281.314 639.589 280.951C639.109 280.588 638.705 280.134 638.4 279.615C638.005 278.948 637.792 278.189 637.784 277.415C637.802 276.799 637.696 276.187 637.473 275.613C637.25 275.04 636.914 274.517 636.485 274.076C636.056 273.634 635.543 273.283 634.976 273.044C634.409 272.805 633.799 272.681 633.184 272.682H630.168C629.565 272.682 628.968 272.801 628.411 273.032C627.854 273.264 627.348 273.603 626.923 274.03C626.497 274.458 626.16 274.965 625.932 275.523C625.703 276.081 625.586 276.678 625.589 277.282C625.572 278.49 625.08 279.644 624.219 280.492C623.358 281.341 622.198 281.817 620.989 281.817C620.214 281.809 619.455 281.596 618.789 281.201C617.731 280.594 616.475 280.432 615.298 280.751C614.121 281.07 613.118 281.844 612.511 282.902L610.905 285.544C610.297 286.598 610.132 287.85 610.446 289.026C610.759 290.202 611.526 291.206 612.578 291.818C613.278 292.221 613.859 292.802 614.263 293.501C614.667 294.201 614.88 294.995 614.88 295.803C614.88 296.61 614.667 297.404 614.263 298.104C613.859 298.803 613.278 299.384 612.578 299.788C611.528 300.395 610.761 301.395 610.448 302.567C610.134 303.74 610.299 304.988 610.905 306.04L612.424 308.66C612.718 309.19 613.113 309.657 613.588 310.034C614.063 310.41 614.607 310.69 615.19 310.855C615.773 311.021 616.383 311.07 616.985 310.999C617.587 310.928 618.169 310.739 618.698 310.443C619.218 310.139 619.792 309.942 620.389 309.862C620.985 309.782 621.591 309.821 622.173 309.976C622.754 310.132 623.299 310.401 623.775 310.768C624.252 311.135 624.651 311.593 624.95 312.116C625.345 312.782 625.558 313.541 625.566 314.316C625.566 315.536 626.051 316.706 626.913 317.568C627.776 318.431 628.946 318.916 630.166 318.916H633.182C634.398 318.916 635.565 318.434 636.427 317.576C637.289 316.718 637.776 315.553 637.782 314.337C637.779 313.732 637.896 313.132 638.127 312.573C638.357 312.014 638.695 311.505 639.123 311.078C639.551 310.65 640.059 310.311 640.618 310.081C641.178 309.851 641.777 309.734 642.382 309.737C643.155 309.757 643.911 309.969 644.582 310.353C645.636 310.96 646.889 311.126 648.065 310.812C649.241 310.498 650.244 309.732 650.856 308.68L652.441 306.038C652.745 305.516 652.942 304.94 653.023 304.342C653.103 303.744 653.064 303.136 652.909 302.553C652.753 301.97 652.484 301.423 652.117 300.944C651.749 300.466 651.291 300.064 650.768 299.764C650.245 299.463 649.787 299.061 649.419 298.583C649.052 298.104 648.783 297.557 648.627 296.974C648.472 296.391 648.433 295.783 648.513 295.185C648.594 294.587 648.791 294.011 649.095 293.49C649.494 292.793 650.072 292.216 650.768 291.817C651.814 291.205 652.577 290.205 652.89 289.035C653.203 287.864 653.042 286.617 652.441 285.565L652.448 285.544Z" stroke="#FEF2EB" stroke-width="2" stroke-linecap="round" stroke-linejoin="round"/>
<path d="M631.688 302.143C635.19 302.143 638.028 299.304 638.028 295.803C638.028 292.301 635.19 289.463 631.688 289.463C628.187 289.463 625.348 292.301 625.348 295.803C625.348 299.304 628.187 302.143 631.688 302.143Z" stroke="#FEF2EB" stroke-width="2" stroke-linecap="round" stroke-linejoin="round"/>
<path d="M641.834 520.07H620.296C618.025 520.07 615.812 519.63 613.714 518.761C611.616 517.892 609.74 516.638 608.134 515.033L592.904 499.803C591.299 498.197 590.045 496.32 589.176 494.223C588.307 492.125 587.867 489.911 587.867 487.641V466.102C587.867 463.832 588.307 461.618 589.176 459.52L588.717 459.33L589.176 459.52C590.045 457.423 591.299 455.546 592.904 453.941L608.134 438.711C609.739 437.105 611.616 435.851 613.714 434.982C615.812 434.113 618.026 433.673 620.296 433.673H641.834C644.105 433.673 646.319 434.113 648.416 434.982C650.514 435.851 652.391 437.105 653.996 438.711L669.226 453.941C670.832 455.546 672.086 457.423 672.955 459.52C673.824 461.618 674.264 463.832 674.264 466.102L674.264 487.641C674.264 489.911 673.824 492.125 672.955 494.223C672.086 496.32 670.832 498.197 669.226 499.803L653.996 515.033C652.391 516.638 650.514 517.892 648.416 518.761C646.319 519.63 644.105 520.07 641.834 520.07Z" stroke="#FEF2EB"/>
<path d="M649.947 477.212C649.947 481.076 648.801 484.854 646.654 488.067C644.507 491.28 641.455 493.785 637.885 495.264C634.314 496.743 630.386 497.129 626.596 496.376C622.805 495.622 619.324 493.761 616.591 491.028C613.859 488.296 611.998 484.814 611.244 481.024C610.49 477.234 610.877 473.305 612.356 469.735C613.835 466.164 616.339 463.113 619.552 460.966C622.765 458.819 626.543 457.673 630.408 457.673C635.06 457.673 639.117 458.752 644.369 463.795V460.743C644.369 460.496 644.467 460.26 644.641 460.085C644.816 459.911 645.052 459.812 645.299 459.812C645.546 459.812 645.782 459.911 645.957 460.085C646.131 460.26 646.23 460.496 646.23 460.743V465.953C646.244 466.09 646.227 466.228 646.18 466.358C646.134 466.487 646.058 466.604 645.96 466.701C645.862 466.797 645.743 466.869 645.612 466.913C645.482 466.957 645.343 466.97 645.207 466.953H639.997C639.75 466.953 639.513 466.855 639.339 466.68C639.164 466.506 639.066 466.269 639.066 466.022C639.066 465.776 639.164 465.539 639.339 465.365C639.513 465.19 639.75 465.092 639.997 465.092H643.067C638.267 460.492 634.6 459.509 630.413 459.509C626.917 459.509 623.5 460.545 620.593 462.487C617.687 464.428 615.421 467.188 614.082 470.417C612.744 473.646 612.392 477.199 613.073 480.628C613.753 484.056 615.434 487.206 617.905 489.679C620.375 492.153 623.522 493.838 626.95 494.523C630.378 495.207 633.932 494.86 637.162 493.526C640.393 492.191 643.155 489.929 645.101 487.024C647.046 484.12 648.086 480.704 648.091 477.209C648.098 475.312 647.796 473.426 647.198 471.626C647.126 471.391 647.149 471.138 647.261 470.919C647.373 470.7 647.565 470.534 647.798 470.454C647.914 470.416 648.036 470.402 648.158 470.412C648.28 470.421 648.399 470.455 648.508 470.511C648.617 470.567 648.714 470.643 648.793 470.736C648.872 470.83 648.932 470.938 648.97 471.054C649.625 473.041 649.955 475.12 649.947 477.212ZM630.408 465.116C630.161 465.116 629.924 465.214 629.75 465.388C629.575 465.563 629.478 465.799 629.478 466.046V477.603L635.34 483.446C635.423 483.54 635.524 483.616 635.638 483.67C635.752 483.723 635.876 483.753 636.001 483.757C636.127 483.761 636.252 483.739 636.369 483.692C636.486 483.646 636.592 483.576 636.681 483.487C636.77 483.399 636.84 483.292 636.886 483.175C636.932 483.059 636.954 482.933 636.95 482.808C636.946 482.682 636.917 482.559 636.863 482.445C636.81 482.331 636.734 482.229 636.64 482.146L631.34 476.824V466.047C631.34 465.925 631.316 465.803 631.269 465.69C631.222 465.577 631.153 465.474 631.067 465.388C630.98 465.302 630.877 465.233 630.764 465.186C630.651 465.14 630.53 465.116 630.408 465.116Z" fill="#FEF2EB"/>
<mask id="path-33-inside-1_117_1306" fill="white">
<path fill-rule="evenodd" clip-rule="evenodd" d="M284.983 435.927C288.854 438.806 293.073 441.203 297.549 443.058C304.673 446.009 312.308 447.528 320.018 447.529H389.503C397.214 447.528 404.849 446.009 411.972 443.058C419.095 440.106 425.567 435.781 431.019 430.329L480.152 381.196C485.605 375.744 489.93 369.272 492.881 362.148C495.832 355.025 497.352 347.39 497.352 339.68V270.195C497.352 262.484 495.832 254.849 492.881 247.726C489.93 240.603 485.605 234.13 480.152 228.679L431.019 179.549C425.567 174.096 419.095 169.771 411.972 166.819C409.994 166 407.977 165.291 405.93 164.694C408.219 166.396 410.385 168.267 412.411 170.293L461.544 219.423C466.996 224.875 471.322 231.347 474.273 238.47C477.224 245.594 478.743 253.228 478.744 260.939V330.424C478.743 338.134 477.224 345.769 474.273 352.893C471.322 360.016 466.996 366.488 461.544 371.94L412.411 421.073C406.959 426.525 400.487 430.851 393.363 433.802C386.24 436.753 378.605 438.272 370.895 438.273H301.41C295.84 438.272 290.31 437.48 284.983 435.927Z"/>
</mask>
<path fill-rule="evenodd" clip-rule="evenodd" d="M284.983 435.927C288.854 438.806 293.073 441.203 297.549 443.058C304.673 446.009 312.308 447.528 320.018 447.529H389.503C397.214 447.528 404.849 446.009 411.972 443.058C419.095 440.106 425.567 435.781 431.019 430.329L480.152 381.196C485.605 375.744 489.93 369.272 492.881 362.148C495.832 355.025 497.352 347.39 497.352 339.68V270.195C497.352 262.484 495.832 254.849 492.881 247.726C489.93 240.603 485.605 234.13 480.152 228.679L431.019 179.549C425.567 174.096 419.095 169.771 411.972 166.819C409.994 166 407.977 165.291 405.93 164.694C408.219 166.396 410.385 168.267 412.411 170.293L461.544 219.423C466.996 224.875 471.322 231.347 474.273 238.47C477.224 245.594 478.743 253.228 478.744 260.939V330.424C478.743 338.134 477.224 345.769 474.273 352.893C471.322 360.016 466.996 366.488 461.544 371.94L412.411 421.073C406.959 426.525 400.487 430.851 393.363 433.802C386.24 436.753 378.605 438.272 370.895 438.273H301.41C295.84 438.272 290.31 437.48 284.983 435.927Z" fill="#B0D775"/>
<path d="M297.549 443.058L297.932 442.134H297.932L297.549 443.058ZM284.983 435.927L285.263 434.967L284.386 436.729L284.983 435.927ZM320.018 447.529L320.018 448.529H320.018V447.529ZM389.503 447.529V448.529H389.503L389.503 447.529ZM431.019 430.329L430.312 429.621L430.312 429.621L431.019 430.329ZM480.152 381.196L479.445 380.488L479.445 380.488L480.152 381.196ZM497.352 339.68L498.352 339.68V339.68H497.352ZM497.352 270.195H498.352V270.194L497.352 270.195ZM480.152 228.679L479.445 229.386L479.445 229.386L480.152 228.679ZM431.019 179.549L430.312 180.256L430.312 180.256L431.019 179.549ZM411.972 166.819L411.589 167.743L411.972 166.819ZM405.93 164.694L406.21 163.734L405.333 165.497L405.93 164.694ZM412.411 170.293L411.704 171L411.704 171L412.411 170.293ZM461.544 219.423L460.837 220.13L460.837 220.13L461.544 219.423ZM478.744 260.939H479.744V260.939L478.744 260.939ZM478.744 330.424L479.744 330.424V330.424H478.744ZM461.544 371.94L460.837 371.233L460.837 371.233L461.544 371.94ZM412.411 421.073L411.704 420.366L411.704 420.366L412.411 421.073ZM370.895 438.273V439.273H370.895L370.895 438.273ZM301.41 438.273L301.41 439.273H301.41V438.273ZM297.932 442.134C293.532 440.311 289.384 437.954 285.58 435.125L284.386 436.729C288.323 439.657 292.614 442.095 297.167 443.982L297.932 442.134ZM320.018 446.529C312.439 446.528 304.934 445.035 297.932 442.134L297.167 443.982C304.411 446.983 312.176 448.528 320.018 448.529L320.018 446.529ZM389.503 446.529H320.018V448.529H389.503V446.529ZM411.589 442.134C404.587 445.035 397.082 446.528 389.503 446.529L389.503 448.529C397.345 448.528 405.11 446.983 412.355 443.982L411.589 442.134ZM430.312 429.621C424.953 434.981 418.591 439.233 411.589 442.134L412.355 443.982C419.599 440.98 426.182 436.581 431.726 431.036L430.312 429.621ZM479.445 380.488L430.312 429.621L431.726 431.036L480.859 381.903L479.445 380.488ZM491.957 361.765C489.057 368.767 484.805 375.13 479.445 380.488L480.859 381.903C486.405 376.358 490.804 369.776 493.805 362.531L491.957 361.765ZM496.352 339.679C496.352 347.259 494.858 354.763 491.957 361.765L493.805 362.531C496.807 355.286 498.352 347.521 498.352 339.68L496.352 339.679ZM496.352 270.195V339.68H498.352V270.195H496.352ZM491.957 248.109C494.858 255.111 496.352 262.615 496.352 270.195L498.352 270.194C498.352 262.353 496.807 254.588 493.805 247.343L491.957 248.109ZM479.445 229.386C484.805 234.745 489.057 241.107 491.957 248.109L493.805 247.343C490.804 240.098 486.405 233.516 480.859 227.971L479.445 229.386ZM430.312 180.256L479.445 229.386L480.859 227.971L431.726 178.841L430.312 180.256ZM411.589 167.743C418.591 170.644 424.953 174.896 430.312 180.256L431.726 178.841C426.182 173.296 419.599 168.897 412.355 165.896L411.589 167.743ZM405.65 165.654C407.662 166.241 409.645 166.938 411.589 167.743L412.355 165.896C410.343 165.062 408.292 164.341 406.21 163.734L405.65 165.654ZM405.333 165.497C407.583 167.17 409.712 169.008 411.704 171L413.118 169.586C411.058 167.525 408.854 165.623 406.527 163.892L405.333 165.497ZM411.704 171L460.837 220.13L462.251 218.716L413.118 169.586L411.704 171ZM460.837 220.13C466.196 225.489 470.448 231.851 473.349 238.853L475.197 238.087C472.195 230.843 467.796 224.26 462.251 218.716L460.837 220.13ZM473.349 238.853C476.25 245.855 477.743 253.36 477.744 260.939L479.744 260.939C479.743 253.097 478.198 245.332 475.197 238.087L473.349 238.853ZM477.744 260.939V330.424H479.744V260.939H477.744ZM477.744 330.424C477.743 338.003 476.25 345.508 473.349 352.51L475.197 353.275C478.198 346.031 479.743 338.266 479.744 330.424L477.744 330.424ZM473.349 352.51C470.448 359.512 466.196 365.874 460.837 371.233L462.251 372.647C467.796 367.102 472.195 360.52 475.197 353.275L473.349 352.51ZM460.837 371.233L411.704 420.366L413.118 421.78L462.251 372.647L460.837 371.233ZM411.704 420.366C406.345 425.726 399.983 429.977 392.981 432.878L393.746 434.726C400.991 431.724 407.573 427.325 413.118 421.78L411.704 420.366ZM392.981 432.878C385.979 435.779 378.474 437.272 370.895 437.273L370.895 439.273C378.737 439.272 386.502 437.727 393.746 434.726L392.981 432.878ZM370.895 437.273H301.41V439.273H370.895V437.273ZM301.41 437.273C295.935 437.272 290.499 436.493 285.263 434.967L284.703 436.887C290.12 438.466 295.745 439.272 301.41 439.273L301.41 437.273Z" fill="#FEF2EB" mask="url(#path-33-inside-1_117_1306)"/>
<mask id="path-35-inside-2_117_1306" fill="white">
<path d="M372.895 154.093C380.605 154.093 388.24 155.613 395.363 158.564C402.487 161.515 408.959 165.84 414.411 171.293L463.544 220.423C468.996 225.875 473.322 232.347 476.273 239.47C479.224 246.594 480.743 254.228 480.744 261.939V331.424C480.743 339.134 479.224 346.769 476.273 353.893C473.322 361.016 468.996 367.488 463.544 372.94L414.411 422.073C408.959 427.525 402.487 431.851 395.363 434.802C388.24 437.753 380.605 439.272 372.895 439.273H303.41C295.699 439.272 288.064 437.753 280.941 434.802C273.818 431.851 267.345 427.525 261.894 422.073L212.764 372.94C207.311 367.488 202.986 361.016 200.035 353.893C197.083 346.769 195.564 339.134 195.564 331.424V261.939C195.564 254.228 197.083 246.594 200.035 239.47C202.986 232.347 207.311 225.875 212.764 220.423L261.894 171.293C267.345 165.84 273.818 161.515 280.941 158.564C288.064 155.613 295.699 154.093 303.41 154.093H372.895Z"/>
</mask>
<path d="M372.895 154.093L372.895 153.093H372.895V154.093ZM414.411 171.293L413.704 172L413.704 172L414.411 171.293ZM463.544 220.423L462.837 221.13L462.837 221.13L463.544 220.423ZM480.744 261.939H481.744V261.939L480.744 261.939ZM480.744 331.424L481.744 331.424V331.424H480.744ZM463.544 372.94L462.837 372.233L462.837 372.233L463.544 372.94ZM414.411 422.073L413.704 421.366L413.704 421.366L414.411 422.073ZM372.895 439.273V440.273H372.895L372.895 439.273ZM303.41 439.273L303.41 440.273H303.41V439.273ZM261.894 422.073L262.601 421.366L262.601 421.366L261.894 422.073ZM212.764 372.94L213.471 372.233L213.471 372.233L212.764 372.94ZM195.564 331.424H194.564V331.424L195.564 331.424ZM195.564 261.939L194.564 261.939V261.939H195.564ZM212.764 220.423L213.471 221.13L213.471 221.13L212.764 220.423ZM261.894 171.293L262.601 172L262.601 172L261.894 171.293ZM303.41 154.093V153.093H303.41L303.41 154.093ZM372.895 155.093C380.474 155.093 387.979 156.587 394.981 159.488L395.746 157.64C388.501 154.638 380.737 153.093 372.895 153.093L372.895 155.093ZM394.981 159.488C401.983 162.389 408.345 166.64 413.704 172L415.118 170.586C409.573 165.04 402.991 160.641 395.746 157.64L394.981 159.488ZM413.704 172L462.837 221.13L464.251 219.716L415.118 170.586L413.704 172ZM462.837 221.13C468.196 226.489 472.448 232.851 475.349 239.853L477.197 239.087C474.195 231.843 469.796 225.26 464.251 219.716L462.837 221.13ZM475.349 239.853C478.25 246.855 479.743 254.36 479.744 261.939L481.744 261.939C481.743 254.097 480.198 246.332 477.197 239.087L475.349 239.853ZM479.744 261.939V331.424H481.744V261.939H479.744ZM479.744 331.424C479.743 339.003 478.25 346.508 475.349 353.51L477.197 354.275C480.198 347.031 481.743 339.266 481.744 331.424L479.744 331.424ZM475.349 353.51C472.448 360.512 468.196 366.874 462.837 372.233L464.251 373.647C469.796 368.103 474.195 361.52 477.197 354.275L475.349 353.51ZM462.837 372.233L413.704 421.366L415.118 422.78L464.251 373.647L462.837 372.233ZM413.704 421.366C408.345 426.726 401.983 430.977 394.981 433.878L395.746 435.726C402.991 432.724 409.573 428.325 415.118 422.78L413.704 421.366ZM394.981 433.878C387.979 436.779 380.474 438.272 372.895 438.273L372.895 440.273C380.737 440.272 388.501 438.727 395.746 435.726L394.981 433.878ZM372.895 438.273H303.41V440.273H372.895V438.273ZM303.41 438.273C295.831 438.272 288.326 436.779 281.324 433.878L280.558 435.726C287.803 438.727 295.568 440.272 303.41 440.273L303.41 438.273ZM281.324 433.878C274.322 430.977 267.96 426.726 262.601 421.366L261.187 422.78C266.731 428.325 273.314 432.724 280.558 435.726L281.324 433.878ZM262.601 421.366L213.471 372.233L212.057 373.647L261.187 422.78L262.601 421.366ZM213.471 372.233C208.111 366.874 203.859 360.512 200.958 353.51L199.111 354.275C202.112 361.52 206.511 368.103 212.057 373.647L213.471 372.233ZM200.958 353.51C198.058 346.508 196.564 339.003 196.564 331.424L194.564 331.424C194.564 339.266 196.109 347.031 199.111 354.275L200.958 353.51ZM196.564 331.424V261.939H194.564V331.424H196.564ZM196.564 261.939C196.564 254.36 198.058 246.855 200.958 239.853L199.111 239.087C196.109 246.332 194.564 254.097 194.564 261.939L196.564 261.939ZM200.958 239.853C203.859 232.851 208.111 226.489 213.471 221.13L212.057 219.716C206.511 225.26 202.112 231.843 199.111 239.087L200.958 239.853ZM213.471 221.13L262.601 172L261.187 170.586L212.057 219.716L213.471 221.13ZM262.601 172C267.96 166.64 274.322 162.389 281.324 159.488L280.558 157.64C273.314 160.641 266.731 165.04 261.187 170.586L262.601 172ZM281.324 159.488C288.326 156.587 295.831 155.093 303.41 155.093L303.41 153.093C295.568 153.093 287.803 154.638 280.558 157.64L281.324 159.488ZM303.41 155.093H372.895V153.093H303.41V155.093Z" fill="#FEF2EB" mask="url(#path-35-inside-2_117_1306)"/>
</g>
<path d="M324.848 320.847C324.785 320.822 324.727 320.795 324.667 320.767C324.101 320.469 323.675 319.961 323.481 319.353C323.288 318.744 323.341 318.083 323.631 317.514L326.488 311.802C322.222 309.257 318.977 305.305 317.311 300.626L310.922 302.01C310.316 302.136 309.686 302.021 309.163 301.691C308.641 301.36 308.267 300.839 308.122 300.238L308.108 300.147C307.976 299.525 308.094 298.877 308.437 298.343C308.779 297.808 309.319 297.43 309.938 297.29L316.288 295.915C316.233 295.329 316.204 294.736 316.201 294.137V294.046C316.193 290.36 317.201 286.744 319.114 283.595L313.526 279.457C313.014 279.074 312.672 278.506 312.574 277.875C312.476 277.243 312.629 276.598 313.001 276.079C313.045 276.012 313.092 275.949 313.144 275.889C313.533 275.442 314.077 275.158 314.666 275.095C315.256 275.031 315.847 275.192 316.323 275.546L322.054 279.788C325.709 276.058 330.538 273.704 335.727 273.122V266.197C335.72 265.881 335.777 265.567 335.893 265.273C336.01 264.98 336.184 264.712 336.405 264.486C336.626 264.261 336.89 264.082 337.181 263.959C337.472 263.837 337.785 263.774 338.1 263.774C338.416 263.774 338.729 263.837 339.02 263.959C339.311 264.082 339.575 264.261 339.796 264.486C340.017 264.712 340.191 264.98 340.307 265.273C340.424 265.567 340.48 265.881 340.474 266.197V273.042C345.782 273.452 350.779 275.707 354.599 279.415L359.817 275.553C360.294 275.201 360.887 275.041 361.476 275.107C362.066 275.172 362.609 275.457 362.998 275.905C363.048 275.963 363.093 276.024 363.135 276.089C363.506 276.608 363.659 277.253 363.56 277.884C363.461 278.515 363.119 279.083 362.607 279.465L357.636 283.144C360.101 286.968 361.197 291.516 360.747 296.044L366.467 297.284C367.085 297.425 367.622 297.804 367.964 298.339C368.305 298.873 368.422 299.52 368.291 300.141C368.286 300.171 368.28 300.199 368.275 300.229C368.131 300.83 367.76 301.352 367.238 301.684C366.717 302.015 366.086 302.131 365.481 302.007L359.693 300.753C357.992 305.428 354.714 309.365 350.424 311.885L353.206 317.447C353.495 318.016 353.548 318.676 353.354 319.285C353.159 319.893 352.733 320.4 352.167 320.697C352.106 320.727 352.046 320.754 351.986 320.779C351.433 321.009 350.814 321.019 350.254 320.807C349.694 320.595 349.236 320.177 348.975 319.639L346.095 313.884C340.912 315.635 335.281 315.535 330.164 313.6L327.855 319.708C327.667 320.106 327.368 320.441 326.994 320.674C326.621 320.908 326.188 321.029 325.748 321.024C325.439 321.023 325.134 320.963 324.848 320.847ZM338.288 310.16C340.163 310.169 342.028 309.886 343.815 309.319L340.057 301.81C339.524 301.909 338.984 301.959 338.442 301.959C337.207 301.961 335.986 301.699 334.861 301.191L331.919 308.972C333.951 309.752 336.108 310.155 338.284 310.161L338.288 310.16ZM328.719 307.343L332.568 299.649C331.955 299.066 331.439 298.389 331.042 297.643C331 297.656 330.957 297.668 330.914 297.68L322.314 299.542C323.57 302.753 325.812 305.484 328.716 307.343H328.719ZM348.119 307.268C350.95 305.423 353.138 302.745 354.382 299.604L345.789 297.743C345.397 298.452 344.898 299.097 344.31 299.655L348.119 307.268ZM355.401 294.886C355.415 294.631 355.423 294.375 355.424 294.117V294.046C355.427 291.333 354.71 288.668 353.347 286.324L346.248 291.572C346.417 292.029 346.541 292.501 346.617 292.983L355.401 294.886ZM321.301 293.976C321.301 294.26 321.307 294.543 321.32 294.825L329.933 292.96C330.045 292.939 330.159 292.926 330.273 292.921C330.327 292.594 330.403 292.271 330.501 291.955C330.345 291.884 330.197 291.797 330.061 291.694L323.212 286.624C321.966 288.875 321.306 291.405 321.295 293.979L321.301 293.976ZM332.864 287.786C332.986 287.88 333.099 287.985 333.202 288.1C333.962 287.511 334.818 287.058 335.732 286.76V278.123C332.12 278.637 328.761 280.276 326.132 282.807L332.864 287.786ZM343.273 287.8L343.284 287.791L350.346 282.565C347.622 280.048 344.165 278.466 340.48 278.052V286.568C341.476 286.806 342.421 287.224 343.268 287.801L343.273 287.8ZM328.293 319.136L333.748 320.249C331.902 320.031 330.077 319.659 328.293 319.136Z" fill="#FFE682"/>
<path d="M243.814 344.765C242.873 344.765 241.937 344.624 241.039 344.345C240.348 344.083 239.687 343.75 239.066 343.35C237.75 342.542 236.697 341.369 236.036 339.973C235.375 338.577 235.135 337.02 235.344 335.49L235.358 335.39C235.728 333.407 236.787 331.62 238.349 330.344C239.911 329.068 241.874 328.386 243.89 328.42C244.19 328.42 244.49 328.435 244.79 328.464C246.011 328.608 247.249 328.506 248.43 328.164C249.54 327.853 250.577 327.321 251.476 326.599C252.375 325.878 253.118 324.981 253.661 323.964C254.156 323.035 254.458 322.016 254.548 320.967C254.638 319.919 254.514 318.863 254.185 317.864C253.563 316.045 253.444 314.093 253.839 312.213C253.919 310.975 254.252 309.767 254.817 308.664C256.024 306.202 257.899 304.13 260.227 302.684C262.556 301.237 265.244 300.474 267.985 300.482C271.468 300.49 274.842 301.693 277.545 303.889C278.649 304.352 279.833 304.599 281.031 304.615C283.552 304.615 286.841 303.35 288.191 297.326C288.922 296.133 289.337 293.741 289.912 290.426C290.099 289.351 290.312 288.132 290.554 286.846C292.267 277.946 294.054 273.605 298.518 267.483C301.804 262.985 305.909 259.149 310.618 256.175C318.812 250.679 328.464 247.763 338.33 247.804C345.567 247.806 352.718 249.37 359.295 252.389C366.238 255.436 372.303 260.182 376.932 266.189C378.298 267.837 379.505 269.605 380.671 271.315C383.351 275.243 385.666 278.636 388.665 278.636C388.866 278.635 389.066 278.62 389.265 278.59C393.74 277.919 394.852 277.439 396.452 273.873C397.212 270.759 398.951 267.971 401.413 265.919C403.875 263.867 406.93 262.659 410.13 262.473C410.422 262.463 410.717 262.458 411.007 262.458C411.928 262.458 412.848 262.508 413.764 262.608C414.294 262.715 414.833 262.769 415.373 262.77C416.027 262.77 416.679 262.69 417.314 262.531C418.095 262.337 418.854 262.062 419.578 261.712C421.213 260.761 422.553 259.377 423.449 257.712L423.565 257.481C424.11 256.4 424.11 256.4 423.986 251.365L423.955 250.106L423.892 247.818L424.665 246.374C425.33 245.101 426.288 244.005 427.46 243.175C428.632 242.346 429.984 241.807 431.405 241.603V241.589C431.883 241.515 432.366 241.476 432.85 241.474C433.254 241.479 433.658 241.51 434.059 241.565C435.268 241.717 436.434 242.111 437.489 242.722C438.543 243.333 439.464 244.15 440.197 245.124C440.859 245.998 441.339 246.996 441.608 248.059C441.878 249.121 441.931 250.228 441.765 251.312C441.445 253.131 440.555 254.801 439.224 256.081C437.892 257.361 436.188 258.185 434.358 258.433C433.636 258.533 432.373 258.703 431.592 258.818C429.569 259.086 427.709 260.067 426.344 261.583C424.979 263.1 424.199 265.053 424.144 267.093C424.101 268.289 424.381 269.474 424.957 270.524C425.937 272.436 426.404 274.571 426.311 276.719C426.404 278.99 425.844 281.24 424.696 283.202C424.019 284.562 423.071 285.769 421.91 286.749C420.856 287.877 419.577 288.772 418.155 289.374C417.109 289.855 416.028 290.256 414.921 290.574C412.586 290.978 410.202 291.009 407.858 290.667C405.612 290.027 403.494 289.002 401.6 287.637C400.64 286.647 399.434 285.93 398.106 285.56C396.966 285.205 395.742 285.225 394.614 285.618C394.501 285.653 394.383 285.672 394.265 285.674H394.22C391.622 286.993 389.467 289.044 388.02 291.574C387.268 293.534 386.764 295.581 386.52 297.667C385.64 304.409 383.351 310.89 379.803 316.691C376.192 322.34 371.399 327.14 365.754 330.758C361.206 333.997 356.046 336.276 350.589 337.458C346.532 338.476 342.364 338.991 338.181 338.991C328.482 339.024 318.982 336.239 310.836 330.974C306.443 328.1 302.572 324.499 299.388 320.325L299.195 320.092C295.538 315.674 292.38 311.859 288.135 311.859C286.886 311.879 285.657 312.173 284.535 312.721C283.914 313.182 283.391 313.764 282.999 314.43C282.606 315.097 282.35 315.836 282.247 316.603C281.768 319.038 280.593 321.283 278.865 323.065C277.493 324.542 275.83 325.718 273.98 326.519C272.129 327.319 270.133 327.726 268.117 327.715C267.047 327.714 265.98 327.6 264.935 327.374C263.955 327.153 262.595 326.896 261.965 326.814C261.673 326.786 261.378 326.772 261.087 326.772C259.094 326.74 257.153 327.412 255.605 328.667C254.057 329.923 253 331.684 252.619 333.641C252.512 334.306 252.49 334.983 252.553 335.655C252.643 337.158 252.366 338.661 251.745 340.034C251.29 340.96 250.663 341.792 249.899 342.487C248.219 343.966 246.053 344.777 243.814 344.765ZM243.907 331.699C243.317 331.698 242.732 331.813 242.187 332.04C241.473 332.256 240.818 332.632 240.27 333.139C239.723 333.646 239.298 334.27 239.028 334.966C238.719 335.634 238.642 336.386 238.808 337.103C238.928 338.197 239.415 339.218 240.191 339.999C240.966 340.78 241.984 341.275 243.077 341.403C243.951 341.512 244.838 341.431 245.677 341.164C246.291 340.952 246.859 340.626 247.353 340.205C247.856 339.785 248.268 339.265 248.561 338.679C248.855 338.093 249.025 337.453 249.06 336.799C249.092 336.151 248.99 335.503 248.761 334.897C248.531 334.29 248.179 333.738 247.726 333.274C246.798 332.421 245.627 331.879 244.377 331.724C244.221 331.707 244.064 331.699 243.907 331.699ZM338.322 257.374C317.588 257.374 300.722 273.305 300.722 292.888C300.722 312.471 317.59 328.402 338.322 328.402C359.054 328.402 375.922 312.471 375.922 292.888C375.922 273.305 359.057 257.374 338.322 257.374ZM268.04 305.96C267.795 305.96 267.534 305.972 267.24 305.996C266.086 306.086 264.961 306.407 263.932 306.938C262.903 307.469 261.991 308.201 261.249 309.09C260.58 309.886 260.077 310.807 259.769 311.801C259.461 312.794 259.355 313.839 259.457 314.874C259.587 316.392 260.19 317.831 261.18 318.989C262.584 320.765 264.629 321.921 266.875 322.209C267.271 322.263 267.67 322.29 268.069 322.291C268.296 322.291 268.525 322.282 268.751 322.264C270.877 322.122 272.871 321.184 274.338 319.639C275.804 318.093 276.635 316.052 276.665 313.922C276.576 312.165 275.933 310.483 274.829 309.114C273.725 307.746 272.216 306.762 270.519 306.304C269.712 306.076 268.878 305.96 268.04 305.96ZM411.235 268.15C408.877 268.144 406.61 269.057 404.914 270.694C403.749 271.642 402.933 272.95 402.593 274.414C402.158 275.858 402.138 277.396 402.535 278.851C402.931 280.307 403.728 281.622 404.835 282.647C406.55 284.316 408.848 285.252 411.242 285.257C413.259 285.287 415.229 284.639 416.833 283.416C418.438 282.193 419.585 280.466 420.091 278.513C420.334 277.45 420.361 276.349 420.17 275.275C419.978 274.202 419.572 273.178 418.976 272.266C418.318 271.255 417.463 270.388 416.462 269.715C415.461 269.042 414.335 268.578 413.151 268.351C412.521 268.217 411.878 268.15 411.234 268.15H411.235ZM428.077 252.55C428.584 253.352 429.284 254.013 430.114 254.473C430.945 254.933 431.877 255.176 432.826 255.18H432.845C433.959 255.156 435.044 254.816 435.972 254.199C436.545 253.823 437.035 253.333 437.41 252.759C437.785 252.186 438.039 251.541 438.154 250.866C438.263 250.213 438.236 249.545 438.075 248.903C437.914 248.261 437.623 247.66 437.219 247.136C436.811 246.574 436.295 246.101 435.7 245.744C435.105 245.386 434.445 245.152 433.758 245.056C432.989 244.83 432.168 244.857 431.415 245.133C430.058 245.486 428.878 246.328 428.104 247.498C427.609 248.244 427.408 249.148 427.541 250.034C427.411 250.911 427.605 251.806 428.088 252.551L428.077 252.55Z" fill="#FFE682"/>
<defs>
<clipPath id="clip0_117_1306">
<rect width="675.397" height="589.397" fill="white" transform="translate(0.866516 0.67395)"/>
</clipPath>
</defs>
</svg>
