<svg width="676" height="590" viewBox="0 0 676 590" fill="none" xmlns="http://www.w3.org/2000/svg">
<g clip-path="url(#clip0_117_1306)">
<path d="M390.187 163.351C397.831 163.351 405.401 164.858 412.464 167.784C419.527 170.71 425.944 174.998 431.349 180.404L431.703 180.051L431.349 180.404L480.482 229.534L480.836 229.181L480.482 229.534C485.888 234.94 490.177 241.357 493.103 248.42C496.029 255.482 497.535 263.052 497.536 270.697V340.182C497.535 347.827 496.029 355.396 493.103 362.459C490.177 369.522 485.888 375.939 480.482 381.344L431.349 430.477C425.944 435.883 419.527 440.172 412.464 443.098C405.401 446.024 397.831 447.53 390.187 447.531H320.702C313.057 447.53 305.487 446.024 298.424 443.098C291.362 440.172 284.944 435.883 279.539 430.477L279.186 430.831L279.539 430.477L230.409 381.344L230.056 381.698L230.409 381.344C225.003 375.939 220.715 369.522 217.788 362.459C214.862 355.396 213.356 347.827 213.356 340.182V270.697C213.356 263.052 214.862 255.482 217.788 248.42C220.715 241.357 225.003 234.94 230.409 229.534L230.056 229.181L230.409 229.534L279.539 180.404L279.186 180.051L279.539 180.404C284.944 174.998 291.362 170.71 298.424 167.784C305.487 164.858 313.057 163.351 320.702 163.351H390.187Z" fill="#B0D775" stroke="#FEF2EB"/>
<path d="M80.757 545.518C80.757 545.518 123.618 551.754 132.519 515.271C141.42 478.788 138.291 386.565 227.159 386.565" stroke="#FEF2EB"/>
<path d="M80.757 45.3605C80.757 45.3605 123.618 39.1246 132.519 75.6076C141.42 112.091 137.15 203.899 230.027 203.899" stroke="#FEF2EB"/>
<path d="M88.008 211.733C88.008 211.733 104.959 209.133 112.308 223.433C119.657 237.733 141.958 272.733 195.008 270.433" stroke="#FEF2EB"/>
<path d="M88.008 378.357C88.008 378.357 104.959 380.957 112.308 366.657C119.657 352.357 141.958 317.357 195.008 319.657" stroke="#FEF2EB"/>
<path d="M617.305 484.711C617.305 484.711 574.444 490.947 565.541 454.464C556.638 417.981 557.727 326.631 479.926 326.631" stroke="#FEF2EB"/>
<path d="M479.158 297.431H609.158" stroke="#FEF2EB"/>
<path d="M617.305 109.282C617.305 109.282 574.444 103.046 565.541 139.529C556.638 176.012 559.063 266.179 479.659 266.179" stroke="#FEF2EB"/>
<path d="M55.1263 88.3293H33.5878C31.2517 88.3293 28.9728 87.876 26.8145 86.982C24.6562 86.088 22.7243 84.7971 21.0724 83.1452L5.84243 67.9152C4.19054 66.2633 2.89967 64.3314 2.00567 62.1731C1.11167 60.0148 0.658386 57.7359 0.658386 55.3998V33.8613C0.658386 31.5252 1.11168 29.2463 2.00568 27.0881C2.89968 24.9297 4.19055 22.9978 5.84244 21.3459L21.0724 6.11595C22.7242 4.46416 24.6562 3.17331 26.8146 2.27926C28.973 1.38522 31.2518 0.9319 33.5878 0.9319H55.1263C57.4624 0.9319 59.7413 1.38519 61.8996 2.27919C64.0579 3.17318 65.9898 4.46405 67.6417 6.11595L82.8717 21.3459C84.5236 22.9978 85.8145 24.9298 86.7085 27.0881C87.6025 29.2464 88.0558 31.5252 88.0558 33.8614L88.0557 55.3998C88.0557 57.7359 87.6025 60.0148 86.7085 62.1731C85.8145 64.3314 84.5236 66.2633 82.8717 67.9152L67.6417 83.1452C65.9898 84.7971 64.0579 86.088 61.8996 86.982C59.7413 87.876 57.4624 88.3293 55.1263 88.3293Z" fill="#202020"/>
<path d="M26.7456 2.3079C26.7915 2.28865 26.8375 2.2696 26.8836 2.25074C26.8606 2.26017 26.8376 2.26965 26.8146 2.27918L27.0059 2.74112L26.8146 2.27918C26.7916 2.28871 26.7686 2.29828 26.7456 2.3079ZM2.04492 62.2671C2.01858 62.2045 1.99259 62.1418 1.96697 62.0789C1.97978 62.1103 1.99268 62.1417 2.00568 62.1731C2.01868 62.2045 2.03176 62.2358 2.04492 62.2671ZM26.9283 87.0286C26.8505 86.997 26.7729 86.9649 26.6955 86.9322C26.7351 86.9489 26.7748 86.9655 26.8146 86.982C26.8524 86.9977 26.8903 87.0132 26.9283 87.0286ZM86.7523 62.0663C86.7216 62.1418 86.6904 62.2171 86.6587 62.2921C86.6754 62.2525 86.692 62.2129 86.7085 62.1731C86.7232 62.1375 86.7378 62.102 86.7523 62.0663ZM86.6563 26.9633C86.6906 27.0445 86.7243 27.1258 86.7574 27.2074C86.7412 27.1676 86.7249 27.1278 86.7085 27.0881C86.6912 27.0464 86.6738 27.0048 86.6563 26.9633Z" fill="#202020" stroke="#FEF2EB"/>
<path d="M44.3821 28.4319C44.1086 28.4469 43.8522 28.5695 43.669 28.773C43.4857 28.9765 43.3904 29.2444 43.4041 29.5179C43.4041 29.5269 43.4041 29.5359 43.4041 29.5449C43.4041 29.6269 43.4041 29.7249 43.4041 29.7959C43.4308 30.1082 43.4756 30.4187 43.5381 30.7259C43.632 31.3123 43.6685 31.9064 43.6471 32.4999C43.5914 32.6954 43.4811 32.871 43.3291 33.0059L43.3061 33.4199C42.7111 33.469 42.1203 33.5599 41.5381 33.6919C39.0922 34.2445 36.8673 35.5156 35.1491 37.3419C35.0411 37.2679 34.8491 37.1329 34.7961 37.0909C34.6025 37.1489 34.394 37.1288 34.2151 37.0349C33.7381 36.6817 33.2967 36.2828 32.8971 35.8439C32.6957 35.604 32.4807 35.376 32.2531 35.1609C32.1931 35.1099 32.1021 35.0399 32.0361 34.9879C31.8424 34.8316 31.6037 34.7415 31.3551 34.7309C31.2073 34.7232 31.0597 34.7503 30.9243 34.8103C30.789 34.8702 30.6697 34.9612 30.5761 35.0759C30.4173 35.2991 30.3534 35.5762 30.3984 35.8464C30.4434 36.1167 30.5935 36.3581 30.8161 36.5179L30.8311 36.5279C30.8951 36.5799 30.9741 36.6469 31.0311 36.6909C31.2921 36.8644 31.5629 37.0226 31.8421 37.1649C32.3588 37.4575 32.8458 37.7998 33.2961 38.1869C33.4142 38.3525 33.4834 38.5479 33.4961 38.7509L33.8091 39.0309C32.0783 41.6244 31.3661 44.7656 31.8091 47.8519L31.3991 47.9709C31.2923 48.1417 31.1489 48.2865 30.9791 48.3949C30.4055 48.5477 29.8184 48.6441 29.2261 48.6829C28.9122 48.6899 28.599 48.7149 28.2881 48.7579C28.2131 48.7719 28.1091 48.7989 28.0271 48.8189H28.0191H28.0041C27.869 48.8371 27.7393 48.8833 27.6231 48.9545C27.5069 49.0257 27.4068 49.1203 27.3292 49.2323C27.2515 49.3443 27.1981 49.4713 27.1723 49.6051C27.1464 49.7389 27.1488 49.8766 27.1791 50.0094C27.2094 50.1423 27.2671 50.2674 27.3485 50.3767C27.4298 50.486 27.5331 50.5772 27.6516 50.6444C27.7701 50.7116 27.9014 50.7534 28.037 50.7671C28.1725 50.7808 28.3095 50.766 28.4391 50.7239H28.4541L28.4731 50.7179C28.5541 50.6999 28.6551 50.6799 28.7261 50.6619C29.0249 50.5669 29.3181 50.4547 29.6041 50.3259C30.1532 50.1046 30.7225 49.9371 31.3041 49.8259C31.5065 49.8384 31.7013 49.9077 31.8661 50.0259L32.2921 49.9529C33.2489 52.9097 35.2547 55.4142 37.9311 56.9939L37.7531 57.4199C37.8358 57.5917 37.8661 57.784 37.8401 57.9729C37.5964 58.5302 37.3 59.0629 36.9551 59.5639C36.7656 59.814 36.5907 60.0747 36.4311 60.3449C36.3921 60.4179 36.3431 60.5309 36.3061 60.6079C36.2348 60.7253 36.1891 60.8565 36.1717 60.9927C36.1543 61.129 36.1657 61.2674 36.2051 61.399C36.2446 61.5306 36.3112 61.6524 36.4007 61.7567C36.4902 61.8609 36.6005 61.9452 36.7246 62.0041C36.8487 62.063 36.9838 62.0953 37.1211 62.0987C37.2584 62.1022 37.395 62.0768 37.5219 62.0242C37.6488 61.9716 37.7632 61.8929 37.8578 61.7933C37.9524 61.6937 38.0251 61.5753 38.0711 61.4459C38.1081 61.3699 38.1611 61.2689 38.1921 61.1969C38.3033 60.9026 38.3975 60.6021 38.4741 60.2969C38.6428 59.6786 38.8976 59.0872 39.2311 58.5399C39.3475 58.4307 39.4943 58.3592 39.6521 58.3349L39.8731 57.9349C42.776 59.0512 45.9885 59.0594 48.8971 57.9579C48.9591 58.0679 49.0751 58.2809 49.1061 58.3339C49.3055 58.3649 49.4849 58.4725 49.6061 58.6339C49.8827 59.1588 50.1074 59.7094 50.2771 60.2779C50.3543 60.5831 50.4492 60.8836 50.5611 61.1779C50.5931 61.2499 50.6451 61.3519 50.6821 61.4289C50.7289 61.5572 50.8019 61.6743 50.8965 61.7728C50.9911 61.8713 51.1052 61.9489 51.2316 62.0008C51.3579 62.0527 51.4937 62.0777 51.6302 62.0741C51.7667 62.0706 51.901 62.0386 52.0244 61.9802C52.1479 61.9218 52.2578 61.8384 52.3472 61.7351C52.4366 61.6318 52.5034 61.5111 52.5435 61.3805C52.5835 61.2499 52.5959 61.1125 52.5798 60.9768C52.5637 60.8412 52.5195 60.7105 52.4501 60.5929C52.4131 60.5159 52.3611 60.4029 52.3231 60.3299C52.1635 60.0604 51.9886 59.8003 51.7991 59.5509C51.4603 59.063 51.1699 58.5432 50.9321 57.9989C50.8803 57.8042 50.9073 57.5969 51.0071 57.4219C50.9444 57.2938 50.89 57.1619 50.8441 57.0269C53.5293 55.4347 55.5355 52.911 56.4811 49.9359C56.6081 49.9559 56.8271 49.9949 56.8991 50.0089C57.0483 49.8734 57.2446 49.8016 57.4461 49.8089C58.0276 49.9201 58.5969 50.0876 59.1461 50.3089C59.432 50.4383 59.7252 50.5512 60.0241 50.6469C60.0951 50.6659 60.1961 50.6839 60.2771 50.7009L60.2961 50.7069H60.3111C60.4407 50.7491 60.5776 50.7638 60.7132 50.7501C60.8488 50.7364 60.98 50.6946 61.0986 50.6274C61.2171 50.5602 61.3203 50.469 61.4017 50.3597C61.483 50.2504 61.5407 50.1253 61.5711 49.9924C61.6014 49.8596 61.6037 49.7219 61.5779 49.5881C61.552 49.4543 61.4986 49.3273 61.421 49.2153C61.3434 49.1033 61.2433 49.0087 61.1271 48.9375C61.0109 48.8663 60.8811 48.8201 60.7461 48.8019C60.6621 48.7829 60.5461 48.7509 60.4621 48.7349C60.1511 48.6919 59.8379 48.6669 59.5241 48.6599C58.9318 48.6211 58.3447 48.5247 57.7711 48.3719C57.5939 48.2723 57.4479 48.1255 57.3491 47.9479L56.9541 47.8329C57.3764 44.749 56.6515 41.6175 54.9171 39.0329C55.0171 38.9409 55.2101 38.7719 55.2641 38.7219C55.2505 38.5203 55.3166 38.3213 55.4481 38.1679C55.8984 37.7807 56.3853 37.4385 56.9021 37.1459C57.182 37.0036 57.4534 36.8453 57.7151 36.6719C57.7781 36.6249 57.8641 36.5519 57.9301 36.4989C58.0465 36.4249 58.146 36.3273 58.2222 36.2123C58.2984 36.0974 58.3496 35.9677 58.3724 35.8317C58.3952 35.6956 58.3891 35.5564 58.3546 35.4229C58.32 35.2893 58.2577 35.1646 58.1718 35.0567C58.0858 34.9488 57.9782 34.8603 57.8558 34.7967C57.7334 34.7332 57.599 34.6961 57.4613 34.6879C57.3236 34.6797 57.1858 34.7006 57.0567 34.7492C56.9276 34.7978 56.8102 34.873 56.7121 34.9699C56.6451 35.0229 56.5551 35.0919 56.4951 35.1429C56.2668 35.358 56.0511 35.586 55.8491 35.8259C55.4495 36.2654 55.0081 36.6649 54.5311 37.0189C54.3433 37.0953 54.1379 37.1178 53.9381 37.0839L53.5661 37.3489C51.4247 35.1016 48.5405 33.708 45.4491 33.4269C45.4401 33.2969 45.4291 33.0609 45.4261 32.9899C45.2596 32.875 45.1447 32.6994 45.1061 32.5009C45.0854 31.9074 45.1226 31.3132 45.2171 30.7269C45.2796 30.4197 45.3243 30.1092 45.3511 29.7969C45.3511 29.7179 45.3511 29.6039 45.3511 29.5189C45.3647 29.2454 45.2695 28.9776 45.0862 28.774C44.9029 28.5705 44.6465 28.4479 44.3731 28.4329L44.3821 28.4319ZM43.1581 36.0159L42.8681 41.1449L42.8471 41.1549C42.8405 41.3107 42.7917 41.4619 42.7059 41.5922C42.6202 41.7225 42.5007 41.8271 42.3602 41.8948C42.2197 41.9625 42.0634 41.9909 41.9081 41.9768C41.7527 41.9627 41.6041 41.9068 41.4781 41.8149H41.4701L37.2641 38.8339C38.6032 37.518 40.2834 36.6026 42.1151 36.1909C42.4592 36.1148 42.807 36.0564 43.1571 36.0159H43.1581ZM45.6091 36.0159C47.8186 36.2901 49.8768 37.2827 51.4671 38.8409L47.2881 41.8039L47.2731 41.7979C47.1471 41.8899 46.9985 41.946 46.8431 41.9603C46.6878 41.9745 46.5314 41.9464 46.3908 41.8789C46.2501 41.8114 46.1304 41.707 46.0444 41.5769C45.9583 41.4468 45.9091 41.2957 45.9021 41.1399L45.6091 36.0159ZM35.7391 40.7549L39.5791 44.1899V44.2109C39.6966 44.3133 39.7841 44.4456 39.8323 44.5938C39.8806 44.742 39.8878 44.9005 39.8531 45.0525C39.8184 45.2044 39.7432 45.3441 39.6354 45.4567C39.5276 45.5693 39.3914 45.6506 39.2411 45.6919V45.7089L34.3191 47.1299C34.0711 44.9061 34.5707 42.6631 35.7391 40.7549ZM52.9991 40.7549C54.1687 42.6568 54.6859 44.8884 54.4721 47.1109L49.5241 45.6859V45.6649C49.3738 45.6236 49.2375 45.5423 49.1297 45.4297C49.022 45.3172 48.9468 45.1774 48.9121 45.0255C48.8774 44.8735 48.8846 44.715 48.9328 44.5668C48.9811 44.4186 49.0686 44.2863 49.1861 44.1839V44.1739L52.9991 40.7549ZM43.5991 44.4549H45.1721L46.1501 45.6769L45.7991 47.2019L44.3871 47.8809L42.9701 47.1999L42.6191 45.6749L43.5991 44.4549ZM48.6431 48.6379C48.7101 48.635 48.7772 48.6401 48.8431 48.6529L48.8511 48.6429L53.9431 49.5039C53.1917 51.6166 51.7574 53.4186 49.8671 54.6249L47.8911 49.8509L47.8971 49.8429C47.8432 49.7152 47.8208 49.5764 47.8317 49.4382C47.8426 49.3001 47.8866 49.1665 47.9599 49.0489C48.0332 48.9313 48.1338 48.833 48.253 48.7624C48.3722 48.6917 48.5067 48.6507 48.6451 48.6429L48.6431 48.6379ZM40.0911 48.6589C40.2842 48.6619 40.4706 48.7297 40.6206 48.8514C40.7705 48.9731 40.8753 49.1416 40.9181 49.3299C40.9592 49.5075 40.9423 49.6936 40.8701 49.8609L40.8851 49.8799L38.9291 54.6059C37.0516 53.4044 35.6231 51.617 34.8651 49.5209L39.9131 48.6639L39.9211 48.6739C39.9768 48.6634 40.0344 48.6584 40.0911 48.6589ZM44.3551 50.7299C44.5158 50.725 44.6746 50.7648 44.8141 50.8448C44.9535 50.9247 45.0681 51.0418 45.1451 51.1829H45.1641L47.6521 55.6829C47.3253 55.7921 46.9932 55.8849 46.6571 55.9609C44.827 56.3804 42.9164 56.282 41.1391 55.6769L43.6211 51.1889C43.6923 51.056 43.797 50.944 43.9249 50.8642C44.0528 50.7844 44.1994 50.7394 44.3501 50.7339L44.3551 50.7299Z" fill="#FEF2EB"/>
<path d="M44.1587 23.985C43.5596 23.985 42.9578 24.1228 42.4184 24.3834L28.3156 31.1982C27.2142 31.7304 26.4269 32.7198 26.1556 33.9125L22.6663 49.2526C22.3956 50.4427 22.6758 51.6731 23.4352 52.6286L33.2043 64.9206C33.9676 65.881 35.109 66.4318 36.3358 66.4318H51.9817C53.2085 66.4318 54.3499 65.881 55.1132 64.9206L64.8823 52.6286C65.6417 51.6731 65.9219 50.4427 65.6512 49.2526L62.1619 33.9125C61.8906 32.7197 61.1033 31.7304 60.0019 31.1982L45.8991 24.3834C45.3597 24.1228 44.7579 23.985 44.1587 23.985ZM44.1587 22.985C44.9029 22.985 45.647 23.151 46.3342 23.483L60.4369 30.2978C61.8061 30.9594 62.7997 32.208 63.137 33.6907L66.6263 49.0308C66.9629 50.5104 66.6093 52.0628 65.6652 53.2508L55.896 65.5428C54.9475 66.7363 53.5063 67.4318 51.9817 67.4318H36.3358C34.8113 67.4318 33.37 66.7363 32.4214 65.5428L22.6523 53.2508C21.7082 52.0628 21.3546 50.5104 21.6912 49.0308L25.1805 33.6907C25.5178 32.208 26.5114 30.9594 27.8805 30.2978L41.9833 23.483C42.6704 23.151 43.4146 22.985 44.1587 22.985Z" fill="#FEF2EB"/>
<path d="M55.1263 254.829H33.5878C31.3174 254.829 29.1035 254.389 27.0059 253.52C24.9082 252.651 23.0314 251.397 21.426 249.792L6.19599 234.562C4.59052 232.956 3.33648 231.079 2.46761 228.982C1.59874 226.884 1.15839 224.67 1.15839 222.4V200.861C1.15839 198.591 1.59875 196.377 2.46762 194.279L2.00844 194.089L2.46762 194.279C3.33649 192.182 4.59053 190.305 6.196 188.699L21.426 173.469C23.0313 171.864 24.9082 170.61 27.0059 169.741C29.1037 168.872 31.3175 168.432 33.5878 168.432H55.1263C57.3968 168.432 59.6106 168.872 61.7082 169.741C63.8059 170.61 65.6827 171.864 67.2881 173.469L82.5182 188.699C84.1236 190.305 85.3777 192.182 86.2465 194.279C87.1154 196.377 87.5558 198.591 87.5558 200.861L87.5557 222.4C87.5557 224.67 87.1154 226.884 86.2465 228.982C85.3777 231.079 84.1236 232.956 82.5182 234.562L67.2882 249.792C65.6827 251.397 63.8059 252.651 61.7082 253.52C59.6106 254.389 57.3967 254.829 55.1263 254.829Z" fill="#202020" stroke="#FEF2EB"/>
<path d="M33.5879 168.432C31.3177 168.432 29.1032 168.872 27.0059 169.741C24.9086 170.61 23.0312 171.864 21.426 173.469L6.196 188.699C4.59077 190.305 3.33638 192.182 2.46762 194.279C1.59888 196.377 1.15839 198.591 1.15839 200.861V222.4C1.15839 224.67 1.59888 226.884 2.46762 228.982C3.33636 231.079 4.59077 232.956 6.19599 234.562L21.426 249.792C23.0312 251.397 24.9086 252.651 27.0059 253.52C29.1032 254.389 31.3177 254.829 33.5878 254.829H55.1263C57.3964 254.829 59.6109 254.389 61.7082 253.52C63.8056 252.651 65.6829 251.397 67.2882 249.792L82.5182 234.562C84.1234 232.956 85.3778 231.079 86.2465 228.982C87.1153 226.884 87.5558 224.67 87.5558 222.4V200.861C87.5558 198.591 87.1153 196.377 86.2465 194.279C85.3778 192.182 84.1234 190.305 82.5182 188.699L67.2882 173.469C65.6829 171.864 63.8056 170.61 61.7083 169.741C59.6109 168.872 57.3964 168.432 55.1263 168.432H33.5879ZM33.5879 167.432H55.1263C59.9531 167.432 64.5822 169.349 67.9953 172.762L83.2253 187.992C86.6383 191.405 88.5558 196.035 88.5558 200.861V222.4C88.5558 227.227 86.6383 231.856 83.2253 235.269L67.9953 250.499C64.5822 253.912 59.9531 255.829 55.1263 255.829H33.5878C28.761 255.829 24.1319 253.912 20.7189 250.499L5.48888 235.269C2.07582 231.856 0.158386 227.227 0.158386 222.4V200.861C0.158401 196.035 2.07584 191.405 5.48889 187.992L20.7189 172.762C24.132 169.349 28.7611 167.432 33.5879 167.432Z" fill="#202020"/>
<path d="M44.1584 230.432C40.4006 230.432 36.7271 229.318 33.6026 227.23C30.478 225.142 28.0427 222.175 26.6047 218.703C25.1666 215.231 24.7904 211.411 25.5235 207.725C26.2566 204.04 28.0662 200.654 30.7234 197.997C33.3806 195.34 36.766 193.53 40.4517 192.797C44.1373 192.064 47.9576 192.44 51.4294 193.878C54.9012 195.316 57.8686 197.752 59.9563 200.876C62.0441 204.001 63.1584 207.674 63.1584 211.432C63.1534 216.469 61.15 221.299 57.5879 224.861C54.0258 228.423 49.196 230.427 44.1584 230.432ZM44.1584 194.191C40.7467 194.183 37.4093 195.187 34.5687 197.077C31.728 198.966 29.5118 201.656 28.2006 204.806C26.8894 207.955 26.5421 211.423 27.2027 214.77C27.8633 218.117 29.5021 221.193 31.9117 223.609C34.3212 226.024 37.3932 227.67 40.7387 228.339C44.0843 229.007 47.553 228.668 50.7057 227.364C53.8585 226.061 56.5536 223.851 58.4499 221.015C60.3462 218.179 61.3584 214.844 61.3584 211.432C61.3584 206.866 59.5476 202.487 56.3231 199.255C53.0987 196.023 48.7239 194.202 44.1584 194.191Z" fill="#FEF2EB" stroke="#202020" stroke-width="0.3"/>
<path d="M51.3244 216.443C51.1469 216.444 50.9728 216.394 50.8235 216.298C50.6743 216.202 50.5564 216.064 50.4844 215.902C50.4162 215.741 50.3988 215.564 50.4346 215.393C50.4703 215.222 50.5575 215.067 50.6844 214.947L54.3294 211.432L50.6844 207.917C50.6002 207.837 50.5331 207.741 50.4872 207.634C50.4414 207.528 50.4177 207.413 50.4177 207.297C50.4177 207.181 50.4414 207.066 50.4872 206.959C50.5331 206.853 50.6002 206.757 50.6844 206.677C50.8578 206.512 51.088 206.42 51.3274 206.42C51.5668 206.42 51.797 206.512 51.9704 206.677L56.2594 210.812C56.3434 210.892 56.4102 210.988 56.4559 211.094C56.5016 211.201 56.5251 211.316 56.5251 211.431C56.5251 211.547 56.5016 211.662 56.4559 211.768C56.4102 211.875 56.3434 211.971 56.2594 212.051L51.9704 216.186C51.7966 216.352 51.5649 216.444 51.3244 216.443ZM36.9844 216.443C36.7449 216.443 36.5145 216.351 36.3414 216.186L32.0524 212.051C31.9684 211.971 31.9016 211.875 31.8559 211.768C31.8102 211.662 31.7867 211.547 31.7867 211.431C31.7867 211.316 31.8102 211.201 31.8559 211.094C31.9016 210.988 31.9684 210.892 32.0524 210.812L36.3414 206.677C36.5148 206.512 36.745 206.42 36.9844 206.42C37.2238 206.42 37.454 206.512 37.6274 206.677C37.7115 206.757 37.7785 206.853 37.8243 206.96C37.8701 207.066 37.8937 207.181 37.8937 207.297C37.8937 207.413 37.8701 207.528 37.8243 207.634C37.7785 207.741 37.7115 207.837 37.6274 207.917L33.9824 211.432L37.6274 214.947C37.7543 215.067 37.8415 215.222 37.8772 215.393C37.913 215.564 37.8956 215.741 37.8274 215.902C37.7555 216.064 37.6378 216.202 37.4887 216.298C37.3397 216.394 37.1658 216.444 36.9884 216.443H36.9844ZM42.1544 220.197C42.0817 220.197 42.0092 220.188 41.9384 220.172C41.8243 220.147 41.7163 220.1 41.6206 220.033C41.525 219.967 41.4437 219.881 41.3816 219.782C41.3194 219.684 41.2777 219.573 41.2587 219.458C41.2398 219.343 41.2441 219.225 41.2714 219.112L45.2714 203.343C45.3077 203.188 45.3849 203.045 45.495 202.93C45.6051 202.815 45.7441 202.732 45.8974 202.689C46.0529 202.643 46.2177 202.638 46.3755 202.676C46.5333 202.713 46.6787 202.79 46.7974 202.901C46.9128 203.008 46.9965 203.145 47.0392 203.296C47.0819 203.448 47.082 203.608 47.0394 203.76L43.0394 219.529C42.988 219.723 42.8734 219.894 42.7138 220.015C42.5542 220.136 42.3588 220.2 42.1584 220.198L42.1544 220.197Z" fill="#FEF2EB" stroke="#202020" stroke-width="0.3"/>
<path d="M55.1263 421.829H33.5878C31.3174 421.829 29.1035 421.389 27.0059 420.52C24.9082 419.651 23.0314 418.397 21.426 416.792L6.19599 401.562C4.59052 399.956 3.33648 398.079 2.46761 395.982C1.59874 393.884 1.15839 391.67 1.15839 389.4V367.861C1.15839 365.591 1.59875 363.377 2.46762 361.279L2.00844 361.089L2.46762 361.279C3.33649 359.182 4.59053 357.305 6.196 355.699L21.426 340.469C23.0313 338.864 24.9082 337.61 27.0059 336.741C29.1037 335.872 31.3175 335.432 33.5878 335.432H55.1263C57.3968 335.432 59.6106 335.872 61.7082 336.741C63.8059 337.61 65.6827 338.864 67.2881 340.469L82.5182 355.699C84.1236 357.305 85.3777 359.182 86.2465 361.279C87.1154 363.377 87.5558 365.591 87.5558 367.861L87.5557 389.4C87.5557 391.67 87.1154 393.884 86.2465 395.982C85.3777 398.079 84.1236 399.956 82.5182 401.562L67.2882 416.792C65.6827 418.397 63.8059 419.651 61.7082 420.52C59.6106 421.389 57.3967 421.829 55.1263 421.829Z" fill="#202020" stroke="#FEF2EB"/>
<path d="M33.5879 335.432C31.3177 335.432 29.1032 335.872 27.0059 336.741C24.9086 337.61 23.0312 338.864 21.426 340.469L6.196 355.699C4.59077 357.305 3.33638 359.182 2.46762 361.279C1.59888 363.377 1.15839 365.591 1.15839 367.861V389.4C1.15839 391.67 1.59888 393.884 2.46762 395.982C3.33636 398.079 4.59077 399.956 6.19599 401.562L21.426 416.792C23.0312 418.397 24.9086 419.651 27.0059 420.52C29.1032 421.389 31.3177 421.829 33.5878 421.829H55.1263C57.3964 421.829 59.6109 421.389 61.7082 420.52C63.8056 419.651 65.6829 418.397 67.2882 416.792L82.5182 401.562C84.1234 399.956 85.3778 398.079 86.2465 395.982C87.1153 393.884 87.5558 391.67 87.5558 389.4V367.861C87.5558 365.591 87.1153 363.377 86.2465 361.279C85.3778 359.182 84.1234 357.305 82.5182 355.699L67.2882 340.469C65.6829 338.864 63.8056 337.61 61.7083 336.741C59.6109 335.872 57.3964 335.432 55.1263 335.432H33.5879ZM33.5879 334.432H55.1263C59.9531 334.432 64.5822 336.349 67.9953 339.762L83.2253 354.992C86.6383 358.405 88.5558 363.035 88.5558 367.861V389.4C88.5558 394.227 86.6383 398.856 83.2253 402.269L67.9953 417.499C64.5822 420.912 59.9531 422.829 55.1263 422.829H33.5878C28.761 422.829 24.1319 420.912 20.7189 417.499L5.48888 402.269C2.07582 398.856 0.158386 394.227 0.158386 389.4V367.861C0.158401 363.035 2.07584 358.405 5.48889 354.992L20.7189 339.762C24.132 336.349 28.7611 334.432 33.5879 334.432Z" fill="#202020"/>
<path d="M24.1584 393.096H64.2584M36.3584 372.17H41.5884V393.096H36.3584V372.17ZM46.8234 377.396H52.0584V393.096H46.8284L46.8234 377.396ZM57.2844 365.196H62.5144V393.096H57.2844V365.196ZM25.9014 382.631H31.1314V393.096H25.9014V382.631Z" stroke="#FEF2EB" stroke-width="2" stroke-linecap="round" stroke-linejoin="round"/>
<path d="M60.6584 357.479C61.4868 357.479 62.1584 356.807 62.1584 355.979C62.1584 355.15 61.4868 354.479 60.6584 354.479C59.83 354.479 59.1584 355.15 59.1584 355.979C59.1584 356.807 59.83 357.479 60.6584 357.479Z" fill="#FEF2EB"/>
<path d="M49.6584 370.479C50.4868 370.479 51.1584 369.807 51.1584 368.979C51.1584 368.15 50.4868 367.479 49.6584 367.479C48.83 367.479 48.1584 368.15 48.1584 368.979C48.1584 369.807 48.83 370.479 49.6584 370.479Z" fill="#FEF2EB"/>
<path d="M38.6584 365.479C39.4868 365.479 40.1584 364.807 40.1584 363.979C40.1584 363.15 39.4868 362.479 38.6584 362.479C37.83 362.479 37.1584 363.15 37.1584 363.979C37.1584 364.807 37.83 365.479 38.6584 365.479Z" fill="#FEF2EB"/>
<path d="M28.6584 376.479C29.4868 376.479 30.1584 375.807 30.1584 374.979C30.1584 374.15 29.4868 373.479 28.6584 373.479C27.83 373.479 27.1584 374.15 27.1584 374.979C27.1584 375.807 27.83 376.479 28.6584 376.479Z" fill="#FEF2EB"/>
<path d="M28.5174 374.786L38.9784 364.325L49.4394 369.551L59.8994 357.351" stroke="#FEF2EB" stroke-linecap="round" stroke-linejoin="round"/>
<path d="M55.1263 588.829H33.5878C31.3174 588.829 29.1035 588.389 27.0059 587.52C24.9082 586.651 23.0314 585.397 21.426 583.792L6.19599 568.562C4.59052 566.956 3.33648 565.079 2.46761 562.982C1.59874 560.884 1.15839 558.67 1.15839 556.4V534.861C1.15839 532.591 1.59875 530.377 2.46762 528.279L2.00844 528.089L2.46762 528.279C3.33649 526.182 4.59053 524.305 6.196 522.699L21.426 507.469C23.0313 505.864 24.9082 504.61 27.0059 503.741C29.1037 502.872 31.3175 502.432 33.5878 502.432H55.1263C57.3968 502.432 59.6106 502.872 61.7082 503.741C63.8059 504.61 65.6827 505.864 67.2881 507.469L82.5182 522.699C84.1236 524.305 85.3777 526.182 86.2465 528.279C87.1154 530.377 87.5558 532.591 87.5558 534.861L87.5557 556.4C87.5557 558.67 87.1154 560.884 86.2465 562.982C85.3777 565.079 84.1236 566.956 82.5182 568.562L67.2882 583.792C65.6827 585.397 63.8059 586.651 61.7082 587.52C59.6106 588.389 57.3967 588.829 55.1263 588.829Z" fill="#202020" stroke="#FEF2EB"/>
<path d="M33.5879 502.432C31.3177 502.432 29.1032 502.872 27.0059 503.741C24.9086 504.61 23.0312 505.864 21.426 507.469L6.196 522.699C4.59077 524.305 3.33638 526.182 2.46762 528.279C1.59888 530.377 1.15839 532.591 1.15839 534.861V556.4C1.15839 558.67 1.59888 560.884 2.46762 562.982C3.33636 565.079 4.59077 566.956 6.19599 568.562L21.426 583.792C23.0312 585.397 24.9086 586.651 27.0059 587.52C29.1032 588.389 31.3177 588.829 33.5878 588.829H55.1263C57.3964 588.829 59.6109 588.389 61.7082 587.52C63.8056 586.651 65.6829 585.397 67.2882 583.792L82.5182 568.562C84.1234 566.956 85.3778 565.079 86.2465 562.982C87.1153 560.884 87.5558 558.67 87.5558 556.4V534.861C87.5558 532.591 87.1153 530.377 86.2465 528.279C85.3778 526.182 84.1234 524.305 82.5182 522.699L67.2882 507.469C65.6829 505.864 63.8056 504.61 61.7083 503.741C59.6109 502.872 57.3964 502.432 55.1263 502.432H33.5879ZM33.5879 501.432H55.1263C59.9531 501.432 64.5822 503.349 67.9953 506.762L83.2253 521.992C86.6383 525.405 88.5558 530.035 88.5558 534.861V556.4C88.5558 561.227 86.6383 565.856 83.2253 569.269L67.9953 584.499C64.5822 587.912 59.9531 589.829 55.1263 589.829H33.5878C28.761 589.829 24.1319 587.912 20.7189 584.499L5.48888 569.269C2.07582 565.856 0.158386 561.227 0.158386 556.4V534.861C0.158401 530.035 2.07584 525.405 5.48889 521.992L20.7189 506.762C24.132 503.349 28.7611 501.432 33.5879 501.432Z" fill="#202020"/>
<path d="M60.2104 562.786H28.4394C27.4596 562.785 26.4981 562.52 25.656 562.019C24.8139 561.518 24.1222 560.8 23.6538 559.939C23.1854 559.079 22.9575 558.108 22.994 557.129C23.0306 556.149 23.3302 555.198 23.8614 554.375L39.7474 529.726C40.2407 528.96 40.9182 528.33 41.718 527.894C42.5178 527.457 43.4143 527.229 44.3254 527.229C45.2365 527.229 46.133 527.457 46.9328 527.894C47.7326 528.33 48.4102 528.96 48.9034 529.726L64.7894 554.375C65.3203 555.198 65.6196 556.149 65.656 557.128C65.6923 558.108 65.4644 559.078 64.996 559.939C64.5277 560.799 63.8362 561.518 62.9943 562.019C62.1524 562.52 61.1911 562.785 60.2114 562.786H60.2104ZM40.6284 530.295L24.7424 554.944C24.3121 555.609 24.0691 556.377 24.0392 557.169C24.0093 557.96 24.1934 558.745 24.5723 559.44C24.9512 560.135 25.5107 560.716 26.1919 561.12C26.873 561.523 27.6505 561.736 28.4424 561.735H60.2134C61.0053 561.736 61.7828 561.523 62.464 561.12C63.1451 560.716 63.7046 560.135 64.0835 559.44C64.4624 558.745 64.6465 557.96 64.6166 557.169C64.5867 556.377 64.3437 555.609 63.9134 554.944L48.0284 530.295C47.6295 529.677 47.0823 529.17 46.4366 528.818C45.791 528.466 45.0676 528.282 44.3324 528.282C43.5973 528.282 42.8738 528.466 42.2282 528.818C41.5826 529.17 41.0353 529.677 40.6364 530.295H40.6284Z" fill="#FEF2EB" stroke="#FEF2EB"/>
<path d="M45.7874 554.766C45.787 555.092 45.69 555.411 45.5085 555.682C45.3271 555.952 45.0694 556.164 44.7681 556.288C44.4667 556.413 44.1352 556.445 43.8155 556.381C43.4957 556.317 43.2021 556.16 42.9717 555.929C42.7412 555.699 42.5844 555.405 42.5209 555.085C42.4575 554.765 42.4902 554.434 42.6151 554.132C42.74 553.831 42.9513 553.574 43.2225 553.393C43.4936 553.212 43.8124 553.115 44.1384 553.115C44.3551 553.115 44.5696 553.158 44.7698 553.241C44.9699 553.324 45.1517 553.446 45.3049 553.599C45.458 553.752 45.5794 553.934 45.6622 554.134C45.745 554.335 45.7875 554.549 45.7874 554.766ZM46.1594 536.044L45.4044 550.015C45.398 550.175 45.3458 550.33 45.254 550.462C45.1622 550.593 45.0346 550.696 44.8864 550.757C44.421 550.949 43.8996 550.956 43.4294 550.776C43.2758 550.712 43.145 550.603 43.0542 550.463C42.9634 550.324 42.9168 550.16 42.9204 549.994V536.75C42.9203 536.623 42.9468 536.497 42.9982 536.38C43.0495 536.263 43.1247 536.159 43.2188 536.073C43.3129 535.987 43.424 535.922 43.5448 535.881C43.6656 535.841 43.7935 535.826 43.9204 535.838L46.1594 536.044Z" fill="#FEF2EB" stroke="#FEF2EB"/>
<path d="M642.126 157.829H620.588C618.317 157.829 616.104 157.389 614.006 156.52C611.908 155.651 610.031 154.397 608.426 152.792L593.196 137.562C591.591 135.956 590.336 134.079 589.468 131.982C588.599 129.884 588.158 127.67 588.158 125.4V103.861C588.158 101.591 588.599 99.377 589.468 97.2794L589.008 97.0892L589.468 97.2794C590.336 95.1817 591.591 93.3049 593.196 91.6995L608.426 76.4695C610.031 74.8641 611.908 73.6101 614.006 72.7412C616.104 71.8723 618.318 71.4319 620.588 71.4319H642.126C644.397 71.4319 646.611 71.8722 648.708 72.7411C650.806 73.61 652.683 74.864 654.288 76.4695L669.518 91.6995C671.124 93.3049 672.378 95.1817 673.247 97.2794C674.115 99.377 674.556 101.591 674.556 103.861L674.556 125.4C674.556 127.67 674.115 129.884 673.247 131.982C672.378 134.079 671.124 135.956 669.518 137.562L654.288 152.792C652.683 154.397 650.806 155.651 648.708 156.52C646.611 157.389 644.397 157.829 642.126 157.829Z" fill="#202020" stroke="#FEF2EB"/>
<path d="M620.588 71.4319C618.318 71.4319 616.103 71.8724 614.006 72.7411C611.909 73.6099 610.031 74.8643 608.426 76.4695L593.196 91.6995C591.591 93.3047 590.336 95.1821 589.468 97.2794C588.599 99.3767 588.158 101.591 588.158 103.861V125.4C588.158 127.67 588.599 129.884 589.468 131.982C590.336 134.079 591.591 135.956 593.196 137.562L608.426 152.792C610.031 154.397 611.909 155.651 614.006 156.52C616.103 157.389 618.318 157.829 620.588 157.829H642.126C644.396 157.829 646.611 157.389 648.708 156.52C650.806 155.651 652.683 154.397 654.288 152.792L669.518 137.562C671.123 135.956 672.378 134.079 673.247 131.982C674.115 129.884 674.556 127.67 674.556 125.4V103.861C674.556 101.591 674.115 99.3767 673.247 97.2794C672.378 95.1821 671.123 93.3047 669.518 91.6995L654.288 76.4695C652.683 74.8643 650.806 73.6099 648.708 72.7411C646.611 71.8724 644.396 71.4319 642.126 71.4319H620.588ZM620.588 70.4319H642.126C646.953 70.4319 651.582 72.3493 654.995 75.7624L670.225 90.9924C673.638 94.4054 675.556 99.0346 675.556 103.861V125.4C675.556 130.227 673.638 134.856 670.225 138.269L654.995 153.499C651.582 156.912 646.953 158.829 642.126 158.829H620.588C615.761 158.829 611.132 156.912 607.719 153.499L592.489 138.269C589.076 134.856 587.158 130.227 587.158 125.4V103.861C587.158 99.0345 589.076 94.4054 592.489 90.9924L607.719 75.7624C611.132 72.3493 615.761 70.4319 620.588 70.4319Z" fill="#202020"/>
<path d="M633.554 98.5239C633.653 98.5839 633.764 98.6208 633.879 98.6319C634.141 98.7212 634.426 98.707 634.677 98.5924C634.929 98.4778 635.127 98.2714 635.23 98.0156C635.334 97.7597 635.336 97.4738 635.236 97.2165C635.136 96.9592 634.941 96.7501 634.691 96.6319C634.628 96.5889 634.551 96.5697 634.474 96.5779V96.4699C634.481 95.3278 634.045 94.2276 633.257 93.4C632.47 92.5725 631.393 92.0818 630.252 92.0309C629.67 92.0024 629.089 92.0987 628.548 92.3135C628.006 92.5282 627.517 92.8564 627.112 93.2759C626.699 93.6647 626.37 94.1346 626.146 94.6563C625.922 95.178 625.809 95.7403 625.812 96.3079V96.5249C623.43 97.4008 621.374 98.9865 619.922 101.068C618.47 103.15 617.691 105.627 617.691 108.165L617.474 110.926C617.212 114.35 616.254 117.684 614.659 120.726C613.673 120.913 612.789 121.452 612.169 122.242C611.784 122.704 611.499 123.241 611.331 123.818C611.163 124.396 611.117 125.002 611.194 125.599C611.357 126.653 611.897 127.612 612.714 128.299C613.53 128.985 614.568 129.352 615.634 129.331H644.599C645.662 129.334 646.691 128.96 647.504 128.276C648.316 127.592 648.86 126.642 649.038 125.595C649.129 124.998 649.089 124.389 648.921 123.809C648.752 123.229 648.46 122.693 648.063 122.238C647.419 121.476 646.546 120.944 645.573 120.722C644.761 119.368 643.353 116.228 642.758 110.922L642.596 108.161C642.582 107.874 642.454 107.604 642.241 107.411C642.028 107.218 641.747 107.118 641.459 107.132C641.172 107.146 640.902 107.274 640.709 107.487C640.516 107.701 640.416 107.982 640.43 108.269L640.647 111.138C640.944 114.43 641.785 117.65 643.137 120.667H617.204C618.531 117.642 619.371 114.426 619.694 111.138L619.911 108.323V108.269C619.916 106.163 620.568 104.109 621.779 102.385C622.989 100.661 624.7 99.3507 626.679 98.6309C627.081 98.4745 627.426 98.1994 627.668 97.8421C627.91 97.4848 628.038 97.0623 628.033 96.6309V96.3059C628.03 96.0139 628.086 95.7243 628.198 95.4546C628.31 95.1848 628.475 94.9403 628.683 94.7359C628.884 94.5411 629.121 94.3878 629.382 94.2849C629.642 94.1819 629.92 94.1313 630.199 94.1359C630.772 94.1831 631.305 94.4425 631.696 94.8633C632.087 95.2841 632.306 95.8358 632.31 96.4099V96.6309C632.282 97.0391 632.388 97.4453 632.613 97.7872C632.838 98.1291 633.168 98.3879 633.554 98.5239ZM646.44 123.645C646.811 124.122 646.985 124.722 646.927 125.323C646.833 125.852 646.552 126.33 646.134 126.668C645.716 127.006 645.191 127.182 644.653 127.164H615.634C615.1 127.172 614.579 126.992 614.164 126.656C613.748 126.319 613.464 125.847 613.36 125.323C613.319 125.025 613.341 124.721 613.425 124.432C613.508 124.143 613.653 123.874 613.847 123.645C614.032 123.419 614.263 123.234 614.524 123.103C614.785 122.973 615.071 122.899 615.363 122.887H644.87C645.173 122.881 645.473 122.946 645.746 123.078C646.019 123.21 646.257 123.404 646.44 123.645Z" fill="#FEF2EB"/>
<path d="M627.22 131.549C627.233 131.41 627.217 131.27 627.175 131.138C627.132 131.005 627.064 130.882 626.973 130.777C626.882 130.671 626.771 130.585 626.646 130.523C626.521 130.461 626.385 130.424 626.246 130.416C626.104 130.405 625.96 130.422 625.824 130.469C625.689 130.515 625.564 130.588 625.457 130.684C625.351 130.78 625.265 130.896 625.205 131.026C625.146 131.157 625.113 131.298 625.109 131.441V131.716C625.222 132.988 625.807 134.171 626.749 135.033C627.691 135.895 628.922 136.373 630.198 136.373C631.475 136.373 632.706 135.895 633.648 135.033C634.59 134.171 635.175 132.988 635.287 131.716V131.391L634.204 131.445L633.121 131.553V131.661C633.056 132.39 632.708 133.065 632.152 133.541C631.595 134.017 630.874 134.255 630.143 134.206C629.788 134.236 629.43 134.195 629.09 134.086C628.75 133.976 628.435 133.801 628.163 133.57C627.891 133.338 627.668 133.055 627.506 132.737C627.344 132.419 627.247 132.072 627.219 131.716V131.554L627.22 131.549Z" fill="#FEF2EB"/>
<path d="M643.678 91.4319C642.286 91.4319 640.926 91.8447 639.768 92.618C638.611 93.3914 637.709 94.4905 637.176 95.7766C636.643 97.0626 636.504 98.4777 636.776 99.8429C637.047 101.208 637.717 102.462 638.702 103.447C639.686 104.431 640.94 105.101 642.305 105.373C643.671 105.644 645.086 105.505 646.372 104.972C647.658 104.439 648.757 103.537 649.53 102.38C650.304 101.223 650.716 99.8619 650.716 98.4699C650.718 97.5451 650.537 96.6291 650.184 95.7744C649.831 94.9197 649.313 94.1431 648.659 93.4892C648.005 92.8353 647.229 92.3169 646.374 91.9639C645.519 91.6108 644.603 91.4301 643.678 91.4319ZM643.678 103.343C642.715 103.343 641.772 103.057 640.971 102.522C640.17 101.986 639.545 101.225 639.176 100.335C638.807 99.4443 638.711 98.4645 638.899 97.5192C639.087 96.574 639.551 95.7057 640.233 95.0242C640.914 94.3427 641.782 93.8786 642.728 93.6905C643.673 93.5025 644.653 93.599 645.543 93.9678C646.434 94.3367 647.195 94.9612 647.73 95.7626C648.266 96.564 648.551 97.5061 648.551 98.4699C648.554 99.1106 648.43 99.7455 648.186 100.338C647.942 100.93 647.583 101.469 647.13 101.922C646.677 102.375 646.139 102.734 645.546 102.978C644.954 103.222 644.319 103.346 643.678 103.343Z" fill="#FEF2EB"/>
<path d="M641.73 339.365H620.191C617.855 339.365 615.576 338.912 613.418 338.018C611.26 337.124 609.328 335.833 607.676 334.181L592.446 318.951C590.794 317.299 589.503 315.367 588.609 313.209C587.715 311.05 587.262 308.772 587.262 306.435V284.897C587.262 282.561 587.715 280.282 588.609 278.124C589.503 275.965 590.794 274.033 592.446 272.382L607.676 257.152C609.328 255.5 611.26 254.209 613.418 253.315C615.577 252.421 617.855 251.968 620.191 251.968H641.73C644.066 251.968 646.345 252.421 648.503 253.315C650.661 254.209 652.593 255.5 654.245 257.152L669.475 272.382C671.127 274.033 672.418 275.965 673.312 278.124C674.206 280.282 674.659 282.561 674.659 284.897L674.659 306.435C674.659 308.772 674.206 311.05 673.312 313.209C672.418 315.367 671.127 317.299 669.475 318.951L654.245 334.181C652.593 335.833 650.661 337.124 648.503 338.018C646.345 338.912 644.066 339.365 641.73 339.365Z" fill="#202020"/>
<path d="M620.191 252.468C617.921 252.468 615.707 252.908 613.609 253.777C611.512 254.646 609.635 255.9 608.03 257.505L592.8 272.735C591.194 274.34 589.94 276.218 589.071 278.315C588.202 280.412 587.762 282.627 587.762 284.897V306.435C587.762 308.706 588.202 310.92 589.071 313.017C589.94 315.115 591.194 316.992 592.8 318.597L608.03 333.827C609.635 335.433 611.512 336.687 613.609 337.556C615.707 338.424 617.921 338.865 620.191 338.865H641.73C644 338.865 646.214 338.424 648.312 337.556C650.409 336.687 652.286 335.433 653.892 333.827L669.122 318.597C670.727 316.992 671.981 315.115 672.85 313.017C673.719 310.92 674.159 308.706 674.159 306.435V284.897C674.159 282.627 673.719 280.412 672.85 278.315C671.981 276.218 670.727 274.34 669.122 272.735L653.892 257.505C652.286 255.9 650.409 254.646 648.312 253.777C646.214 252.908 644 252.468 641.73 252.468H620.191ZM620.191 251.468H641.73C646.557 251.468 651.186 253.385 654.599 256.798L669.829 272.028C673.242 275.441 675.159 280.07 675.159 284.897V306.435C675.159 311.262 673.242 315.891 669.829 319.304L654.599 334.534C651.186 337.947 646.557 339.865 641.73 339.865H620.191C615.365 339.865 610.735 337.947 607.322 334.534L592.092 319.304C588.679 315.891 586.762 311.262 586.762 306.435V284.897C586.762 280.07 588.679 275.441 592.092 272.028L607.322 256.798C610.735 253.385 615.365 251.468 620.191 251.468Z" fill="#FEF2EB"/>
<path fill-rule="evenodd" clip-rule="evenodd" d="M651.74 285.302L650.24 282.702C649.633 281.645 648.631 280.872 647.455 280.554C646.278 280.235 645.024 280.396 643.966 281.002C643.447 281.307 642.873 281.507 642.277 281.591C641.681 281.674 641.074 281.64 640.491 281.488C639.908 281.337 639.361 281.072 638.881 280.709C638.4 280.346 637.996 279.892 637.692 279.373C637.297 278.706 637.084 277.947 637.076 277.173C637.094 276.557 636.988 275.945 636.765 275.371C636.541 274.798 636.205 274.275 635.777 273.834C635.348 273.392 634.834 273.041 634.268 272.802C633.701 272.562 633.091 272.439 632.476 272.44H629.46C628.857 272.44 628.26 272.559 627.703 272.79C627.146 273.021 626.64 273.361 626.215 273.788C625.789 274.216 625.452 274.723 625.223 275.281C624.995 275.839 624.878 276.436 624.881 277.04C624.864 278.248 624.372 279.402 623.511 280.25C622.65 281.099 621.49 281.575 620.281 281.575C619.506 281.566 618.747 281.354 618.081 280.959C617.023 280.352 615.767 280.19 614.59 280.509C613.412 280.828 612.41 281.602 611.803 282.66L610.197 285.302C609.589 286.356 609.424 287.608 609.737 288.784C610.051 289.96 610.818 290.964 611.87 291.576C612.57 291.979 613.151 292.56 613.555 293.259C613.959 293.959 614.172 294.753 614.172 295.561C614.172 296.368 613.959 297.162 613.555 297.862C613.151 298.561 612.57 299.142 611.87 299.546C610.82 300.153 610.053 301.153 609.74 302.325C609.426 303.498 609.59 304.746 610.197 305.798L611.716 308.418C612.01 308.948 612.405 309.415 612.88 309.791C613.355 310.168 613.899 310.448 614.482 310.613C615.065 310.779 615.675 310.828 616.277 310.757C616.879 310.686 617.461 310.497 617.99 310.201C618.51 309.897 619.084 309.7 619.681 309.62C620.277 309.54 620.883 309.579 621.464 309.734C622.046 309.89 622.59 310.159 623.067 310.526C623.544 310.893 623.943 311.351 624.242 311.874C624.637 312.54 624.85 313.299 624.858 314.074C624.858 315.294 625.343 316.464 626.205 317.326C627.068 318.189 628.238 318.674 629.458 318.674H632.474C633.69 318.674 634.857 318.192 635.719 317.334C636.581 316.476 637.068 315.311 637.074 314.095C637.071 313.49 637.188 312.89 637.418 312.331C637.649 311.772 637.987 311.263 638.415 310.836C638.843 310.408 639.351 310.069 639.91 309.839C640.47 309.609 641.069 309.492 641.674 309.495C642.447 309.515 643.203 309.727 643.874 310.111C644.928 310.718 646.181 310.884 647.356 310.57C648.532 310.256 649.536 309.49 650.148 308.438L651.733 305.796C652.037 305.274 652.234 304.698 652.315 304.1C652.395 303.502 652.356 302.894 652.201 302.311C652.045 301.728 651.776 301.181 651.409 300.702C651.041 300.224 650.583 299.822 650.06 299.522C649.537 299.221 649.078 298.819 648.711 298.341C648.344 297.862 648.074 297.315 647.919 296.732C647.764 296.149 647.725 295.541 647.805 294.943C647.885 294.345 648.083 293.769 648.387 293.248C648.786 292.551 649.363 291.974 650.06 291.575C651.106 290.963 651.869 289.963 652.182 288.792C652.495 287.622 652.334 286.375 651.733 285.323L651.74 285.302Z" stroke="#FEF2EB" stroke-width="2" stroke-linecap="round" stroke-linejoin="round"/>
<path d="M630.98 301.901C634.481 301.901 637.32 299.062 637.32 295.561C637.32 292.059 634.481 289.221 630.98 289.221C627.478 289.221 624.64 292.059 624.64 295.561C624.64 299.062 627.478 301.901 630.98 301.901Z" stroke="#FEF2EB" stroke-width="2" stroke-linecap="round" stroke-linejoin="round"/>
<path d="M641.126 519.828H619.588C617.317 519.828 615.104 519.388 613.006 518.519C610.908 517.65 609.031 516.396 607.426 514.791L592.196 499.561C590.591 497.955 589.336 496.078 588.468 493.981C587.599 491.883 587.158 489.669 587.158 487.399V465.86C587.158 463.59 587.599 461.376 588.468 459.278L588.008 459.088L588.468 459.278C589.336 457.181 590.591 455.304 592.196 453.698L607.426 438.469C609.031 436.863 610.908 435.609 613.006 434.74C615.104 433.871 617.318 433.431 619.588 433.431H641.126C643.397 433.431 645.611 433.871 647.708 434.74C649.806 435.609 651.683 436.863 653.288 438.469L668.518 453.698C670.124 455.304 671.378 457.181 672.247 459.278C673.115 461.376 673.556 463.59 673.556 465.86L673.556 487.399C673.556 489.669 673.115 491.883 672.247 493.981C671.378 496.078 670.124 497.955 668.518 499.561L653.288 514.791C651.683 516.396 649.806 517.65 647.708 518.519C645.611 519.388 643.397 519.828 641.126 519.828Z" fill="#202020" stroke="#FEF2EB"/>
<path d="M619.588 433.431C617.318 433.431 615.103 433.871 613.006 434.74C610.909 435.609 609.031 436.863 607.426 438.469L592.196 453.699C590.591 455.304 589.336 457.181 588.468 459.278C587.599 461.376 587.158 463.59 587.158 465.86V487.399C587.158 489.669 587.599 491.883 588.468 493.981C589.336 496.078 590.591 497.955 592.196 499.561L607.426 514.791C609.031 516.396 610.909 517.65 613.006 518.519C615.103 519.388 617.318 519.828 619.588 519.828H641.126C643.396 519.828 645.611 519.388 647.708 518.519C649.806 517.65 651.683 516.396 653.288 514.791L668.518 499.561C670.123 497.955 671.378 496.078 672.247 493.981C673.115 491.883 673.556 489.669 673.556 487.399V465.86C673.556 463.59 673.115 461.376 672.247 459.278C671.378 457.181 670.123 455.304 668.518 453.699L653.288 438.469C651.683 436.863 649.806 435.609 647.708 434.74C645.611 433.871 643.396 433.431 641.126 433.431H619.588ZM619.588 432.431H641.126C645.953 432.431 650.582 434.348 653.995 437.761L669.225 452.991C672.638 456.404 674.556 461.034 674.556 465.86V487.399C674.556 492.226 672.638 496.855 669.225 500.268L653.995 515.498C650.582 518.911 645.953 520.828 641.126 520.828H619.588C614.761 520.828 610.132 518.911 606.719 515.498L591.489 500.268C588.076 496.855 586.158 492.226 586.158 487.399V465.86C586.158 461.034 588.076 456.404 591.489 452.991L606.719 437.761C610.132 434.348 614.761 432.431 619.588 432.431Z" fill="#202020"/>
<path d="M649.238 476.97C649.238 480.834 648.092 484.612 645.945 487.825C643.798 491.038 640.747 493.543 637.177 495.022C633.606 496.5 629.678 496.887 625.888 496.133C622.097 495.38 618.616 493.519 615.883 490.786C613.151 488.053 611.29 484.572 610.536 480.782C609.782 476.992 610.169 473.063 611.648 469.493C613.127 465.922 615.631 462.871 618.844 460.724C622.057 458.577 625.835 457.431 629.699 457.431C634.351 457.431 638.408 458.51 643.66 463.553V460.501C643.66 460.254 643.758 460.017 643.933 459.843C644.107 459.668 644.344 459.57 644.591 459.57C644.838 459.57 645.074 459.668 645.249 459.843C645.423 460.017 645.521 460.254 645.521 460.501V465.711C645.536 465.848 645.519 465.986 645.472 466.116C645.426 466.245 645.35 466.362 645.252 466.458C645.153 466.555 645.035 466.627 644.904 466.671C644.774 466.715 644.635 466.728 644.498 466.711H639.288C639.042 466.711 638.805 466.613 638.63 466.438C638.456 466.264 638.358 466.027 638.358 465.78C638.358 465.534 638.456 465.297 638.63 465.122C638.805 464.948 639.042 464.85 639.288 464.85H642.358C637.558 460.25 633.891 459.267 629.704 459.267C626.209 459.267 622.792 460.303 619.885 462.245C616.979 464.186 614.713 466.946 613.374 470.175C612.036 473.404 611.684 476.957 612.364 480.386C613.045 483.814 614.726 486.964 617.196 489.437C619.667 491.911 622.814 493.596 626.242 494.281C629.67 494.965 633.224 494.618 636.454 493.284C639.685 491.949 642.447 489.687 644.392 486.782C646.338 483.878 647.378 480.462 647.382 476.967C647.39 475.07 647.088 473.184 646.489 471.384C646.418 471.149 646.441 470.895 646.553 470.677C646.665 470.458 646.857 470.292 647.089 470.212C647.206 470.174 647.328 470.16 647.45 470.17C647.572 470.179 647.691 470.213 647.8 470.269C647.909 470.325 648.006 470.401 648.085 470.494C648.164 470.588 648.224 470.695 648.261 470.812C648.916 472.799 649.246 474.878 649.238 476.97ZM629.699 464.874C629.453 464.874 629.216 464.972 629.042 465.146C628.867 465.321 628.769 465.557 628.769 465.804V477.361L634.631 483.204C634.715 483.298 634.816 483.374 634.93 483.428C635.044 483.481 635.167 483.511 635.293 483.515C635.419 483.519 635.544 483.497 635.661 483.45C635.778 483.404 635.884 483.334 635.973 483.245C636.062 483.156 636.132 483.05 636.178 482.933C636.224 482.817 636.246 482.691 636.242 482.566C636.238 482.44 636.209 482.316 636.155 482.203C636.102 482.089 636.026 481.987 635.931 481.904L630.631 476.582V465.805C630.632 465.683 630.607 465.561 630.561 465.448C630.514 465.335 630.445 465.232 630.359 465.146C630.272 465.059 630.169 464.991 630.056 464.944C629.943 464.898 629.822 464.874 629.699 464.874Z" fill="#FEF2EB"/>
</g>
<path d="M372.187 154.351C379.831 154.351 387.401 155.858 394.464 158.784C401.527 161.71 407.944 165.998 413.349 171.404L413.703 171.051L413.349 171.404L462.482 220.534L462.836 220.181L462.482 220.534C467.888 225.94 472.177 232.357 475.103 239.42C478.029 246.482 479.535 254.052 479.536 261.697V331.182C479.535 338.827 478.029 346.396 475.103 353.459C472.177 360.522 467.888 366.939 462.482 372.344L413.349 421.477C407.944 426.883 401.527 431.172 394.464 434.098C387.401 437.024 379.831 438.53 372.187 438.531H302.702C295.057 438.53 287.487 437.024 280.424 434.098C273.362 431.172 266.944 426.883 261.539 421.477L261.186 421.831L261.539 421.477L212.409 372.344L212.056 372.698L212.409 372.344C207.003 366.939 202.715 360.522 199.788 353.459C196.862 346.396 195.356 338.827 195.356 331.182V261.697C195.356 254.052 196.862 246.482 199.788 239.42C202.715 232.357 207.003 225.94 212.409 220.534L212.056 220.181L212.409 220.534L261.539 171.404L261.186 171.051L261.539 171.404C266.944 165.998 273.362 161.71 280.424 158.784C287.487 155.858 295.057 154.351 302.702 154.351H372.187Z" fill="#202020" stroke="#FEF2EB"/>
<path d="M324.14 320.604C324.077 320.579 324.019 320.552 323.959 320.524C323.393 320.227 322.967 319.719 322.773 319.111C322.579 318.502 322.633 317.841 322.923 317.271L325.78 311.559C321.514 309.015 318.269 305.063 316.603 300.383L310.214 301.767C309.608 301.894 308.978 301.779 308.455 301.448C307.932 301.118 307.559 300.597 307.414 299.995L307.4 299.904C307.268 299.283 307.386 298.635 307.729 298.1C308.071 297.566 308.61 297.187 309.23 297.047L315.58 295.672C315.525 295.086 315.496 294.494 315.493 293.894V293.803C315.485 290.118 316.493 286.502 318.406 283.352L312.818 279.214C312.306 278.832 311.964 278.264 311.866 277.633C311.768 277.001 311.921 276.356 312.293 275.836C312.337 275.77 312.384 275.707 312.436 275.646C312.825 275.2 313.369 274.916 313.958 274.853C314.547 274.789 315.139 274.95 315.615 275.303L321.346 279.545C325.001 275.816 329.83 273.462 335.019 272.879V265.954C335.012 265.639 335.069 265.325 335.185 265.031C335.302 264.737 335.475 264.47 335.696 264.244C335.918 264.019 336.181 263.84 336.473 263.717C336.764 263.595 337.076 263.532 337.392 263.532C337.708 263.532 338.021 263.595 338.312 263.717C338.603 263.84 338.867 264.019 339.088 264.244C339.309 264.47 339.483 264.737 339.599 265.031C339.716 265.325 339.772 265.639 339.766 265.954V272.799C345.074 273.21 350.071 275.465 353.891 279.172L359.109 275.31C359.586 274.959 360.179 274.799 360.768 274.865C361.358 274.93 361.901 275.215 362.29 275.662C362.339 275.721 362.385 275.782 362.427 275.846C362.798 276.366 362.951 277.011 362.852 277.642C362.753 278.273 362.411 278.841 361.899 279.222L356.928 282.901C359.393 286.726 360.489 291.273 360.039 295.801L365.759 297.041C366.377 297.183 366.914 297.562 367.256 298.097C367.597 298.631 367.714 299.278 367.583 299.898C367.578 299.928 367.572 299.956 367.567 299.986C367.423 300.588 367.051 301.11 366.53 301.441C366.008 301.773 365.378 301.889 364.773 301.764L358.985 300.51C357.284 305.186 354.006 309.123 349.716 311.642L352.498 317.204C352.787 317.774 352.84 318.434 352.645 319.043C352.451 319.651 352.025 320.158 351.459 320.454C351.398 320.484 351.338 320.512 351.278 320.536C350.725 320.767 350.106 320.777 349.546 320.565C348.986 320.353 348.528 319.935 348.267 319.396L345.387 313.641C340.204 315.393 334.573 315.293 329.456 313.357L327.147 319.465C326.958 319.864 326.66 320.199 326.286 320.432C325.913 320.666 325.48 320.787 325.04 320.781C324.731 320.781 324.426 320.721 324.14 320.604ZM337.58 309.917C339.455 309.927 341.32 309.643 343.107 309.076L339.349 301.567C338.816 301.667 338.276 301.717 337.734 301.716C336.499 301.719 335.278 301.457 334.153 300.948L331.211 308.729C333.243 309.51 335.399 309.912 337.576 309.918L337.58 309.917ZM328.011 307.1L331.86 299.406C331.247 298.824 330.731 298.147 330.334 297.4C330.292 297.414 330.249 297.426 330.206 297.437L321.606 299.299C322.862 302.511 325.103 305.242 328.008 307.1H328.011ZM347.411 307.025C350.242 305.181 352.43 302.503 353.674 299.361L345.081 297.5C344.689 298.21 344.19 298.855 343.602 299.412L347.411 307.025ZM354.693 294.643C354.707 294.389 354.714 294.132 354.716 293.874V293.803C354.719 291.091 354.002 288.426 352.639 286.081L345.54 291.329C345.709 291.787 345.832 292.259 345.909 292.74L354.693 294.643ZM320.593 293.733C320.593 294.018 320.599 294.301 320.612 294.582L329.225 292.717C329.337 292.697 329.451 292.684 329.565 292.678C329.619 292.352 329.695 292.029 329.793 291.712C329.637 291.642 329.489 291.555 329.353 291.451L322.504 286.381C321.257 288.633 320.598 291.163 320.587 293.736L320.593 293.733ZM332.156 287.543C332.277 287.638 332.39 287.743 332.494 287.857C333.254 287.269 334.11 286.816 335.024 286.517V277.88C331.411 278.395 328.053 280.034 325.424 282.564L332.156 287.543ZM342.565 287.557L342.576 287.548L349.638 282.322C346.914 279.806 343.457 278.224 339.772 277.809V286.325C340.768 286.564 341.713 286.982 342.56 287.558L342.565 287.557ZM327.585 318.893L333.04 320.006C331.193 319.789 329.369 319.417 327.585 318.893Z" fill="#FFE682"/>
<path d="M243.106 344.522C242.165 344.523 241.229 344.382 240.331 344.102C239.64 343.841 238.979 343.508 238.358 343.107C237.042 342.3 235.989 341.127 235.328 339.731C234.667 338.335 234.427 336.777 234.636 335.247L234.65 335.147C235.02 333.165 236.079 331.378 237.641 330.102C239.203 328.826 241.166 328.144 243.182 328.177C243.482 328.177 243.782 328.192 244.082 328.221C245.303 328.366 246.541 328.264 247.722 327.921C248.832 327.611 249.868 327.079 250.768 326.357C251.667 325.635 252.41 324.739 252.953 323.721C253.448 322.793 253.749 321.774 253.84 320.725C253.93 319.677 253.806 318.621 253.477 317.621C252.855 315.803 252.735 313.851 253.131 311.97C253.211 310.733 253.544 309.525 254.109 308.421C255.316 305.96 257.191 303.888 259.519 302.442C261.847 300.995 264.536 300.232 267.277 300.239C270.759 300.248 274.134 301.451 276.837 303.646C277.941 304.11 279.125 304.357 280.323 304.372C282.844 304.372 286.133 303.107 287.483 297.083C288.214 295.89 288.629 293.498 289.204 290.183C289.391 289.108 289.604 287.889 289.846 286.603C291.559 277.703 293.346 273.362 297.81 267.24C301.095 262.743 305.201 258.907 309.91 255.932C318.104 250.437 327.756 247.521 337.622 247.561C344.859 247.564 352.01 249.128 358.587 252.146C365.53 255.194 371.595 259.94 376.224 265.946C377.59 267.594 378.797 269.362 379.963 271.072C382.643 275 384.958 278.393 387.957 278.393C388.158 278.393 388.358 278.377 388.557 278.347C393.032 277.676 394.144 277.196 395.744 273.63C396.504 270.517 398.243 267.729 400.705 265.677C403.167 263.625 406.222 262.417 409.422 262.23C409.714 262.22 410.009 262.215 410.299 262.215C411.22 262.215 412.14 262.266 413.056 262.365C413.585 262.473 414.124 262.527 414.665 262.527C415.319 262.528 415.971 262.447 416.606 262.288C417.387 262.095 418.146 261.82 418.87 261.469C420.505 260.519 421.845 259.135 422.741 257.469L422.857 257.238C423.402 256.157 423.402 256.157 423.278 251.122L423.247 249.863L423.184 247.575L423.957 246.131C424.622 244.859 425.58 243.763 426.752 242.933C427.923 242.104 429.276 241.565 430.697 241.36V241.346C431.175 241.272 431.658 241.234 432.142 241.231C432.546 241.237 432.95 241.267 433.351 241.322C434.56 241.475 435.726 241.869 436.78 242.48C437.835 243.091 438.756 243.908 439.489 244.881C440.151 245.755 440.631 246.754 440.9 247.816C441.17 248.879 441.223 249.986 441.057 251.069C440.737 252.889 439.847 254.559 438.516 255.839C437.184 257.119 435.48 257.943 433.65 258.19C432.928 258.29 431.665 258.46 430.884 258.575C428.861 258.844 427.001 259.825 425.636 261.341C424.271 262.858 423.491 264.811 423.436 266.85C423.392 268.047 423.673 269.232 424.249 270.281C425.229 272.194 425.696 274.329 425.603 276.476C425.696 278.747 425.136 280.998 423.988 282.959C423.311 284.32 422.363 285.527 421.202 286.506C420.148 287.635 418.869 288.53 417.447 289.131C416.401 289.613 415.32 290.014 414.213 290.331C411.878 290.736 409.494 290.767 407.15 290.424C404.904 289.785 402.786 288.76 400.892 287.394C399.932 286.405 398.726 285.688 397.398 285.317C396.258 284.963 395.034 284.983 393.906 285.375C393.793 285.411 393.675 285.43 393.557 285.431H393.512C390.914 286.751 388.758 288.802 387.312 291.331C386.56 293.292 386.056 295.339 385.812 297.424C384.932 304.167 382.643 310.648 379.095 316.448C375.484 322.098 370.691 326.898 365.046 330.515C360.498 333.755 355.338 336.034 349.881 337.215C345.823 338.234 341.656 338.749 337.473 338.748C327.774 338.782 318.274 335.997 310.128 330.731C305.735 327.858 301.863 324.256 298.68 320.082L298.487 319.849C294.83 315.431 291.672 311.616 287.427 311.616C286.178 311.637 284.949 311.931 283.827 312.478C283.206 312.94 282.683 313.521 282.29 314.188C281.897 314.855 281.642 315.593 281.539 316.36C281.059 318.796 279.885 321.04 278.157 322.822C276.785 324.3 275.122 325.476 273.271 326.277C271.421 327.077 269.425 327.484 267.409 327.472C266.339 327.472 265.272 327.358 264.227 327.131C263.247 326.91 261.887 326.653 261.257 326.571C260.965 326.543 260.67 326.529 260.379 326.529C258.386 326.498 256.445 327.17 254.897 328.425C253.349 329.681 252.292 331.442 251.911 333.398C251.804 334.064 251.782 334.741 251.845 335.412C251.935 336.916 251.658 338.419 251.037 339.791C250.582 340.718 249.955 341.55 249.191 342.244C247.511 343.724 245.345 344.535 243.106 344.522ZM243.199 331.456C242.609 331.455 242.024 331.571 241.479 331.797C240.765 332.014 240.11 332.39 239.562 332.897C239.015 333.403 238.59 334.028 238.32 334.723C238.011 335.392 237.934 336.143 238.1 336.86C238.22 337.955 238.707 338.976 239.483 339.757C240.258 340.538 241.276 341.033 242.369 341.16C243.243 341.27 244.13 341.189 244.969 340.921C245.583 340.71 246.151 340.384 246.645 339.962C247.148 339.543 247.56 339.023 247.853 338.437C248.147 337.851 248.317 337.211 248.352 336.556C248.384 335.909 248.282 335.261 248.052 334.655C247.823 334.048 247.471 333.496 247.018 333.031C246.09 332.179 244.919 331.637 243.669 331.481C243.513 331.465 243.355 331.457 243.199 331.456ZM337.614 257.131C316.88 257.131 300.014 273.062 300.014 292.645C300.014 312.228 316.882 328.159 337.614 328.159C358.346 328.159 375.214 312.228 375.214 292.645C375.214 273.062 358.349 257.131 337.614 257.131ZM267.332 305.717C267.087 305.717 266.826 305.729 266.532 305.753C265.377 305.844 264.253 306.165 263.224 306.696C262.195 307.227 261.283 307.959 260.541 308.847C259.872 309.644 259.369 310.565 259.061 311.559C258.753 312.552 258.647 313.597 258.749 314.631C258.879 316.149 259.482 317.588 260.472 318.746C261.876 320.523 263.92 321.679 266.167 321.966C266.562 322.021 266.961 322.048 267.361 322.048C267.588 322.048 267.817 322.039 268.043 322.021C270.169 321.879 272.163 320.942 273.63 319.397C275.096 317.851 275.927 315.81 275.957 313.679C275.868 311.923 275.225 310.241 274.121 308.872C273.017 307.504 271.508 306.52 269.811 306.061C269.004 305.834 268.17 305.718 267.332 305.717ZM410.527 267.907C408.169 267.902 405.902 268.815 404.206 270.451C403.041 271.4 402.224 272.708 401.885 274.171C401.45 275.616 401.43 277.154 401.826 278.609C402.223 280.065 403.02 281.38 404.127 282.404C405.842 284.074 408.14 285.01 410.534 285.014C412.551 285.045 414.52 284.397 416.125 283.174C417.73 281.951 418.877 280.224 419.383 278.27C419.626 277.208 419.653 276.107 419.461 275.033C419.27 273.96 418.864 272.936 418.268 272.023C417.61 271.013 416.755 270.146 415.754 269.473C414.753 268.8 413.627 268.336 412.443 268.108C411.813 267.975 411.17 267.907 410.526 267.907H410.527ZM427.369 252.307C427.876 253.11 428.576 253.771 429.406 254.231C430.236 254.691 431.169 254.934 432.118 254.937H432.137C433.251 254.914 434.336 254.574 435.264 253.956C435.837 253.581 436.327 253.091 436.702 252.517C437.077 251.944 437.331 251.299 437.446 250.623C437.554 249.971 437.528 249.303 437.367 248.661C437.206 248.019 436.914 247.418 436.511 246.893C436.103 246.332 435.586 245.859 434.992 245.502C434.397 245.144 433.737 244.91 433.05 244.813C432.281 244.588 431.46 244.615 430.707 244.89C429.349 245.244 428.17 246.086 427.396 247.255C426.9 248.002 426.7 248.906 426.833 249.791C426.703 250.669 426.897 251.564 427.38 252.308L427.369 252.307Z" fill="#FFE682"/>
<defs>
<clipPath id="clip0_117_1306">
<rect width="675.397" height="589.397" fill="white" transform="translate(0.158386 0.431885)"/>
</clipPath>
</defs>
</svg>
