<svg xmlns="http://www.w3.org/2000/svg" xmlns:xlink="http://www.w3.org/1999/xlink" width="660.538" height="605.467" viewBox="0 0 660.538 605.467">
  <defs>
    <clipPath id="clip-path">
      <rect id="Rectangle_1" data-name="Rectangle 1" width="42.755" height="26.345" fill="#ffd93d"/>
    </clipPath>
  </defs>
  <g id="kubviz-img2" transform="translate(-296.163 -336.27)">
    <path id="Path_18107" data-name="Path 18107" d="M324.817,798.591l73.632-42.525V600.9l-73.632,42.508Z" transform="translate(45.987 -90.514)" fill="#fff" stroke="#020f1e" stroke-width="1"/>
    <path id="Path_18108" data-name="Path 18108" d="M299.249,798.591l-73.641-42.525V600.9l73.641,42.508Z" transform="translate(71.555 -90.514)" fill="#fff" stroke="#020f1e" stroke-width="1"/>
    <path id="Path_18109" data-name="Path 18109" d="M299.249,628.658l-73.641-42.508,73.641-42.5,73.632,42.5Z" transform="translate(71.555 -75.759)" fill="#fff" stroke="#020f1e" stroke-width="1"/>
    <path id="Path_18111" data-name="Path 18111" d="M765.61,1141.686l42.539-24.568v-89.642l-42.539,24.559v89.652Z" transform="translate(-67.614 -200.45)" fill="#fff" stroke="#020f1e" stroke-width="1"/>
    <path id="Path_18112" data-name="Path 18112" d="M750.839,1141.686l-42.544-24.568v-89.642l42.544,24.559v89.652Z" transform="translate(-52.842 -200.45)" fill="#fff" stroke="#020f1e" stroke-linecap="round" stroke-linejoin="round" stroke-width="1"/>
    <path id="Path_18113" data-name="Path 18113" d="M750.839,1043.509l-42.544-24.559L750.839,994.4l42.54,24.552Z" transform="translate(-52.842 -191.925)" fill="#fff" stroke="#020f1e" stroke-width="1"/>
    <path id="Path_18118" data-name="Path 18118" d="M383.795,724.617a14.618,14.618,0,0,1,6.591-11.415l45.144-26.064c3.623-2.092,6.589-.381,6.589,3.8V732.83a14.62,14.62,0,0,1-6.589,11.414l-45.144,26.065c-3.626,2.092-6.591.382-6.591-3.8Z" transform="translate(30.787 -112.508)" fill="#fff" stroke="#020f1e" stroke-width="1"/>
    <path id="Path_18119" data-name="Path 18119" d="M382.539,765.783v-41.89a14.619,14.619,0,0,1,6.591-11.414l45.144-26.064c1.791-1.033,3.417-1.136,4.61-.473l-3.449-1.99,0,.006c-1.2-.771-2.9-.715-4.775.368L385.511,710.39a14.619,14.619,0,0,0-6.589,11.414v41.889c0,2.19.816,3.693,2.11,4.337l3.285,1.9a4.722,4.722,0,0,1-1.778-4.146Z" transform="translate(32.043 -111.785)" fill="#fff" stroke="#020f1e" stroke-width="1"/>
    <path id="Path_18120" data-name="Path 18120" d="M420.942,721.781a2.3,2.3,0,0,0-1.378,1.7l-6.4,30.39c-.166.785.183,1.295.779,1.141a2.3,2.3,0,0,0,1.378-1.7l6.4-30.39c.164-.784-.184-1.294-.779-1.14Zm-8.827,10.586c-.349-.386-1.047-.134-1.555.566l-10.723,14.71a2.4,2.4,0,0,0-.485,1.344c0,.425.181.72.485.787L410.56,752.1c.508.11,1.205-.442,1.557-1.232s.222-1.522-.287-1.632l-9.383-2.037,9.383-12.87C412.339,733.632,412.467,732.752,412.115,732.367Zm23.709-5.5L425.1,724.537c-.508-.111-1.208.44-1.557,1.231s-.223,1.52.286,1.631l9.382,2.035-9.382,12.871c-.508.7-.638,1.578-.286,1.963s1.047.132,1.557-.566l10.722-14.708a2.407,2.407,0,0,0,.486-1.347C436.311,727.223,436.13,726.929,435.825,726.865Z" transform="translate(26.778 -121.659)" fill="#020f1e"/>
    <g id="Group_1724" data-name="Group 1724" transform="translate(342.293 484.875)">
      <path id="Path_18144" data-name="Path 18144" d="M540.413,1176.019c0-1.453-2.566-3.284-3.848-4.029l.03,10.925c1.281.743,3.845,2.573,3.847,4.029Z" transform="translate(-530.439 -1165.829)" fill="#f5f5fa"/>
      <path id="Path_18145" data-name="Path 18145" d="M629.168,1182.911l-.031-10.926c-1.3.746-3.9,2.593-3.893,4.051l.031,10.925C625.27,1185.5,627.871,1183.66,629.168,1182.911Z" transform="translate(-578.141 -1165.827)" fill="#fff" stroke="#020f1e" stroke-width="1"/>
      <path id="Path_18146" data-name="Path 18146" d="M563.609,1192.9c4.495-2.594,11.742-2.594,16.206,0,2.216,1.287,3.325,2.972,3.331,4.661l-.033-10.926c-.007-1.687-1.115-3.373-3.331-4.661-4.463-2.592-11.712-2.592-16.2,0-2.258,1.3-3.386,3.016-3.38,4.722l.031,10.925C560.226,1195.91,561.354,1194.2,563.609,1192.9Z" transform="translate(-543.153 -1170.152)" fill="#fff" stroke="#020f1e" stroke-width="1"/>
      <path id="Path_18147" data-name="Path 18147" d="M540.87,1219.426l-4.557-2.649.033,10.925,4.557,2.649Z" transform="translate(-530.304 -1189.921)" fill="none" stroke="#020f1e" stroke-width="1"/>
      <path id="Path_18148" data-name="Path 18148" d="M628.108,1227.7l-.029-10.925-4.59,2.649.032,10.925Z" transform="translate(-577.198 -1189.922)" fill="#fff" stroke="#020f1e" stroke-width="1"/>
      <path id="Path_18149" data-name="Path 18149" d="M554.661,1228.79q1.327.383,2.684.644c2.852.429,3.464,3.536,3.468,4.842l-.031-10.926c0-1.306-.617-4.412-3.466-4.84q-1.356-.263-2.686-.644c-2.569-.875-6.891,1.12-8.455,2.025l.032,10.924C547.77,1229.911,552.091,1227.914,554.661,1228.79Z" transform="translate(-535.609 -1190.391)" fill="none" stroke="#020f1e" stroke-width="1"/>
      <path id="Path_18150" data-name="Path 18150" d="M594.04,1229.886a3.682,3.682,0,0,1,1.3-.443q1.356-.263,2.685-.642c2.584-.879,6.885,1.118,8.438,2.023l-.031-10.924c-1.551-.9-5.853-2.9-8.435-2.024q-1.329.378-2.686.643a3.711,3.711,0,0,0-1.3.442c-1.76,1.018-2.133,3.341-2.233,4.448l.031,10.924C591.906,1233.227,592.278,1230.9,594.04,1229.886Z" transform="translate(-560.137 -1190.396)" fill="#fff" stroke="#020f1e" stroke-width="1"/>
      <path id="Path_18151" data-name="Path 18151" d="M532.842,1180.621c1.5,1.49-1.961,3.988-3.524,4.89l4.557,2.649c1.563-.905,5.886-2.9,8.455-2.025q1.328.38,2.685.644c2.884.432,3.478,3.615,3.467,4.89h6.464c.1-1.106.473-3.429,2.233-4.448a3.715,3.715,0,0,1,1.3-.442q1.356-.264,2.685-.643c2.582-.876,6.883,1.12,8.435,2.024l4.59-2.649c-1.557-.9-4.992-3.4-3.473-4.891a10.721,10.721,0,0,0,1.124-1.557,1.806,1.806,0,0,1,.779-.755c1.782-1.031,5.854-1.273,7.67-1.27l.022-3.746c-2.36.093-7.688-.353-8.427-2.028a10.616,10.616,0,0,0-1.1-1.556c-1.5-1.492,1.961-3.989,3.524-4.891l-4.557-2.648c-1.563.9-5.888,2.9-8.453,2.024q-1.313-.374-2.683-.643c-2.889-.436-3.482-3.616-3.475-4.889l-6.469,0c0,1.056-.43,3.415-2.216,4.445a3.694,3.694,0,0,1-1.307.446c-.915.179-1.816.392-2.689.644-2.98.642-6.879-1.123-8.433-2.025l-4.587,2.648c1.554.9,4.986,3.4,3.467,4.889a10.491,10.491,0,0,0-1.121,1.559,1.816,1.816,0,0,1-.779.756c-1.785,1.028-5.855,1.271-7.682,1.271l-.011,3.746c2.2,0,7.689.351,8.428,2.024a10.114,10.114,0,0,0,1.105,1.558Zm10.893-10.148c4.491-2.592,11.74-2.592,16.2,0s4.439,6.793-.052,9.388-11.741,2.588-16.2,0S539.248,1173.067,543.735,1170.473Z" transform="translate(-523.308 -1158.658)" fill="#fff" stroke="#020f1e" stroke-width="1"/>
      <path id="Path_18152" data-name="Path 18152" d="M529.317,1206.906c1.563-.9,5.026-3.4,3.524-4.89a10.1,10.1,0,0,1-1.105-1.557c-.739-1.674-6.228-2.029-8.428-2.025l.032,10.922a27.344,27.344,0,0,1,5.984.645Z" transform="translate(-523.308 -1180.054)" fill="none" stroke="#020f1e" stroke-width="1"/>
      <path id="Path_18153" data-name="Path 18153" d="M584.281,1241.023l-.031-10.924h-6.463l.031,10.926Z" transform="translate(-552.613 -1197.088)" fill="#fff" stroke="#020f1e" stroke-width="1"/>
      <path id="Path_18154" data-name="Path 18154" d="M635.07,1209.355l-.032-10.922c-1.817,0-5.889.239-7.67,1.27a1.807,1.807,0,0,0-.779.755,10.725,10.725,0,0,1-1.124,1.558c-1.519,1.49,1.916,3.989,3.473,4.891l.008,3.139A26.908,26.908,0,0,1,635.07,1209.355Z" transform="translate(-578.057 -1180.053)" fill="#fff" stroke="#020f1e" stroke-width="1"/>
    </g>
    <g id="Group_10970" data-name="Group 10970" transform="translate(444.778 757.671)">
      <path id="Path_18160" data-name="Path 18160" d="M449.477,980.939l18.557-10.716V948.466l-18.557,10.712Z" transform="translate(-430.919 -937.758)" fill="#fff" stroke="#020f1e" stroke-linecap="round" stroke-linejoin="round" stroke-width="1"/>
      <path id="Path_18161" data-name="Path 18161" d="M443.033,980.939l-18.558-10.716V948.466l18.558,10.712Z" transform="translate(-424.475 -937.758)" fill="#fff" stroke="#020f1e" stroke-linecap="round" stroke-linejoin="round" stroke-width="1"/>
      <path id="Path_18162" data-name="Path 18162" d="M443.033,955.46l-18.558-10.712,18.558-10.708,18.557,10.708Z" transform="translate(-424.475 -934.04)" fill="#fff" stroke="#020f1e" stroke-linecap="round" stroke-linejoin="round" stroke-width="1"/>
    </g>
    <g id="Group_10971" data-name="Group 10971" transform="translate(870.877 629.798)">
      <path id="Path_18160-2" data-name="Path 18160" d="M449.477,980.939l18.557-10.716V948.466l-18.557,10.712Z" transform="translate(-430.919 -937.758)" fill="#fff" stroke="#020f1e" stroke-linecap="round" stroke-linejoin="round" stroke-width="1"/>
      <path id="Path_18161-2" data-name="Path 18161" d="M443.033,980.939l-18.558-10.716V948.466l18.558,10.712Z" transform="translate(-424.475 -937.758)" fill="#fff" stroke="#020f1e" stroke-linecap="round" stroke-linejoin="round" stroke-width="1"/>
      <path id="Path_18162-2" data-name="Path 18162" d="M443.033,955.46l-18.558-10.712,18.558-10.708,18.557,10.708Z" transform="translate(-424.475 -934.04)" fill="#fff" stroke="#020f1e" stroke-linecap="round" stroke-linejoin="round" stroke-width="1"/>
    </g>
    <g id="Group_10935" data-name="Group 10935" transform="translate(542.078 390.602)">
      <path id="Path_18173" data-name="Path 18173" d="M599.869,857.544c59.083,34.112,154.88,34.11,213.962,0,29.54-17.056,44.31-39.411,44.312-61.765v19.756c0,22.355-14.771,44.708-44.312,61.763-59.083,34.112-154.88,34.113-213.962,0-29.541-17.055-44.314-39.41-44.312-61.765V795.778C555.555,818.132,570.328,840.487,599.869,857.544Z" transform="translate(-555.557 -531.339)" fill="#fff" stroke="#020f1e" stroke-width="1"/>
      <path id="Path_18174" data-name="Path 18174" d="M858.143,765.451c0-22.354-14.769-44.709-44.311-61.766-59.083-34.11-154.879-34.11-213.963,0-29.54,17.057-44.312,39.411-44.312,61.764s14.771,44.709,44.312,61.766c59.083,34.112,154.879,34.11,213.962,0C843.371,810.159,858.142,787.8,858.143,765.451Z" transform="translate(-555.557 -501.012)" fill="#fff" stroke="#020f1e" stroke-width="1"/>
      <path id="Path_18176" data-name="Path 18176" d="M630.189,729.913c4.657-28,17.9-104.877,17.9-104.877-.027,8.587,75.592,45.04,116.928,21.173,25.542-14.745,39.9-32.468,40.952-47.469v95.282l-.051.013c1.062,7.1-2.021,8.538,1.093,17.38,8.045,7.724,12.53,16.332,13.475,25.049l.021.032-.016.009a32.15,32.15,0,0,1,.209,3.458c0,14.192-9.382,28.383-28.135,39.21-37.513,21.658-98.33,21.658-135.844,0-18.755-10.827-28.133-25.022-28.133-39.215A33.068,33.068,0,0,1,630.189,729.913Z" transform="translate(-572.325 -480.559)" fill="#ffd93d" stroke="#020f1e" stroke-width="1"/>
      <path id="Path_18177" data-name="Path 18177" d="M648.436,687.193c4.983-29.109,10.056-58.6,10.056-58.6-.027,8.6,75.592,45.04,116.928,21.173,19.933-11.5,32.94-24.8,38.243-37.221l2.709.255v51.737L733.9,735.184C691.177,687.193,669.684,719.75,648.436,687.193Z" transform="translate(-582.728 -484.117)" fill="#fff" stroke="#020f1e" stroke-width="1"/>
      <path id="Path_18178" data-name="Path 18178" d="M793.958,561.1a196.31,196.31,0,0,0-13.128-71.523c-19.19-48.909-183.488-49.205-202.759-.651A196.13,196.13,0,0,0,564.69,561.1c0,38.844,40.377,62.342,58.087,89.418,21.006,32.122,22.182,64.374,56.541,64.374,63.313,0,114.64-68.858,114.64-153.792Z" transform="translate(-498.15 -442.923)" fill="#fff" stroke="#020f1e" stroke-width="1"/>
      <path id="Path_18179" data-name="Path 18179" d="M743.06,474.681c7.305-.375,15.089,2.155,23.186,9.074,42.116,35.981-13.493,111.626,15.13,143.518,28.417,31.664,32.672,88.268,49.985,92.8-.091.006-.182.091-.274.209-2.2.169-4.41.263-6.638.263-34.36,0-35.535-32.251-56.541-64.374C750.2,629.1,709.821,605.6,709.821,566.758A196.142,196.142,0,0,1,723.2,494.584c3.153-7.946,10.208-14.574,19.858-19.9Z" transform="translate(-643.282 -448.577)" fill="#fff" stroke="#020f1e" stroke-width="1"/>
      <path id="Path_18180" data-name="Path 18180" d="M588.4,616.074c30.765,1.151,62.2-5.064,85.707-18.641,21.655-12.5,30.327-28.893,32.5-45.285v-.023l.386.006a198.768,198.768,0,0,1,1.035,62.581c-3.292,13.634-13.886,26.794-32.05,37.28-15.122,8.73-33.453,14.488-52.787,17.27-37.413,5.38-55.46-17.606-57.784-34.4-.635-4.612-2.939-19.768,22.994-18.789Z" transform="translate(-414.479 -468.545)" fill="#ffd93d" stroke="#020f1e" stroke-width="1"/>
      <path id="Path_18181" data-name="Path 18181" d="M689.744,651.3c-3.71-7.51-11.947-9.365-18.5-4.16-6.567,5.229-8.839,15.532-5.181,23.026,3.677,7.487,11.949,9.357,18.5,4.143,6.582-5.2,8.84-15.523,5.18-23.009Z" transform="translate(-469.64 -492.273)" fill="#fff" stroke="#020f1e" stroke-width="1"/>
      <path id="Path_18182" data-name="Path 18182" d="M583.872,596.782c-2.574-7.151-8.59-8.247-13.535-2.447s-6.834,16.283-4.246,23.452c2.556,7.159,8.59,8.254,13.553,2.464C584.54,614.446,586.445,603.96,583.872,596.782Z" transform="translate(-289.39 -478.464)" fill="#fff" stroke="#020f1e" stroke-width="1"/>
      <path id="Path_18185" data-name="Path 18185" d="M787.2,499.679c0-15.394-10.171-30.788-30.514-42.533-40.688-23.493-106.659-23.493-147.349,0C589,468.892,578.83,484.285,578.83,499.679S589,530.47,609.341,542.216c40.69,23.49,106.661,23.49,147.35,0,20.343-11.746,30.512-27.141,30.512-42.536Z" transform="translate(-501.892 -439.527)" fill="#fff" stroke="#020f1e" stroke-width="1"/>
      <path id="Path_18186" data-name="Path 18186" d="M781.8,501.34c0-14.17-9.362-28.34-28.088-39.151-37.454-21.624-98.177-21.624-135.63,0C599.351,473,589.99,487.17,589.99,501.339s9.361,28.343,28.087,39.155c37.453,21.622,98.177,21.622,135.631,0,18.727-10.811,28.087-24.982,28.087-39.153Z" transform="translate(-504.768 -441.187)" fill="#fff" stroke="#020f1e" stroke-width="1"/>
      <path id="Path_18187" data-name="Path 18187" d="M819.613,847.918a9.129,9.129,0,0,0-8.268,0c-2.285,1.317-2.285,3.454,0,4.773a9.139,9.139,0,0,0,8.268,0C821.9,851.372,821.9,849.235,819.613,847.918Zm18.576-26.258a10.241,10.241,0,0,0-4.63-8.019c-2.555-1.474-4.629-.278-4.629,2.674a10.229,10.229,0,0,0,4.629,8.017c2.557,1.477,4.63.28,4.63-2.672Z" transform="translate(-724.196 -535.78)" fill="#020f1e"/>
      <path id="Path_18188" data-name="Path 18188" d="M815.094,853.833a2.227,2.227,0,0,0,2.227-2.227l0-19.593,16.965-9.8a2.227,2.227,0,1,0-2.227-3.856L813.982,828.8a2.226,2.226,0,0,0-1.113,1.928v20.878a2.227,2.227,0,0,0,2.227,2.227Z" transform="translate(-723.811 -537.082)" fill="#fff" stroke="#020f1e" stroke-width="1"/>
      <path id="Path_18189" data-name="Path 18189" d="M840.936,835.607a9.132,9.132,0,0,0-8.268,0c-2.285,1.318-2.285,3.455,0,4.771a9.13,9.13,0,0,0,8.268,0C843.219,839.062,843.219,836.925,840.936,835.607Zm18.576-26.26a10.24,10.24,0,0,0-4.629-8.017c-2.556-1.475-4.627-.278-4.627,2.673a10.227,10.227,0,0,0,4.627,8.017c2.557,1.477,4.629.281,4.629-2.672Z" transform="translate(-761.347 -532.607)" fill="#020f1e"/>
      <path id="Path_18190" data-name="Path 18190" d="M836.416,841.522a2.227,2.227,0,0,0,2.227-2.227V819.7l16.965-9.8a2.227,2.227,0,1,0-2.227-3.856L835.3,816.489a2.226,2.226,0,0,0-1.113,1.928l0,20.878a2.227,2.227,0,0,0,2.227,2.227Z" transform="translate(-760.961 -533.91)" fill="#fff" stroke="#020f1e" stroke-width="1"/>
      <path id="Path_18191" data-name="Path 18191" d="M709.3,509.235a1.079,1.079,0,0,1,1.475-.4l53.76,31.039c-.353.211-.688.429-1.05.638s-.742.4-1.109.609L709.7,510.71a1.079,1.079,0,0,1-.395-1.475Zm-89.031-23.9,21.2,12.238a7.929,7.929,0,0,1,6.614.281,2.925,2.925,0,0,1,0,5.407,7.859,7.859,0,0,1-7.208,0,3.21,3.21,0,0,1-1.808-2.7,2.7,2.7,0,0,1,.534-1.57L619.44,487.352H602.9q.491-1.1,1.048-2.159H619.73A1.081,1.081,0,0,1,620.269,485.337Zm21.684,16.056a5.671,5.671,0,0,0,5.047,0c.45-.26.73-.579.73-.833s-.28-.574-.729-.834a5.674,5.674,0,0,0-5.048,0c-.451.26-.73.579-.73.833s.278.574.73.833Zm26.728-14.442a1.08,1.08,0,0,1-1.08,1.871l-22.565-13.029a7.933,7.933,0,0,1-6.616-.281,2.926,2.926,0,0,1,0-5.408,7.863,7.863,0,0,1,7.208,0,3.218,3.218,0,0,1,1.809,2.7,2.707,2.707,0,0,1-.534,1.57Zm-24.133-14.977a5.675,5.675,0,0,0-5.048,0c-.45.26-.728.579-.728.833s.278.575.728.834a5.674,5.674,0,0,0,5.048,0c.449-.26.729-.579.729-.833S645,472.234,644.549,471.974Zm44.324,14.842a1.079,1.079,0,0,1-1.475.395l-26.116-15.079a1.078,1.078,0,0,1-.541-.935V449.8q1.076-.243,2.16-.47v21.247l25.578,14.767a1.079,1.079,0,0,1,.393,1.476Zm5.482-6.56-26.116-15.079a1.078,1.078,0,0,1-.541-.935v-6.614a1.078,1.078,0,0,1,.541-.935l18.069-10.432q2.327-.132,4.661-.2l-21.11,12.189v5.367l25.578,14.768a1.08,1.08,0,0,1-1.08,1.871Zm-46.439,38.839-17.042-9.84a7.928,7.928,0,0,1-6.614-.281,2.926,2.926,0,0,1,0-5.407,7.861,7.861,0,0,1,7.207,0,3.217,3.217,0,0,1,1.811,2.705,2.7,2.7,0,0,1-.537,1.57l15.714,9.072,40.522-23.4a1.08,1.08,0,0,1,1.08,1.871l-41.062,23.707A1.081,1.081,0,0,1,647.915,519.095Zm-17.528-13.658a5.675,5.675,0,0,0-5.048,0c-.451.26-.729.579-.729.834s.278.574.729.834a5.677,5.677,0,0,0,5.047,0c.45-.26.73-.579.73-.834s-.28-.574-.729-.834ZM643.6,488.2a1.079,1.079,0,0,1-1.475.395l-28.129-16.241c.546-.512,1.087-1.027,1.666-1.531l27.544,15.9a1.079,1.079,0,0,1,.4,1.475Zm49.1,59.182a7.862,7.862,0,0,1,7.208,0,3.721,3.721,0,0,1,1.479,1.5q4.813-.188,9.509-.695l-9.774-5.643a1.08,1.08,0,0,1,1.08-1.871l12.255,7.076a120.707,120.707,0,0,0,28.7-7.3l-41.572-24.005a1.08,1.08,0,1,1,1.08-1.871L746.174,539.7a1.08,1.08,0,0,1-.117,1.928,121.13,121.13,0,0,1-31.471,8.286,1.091,1.091,0,0,1-.213.03q-6.406.832-12.867,1.088a3.6,3.6,0,0,1-1.6,1.753,7.861,7.861,0,0,1-7.208,0,2.926,2.926,0,0,1,0-5.407Zm1.08,3.537a5.678,5.678,0,0,0,5.048,0c.451-.26.73-.579.73-.833s-.28-.576-.73-.834a5.669,5.669,0,0,0-5.048,0c-.45.26-.728.579-.728.833S693.326,550.658,693.775,550.917Zm-50.588-13.794a7.935,7.935,0,0,1,6.615-.281l37.511-21.657a1.08,1.08,0,1,1,1.08,1.871L668.919,528.3v6.815a6.832,6.832,0,0,1,2.524.8,2.925,2.925,0,0,1,0,5.408,7.864,7.864,0,0,1-7.208,0,2.926,2.926,0,0,1,0-5.407,6.817,6.817,0,0,1,2.524-.8v-5.568l-15.089,8.713a2.707,2.707,0,0,1,.534,1.57,3.214,3.214,0,0,1-1.809,2.7,7.861,7.861,0,0,1-7.208,0,2.926,2.926,0,0,1,0-5.408Zm22.127.661c-.449.261-.727.579-.727.834s.278.575.727.834a5.676,5.676,0,0,0,5.048,0c.45-.261.73-.58.73-.834s-.28-.574-.73-.833a5.175,5.175,0,0,0-2.507-.592c-.006,0-.011,0-.017,0s-.012,0-.018,0a5.181,5.181,0,0,0-2.507.592Zm-21.047,2.878a5.677,5.677,0,0,0,5.047,0c.45-.26.73-.58.73-.834s-.28-.574-.729-.834a5.674,5.674,0,0,0-5.048,0c-.449.26-.727.579-.727.833S643.818,540.4,644.267,540.662Zm113.645-18.993H747.018a1.085,1.085,0,0,1-.541-.145L718.22,505.208a1.079,1.079,0,1,1,1.078-1.87l28.008,16.17h10.315l12.225-7.058a2.7,2.7,0,0,1-.534-1.568,3.213,3.213,0,0,1,1.807-2.7,7.863,7.863,0,0,1,7.208,0,2.924,2.924,0,0,1,0,5.407,7.931,7.931,0,0,1-6.615.281l-13.261,7.657a1.085,1.085,0,0,1-.54.145Zm14.289-9.953a5.676,5.676,0,0,0,5.048,0c.45-.26.73-.579.73-.833s-.28-.575-.73-.834a5.672,5.672,0,0,0-5.047,0c-.45.26-.728.579-.728.834s.278.574.728.834Zm-92.107-3.121a1.08,1.08,0,0,1,1.078,1.871l-28.049,16.194a1.074,1.074,0,0,1-.54.145H610.472q-.953-1.055-1.846-2.16h43.669Zm69.373-12.742H728.755a1.08,1.08,0,1,1,0-2.16h20.422l31.384-18.118c.5.55.964,1.109,1.432,1.666l-31.985,18.467a1.082,1.082,0,0,1-.54.145Zm-17.25-28.3a3.214,3.214,0,0,1-1.811,2.7,7.859,7.859,0,0,1-7.206,0,2.926,2.926,0,0,1,0-5.408,7.935,7.935,0,0,1,6.615-.282l17.238-9.951q1.311.481,2.6.99l-17.974,10.378a2.7,2.7,0,0,1,.536,1.569Zm-2.889-.834a5.674,5.674,0,0,0-5.048,0c-.451.26-.729.579-.729.833s.278.575.729.834a5.677,5.677,0,0,0,5.047,0c.45-.26.73-.579.73-.833S729.777,466.98,729.328,466.72Zm-19.579,8.246a1.08,1.08,0,1,1-2.16,0V462.149a1.078,1.078,0,0,1,.54-.935l20.513-11.842c1.049.221,2.1.441,3.136.683l-22.029,12.719Zm45.523,4.094H734.608l-18.891,10.908a1.08,1.08,0,1,1-1.079-1.871L755.7,464.39a1.08,1.08,0,1,1,1.079,1.871L738.35,476.9h16.632l16.427-9.484c.633.469,1.268.937,1.87,1.415l-17.467,10.085a1.08,1.08,0,0,1-.539.144Zm-38.113,51.821a1.078,1.078,0,0,1-.539.935l-6.863,3.961a1.08,1.08,0,1,1-1.081-1.87l5.244-3.027-18.791-10.848a1.08,1.08,0,0,1,1.081-1.871l20.41,11.783a1.077,1.077,0,0,1,.539.935Z" transform="translate(-514.545 -441.211)" fill="#020f1e"/>
      <g id="Group_10969" data-name="Group 10969" transform="translate(114.794 6.768)">
        <path id="Path_18193" data-name="Path 18193" d="M731.973,501.314,664.626,540.2V563.96l67.347-38.885V501.314Z" transform="translate(-597.275 -460.194)" fill="#fff" stroke="#020f1e" stroke-linecap="round" stroke-linejoin="round" stroke-width="1"/>
        <path id="Path_18194" data-name="Path 18194" d="M786.54,540.2l-67.35-38.884v23.761l67.35,38.885V540.2Z" transform="translate(-719.19 -460.194)" fill="#fff" stroke="#020f1e" stroke-linecap="round" stroke-linejoin="round" stroke-width="1"/>
        <path id="Path_18195" data-name="Path 18195" d="M731.3,468,667.5,504.83l63.8,36.832,63.8-36.832Z" transform="translate(-663.952 -467.999)" fill="#ffd93d" stroke="#020f1e" stroke-linecap="round" stroke-linejoin="round" stroke-width="1"/>
        <path id="Path_18196" data-name="Path 18196" d="M752.7,526.637l-5.675-3.276v16.383l5.675,3.275Zm-15.008-8.665-5.674-3.276v16.384l5.674,3.277ZM767.7,535.3l-5.677-3.277v16.384l5.677,3.276Z" transform="translate(-716.185 -460.747)" fill="none" stroke="#020f1e" stroke-width="1"/>
        <path id="Path_18197" data-name="Path 18197" d="M692.457,526.637l5.675-3.276v16.383l-5.675,3.275Zm15.008-8.665,5.676-3.276v16.384l-5.676,3.277ZM677.45,535.3l5.678-3.277v16.384l-5.678,3.276Z" transform="translate(-594.27 -460.747)" fill="none" stroke="#020f1e" stroke-width="1"/>
        <path id="Path_18198" data-name="Path 18198" d="M731.973,502.128l-3.552-4.289-63.795,36.832v6.342l67.347-38.885Z" transform="translate(-597.275 -461.009)" fill="#fff" stroke="#020f1e" stroke-linecap="round" stroke-linejoin="round" stroke-width="1"/>
        <path id="Path_18199" data-name="Path 18199" d="M786.54,534.671v6.342l-67.35-38.885,3.552-4.289Z" transform="translate(-719.19 -461.009)" fill="#fff" stroke="#020f1e" stroke-linecap="round" stroke-linejoin="round" stroke-width="1"/>
        <g id="Group_5_copy" data-name="Group 5 copy" transform="translate(25.562 21.327)">
          <path id="Shape_103" data-name="Shape 103" d="M12.533,19.211l-.452-2.22a9.422,9.422,0,0,1-2.814-.33,9.069,9.069,0,0,1-2.872-1.347L4.922,17.121a.92.92,0,0,1-1.2.08l-.056-.044a.807.807,0,0,1-.022-1.19L5.27,14.354A7.028,7.028,0,0,1,3.2,9.791L.8,9.622A.822.822,0,0,1,0,8.777c0-.01,0-.021,0-.031A.874.874,0,0,1,.959,8l2.379.166q.064-.291.157-.581L3.5,7.556A6.643,6.643,0,0,1,5.617,4.489L4.1,2.649a.753.753,0,0,1,.168-1.112.663.663,0,0,1,.069-.046.915.915,0,0,1,1.141.191L7.036,3.56a8.953,8.953,0,0,1,5.446-.822l.68-2.177A.863.863,0,0,1,14.223.027.787.787,0,0,1,14.817,1L14.152,3.16a8.439,8.439,0,0,1,4.354,3.371l2.211-.739a.919.919,0,0,1,1.091.415.645.645,0,0,1,.032.072.776.776,0,0,1-.5,1.034l-2.111.708a6.307,6.307,0,0,1,.112,3.825,6.387,6.387,0,0,1-.236.677l1.931.969a.821.821,0,0,1,.385,1.124c-.005.008-.009.017-.014.027a.9.9,0,0,1-1.176.313l-1.957-.985a7.774,7.774,0,0,1-4.43,2.784l.444,2.141a.843.843,0,0,1-.7.994c-.024,0-.048.007-.074.009s-.058,0-.086,0A.883.883,0,0,1,12.533,19.211ZM9.658,14.973a7.205,7.205,0,0,0,2.066.268l-.581-2.85a3.518,3.518,0,0,1-.592-.109,3.335,3.335,0,0,1-1.2-.6L7.5,13.953A6.922,6.922,0,0,0,9.658,14.973Zm3.816.013a5.925,5.925,0,0,0,3-1.918l-2.883-1.451a2.858,2.858,0,0,1-.719.482ZM6.534,13.1,8.7,10.954a2.574,2.574,0,0,1-.337-.8H8.316L5.08,9.923A5.376,5.376,0,0,0,6.534,13.1ZM17.3,11.619q.045-.124.083-.25l.006-.023A4.794,4.794,0,0,0,17.4,8.634L14.374,9.649a2.316,2.316,0,0,1-.009.5Zm-8.849-3.1a1.011,1.011,0,0,1,.12.019,2.419,2.419,0,0,1,.18-.291.818.818,0,0,1-.126-.124L6.738,5.844A5.054,5.054,0,0,0,5.3,8.022q-.045.138-.082.276ZM13.69,8.14h0L16.7,7.135a6.425,6.425,0,0,0-3.037-2.385l-.84,2.722A3.135,3.135,0,0,1,13.69,8.14Zm-3.678-1a.886.886,0,0,1,.085.129,3.315,3.315,0,0,1,1.03-.189l.86-2.756A6.863,6.863,0,0,0,8.153,4.9ZM5.139,16.973l1.843.917A12.793,12.793,0,0,1,5.139,16.973Z" transform="translate(30.034 5.557)" fill="#fff"/>
          <path id="Shape_103-2" data-name="Shape 103" d="M42.49,31.063c-.378,0-.772-.014-1.171-.041a19.457,19.457,0,0,1-13.7-6.26,15.558,15.558,0,0,1-2.887-4.7l-.043-.1c-.916-2.089-1.707-3.894-3.8-3.894a4.183,4.183,0,0,0-.54.037A2.173,2.173,0,0,0,19.1,17.153a4.815,4.815,0,0,1-1.942,1.793A5.839,5.839,0,0,1,11.739,19c-.325-.173-.764-.387-.977-.476a3.482,3.482,0,0,0-1.249-.229,3.287,3.287,0,0,0-2.875,1.564,2.8,2.8,0,0,0-.275.661A3.369,3.369,0,0,1,5.529,21.9a3.321,3.321,0,0,1-.961.637,3.727,3.727,0,0,1-1.447.293,3.487,3.487,0,0,1-1.915-.554,3.457,3.457,0,0,1-.566-.529A2.541,2.541,0,0,1,.35,18.769l.019-.032a3.345,3.345,0,0,1,2.917-1.584,3.483,3.483,0,0,1,1.257.231,3.533,3.533,0,0,0,1.31.256H5.87a3.108,3.108,0,0,0,3.263-2.8,3.491,3.491,0,0,1,.566-1.86,3.219,3.219,0,0,1,.767-1.046,5.731,5.731,0,0,1,3.989-1.561,6.017,6.017,0,0,1,1.542.2,5.323,5.323,0,0,1,2.929,2,3.2,3.2,0,0,0,1.841.669,3.163,3.163,0,0,0,2.613-1.757,8.207,8.207,0,0,0,1.363-2.031c.184-.324.393-.692.618-1.075A14.088,14.088,0,0,1,30.19,3.07,16.764,16.764,0,0,1,35.514.7a19.313,19.313,0,0,1,5.2-.7,19.744,19.744,0,0,1,12,4.006,15.889,15.889,0,0,1,4.947,5.985c.338.656.609,1.337.871,2,.643,1.615,1.2,3.01,2.422,3.169a9.4,9.4,0,0,0,1.182.1,2.078,2.078,0,0,0,1.8-.939,5.112,5.112,0,0,1,4.585-2.479,6.508,6.508,0,0,1,1.257.124,10.478,10.478,0,0,1,1.287.391,3.342,3.342,0,0,0,1.278.314c.067,0,.134,0,.2,0a4.531,4.531,0,0,0,.675-.051,3.472,3.472,0,0,0,1.7-.914l.06-.063c.28-.293.28-.293.625-1.909l.086-.4.155-.73.383-.385a3.158,3.158,0,0,1,2.282-.9,3.881,3.881,0,0,1,.476.03,3.248,3.248,0,0,1,.522.095,4.089,4.089,0,0,1,.424.141,3.576,3.576,0,0,1,2.009,1.88,2.483,2.483,0,0,1,.026,1.939,2.881,2.881,0,0,1-2.728,1.6,3.852,3.852,0,0,1-.465-.028c-.158-.022-.7-.1-1.022-.141a3.823,3.823,0,0,0-.454-.027,2.809,2.809,0,0,0-2.868,1.981,2.063,2.063,0,0,0,.024,1.193,3.889,3.889,0,0,1,0,2.159,3.646,3.646,0,0,1-1.1,1.979,3.717,3.717,0,0,1-1.3.9,4.028,4.028,0,0,1-1.583.5,9.055,9.055,0,0,1-1.207.08h-.07a9.3,9.3,0,0,1-2.576-.669,8.02,8.02,0,0,1-2.008-1.62,3.019,3.019,0,0,0-1.083-1.027,2.276,2.276,0,0,0-1.171-.325l-.092,0h-.01a.428.428,0,0,1-.137-.021,5.381,5.381,0,0,0-2.758,1.334,8.118,8.118,0,0,0-1.09,1.871,16.077,16.077,0,0,1-4.217,5.741,17.179,17.179,0,0,1-6.488,3.371A16.215,16.215,0,0,1,42.49,31.063Zm-1.6-27.984c-5.906,0-10.989,3.288-12.65,8.181a10.8,10.8,0,0,0,.757,8.578,14.182,14.182,0,0,0,8.811,6.823,15.966,15.966,0,0,0,4.292.594c6.081,0,11.336-3.59,12.779-8.728a10.872,10.872,0,0,0-1.115-8.371,14.333,14.333,0,0,0-8.81-6.543A15.809,15.809,0,0,0,40.888,3.079ZM3.352,18.3c-.053,0-.109,0-.168.008a2.014,2.014,0,0,0-1.478.654,1.182,1.182,0,0,0-.351.684,1.552,1.552,0,0,0,.948,1.85,2.338,2.338,0,0,0,.906.179h.039a2.148,2.148,0,0,0,.712-.154,1.866,1.866,0,0,0,1.062-1.039,1.516,1.516,0,0,0-.055-1.224,2.052,2.052,0,0,0-.979-.839A1.726,1.726,0,0,0,3.352,18.3Zm65.376-4.533a3.356,3.356,0,0,0-1.5.343,2.215,2.215,0,0,0-1.144.98,2.566,2.566,0,0,0,.11,2.9,3.687,3.687,0,0,0,2.1,1.488,3.9,3.9,0,0,0,1.02.137,3.043,3.043,0,0,0,2.741-1.491,2.527,2.527,0,0,0,.155-2,3.45,3.45,0,0,0-1.832-1.982A3.815,3.815,0,0,0,68.727,13.762ZM14.428,12.2a3.139,3.139,0,0,0-3.1,2.175,2.266,2.266,0,0,0,.106,1.5,2.913,2.913,0,0,0,1.607,1.606,3.262,3.262,0,0,0,.652.2,3.7,3.7,0,0,0,.66.06,3.247,3.247,0,0,0,3.1-2.016A2.627,2.627,0,0,0,16.2,12.677a3.377,3.377,0,0,0-1.1-.412A3.6,3.6,0,0,0,14.428,12.2Zm62.539-1.7a2.228,2.228,0,0,0,1.5,1.291,2.177,2.177,0,0,0,.564.075,2.061,2.061,0,0,0,.251-.015,2.1,2.1,0,0,0,.387-.073,1.571,1.571,0,0,0,1.035-.868,1.471,1.471,0,0,0-.063-1.265,2.034,2.034,0,0,0-1.082-.985,1.557,1.557,0,0,0-.757-.2l-.084,0h-.062a2.031,2.031,0,0,0-1.3.437,1.052,1.052,0,0,0-.394.749,1.1,1.1,0,0,0,0,.852Z" transform="translate(0 0)" fill="#fff"/>
        </g>
      </g>
      <path id="path3059" d="M119.4,274.06a.592.592,0,0,0-.527.641c0,.005,0,.011,0,.016,0,.048,0,.106,0,.148a5.231,5.231,0,0,0,.072.548,5.889,5.889,0,0,1,.059,1.046.639.639,0,0,1-.171.3l-.012.244a6.3,6.3,0,0,0-.952.16,6.663,6.663,0,0,0-3.442,2.153c-.058-.043-.16-.123-.19-.148a.384.384,0,0,1-.313-.033,5.1,5.1,0,0,1-.71-.7,4.652,4.652,0,0,0-.347-.4c-.032-.03-.081-.071-.117-.1a.6.6,0,0,0-.367-.152.49.49,0,0,0-.42.2.65.65,0,0,0,.129.85l.008.006c.035.031.077.07.109.1a4.325,4.325,0,0,0,.437.28,4.945,4.945,0,0,1,.783.6.682.682,0,0,1,.106.333l.169.165a8.028,8.028,0,0,0-1.075,5.2l-.221.07a.77.77,0,0,1-.226.25,4.537,4.537,0,0,1-.944.17,4.028,4.028,0,0,0-.505.044c-.04.008-.1.024-.141.036h0l-.008,0a.609.609,0,0,0-.446.7.554.554,0,0,0,.68.421h.008l.01,0c.044-.01.1-.022.136-.033a4.185,4.185,0,0,0,.473-.2,4.6,4.6,0,0,1,.918-.3.552.552,0,0,1,.3.117l.23-.043a7.416,7.416,0,0,0,3.038,4.152l-.1.251a.62.62,0,0,1,.047.326,5.814,5.814,0,0,1-.477.938,4.885,4.885,0,0,0-.283.461c-.021.043-.047.11-.068.155a.64.64,0,0,0,.224.819.54.54,0,0,0,.727-.325h0s0,0,0,0c.02-.045.048-.1.065-.147a5.143,5.143,0,0,0,.152-.529,4.238,4.238,0,0,1,.408-1.036.413.413,0,0,1,.227-.121l.119-.237a6.255,6.255,0,0,0,3.958.312,6.409,6.409,0,0,0,.9-.3c.034.065.1.19.113.222a.412.412,0,0,1,.269.179,5.678,5.678,0,0,1,.361.97,5.163,5.163,0,0,0,.153.529c.017.043.045.1.065.148a.541.541,0,0,0,.728.326.64.64,0,0,0,.224-.819c-.02-.046-.048-.112-.069-.155a4.86,4.86,0,0,0-.283-.46,5.556,5.556,0,0,1-.467-.915.49.49,0,0,1,.041-.34,2.085,2.085,0,0,1-.088-.233,7.425,7.425,0,0,0,3.037-4.182c.068.012.187.035.225.043a.4.4,0,0,1,.295-.12,4.6,4.6,0,0,1,.919.3,4.2,4.2,0,0,0,.473.2c.038.011.093.022.136.032l.01,0h.008a.554.554,0,0,0,.68-.421.609.609,0,0,0-.446-.7c-.045-.011-.109-.03-.153-.039a4.04,4.04,0,0,0-.505-.044,4.531,4.531,0,0,1-.944-.17.624.624,0,0,1-.227-.25l-.213-.068a8.137,8.137,0,0,0-.11-2.692,7.845,7.845,0,0,0-.987-2.5l.187-.184a.485.485,0,0,1,.1-.327,4.946,4.946,0,0,1,.783-.6,4.337,4.337,0,0,0,.438-.28c.034-.027.08-.071.116-.1a.65.65,0,0,0,.129-.85.525.525,0,0,0-.786-.052c-.036.031-.085.072-.117.1a4.68,4.68,0,0,0-.348.4,5.119,5.119,0,0,1-.71.7.539.539,0,0,1-.32.038l-.2.156A6.689,6.689,0,0,0,119.979,277c0-.077-.011-.216-.012-.258a.46.46,0,0,1-.172-.288,5.9,5.9,0,0,1,.06-1.046,5.241,5.241,0,0,0,.072-.548c0-.046,0-.114,0-.164A.592.592,0,0,0,119.4,274.06Zm-.66,4.473-.156,3.025-.011.006a.486.486,0,0,1-.464.487.436.436,0,0,1-.274-.1l0,0-2.266-1.758a5.31,5.31,0,0,1,2.614-1.559A5.118,5.118,0,0,1,118.738,278.533Zm1.32,0a5.3,5.3,0,0,1,3.156,1.666l-2.251,1.747-.008,0a.438.438,0,0,1-.637-.094.534.534,0,0,1-.1-.294h0Zm-5.317,2.794,2.069,2.026,0,.012a.542.542,0,0,1,.059.7.463.463,0,0,1-.241.174l0,.01-2.652.838A6.4,6.4,0,0,1,114.741,281.327Zm9.3,0a6.344,6.344,0,0,1,.679,1.815,6.559,6.559,0,0,1,.115,1.933l-2.665-.84,0-.012a.53.53,0,0,1-.182-.874v-.006l2.058-2.016Zm-5.066,2.181h.848l.527.721-.189.9-.761.4-.763-.4-.189-.9Zm2.717,2.467a.426.426,0,0,1,.107.009l0-.006,2.743.508a5.885,5.885,0,0,1-2.2,3.02l-1.065-2.815,0,0a.53.53,0,0,1,.225-.659A.433.433,0,0,1,121.691,285.976Zm-4.607.012a.476.476,0,0,1,.446.4.548.548,0,0,1-.026.313l.008.011-1.054,2.787a5.9,5.9,0,0,1-2.189-3l2.719-.505,0,.006a.436.436,0,0,1,.091-.009Zm2.3,1.221a.426.426,0,0,1,.217.051.482.482,0,0,1,.208.217h.01l1.341,2.652a5.2,5.2,0,0,1-.536.164,5,5,0,0,1-2.973-.168l1.337-2.647h0A.463.463,0,0,1,119.381,287.209Z" transform="translate(89.579 -115.545)" fill="#020f1e" stroke="#020f1e" stroke-width="0.25"/>
      <path id="path3059-2" data-name="path3059" d="M6.956,0c-.218,0-.395.287-.395.641,0,.005,0,.011,0,.016,0,.048,0,.106,0,.148.005.2.036.36.054.548A7.837,7.837,0,0,1,6.659,2.4a.713.713,0,0,1-.128.3l-.009.244a3.661,3.661,0,0,0-.714.16,5.057,5.057,0,0,0-2.58,2.153c-.044-.043-.12-.123-.143-.148a.225.225,0,0,1-.235-.033,4.663,4.663,0,0,1-.532-.7,4.554,4.554,0,0,0-.26-.4c-.024-.03-.061-.071-.088-.1a.4.4,0,0,0-.275-.152.344.344,0,0,0-.315.2.809.809,0,0,0,.1.85l.006.006c.026.031.058.07.082.1a3.3,3.3,0,0,0,.327.28,4.078,4.078,0,0,1,.587.6.853.853,0,0,1,.079.333l.127.165a10.291,10.291,0,0,0-.806,5.2l-.165.07a.735.735,0,0,1-.17.25,2.651,2.651,0,0,1-.708.17,2.286,2.286,0,0,0-.379.044c-.03.008-.072.024-.105.036h0l-.006,0a.638.638,0,0,0-.334.7c.048.308.275.5.51.421H.525l.008,0c.033-.01.074-.022.1-.033a2.778,2.778,0,0,0,.354-.2,2.875,2.875,0,0,1,.688-.3c.088-.01.181.079.227.117l.172-.043a7.631,7.631,0,0,0,2.277,4.152l-.072.251a.81.81,0,0,1,.035.326,6.736,6.736,0,0,1-.357.938c-.072.158-.146.28-.212.461-.016.043-.036.11-.051.155a.769.769,0,0,0,.168.819c.2.138.44-.008.545-.325h0s0,0,0,0c.015-.045.036-.1.049-.147.056-.187.075-.348.114-.529a5.147,5.147,0,0,1,.306-1.036.3.3,0,0,1,.17-.121l.089-.237a3.61,3.61,0,0,0,2.967.312,4.026,4.026,0,0,0,.678-.3c.025.065.072.19.084.222a.317.317,0,0,1,.2.179,6.961,6.961,0,0,1,.271.97c.039.181.059.341.115.529.013.043.034.1.049.148.105.319.349.465.546.326a.769.769,0,0,0,.168-.819c-.015-.046-.036-.112-.051-.155-.065-.181-.139-.3-.212-.46a6.426,6.426,0,0,1-.35-.915.638.638,0,0,1,.03-.34c-.015-.025-.047-.166-.066-.233a7.671,7.671,0,0,0,2.276-4.182c.051.012.14.035.169.043.059-.057.114-.132.221-.12a2.875,2.875,0,0,1,.689.3,2.79,2.79,0,0,0,.354.2c.029.011.069.022.1.032l.008,0h.006c.234.074.462-.114.51-.421a.638.638,0,0,0-.334-.7c-.034-.011-.082-.03-.115-.039a2.292,2.292,0,0,0-.379-.044,2.647,2.647,0,0,1-.708-.17.6.6,0,0,1-.17-.25l-.159-.068a10.811,10.811,0,0,0-.083-2.692,9.517,9.517,0,0,0-.74-2.5l.14-.184a.605.605,0,0,1,.074-.327,4.079,4.079,0,0,1,.587-.6,3.3,3.3,0,0,0,.328-.28c.025-.027.06-.071.087-.1a.809.809,0,0,0,.1-.85.335.335,0,0,0-.589-.052c-.027.031-.064.072-.088.1a4.573,4.573,0,0,0-.261.4,4.684,4.684,0,0,1-.532.7.312.312,0,0,1-.24.038l-.15.156A4.793,4.793,0,0,0,7.391,2.945c0-.077-.008-.216-.009-.258A.5.5,0,0,1,7.253,2.4,7.848,7.848,0,0,1,7.3,1.353c.018-.188.049-.344.054-.548,0-.046,0-.114,0-.164C7.35.287,7.174,0,6.956,0ZM6.461,4.473,6.344,7.5,6.335,7.5c-.008.271-.16.487-.348.487a.281.281,0,0,1-.205-.1l0,0-1.7-1.758A3.959,3.959,0,0,1,6.04,4.579,2.993,2.993,0,0,1,6.461,4.473Zm.99,0A3.789,3.789,0,0,1,9.817,6.139L8.129,7.886l-.006,0a.281.281,0,0,1-.478-.094.658.658,0,0,1-.076-.294h0ZM3.465,7.267,5.016,9.293l0,.012a.682.682,0,0,1,.044.7.37.37,0,0,1-.181.174l0,.01-1.988.838A8.223,8.223,0,0,1,3.465,7.267Zm6.97,0a7.768,7.768,0,0,1,.509,1.815,8.709,8.709,0,0,1,.086,1.933l-2-.84,0-.012a.557.557,0,0,1-.247-.6.58.58,0,0,1,.111-.27V9.284Zm-3.8,2.181h.635l.395.721-.142.9-.57.4-.572-.4-.142-.9Zm2.037,2.467a.242.242,0,0,1,.08.009l0-.006,2.056.508a6.087,6.087,0,0,1-1.646,3.02l-.8-2.815,0,0a.626.626,0,0,1,.169-.659A.266.266,0,0,1,8.674,11.916Zm-3.453.012c.157,0,.3.162.334.4a.721.721,0,0,1-.019.313l.006.011-.79,2.787a6.092,6.092,0,0,1-1.641-3l2.039-.505,0,.006a.248.248,0,0,1,.068-.009Zm1.722,1.221a.257.257,0,0,1,.163.051.45.45,0,0,1,.156.217H7.27l1,2.652a3.218,3.218,0,0,1-.4.164,2.869,2.869,0,0,1-2.228-.168l1-2.647h0A.363.363,0,0,1,6.943,13.149Z" transform="matrix(0.998, -0.07, 0.07, 0.998, 279.348, 119.152)" fill="#020f1e" stroke="#020f1e" stroke-width="0.25"/>
    </g>
    <path id="Path_18212" data-name="Path 18212" d="M940.271,825.123l-15.533,9.4c-.9-1.2-1.339-1.789-2.217-2.96l15.562-9.358C938.95,823.355,939.386,823.942,940.271,825.123Zm4.716,6.3-15.49,9.458c-.93-1.244-1.392-1.863-2.306-3.082,6.2-3.775,9.3-5.658,15.509-9.429C943.606,829.575,944.063,830.189,944.988,831.42ZM942.151,842.7c-3.091,1.9-4.639,2.849-7.728,4.75q-1.192-1.589-2.38-3.18c3.094-1.9,4.641-2.843,7.734-4.742.943,1.26,1.418,1.9,2.375,3.172Z" transform="translate(-108.053 -147.547)" fill="#f5f5f9"/>
    <path id="Path_18219" data-name="Path 18219" d="M922.686,827.883c5.267-3.115,7.961-4.706,13.428-7.939,1.46,1.951,2.21,2.949,3.734,4.988-5.47,3.233-8.164,4.823-13.431,7.936-1.523-2.04-2.273-3.037-3.731-4.986Z" transform="translate(-108.095 -146.965)" fill="#fff"/>
    <g id="Group_462" data-name="Group 462" transform="matrix(0.995, 0.105, -0.105, 0.995, 678.11, 811.694)">
      <g id="Group_23" data-name="Group 23" transform="translate(0 0)" clip-path="url(#clip-path)">
        <path id="Path_118" data-name="Path 118" d="M1.374.065c.97-.2,1.878.082,2.03.633l3.02,8.8c.221.535-.373,1.165-1.328,1.409-.97.2-1.878-.082-2.03-.633L.046,1.474C-.175.939.419.308,1.374.065" transform="translate(14.742 0)" fill="#ffd93d"/>
        <path id="Path_119" data-name="Path 119" d="M4.832.267C8.067-.48,11.2.394,11.823,2.218S10.336,6.128,7.1,6.875.737,6.749.11,4.924,1.6,1.014,4.832.267" transform="translate(14.793 9.266)" fill="#ffd93d"/>
        <path id="Path_120" data-name="Path 120" d="M12.789.181c.7.333.753.986.119,1.512L2.985,9.565a2.585,2.585,0,0,1-2.3.37,1.3,1.3,0,0,1-.122-.054c-.7-.333-.754-.987-.119-1.512L10.365.5a2.583,2.583,0,0,1,2.3-.371c.043.017.085.035.124.055" transform="translate(22.824 0.994)" fill="#ffd93d"/>
        <path id="Path_121" data-name="Path 121" d="M.153.806c-.387.584-.015,1.164.86,1.341L14.485,4.616a2.478,2.478,0,0,0,2.2-.668.994.994,0,0,0,.069-.1c.387-.584.015-1.164-.86-1.341L2.421.038a2.478,2.478,0,0,0-2.2.669,1.064,1.064,0,0,0-.07.1" transform="translate(0 8.558)" fill="#ffd93d"/>
        <path id="Path_122" data-name="Path 122" d="M18.2.921c.029-.583-.724-.985-1.709-.913L1.723,1.446C.775,1.555,0,2.094,0,2.651c0,.014,0,.028,0,.042-.029.583.724.985,1.709.912L16.479,2.168c.947-.109,1.719-.648,1.723-1.2,0-.014,0-.028,0-.042" transform="translate(24.553 9.576)" fill="#ffd93d"/>
        <path id="Path_123" data-name="Path 123" d="M12.047,8.147C12.79,7.672,12.9,7,12.309,6.6L3.053.285a2.408,2.408,0,0,0-2.3.01Q.7.326.643.359C-.1.834-.214,1.5.381,1.9L9.635,8.223a2.409,2.409,0,0,0,2.3-.011c.04-.021.079-.042.117-.065" transform="translate(22.28 13.669)" fill="#ffd93d"/>
        <path id="Path_124" data-name="Path 124" d="M.155,6.776c-.4-.485-.01-1.15.877-1.51L14.542.17a2.128,2.128,0,0,1,2.236.291L16.8.5c.4.485.01,1.15-.876,1.51L2.417,7.1a2.129,2.129,0,0,1-2.236-.29L.155,6.776" transform="translate(0.023 13.556)" fill="#ffd93d"/>
        <path id="Path_125" data-name="Path 125" d="M1.269,11.53c-.936-.087-1.46-.61-1.205-1.2L3.938.973A2.107,2.107,0,0,1,5.9,0c.047,0,.094,0,.14,0,.936.087,1.46.61,1.205,1.2L3.375,10.562a2.107,2.107,0,0,1-1.965.973c-.047,0-.094,0-.141-.005" transform="translate(13.611 14.809)" fill="#ffd93d"/>
        <path id="Path_126" data-name="Path 126" d="M13.687,2.836C7.016,4.359,2.631,8.648,3.893,12.416S11.588,18,18.259,16.478s11.056-5.813,9.794-9.58l-.01-.03c-1.281-3.752-7.7-5.556-14.355-4.033m-.721-2.1c8.714-2.036,17.177.3,18.9,5.206S27.933,16.486,19.22,18.521s-17.177-.3-18.9-5.206L.3,13.277C-1.4,8.372,4.268,2.757,12.967.736" transform="translate(4.716 3.155)" fill="#ffd93d"/>
      </g>
    </g>
    <g id="Group_10967" data-name="Group 10967" transform="translate(435.102 336.805)">
      <path id="Path_18323" data-name="Path 18323" d="M882.854,326.812,761.971,290.231c-7.054-3.076-12.824-.559-12.824,5.594v76.754c0,6.151,5.772,13.7,12.824,16.779l37.518,13.882,22.921,29.993,22.918-10h0l37.525,12.643c7.052,3.076,12.821.558,12.824-5.593V343.592C895.675,337.44,889.906,329.888,882.854,326.812Z" transform="translate(-749.147 -288.918)" fill="#fff" stroke="#707070" stroke-width="1"/>
      <g id="Group_5_copy_2" data-name="Group 5 copy 2" transform="matrix(1, 0.017, -0.017, 1, 13.288, 35.202)">
        <path id="Shape_103-3" data-name="Shape 103" d="M18.486,43.588,17.229,38.6a8,8,0,0,1-3.494-1.194,15.275,15.275,0,0,1-3.877-3.451L8.708,37.712c-.245.651-.869.642-1.395-.02-.027-.035-.054-.07-.081-.108a3.085,3.085,0,0,1-.426-2.62L8.2,31.65a29.826,29.826,0,0,1-4.02-10.506l-2.913-.723a2.4,2.4,0,0,1-1.235-2.01c0-.024-.005-.047-.007-.07-.115-.978.266-1.661.865-1.553l2.893.707q-.025-.651-.014-1.295c0-.022,0-.043,0-.065A15.307,15.307,0,0,1,5.241,9.417L2.76,4.983a2.821,2.821,0,0,1-.189-2.555.833.833,0,0,1,.066-.1c.366-.46,1.015-.2,1.448.581l2.55,4.547A5.628,5.628,0,0,1,13.02,6.245l.1-5.017c0-.945.505-1.451,1.138-1.132a2.869,2.869,0,0,1,1.067,2.377l-.1,4.971a21.118,21.118,0,0,1,6.521,8.427l2.525-1.407c.477-.27,1.15.232,1.5,1.122.023.057.043.115.063.172.349,1.007.218,2.016-.3,2.333l-2.412,1.333a27.758,27.758,0,0,1,1.35,8.789q-.014.776-.079,1.5l2.7,2.507a3.223,3.223,0,0,1,.825,2.609c0,.02-.006.04-.009.059-.139.823-.749,1.053-1.36.514l-2.726-2.542c-.85,2.927-2.474,4.854-4.538,5.509L20.5,43.2c.267,1.025.032,1.926-.537,2.067a.581.581,0,0,1-.087.008h-.011C19.318,45.271,18.7,44.521,18.486,43.588Zm-4.833-9.862a6.245,6.245,0,0,0,2.58.929L14.6,28.177a3.386,3.386,0,0,1-.753-.337A5.905,5.905,0,0,1,12.2,26.306l-1.471,4.8A11.74,11.74,0,0,0,13.653,33.726Zm4.619.641a5.808,5.808,0,0,0,3.057-3.83l-4-3.73a2.928,2.928,0,0,1-.72.979Zm-8.988-5.31,1.882-4.489A11.289,11.289,0,0,1,10.49,22.7l-.056-.008-3.967-.985A22.869,22.869,0,0,0,9.284,29.057Zm12.6-1.678c.01-.182.018-.367.023-.555,0-.017,0-.034,0-.05a20.928,20.928,0,0,0-.858-6.2l-3.4,1.881a10.159,10.159,0,0,1,.151,1.131Zm-11.83-8.35a.908.908,0,0,1,.151.061,6.073,6.073,0,0,1,.12-.639,2.484,2.484,0,0,1-.193-.3L7.063,12.674a12.044,12.044,0,0,0-.981,4.771q-.007.305,0,.613Zm6.258-.129h0l3.384-1.886a16.313,16.313,0,0,0-4.543-5.936l-.128,6.167A7.9,7.9,0,0,1,16.308,18.9Zm-4.832-2.814c.054.1.1.2.147.307a1.977,1.977,0,0,1,1.193-.289l.128-6.24a4.27,4.27,0,0,0-4.489.838ZM8.916,37.42l2.494,2.321A22.594,22.594,0,0,1,8.916,37.42Z" transform="translate(43.159 16.123)" fill="#ffd93d"/>
        <path id="Shape_103-4" data-name="Shape 103" d="M67.515,75.762a16.947,16.947,0,0,1-3.9-.474C55.685,73.735,47.442,67.544,41,58.3A61.61,61.61,0,0,1,34.8,46.9l-.106-.238c-2.329-5.232-4.341-9.751-7.55-9.751a3.6,3.6,0,0,0-.409.024,2.789,2.789,0,0,0-1.318,2.27,6.615,6.615,0,0,1-1.948,3.885,4.3,4.3,0,0,1-3.02,1.206,7.359,7.359,0,0,1-4.585-1.93c-.535-.449-1.247-1.01-1.585-1.251a4.026,4.026,0,0,0-2.171-.738c-1.514,0-2.633,1.217-2.92,3.176a7.844,7.844,0,0,0-.068,1.469,7.452,7.452,0,0,1-.495,3.006A3.18,3.18,0,0,1,7.6,49.312a2.556,2.556,0,0,1-1.478.452,4.826,4.826,0,0,1-3.221-1.579A11.216,11.216,0,0,1,1.886,46.9,10.311,10.311,0,0,1,.06,40.1l.008-.069c.276-1.984,1.389-3.217,2.9-3.217a3.966,3.966,0,0,1,2.148.735,4.311,4.311,0,0,0,1.927.783,3.065,3.065,0,0,0,.352.021,2.567,2.567,0,0,0,1.858-.776c1.056-1.063,1.431-3.033,1-5.269a11.49,11.49,0,0,1-.1-4.281,6.54,6.54,0,0,1,.575-2.363,4.745,4.745,0,0,1,4.424-3.2,6.262,6.262,0,0,1,2.767.7,13.547,13.547,0,0,1,5.129,5.18c.393.435,1.782,1.856,3.156,1.856,1.326,0,2.261-1.292,2.777-3.839a18.048,18.048,0,0,0,1.067-4.734c.121-.76.258-1.622.413-2.516,1.1-6.258,2.161-9.06,4.744-12.493a15.551,15.551,0,0,1,6.973-5.357A16.139,16.139,0,0,1,48.576,0,23.309,23.309,0,0,1,59.512,3,40.669,40.669,0,0,1,70.36,11.7,56.733,56.733,0,0,1,80.6,27.579c.789,1.7,1.479,3.443,2.147,5.132,1.635,4.135,3.047,7.706,5.059,8.3a8.861,8.861,0,0,0,2.275.465c.974,0,1.511-.5,2.209-2.06.734-3.471,2.955-5.544,5.941-5.544a7.655,7.655,0,0,1,2.741.545,17.389,17.389,0,0,1,2.26,1.2,5.14,5.14,0,0,0,2.221,1.007,5.024,5.024,0,0,0,.8.067,4.5,4.5,0,0,0,.631-.044,4.06,4.06,0,0,0,2.523-2.059l.078-.152c.367-.706.367-.706.4-4.815l.008-1.02.012-1.866.515-.943a3.509,3.509,0,0,1,3.206-2.018,4.511,4.511,0,0,1,1.173.163l0-.01a5.454,5.454,0,0,1,.919.335,7.054,7.054,0,0,1,.77.433A11.224,11.224,0,0,1,121.2,34.94c-.369,2.281-1.79,3.7-3.709,3.7a4.477,4.477,0,0,1-1.193-.17c-.41-.126-1.244-.378-1.768-.53a4.419,4.419,0,0,0-1.166-.164,3.313,3.313,0,0,0-2.632,1.236,5.47,5.47,0,0,0-1.1,3.344,8.214,8.214,0,0,0,.438,3.015,15.231,15.231,0,0,1,.717,5.413,8.83,8.83,0,0,1-1.162,4.719,4.678,4.678,0,0,1-1.83,1.983,3.928,3.928,0,0,1-2.41.941c-.263.024-.534.036-.8.036a9.7,9.7,0,0,1-1.24-.082,14.655,14.655,0,0,1-4.39-2.117,23.015,23.015,0,0,1-3.8-4.341,9.422,9.422,0,0,0-2.1-2.719,3.544,3.544,0,0,0-2.138-1.015.6.6,0,0,1-.242-.076,5.531,5.531,0,0,0-3.9,2.789,19.048,19.048,0,0,0-1.032,4.355c-.808,5.442-2.255,9.658-4.423,12.889a16.469,16.469,0,0,1-8.672,6.648A13.666,13.666,0,0,1,67.515,75.762ZM50.341,7.851a12.514,12.514,0,0,0-10.132,5.007c-2.621,3.34-4.074,8.059-4.2,13.646a45.6,45.6,0,0,0,5.764,22.263c3.89,7.176,9.182,12.781,14.9,15.782a18.3,18.3,0,0,0,8.473,2.3,12.494,12.494,0,0,0,10.076-4.93c2.628-3.313,4.092-8.029,4.235-13.636A45.561,45.561,0,0,0,73.43,25.406C69.362,18.118,63.882,12.556,58,9.745A17.8,17.8,0,0,0,50.341,7.851ZM99.506,38.783a3.149,3.149,0,0,0-1.947.637,3.309,3.309,0,0,0-1.512,2.267,9.851,9.851,0,0,0,1.209,7.244,9.729,9.729,0,0,0,3.913,4.051,4.834,4.834,0,0,0,2.143.549c1.753,0,3.071-1.207,3.526-3.229.762-3.383-1.086-7.992-4.118-10.274A5.406,5.406,0,0,0,99.506,38.783Zm-95.949.672A1.662,1.662,0,0,0,2,40.736a2.921,2.921,0,0,0-.148,1.507,6,6,0,0,0,2.176,4.35,2.869,2.869,0,0,0,1.372.555l.076,0a1.5,1.5,0,0,0,.823-.237c1.153-.74,1.29-2.985.306-5a6.108,6.108,0,0,0-1.744-2.073,1.988,1.988,0,0,0-1.089-.376l-.068,0C3.64,39.457,3.6,39.455,3.556,39.455Zm12.624-12.62a2.611,2.611,0,0,0-1.765.671,5.044,5.044,0,0,0-1.293,4.042,9.656,9.656,0,0,0,.857,3.532,9.436,9.436,0,0,0,3.006,3.983A5.076,5.076,0,0,0,18,39.631a3.59,3.59,0,0,0,1.291.258,2.7,2.7,0,0,0,2.225-1.148,5.33,5.33,0,0,0,.905-3.119,10.671,10.671,0,0,0-3.207-7.4,5.758,5.758,0,0,0-1.766-1.132A3.52,3.52,0,0,0,16.181,26.835ZM112.444,31.8h0a6.513,6.513,0,0,0,2.958,3.566,2.791,2.791,0,0,0,1.2.295c.065,0,.13,0,.194-.009a2.1,2.1,0,0,0,.632-.128c1.578-.588,2.007-2.994.957-5.362a6.176,6.176,0,0,0-2.164-2.728,2.386,2.386,0,0,0-1.493-.637,2.647,2.647,0,0,0-.335-.022,2.178,2.178,0,0,0-1.819.949,2.824,2.824,0,0,0-.413,1.881,4.423,4.423,0,0,0,.29,2.2Z" transform="translate(0 0)" fill="#ffd93d"/>
      </g>
    </g>
    <g id="cube_1_" data-name="cube (1)" transform="translate(858.721 519.892)">
      <g id="Group_10968" data-name="Group 10968" transform="translate(0 45.304)">
        <path id="Path_20178" data-name="Path 20178" d="M0,39V63.162L22.652,76.753V39Z" transform="translate(0 -25.409)" fill="#fff" stroke="#020f1e" stroke-width="1"/>
        <path id="Path_20179" data-name="Path 20179" d="M15,39V76.753L37.652,63.162V39Z" transform="translate(7.652 -25.409)" fill="#ffd93d" stroke="#020f1e" stroke-linecap="round" stroke-linejoin="round" stroke-width="1"/>
        <path id="Path_20180" data-name="Path 20180" d="M22.652,30,0,43.591,22.652,57.182,45.3,43.591Z" transform="translate(0 -30)" fill="#fff" stroke="#020f1e" stroke-linecap="round" stroke-linejoin="round" stroke-width="1"/>
      </g>
      <path id="Path_20181" data-name="Path 20181" d="M17,9V33.162L39.652,46.753V9Z" transform="translate(8.672 4.591)" fill="#fff" stroke="#020f1e" stroke-linecap="round" stroke-linejoin="round" stroke-width="1"/>
      <path id="Path_20182" data-name="Path 20182" d="M32,9V46.753L54.652,33.162V9Z" transform="translate(16.324 4.591)" fill="#fff" stroke="#020f1e" stroke-linecap="round" stroke-linejoin="round" stroke-width="1"/>
      <path id="Path_20183" data-name="Path 20183" d="M39.652,0,17,13.591,39.652,27.182,62.3,13.591Z" transform="translate(8.672)" fill="#ffd93d" stroke="#020f1e" stroke-linecap="round" stroke-linejoin="round" stroke-width="1"/>
      <path id="Path_20186" data-name="Path 20186" d="M44.243,84.915V81.9M8,26.02V23m72.486,3.02V23" transform="translate(4.081 11.733)" fill="none" stroke="#020f1e" stroke-width="2"/>
      <path id="Path_46617" data-name="Path 46617" d="M0,39V63.162L22.652,76.753V39Z" transform="translate(52.175 19.895)" fill="#ffd93d" stroke="#020f1e" stroke-width="1"/>
      <path id="Path_46618" data-name="Path 46618" d="M15,39V76.753L37.652,63.162V39Z" transform="translate(59.827 19.895)" fill="#fff" stroke="#020f1e" stroke-linecap="round" stroke-linejoin="round" stroke-width="1"/>
      <path id="Path_46619" data-name="Path 46619" d="M22.652,30,0,43.591,22.652,57.182,45.3,43.591Z" transform="translate(52.175 15.304)" fill="#fff" stroke="#020f1e" stroke-linecap="round" stroke-linejoin="round" stroke-width="1"/>
    </g>
    <g id="cube_1_2" data-name="cube (1)" transform="translate(486.551 749.57)">
      <g id="Group_10968-2" data-name="Group 10968" transform="translate(0 45.304)">
        <path id="Path_20178-2" data-name="Path 20178" d="M0,39V63.162L22.652,76.753V39Z" transform="translate(0 -25.409)" fill="#fff" stroke="#020f1e" stroke-width="1"/>
        <path id="Path_20179-2" data-name="Path 20179" d="M15,39V76.753L37.652,63.162V39Z" transform="translate(7.652 -25.409)" fill="#ffd93d" stroke="#020f1e" stroke-linecap="round" stroke-linejoin="round" stroke-width="1"/>
        <path id="Path_20180-2" data-name="Path 20180" d="M22.652,30,0,43.591,22.652,57.182,45.3,43.591Z" transform="translate(0 -30)" fill="#fff" stroke="#020f1e" stroke-linecap="round" stroke-linejoin="round" stroke-width="1"/>
      </g>
      <path id="Path_20181-2" data-name="Path 20181" d="M17,9V33.162L39.652,46.753V9Z" transform="translate(8.672 4.591)" fill="#fff" stroke="#020f1e" stroke-linecap="round" stroke-linejoin="round" stroke-width="1"/>
      <path id="Path_20182-2" data-name="Path 20182" d="M32,9V46.753L54.652,33.162V9Z" transform="translate(16.324 4.591)" fill="#fff" stroke="#020f1e" stroke-linecap="round" stroke-linejoin="round" stroke-width="1"/>
      <path id="Path_20183-2" data-name="Path 20183" d="M39.652,0,17,13.591,39.652,27.182,62.3,13.591Z" transform="translate(8.672)" fill="#ffd93d" stroke="#020f1e" stroke-linecap="round" stroke-linejoin="round" stroke-width="1"/>
      <path id="Path_20186-2" data-name="Path 20186" d="M44.243,84.915V81.9M8,26.02V23m72.486,3.02V23" transform="translate(4.081 11.733)" fill="none" stroke="#020f1e" stroke-width="2"/>
      <path id="Path_46617-2" data-name="Path 46617" d="M0,39V63.162L22.652,76.753V39Z" transform="translate(52.175 19.895)" fill="#ffd93d" stroke="#020f1e" stroke-width="1"/>
      <path id="Path_46618-2" data-name="Path 46618" d="M15,39V76.753L37.652,63.162V39Z" transform="translate(59.827 19.895)" fill="#fff" stroke="#020f1e" stroke-linecap="round" stroke-linejoin="round" stroke-width="1"/>
      <path id="Path_46619-2" data-name="Path 46619" d="M22.652,30,0,43.591,22.652,57.182,45.3,43.591Z" transform="translate(52.175 15.304)" fill="#fff" stroke="#020f1e" stroke-linecap="round" stroke-linejoin="round" stroke-width="1"/>
    </g>
  </g>
</svg>
