<svg width="659" height="606" viewBox="0 0 659 606" fill="none" xmlns="http://www.w3.org/2000/svg">
<path d="M74.881 371.879L148.513 329.354V174.188L74.881 216.696V371.879Z" stroke="#FEF2EB"/>
<path d="M74.881 371.879L1.23999 329.354V174.188L74.881 216.696V371.879Z" stroke="#FEF2EB"/>
<path d="M74.881 216.701L1.23999 174.193L74.881 131.693L148.513 174.193L74.881 216.701Z" stroke="#FEF2EB"/>
<path d="M402.073 605.038L444.612 580.47V490.828L402.073 515.387V605.038Z" fill="#262423" stroke="#FEF2EB"/>
<path d="M402.074 605.038L359.53 580.47V490.828L402.074 515.387V605.038Z" stroke="#FEF2EB" stroke-linecap="round" stroke-linejoin="round"/>
<path d="M402.074 515.386L359.53 490.827L402.074 466.277L444.614 490.829L402.074 515.386Z" fill="#262423" stroke="#FEF2EB"/>
<path d="M118.659 275.911C118.787 273.626 119.45 271.402 120.595 269.419C121.74 267.436 123.334 265.75 125.25 264.496L170.394 238.432C174.017 236.34 176.983 238.051 176.983 242.232V284.124C176.855 286.41 176.192 288.634 175.048 290.616C173.903 292.599 172.309 294.285 170.394 295.538L125.25 321.603C121.624 323.695 118.659 321.985 118.659 317.803V275.911Z" fill="#262423" stroke="#FEF2EB"/>
<path d="M118.659 317.8V275.91C118.787 273.625 119.45 271.401 120.595 269.418C121.74 267.436 123.334 265.75 125.25 264.496L170.394 238.432C172.185 237.399 173.811 237.296 175.004 237.959L171.555 235.969V235.975C170.355 235.204 168.655 235.26 166.78 236.343L121.631 262.407C119.716 263.661 118.122 265.347 116.977 267.33C115.833 269.312 115.17 271.536 115.042 273.821V315.71C115.042 317.9 115.858 319.403 117.152 320.047L120.437 321.947C119.818 321.46 119.331 320.825 119.021 320.1C118.71 319.376 118.586 318.585 118.659 317.8Z" fill="#262423" stroke="#FEF2EB"/>
<path d="M151.797 263.924C151.444 264.071 151.133 264.303 150.893 264.6C150.652 264.897 150.489 265.249 150.419 265.624L144.019 296.014C143.853 296.799 144.202 297.309 144.798 297.155C145.151 297.009 145.462 296.777 145.702 296.48C145.943 296.183 146.106 295.831 146.176 295.455L152.576 265.065C152.74 264.281 152.392 263.77 151.797 263.924ZM142.97 274.51C142.621 274.124 141.923 274.376 141.415 275.076L130.692 289.786C130.398 290.175 130.228 290.644 130.207 291.13C130.207 291.555 130.388 291.85 130.692 291.917L141.415 294.243C141.923 294.353 142.62 293.801 142.972 293.011C143.324 292.221 143.194 291.489 142.685 291.379L133.302 289.342L142.685 276.472C143.194 275.775 143.322 274.895 142.97 274.51ZM166.679 269.01L155.955 266.68C155.447 266.569 154.747 267.12 154.398 267.911C154.049 268.702 154.175 269.431 154.684 269.542L164.066 271.577L154.684 284.448C154.176 285.148 154.046 286.026 154.398 286.411C154.75 286.796 155.445 286.543 155.955 285.845L166.677 271.137C166.972 270.748 167.141 270.278 167.163 269.79C167.166 269.366 166.985 269.072 166.68 269.008L166.679 269.01Z" fill="#FFF0B3"/>
<path d="M55.844 158.867L55.844 158.869L55.8676 167.743C55.6801 167.535 55.4765 167.333 55.2664 167.141C54.5305 166.469 53.6718 165.873 53.0252 165.479L52.9985 155.744C53.5028 156.082 54.0671 156.503 54.5635 156.957C54.9479 157.308 55.2777 157.666 55.5081 158.009C55.7428 158.358 55.844 158.646 55.844 158.867Z" stroke="#FEF2EB"/>
<path d="M97.397 165.761L97.366 154.835C96.066 155.581 93.466 157.428 93.473 158.886L93.504 169.811C93.499 168.35 96.1 166.51 97.397 165.761Z" stroke="#FEF2EB"/>
<path d="M66.826 171.425C71.321 168.831 78.568 168.831 83.032 171.425C85.248 172.712 86.357 174.397 86.363 176.086L86.33 165.16C86.323 163.473 85.215 161.787 82.999 160.499C78.536 157.907 71.287 157.907 66.799 160.499C64.541 161.799 63.4131 163.515 63.4191 165.221L63.45 176.146C63.443 174.435 64.571 172.725 66.826 171.425Z" stroke="#FEF2EB"/>
<path d="M56.936 178.182L52.379 175.533L52.412 186.458L56.969 189.107L56.936 178.182Z" stroke="#FEF2EB"/>
<path d="M97.28 186.455L97.251 175.53L92.661 178.179L92.693 189.104L97.28 186.455Z" stroke="#FEF2EB"/>
<path d="M65.422 187.076C66.3067 187.332 67.2013 187.546 68.106 187.72C70.958 188.149 71.57 191.256 71.574 192.562L71.543 181.636C71.543 180.33 70.926 177.224 68.077 176.796C67.173 176.621 66.2777 176.406 65.391 176.152C62.822 175.277 58.5 177.272 56.936 178.177L56.968 189.101C58.531 188.197 62.852 186.2 65.422 187.076Z" stroke="#FEF2EB"/>
<path d="M80.273 188.167C80.6747 187.939 81.1158 187.789 81.573 187.724C82.477 187.549 83.372 187.335 84.258 187.082C86.842 186.203 91.143 188.2 92.696 189.105L92.665 178.181C91.114 177.281 86.812 175.281 84.23 176.157C83.344 176.409 82.4487 176.624 81.544 176.8C81.0869 176.866 80.6461 177.015 80.244 177.242C78.484 178.26 78.111 180.583 78.011 181.69L78.042 192.614C78.139 191.508 78.511 189.181 80.273 188.167Z" stroke="#FEF2EB"/>
<path d="M55.904 170.64C57.404 172.13 53.943 174.628 52.38 175.53L56.937 178.179C58.5 177.274 62.823 175.279 65.392 176.154C66.2774 176.408 67.1724 176.622 68.077 176.798C70.961 177.23 71.555 180.413 71.544 181.688H78.008C78.108 180.582 78.481 178.259 80.241 177.24C80.6431 177.013 81.084 176.864 81.541 176.798C82.445 176.622 83.34 176.408 84.226 176.155C86.808 175.279 91.109 177.275 92.661 178.179L97.251 175.53C95.694 174.63 92.259 172.13 93.778 170.639C94.1985 170.155 94.5747 169.634 94.902 169.082C95.0782 168.757 95.3501 168.493 95.681 168.327C97.463 167.296 101.535 167.054 103.351 167.057L103.373 163.311C101.013 163.404 95.685 162.958 94.946 161.283C94.6267 160.733 94.2586 160.212 93.846 159.727C92.346 158.235 95.807 155.738 97.37 154.836L92.813 152.188C91.25 153.088 86.925 155.088 84.36 154.212C83.4847 153.963 82.5903 153.749 81.677 153.569C78.788 153.133 78.195 149.953 78.202 148.68H71.733C71.733 149.736 71.303 152.095 69.517 153.125C69.1133 153.355 68.6699 153.506 68.21 153.571C67.295 153.75 66.394 153.963 65.521 154.215C62.541 154.857 58.642 153.092 57.088 152.19L52.501 154.838C54.055 155.738 57.487 158.238 55.968 159.727C55.5475 160.212 55.1722 160.733 54.847 161.286C54.6705 161.612 54.3987 161.876 54.068 162.042C52.283 163.07 48.213 163.313 46.386 163.313L46.375 167.059C48.575 167.059 54.064 167.41 54.803 169.083C55.1214 169.636 55.4914 170.158 55.908 170.641L55.904 170.64ZM66.797 160.492C71.288 157.9 78.537 157.9 82.997 160.492C87.457 163.084 87.436 167.285 82.945 169.88C78.454 172.475 71.204 172.468 66.745 169.88C62.286 167.292 62.31 163.086 66.797 160.492Z" fill="#262423" stroke="#FEF2EB"/>
<path d="M52.379 175.529C53.942 174.629 57.405 172.129 55.903 170.639C55.4863 170.156 55.1164 169.635 54.798 169.082C54.059 167.408 48.57 167.053 46.37 167.057L46.402 177.979C48.4144 177.973 50.4211 178.19 52.386 178.624L52.379 175.529Z" stroke="#FEF2EB"/>
<path d="M78.038 192.612L78.007 181.688H71.544L71.575 192.614L78.038 192.612Z" stroke="#FEF2EB"/>
<path d="M103.383 177.979L103.351 167.057C101.534 167.057 97.462 167.296 95.681 168.327C95.3501 168.493 95.0782 168.757 94.902 169.082C94.5747 169.634 94.1985 170.156 93.778 170.64C92.259 172.13 95.694 174.629 97.251 175.531L97.259 178.67C99.2671 178.206 101.322 177.974 103.383 177.979Z" stroke="#FEF2EB"/>
<path d="M167.413 464.654L185.97 453.938V432.181L167.413 442.893V464.654Z" stroke="#FEF2EB" stroke-linecap="round" stroke-linejoin="round"/>
<path d="M167.413 464.654L148.855 453.938V432.181L167.413 442.893V464.654Z" stroke="#FEF2EB" stroke-linecap="round" stroke-linejoin="round"/>
<path d="M167.413 442.893L148.855 432.181L167.413 421.473L185.97 432.181L167.413 442.893Z" fill="#262423" stroke="#FEF2EB" stroke-linecap="round" stroke-linejoin="round"/>
<path d="M290.467 380.609C349.55 414.721 445.347 414.719 504.429 380.609C533.969 363.553 548.739 341.198 548.741 318.844V338.6C548.741 360.955 533.97 383.308 504.429 400.363C445.346 434.475 349.549 434.476 290.467 400.363C260.926 383.308 246.153 360.953 246.155 338.598V318.843C246.153 341.197 260.926 363.552 290.467 380.609Z" stroke="#FEF2EB"/>
<path d="M548.741 318.843C548.741 296.489 533.972 274.134 504.43 257.077C445.347 222.967 349.551 222.967 290.467 257.077C260.927 274.134 246.155 296.488 246.155 318.841C246.155 341.194 260.926 363.55 290.467 380.607C349.55 414.719 445.346 414.717 504.429 380.607C533.969 363.551 548.74 341.192 548.741 318.843Z" stroke="#FEF2EB"/>
<path d="M304.019 303.758C308.676 275.758 321.919 198.881 321.919 198.881C321.892 207.468 397.511 243.921 438.847 220.054C464.389 205.309 478.747 187.586 479.799 172.585V267.867L479.748 267.88C480.81 274.98 477.727 276.418 480.841 285.26C488.886 292.984 493.371 301.592 494.316 310.309L494.337 310.341L494.321 310.35C494.453 311.498 494.523 312.653 494.53 313.808C494.53 328 485.148 342.191 466.395 353.018C428.882 374.676 368.065 374.676 330.551 353.018C311.796 342.191 302.418 327.996 302.418 313.803C302.43 310.393 302.97 307.004 304.019 303.758Z" fill="#262423" stroke="#FEF2EB"/>
<path d="M311.863 257.48C316.846 228.371 321.919 198.88 321.919 198.88C321.892 207.48 397.511 243.92 438.847 220.053C458.78 208.553 471.787 195.253 477.09 182.832L479.799 183.087V234.824L397.327 305.471C354.604 257.48 333.111 290.037 311.863 257.48Z" fill="#262423" stroke="#FEF2EB"/>
<path d="M541.963 172.581C542.079 148.131 537.627 123.874 528.835 101.058C509.645 52.1494 345.347 51.8534 326.076 100.407C317.113 123.409 312.573 147.896 312.695 172.581C312.695 211.425 353.072 234.923 370.782 261.999C391.788 294.121 392.964 326.373 427.323 326.373C490.636 326.373 541.963 257.515 541.963 172.581Z" fill="#262423" stroke="#FEF2EB"/>
<path d="M345.933 80.5084C353.238 80.1334 361.022 82.6634 369.119 89.5824C411.235 125.563 355.626 201.208 384.249 233.1C412.666 264.764 416.921 321.368 434.234 325.9C434.143 325.906 434.052 325.991 433.96 326.109C431.76 326.278 429.55 326.372 427.322 326.372C392.962 326.372 391.787 294.121 370.781 261.998C353.073 234.927 312.694 211.427 312.694 172.585C312.572 147.9 317.111 123.413 326.073 100.411C329.226 92.4654 336.281 85.8374 345.931 80.5114L345.933 80.5084Z" fill="#262423" stroke="#FEF2EB"/>
<path d="M420.076 201.933C450.841 203.084 482.276 196.869 505.783 183.292C527.438 170.792 536.11 154.399 538.283 138.007V137.984L538.669 137.99C542.317 158.665 542.666 179.787 539.704 200.571C536.412 214.205 525.818 227.365 507.654 237.851C492.532 246.581 474.201 252.339 454.867 255.121C417.454 260.501 399.407 237.515 397.083 220.721C396.448 216.109 394.144 200.953 420.077 201.932L420.076 201.933Z" fill="#FFE682" stroke="#262423"/>
<path d="M466.259 213.431C462.549 205.921 454.312 204.066 447.759 209.271C441.192 214.5 438.92 224.803 442.578 232.297C446.255 239.784 454.527 241.654 461.078 236.44C467.66 231.24 469.918 220.917 466.258 213.431H466.259Z" fill="#262423" stroke="#262423"/>
<path d="M540.637 172.722C538.063 165.571 532.047 164.475 527.102 170.275C522.157 176.075 520.268 186.558 522.856 193.727C525.412 200.886 531.446 201.981 536.409 196.191C541.305 190.386 543.21 179.9 540.637 172.722Z" fill="#262423" stroke="#262423"/>
<path d="M531.463 114.556C531.463 99.1624 521.292 83.7684 500.949 72.0234C460.261 48.5304 394.29 48.5304 353.6 72.0234C333.263 83.7694 323.093 99.1624 323.093 114.556C323.093 129.95 333.263 145.347 353.604 157.093C394.294 180.583 460.265 180.583 500.954 157.093C521.297 145.347 531.466 129.952 531.466 114.557L531.463 114.556Z" fill="#262423" stroke="#FEF2EB"/>
<path d="M523.187 114.557C523.187 100.387 513.825 86.2174 495.099 75.4064C457.645 53.7824 396.922 53.7824 359.469 75.4064C340.738 86.2174 331.377 100.387 331.377 114.556C331.377 128.725 340.738 142.899 359.464 153.711C396.917 175.333 457.641 175.333 495.095 153.711C513.822 142.9 523.182 128.729 523.182 114.558L523.187 114.557Z" fill="#262423" stroke="#FEF2EB"/>
<path d="M341.572 366.542C340.291 365.892 338.875 365.553 337.438 365.553C336.001 365.553 334.585 365.892 333.304 366.542C331.019 367.859 331.019 369.996 333.304 371.315C334.585 371.965 336.001 372.304 337.438 372.304C338.875 372.304 340.291 371.965 341.572 371.315C343.859 369.996 343.859 367.859 341.572 366.542ZM360.148 340.284C360.06 338.678 359.595 337.115 358.791 335.722C357.987 334.329 356.865 333.144 355.518 332.265C352.963 330.791 350.889 331.987 350.889 334.939C350.976 336.546 351.44 338.109 352.245 339.502C353.049 340.894 354.17 342.078 355.518 342.956C358.075 344.433 360.148 343.236 360.148 340.284Z" fill="#262423"/>
<path d="M337.438 371.155C338.029 371.155 338.595 370.921 339.013 370.503C339.43 370.085 339.665 369.519 339.665 368.928V349.335L356.63 339.535C356.89 339.393 357.119 339.2 357.304 338.967C357.488 338.735 357.624 338.468 357.704 338.183C357.784 337.897 357.806 337.598 357.769 337.304C357.732 337.01 357.636 336.726 357.488 336.469C357.34 336.212 357.141 335.987 356.905 335.808C356.669 335.629 356.399 335.499 356.112 335.425C355.824 335.352 355.525 335.336 355.232 335.38C354.938 335.423 354.657 335.525 354.403 335.679L336.326 346.122C335.988 346.318 335.707 346.599 335.511 346.937C335.316 347.276 335.213 347.66 335.213 348.05V368.928C335.213 369.519 335.448 370.085 335.865 370.503C336.283 370.921 336.849 371.155 337.44 371.155H337.438Z" fill="#262423" stroke="#FEF2EB"/>
<path d="M325.744 357.404C324.463 356.754 323.047 356.415 321.61 356.415C320.173 356.415 318.757 356.754 317.476 357.404C315.191 358.722 315.191 360.859 317.476 362.175C318.757 362.826 320.173 363.165 321.61 363.165C323.047 363.165 324.463 362.826 325.744 362.175C328.027 360.859 328.027 358.722 325.744 357.404ZM344.32 331.144C344.232 329.538 343.767 327.976 342.963 326.583C342.159 325.19 341.038 324.006 339.691 323.127C337.135 321.652 335.064 322.849 335.064 325.8C335.15 327.406 335.615 328.969 336.419 330.362C337.223 331.755 338.344 332.939 339.691 333.817C342.248 335.294 344.32 334.098 344.32 331.145V331.144Z" fill="#262423"/>
<path d="M321.61 362.016C322.201 362.016 322.767 361.782 323.185 361.364C323.602 360.946 323.837 360.38 323.837 359.789V340.194L340.802 330.394C341.062 330.252 341.291 330.059 341.476 329.826C341.66 329.594 341.796 329.327 341.876 329.042C341.956 328.756 341.978 328.457 341.941 328.163C341.904 327.869 341.808 327.585 341.66 327.328C341.512 327.071 341.313 326.846 341.077 326.667C340.841 326.488 340.571 326.358 340.284 326.284C339.996 326.211 339.697 326.195 339.404 326.239C339.11 326.282 338.828 326.384 338.575 326.538L320.494 336.983C320.156 337.179 319.875 337.46 319.679 337.798C319.484 338.137 319.381 338.521 319.381 338.911V359.789C319.381 360.38 319.616 360.946 320.033 361.364C320.451 361.782 321.017 362.016 321.608 362.016H321.61Z" fill="#262423" stroke="#FEF2EB"/>
<path d="M440.91 122.428C440.98 122.305 441.074 122.197 441.187 122.11C441.299 122.023 441.427 121.959 441.564 121.922C441.701 121.885 441.844 121.875 441.985 121.894C442.126 121.912 442.262 121.958 442.385 122.028L496.145 153.067C495.792 153.278 495.457 153.496 495.095 153.705C494.733 153.914 494.353 154.105 493.986 154.314L441.31 123.903C441.187 123.833 441.079 123.738 440.993 123.626C440.907 123.513 440.843 123.385 440.807 123.248C440.77 123.111 440.761 122.968 440.779 122.827C440.798 122.687 440.844 122.551 440.915 122.428H440.91ZM351.879 98.5284L373.079 110.766C374.137 110.334 375.275 110.135 376.417 110.184C377.558 110.232 378.676 110.527 379.693 111.047C380.228 111.268 380.686 111.643 381.008 112.125C381.33 112.606 381.501 113.172 381.501 113.751C381.501 114.33 381.33 114.896 381.008 115.377C380.686 115.858 380.228 116.233 379.693 116.454C378.579 117.029 377.343 117.329 376.089 117.329C374.835 117.329 373.599 117.029 372.485 116.454C371.971 116.206 371.532 115.825 371.214 115.35C370.896 114.875 370.711 114.325 370.677 113.754C370.686 113.188 370.873 112.639 371.211 112.184L351.05 100.545H334.51C334.837 99.812 335.187 99.0924 335.558 98.3864H351.34C351.529 98.3864 351.715 98.4361 351.879 98.5304V98.5284ZM373.563 114.584C374.347 114.974 375.211 115.177 376.086 115.177C376.962 115.177 377.826 114.974 378.61 114.584C379.06 114.324 379.34 114.005 379.34 113.751C379.34 113.497 379.06 113.177 378.611 112.917C377.827 112.528 376.963 112.325 376.087 112.325C375.211 112.325 374.347 112.528 373.563 112.917C373.112 113.177 372.833 113.496 372.833 113.75C372.833 114.004 373.111 114.325 373.563 114.584ZM400.291 100.142C400.414 100.213 400.522 100.308 400.608 100.42C400.694 100.533 400.758 100.661 400.794 100.798C400.831 100.935 400.84 101.078 400.822 101.219C400.803 101.359 400.757 101.495 400.686 101.618C400.616 101.741 400.521 101.848 400.409 101.935C400.296 102.021 400.168 102.084 400.031 102.121C399.894 102.158 399.751 102.167 399.61 102.149C399.469 102.13 399.334 102.084 399.211 102.013L376.646 88.9844C375.588 89.4169 374.449 89.6157 373.307 89.5672C372.165 89.5187 371.047 89.2241 370.03 88.7034C369.495 88.4822 369.037 88.1071 368.716 87.6258C368.394 87.1444 368.222 86.5784 368.222 85.9994C368.222 85.4204 368.394 84.8543 368.716 84.373C369.037 83.8916 369.495 83.5166 370.03 83.2954C371.144 82.7207 372.38 82.4208 373.634 82.4208C374.888 82.4208 376.124 82.7207 377.238 83.2954C377.752 83.5444 378.19 83.9257 378.508 84.4002C378.826 84.8747 379.012 85.4253 379.047 85.9954C379.038 86.5617 378.851 87.1108 378.513 87.5654L400.291 100.142ZM376.158 85.1654C375.374 84.7759 374.51 84.5732 373.634 84.5732C372.758 84.5732 371.894 84.7759 371.11 85.1654C370.66 85.4254 370.382 85.7444 370.382 85.9984C370.382 86.2524 370.66 86.5734 371.11 86.8324C371.894 87.222 372.758 87.4247 373.634 87.4247C374.51 87.4247 375.374 87.222 376.158 86.8324C376.607 86.5724 376.887 86.2534 376.887 85.9994C376.887 85.7454 376.61 85.4274 376.159 85.1674L376.158 85.1654ZM420.482 100.007C420.411 100.13 420.317 100.238 420.204 100.324C420.092 100.411 419.963 100.474 419.826 100.511C419.689 100.547 419.546 100.557 419.406 100.538C419.265 100.52 419.13 100.473 419.007 100.402L392.891 85.3234C392.727 85.2289 392.59 85.0927 392.495 84.9286C392.4 84.7644 392.35 84.5781 392.35 84.3884V62.9934C393.067 62.8314 393.787 62.6747 394.51 62.5234V83.7704L420.088 98.5374C420.211 98.6084 420.318 98.7029 420.405 98.8156C420.491 98.9282 420.554 99.0568 420.591 99.1939C420.627 99.331 420.636 99.4739 420.617 99.6146C420.599 99.7552 420.552 99.8907 420.481 100.013L420.482 100.007ZM425.964 93.4474L399.848 78.3684C399.684 78.2739 399.547 78.1377 399.452 77.9735C399.357 77.8094 399.307 77.623 399.307 77.4334V70.8194C399.307 70.6297 399.357 70.4434 399.452 70.2792C399.547 70.1151 399.684 69.9789 399.848 69.8844L417.917 59.4524C419.468 59.3644 421.022 59.2977 422.578 59.2524L401.468 71.4414V76.8084L427.046 91.5764C427.294 91.7196 427.475 91.9555 427.549 92.2322C427.623 92.5089 427.585 92.8038 427.441 93.0519C427.371 93.1747 427.276 93.2824 427.164 93.3688C427.051 93.4551 426.923 93.5185 426.786 93.5552C426.509 93.6294 426.214 93.5906 425.966 93.4474H425.964ZM379.525 132.286L362.483 122.446C361.425 122.879 360.287 123.078 359.145 123.029C358.004 122.981 356.886 122.686 355.869 122.165C355.334 121.944 354.877 121.569 354.555 121.088C354.234 120.607 354.062 120.041 354.062 119.462C354.062 118.883 354.234 118.317 354.555 117.836C354.877 117.355 355.334 116.98 355.869 116.758C356.983 116.184 358.219 115.884 359.472 115.884C360.726 115.884 361.962 116.184 363.076 116.758C363.591 117.007 364.031 117.389 364.349 117.865C364.667 118.34 364.853 118.892 364.887 119.463C364.877 120.03 364.689 120.579 364.35 121.033L380.064 130.105L420.586 106.705C420.709 106.634 420.844 106.588 420.985 106.57C421.126 106.551 421.269 106.561 421.406 106.598C421.543 106.634 421.671 106.698 421.784 106.784C421.896 106.87 421.991 106.978 422.061 107.101C422.132 107.224 422.178 107.359 422.197 107.5C422.215 107.641 422.206 107.784 422.169 107.921C422.133 108.058 422.069 108.186 421.983 108.299C421.897 108.411 421.789 108.505 421.666 108.576L380.604 132.283C380.44 132.379 380.254 132.429 380.065 132.43C379.876 132.431 379.689 132.382 379.525 132.288V132.286ZM361.997 118.628C361.213 118.239 360.349 118.036 359.473 118.036C358.597 118.036 357.733 118.239 356.949 118.628C356.498 118.888 356.22 119.207 356.22 119.462C356.22 119.717 356.498 120.036 356.949 120.296C357.733 120.686 358.597 120.888 359.472 120.888C360.348 120.888 361.212 120.686 361.996 120.296C362.446 120.036 362.726 119.717 362.726 119.462C362.726 119.207 362.446 118.888 361.997 118.628ZM375.21 101.393C375.139 101.516 375.045 101.624 374.932 101.71C374.82 101.797 374.691 101.86 374.554 101.897C374.417 101.933 374.275 101.943 374.134 101.924C373.993 101.906 373.858 101.859 373.735 101.788L345.606 85.5474C346.152 85.0354 346.693 84.5204 347.272 84.0164L374.816 99.9164C374.939 99.9868 375.047 100.081 375.134 100.193C375.221 100.305 375.285 100.434 375.322 100.571C375.359 100.708 375.369 100.851 375.351 100.992C375.333 101.132 375.287 101.268 375.216 101.391L375.21 101.393ZM424.31 160.575C425.424 160.001 426.66 159.701 427.914 159.701C429.168 159.701 430.404 160.001 431.518 160.575C432.145 160.923 432.659 161.443 432.997 162.075C436.206 161.95 439.375 161.718 442.506 161.38L432.732 155.737C432.484 155.594 432.303 155.358 432.229 155.082C432.154 154.805 432.193 154.51 432.336 154.262C432.48 154.014 432.716 153.833 432.992 153.759C433.269 153.684 433.564 153.723 433.812 153.866L446.067 160.942C455.897 159.696 465.536 157.244 474.767 153.642L433.195 129.637C433.072 129.566 432.964 129.472 432.878 129.36C432.792 129.247 432.728 129.119 432.692 128.982C432.655 128.845 432.646 128.702 432.664 128.561C432.683 128.42 432.729 128.285 432.799 128.162C432.87 128.039 432.965 127.931 433.077 127.845C433.19 127.759 433.318 127.695 433.455 127.659C433.592 127.622 433.735 127.612 433.876 127.631C434.016 127.649 434.152 127.695 434.275 127.766L477.784 152.893C477.958 152.994 478.1 153.141 478.194 153.317C478.289 153.494 478.333 153.693 478.321 153.894C478.309 154.094 478.241 154.286 478.126 154.45C478.01 154.614 477.851 154.743 477.667 154.821C467.597 158.986 457.011 161.774 446.196 163.107C446.126 163.124 446.055 163.134 445.983 163.137C441.712 163.692 437.423 164.055 433.116 164.225C432.796 164.974 432.232 165.592 431.516 165.978C430.402 166.553 429.166 166.853 427.912 166.853C426.658 166.853 425.422 166.553 424.308 165.978C423.773 165.757 423.316 165.382 422.994 164.901C422.673 164.419 422.501 163.854 422.501 163.275C422.501 162.696 422.673 162.13 422.994 161.649C423.316 161.168 423.773 160.793 424.308 160.571L424.31 160.575ZM425.39 164.112C426.174 164.502 427.038 164.704 427.914 164.704C428.79 164.704 429.654 164.502 430.438 164.112C430.889 163.852 431.168 163.533 431.168 163.279C431.168 163.025 430.888 162.703 430.438 162.445C429.654 162.055 428.79 161.853 427.914 161.853C427.038 161.853 426.174 162.055 425.39 162.445C424.94 162.705 424.662 163.024 424.662 163.278C424.662 163.532 424.936 163.851 425.385 164.11L425.39 164.112ZM374.802 150.318C375.819 149.798 376.937 149.503 378.079 149.455C379.22 149.406 380.359 149.605 381.417 150.037L418.928 128.38C419.176 128.237 419.471 128.198 419.748 128.273C420.024 128.347 420.26 128.528 420.404 128.776C420.547 129.024 420.585 129.319 420.511 129.596C420.437 129.872 420.256 130.108 420.008 130.251L400.529 141.493V148.308C401.414 148.408 402.272 148.68 403.053 149.108C403.588 149.329 404.046 149.704 404.368 150.186C404.691 150.667 404.863 151.233 404.863 151.812C404.863 152.392 404.691 152.958 404.368 153.439C404.046 153.921 403.588 154.296 403.053 154.516C401.939 155.091 400.703 155.391 399.449 155.391C398.195 155.391 396.959 155.091 395.845 154.516C395.31 154.295 394.853 153.92 394.531 153.439C394.21 152.958 394.038 152.392 394.038 151.813C394.038 151.234 394.21 150.668 394.531 150.187C394.853 149.706 395.31 149.331 395.845 149.109C396.626 148.68 397.483 148.409 398.369 148.309V142.741L383.28 151.454C383.618 151.909 383.805 152.458 383.814 153.024C383.78 153.595 383.594 154.145 383.276 154.62C382.958 155.094 382.519 155.476 382.005 155.724C380.891 156.299 379.655 156.599 378.401 156.599C377.147 156.599 375.911 156.299 374.797 155.724C374.262 155.503 373.804 155.128 373.483 154.647C373.161 154.165 372.989 153.599 372.989 153.02C372.989 152.441 373.161 151.875 373.483 151.394C373.804 150.913 374.262 150.538 374.797 150.316L374.802 150.318ZM396.929 150.979C396.48 151.24 396.202 151.558 396.202 151.813C396.202 152.068 396.48 152.388 396.929 152.647C397.713 153.037 398.577 153.239 399.453 153.239C400.329 153.239 401.193 153.037 401.977 152.647C402.427 152.386 402.707 152.067 402.707 151.813C402.707 151.559 402.427 151.239 401.977 150.98C401.205 150.575 400.342 150.371 399.47 150.388C399.464 150.388 399.459 150.388 399.453 150.388C399.447 150.388 399.441 150.388 399.435 150.388C398.563 150.372 397.7 150.575 396.928 150.98L396.929 150.979ZM375.882 153.857C376.666 154.247 377.53 154.449 378.405 154.449C379.281 154.449 380.145 154.247 380.929 153.857C381.379 153.597 381.659 153.277 381.659 153.023C381.659 152.769 381.379 152.449 380.93 152.189C380.146 151.8 379.282 151.597 378.406 151.597C377.53 151.597 376.666 151.8 375.882 152.189C375.433 152.449 375.155 152.768 375.155 153.022C375.155 153.276 375.428 153.593 375.877 153.855L375.882 153.857ZM489.527 134.864H478.628C478.438 134.864 478.252 134.814 478.087 134.719L449.83 118.401C449.582 118.258 449.401 118.023 449.327 117.746C449.252 117.47 449.291 117.175 449.434 116.927C449.577 116.679 449.813 116.498 450.089 116.424C450.365 116.35 450.66 116.388 450.908 116.531L478.916 132.701H489.231L501.456 125.643C501.118 125.19 500.931 124.641 500.922 124.075C500.956 123.505 501.141 122.955 501.459 122.48C501.777 122.006 502.215 121.624 502.729 121.375C503.843 120.801 505.079 120.501 506.333 120.501C507.587 120.501 508.823 120.801 509.937 121.375C510.473 121.596 510.93 121.971 511.253 122.452C511.575 122.933 511.747 123.5 511.747 124.079C511.747 124.658 511.575 125.224 511.253 125.706C510.93 126.187 510.473 126.562 509.937 126.782C508.92 127.303 507.802 127.598 506.66 127.646C505.518 127.695 504.38 127.496 503.322 127.063L490.061 134.72C489.897 134.815 489.711 134.865 489.521 134.865L489.527 134.864ZM503.816 124.911C504.6 125.301 505.464 125.503 506.34 125.503C507.216 125.503 508.08 125.301 508.864 124.911C509.314 124.651 509.594 124.332 509.594 124.078C509.594 123.824 509.314 123.503 508.864 123.244C508.08 122.855 507.216 122.652 506.341 122.652C505.465 122.652 504.601 122.855 503.817 123.244C503.367 123.504 503.089 123.823 503.089 124.078C503.089 124.333 503.367 124.652 503.817 124.912L503.816 124.911ZM411.709 121.79C411.957 121.656 412.247 121.623 412.518 121.7C412.789 121.776 413.02 121.956 413.161 122.2C413.301 122.444 413.341 122.734 413.271 123.007C413.201 123.28 413.028 123.515 412.787 123.661L384.738 139.855C384.574 139.951 384.388 140.001 384.198 140H342.082C341.447 139.297 340.831 138.577 340.236 137.84H383.905L411.709 121.79ZM481.082 109.048H460.365C460.079 109.048 459.804 108.935 459.601 108.732C459.399 108.53 459.285 108.255 459.285 107.968C459.285 107.682 459.399 107.407 459.601 107.205C459.804 107.002 460.079 106.888 460.365 106.888H480.787L512.171 88.7704C512.671 89.3204 513.135 89.8794 513.603 90.4364L481.618 108.903C481.454 108.998 481.268 109.048 481.078 109.048H481.082ZM463.832 80.7484C463.797 81.3188 463.611 81.8697 463.293 82.3443C462.975 82.8189 462.536 83.2 462.021 83.4484C460.907 84.0231 459.672 84.323 458.418 84.323C457.164 84.323 455.929 84.0231 454.815 83.4484C454.28 83.2272 453.822 82.8521 453.501 82.3708C453.179 81.8894 453.007 81.3234 453.007 80.7444C453.007 80.1654 453.179 79.5994 453.501 79.118C453.822 78.6367 454.28 78.2616 454.815 78.0404C455.832 77.5198 456.95 77.2252 458.092 77.1765C459.233 77.1278 460.372 77.3263 461.43 77.7584L478.668 67.8074C479.542 68.1281 480.409 68.4581 481.268 68.7974L463.294 79.1754C463.633 79.6292 463.82 80.1781 463.83 80.7444L463.832 80.7484ZM460.943 79.9144C460.159 79.5248 459.295 79.3221 458.419 79.3221C457.543 79.3221 456.679 79.5248 455.895 79.9144C455.444 80.1744 455.166 80.4934 455.166 80.7474C455.166 81.0014 455.444 81.3224 455.895 81.5814C456.679 81.9706 457.543 82.1731 458.418 82.1731C459.294 82.1731 460.158 81.9706 460.942 81.5814C461.392 81.3214 461.672 81.0024 461.672 80.7484C461.672 80.4944 461.387 80.1734 460.938 79.9134L460.943 79.9144ZM441.364 88.1604C441.364 88.3022 441.336 88.4427 441.282 88.5737C441.228 88.7047 441.148 88.8238 441.048 88.9241C440.947 89.0244 440.828 89.1039 440.697 89.1582C440.566 89.2124 440.426 89.2404 440.284 89.2404C440.142 89.2404 440.002 89.2124 439.871 89.1582C439.74 89.1039 439.621 89.0244 439.52 88.9241C439.42 88.8238 439.34 88.7047 439.286 88.5737C439.232 88.4427 439.204 88.3022 439.204 88.1604V75.3424C439.204 75.1528 439.254 74.9666 439.349 74.8024C439.443 74.6382 439.58 74.502 439.744 74.4074L460.257 62.5654C461.306 62.7864 462.357 63.0064 463.393 63.2484L441.364 75.9674V88.1604ZM486.887 92.2544H466.218L447.327 103.162C447.204 103.235 447.068 103.283 446.926 103.303C446.785 103.323 446.641 103.315 446.502 103.278C446.364 103.242 446.234 103.179 446.121 103.092C446.007 103.005 445.912 102.897 445.84 102.773C445.769 102.649 445.723 102.512 445.705 102.371C445.686 102.229 445.697 102.085 445.735 101.947C445.772 101.809 445.837 101.68 445.926 101.568C446.014 101.455 446.123 101.361 446.248 101.291L487.31 77.5834C487.433 77.5105 487.569 77.4626 487.711 77.4427C487.852 77.4228 487.996 77.4312 488.135 77.4674C488.273 77.5036 488.403 77.5669 488.516 77.6537C488.63 77.7404 488.725 77.8488 488.797 77.9727C488.868 78.0965 488.914 78.2333 488.932 78.3751C488.951 78.5169 488.94 78.6609 488.902 78.7987C488.864 78.9365 488.8 79.0655 488.711 79.178C488.623 79.2906 488.514 79.3845 488.389 79.4544L469.96 90.0934H486.592L503.019 80.6094C503.652 81.0784 504.287 81.5464 504.889 82.0244L487.422 92.1094C487.258 92.2038 487.072 92.2534 486.883 92.2534L486.887 92.2544ZM448.774 144.075C448.774 144.265 448.725 144.451 448.63 144.615C448.535 144.779 448.399 144.916 448.235 145.01L441.372 148.971C441.249 149.043 441.113 149.09 440.972 149.109C440.831 149.129 440.688 149.12 440.55 149.083C440.413 149.047 440.284 148.984 440.171 148.897C440.057 148.811 439.963 148.703 439.891 148.58C439.82 148.457 439.774 148.321 439.755 148.179C439.737 148.038 439.747 147.895 439.784 147.758C439.821 147.62 439.885 147.491 439.972 147.379C440.059 147.266 440.167 147.172 440.291 147.101L445.535 144.074L426.744 133.226C426.621 133.155 426.513 133.061 426.427 132.948C426.341 132.836 426.277 132.707 426.241 132.57C426.204 132.433 426.195 132.29 426.213 132.15C426.232 132.009 426.278 131.873 426.349 131.75C426.42 131.628 426.514 131.52 426.627 131.434C426.74 131.347 426.868 131.284 427.005 131.247C427.142 131.211 427.285 131.201 427.426 131.22C427.567 131.238 427.702 131.284 427.825 131.355L448.235 143.138C448.399 143.233 448.535 143.369 448.63 143.533C448.725 143.698 448.774 143.884 448.774 144.073V144.075Z" fill="#FEF2EB"/>
<path d="M495.647 102.292L428.3 141.178V164.938L495.647 126.053V102.292Z" fill="#262423" stroke="#FEF2EB" stroke-linecap="round" stroke-linejoin="round"/>
<path d="M428.299 141.178L360.949 102.294V126.055L428.299 164.94V141.178Z" fill="#262423" stroke="#FEF2EB" stroke-linecap="round" stroke-linejoin="round"/>
<path d="M428.297 61.1734L364.497 98.0034L428.297 134.835L492.097 98.0034L428.297 61.1734Z" fill="#262423" stroke="#FEF2EB" stroke-linecap="round" stroke-linejoin="round"/>
<path d="M397.464 127.062L391.789 123.786V140.169L397.464 143.444V127.062ZM382.456 118.397L376.782 115.121V131.505L382.456 134.782V118.397ZM412.464 135.725L406.787 132.448V148.832L412.464 152.108V135.725Z" stroke="#FEF2EB"/>
<path d="M459.136 127.062L464.811 123.786V140.169L459.136 143.444V127.062ZM474.144 118.397L479.82 115.121V131.505L474.144 134.782V118.397ZM444.129 135.725L449.807 132.448V148.832L444.129 152.108V135.725Z" stroke="#FEF2EB"/>
<path d="M495.647 102.291L492.095 98.0024L428.3 134.834V141.176L495.647 102.291Z" fill="#262423" stroke="#FEF2EB" stroke-linecap="round" stroke-linejoin="round"/>
<path d="M428.299 134.834V141.176L360.949 102.291L364.501 98.0024L428.299 134.834Z" fill="#262423" stroke="#FEF2EB" stroke-linecap="round" stroke-linejoin="round"/>
<path d="M429.078 107.267L428.626 105.047C427.677 105.08 426.728 104.969 425.812 104.717C424.783 104.441 423.811 103.985 422.94 103.37L421.467 105.177C421.31 105.333 421.102 105.426 420.882 105.441C420.662 105.455 420.443 105.39 420.267 105.257L420.211 105.213C420.127 105.139 420.059 105.049 420.013 104.947C419.966 104.845 419.94 104.735 419.938 104.623C419.936 104.511 419.957 104.4 420 104.297C420.044 104.194 420.108 104.101 420.189 104.023L421.815 102.41C420.588 101.195 419.851 99.5711 419.745 97.8474L417.345 97.6784C417.237 97.6755 417.131 97.6514 417.032 97.6074C416.933 97.5634 416.844 97.5003 416.77 97.4218C416.695 97.3433 416.637 97.251 416.599 97.15C416.56 97.049 416.542 96.9414 416.545 96.8334C416.545 96.8234 416.545 96.8124 416.545 96.8024C416.577 96.578 416.695 96.3747 416.874 96.2355C417.053 96.0963 417.279 96.0321 417.504 96.0564L419.883 96.2224C419.926 96.0284 419.978 95.8347 420.04 95.6414L420.045 95.6124C420.444 94.409 421.178 93.3448 422.162 92.5454L420.645 90.7054C420.577 90.6237 420.527 90.5286 420.499 90.4263C420.47 90.3239 420.464 90.2167 420.48 90.1117C420.496 90.0067 420.533 89.9062 420.591 89.8169C420.648 89.7276 420.724 89.6514 420.813 89.5934C420.835 89.5766 420.858 89.5613 420.882 89.5474C421.065 89.4429 421.279 89.4049 421.487 89.4397C421.694 89.4745 421.884 89.58 422.023 89.7384L423.581 91.6164C425.265 90.777 427.17 90.4893 429.027 90.7944L429.707 88.6174C429.782 88.4095 429.934 88.2382 430.131 88.1388C430.328 88.0395 430.556 88.0196 430.768 88.0834C430.872 88.1059 430.971 88.1493 431.058 88.2111C431.145 88.2728 431.218 88.3516 431.274 88.4426C431.329 88.5336 431.366 88.6349 431.381 88.7404C431.396 88.8459 431.39 88.9534 431.362 89.0564L430.697 91.2164C432.484 91.8216 434.017 93.0085 435.051 94.5874L437.262 93.8484C437.464 93.7805 437.683 93.7848 437.882 93.8604C438.081 93.9361 438.247 94.0786 438.353 94.2634C438.365 94.2867 438.376 94.3108 438.385 94.3354C438.425 94.4357 438.444 94.5434 438.441 94.6515C438.437 94.7595 438.411 94.8657 438.364 94.963C438.317 95.0604 438.25 95.1468 438.167 95.2168C438.085 95.2868 437.989 95.3388 437.885 95.3694L435.774 96.0774C436.207 97.31 436.246 98.6466 435.886 99.9024C435.82 100.132 435.741 100.358 435.65 100.579L437.581 101.548C437.682 101.595 437.772 101.661 437.847 101.744C437.921 101.826 437.978 101.923 438.014 102.028C438.05 102.133 438.064 102.244 438.056 102.355C438.048 102.466 438.017 102.574 437.966 102.672C437.961 102.68 437.957 102.689 437.952 102.699C437.831 102.889 437.643 103.027 437.425 103.085C437.207 103.143 436.976 103.117 436.776 103.012L434.819 102.027C433.708 103.439 432.143 104.423 430.389 104.811L430.833 106.952C430.855 107.064 430.854 107.179 430.83 107.29C430.806 107.401 430.76 107.506 430.695 107.598C430.629 107.691 430.546 107.77 430.449 107.83C430.353 107.89 430.245 107.929 430.133 107.946C430.109 107.946 430.085 107.953 430.059 107.955C430.033 107.957 430.001 107.955 429.973 107.955C429.767 107.963 429.565 107.899 429.401 107.773C429.238 107.647 429.123 107.469 429.078 107.267ZM426.203 103.029C426.875 103.218 427.571 103.309 428.269 103.297L427.688 100.447C427.488 100.428 427.29 100.392 427.096 100.338C426.659 100.222 426.251 100.018 425.896 99.7384L424.045 102.009C424.7 102.472 425.43 102.817 426.203 103.029ZM430.019 103.042C431.192 102.726 432.239 102.056 433.019 101.124L430.136 99.6734C429.922 99.8696 429.68 100.032 429.417 100.155L430.019 103.042ZM423.079 101.156L425.245 99.0104C425.088 98.7647 424.974 98.4942 424.908 98.2104H424.861L421.625 97.9794C421.742 99.1707 422.254 100.289 423.079 101.156ZM433.845 99.6754C433.875 99.5927 433.903 99.5094 433.928 99.4254L433.934 99.4024C434.199 98.5183 434.202 97.5766 433.945 96.6904L430.919 97.7054C430.934 97.8719 430.931 98.0395 430.91 98.2054L433.845 99.6754ZM424.996 96.5754C425.036 96.5793 425.076 96.5857 425.116 96.5944C425.169 96.4933 425.229 96.396 425.296 96.3034C425.25 96.2667 425.207 96.2252 425.17 96.1794L423.283 93.9004C422.621 94.488 422.125 95.239 421.845 96.0784C421.815 96.1704 421.788 96.2624 421.763 96.3544L424.996 96.5754ZM430.235 96.1964L433.245 95.1914C432.501 94.1038 431.441 93.2712 430.208 92.8064L429.368 95.5284C429.694 95.6985 429.987 95.9246 430.235 96.1964ZM426.557 95.1964C426.589 95.2368 426.617 95.28 426.642 95.3254C426.973 95.2082 427.321 95.1444 427.672 95.1364L428.532 92.3804C427.225 92.1999 425.894 92.3999 424.698 92.9564L426.557 95.1964ZM421.684 105.029L423.527 105.946C422.889 105.691 422.273 105.384 421.684 105.029Z" fill="#B0D775"/>
<path d="M429.001 113.562C428.623 113.562 428.229 113.548 427.83 113.521C425.245 113.441 422.702 112.846 420.35 111.771C417.997 110.696 415.883 109.163 414.13 107.261C412.895 105.879 411.918 104.288 411.243 102.561L411.2 102.461C410.284 100.372 409.493 98.5674 407.4 98.5674C407.219 98.5681 407.039 98.5804 406.86 98.6044C406.323 98.7784 405.876 99.1542 405.611 99.6524C405.144 100.42 404.471 101.041 403.669 101.445C402.837 101.892 401.91 102.13 400.966 102.139C400.022 102.149 399.09 101.929 398.25 101.499C397.925 101.326 397.486 101.112 397.273 101.023C396.874 100.871 396.451 100.794 396.024 100.794C395.45 100.781 394.882 100.919 394.378 101.193C393.874 101.468 393.45 101.869 393.149 102.358C393.029 102.566 392.937 102.788 392.874 103.019C392.712 103.54 392.426 104.014 392.04 104.399C391.759 104.666 391.434 104.882 391.079 105.036C390.621 105.23 390.129 105.329 389.632 105.329C388.953 105.335 388.288 105.143 387.717 104.775C387.509 104.621 387.319 104.443 387.151 104.246C386.794 103.845 386.573 103.34 386.521 102.805C386.469 102.27 386.588 101.732 386.861 101.268L386.88 101.236C387.186 100.741 387.617 100.335 388.128 100.057C388.64 99.7793 389.215 99.6398 389.797 99.6524C390.227 99.6512 390.653 99.7295 391.054 99.8834C391.47 100.051 391.915 100.138 392.364 100.139H392.381C393.181 100.183 393.967 99.9164 394.575 99.3947C395.183 98.873 395.566 98.1367 395.644 97.3394C395.653 96.6783 395.849 96.0333 396.21 95.4794C396.392 95.0823 396.653 94.7264 396.977 94.4334C398.055 93.417 399.485 92.8576 400.966 92.8724C401.486 92.8721 402.005 92.9393 402.508 93.0724C403.684 93.3847 404.718 94.0905 405.437 95.0724C405.966 95.4824 406.609 95.7163 407.278 95.7414C407.829 95.7023 408.36 95.5194 408.819 95.2112C409.277 94.9029 409.647 94.48 409.891 93.9844C410.444 93.3793 410.904 92.6947 411.254 91.9534C411.438 91.6294 411.647 91.2614 411.872 90.8784C412.996 88.7216 414.66 86.8925 416.701 85.5694C418.324 84.4746 420.126 83.6725 422.025 83.1994C423.718 82.7306 425.468 82.4951 427.225 82.4994C431.556 82.4824 435.773 83.89 439.225 86.5054C441.344 88.0606 443.043 90.117 444.172 92.4904C444.51 93.1464 444.781 93.8274 445.043 94.4904C445.686 96.1054 446.243 97.5004 447.465 97.6594C447.856 97.7176 448.251 97.751 448.647 97.7594C449.002 97.7699 449.354 97.6891 449.669 97.5247C449.985 97.3603 450.252 97.1178 450.447 96.8204C450.919 96.0339 451.593 95.3888 452.4 94.9527C453.206 94.5165 454.116 94.3054 455.032 94.3414C455.454 94.3419 455.875 94.3834 456.289 94.4654C456.726 94.5681 457.156 94.6987 457.576 94.8564C457.977 95.0448 458.411 95.1515 458.854 95.1704C458.921 95.1704 458.988 95.1704 459.054 95.1704C459.28 95.1703 459.506 95.1532 459.729 95.1194C460.371 94.9816 460.96 94.6646 461.429 94.2054L461.489 94.1424C461.769 93.8494 461.769 93.8494 462.114 92.2334L462.2 91.8334L462.355 91.1034L462.738 90.7184C463.039 90.4238 463.396 90.1924 463.788 90.0378C464.18 89.8832 464.599 89.8086 465.02 89.8184C465.179 89.8187 465.338 89.8287 465.496 89.8484C465.672 89.8658 465.847 89.8976 466.018 89.9434C466.162 89.9827 466.303 90.0297 466.442 90.0844C466.884 90.2496 467.29 90.5008 467.635 90.8235C467.979 91.1461 468.257 91.5339 468.451 91.9644C468.585 92.2693 468.657 92.5982 468.661 92.9313C468.666 93.2644 468.603 93.595 468.477 93.9034C468.228 94.4071 467.837 94.8269 467.352 95.1112C466.867 95.3955 466.31 95.5318 465.749 95.5034C465.594 95.5035 465.438 95.4941 465.284 95.4754C465.126 95.4534 464.584 95.3754 464.262 95.3344C464.111 95.3164 463.96 95.3074 463.808 95.3074C463.177 95.2664 462.55 95.4397 462.03 95.7993C461.509 96.1588 461.125 96.6835 460.94 97.2884C460.83 97.6798 460.839 98.0948 460.964 98.4814C461.168 99.1867 461.168 99.9352 460.964 100.64C460.817 101.4 460.431 102.093 459.864 102.619C459.5 103.009 459.057 103.316 458.564 103.519C458.077 103.794 457.538 103.964 456.981 104.019C456.581 104.073 456.178 104.1 455.774 104.099H455.704C454.818 104.001 453.95 103.776 453.128 103.43C452.376 103.002 451.698 102.455 451.12 101.81C450.851 101.383 450.478 101.03 450.037 100.783C449.683 100.571 449.279 100.459 448.866 100.458H448.774H448.764C448.717 100.459 448.671 100.452 448.627 100.437C447.598 100.605 446.64 101.069 445.869 101.771C445.424 102.344 445.057 102.973 444.779 103.642C443.82 105.847 442.379 107.809 440.562 109.383C438.666 110.96 436.453 112.109 434.074 112.754C432.437 113.292 430.724 113.564 429.001 113.562ZM427.401 85.5784C421.495 85.5784 416.412 88.8664 414.751 93.7594C414.282 95.1647 414.107 96.6514 414.238 98.1271C414.368 99.6028 414.8 101.036 415.508 102.337C416.44 104.011 417.701 105.478 419.215 106.651C420.73 107.823 422.466 108.677 424.319 109.16C425.716 109.553 427.16 109.752 428.611 109.754C434.692 109.754 439.947 106.164 441.39 101.026C441.772 99.6273 441.87 98.1659 441.678 96.7282C441.487 95.2906 441.01 93.9058 440.275 92.6554C439.308 91.0396 438.033 89.63 436.521 88.5074C435.009 87.3847 433.291 86.5709 431.465 86.1124C430.139 85.7586 428.772 85.5791 427.399 85.5784H427.401ZM389.863 100.799C389.81 100.799 389.754 100.799 389.695 100.807C389.417 100.808 389.142 100.867 388.888 100.98C388.633 101.092 388.405 101.256 388.217 101.461C388.027 101.644 387.903 101.885 387.866 102.145C387.767 102.516 387.809 102.911 387.985 103.253C388.16 103.594 388.455 103.859 388.814 103.995C389.101 104.115 389.409 104.176 389.72 104.174H389.759C390.003 104.164 390.244 104.112 390.471 104.02C390.71 103.929 390.927 103.79 391.11 103.611C391.293 103.432 391.437 103.218 391.533 102.981C391.609 102.785 391.644 102.574 391.635 102.364C391.625 102.153 391.572 101.946 391.478 101.757C391.25 101.38 390.907 101.086 390.499 100.918C390.296 100.839 390.081 100.799 389.863 100.799ZM455.239 96.2664C454.719 96.263 454.206 96.3805 453.739 96.6094C453.255 96.7924 452.85 97.1391 452.595 97.5894C452.318 98.0274 452.181 98.5389 452.201 99.0565C452.22 99.5741 452.396 100.074 452.705 100.489C453.204 101.222 453.949 101.75 454.805 101.977C455.137 102.068 455.48 102.114 455.825 102.114C456.374 102.136 456.919 102.009 457.401 101.747C457.884 101.484 458.286 101.096 458.566 100.623C458.727 100.318 458.824 99.9834 458.85 99.6395C458.877 99.2955 458.833 98.9497 458.721 98.6234C458.564 98.1869 458.322 97.7864 458.007 97.4458C457.692 97.1053 457.312 96.8317 456.889 96.6414C456.374 96.3926 455.81 96.2627 455.238 96.2614L455.239 96.2664ZM400.939 94.6994C400.256 94.675 399.584 94.8742 399.024 95.2668C398.465 95.6594 398.048 96.2238 397.839 96.8744C397.703 97.3719 397.74 97.9011 397.945 98.3744C398.092 98.7361 398.309 99.0647 398.585 99.3405C398.862 99.6164 399.19 99.834 399.552 99.9804C399.762 100.07 399.98 100.137 400.204 100.18C400.422 100.22 400.643 100.24 400.864 100.24C401.524 100.26 402.175 100.077 402.729 99.7168C403.283 99.3566 403.714 98.836 403.964 98.2244C404.134 97.6497 404.103 97.0339 403.875 96.4795C403.647 95.9251 403.236 95.4653 402.711 95.1764C402.371 94.9759 401.999 94.8364 401.611 94.7644C401.39 94.7218 401.165 94.7 400.939 94.6994ZM463.478 92.9994C463.612 93.3156 463.817 93.5967 464.077 93.8206C464.337 94.0446 464.645 94.2053 464.978 94.2904C465.162 94.34 465.352 94.3652 465.542 94.3654C465.626 94.3655 465.71 94.3605 465.793 94.3504C465.924 94.3383 466.054 94.3138 466.18 94.2774C466.406 94.2188 466.616 94.1105 466.796 93.9603C466.975 93.8102 467.118 93.622 467.215 93.4094C467.299 93.2072 467.338 92.9887 467.327 92.7698C467.316 92.5509 467.256 92.3373 467.152 92.1444C466.926 91.6932 466.54 91.3422 466.07 91.1594C465.839 91.0294 465.578 90.9605 465.313 90.9594H465.229H465.167C464.696 90.9499 464.237 91.1044 463.867 91.3964C463.753 91.4872 463.659 91.6006 463.591 91.7296C463.524 91.8585 463.483 92.0001 463.473 92.1454C463.416 92.2803 463.387 92.4251 463.387 92.5714C463.387 92.7177 463.416 92.8625 463.473 92.9974L463.478 92.9994Z" fill="#B0D775"/>
<path d="M455.134 212.919C454.98 212.936 454.838 213.012 454.739 213.132C454.641 213.252 454.593 213.406 454.607 213.56C454.607 213.565 454.607 213.571 454.607 213.576C454.607 213.624 454.607 213.682 454.607 213.724C454.621 213.908 454.645 214.091 454.679 214.272C454.73 214.619 454.749 214.969 454.738 215.318C454.71 215.432 454.65 215.536 454.567 215.618L454.555 215.862C454.234 215.891 453.916 215.945 453.603 216.022C452.26 216.365 451.056 217.117 450.161 218.175C450.103 218.132 450.001 218.052 449.971 218.027C449.919 218.044 449.865 218.05 449.811 218.044C449.757 218.039 449.705 218.022 449.658 217.994C449.399 217.785 449.161 217.55 448.948 217.294C448.84 217.155 448.724 217.021 448.601 216.894C448.569 216.864 448.52 216.823 448.484 216.794C448.382 216.704 448.253 216.65 448.117 216.642C448.036 216.638 447.955 216.654 447.882 216.689C447.808 216.724 447.745 216.777 447.697 216.842C447.611 216.975 447.577 217.135 447.601 217.292C447.625 217.448 447.705 217.591 447.826 217.692L447.834 217.698C447.869 217.729 447.911 217.768 447.943 217.798C448.083 217.9 448.229 217.994 448.38 218.078C448.66 218.252 448.923 218.453 449.163 218.678C449.227 218.778 449.263 218.893 449.269 219.011L449.438 219.176C448.5 220.738 448.121 222.571 448.363 224.376L448.142 224.446C448.086 224.545 448.009 224.631 447.916 224.696C447.608 224.786 447.292 224.843 446.972 224.866C446.803 224.87 446.634 224.885 446.467 224.91C446.427 224.918 446.367 224.934 446.326 224.946H446.318C446.169 224.985 446.04 225.079 445.957 225.209C445.875 225.339 445.844 225.495 445.872 225.646C445.888 225.719 445.918 225.789 445.961 225.85C446.004 225.911 446.059 225.963 446.122 226.002C446.186 226.041 446.257 226.067 446.33 226.079C446.404 226.09 446.48 226.086 446.552 226.067H446.56H446.57C446.614 226.057 446.67 226.045 446.706 226.034C446.868 225.977 447.026 225.911 447.179 225.834C447.474 225.702 447.781 225.602 448.097 225.534C448.206 225.543 448.311 225.583 448.397 225.651L448.627 225.608C449.112 227.311 450.189 228.783 451.665 229.76L451.565 230.011C451.61 230.114 451.626 230.226 451.612 230.337C451.482 230.664 451.322 230.978 451.135 231.275C451.032 231.424 450.938 231.578 450.852 231.736C450.831 231.779 450.805 231.846 450.784 231.891C450.715 232.032 450.699 232.192 450.741 232.343C450.782 232.494 450.877 232.625 451.008 232.71C451.077 232.74 451.151 232.755 451.226 232.755C451.301 232.754 451.375 232.738 451.443 232.708C451.511 232.677 451.573 232.633 451.623 232.577C451.673 232.522 451.711 232.456 451.735 232.385C451.755 232.34 451.783 232.285 451.8 232.238C451.86 232.065 451.911 231.888 451.952 231.709C452.042 231.348 452.179 230.999 452.36 230.673C452.421 230.61 452.5 230.568 452.587 230.552L452.706 230.315C453.956 230.846 455.346 230.956 456.664 230.627C456.971 230.55 457.272 230.449 457.564 230.327C457.598 230.392 457.664 230.517 457.677 230.549C457.732 230.56 457.784 230.581 457.83 230.611C457.876 230.642 457.916 230.682 457.946 230.728C458.096 231.04 458.216 231.365 458.307 231.698C458.349 231.877 458.4 232.054 458.46 232.227C458.477 232.27 458.505 232.327 458.525 232.375C458.549 232.447 458.587 232.512 458.637 232.568C458.687 232.623 458.749 232.668 458.817 232.699C458.886 232.729 458.96 232.745 459.035 232.746C459.11 232.746 459.184 232.731 459.253 232.701C459.384 232.616 459.479 232.485 459.52 232.334C459.562 232.183 459.546 232.023 459.477 231.882C459.457 231.836 459.429 231.77 459.408 231.727C459.322 231.569 459.228 231.415 459.125 231.267C458.941 230.977 458.785 230.671 458.658 230.352C458.63 230.238 458.645 230.117 458.699 230.012C458.665 229.937 458.636 229.859 458.611 229.779C460.091 228.794 461.169 227.31 461.648 225.597C461.716 225.609 461.835 225.632 461.873 225.64C461.911 225.601 461.957 225.57 462.008 225.55C462.059 225.529 462.113 225.519 462.168 225.52C462.484 225.588 462.792 225.688 463.087 225.82C463.24 225.897 463.398 225.963 463.56 226.02C463.598 226.031 463.653 226.042 463.696 226.052H463.706H463.714C463.786 226.071 463.862 226.075 463.936 226.064C464.009 226.052 464.08 226.026 464.144 225.987C464.207 225.948 464.262 225.896 464.305 225.835C464.348 225.774 464.378 225.704 464.394 225.631C464.422 225.48 464.391 225.324 464.309 225.194C464.226 225.064 464.097 224.97 463.948 224.931C463.903 224.92 463.839 224.901 463.795 224.892C463.628 224.867 463.459 224.852 463.29 224.848C462.97 224.825 462.654 224.768 462.346 224.678C462.249 224.617 462.17 224.531 462.119 224.428L461.906 224.36C462.019 223.463 461.982 222.553 461.796 221.668C461.613 220.784 461.279 219.939 460.809 219.168L460.996 218.984C460.989 218.867 461.024 218.751 461.096 218.657C461.336 218.432 461.599 218.231 461.879 218.057C462.03 217.973 462.177 217.879 462.317 217.777C462.351 217.75 462.397 217.706 462.433 217.677C462.554 217.576 462.634 217.433 462.658 217.277C462.682 217.12 462.648 216.96 462.562 216.827C462.517 216.768 462.459 216.72 462.393 216.685C462.328 216.65 462.255 216.629 462.181 216.624C462.106 216.619 462.032 216.63 461.962 216.656C461.892 216.682 461.829 216.723 461.776 216.775C461.74 216.806 461.691 216.847 461.659 216.875C461.536 217.002 461.419 217.136 461.311 217.275C461.098 217.531 460.86 217.766 460.601 217.975C460.501 218.02 460.389 218.034 460.281 218.013L460.081 218.169C458.973 216.87 457.41 216.044 455.713 215.859C455.713 215.782 455.702 215.643 455.701 215.601C455.609 215.53 455.548 215.428 455.529 215.313C455.518 214.964 455.538 214.614 455.589 214.267C455.623 214.086 455.647 213.903 455.661 213.719C455.661 213.673 455.661 213.605 455.661 213.555C455.673 213.402 455.625 213.249 455.527 213.13C455.428 213.011 455.287 212.936 455.134 212.919ZM454.474 217.392L454.318 220.417L454.307 220.423C454.307 220.549 454.259 220.669 454.173 220.76C454.086 220.851 453.968 220.905 453.843 220.91C453.743 220.909 453.646 220.874 453.569 220.81L451.303 219.052C452.004 218.289 452.912 217.747 453.917 217.493C454.1 217.45 454.285 217.416 454.472 217.392H454.474ZM455.794 217.392C457.007 217.566 458.122 218.155 458.95 219.058L456.699 220.805H456.691C456.644 220.843 456.589 220.871 456.531 220.887C456.473 220.903 456.412 220.907 456.352 220.898C456.292 220.889 456.235 220.868 456.183 220.836C456.132 220.804 456.088 220.761 456.054 220.711C455.992 220.625 455.957 220.523 455.954 220.417L455.794 217.392ZM450.477 220.186L452.546 222.212V222.224C452.637 222.315 452.693 222.435 452.704 222.564C452.715 222.692 452.68 222.82 452.605 222.924C452.546 223.007 452.461 223.068 452.364 223.098V223.108L449.712 223.946C449.576 222.645 449.842 221.332 450.475 220.186H450.477ZM459.777 220.186C460.095 220.753 460.324 221.365 460.456 222.001C460.59 222.636 460.629 223.288 460.571 223.934L457.906 223.094V223.082C457.823 223.051 457.749 222.999 457.691 222.931C457.634 222.863 457.594 222.782 457.576 222.695C457.558 222.608 457.562 222.518 457.588 222.433C457.614 222.348 457.66 222.271 457.724 222.208V222.202L459.782 220.186H459.777ZM454.711 222.367H455.559L456.086 223.088L455.897 223.988L455.136 224.388L454.373 223.988L454.184 223.088L454.711 222.367ZM457.428 224.834C457.464 224.833 457.5 224.836 457.535 224.843V224.837L460.278 225.345C459.892 226.564 459.12 227.624 458.078 228.365L457.013 225.55C456.965 225.432 456.961 225.3 457.002 225.179C457.043 225.058 457.127 224.956 457.238 224.891C457.295 224.859 457.359 224.84 457.425 224.835L457.428 224.834ZM452.821 224.846C452.93 224.852 453.034 224.895 453.115 224.967C453.196 225.04 453.25 225.139 453.267 225.246C453.289 225.351 453.28 225.46 453.241 225.559L453.249 225.57L452.195 228.357C451.161 227.619 450.394 226.567 450.006 225.357L452.725 224.852V224.858C452.755 224.852 452.785 224.849 452.816 224.849L452.821 224.846ZM455.121 226.067C455.197 226.065 455.271 226.082 455.338 226.118C455.429 226.167 455.502 226.243 455.546 226.335H455.556L456.897 228.987C456.721 229.052 456.542 229.106 456.361 229.151C455.376 229.399 454.339 229.34 453.388 228.983L454.725 226.336C454.76 226.261 454.815 226.196 454.883 226.149C454.952 226.102 455.032 226.074 455.115 226.068L455.121 226.067Z" fill="#B0D775" stroke="#262423" stroke-width="0.25"/>
<path d="M532.445 173.07C532.228 173.085 532.071 173.384 532.096 173.737C532.096 173.742 532.097 173.748 532.097 173.753C532.1 173.801 532.104 173.859 532.107 173.901C532.126 174.1 532.168 174.257 532.199 174.444C532.262 174.788 532.301 175.136 532.317 175.485C532.305 175.595 532.269 175.701 532.21 175.794L532.218 176.038C531.978 176.084 531.743 176.155 531.517 176.248C530.467 176.725 529.611 177.547 529.093 178.577C529.046 178.537 528.964 178.463 528.939 178.439C528.902 178.459 528.861 178.468 528.819 178.465C528.777 178.462 528.737 178.447 528.703 178.423C528.489 178.221 528.295 178 528.123 177.761C528.034 177.629 527.938 177.502 527.835 177.38C527.809 177.352 527.769 177.314 527.74 177.287C527.704 177.247 527.66 177.214 527.611 177.191C527.562 177.169 527.509 177.156 527.455 177.154C527.389 177.158 527.326 177.182 527.272 177.221C527.219 177.26 527.178 177.314 527.155 177.376C527.1 177.517 527.086 177.671 527.114 177.819C527.142 177.968 527.212 178.106 527.314 178.217L527.321 178.223C527.349 178.252 527.383 178.289 527.409 178.317C527.519 178.41 527.635 178.496 527.755 178.573C527.983 178.737 528.194 178.924 528.383 179.131C528.439 179.232 528.474 179.343 528.485 179.458L528.624 179.614C528.025 181.295 527.873 183.102 528.183 184.86L528.024 184.941C527.991 185.038 527.94 185.127 527.871 185.203C527.651 185.307 527.417 185.381 527.177 185.422C527.05 185.435 526.924 185.458 526.802 185.492C526.772 185.502 526.731 185.521 526.699 185.536L526.693 185.536C526.573 185.608 526.48 185.718 526.429 185.849C526.377 185.979 526.37 186.123 526.409 186.258C526.478 186.562 526.718 186.738 526.947 186.642L526.955 186.642C526.988 186.63 527.028 186.615 527.053 186.602C527.171 186.535 527.285 186.46 527.392 186.378C527.598 186.233 527.822 186.116 528.058 186.03C528.145 186.014 528.244 186.096 528.292 186.131L528.461 186.076C528.871 187.642 529.769 189.037 531.024 190.06L530.97 190.316C531.011 190.418 531.031 190.528 531.028 190.639C530.955 190.966 530.858 191.287 530.737 191.6C530.676 191.762 530.611 191.889 530.558 192.075C530.545 192.119 530.53 192.187 530.518 192.233C530.474 192.375 530.471 192.526 530.511 192.669C530.551 192.812 530.631 192.94 530.743 193.038C530.952 193.162 531.181 193 531.264 192.676C531.276 192.63 531.293 192.574 531.302 192.526C531.345 192.335 531.353 192.173 531.379 191.99C531.42 191.631 531.498 191.277 531.612 190.935C531.648 190.873 531.705 190.825 531.773 190.802L531.846 190.559C532.307 190.788 532.811 190.916 533.326 190.934C533.84 190.951 534.353 190.859 534.828 190.663C535.057 190.568 535.277 190.452 535.484 190.316C535.514 190.379 535.569 190.501 535.583 190.532C535.629 190.542 535.671 190.562 535.708 190.59C535.744 190.619 535.774 190.655 535.796 190.696C535.931 191.004 536.044 191.321 536.134 191.645C536.186 191.823 536.217 191.982 536.286 192.165C536.302 192.207 536.327 192.263 536.345 192.31C536.472 192.621 536.726 192.749 536.913 192.597C537.009 192.484 537.071 192.346 537.09 192.198C537.11 192.051 537.087 191.902 537.023 191.768C537.005 191.723 536.979 191.658 536.961 191.616C536.884 191.44 536.802 191.327 536.718 191.172C536.557 190.887 536.419 190.59 536.304 190.284C536.275 190.171 536.277 190.053 536.31 189.942C536.294 189.918 536.252 189.78 536.228 189.714C537.331 188.516 538.024 186.999 538.207 185.381C538.259 185.39 538.349 185.406 538.379 185.412C538.433 185.351 538.483 185.273 538.591 185.277C538.837 185.329 539.075 185.414 539.299 185.528C539.417 185.595 539.54 185.654 539.667 185.703C539.696 185.712 539.737 185.72 539.769 185.728L539.777 185.727L539.783 185.727C540.021 185.785 540.236 185.581 540.262 185.271C540.281 185.132 540.254 184.991 540.185 184.869C540.116 184.747 540.009 184.651 539.88 184.596C539.845 184.587 539.796 184.572 539.762 184.565C539.636 184.549 539.508 184.543 539.381 184.548C539.137 184.541 538.895 184.501 538.662 184.428C538.581 184.366 538.516 184.284 538.475 184.19L538.312 184.133C538.334 183.232 538.242 182.331 538.041 181.452C537.85 180.6 537.542 179.778 537.127 179.009L537.254 178.816C537.239 178.703 537.257 178.588 537.305 178.484C537.464 178.253 537.646 178.038 537.849 177.844C537.958 177.75 538.061 177.649 538.156 177.542C538.179 177.513 538.211 177.467 538.236 177.436C538.322 177.312 538.372 177.165 538.379 177.014C538.386 176.863 538.35 176.713 538.277 176.581C538.249 176.527 538.207 176.481 538.156 176.449C538.104 176.417 538.045 176.399 537.984 176.398C537.923 176.397 537.863 176.412 537.811 176.443C537.758 176.473 537.715 176.517 537.685 176.57C537.66 176.603 537.626 176.647 537.604 176.676C537.52 176.811 537.442 176.951 537.372 177.094C537.235 177.353 537.073 177.6 536.89 177.829C536.856 177.854 536.818 177.871 536.777 177.881C536.736 177.89 536.694 177.891 536.653 177.884L536.514 178.05C536.126 177.478 535.618 176.997 535.027 176.639C534.435 176.281 533.773 176.056 533.085 175.978C533.08 175.901 533.062 175.763 533.058 175.721C532.98 175.647 532.928 175.55 532.909 175.444C532.877 175.095 532.869 174.745 532.883 174.396C532.888 174.207 532.908 174.049 532.899 173.845C532.895 173.799 532.891 173.731 532.887 173.681C532.858 173.328 532.663 173.054 532.445 173.07ZM532.264 177.568L532.359 180.597L532.35 180.598C532.361 180.869 532.225 181.095 532.037 181.108C531.998 181.11 531.959 181.103 531.922 181.088C531.886 181.073 531.853 181.051 531.826 181.023L530.006 179.387C530.423 178.642 531.071 178.051 531.851 177.703C531.986 177.648 532.123 177.603 532.264 177.568ZM533.252 177.499C534.244 177.65 535.135 178.189 535.73 178.996L534.168 180.858L534.162 180.858C534.132 180.898 534.092 180.928 534.047 180.948C534.001 180.967 533.952 180.974 533.902 180.968C533.853 180.962 533.807 180.943 533.767 180.913C533.728 180.883 533.697 180.843 533.678 180.798C533.624 180.71 533.591 180.612 533.582 180.51L533.252 177.499ZM529.47 180.566L531.159 182.48L531.16 182.492C531.237 182.588 531.287 182.704 531.303 182.827C531.319 182.949 531.302 183.074 531.253 183.187C531.22 183.267 531.161 183.333 531.085 183.374L531.085 183.384L529.16 184.359C528.965 183.088 529.072 181.789 529.47 180.566ZM536.426 180.078C536.709 180.642 536.922 181.239 537.061 181.854C537.206 182.485 537.28 183.13 537.282 183.777L535.227 183.079L535.226 183.067C535.124 183.012 535.04 182.927 534.989 182.823C534.937 182.718 534.919 182.6 534.938 182.485C534.944 182.387 534.976 182.291 535.03 182.208L535.029 182.199L536.426 180.078ZM532.786 182.521L533.42 182.477L533.864 183.169L533.786 184.077L533.245 184.516L532.646 184.157L532.441 183.268L532.786 182.521ZM534.992 184.841C535.019 184.837 535.046 184.838 535.072 184.844L535.072 184.838L537.159 185.201C536.993 186.36 536.496 187.446 535.728 188.33L534.732 185.577C534.686 185.465 534.673 185.343 534.695 185.224C534.717 185.105 534.772 184.995 534.855 184.907C534.894 184.872 534.942 184.849 534.994 184.841L534.992 184.841ZM531.546 185.094C531.703 185.083 531.857 185.235 531.908 185.47C531.932 185.573 531.933 185.68 531.911 185.784L531.917 185.794L531.324 188.631C530.446 187.867 529.805 186.868 529.476 185.752L531.476 185.105L531.476 185.111C531.498 185.104 531.521 185.099 531.544 185.097L531.546 185.094ZM533.35 186.192C533.409 186.186 533.467 186.2 533.517 186.232C533.593 186.281 533.653 186.353 533.688 186.437L533.698 186.437L534.881 189.013C534.756 189.086 534.627 189.15 534.493 189.205C534.139 189.353 533.759 189.428 533.375 189.426C532.991 189.424 532.611 189.345 532.258 189.193L533.071 186.482C533.084 186.411 533.118 186.346 533.168 186.295C533.218 186.243 533.282 186.208 533.353 186.193L533.35 186.192Z" fill="#B0D775" stroke="#262423" stroke-width="0.250113"/>
<mask id="mask0_117_1305" style="mask-type:luminance" maskUnits="userSpaceOnUse" x="379" y="475" width="46" height="32">
<path d="M424.728 479.986L382.187 475.496L379.421 501.71L421.962 506.199L424.728 479.986Z" fill="white"/>
</mask>
<g mask="url(#mask0_117_1305)">
<path d="M398.216 477.253C399.202 477.156 400.076 477.532 400.169 478.096L402.25 487.169C402.414 487.725 401.756 488.289 400.781 488.432C399.794 488.529 398.921 488.153 398.827 487.589L396.746 478.516C396.583 477.96 397.24 477.395 398.216 477.253Z" fill="#FFE682"/>
<path d="M400.713 487.042C404.01 486.639 407.036 487.837 407.464 489.718C407.892 491.598 405.574 493.452 402.276 493.856C398.977 494.259 395.958 493.062 395.526 491.18C395.093 489.299 397.419 487.446 400.713 487.042Z" fill="#FFE682"/>
<path d="M417.499 480.405C418.16 480.81 418.144 481.465 417.458 481.922L406.758 488.713C406.407 488.914 406.014 489.031 405.61 489.053C405.205 489.075 404.802 489.002 404.431 488.839C404.391 488.819 404.353 488.797 404.315 488.773C403.654 488.368 403.669 487.711 404.356 487.256L415.053 480.468C415.404 480.266 415.797 480.149 416.202 480.127C416.606 480.105 417.01 480.178 417.381 480.34C417.422 480.362 417.462 480.384 417.498 480.408" fill="#FFE682"/>
<path d="M381.356 484.83C380.91 485.37 381.219 485.986 382.071 486.254L395.216 490.125C395.6 490.241 396.006 490.262 396.399 490.187C396.793 490.111 397.162 489.941 397.475 489.692C397.504 489.663 397.53 489.632 397.555 489.6C398.001 489.059 397.692 488.443 396.84 488.175L383.693 484.304C383.31 484.188 382.904 484.167 382.51 484.243C382.117 484.319 381.747 484.489 381.434 484.738C381.406 484.767 381.379 484.798 381.354 484.83" fill="#FFE682"/>
<path d="M423.624 490.43C423.714 489.853 423.007 489.374 422.019 489.342L407.174 489.222C406.22 489.231 405.392 489.686 405.333 490.24C405.332 490.254 405.33 490.268 405.329 490.282C405.239 490.859 405.946 491.338 406.934 491.369L421.781 491.49C422.734 491.481 423.559 491.026 423.621 490.477C423.623 490.463 423.624 490.449 423.625 490.435" fill="#FFE682"/>
<path d="M414.052 500.808C414.841 500.413 415.021 499.756 414.475 499.296L405.928 492.041C405.596 491.814 405.213 491.674 404.813 491.634C404.413 491.593 404.009 491.654 403.639 491.809C403.601 491.826 403.563 491.843 403.522 491.861C402.733 492.256 402.55 492.907 403.1 493.367L411.644 500.63C411.976 500.856 412.359 500.996 412.759 501.036C413.159 501.076 413.563 501.016 413.933 500.861C413.975 500.844 414.016 500.827 414.057 500.808" fill="#FFE682"/>
<path d="M380.229 495.745C379.882 495.221 380.34 494.6 381.26 494.335L395.238 490.683C395.616 490.556 396.022 490.538 396.41 490.631C396.798 490.723 397.152 490.923 397.432 491.207L397.45 491.249C397.797 491.773 397.339 492.394 396.42 492.659L382.446 496.305C382.068 496.432 381.662 496.451 381.274 496.358C380.886 496.266 380.532 496.066 380.252 495.782L380.229 495.745Z" fill="#FFE682"/>
<path d="M394.227 503.266C393.305 503.081 392.838 502.506 393.154 501.946L397.991 493.042C398.231 492.739 398.549 492.508 398.912 492.373C399.274 492.239 399.666 492.207 400.045 492.28C400.092 492.285 400.139 492.29 400.185 492.295C401.107 492.48 401.573 493.055 401.258 493.615L396.424 502.524C396.184 502.828 395.865 503.059 395.502 503.194C395.139 503.328 394.747 503.36 394.367 503.286C394.32 503.281 394.273 503.276 394.227 503.266Z" fill="#FFE682"/>
<path d="M399.869 483.39C393.071 484.205 388.258 488.012 389.118 491.894C389.978 495.775 396.188 498.258 402.986 497.444C409.783 496.63 414.597 492.821 413.737 488.94L413.73 488.909C412.849 485.041 406.652 482.572 399.87 483.389M399.373 481.224C408.257 480.113 416.433 483.326 417.632 488.388C418.831 493.451 412.61 498.467 403.727 499.577C394.844 500.687 386.668 497.475 385.468 492.413L385.453 492.373C384.276 487.314 390.505 482.321 399.373 481.224Z" fill="#FFE682"/>
</g>
<path d="M272.886 38.5019L152.003 1.92083C144.949 -1.15517 139.179 1.36185 139.179 7.51485V84.2688C139.179 90.4198 144.951 97.9688 152.003 101.048L189.521 114.93L212.442 144.923L235.36 134.923L272.885 147.566C279.937 150.642 285.706 148.124 285.709 141.973V55.2818C285.707 49.1298 279.938 41.5779 272.886 38.5019Z" stroke="#FEF2EB"/>
<path d="M213.097 96.5673L211.925 91.558C210.685 91.4168 209.495 90.9875 208.451 90.3046C206.987 89.3587 205.696 88.1692 204.633 86.7877L203.419 90.5251C203.163 91.172 202.539 91.1523 202.024 90.4814C201.998 90.4459 201.971 90.4105 201.945 90.372C201.69 89.9901 201.523 89.556 201.457 89.1015C201.391 88.647 201.428 88.1835 201.564 87.7448L203.014 84.4545C201.074 81.2053 199.771 77.6167 199.173 73.8801L196.272 73.1076C195.914 72.9011 195.615 72.6057 195.405 72.2498C195.194 71.894 195.079 71.4899 195.071 71.0766C195.071 71.0526 195.067 71.0295 195.065 71.0065C194.967 70.0266 195.359 69.35 195.957 69.4682L198.838 70.2244C198.828 69.7901 198.831 69.3584 198.846 68.9292C198.846 68.9072 198.846 68.8862 198.847 68.8642C198.861 66.5417 199.403 64.253 200.433 62.1712L198.027 57.695C197.803 57.3103 197.673 56.878 197.647 56.4334C197.622 55.9887 197.702 55.5444 197.882 55.1368C197.902 55.1022 197.925 55.0692 197.949 55.0379C198.323 54.5841 198.968 54.8552 199.388 55.6435L201.86 60.2339C202.683 59.4103 203.741 58.8621 204.888 58.6646C206.035 58.4672 207.215 58.6303 208.266 59.1314L208.451 54.1161C208.467 53.1711 208.981 52.6737 209.608 53.0035C209.956 53.2933 210.231 53.6615 210.409 54.0778C210.588 54.4941 210.665 54.9467 210.635 55.3986L210.45 60.3679C213.271 62.6219 215.467 65.5614 216.828 68.9058L219.377 67.5417C219.859 67.2798 220.523 67.7932 220.858 68.6892C220.88 68.7466 220.899 68.8049 220.918 68.8623C221.25 69.8752 221.102 70.882 220.578 71.1902L218.144 72.4822C219.015 75.3359 219.42 78.3114 219.344 81.2941C219.326 81.8113 219.291 82.3108 219.24 82.7928L221.897 85.3457C222.212 85.6988 222.445 86.1169 222.58 86.5702C222.715 87.0235 222.748 87.501 222.678 87.9687C222.678 87.9887 222.671 88.0086 222.668 88.0275C222.515 88.8482 221.901 89.0678 221.299 88.5184L218.616 85.9301C217.717 88.8426 216.06 90.742 213.985 91.3619L215.118 96.2136C215.367 97.2431 215.117 98.1401 214.545 98.2714C214.517 98.2758 214.488 98.278 214.458 98.278L214.447 98.2778C213.9 98.2645 213.295 97.504 213.097 96.5673ZM208.432 86.6232C209.204 87.1334 210.08 87.4657 210.996 87.596L209.473 81.0903C209.211 81.0046 208.96 80.8871 208.726 80.7405C208.09 80.3286 207.54 79.7983 207.105 79.1785L205.552 83.9535C206.355 84.9987 207.329 85.9012 208.432 86.6232ZM213.04 87.3427C213.804 86.9785 214.48 86.4517 215.019 85.7991C215.558 85.1465 215.948 84.3839 216.162 83.5647L212.225 79.7667C212.05 80.1369 211.799 80.4662 211.489 80.7334L213.04 87.3427ZM204.142 81.8799L206.1 77.4229C205.831 76.8166 205.615 76.1876 205.456 75.5434L205.4 75.5345L201.45 74.482C201.913 77.085 202.824 79.5881 204.142 81.8799ZM216.771 80.4161C216.784 80.2343 216.795 80.0494 216.803 79.8615C216.803 79.8445 216.804 79.8275 216.804 79.8115C216.866 77.714 216.612 75.619 216.051 73.5969L212.619 75.4201C212.684 75.7952 212.728 76.1737 212.751 76.5537L216.771 80.4161ZM205.083 71.865C205.134 71.8817 205.185 71.9029 205.232 71.9286C205.265 71.7141 205.308 71.5014 205.363 71.2916C205.294 71.1951 205.231 71.0938 205.175 70.9883L202.2 65.4592C201.525 66.955 201.164 68.5729 201.137 70.2135C201.129 70.4167 201.126 70.6211 201.127 70.8265L205.083 71.865ZM211.343 71.8424L214.759 70.0139C213.763 67.6927 212.243 65.6343 210.317 64.0007L210.084 70.1655C210.575 70.6663 210.997 71.2302 211.339 71.8423L211.343 71.8424ZM206.559 68.9462C206.611 69.0472 206.655 69.1479 206.7 69.2557C207.061 69.0413 207.481 68.9472 207.898 68.987L208.132 62.7492C207.387 62.4369 206.568 62.3426 205.77 62.4775C204.973 62.6123 204.231 62.9707 203.629 63.5109L206.559 68.9462ZM203.632 90.2366L206.086 92.6C205.21 91.8751 204.389 91.0851 203.632 90.2366Z" fill="#FFE682"/>
<path d="M218.694 112.718C217.38 112.69 216.074 112.508 214.802 112.178C206.899 110.49 198.761 104.159 192.476 94.8054C190.075 91.1924 188.061 87.3358 186.47 83.3L186.368 83.0602C184.128 77.7886 182.193 73.2354 178.984 73.1808C178.847 73.1787 178.71 73.1844 178.574 73.1979C178.181 73.4324 177.852 73.7601 177.615 74.1521C177.378 74.5441 177.242 74.9883 177.218 75.4455C176.999 76.9196 176.29 78.2768 175.204 79.2973C174.38 80.0654 173.289 80.48 172.163 80.452C170.459 80.3314 168.849 79.6215 167.611 78.4441C167.084 77.986 166.381 77.4129 166.047 77.1661C165.418 76.704 164.668 76.4348 163.889 76.3912C162.375 76.3655 161.235 77.5634 160.915 79.5176C160.838 80.0029 160.807 80.4943 160.822 80.9854C160.848 82.0115 160.662 83.0321 160.276 83.983C160.044 84.4896 159.683 84.9264 159.229 85.2496C158.79 85.5418 158.271 85.6909 157.743 85.6764C156.508 85.5625 155.364 84.9774 154.549 84.0427C154.187 83.6334 153.855 83.1981 153.556 82.7404C152.202 80.7346 151.596 78.3166 151.845 75.9094L151.855 75.8405C152.164 73.8612 153.298 72.6471 154.809 72.6728C155.581 72.7164 156.323 72.9846 156.945 73.4443C157.507 73.8684 158.164 74.1484 158.858 74.2601C158.975 74.2758 159.092 74.2848 159.21 74.2871C159.556 74.2955 159.9 74.2339 160.222 74.106C160.543 73.9781 160.836 73.7865 161.081 73.5427C162.155 72.4976 162.564 70.534 162.171 68.2907C161.894 66.8774 161.884 65.4246 162.144 64.008C162.2 63.192 162.408 62.3938 162.759 61.6547C163.093 60.7361 163.702 59.943 164.504 59.3837C165.305 58.8244 166.26 58.5262 167.237 58.5299C168.201 58.5636 169.144 58.8192 169.992 59.277C172.122 60.5392 173.866 62.3608 175.033 64.5442C175.419 64.9859 176.784 66.4305 178.158 66.4538C179.484 66.4764 180.441 65.2003 181 62.662C181.593 61.1489 181.979 59.5626 182.147 57.9462C182.281 57.1882 182.433 56.3286 182.603 55.4372C183.81 49.1979 184.918 46.4139 187.56 43.0248C189.361 40.6355 191.814 38.8166 194.624 37.7864C196.663 36.9695 198.847 36.5774 201.043 36.6342C204.878 36.7839 208.617 37.8782 211.928 39.8201C215.978 42.1453 219.598 45.1507 222.628 48.7045C226.826 53.4606 230.196 58.8869 232.598 64.7576C233.358 66.471 234.019 68.2257 234.658 69.9261C236.223 74.0889 237.574 77.6839 239.576 78.3121C240.306 78.5787 241.068 78.748 241.843 78.8157C242.817 78.8323 243.363 78.3414 244.087 76.7933C244.88 73.3348 247.136 71.2995 250.122 71.3503C251.061 71.3782 251.987 71.5787 252.854 71.9419C253.63 72.2991 254.379 72.7131 255.094 73.1803C255.734 73.7003 256.49 74.0586 257.298 74.2251C257.561 74.2732 257.828 74.3002 258.096 74.3057C258.307 74.3094 258.519 74.2983 258.728 74.2724C259.271 74.1311 259.778 73.879 260.218 73.532C260.658 73.1851 261.022 72.7507 261.286 72.2563L261.367 72.1056C261.746 71.4058 261.746 71.4058 261.849 67.2974L261.874 66.2775L261.918 64.4117L262.449 63.4775C262.744 62.8745 263.207 62.369 263.781 62.0209C264.355 61.6729 265.018 61.497 265.689 61.514C266.085 61.5233 266.479 61.5848 266.859 61.6969L266.859 61.6869C267.174 61.7762 267.479 61.8936 267.773 62.0376C268.036 62.1702 268.291 62.3192 268.535 62.4837C270.135 63.6513 271.398 65.2215 272.195 67.035C272.992 68.8484 273.295 70.8404 273.073 72.8088C272.665 75.0835 271.22 76.4783 269.301 76.4457C268.898 76.4362 268.497 76.3722 268.111 76.2554C267.703 76.1225 266.874 75.8563 266.352 75.6954C265.974 75.5825 265.583 75.5207 265.189 75.5116C264.685 75.4953 264.184 75.5941 263.725 75.8006C263.265 76.007 262.858 76.3156 262.536 76.7028C261.794 77.6535 261.388 78.8225 261.379 80.0281C261.318 81.0509 261.45 82.076 261.766 83.0506C262.299 84.8065 262.511 86.6445 262.391 88.4757C262.424 90.1275 261.994 91.7556 261.149 93.175C260.733 93.9946 260.084 94.6734 259.285 95.1269C258.601 95.6922 257.746 96.0095 256.859 96.0269C256.595 96.0464 256.324 96.0538 256.058 96.0493C255.644 96.0415 255.23 96.007 254.82 95.9462C253.256 95.4638 251.784 94.723 250.466 93.7546C249.044 92.4482 247.792 90.968 246.739 89.349C246.229 88.3127 245.533 87.3789 244.686 86.5943C244.12 86.0112 243.371 85.64 242.565 85.543C242.48 85.5337 242.398 85.5064 242.324 85.4628C241.504 85.5914 240.723 85.9029 240.04 86.3742C239.357 86.8455 238.788 87.4646 238.377 88.1855C237.839 89.5829 237.468 91.0387 237.271 92.523C236.37 97.9513 234.852 102.143 232.629 105.337C230.525 108.44 227.426 110.733 223.844 111.837C222.2 112.459 220.451 112.758 218.694 112.718ZM202.675 44.5152C200.712 44.4631 198.764 44.8736 196.989 45.7134C195.214 46.5533 193.662 47.7991 192.458 49.3499C189.78 52.6454 188.247 57.3397 188.026 62.9245C187.881 70.7159 189.735 78.4144 193.411 85.2855C197.179 92.5276 202.376 98.2226 208.043 101.321C210.614 102.808 213.509 103.647 216.477 103.765C218.424 103.818 220.357 103.416 222.121 102.59C223.885 101.764 225.431 100.536 226.636 99.0061C229.321 95.7378 230.865 91.0467 231.103 85.4421C231.28 77.4195 229.335 69.4924 225.465 62.4627C221.521 55.1055 216.136 49.4504 210.301 46.5394C207.943 45.3026 205.336 44.6109 202.675 44.5152ZM251.314 76.283C250.612 76.2604 249.923 76.473 249.356 76.8869C248.953 77.129 248.607 77.454 248.339 77.8405C248.072 78.227 247.89 78.6659 247.805 79.1282C247.217 81.5991 247.606 84.2017 248.891 86.3927C249.739 88.1142 251.076 89.5468 252.735 90.5102C253.392 90.8677 254.122 91.0681 254.869 91.0957C256.622 91.1255 257.961 89.9409 258.45 87.9266C259.269 84.5566 257.5 79.9161 254.507 77.5826C253.613 76.8126 252.491 76.3562 251.314 76.283ZM155.353 75.3238C154.989 75.331 154.637 75.4577 154.352 75.6844C154.067 75.911 153.864 76.2251 153.775 76.5784C153.585 77.0559 153.526 77.5748 153.601 78.0828C153.626 78.9203 153.826 79.7433 154.188 80.4989C154.55 81.2545 155.066 81.9259 155.703 82.4698C156.099 82.7785 156.569 82.9779 157.066 83.0482L157.142 83.0495C157.433 83.0571 157.72 82.9796 157.969 82.8264C159.134 82.106 159.309 79.8634 158.36 77.8316C157.955 77.0117 157.371 76.2931 156.651 75.729C156.337 75.4935 155.96 75.3563 155.568 75.3345L155.5 75.3333C155.436 75.3272 155.397 75.3246 155.353 75.3238ZM168.192 62.9184C167.541 62.903 166.907 63.1316 166.416 63.5594C165.91 64.0903 165.526 64.725 165.291 65.4193C165.056 66.1135 164.975 66.8507 165.054 67.5795C165.093 68.8014 165.363 70.0049 165.851 71.126C166.45 72.71 167.465 74.1035 168.789 75.1601C169.1 75.393 169.437 75.5894 169.793 75.7454C170.201 75.9172 170.638 76.0121 171.08 76.0253C171.516 76.0352 171.948 75.9394 172.339 75.7461C172.73 75.5528 173.068 75.2677 173.325 74.9151C173.959 74.0054 174.294 72.9205 174.283 71.8115C174.27 69.0193 173.164 66.3431 171.201 64.357C170.695 63.866 170.103 63.4721 169.455 63.195C169.054 63.0257 168.626 62.9319 168.192 62.9184ZM264.371 69.5199C264.86 71.0397 265.891 72.3266 267.268 73.1362C267.638 73.3293 268.046 73.4371 268.463 73.4516C268.528 73.4527 268.593 73.4538 268.657 73.4459C268.873 73.4397 269.087 73.4001 269.291 73.3286C270.879 72.7675 271.349 70.3688 270.339 67.9829C269.913 66.8773 269.178 65.9175 268.222 65.2181C267.82 64.8309 267.296 64.5965 266.74 64.5557C266.629 64.5394 266.517 64.5302 266.405 64.528C266.047 64.5185 265.693 64.5973 265.372 64.7575C265.052 64.9176 264.777 65.1541 264.57 65.4461C264.206 65.9994 264.049 66.6626 264.125 67.3201C264.02 68.0646 264.107 68.8235 264.377 69.525L264.371 69.5199Z" fill="#FFE682"/>
<path d="M560.369 241.212V265.374L583.021 278.965V241.212H560.369Z" stroke="#FEF2EB"/>
<path d="M583.021 241.212V278.965L605.673 265.374V241.212H583.021Z" stroke="#FEF2EB" stroke-linecap="round" stroke-linejoin="round"/>
<path d="M583.021 227.621L560.369 241.212L583.021 254.803L605.669 241.212L583.021 227.621Z" fill="#262423" stroke="#FEF2EB" stroke-linecap="round" stroke-linejoin="round"/>
<path d="M586.041 195.908V220.07L608.693 233.661V195.908H586.041Z" stroke="#FEF2EB" stroke-linecap="round" stroke-linejoin="round"/>
<path d="M608.693 195.908V233.661L631.345 220.07V195.908H608.693Z" stroke="#FEF2EB" stroke-linecap="round" stroke-linejoin="round"/>
<path d="M608.693 182.317L586.041 195.908L608.693 209.499L631.341 195.908L608.693 182.317Z" fill="#262423" stroke="#FEF2EB" stroke-linecap="round" stroke-linejoin="round"/>
<path d="M608.693 278.965V275.95M572.45 220.07V217.05M644.936 220.07V217.05" stroke="#FEF2EB" stroke-width="2"/>
<path d="M612.544 241.212V265.374L635.196 278.965V241.212H612.544Z" stroke="#FEF2EB"/>
<path d="M635.196 241.212V278.965L657.848 265.374V241.212H635.196Z" stroke="#FEF2EB" stroke-linecap="round" stroke-linejoin="round"/>
<path d="M635.196 227.621L612.544 241.212L635.196 254.803L657.844 241.212L635.196 227.621Z" fill="#262423" stroke="#FEF2EB" stroke-linecap="round" stroke-linejoin="round"/>
<path d="M188.23 471.712V495.874L210.882 509.465V471.712H188.23Z" stroke="#FEF2EB"/>
<path d="M210.882 471.712V509.465L233.534 495.874V471.712H210.882Z" stroke="#FEF2EB" stroke-linecap="round" stroke-linejoin="round"/>
<path d="M210.882 458.121L188.23 471.712L210.882 485.303L233.53 471.712L210.882 458.121Z" fill="#262423" stroke="#FEF2EB" stroke-linecap="round" stroke-linejoin="round"/>
<path d="M213.902 426.408V450.57L236.554 464.161V426.408H213.902Z" stroke="#FEF2EB" stroke-linecap="round" stroke-linejoin="round"/>
<path d="M236.554 426.408V464.161L259.206 450.57V426.408H236.554Z" stroke="#FEF2EB" stroke-linecap="round" stroke-linejoin="round"/>
<path d="M236.554 412.817L213.902 426.408L236.554 439.999L259.202 426.408L236.554 412.817Z" fill="#262423" stroke="#FEF2EB" stroke-linecap="round" stroke-linejoin="round"/>
<path d="M236.554 509.465V506.45M200.311 450.57V447.55M272.797 450.57V447.55" stroke="#FEF2EB" stroke-width="2"/>
<path d="M240.405 471.712V495.874L263.057 509.465V471.712H240.405Z" stroke="#FEF2EB"/>
<path d="M263.057 471.712V509.465L285.709 495.874V471.712H263.057Z" stroke="#FEF2EB" stroke-linecap="round" stroke-linejoin="round"/>
<path d="M263.057 458.121L240.405 471.712L263.057 485.303L285.705 471.712L263.057 458.121Z" fill="#262423" stroke="#FEF2EB" stroke-linecap="round" stroke-linejoin="round"/>
<path d="M593.512 339.442L612.069 328.726V306.969L593.512 317.681V339.442Z" stroke="#FEF2EB" stroke-linecap="round" stroke-linejoin="round"/>
<path d="M593.512 339.442L574.954 328.726V306.969L593.512 317.681V339.442Z" stroke="#FEF2EB" stroke-linecap="round" stroke-linejoin="round"/>
<path d="M593.512 317.681L574.954 306.969L593.512 296.261L612.069 306.969L593.512 317.681Z" fill="#262423" stroke="#FEF2EB" stroke-linecap="round" stroke-linejoin="round"/>
</svg>
