<svg xmlns="http://www.w3.org/2000/svg" width="675.397" height="589.397" viewBox="0 0 675.397 589.397">
  <g id="kubviz-img3" transform="translate(-15865.334 -6190.557)">
    <path id="Path_46608" data-name="Path 46608" d="M177.331,0a58.713,58.713,0,0,1,41.516,17.2L267.98,66.33a58.713,58.713,0,0,1,17.2,41.516v69.485a58.713,58.713,0,0,1-17.2,41.516L218.847,267.98a58.713,58.713,0,0,1-41.516,17.2H107.846a58.713,58.713,0,0,1-41.516-17.2L17.2,218.847A58.713,58.713,0,0,1,0,177.331V107.846A58.713,58.713,0,0,1,17.2,66.33L66.33,17.2A58.713,58.713,0,0,1,107.846,0Z" transform="translate(16078.031 6352.976)" fill="#ffd93d"/>
    <g id="Group_10944" data-name="Group 10944" transform="translate(15945.933 6235.081)">
      <path id="Path_46482" data-name="Path 46482" d="M16436,7099.725s42.861,6.236,51.762-30.247,5.773-128.706,94.641-128.706" transform="translate(-16436 -6599.164)" fill="none" stroke="#020f1e" stroke-width="1"/>
      <path id="Path_46481" data-name="Path 46481" d="M16436,6942.148s42.861-6.236,51.762,30.247,4.631,128.291,97.508,128.291" transform="translate(-16436 -6941.744)" fill="none" stroke="#020f1e" stroke-width="1"/>
      <path id="Path_46732" data-name="Path 46732" d="M1192.85,2442.3s16.951-2.6,24.3,11.7,29.65,49.3,82.7,47" transform="translate(-1185.599 -2275.524)" fill="none" stroke="#020f1e" stroke-width="1"/>
      <path id="Path_46733" data-name="Path 46733" d="M1192.85,2500.924s16.951,2.6,24.3-11.7,29.65-49.3,82.7-47" transform="translate(-1185.599 -2167.524)" fill="none" stroke="#020f1e" stroke-width="1"/>
    </g>
    <g id="Group_10945" data-name="Group 10945" transform="translate(16311.543 6299.004)">
      <path id="Path_46482-2" data-name="Path 46482" d="M16604.385,7099.725s-42.861,6.236-51.764-30.247-7.814-127.833-85.615-127.833" transform="translate(-16433.447 -6723.893)" fill="none" stroke="#020f1e" stroke-width="1"/>
      <line id="Line_313" data-name="Line 313" x2="130" transform="translate(32.791 188.552)" fill="none" stroke="#020f1e" stroke-width="1"/>
      <path id="Path_46481-2" data-name="Path 46481" d="M16604.385,6942.148s-42.861-6.236-51.764,30.247-6.479,126.65-85.883,126.65" transform="translate(-16433.447 -6941.744)" fill="none" stroke="#020f1e" stroke-width="1"/>
    </g>
    <g id="Group_10936" data-name="Group 10936" transform="translate(16060.031 6344.502)">
      <g id="Path_17297" data-name="Path 17297" transform="translate(0 0)" fill="none">
        <path d="M177.331,0a58.713,58.713,0,0,1,41.516,17.2L267.98,66.33a58.713,58.713,0,0,1,17.2,41.516v69.485a58.713,58.713,0,0,1-17.2,41.516L218.847,267.98a58.713,58.713,0,0,1-41.516,17.2H107.846a58.713,58.713,0,0,1-41.516-17.2L17.2,218.847A58.713,58.713,0,0,1,0,177.331V107.846A58.713,58.713,0,0,1,17.2,66.33L66.33,17.2A58.713,58.713,0,0,1,107.846,0Z" stroke="none"/>
        <path d="M 107.8459930419922 0 L 107.8459930419922 1 C 104.0552062988281 1 100.2493591308594 1.37652587890625 96.53421020507812 2.119171142578125 C 92.85371398925781 2.8548583984375 89.22882080078125 3.956390380859375 85.76025390625 5.39312744140625 C 82.29164123535156 6.829864501953125 78.94956970214844 8.6141357421875 75.82685852050781 10.6964111328125 C 72.67471313476562 12.79833984375 69.71734619140625 15.22320556640625 67.03684997558594 17.90371704101562 L 17.90371704101562 67.03678894042969 C 15.22320556640625 69.71728515625 12.79833984375 72.6746826171875 10.69647216796875 75.82681274414062 C 8.614166259765625 78.94953918457031 6.82989501953125 82.29161071777344 5.39312744140625 85.76017761230469 C 3.9564208984375 89.22877502441406 2.854888916015625 92.85366821289062 2.11920166015625 96.53413391113281 C 1.376556396484375 100.2493133544922 1.000030517578125 104.0551452636719 1.000030517578125 107.8459320068359 L 1 177.3306427001953 C 1 181.1214294433594 1.37652587890625 184.92724609375 2.119171142578125 188.6424255371094 C 2.8548583984375 192.3229217529297 3.956390380859375 195.9478149414062 5.39312744140625 199.4163818359375 C 6.829864501953125 202.8849945068359 8.6141357421875 206.2270660400391 10.6964111328125 209.3497924804688 C 12.79833984375 212.5019226074219 15.22320556640625 215.4592895507812 17.90371704101562 218.1397857666016 L 67.03678894042969 267.2728881835938 C 69.71728515625 269.9533996582031 72.6746826171875 272.3782958984375 75.82681274414062 274.4801635742188 C 78.94953918457031 276.5624694824219 82.29161071777344 278.3467407226562 85.76020812988281 279.7835083007812 C 89.22877502441406 281.2202453613281 92.85366821289062 282.3217468261719 96.5341796875 283.0574645996094 C 100.2493133544922 283.8001098632812 104.05517578125 284.1766357421875 107.8459625244141 284.1766357421875 L 177.3306427001953 284.1766357421875 C 181.1214294433594 284.1766357421875 184.92724609375 283.8001098632812 188.6424255371094 283.0574645996094 C 192.3229217529297 282.3217468261719 195.9477844238281 281.2202453613281 199.4163818359375 279.7835083007812 C 202.8849639892578 278.3467407226562 206.2270355224609 276.5624694824219 209.3497924804688 274.4801635742188 C 212.5019226074219 272.3782958984375 215.4592895507812 269.9534301757812 218.1397857666016 267.2729187011719 L 267.2728881835938 218.1398162841797 C 269.9533996582031 215.4593200683594 272.3782348632812 212.501953125 274.4801635742188 209.3498229980469 C 276.5624694824219 206.2271118164062 278.3467407226562 202.8850402832031 279.7835083007812 199.4164276123047 C 281.22021484375 195.9478454589844 282.3217468261719 192.3229675292969 283.0574340820312 188.6424865722656 C 283.8000793457031 184.9273071289062 284.1766052246094 181.1214904785156 284.1766052246094 177.3307189941406 L 284.1766357421875 107.8459625244141 C 284.1766357421875 104.05517578125 283.8001098632812 100.2493591308594 283.0574645996094 96.5341796875 C 282.3217468261719 92.85366821289062 281.2202453613281 89.22882080078125 279.7835083007812 85.76020812988281 C 278.3467407226562 82.29164123535156 276.5624694824219 78.94956970214844 274.4801635742188 75.82681274414062 C 272.3782348632812 72.6746826171875 269.9533996582031 69.71731567382812 267.2728881835938 67.03681945800781 L 218.1397857666016 17.90371704101562 C 215.4592895507812 15.22320556640625 212.5019226074219 12.79833984375 209.3497924804688 10.69647216796875 C 206.2270660400391 8.614166259765625 202.8849639892578 6.82989501953125 199.4163818359375 5.39312744140625 C 195.9478149414062 3.9564208984375 192.3229217529297 2.854888916015625 188.6424255371094 2.11920166015625 C 184.92724609375 1.376556396484375 181.1214294433594 1.000030517578125 177.3306427001953 1.000030517578125 L 107.8459930419922 1 L 107.8459930419922 0 M 107.8459930419922 0 L 177.3306427001953 3.0517578125e-05 C 192.9022521972656 3.0517578125e-05 207.8361053466797 6.185821533203125 218.8468933105469 17.19659423828125 L 267.97998046875 66.3297119140625 C 278.9908142089844 77.34049987792969 285.1766357421875 92.27435302734375 285.1766357421875 107.8459625244141 L 285.1766052246094 177.3307189941406 C 285.1766052246094 192.9023132324219 278.9908142089844 207.8361358642578 267.97998046875 218.846923828125 L 218.8468933105469 267.9800415039062 C 207.8361053466797 278.9908142089844 192.9022521972656 285.1766357421875 177.3306427001953 285.1766357421875 L 107.8459625244141 285.1766357421875 C 92.27432250976562 285.1766357421875 77.34049987792969 278.9908142089844 66.32968139648438 267.97998046875 L 17.19659423828125 218.8468933105469 C 6.185791015625 207.8361053466797 0 192.9022521972656 0 177.3306427001953 L 3.0517578125e-05 107.8459320068359 C 3.0517578125e-05 92.27432250976562 6.185821533203125 77.34049987792969 17.19659423828125 66.32968139648438 L 66.32974243164062 17.19659423828125 C 77.34053039550781 6.185791015625 92.27435302734375 0 107.8459930419922 0 Z" stroke="none" fill="#020f1e"/>
      </g>
      <g id="Group_5" data-name="Group 5" transform="translate(39.362 90.924)">
        <path id="Shape_103" data-name="Shape 103" d="M16.8,57.068c-.063-.025-.121-.052-.181-.08a2.43,2.43,0,0,1-1.036-3.253l2.857-5.712A21.355,21.355,0,0,1,9.263,36.847L2.874,38.231a2.381,2.381,0,0,1-2.8-1.772L.06,36.368a2.415,2.415,0,0,1,1.83-2.857l6.35-1.375q-.082-.879-.087-1.778v-.091a20.047,20.047,0,0,1,2.913-10.451L5.478,15.678A2.443,2.443,0,0,1,4.953,12.3a1.922,1.922,0,0,1,.143-.19,2.355,2.355,0,0,1,3.179-.343l5.731,4.242A22.687,22.687,0,0,1,27.679,9.343V2.418a2.374,2.374,0,1,1,4.747,0V9.263a22.806,22.806,0,0,1,14.125,6.373l5.218-3.862a2.359,2.359,0,0,1,3.181.352,1.773,1.773,0,0,1,.137.184,2.441,2.441,0,0,1-.528,3.376l-4.971,3.679a20.136,20.136,0,0,1,3.111,12.9l5.72,1.24a2.417,2.417,0,0,1,1.824,2.857c-.005.03-.011.058-.016.088a2.379,2.379,0,0,1-2.794,1.778l-5.788-1.254a21.387,21.387,0,0,1-9.269,11.132l2.782,5.562a2.428,2.428,0,0,1-1.039,3.25q-.091.045-.181.082a2.345,2.345,0,0,1-3.011-1.14l-2.88-5.755a23.638,23.638,0,0,1-15.931-.284l-2.309,6.108A2.3,2.3,0,0,1,17.7,57.245,2.4,2.4,0,0,1,16.8,57.068Zm13.44-10.687a17.965,17.965,0,0,0,5.527-.841l-3.758-7.509a8.788,8.788,0,0,1-1.615.149,8.642,8.642,0,0,1-3.581-.768l-2.942,7.781A17.894,17.894,0,0,0,30.236,46.382Zm-9.569-2.817,3.849-7.694a7.858,7.858,0,0,1-1.526-2.006q-.063.02-.128.037l-8.6,1.862A16.325,16.325,0,0,0,20.668,43.564Zm19.4-.075a16.317,16.317,0,0,0,6.263-7.664l-8.593-1.861a7.871,7.871,0,0,1-1.479,1.912Zm7.282-12.382q.021-.382.023-.769v-.071a15.332,15.332,0,0,0-2.077-7.722L38.2,27.793a7.412,7.412,0,0,1,.369,1.411Zm-34.1-.91q0,.427.019.849l8.613-1.865a2.534,2.534,0,0,1,.34-.039,7.4,7.4,0,0,1,.228-.966,2.288,2.288,0,0,1-.44-.261l-6.849-5.07A15.329,15.329,0,0,0,13.247,30.2Zm11.563-6.19a2.646,2.646,0,0,1,.338.314,8.4,8.4,0,0,1,2.53-1.34V14.344a17.379,17.379,0,0,0-9.6,4.684Zm10.409.014.011-.009,7.062-5.226a17.408,17.408,0,0,0-9.866-4.513v8.516A8.461,8.461,0,0,1,35.22,24.022ZM20.245,55.357,25.7,56.47A33.082,33.082,0,0,1,20.245,55.357Z" transform="translate(72.783 22.305)" fill="#fff"/>
        <path id="Shape_103-2" data-name="Shape 103" d="M8.549,103.291a9.331,9.331,0,0,1-2.775-.42,10.486,10.486,0,0,1-1.973-.995,7.957,7.957,0,0,1-3.722-7.86l.014-.1a8.537,8.537,0,0,1,8.532-6.97c.3,0,.6.015.9.044a9.2,9.2,0,0,0,3.64-.3,8.529,8.529,0,0,0,5.231-4.2,7.786,7.786,0,0,0,.524-6.1,10.675,10.675,0,0,1-.346-5.651,9.082,9.082,0,0,1,.978-3.549A14.621,14.621,0,0,1,32.72,59.008a15.222,15.222,0,0,1,9.56,3.407,9.315,9.315,0,0,0,3.486.726c2.521,0,5.81-1.265,7.16-7.289.731-1.193,1.146-3.585,1.721-6.9.187-1.075.4-2.294.642-3.58,1.713-8.9,3.5-13.241,7.964-19.363a44.245,44.245,0,0,1,12.1-11.308A49.391,49.391,0,0,1,103.065,6.33a50.317,50.317,0,0,1,20.965,4.585,45.206,45.206,0,0,1,17.637,13.8c1.366,1.648,2.573,3.416,3.739,5.126,2.68,3.928,4.995,7.321,7.994,7.321a4.094,4.094,0,0,0,.6-.046c4.475-.671,5.587-1.151,7.187-4.717a14.978,14.978,0,0,1,13.678-11.4c.292-.01.587-.015.877-.015a25.438,25.438,0,0,1,2.757.15,8.078,8.078,0,0,0,1.609.162,7.974,7.974,0,0,0,1.941-.239,11.623,11.623,0,0,0,2.264-.819,10.24,10.24,0,0,0,3.871-4l.116-.231c.545-1.081.545-1.081.421-6.116l-.031-1.259-.063-2.288L189.4,4.9A9.06,9.06,0,0,1,196.14.129l0-.014A9.792,9.792,0,0,1,197.585,0a9.918,9.918,0,0,1,1.209.091,9.111,9.111,0,0,1,6.138,3.559A8.194,8.194,0,0,1,206.5,9.838a8.706,8.706,0,0,1-7.407,7.121c-.722.1-1.985.27-2.766.385a8.582,8.582,0,0,0-7.448,8.275,6.635,6.635,0,0,0,.813,3.431,12.406,12.406,0,0,1,1.354,6.195,11.874,11.874,0,0,1-1.615,6.483,11.118,11.118,0,0,1-2.786,3.547A11,11,0,0,1,182.89,47.9a22.643,22.643,0,0,1-3.234,1.2,22.394,22.394,0,0,1-7.063.093,20.132,20.132,0,0,1-6.258-3.03,7.784,7.784,0,0,0-3.494-2.077,5.579,5.579,0,0,0-3.492.058A1.2,1.2,0,0,1,159,44.2h-.045a14.931,14.931,0,0,0-6.2,5.9,25.212,25.212,0,0,0-1.5,6.093,48.483,48.483,0,0,1-6.717,19.024,46.358,46.358,0,0,1-14.049,14.067,41.149,41.149,0,0,1-15.165,6.7,50.943,50.943,0,0,1-12.408,1.533A50.056,50.056,0,0,1,75.571,89.5,46.222,46.222,0,0,1,64.123,78.851l-.193-.233c-3.657-4.418-6.815-8.233-11.06-8.233a8.536,8.536,0,0,0-3.6.862,5.8,5.8,0,0,0-2.288,3.882A12.846,12.846,0,0,1,43.6,81.591a14.547,14.547,0,0,1-10.748,4.65A15.019,15.019,0,0,1,29.67,85.9c-.98-.221-2.34-.478-2.97-.56-.292-.028-.587-.042-.878-.042a8.492,8.492,0,0,0-8.468,6.869,7.979,7.979,0,0,0-.066,2.014,9.272,9.272,0,0,1-.808,4.379,8.192,8.192,0,0,1-1.846,2.453A9.128,9.128,0,0,1,8.549,103.291Zm.093-13.066a4.471,4.471,0,0,0-1.72.341,4.921,4.921,0,0,0-3.159,2.926,3.315,3.315,0,0,0-.22,2.137,4.862,4.862,0,0,0,4.269,4.3,6.069,6.069,0,0,0,2.6-.239,5.185,5.185,0,0,0,1.676-.959,4.769,4.769,0,0,0,1.707-3.406A4.714,4.714,0,0,0,12.461,91.8a6.05,6.05,0,0,0-3.349-1.55A4.48,4.48,0,0,0,8.643,90.225ZM103.057,15.9c-20.734,0-37.6,15.931-37.6,35.514s16.868,35.514,37.6,35.514,37.6-15.931,37.6-35.514S123.792,15.9,103.057,15.9ZM32.775,64.486c-.245,0-.506.012-.8.036a8.694,8.694,0,0,0-5.991,3.094A7.805,7.805,0,0,0,24.192,73.4a7.291,7.291,0,0,0,1.723,4.115,8.66,8.66,0,0,0,5.695,3.22,8.808,8.808,0,0,0,1.194.082c.227,0,.456-.009.682-.027A8.48,8.48,0,0,0,41.4,72.448a8.328,8.328,0,0,0-6.146-7.618A9.139,9.139,0,0,0,32.775,64.486Zm143.195-37.81a9.074,9.074,0,0,0-6.321,2.544,6.771,6.771,0,0,0-2.321,3.72,8.057,8.057,0,0,0,2.242,8.233,9.208,9.208,0,0,0,6.407,2.61,9,9,0,0,0,8.849-6.744,8.113,8.113,0,0,0-1.115-6.247,8.975,8.975,0,0,0-5.825-3.915A9.243,9.243,0,0,0,175.969,26.676Zm16.842-15.6a5.644,5.644,0,0,0,4.749,2.63h.019a5.87,5.87,0,0,0,3.127-.981,4.989,4.989,0,0,0,2.182-3.333,4.817,4.817,0,0,0-.935-3.73,5.17,5.17,0,0,0-3.461-2.08,3.755,3.755,0,0,0-2.343.077,5.691,5.691,0,0,0-3.311,2.365,3.616,3.616,0,0,0-.563,2.536,3.643,3.643,0,0,0,.547,2.517Z" transform="translate(0 0)" fill="#fff"/>
      </g>
    </g>
    <g id="Group_10937" data-name="Group 10937" transform="translate(15865 6191)">
      <g id="Path_46469" data-name="Path 46469" transform="translate(0.334 -0.443)" fill="#fff">
        <path d="M 54.96791076660156 87.89739227294922 L 33.4294548034668 87.89739227294922 C 31.09332466125488 87.89739227294922 28.814453125 87.44409942626953 26.65615844726562 86.55009460449219 C 24.49785232543945 85.65609741210938 22.5659351348877 84.36522674560547 20.91404151916504 82.71333312988281 L 5.684053421020508 67.48332977294922 C 4.032159328460693 65.83143615722656 2.741288423538208 63.89950942993164 1.847288489341736 61.74120330810547 C 0.9532884955406189 59.5828971862793 0.5000061392784119 57.30403900146484 0.5000061392784119 54.96791839599609 L 0.5000061392784119 33.42946243286133 C 0.5000061392784119 31.09333229064941 0.9533002972602844 28.81446075439453 1.847300291061401 26.65616607666016 C 2.741300344467163 24.49785995483398 4.03217077255249 22.56593132019043 5.684064865112305 20.91403770446777 L 20.91405296325684 5.684061050415039 C 22.56584167480469 4.032272815704346 24.49778175354004 2.741425514221191 26.65619468688965 1.847378492355347 C 28.81461715698242 0.9533314108848572 31.09346580505371 0.5000137686729431 33.42942810058594 0.5000137686729431 L 54.96792221069336 0.5000137686729431 C 57.30404281616211 0.5000137686729431 59.58290100097656 0.9533079266548157 61.74120712280273 1.847307920455933 C 63.89950180053711 2.741296052932739 65.83142852783203 4.032166957855225 67.48332214355469 5.684061050415039 L 82.71332550048828 20.91404914855957 C 84.36521911621094 22.56594276428223 85.65608978271484 24.49787330627441 86.55008697509766 26.65617942810059 C 87.444091796875 28.81447219848633 87.89738464355469 31.09334373474121 87.89738464355469 33.42947387695312 L 87.89736938476562 54.96792984008789 C 87.89736938476562 57.30406188964844 87.44407653808594 59.58293151855469 86.55008697509766 61.74122619628906 C 85.65608978271484 63.89953231811523 84.36521911621094 65.83145904541016 82.71332550048828 67.48334503173828 L 67.48333740234375 82.71335601806641 C 65.83142852783203 84.365234375 63.89950180053711 85.65610504150391 61.74119567871094 86.55009460449219 C 59.58290100097656 87.44409942626953 57.30403137207031 87.89739227294922 54.96791076660156 87.89739227294922 Z" stroke="none"/>
        <path d="M 33.42947769165039 1 C 31.15933609008789 1 28.94484329223633 1.440498352050781 26.84751129150391 2.309234619140625 C 24.75018310546875 3.177978515625 22.87284088134766 4.432380676269531 21.26761627197266 6.037612915039062 L 6.037605285644531 21.26759338378906 C 4.432380676269531 22.87281036376953 3.177986145019531 24.75016784667969 2.309226989746094 26.84749603271484 C 1.44049072265625 28.94482421875 0.9999923706054688 31.15932083129883 0.9999923706054688 33.42946243286133 L 0.9999923706054688 54.96791839599609 C 0.9999923706054688 57.2380485534668 1.44049072265625 59.45252990722656 2.309226989746094 61.54985809326172 C 3.177970886230469 63.64719009399414 4.432373046875 65.52454376220703 6.03759765625 67.12977600097656 L 21.26759338378906 82.35977935791016 C 22.87281799316406 83.96500396728516 24.75017166137695 85.21939849853516 26.84749984741211 86.08814239501953 C 28.94482803344727 86.95688629150391 31.15932464599609 87.39737701416016 33.4294548034668 87.39737701416016 L 54.96791076660156 87.39737701416016 C 57.23804092407227 87.39737701416016 59.45252227783203 86.95689392089844 61.54985046386719 86.08815765380859 C 63.64718246459961 85.21941375732422 65.52455139160156 83.96500396728516 67.12978363037109 82.35978698730469 L 82.35977172851562 67.12979125976562 C 83.96499633789062 65.52456665039062 85.21939086914062 63.64721298217773 86.088134765625 61.54988479614258 C 86.95687866210938 59.45255279541016 87.39736938476562 57.23805999755859 87.39736938476562 54.96792984008789 L 87.39736938476562 33.42947387695312 C 87.39736938476562 31.15934371948242 86.95687866210938 28.94485092163086 86.088134765625 26.84751892089844 C 85.21939086914062 24.75019073486328 83.96499633789062 22.87284088134766 82.35977172851562 21.26760101318359 L 67.12976837158203 6.037612915039062 C 65.5245361328125 4.432388305664062 63.64718246459961 3.177993774414062 61.54986572265625 2.309234619140625 C 59.45253753662109 1.440498352050781 57.23805236816406 1 54.96792221069336 1 L 33.42947769165039 1 M 33.42947769165039 0 L 54.96792221069336 0 C 59.79471206665039 1.52587890625e-05 64.42380523681641 1.917449951171875 67.83687591552734 5.33050537109375 L 83.06687927246094 20.56049346923828 C 86.47993469238281 23.97356414794922 88.39736938476562 28.6026725769043 88.39736938476562 33.42947387695312 L 88.39736938476562 54.96792984008789 C 88.39736938476562 59.79473114013672 86.47993469238281 64.42383575439453 83.06687927246094 67.83689880371094 L 67.83689117431641 83.06689453125 C 64.42380523681641 86.47994232177734 59.79470062255859 88.39737701416016 54.96791076660156 88.39737701416016 L 33.4294548034668 88.39737701416016 C 28.60265350341797 88.39737701416016 23.97354888916016 86.47994232177734 20.56048583984375 83.06688690185547 L 5.330490112304688 67.83688354492188 C 1.917427062988281 64.42381286621094 -7.62939453125e-06 59.79470825195312 -7.62939453125e-06 54.96791839599609 L -7.62939453125e-06 33.42946243286133 C 7.62939453125e-06 28.6026496887207 1.917442321777344 23.97354125976562 5.330497741699219 20.56048583984375 L 20.56050872802734 5.33050537109375 C 23.97355651855469 1.917434692382812 28.60266494750977 0 33.42947769165039 0 Z" stroke="none" fill="#020f1e"/>
      </g>
      <g id="Group_11004" data-name="Group 11004" transform="translate(-12393.666 -1262.443)">
        <path id="path3059" d="M127.343,274.06a1.036,1.036,0,0,0-.978,1.086c0,.009,0,.018,0,.027,0,.082,0,.18,0,.251a8.156,8.156,0,0,0,.134.93,9.134,9.134,0,0,1,.109,1.774,1.067,1.067,0,0,1-.318.506l-.023.414a12.725,12.725,0,0,0-1.768.272,12.578,12.578,0,0,0-6.389,3.65c-.108-.074-.3-.209-.353-.251a.773.773,0,0,1-.581-.056,9.132,9.132,0,0,1-1.318-1.191,8.153,8.153,0,0,0-.644-.683c-.06-.051-.151-.121-.217-.173a1.163,1.163,0,0,0-.681-.257.942.942,0,0,0-.779.345,1.036,1.036,0,0,0,.24,1.442l.015.01c.064.052.143.119.2.163a8.146,8.146,0,0,0,.811.474,9.132,9.132,0,0,1,1.454,1.022,1.088,1.088,0,0,1,.2.564l.313.28a12.653,12.653,0,0,0-2,8.821l-.41.119a1.355,1.355,0,0,1-.42.424,9.128,9.128,0,0,1-1.753.288,8.186,8.186,0,0,0-.938.075c-.075.014-.179.041-.261.061l-.008,0-.015,0a.981.981,0,1,0,.435,1.905l.015,0,.019-.006c.081-.018.182-.038.253-.056a8.164,8.164,0,0,0,.878-.336,9.138,9.138,0,0,1,1.7-.5,1.079,1.079,0,0,1,.562.2l.426-.073a12.725,12.725,0,0,0,5.639,7.041l-.178.426a.969.969,0,0,1,.087.553,9.554,9.554,0,0,1-.885,1.591,8.2,8.2,0,0,0-.524.781c-.039.073-.088.186-.125.263a.982.982,0,1,0,1.765.838l0,0s0,0,0,0c.037-.076.09-.177.121-.249a8.161,8.161,0,0,0,.282-.9,6.837,6.837,0,0,1,.757-1.757.792.792,0,0,1,.421-.205l.221-.4a12.655,12.655,0,0,0,9.024.023c.062.11.178.323.209.376a.774.774,0,0,1,.5.3,9.126,9.126,0,0,1,.671,1.644,8.179,8.179,0,0,0,.284.9c.032.072.084.174.121.251a.982.982,0,1,0,1.768-.836c-.037-.077-.089-.19-.127-.263a8.154,8.154,0,0,0-.524-.779,9.135,9.135,0,0,1-.867-1.552.767.767,0,0,1,.075-.577,3.365,3.365,0,0,1-.163-.395,12.725,12.725,0,0,0,5.637-7.091c.127.02.346.059.418.073a.772.772,0,0,1,.547-.2,9.139,9.139,0,0,1,1.7.5,8.179,8.179,0,0,0,.878.338c.071.019.172.037.253.054l.019.006.015,0a.981.981,0,1,0,.435-1.905c-.084-.019-.2-.051-.284-.067a8.192,8.192,0,0,0-.938-.075,9.129,9.129,0,0,1-1.753-.288,1.1,1.1,0,0,1-.422-.424l-.395-.115a12.7,12.7,0,0,0-2.037-8.8c.1-.092.293-.261.347-.311a.772.772,0,0,1,.184-.554,9.131,9.131,0,0,1,1.454-1.022,8.18,8.18,0,0,0,.813-.474c.063-.047.149-.12.215-.173a.983.983,0,1,0-1.218-1.529c-.067.053-.157.122-.217.173a8.179,8.179,0,0,0-.646.683,9.155,9.155,0,0,1-1.318,1.193,1.089,1.089,0,0,1-.593.065l-.372.265a12.815,12.815,0,0,0-8.117-3.922c-.009-.13-.02-.366-.023-.437a.774.774,0,0,1-.32-.489,9.152,9.152,0,0,1,.111-1.774,8.157,8.157,0,0,0,.134-.93c0-.079,0-.193,0-.278a1.036,1.036,0,0,0-.978-1.086Zm-1.224,7.584-.29,5.129-.021.01a.862.862,0,0,1-1.369.66l-.008,0-4.206-2.981a10.073,10.073,0,0,1,4.851-2.643A10.312,10.312,0,0,1,126.118,281.644Zm2.451,0a10.158,10.158,0,0,1,5.858,2.825l-4.179,2.963-.015-.006a.863.863,0,0,1-1.371-.658l0,0Zm-9.87,4.739,3.84,3.435,0,.021a.862.862,0,0,1-.338,1.481l0,.017-4.922,1.421A10.071,10.071,0,0,1,118.7,286.383Zm17.26,0a10.258,10.258,0,0,1,1.473,6.356l-4.948-1.425,0-.021a.862.862,0,0,1-.338-1.481l0-.01Zm-9.4,3.7h1.573l.978,1.222-.351,1.525-1.412.679-1.417-.681-.351-1.525Zm5.044,4.183a.856.856,0,0,1,.2.015l.008-.01,5.092.861a10.083,10.083,0,0,1-4.076,5.121l-1.976-4.774.006-.008a.865.865,0,0,1,.748-1.2Zm-8.552.021a.862.862,0,0,1,.827.671.854.854,0,0,1-.048.531l.015.019-1.956,4.726a10.125,10.125,0,0,1-4.064-5.085l5.048-.857.008.01a.873.873,0,0,1,.169-.015Zm4.264,2.071a.87.87,0,0,1,.79.453h.019l2.488,4.5a10.3,10.3,0,0,1-.995.278,10.111,10.111,0,0,1-5.518-.284l2.482-4.488h0a.863.863,0,0,1,.729-.455Z" transform="translate(12310.881 1015.94)" fill="#020f1e"/>
        <g id="Polygon_20" data-name="Polygon 20" transform="translate(12415 1284)" fill="none">
          <path d="M20.825,1.051a5,5,0,0,1,4.351,0l14.1,6.815a5,5,0,0,1,2.7,3.393L45.468,26.6a5,5,0,0,1-.961,4.22L34.737,43.111A5,5,0,0,1,30.823,45H15.177a5,5,0,0,1-3.914-1.889L1.494,30.819A5,5,0,0,1,.532,26.6l3.489-15.34a5,5,0,0,1,2.7-3.393Z" stroke="none"/>
          <path d="M 22.99999046325684 1.553157806396484 C 22.40088081359863 1.553157806396484 21.79907989501953 1.690940856933594 21.2596492767334 1.951610565185547 L 7.156879425048828 8.766357421875 C 6.055469512939453 9.298587799072266 5.268180847167969 10.28792953491211 4.996860504150391 11.48072052001953 L 1.507511138916016 26.82079887390137 C 1.236820220947266 28.01082992553711 1.517078399658203 29.24131965637207 2.276420593261719 30.19675827026367 L 12.04557037353516 42.48875045776367 C 12.80886840820312 43.44916915893555 13.95024108886719 44 15.17703056335449 44 L 30.82297134399414 44 C 32.04975891113281 44 33.19113159179688 43.44916915893555 33.95442962646484 42.48875045776367 L 43.72357940673828 30.19674873352051 C 44.4829216003418 29.24131965637207 44.76316833496094 28.01082992553711 44.49248123168945 26.82079887390137 L 41.00313949584961 11.48070907592773 C 40.7318115234375 10.28791809082031 39.94451141357422 9.298580169677734 38.84310150146484 8.766357421875 L 24.7403392791748 1.951610565185547 C 24.2009105682373 1.690940856933594 23.59910011291504 1.553157806396484 22.99999046325684 1.553157806396484 M 22.9999942779541 0.5531578063964844 C 23.74414443969727 0.5531578063964844 24.48829460144043 0.7191810607910156 25.17543029785156 1.051219940185547 L 39.27819061279297 7.865970611572266 C 40.64730834960938 8.527549743652344 41.64096069335938 9.776210784912109 41.97822952270508 11.25890731811523 L 45.46757125854492 26.5989990234375 C 45.80413055419922 28.07860946655273 45.4505615234375 29.63100814819336 44.50645065307617 30.81893920898438 L 34.73730087280273 43.11093902587891 C 33.78874969482422 44.30445098876953 32.34751129150391 45 30.82297134399414 45 L 15.17703056335449 45 C 13.65250015258789 45 12.21125030517578 44.30445098876953 11.26269912719727 43.11093902587891 L 1.493549346923828 30.81894874572754 C 0.5494308471679688 29.63100814819336 0.19586181640625 28.0786190032959 0.5324211120605469 26.5989990234375 L 4.021770477294922 11.25891876220703 C 4.359031677246094 9.776210784912109 5.352680206298828 8.527557373046875 6.721790313720703 7.865970611572266 L 20.82456016540527 1.051219940185547 C 21.51169586181641 0.7191810607910156 22.25584411621094 0.5531578063964844 22.9999942779541 0.5531578063964844 Z" stroke="none" fill="#020f1e"/>
        </g>
      </g>
    </g>
    <g id="Group_10938" data-name="Group 10938" transform="translate(15865 6357.684)">
      <g id="Path_46469-2" data-name="Path 46469" transform="translate(0.334 -0.127)" fill="#fff">
        <path d="M 54.96791076660156 87.89739227294922 L 33.4294548034668 87.89739227294922 C 31.09332466125488 87.89739227294922 28.814453125 87.44409942626953 26.65615844726562 86.55009460449219 C 24.49785232543945 85.65609741210938 22.5659351348877 84.36522674560547 20.91404151916504 82.71333312988281 L 5.684053421020508 67.48332977294922 C 4.032159328460693 65.83143615722656 2.741288423538208 63.89950942993164 1.847288489341736 61.74120330810547 C 0.9532884955406189 59.5828971862793 0.5000061392784119 57.30403900146484 0.5000061392784119 54.96791839599609 L 0.5000061392784119 33.42946243286133 C 0.5000061392784119 31.09333229064941 0.9533002972602844 28.81446075439453 1.847300291061401 26.65616607666016 C 2.741300344467163 24.49785995483398 4.03217077255249 22.56593132019043 5.684064865112305 20.91403770446777 L 20.91405296325684 5.684061050415039 C 22.56584167480469 4.032272815704346 24.49778175354004 2.741425514221191 26.65619468688965 1.847378492355347 C 28.81461715698242 0.9533314108848572 31.09346580505371 0.5000137686729431 33.42942810058594 0.5000137686729431 L 54.96792221069336 0.5000137686729431 C 57.30404281616211 0.5000137686729431 59.58290100097656 0.9533079266548157 61.74120712280273 1.847307920455933 C 63.89950180053711 2.741296052932739 65.83142852783203 4.032166957855225 67.48332214355469 5.684061050415039 L 82.71332550048828 20.91404914855957 C 84.36521911621094 22.56594276428223 85.65608978271484 24.49787330627441 86.55008697509766 26.65617942810059 C 87.444091796875 28.81447219848633 87.89738464355469 31.09334373474121 87.89738464355469 33.42947387695312 L 87.89736938476562 54.96792984008789 C 87.89736938476562 57.30406188964844 87.44407653808594 59.58293151855469 86.55008697509766 61.74122619628906 C 85.65608978271484 63.89953231811523 84.36521911621094 65.83145904541016 82.71332550048828 67.48334503173828 L 67.48333740234375 82.71335601806641 C 65.83142852783203 84.365234375 63.89950180053711 85.65610504150391 61.74119567871094 86.55009460449219 C 59.58290100097656 87.44409942626953 57.30403137207031 87.89739227294922 54.96791076660156 87.89739227294922 Z" stroke="none"/>
        <path d="M 33.42947769165039 1 C 31.15933609008789 1 28.94484329223633 1.440498352050781 26.84751129150391 2.309234619140625 C 24.75018310546875 3.177978515625 22.87284088134766 4.432380676269531 21.26761627197266 6.037612915039062 L 6.037605285644531 21.26759338378906 C 4.432380676269531 22.87281036376953 3.177986145019531 24.75016784667969 2.309226989746094 26.84749603271484 C 1.44049072265625 28.94482421875 0.9999923706054688 31.15932083129883 0.9999923706054688 33.42946243286133 L 0.9999923706054688 54.96791839599609 C 0.9999923706054688 57.2380485534668 1.44049072265625 59.45252990722656 2.309226989746094 61.54985809326172 C 3.177970886230469 63.64719009399414 4.432373046875 65.52454376220703 6.03759765625 67.12977600097656 L 21.26759338378906 82.35977935791016 C 22.87281799316406 83.96500396728516 24.75017166137695 85.21939849853516 26.84749984741211 86.08814239501953 C 28.94482803344727 86.95688629150391 31.15932464599609 87.39737701416016 33.4294548034668 87.39737701416016 L 54.96791076660156 87.39737701416016 C 57.23804092407227 87.39737701416016 59.45252227783203 86.95689392089844 61.54985046386719 86.08815765380859 C 63.64718246459961 85.21941375732422 65.52455139160156 83.96500396728516 67.12978363037109 82.35978698730469 L 82.35977172851562 67.12979125976562 C 83.96499633789062 65.52456665039062 85.21939086914062 63.64721298217773 86.088134765625 61.54988479614258 C 86.95687866210938 59.45255279541016 87.39736938476562 57.23805999755859 87.39736938476562 54.96792984008789 L 87.39736938476562 33.42947387695312 C 87.39736938476562 31.15934371948242 86.95687866210938 28.94485092163086 86.088134765625 26.84751892089844 C 85.21939086914062 24.75019073486328 83.96499633789062 22.87284088134766 82.35977172851562 21.26760101318359 L 67.12976837158203 6.037612915039062 C 65.5245361328125 4.432388305664062 63.64718246459961 3.177993774414062 61.54986572265625 2.309234619140625 C 59.45253753662109 1.440498352050781 57.23805236816406 1 54.96792221069336 1 L 33.42947769165039 1 M 33.42947769165039 0 L 54.96792221069336 0 C 59.79471206665039 1.52587890625e-05 64.42380523681641 1.917449951171875 67.83687591552734 5.33050537109375 L 83.06687927246094 20.56049346923828 C 86.47993469238281 23.97356414794922 88.39736938476562 28.6026725769043 88.39736938476562 33.42947387695312 L 88.39736938476562 54.96792984008789 C 88.39736938476562 59.79473114013672 86.47993469238281 64.42383575439453 83.06687927246094 67.83689880371094 L 67.83689117431641 83.06689453125 C 64.42380523681641 86.47994232177734 59.79470062255859 88.39737701416016 54.96791076660156 88.39737701416016 L 33.4294548034668 88.39737701416016 C 28.60265350341797 88.39737701416016 23.97354888916016 86.47994232177734 20.56048583984375 83.06688690185547 L 5.330490112304688 67.83688354492188 C 1.917427062988281 64.42381286621094 -7.62939453125e-06 59.79470825195312 -7.62939453125e-06 54.96791839599609 L -7.62939453125e-06 33.42946243286133 C 7.62939453125e-06 28.6026496887207 1.917442321777344 23.97354125976562 5.330497741699219 20.56048583984375 L 20.56050872802734 5.33050537109375 C 23.97355651855469 1.917434692382812 28.60266494750977 0 33.42947769165039 0 Z" stroke="none" fill="#020f1e"/>
      </g>
      <g id="Group_10943" data-name="Group 10943" transform="translate(16.695 16.507)">
        <path id="Path_46475" data-name="Path 46475" d="M34.831,53.394a19,19,0,1,1,19-19,19.019,19.019,0,0,1-19,19Zm0-36.241a17.241,17.241,0,1,0,17.2,17.241,17.241,17.241,0,0,0-17.2-17.241Z" transform="translate(-7.192 -7.028)" fill="#020f1e" stroke="#020f1e" stroke-width="0.3"/>
        <path id="Path_46476" data-name="Path 46476" d="M35.2,40.775a.91.91,0,0,1-.84-.541.854.854,0,0,1,.2-.955l3.645-3.515-3.645-3.515a.854.854,0,0,1,0-1.24.933.933,0,0,1,1.286,0l4.289,4.135a.855.855,0,0,1,0,1.239l-4.289,4.135A.927.927,0,0,1,35.2,40.775Zm-14.34,0a.927.927,0,0,1-.643-.257l-4.289-4.135a.855.855,0,0,1,0-1.239l4.289-4.135a.933.933,0,0,1,1.286,0,.855.855,0,0,1,0,1.24l-3.645,3.515,3.645,3.515a.854.854,0,0,1,.2.955A.91.91,0,0,1,20.864,40.775Zm5.17,3.754a.971.971,0,0,1-.216-.025.875.875,0,0,1-.667-1.06l4-15.769a.89.89,0,0,1,.626-.654.933.933,0,0,1,.9.212.856.856,0,0,1,.242.859l-4,15.769A.9.9,0,0,1,26.034,44.53Z" transform="translate(-0.395 -8.398)" fill="#020f1e" stroke="#020f1e" stroke-width="0.3"/>
      </g>
    </g>
    <g id="Group_10939" data-name="Group 10939" transform="translate(15866 6524.557)">
      <g id="Path_46469-3" data-name="Path 46469" transform="translate(-0.666 0)" fill="#fff">
        <path d="M 54.96791076660156 87.89739227294922 L 33.4294548034668 87.89739227294922 C 31.09332466125488 87.89739227294922 28.814453125 87.44409942626953 26.65615844726562 86.55009460449219 C 24.49785232543945 85.65609741210938 22.5659351348877 84.36522674560547 20.91404151916504 82.71333312988281 L 5.684053421020508 67.48332977294922 C 4.032159328460693 65.83143615722656 2.741288423538208 63.89950942993164 1.847288489341736 61.74120330810547 C 0.9532884955406189 59.5828971862793 0.5000061392784119 57.30403900146484 0.5000061392784119 54.96791839599609 L 0.5000061392784119 33.42946243286133 C 0.5000061392784119 31.09333229064941 0.9533002972602844 28.81446075439453 1.847300291061401 26.65616607666016 C 2.741300344467163 24.49785995483398 4.03217077255249 22.56593132019043 5.684064865112305 20.91403770446777 L 20.91405296325684 5.684061050415039 C 22.56584167480469 4.032272815704346 24.49778175354004 2.741425514221191 26.65619468688965 1.847378492355347 C 28.81461715698242 0.9533314108848572 31.09346580505371 0.5000137686729431 33.42942810058594 0.5000137686729431 L 54.96792221069336 0.5000137686729431 C 57.30404281616211 0.5000137686729431 59.58290100097656 0.9533079266548157 61.74120712280273 1.847307920455933 C 63.89950180053711 2.741296052932739 65.83142852783203 4.032166957855225 67.48332214355469 5.684061050415039 L 82.71332550048828 20.91404914855957 C 84.36521911621094 22.56594276428223 85.65608978271484 24.49787330627441 86.55008697509766 26.65617942810059 C 87.444091796875 28.81447219848633 87.89738464355469 31.09334373474121 87.89738464355469 33.42947387695312 L 87.89736938476562 54.96792984008789 C 87.89736938476562 57.30406188964844 87.44407653808594 59.58293151855469 86.55008697509766 61.74122619628906 C 85.65608978271484 63.89953231811523 84.36521911621094 65.83145904541016 82.71332550048828 67.48334503173828 L 67.48333740234375 82.71335601806641 C 65.83142852783203 84.365234375 63.89950180053711 85.65610504150391 61.74119567871094 86.55009460449219 C 59.58290100097656 87.44409942626953 57.30403137207031 87.89739227294922 54.96791076660156 87.89739227294922 Z" stroke="none"/>
        <path d="M 33.42947769165039 1 C 31.15933609008789 1 28.94484329223633 1.440498352050781 26.84751129150391 2.309234619140625 C 24.75018310546875 3.177978515625 22.87284088134766 4.432380676269531 21.26761627197266 6.037612915039062 L 6.037605285644531 21.26759338378906 C 4.432380676269531 22.87281036376953 3.177986145019531 24.75016784667969 2.309226989746094 26.84749603271484 C 1.44049072265625 28.94482421875 0.9999923706054688 31.15932083129883 0.9999923706054688 33.42946243286133 L 0.9999923706054688 54.96791839599609 C 0.9999923706054688 57.2380485534668 1.44049072265625 59.45252990722656 2.309226989746094 61.54985809326172 C 3.177970886230469 63.64719009399414 4.432373046875 65.52454376220703 6.03759765625 67.12977600097656 L 21.26759338378906 82.35977935791016 C 22.87281799316406 83.96500396728516 24.75017166137695 85.21939849853516 26.84749984741211 86.08814239501953 C 28.94482803344727 86.95688629150391 31.15932464599609 87.39737701416016 33.4294548034668 87.39737701416016 L 54.96791076660156 87.39737701416016 C 57.23804092407227 87.39737701416016 59.45252227783203 86.95689392089844 61.54985046386719 86.08815765380859 C 63.64718246459961 85.21941375732422 65.52455139160156 83.96500396728516 67.12978363037109 82.35978698730469 L 82.35977172851562 67.12979125976562 C 83.96499633789062 65.52456665039062 85.21939086914062 63.64721298217773 86.088134765625 61.54988479614258 C 86.95687866210938 59.45255279541016 87.39736938476562 57.23805999755859 87.39736938476562 54.96792984008789 L 87.39736938476562 33.42947387695312 C 87.39736938476562 31.15934371948242 86.95687866210938 28.94485092163086 86.088134765625 26.84751892089844 C 85.21939086914062 24.75019073486328 83.96499633789062 22.87284088134766 82.35977172851562 21.26760101318359 L 67.12976837158203 6.037612915039062 C 65.5245361328125 4.432388305664062 63.64718246459961 3.177993774414062 61.54986572265625 2.309234619140625 C 59.45253753662109 1.440498352050781 57.23805236816406 1 54.96792221069336 1 L 33.42947769165039 1 M 33.42947769165039 0 L 54.96792221069336 0 C 59.79471206665039 1.52587890625e-05 64.42380523681641 1.917449951171875 67.83687591552734 5.33050537109375 L 83.06687927246094 20.56049346923828 C 86.47993469238281 23.97356414794922 88.39736938476562 28.6026725769043 88.39736938476562 33.42947387695312 L 88.39736938476562 54.96792984008789 C 88.39736938476562 59.79473114013672 86.47993469238281 64.42383575439453 83.06687927246094 67.83689880371094 L 67.83689117431641 83.06689453125 C 64.42380523681641 86.47994232177734 59.79470062255859 88.39737701416016 54.96791076660156 88.39737701416016 L 33.4294548034668 88.39737701416016 C 28.60265350341797 88.39737701416016 23.97354888916016 86.47994232177734 20.56048583984375 83.06688690185547 L 5.330490112304688 67.83688354492188 C 1.917427062988281 64.42381286621094 -7.62939453125e-06 59.79470825195312 -7.62939453125e-06 54.96791839599609 L -7.62939453125e-06 33.42946243286133 C 7.62939453125e-06 28.6026496887207 1.917442321777344 23.97354125976562 5.330497741699219 20.56048583984375 L 20.56050872802734 5.33050537109375 C 23.97355651855469 1.917434692382812 28.60266494750977 0 33.42947769165039 0 Z" stroke="none" fill="#020f1e"/>
      </g>
      <g id="Mix_Chart_2" data-name="Mix Chart 2" transform="translate(22.834 20.547)">
        <path id="Path_46612" data-name="Path 46612" d="M.5,34.4H40.6M12.7,13.474h5.23V34.4H12.7ZM23.165,18.7H28.4V34.4h-5.23ZM33.626,6.5h5.23V34.4h-5.23ZM2.243,23.935h5.23V34.4H2.243Z" transform="translate(0 3.717)" fill="none" stroke="#020f1e" stroke-linecap="round" stroke-linejoin="round" stroke-width="2"/>
        <circle id="Ellipse_1810" data-name="Ellipse 1810" cx="1.5" cy="1.5" r="1.5" transform="translate(35.5 -0.5)" fill="#020f1e"/>
        <circle id="Ellipse_1811" data-name="Ellipse 1811" cx="1.5" cy="1.5" r="1.5" transform="translate(24.5 12.5)" fill="#020f1e"/>
        <circle id="Ellipse_1812" data-name="Ellipse 1812" cx="1.5" cy="1.5" r="1.5" transform="translate(13.5 7.5)" fill="#020f1e"/>
        <circle id="Ellipse_1813" data-name="Ellipse 1813" cx="1.5" cy="1.5" r="1.5" transform="translate(3.5 18.5)" fill="#020f1e"/>
        <path id="Path_46613" data-name="Path 46613" d="M3,19.435,13.461,8.974,23.922,14.2,34.382,2" transform="translate(1.859 0.372)" fill="none" stroke="#020f1e" stroke-linecap="round" stroke-linejoin="round" stroke-width="1"/>
      </g>
    </g>
    <g id="Group_10940" data-name="Group 10940" transform="translate(15865.334 6691.557)">
      <g id="Path_46469-4" data-name="Path 46469" transform="translate(0 0)" fill="#fff">
        <path d="M 54.96791076660156 87.89739227294922 L 33.4294548034668 87.89739227294922 C 31.09332466125488 87.89739227294922 28.814453125 87.44409942626953 26.65615844726562 86.55009460449219 C 24.49785232543945 85.65609741210938 22.5659351348877 84.36522674560547 20.91404151916504 82.71333312988281 L 5.684053421020508 67.48332977294922 C 4.032159328460693 65.83143615722656 2.741288423538208 63.89950942993164 1.847288489341736 61.74120330810547 C 0.9532884955406189 59.5828971862793 0.5000061392784119 57.30403900146484 0.5000061392784119 54.96791839599609 L 0.5000061392784119 33.42946243286133 C 0.5000061392784119 31.09333229064941 0.9533002972602844 28.81446075439453 1.847300291061401 26.65616607666016 C 2.741300344467163 24.49785995483398 4.03217077255249 22.56593132019043 5.684064865112305 20.91403770446777 L 20.91405296325684 5.684061050415039 C 22.56584167480469 4.032272815704346 24.49778175354004 2.741425514221191 26.65619468688965 1.847378492355347 C 28.81461715698242 0.9533314108848572 31.09346580505371 0.5000137686729431 33.42942810058594 0.5000137686729431 L 54.96792221069336 0.5000137686729431 C 57.30404281616211 0.5000137686729431 59.58290100097656 0.9533079266548157 61.74120712280273 1.847307920455933 C 63.89950180053711 2.741296052932739 65.83142852783203 4.032166957855225 67.48332214355469 5.684061050415039 L 82.71332550048828 20.91404914855957 C 84.36521911621094 22.56594276428223 85.65608978271484 24.49787330627441 86.55008697509766 26.65617942810059 C 87.444091796875 28.81447219848633 87.89738464355469 31.09334373474121 87.89738464355469 33.42947387695312 L 87.89736938476562 54.96792984008789 C 87.89736938476562 57.30406188964844 87.44407653808594 59.58293151855469 86.55008697509766 61.74122619628906 C 85.65608978271484 63.89953231811523 84.36521911621094 65.83145904541016 82.71332550048828 67.48334503173828 L 67.48333740234375 82.71335601806641 C 65.83142852783203 84.365234375 63.89950180053711 85.65610504150391 61.74119567871094 86.55009460449219 C 59.58290100097656 87.44409942626953 57.30403137207031 87.89739227294922 54.96791076660156 87.89739227294922 Z" stroke="none"/>
        <path d="M 33.42947769165039 1 C 31.15933609008789 1 28.94484329223633 1.440498352050781 26.84751129150391 2.309234619140625 C 24.75018310546875 3.177978515625 22.87284088134766 4.432380676269531 21.26761627197266 6.037612915039062 L 6.037605285644531 21.26759338378906 C 4.432380676269531 22.87281036376953 3.177986145019531 24.75016784667969 2.309226989746094 26.84749603271484 C 1.44049072265625 28.94482421875 0.9999923706054688 31.15932083129883 0.9999923706054688 33.42946243286133 L 0.9999923706054688 54.96791839599609 C 0.9999923706054688 57.2380485534668 1.44049072265625 59.45252990722656 2.309226989746094 61.54985809326172 C 3.177970886230469 63.64719009399414 4.432373046875 65.52454376220703 6.03759765625 67.12977600097656 L 21.26759338378906 82.35977935791016 C 22.87281799316406 83.96500396728516 24.75017166137695 85.21939849853516 26.84749984741211 86.08814239501953 C 28.94482803344727 86.95688629150391 31.15932464599609 87.39737701416016 33.4294548034668 87.39737701416016 L 54.96791076660156 87.39737701416016 C 57.23804092407227 87.39737701416016 59.45252227783203 86.95689392089844 61.54985046386719 86.08815765380859 C 63.64718246459961 85.21941375732422 65.52455139160156 83.96500396728516 67.12978363037109 82.35978698730469 L 82.35977172851562 67.12979125976562 C 83.96499633789062 65.52456665039062 85.21939086914062 63.64721298217773 86.088134765625 61.54988479614258 C 86.95687866210938 59.45255279541016 87.39736938476562 57.23805999755859 87.39736938476562 54.96792984008789 L 87.39736938476562 33.42947387695312 C 87.39736938476562 31.15934371948242 86.95687866210938 28.94485092163086 86.088134765625 26.84751892089844 C 85.21939086914062 24.75019073486328 83.96499633789062 22.87284088134766 82.35977172851562 21.26760101318359 L 67.12976837158203 6.037612915039062 C 65.5245361328125 4.432388305664062 63.64718246459961 3.177993774414062 61.54986572265625 2.309234619140625 C 59.45253753662109 1.440498352050781 57.23805236816406 1 54.96792221069336 1 L 33.42947769165039 1 M 33.42947769165039 0 L 54.96792221069336 0 C 59.79471206665039 1.52587890625e-05 64.42380523681641 1.917449951171875 67.83687591552734 5.33050537109375 L 83.06687927246094 20.56049346923828 C 86.47993469238281 23.97356414794922 88.39736938476562 28.6026725769043 88.39736938476562 33.42947387695312 L 88.39736938476562 54.96792984008789 C 88.39736938476562 59.79473114013672 86.47993469238281 64.42383575439453 83.06687927246094 67.83689880371094 L 67.83689117431641 83.06689453125 C 64.42380523681641 86.47994232177734 59.79470062255859 88.39737701416016 54.96791076660156 88.39737701416016 L 33.4294548034668 88.39737701416016 C 28.60265350341797 88.39737701416016 23.97354888916016 86.47994232177734 20.56048583984375 83.06688690185547 L 5.330490112304688 67.83688354492188 C 1.917427062988281 64.42381286621094 -7.62939453125e-06 59.79470825195312 -7.62939453125e-06 54.96791839599609 L -7.62939453125e-06 33.42946243286133 C 7.62939453125e-06 28.6026496887207 1.917442321777344 23.97354125976562 5.330497741699219 20.56048583984375 L 20.56050872802734 5.33050537109375 C 23.97355651855469 1.917434692382812 28.60266494750977 0 33.42947769165039 0 Z" stroke="none" fill="#020f1e"/>
      </g>
      <g id="Group_10941" data-name="Group 10941" transform="translate(22.82 25.796)">
        <path id="Path_46470" data-name="Path 46470" d="M264.106,1130.768H232.335a5.454,5.454,0,0,1-4.578-8.411l15.886-24.649a5.445,5.445,0,0,1,9.156,0l15.886,24.649a5.455,5.455,0,0,1-4.578,8.411Zm-19.582-32.491-15.886,24.649a4.4,4.4,0,0,0,3.7,6.791h31.771a4.4,4.4,0,0,0,3.7-6.791l-15.885-24.649a4.4,4.4,0,0,0-7.392,0Z" transform="translate(-226.874 -1095.21)" fill="#020f1e" stroke="#020f1e" stroke-width="1"/>
        <path id="Path_46471" data-name="Path 46471" d="M956.518,1439.048a1.649,1.649,0,1,1-1.649-1.651A1.65,1.65,0,0,1,956.518,1439.048Zm.372-18.722-.755,13.971a.839.839,0,0,1-.518.742,1.972,1.972,0,0,1-1.457.019.828.828,0,0,1-.509-.782v-13.244a.915.915,0,0,1,1-.912Z" transform="translate(-933.709 -1411.51)" fill="#020f1e" stroke="#020f1e" stroke-width="1"/>
      </g>
    </g>
    <g id="Group_10937-2" data-name="Group 10937" transform="translate(16451.938 6260.168)">
      <g id="Path_46469-5" data-name="Path 46469" transform="translate(0.396 0.389)" fill="#fff">
        <path d="M 54.96791076660156 87.89739227294922 L 33.4294548034668 87.89739227294922 C 31.09332466125488 87.89739227294922 28.814453125 87.44409942626953 26.65615844726562 86.55009460449219 C 24.49785232543945 85.65609741210938 22.5659351348877 84.36522674560547 20.91404151916504 82.71333312988281 L 5.684053421020508 67.48332977294922 C 4.032159328460693 65.83143615722656 2.741288423538208 63.89950942993164 1.847288489341736 61.74120330810547 C 0.9532884955406189 59.5828971862793 0.5000061392784119 57.30403900146484 0.5000061392784119 54.96791839599609 L 0.5000061392784119 33.42946243286133 C 0.5000061392784119 31.09333229064941 0.9533002972602844 28.81446075439453 1.847300291061401 26.65616607666016 C 2.741300344467163 24.49785995483398 4.03217077255249 22.56593132019043 5.684064865112305 20.91403770446777 L 20.91405296325684 5.684061050415039 C 22.56584167480469 4.032272815704346 24.49778175354004 2.741425514221191 26.65619468688965 1.847378492355347 C 28.81461715698242 0.9533314108848572 31.09346580505371 0.5000137686729431 33.42942810058594 0.5000137686729431 L 54.96792221069336 0.5000137686729431 C 57.30404281616211 0.5000137686729431 59.58290100097656 0.9533079266548157 61.74120712280273 1.847307920455933 C 63.89950180053711 2.741296052932739 65.83142852783203 4.032166957855225 67.48332214355469 5.684061050415039 L 82.71332550048828 20.91404914855957 C 84.36521911621094 22.56594276428223 85.65608978271484 24.49787330627441 86.55008697509766 26.65617942810059 C 87.444091796875 28.81447219848633 87.89738464355469 31.09334373474121 87.89738464355469 33.42947387695312 L 87.89736938476562 54.96792984008789 C 87.89736938476562 57.30406188964844 87.44407653808594 59.58293151855469 86.55008697509766 61.74122619628906 C 85.65608978271484 63.89953231811523 84.36521911621094 65.83145904541016 82.71332550048828 67.48334503173828 L 67.48333740234375 82.71335601806641 C 65.83142852783203 84.365234375 63.89950180053711 85.65610504150391 61.74119567871094 86.55009460449219 C 59.58290100097656 87.44409942626953 57.30403137207031 87.89739227294922 54.96791076660156 87.89739227294922 Z" stroke="none"/>
        <path d="M 33.42947769165039 1 C 31.15933609008789 1 28.94484329223633 1.440498352050781 26.84751129150391 2.309234619140625 C 24.75018310546875 3.177978515625 22.87284088134766 4.432380676269531 21.26761627197266 6.037612915039062 L 6.037605285644531 21.26759338378906 C 4.432380676269531 22.87281036376953 3.177986145019531 24.75016784667969 2.309226989746094 26.84749603271484 C 1.44049072265625 28.94482421875 0.9999923706054688 31.15932083129883 0.9999923706054688 33.42946243286133 L 0.9999923706054688 54.96791839599609 C 0.9999923706054688 57.2380485534668 1.44049072265625 59.45252990722656 2.309226989746094 61.54985809326172 C 3.177970886230469 63.64719009399414 4.432373046875 65.52454376220703 6.03759765625 67.12977600097656 L 21.26759338378906 82.35977935791016 C 22.87281799316406 83.96500396728516 24.75017166137695 85.21939849853516 26.84749984741211 86.08814239501953 C 28.94482803344727 86.95688629150391 31.15932464599609 87.39737701416016 33.4294548034668 87.39737701416016 L 54.96791076660156 87.39737701416016 C 57.23804092407227 87.39737701416016 59.45252227783203 86.95689392089844 61.54985046386719 86.08815765380859 C 63.64718246459961 85.21941375732422 65.52455139160156 83.96500396728516 67.12978363037109 82.35978698730469 L 82.35977172851562 67.12979125976562 C 83.96499633789062 65.52456665039062 85.21939086914062 63.64721298217773 86.088134765625 61.54988479614258 C 86.95687866210938 59.45255279541016 87.39736938476562 57.23805999755859 87.39736938476562 54.96792984008789 L 87.39736938476562 33.42947387695312 C 87.39736938476562 31.15934371948242 86.95687866210938 28.94485092163086 86.088134765625 26.84751892089844 C 85.21939086914062 24.75019073486328 83.96499633789062 22.87284088134766 82.35977172851562 21.26760101318359 L 67.12976837158203 6.037612915039062 C 65.5245361328125 4.432388305664062 63.64718246459961 3.177993774414062 61.54986572265625 2.309234619140625 C 59.45253753662109 1.440498352050781 57.23805236816406 1 54.96792221069336 1 L 33.42947769165039 1 M 33.42947769165039 0 L 54.96792221069336 0 C 59.79471206665039 1.52587890625e-05 64.42380523681641 1.917449951171875 67.83687591552734 5.33050537109375 L 83.06687927246094 20.56049346923828 C 86.47993469238281 23.97356414794922 88.39736938476562 28.6026725769043 88.39736938476562 33.42947387695312 L 88.39736938476562 54.96792984008789 C 88.39736938476562 59.79473114013672 86.47993469238281 64.42383575439453 83.06687927246094 67.83689880371094 L 67.83689117431641 83.06689453125 C 64.42380523681641 86.47994232177734 59.79470062255859 88.39737701416016 54.96791076660156 88.39737701416016 L 33.4294548034668 88.39737701416016 C 28.60265350341797 88.39737701416016 23.97354888916016 86.47994232177734 20.56048583984375 83.06688690185547 L 5.330490112304688 67.83688354492188 C 1.917427062988281 64.42381286621094 -7.62939453125e-06 59.79470825195312 -7.62939453125e-06 54.96791839599609 L -7.62939453125e-06 33.42946243286133 C 7.62939453125e-06 28.6026496887207 1.917442321777344 23.97354125976562 5.330497741699219 20.56048583984375 L 20.56050872802734 5.33050537109375 C 23.97355651855469 1.917434692382812 28.60266494750977 0 33.42947769165039 0 Z" stroke="none" fill="#020f1e"/>
      </g>
      <g id="noun-notification-2139037" transform="translate(9.464 11.389)">
        <path id="Path_46614" data-name="Path 46614" d="M37.328,17.593a.769.769,0,0,0,.325.108,1.081,1.081,0,0,0,.812-2,.326.326,0,0,0-.217-.054v-.108A4.419,4.419,0,0,0,34.026,11.1a4.083,4.083,0,0,0-3.14,1.245,4.126,4.126,0,0,0-1.3,3.032v.217a12.4,12.4,0,0,0-8.121,11.64l-.217,2.761a25.271,25.271,0,0,1-2.815,9.8,4.147,4.147,0,0,0-2.49,1.516,4.361,4.361,0,0,0-.975,3.357A4.406,4.406,0,0,0,19.408,48.4H48.373a4.489,4.489,0,0,0,4.439-3.736,4.16,4.16,0,0,0-.975-3.357,4.606,4.606,0,0,0-2.49-1.516c-.812-1.354-2.22-4.494-2.815-9.8L46.37,27.23a1.084,1.084,0,1,0-2.166.108l.217,2.869a29.835,29.835,0,0,0,2.49,9.529H20.978a31.365,31.365,0,0,0,2.49-9.529l.217-2.815v-.054A10.282,10.282,0,0,1,30.453,17.7a2.124,2.124,0,0,0,1.354-2v-.325a2.168,2.168,0,0,1,.65-1.57,2.127,2.127,0,0,1,1.516-.6,2.3,2.3,0,0,1,2.111,2.274V15.7A1.87,1.87,0,0,0,37.328,17.593ZM50.214,42.714a2.366,2.366,0,0,1,.487,1.678,2.233,2.233,0,0,1-2.274,1.841H19.408a2.283,2.283,0,0,1-2.274-1.841,2.137,2.137,0,0,1,.487-1.678,2.068,2.068,0,0,1,1.516-.758H48.644A1.925,1.925,0,0,1,50.214,42.714Z" transform="translate(0 -0.501)" fill="#020f1e"/>
        <path id="Path_46615" data-name="Path 46615" d="M42.811,83.133A1.042,1.042,0,0,0,41.837,82,1.054,1.054,0,0,0,40.7,83.025V83.3a5.109,5.109,0,0,0,10.178,0v-.325l-1.083.054-1.083.108v.108a2.8,2.8,0,0,1-2.978,2.545,2.706,2.706,0,0,1-2.924-2.49v-.162Z" transform="translate(-11.817 -33.016)" fill="#020f1e"/>
        <path id="Path_46616" data-name="Path 46616" d="M69.038,10a7.038,7.038,0,1,0,7.038,7.038A7.024,7.024,0,0,0,69.038,10Zm0,11.911a4.873,4.873,0,1,1,4.873-4.873A4.852,4.852,0,0,1,69.038,21.911Z" transform="translate(-21.586)" fill="#020f1e"/>
      </g>
    </g>
    <g id="Group_10938-2" data-name="Group 10938" transform="translate(16451.938 6441.593)">
      <g id="Path_46469-6" data-name="Path 46469" transform="translate(0 0)" fill="#fff">
        <path d="M 54.96791076660156 87.89739227294922 L 33.4294548034668 87.89739227294922 C 31.09332466125488 87.89739227294922 28.814453125 87.44409942626953 26.65615844726562 86.55009460449219 C 24.49785232543945 85.65609741210938 22.5659351348877 84.36522674560547 20.91404151916504 82.71333312988281 L 5.684053421020508 67.48332977294922 C 4.032159328460693 65.83143615722656 2.741288423538208 63.89950942993164 1.847288489341736 61.74120330810547 C 0.9532884955406189 59.5828971862793 0.5000061392784119 57.30403900146484 0.5000061392784119 54.96791839599609 L 0.5000061392784119 33.42946243286133 C 0.5000061392784119 31.09333229064941 0.9533002972602844 28.81446075439453 1.847300291061401 26.65616607666016 C 2.741300344467163 24.49785995483398 4.03217077255249 22.56593132019043 5.684064865112305 20.91403770446777 L 20.91405296325684 5.684061050415039 C 22.56584167480469 4.032272815704346 24.49778175354004 2.741425514221191 26.65619468688965 1.847378492355347 C 28.81461715698242 0.9533314108848572 31.09346580505371 0.5000137686729431 33.42942810058594 0.5000137686729431 L 54.96792221069336 0.5000137686729431 C 57.30404281616211 0.5000137686729431 59.58290100097656 0.9533079266548157 61.74120712280273 1.847307920455933 C 63.89950180053711 2.741296052932739 65.83142852783203 4.032166957855225 67.48332214355469 5.684061050415039 L 82.71332550048828 20.91404914855957 C 84.36521911621094 22.56594276428223 85.65608978271484 24.49787330627441 86.55008697509766 26.65617942810059 C 87.444091796875 28.81447219848633 87.89738464355469 31.09334373474121 87.89738464355469 33.42947387695312 L 87.89736938476562 54.96792984008789 C 87.89736938476562 57.30406188964844 87.44407653808594 59.58293151855469 86.55008697509766 61.74122619628906 C 85.65608978271484 63.89953231811523 84.36521911621094 65.83145904541016 82.71332550048828 67.48334503173828 L 67.48333740234375 82.71335601806641 C 65.83142852783203 84.365234375 63.89950180053711 85.65610504150391 61.74119567871094 86.55009460449219 C 59.58290100097656 87.44409942626953 57.30403137207031 87.89739227294922 54.96791076660156 87.89739227294922 Z" stroke="none"/>
        <path d="M 33.42947769165039 1 C 31.15933609008789 1 28.94484329223633 1.440498352050781 26.84751129150391 2.309234619140625 C 24.75018310546875 3.177978515625 22.87284088134766 4.432380676269531 21.26761627197266 6.037612915039062 L 6.037605285644531 21.26759338378906 C 4.432380676269531 22.87281036376953 3.177986145019531 24.75016784667969 2.309226989746094 26.84749603271484 C 1.44049072265625 28.94482421875 0.9999923706054688 31.15932083129883 0.9999923706054688 33.42946243286133 L 0.9999923706054688 54.96791839599609 C 0.9999923706054688 57.2380485534668 1.44049072265625 59.45252990722656 2.309226989746094 61.54985809326172 C 3.177970886230469 63.64719009399414 4.432373046875 65.52454376220703 6.03759765625 67.12977600097656 L 21.26759338378906 82.35977935791016 C 22.87281799316406 83.96500396728516 24.75017166137695 85.21939849853516 26.84749984741211 86.08814239501953 C 28.94482803344727 86.95688629150391 31.15932464599609 87.39737701416016 33.4294548034668 87.39737701416016 L 54.96791076660156 87.39737701416016 C 57.23804092407227 87.39737701416016 59.45252227783203 86.95689392089844 61.54985046386719 86.08815765380859 C 63.64718246459961 85.21941375732422 65.52455139160156 83.96500396728516 67.12978363037109 82.35978698730469 L 82.35977172851562 67.12979125976562 C 83.96499633789062 65.52456665039062 85.21939086914062 63.64721298217773 86.088134765625 61.54988479614258 C 86.95687866210938 59.45255279541016 87.39736938476562 57.23805999755859 87.39736938476562 54.96792984008789 L 87.39736938476562 33.42947387695312 C 87.39736938476562 31.15934371948242 86.95687866210938 28.94485092163086 86.088134765625 26.84751892089844 C 85.21939086914062 24.75019073486328 83.96499633789062 22.87284088134766 82.35977172851562 21.26760101318359 L 67.12976837158203 6.037612915039062 C 65.5245361328125 4.432388305664062 63.64718246459961 3.177993774414062 61.54986572265625 2.309234619140625 C 59.45253753662109 1.440498352050781 57.23805236816406 1 54.96792221069336 1 L 33.42947769165039 1 M 33.42947769165039 0 L 54.96792221069336 0 C 59.79471206665039 1.52587890625e-05 64.42380523681641 1.917449951171875 67.83687591552734 5.33050537109375 L 83.06687927246094 20.56049346923828 C 86.47993469238281 23.97356414794922 88.39736938476562 28.6026725769043 88.39736938476562 33.42947387695312 L 88.39736938476562 54.96792984008789 C 88.39736938476562 59.79473114013672 86.47993469238281 64.42383575439453 83.06687927246094 67.83689880371094 L 67.83689117431641 83.06689453125 C 64.42380523681641 86.47994232177734 59.79470062255859 88.39737701416016 54.96791076660156 88.39737701416016 L 33.4294548034668 88.39737701416016 C 28.60265350341797 88.39737701416016 23.97354888916016 86.47994232177734 20.56048583984375 83.06688690185547 L 5.330490112304688 67.83688354492188 C 1.917427062988281 64.42381286621094 -7.62939453125e-06 59.79470825195312 -7.62939453125e-06 54.96791839599609 L -7.62939453125e-06 33.42946243286133 C 7.62939453125e-06 28.6026496887207 1.917442321777344 23.97354125976562 5.330497741699219 20.56048583984375 L 20.56050872802734 5.33050537109375 C 23.97355651855469 1.917434692382812 28.60266494750977 0 33.42947769165039 0 Z" stroke="none" fill="#020f1e"/>
      </g>
      <g id="setting" transform="translate(22.82 20.977)">
        <path id="Path_46477" data-name="Path 46477" d="M42.937,13.635l-1.5-2.6a4.6,4.6,0,0,0-6.274-1.7h0a4.579,4.579,0,0,1-6.274-1.629,4.405,4.405,0,0,1-.616-2.2h0a4.6,4.6,0,0,0-4.6-4.733H20.657a4.579,4.579,0,0,0-4.579,4.6h0a4.6,4.6,0,0,1-4.6,4.535,4.4,4.4,0,0,1-2.2-.616h0A4.6,4.6,0,0,0,3,10.993L1.394,13.635a4.6,4.6,0,0,0,1.673,6.274h0a4.6,4.6,0,0,1,0,7.97h0a4.579,4.579,0,0,0-1.673,6.252h0l1.519,2.62a4.6,4.6,0,0,0,6.274,1.783h0a4.557,4.557,0,0,1,6.252,1.673,4.4,4.4,0,0,1,.616,2.2h0a4.6,4.6,0,0,0,4.6,4.6h3.016a4.6,4.6,0,0,0,4.6-4.579h0a4.579,4.579,0,0,1,4.6-4.6,4.687,4.687,0,0,1,2.2.616h0a4.6,4.6,0,0,0,6.274-1.673h0l1.585-2.642a4.579,4.579,0,0,0-1.673-6.274h0a4.579,4.579,0,0,1-1.673-6.274,4.514,4.514,0,0,1,1.673-1.673h0a4.6,4.6,0,0,0,1.673-6.252h0Z" transform="translate(-0.779 -0.778)" fill="none" stroke="#020f1e" stroke-linecap="round" stroke-linejoin="round" stroke-width="2" fill-rule="evenodd"/>
        <circle id="Ellipse_1794" data-name="Ellipse 1794" cx="6.34" cy="6.34" r="6.34" transform="translate(15.058 16.776)" fill="none" stroke="#020f1e" stroke-linecap="round" stroke-linejoin="round" stroke-width="2"/>
      </g>
    </g>
    <g id="Group_10939-2" data-name="Group 10939" transform="translate(16451.938 6622.875)">
      <g id="Path_46469-7" data-name="Path 46469" transform="translate(-0.604 -0.319)" fill="#fff">
        <path d="M 54.96791076660156 87.89739227294922 L 33.4294548034668 87.89739227294922 C 31.09332466125488 87.89739227294922 28.814453125 87.44409942626953 26.65615844726562 86.55009460449219 C 24.49785232543945 85.65609741210938 22.5659351348877 84.36522674560547 20.91404151916504 82.71333312988281 L 5.684053421020508 67.48332977294922 C 4.032159328460693 65.83143615722656 2.741288423538208 63.89950942993164 1.847288489341736 61.74120330810547 C 0.9532884955406189 59.5828971862793 0.5000061392784119 57.30403900146484 0.5000061392784119 54.96791839599609 L 0.5000061392784119 33.42946243286133 C 0.5000061392784119 31.09333229064941 0.9533002972602844 28.81446075439453 1.847300291061401 26.65616607666016 C 2.741300344467163 24.49785995483398 4.03217077255249 22.56593132019043 5.684064865112305 20.91403770446777 L 20.91405296325684 5.684061050415039 C 22.56584167480469 4.032272815704346 24.49778175354004 2.741425514221191 26.65619468688965 1.847378492355347 C 28.81461715698242 0.9533314108848572 31.09346580505371 0.5000137686729431 33.42942810058594 0.5000137686729431 L 54.96792221069336 0.5000137686729431 C 57.30404281616211 0.5000137686729431 59.58290100097656 0.9533079266548157 61.74120712280273 1.847307920455933 C 63.89950180053711 2.741296052932739 65.83142852783203 4.032166957855225 67.48332214355469 5.684061050415039 L 82.71332550048828 20.91404914855957 C 84.36521911621094 22.56594276428223 85.65608978271484 24.49787330627441 86.55008697509766 26.65617942810059 C 87.444091796875 28.81447219848633 87.89738464355469 31.09334373474121 87.89738464355469 33.42947387695312 L 87.89736938476562 54.96792984008789 C 87.89736938476562 57.30406188964844 87.44407653808594 59.58293151855469 86.55008697509766 61.74122619628906 C 85.65608978271484 63.89953231811523 84.36521911621094 65.83145904541016 82.71332550048828 67.48334503173828 L 67.48333740234375 82.71335601806641 C 65.83142852783203 84.365234375 63.89950180053711 85.65610504150391 61.74119567871094 86.55009460449219 C 59.58290100097656 87.44409942626953 57.30403137207031 87.89739227294922 54.96791076660156 87.89739227294922 Z" stroke="none"/>
        <path d="M 33.42947769165039 1 C 31.15933609008789 1 28.94484329223633 1.440498352050781 26.84751129150391 2.309234619140625 C 24.75018310546875 3.177978515625 22.87284088134766 4.432380676269531 21.26761627197266 6.037612915039062 L 6.037605285644531 21.26759338378906 C 4.432380676269531 22.87281036376953 3.177986145019531 24.75016784667969 2.309226989746094 26.84749603271484 C 1.44049072265625 28.94482421875 0.9999923706054688 31.15932083129883 0.9999923706054688 33.42946243286133 L 0.9999923706054688 54.96791839599609 C 0.9999923706054688 57.2380485534668 1.44049072265625 59.45252990722656 2.309226989746094 61.54985809326172 C 3.177970886230469 63.64719009399414 4.432373046875 65.52454376220703 6.03759765625 67.12977600097656 L 21.26759338378906 82.35977935791016 C 22.87281799316406 83.96500396728516 24.75017166137695 85.21939849853516 26.84749984741211 86.08814239501953 C 28.94482803344727 86.95688629150391 31.15932464599609 87.39737701416016 33.4294548034668 87.39737701416016 L 54.96791076660156 87.39737701416016 C 57.23804092407227 87.39737701416016 59.45252227783203 86.95689392089844 61.54985046386719 86.08815765380859 C 63.64718246459961 85.21941375732422 65.52455139160156 83.96500396728516 67.12978363037109 82.35978698730469 L 82.35977172851562 67.12979125976562 C 83.96499633789062 65.52456665039062 85.21939086914062 63.64721298217773 86.088134765625 61.54988479614258 C 86.95687866210938 59.45255279541016 87.39736938476562 57.23805999755859 87.39736938476562 54.96792984008789 L 87.39736938476562 33.42947387695312 C 87.39736938476562 31.15934371948242 86.95687866210938 28.94485092163086 86.088134765625 26.84751892089844 C 85.21939086914062 24.75019073486328 83.96499633789062 22.87284088134766 82.35977172851562 21.26760101318359 L 67.12976837158203 6.037612915039062 C 65.5245361328125 4.432388305664062 63.64718246459961 3.177993774414062 61.54986572265625 2.309234619140625 C 59.45253753662109 1.440498352050781 57.23805236816406 1 54.96792221069336 1 L 33.42947769165039 1 M 33.42947769165039 0 L 54.96792221069336 0 C 59.79471206665039 1.52587890625e-05 64.42380523681641 1.917449951171875 67.83687591552734 5.33050537109375 L 83.06687927246094 20.56049346923828 C 86.47993469238281 23.97356414794922 88.39736938476562 28.6026725769043 88.39736938476562 33.42947387695312 L 88.39736938476562 54.96792984008789 C 88.39736938476562 59.79473114013672 86.47993469238281 64.42383575439453 83.06687927246094 67.83689880371094 L 67.83689117431641 83.06689453125 C 64.42380523681641 86.47994232177734 59.79470062255859 88.39737701416016 54.96791076660156 88.39737701416016 L 33.4294548034668 88.39737701416016 C 28.60265350341797 88.39737701416016 23.97354888916016 86.47994232177734 20.56048583984375 83.06688690185547 L 5.330490112304688 67.83688354492188 C 1.917427062988281 64.42381286621094 -7.62939453125e-06 59.79470825195312 -7.62939453125e-06 54.96791839599609 L -7.62939453125e-06 33.42946243286133 C 7.62939453125e-06 28.6026496887207 1.917442321777344 23.97354125976562 5.330497741699219 20.56048583984375 L 20.56050872802734 5.33050537109375 C 23.97355651855469 1.917434692382812 28.60266494750977 0 33.42947769165039 0 Z" stroke="none" fill="#020f1e"/>
      </g>
      <g id="noun-history-4597973" transform="translate(19.676 22.681)">
        <g id="Layer_20" data-name="Layer 20" transform="translate(3.722 2)">
          <path id="Path_46611" data-name="Path 46611" d="M41.078,21.539A19.539,19.539,0,1,1,21.539,2C26.191,2,30.248,3.079,35.5,8.122V5.07a.93.93,0,0,1,1.861,0v5.21a.912.912,0,0,1-1.023,1h-5.21a.93.93,0,1,1,0-1.861h3.07c-4.8-4.6-8.467-5.583-12.654-5.583a17.678,17.678,0,1,0,17.678,17.7,17.473,17.473,0,0,0-.893-5.583.949.949,0,0,1,.6-1.172.93.93,0,0,1,1.172.6A19.427,19.427,0,0,1,41.078,21.539ZM21.539,9.443a.93.93,0,0,0-.93.93V21.93l5.862,5.843a.921.921,0,1,0,1.3-1.3l-5.3-5.322V10.374A.93.93,0,0,0,21.539,9.443Z" transform="translate(-2 -2)" fill="#020f1e"/>
        </g>
      </g>
    </g>
  </g>
</svg>
