<svg xmlns="http://www.w3.org/2000/svg" xmlns:xlink="http://www.w3.org/1999/xlink" width="614.408" height="626.981" viewBox="0 0 614.408 626.981">
  <defs>
    <clipPath id="clip-path">
      <rect id="Rectangle_1" data-name="Rectangle 1" width="38.466" height="48.544" fill="#f88136"/>
    </clipPath>
    <clipPath id="clip-path-2">
      <rect id="Rectangle_361" data-name="Rectangle 361" width="275.276" height="174.719" fill="none"/>
    </clipPath>
    <linearGradient id="linear-gradient" x1="0.32" y1="0.177" x2="0.668" y2="1.031" gradientUnits="objectBoundingBox">
      <stop offset="0" stop-color="#d1d7f3"/>
      <stop offset="0.3" stop-color="#e4e7f8"/>
      <stop offset="0.72" stop-color="#f8f9fd"/>
      <stop offset="1" stop-color="#fff"/>
    </linearGradient>
    <linearGradient id="linear-gradient-2" x1="0.32" y1="0.177" x2="0.668" y2="1.031" xlink:href="#linear-gradient"/>
    <linearGradient id="linear-gradient-3" x1="0.32" y1="0.177" x2="0.668" y2="1.031" xlink:href="#linear-gradient"/>
    <linearGradient id="linear-gradient-4" x1="0.32" y1="0.177" x2="0.668" y2="1.031" xlink:href="#linear-gradient"/>
  </defs>
  <g id="Capten-img3" transform="translate(-1119.1 -2179.462)">
    <g id="Group_7171" data-name="Group 7171" transform="translate(1119.6 2180)">
      <g id="Group_7172" data-name="Group 7172" transform="translate(9.974 0)">
        <g id="Group_8_copy" data-name="Group 8 copy" transform="translate(0 0)" opacity="0">
          <path id="Rectangle_3" data-name="Rectangle 3" d="M985.712,618.727c15.909-38.467,46.134-68.508,80.021-87.213,7.544,88.023,4.5,128.9,0,161.149-29.286,26.244-55.214,60.645-80.021,101.773C982.824,730.888,985.925,689.215,985.712,618.727Z" transform="translate(-984.474 -472.302)" fill="rgba(2,15,30,0.4)" stroke="#020f1e" stroke-width="1"/>
          <path id="Rectangle_3_copy" data-name="Rectangle 3 copy" d="M1022.555,540.491c66.157-34.945,137.84-54.21,204.5-59.174-.035,52.247-.029,110.525,0,162.89-85.421-5.743-204.5,58.073-204.5,58.073S1023.3,627.406,1022.555,540.491Z" transform="translate(-941.433 -481.317)" fill="#fff" stroke="#020f1e" stroke-width="1"/>
          <g id="Group_7173" data-name="Group 7173" transform="translate(9.098 101.616)">
            <path id="Rectangle_4" data-name="Rectangle 4" d="M983.9,564.867q3.085-5.249,6.514-10.245.687,9.982,1.261,19.477-3.559,4.652-6.816,9.467Q984.432,574.4,983.9,564.867Z" transform="translate(-983.902 -511.739)" fill="none" stroke="#fff" stroke-width="1"/>
            <path id="Rectangle_4_copy" data-name="Rectangle 4 copy" d="M984.478,575.931q3.323-4.662,6.94-9.2.533,9.308.973,18.185-3.736,4.318-7.216,8.7Q984.865,584.936,984.478,575.931Z" transform="translate(-983.169 -496.315)" fill="none" stroke="#fff" stroke-width="1"/>
            <path id="Rectangle_5" data-name="Rectangle 5" d="M.04,45.216c-.223-3.143.514-6.969,1.694-8.464s2.369-.041,2.613,3.159-.561,6.9-1.76,8.337a1.319,1.319,0,0,1-.949.578C.841,48.827.2,47.5.04,45.216Zm7.04-9.281c-.221-2.823.466-6.179,1.573-7.427A213.909,213.909,0,0,1,39.31.313c1.352-1.027,2.676.561,2.93,3.47s-.657,6.048-2,7.081A235.751,235.751,0,0,0,9.482,38.8a1.194,1.194,0,0,1-.842.463C7.871,39.261,7.245,38.031,7.08,35.936Z" transform="translate(11.65 0)" fill="none" stroke="#fff" stroke-width="1"/>
            <path id="Rectangle_5_copy" data-name="Rectangle 5 copy" d="M.028,43.922c-.19-2.981.606-6.6,1.817-8.012s2.394-.049,2.6,2.975S3.8,45.418,2.571,46.791a1.376,1.376,0,0,1-.97.553C.8,47.344.166,46.089.028,43.922ZM7.25,35.094c-.19-2.662.542-5.839,1.67-7.034A260.612,260.612,0,0,1,39.771.339c1.348-1.035,2.643.385,2.866,3.1s-.706,5.716-2.052,6.758A288.764,288.764,0,0,0,9.636,37.752a1.257,1.257,0,0,1-.868.455C8,38.207,7.392,37.058,7.25,35.094Z" transform="translate(12.984 20.726)" fill="none" stroke="#fff" stroke-width="1"/>
            <path id="Rectangle_5_copy_2" data-name="Rectangle 5 copy 2" d="M.019,43.007c-.16-2.832.688-6.273,1.929-7.627s2.42-.084,2.6,2.774-.724,6.205-1.982,7.533a1.451,1.451,0,0,1-1,.545C.753,46.233.135,45.051.019,43.007ZM7.413,34.5c-.162-2.514.612-5.532,1.76-6.692A320.139,320.139,0,0,1,40.217.369c1.346-1.045,2.615.211,2.807,2.746s-.759,5.391-2.1,6.447A353.289,353.289,0,0,0,9.785,36.939a1.331,1.331,0,0,1-.9.459C8.122,37.4,7.533,36.332,7.413,34.5Z" transform="translate(14.109 40.078)" fill="none" stroke="#fff" stroke-width="1"/>
            <path id="Rectangle_5_copy_3" data-name="Rectangle 5 copy 3" d="M.013,42.5c-.133-2.693.761-5.987,2.03-7.306s2.445-.151,2.6,2.551-.792,5.915-2.077,7.224a1.543,1.543,0,0,1-1.049.554C.71,45.525.109,44.422.013,42.5Zm7.552-8.323c-.137-2.373.673-5.256,1.837-6.4A389.64,389.64,0,0,1,40.621.4C41.964-.655,43.2.444,43.365,2.8s-.812,5.082-2.154,6.152C30.1,17.781,19.624,26.986,9.92,36.385a1.414,1.414,0,0,1-.947.473C8.228,36.858,7.663,35.879,7.565,34.178Z" transform="translate(15.055 58.098)" fill="none" stroke="#fff" stroke-width="1"/>
            <path id="Rectangle_5_copy_4" data-name="Rectangle 5 copy 4" d="M.009,42.444C-.1,39.887.836,36.718,2.131,35.41S4.6,35.149,4.723,37.7,3.87,43.347,2.56,44.662a1.649,1.649,0,0,1-1.111.585C.664,45.247.088,44.233.009,42.444ZM7.7,34.162c-.113-2.232.732-5,1.913-6.132C19.382,18.619,29.874,9.363,40.967.449,42.307-.627,43.515.3,43.641,2.472a7.749,7.749,0,0,1-2.21,5.854c-11.073,8.994-21.571,18.32-31.389,27.78a1.52,1.52,0,0,1-1.009.507C8.313,36.613,7.78,35.726,7.7,34.162Z" transform="translate(15.902 75.979)" fill="none" stroke="#fff" stroke-width="1"/>
            <path id="Rectangle_5_copy_5" data-name="Rectangle 5 copy 5" d="M.006,42.883C-.088,40.44.882,37.355,2.2,36.031s2.484-.4,2.588,2.017a10.353,10.353,0,0,1-2.224,6.791,1.764,1.764,0,0,1-1.186.637C.617,45.476.072,44.547.006,42.883Zm7.8-8.393A8.824,8.824,0,0,1,9.77,28.549C19.633,19,30.131,9.585,41.177.5c1.336-1.1,2.51-.319,2.6,1.682a7.639,7.639,0,0,1-2.255,5.6C30.512,16.965,20.02,26.5,10.126,36.168a1.626,1.626,0,0,1-1.078.556C8.361,36.724,7.865,35.925,7.8,34.491Z" transform="translate(16.563 91.38)" fill="none" stroke="#fff" stroke-width="1"/>
          </g>
          <path id="Rectangle_6_copy_3" data-name="Rectangle 6 copy 3" d="M4.958,136.6C5,133.94,7.227,130.441,10,128.931q15.493-8.473,31.728-15.893c2.9-1.322,5.185-.141,5.034,2.5s-2.656,5.741-5.531,7.059q-16.1,7.368-31.441,15.932a5.325,5.325,0,0,1-2.518.767C5.853,139.3,4.932,138.352,4.958,136.6ZM4.818,116.93a10,10,0,0,1,4.9-8.284q11.127-5.84,22.623-11.206c2.911-1.354,5.317.065,5.317,3.034s-2.382,6.384-5.261,7.758q-11.395,5.423-22.43,11.361a4.952,4.952,0,0,1-2.31.66C6.02,120.254,4.877,119.063,4.818,116.93Zm47.709-3.887c.157-2.643,2.634-5.878,5.6-7.085a398.9,398.9,0,0,1,72.994-22.164c3.19-.636,5.665,1.185,5.491,3.973s-2.957,5.465-6.167,6.071a379.708,379.708,0,0,0-72.932,21.714,6.017,6.017,0,0,1-2.237.489A2.569,2.569,0,0,1,52.527,113.042ZM43.445,97.874a9.3,9.3,0,0,1,5.347-7.746,438.24,438.24,0,0,1,83.192-26.17c3.175-.647,5.687,1.25,5.584,4.147s-2.791,5.7-5.974,6.349A421.1,421.1,0,0,0,48.713,100.83a5.5,5.5,0,0,1-2.159.492C44.707,101.322,43.439,100.062,43.445,97.874ZM3.868,94.639c-.191-3.417,1.929-7.456,4.8-8.867A519.258,519.258,0,0,1,71.471,59.577c3.082-1.048,5.626.759,5.643,3.92A8.652,8.652,0,0,1,71.581,71.1,516.491,516.491,0,0,0,9.308,98.078a4.619,4.619,0,0,1-2.092.557C5.369,98.635,4.011,97.172,3.868,94.639ZM2.235,69.692c-.284-3.806,1.807-8.086,4.723-9.405,10.862-4.947,22.021-9.548,33.39-13.765,3.048-1.125,5.685.955,5.846,4.515A9.149,9.149,0,0,1,41,59.554Q24.108,66.223,7.922,73.962a4.31,4.31,0,0,1-1.861.457C4.023,74.419,2.454,72.647,2.235,69.692ZM83.217,61.5a8.3,8.3,0,0,1,5.6-7.472,442.433,442.433,0,0,1,43.6-10.7c3.178-.606,5.726,1.4,5.677,4.391s-2.683,5.874-5.858,6.51a426.179,426.179,0,0,0-43.422,11.13,5.712,5.712,0,0,1-1.7.274A3.805,3.805,0,0,1,83.217,61.5ZM52.238,48.842c-.152-3.539,2.211-7.337,5.312-8.354a491.76,491.76,0,0,1,75.008-18.5,4.727,4.727,0,0,1,5.763,4.7,7.108,7.108,0,0,1-5.812,6.561A474.859,474.859,0,0,0,58.036,53.171a5.066,5.066,0,0,1-1.7.309C54.069,53.48,52.361,51.7,52.238,48.842ZM.039,42.057c-.355-4.2,1.723-8.7,4.7-9.884a476.451,476.451,0,0,1,65.23-20.812c3.195-.769,5.9,1.614,6.02,5.217s-2.353,7.155-5.508,8.035A493.047,493.047,0,0,0,5.954,47.23a4.06,4.06,0,0,1-1.617.355C2.108,47.585.327,45.466.039,42.057Zm82.25-27c-.113-3.572,2.4-7.081,5.621-7.736,14.833-3.069,29.781-5.5,44.651-7.282a5.048,5.048,0,0,1,5.827,5.064,6.861,6.861,0,0,1-5.819,6.5c-14.8,2.132-29.63,4.964-44.323,8.45A5.351,5.351,0,0,1,87,20.211C84.391,20.211,82.384,18.153,82.289,15.059Z" transform="translate(103.874 30.748)" fill="rgba(2,15,30,0.4)"/>
        </g>
        <g id="Group_7171-2" data-name="Group 7171" transform="translate(333.75 5.233)">
          <g id="Group_7183" data-name="Group 7183" transform="translate(0 0)">
            <g id="Group_7184" data-name="Group 7184">
              <path id="Path_24728" data-name="Path 24728" d="M100.5,11.505C224.793,45.192,254.022,95.079,254.022,95.079V282.8S229.44,214.789,100.5,171.809" transform="translate(15.662 1.273)" fill="none"/>
              <path id="Path_24729" data-name="Path 24729" d="M100.5,11.505C224.793,45.192,254.022,95.079,254.022,95.079V282.8S229.44,214.789,100.5,171.809" transform="translate(15.662 1.273)" fill="rgba(255,255,255,0.7)" stroke="#020f1e" stroke-width="1"/>
              <path id="Path_24730" data-name="Path 24730" d="M116.662,173.586A412.5,412.5,0,0,0,.5,167.778V.5C18.227.7,37.69,1.7,58.581,3.99,79.717,6.3,99.146,9.581,116.662,13.283Z" transform="translate(-0.5 -0.505)" fill="none" stroke="#707070" stroke-width="1"/>
              <path id="Path_24731" data-name="Path 24731" d="M116.662,173.586A412.5,412.5,0,0,0,.5,167.778V.5C18.227.7,37.69,1.7,58.581,3.99,79.717,6.3,99.146,9.581,116.662,13.283Z" transform="translate(-0.5 -0.505)" fill="none" stroke="#020f1e" stroke-width="1"/>
            </g>
          </g>
          <rect id="Rectangle_11" data-name="Rectangle 11" width="20.635" height="17.821" transform="translate(11.734 16.06)" fill="none" stroke="#020f1e" stroke-width="1"/>
          <rect id="Rectangle_11_copy" data-name="Rectangle 11 copy" width="20.635" height="17.821" transform="translate(11.734 37.633)" fill="none" stroke="#020f1e" stroke-width="1"/>
          <ellipse id="Ellipse_14" data-name="Ellipse 14" cx="3.752" cy="3.752" rx="3.752" ry="3.752" transform="translate(48.673 19.098)" fill="none" stroke="#020f1e" stroke-width="1"/>
          <ellipse id="Ellipse_14_copy" data-name="Ellipse 14 copy" cx="3.752" cy="3.752" rx="3.752" ry="3.752" transform="translate(48.673 32.229)" fill="none" stroke="#020f1e" stroke-width="1"/>
          <ellipse id="Ellipse_14_copy_2" data-name="Ellipse 14 copy 2" cx="3.752" cy="3.752" rx="3.752" ry="3.752" transform="translate(48.673 47.236)" fill="none" stroke="#020f1e" stroke-width="1"/>
          <ellipse id="Ellipse_14_copy_3" data-name="Ellipse 14 copy 3" cx="3.752" cy="3.752" rx="3.752" ry="3.752" transform="translate(48.673 60.367)" fill="none" stroke="#020f1e" stroke-width="1"/>
          <ellipse id="Ellipse_14_copy_4" data-name="Ellipse 14 copy 4" cx="3.752" cy="3.752" rx="3.752" ry="3.752" transform="translate(48.673 75.375)" fill="none" stroke="#020f1e" stroke-width="1"/>
          <ellipse id="Ellipse_14_copy_5" data-name="Ellipse 14 copy 5" cx="3.752" cy="3.752" rx="3.752" ry="3.752" transform="translate(48.673 88.506)" fill="none" stroke="#020f1e" stroke-width="1"/>
          <ellipse id="Ellipse_14_copy_6" data-name="Ellipse 14 copy 6" cx="3.752" cy="3.752" rx="3.752" ry="3.752" transform="translate(48.673 104.451)" fill="none" stroke="#020f1e" stroke-width="1"/>
          <ellipse id="Ellipse_14_copy_7" data-name="Ellipse 14 copy 7" cx="3.752" cy="3.752" rx="3.752" ry="3.752" transform="translate(48.673 117.583)" fill="none" stroke="#020f1e" stroke-width="1"/>
          <ellipse id="Ellipse_14_copy_8" data-name="Ellipse 14 copy 8" cx="3.752" cy="3.752" rx="3.752" ry="3.752" transform="translate(48.673 132.59)" fill="none" stroke="#020f1e" stroke-width="1"/>
          <ellipse id="Ellipse_14_copy_9" data-name="Ellipse 14 copy 9" cx="3.752" cy="3.752" rx="3.752" ry="3.752" transform="translate(48.673 145.721)" fill="none" stroke="#020f1e" stroke-width="1"/>
          <path id="Rectangle_12" data-name="Rectangle 12" d="M566.752,155l19.7,2.323a3.752,3.752,0,0,1,0,7.5l-19.7-2.323a3.752,3.752,0,1,1,0-7.5Z" transform="translate(-501.298 -135.902)" fill="none" stroke="#020f1e" stroke-width="1"/>
          <path id="Rectangle_12_copy" data-name="Rectangle 12 copy" d="M566.752,169l19.7,2.323a3.752,3.752,0,0,1,0,7.5l-19.7-2.323a3.752,3.752,0,1,1,0-7.5Z" transform="translate(-501.298 -136.771)" fill="none" stroke="#020f1e" stroke-width="1"/>
          <path id="Rectangle_12_copy_2" data-name="Rectangle 12 copy 2" d="M566.752,185l19.7,2.323a3.752,3.752,0,0,1,0,7.5l-19.7-2.323a3.752,3.752,0,1,1,0-7.5Z" transform="translate(-501.298 -137.764)" fill="none" stroke="#020f1e" stroke-width="1"/>
          <path id="Rectangle_12_copy_3" data-name="Rectangle 12 copy 3" d="M566.752,199l29.077,3.485a3.752,3.752,0,0,1,0,7.5L566.752,206.5a3.752,3.752,0,1,1,0-7.5Z" transform="translate(-501.168 -138.633)" fill="none" stroke="#020f1e" stroke-width="1"/>
          <path id="Rectangle_12_copy_4" data-name="Rectangle 12 copy 4" d="M566.752,215l19.7,2.323a3.752,3.752,0,0,1,0,7.5l-19.7-2.323a3.752,3.752,0,1,1,0-7.5Z" transform="translate(-501.298 -139.625)" fill="none" stroke="#020f1e" stroke-width="1"/>
          <path id="Rectangle_12_copy_5" data-name="Rectangle 12 copy 5" d="M566.752,229l29.077,3.485a3.752,3.752,0,1,1,0,7.5L566.752,236.5a3.752,3.752,0,1,1,0-7.5Z" transform="translate(-501.168 -140.494)" fill="none" stroke="#020f1e" stroke-width="1"/>
          <path id="Rectangle_12_copy_6" data-name="Rectangle 12 copy 6" d="M3.752,0l19.7,2.323a3.752,3.752,0,0,1,0,7.5L3.752,7.5a3.752,3.752,0,0,1,0-7.5Z" transform="translate(61.701 104.451)" fill="none" stroke="#020f1e" stroke-width="1"/>
          <path id="Rectangle_12_copy_7" data-name="Rectangle 12 copy 7" d="M3.752,0,32.828,3.485a3.752,3.752,0,1,1,0,7.5L3.752,7.5a3.752,3.752,0,0,1,0-7.5Z" transform="translate(61.832 117.583)" fill="none" stroke="#020f1e" stroke-width="1"/>
          <path id="Rectangle_12_copy_8" data-name="Rectangle 12 copy 8" d="M566.752,276l19.7,2.323a3.752,3.752,0,0,1,0,7.5l-19.7-2.323a3.752,3.752,0,1,1,0-7.5Z" transform="translate(-501.298 -143.41)" fill="none" stroke="#020f1e" stroke-width="1"/>
          <path id="Rectangle_12_copy_9" data-name="Rectangle 12 copy 9" d="M566.752,290l29.077,3.485a3.752,3.752,0,1,1,0,7.5L566.752,297.5a3.752,3.752,0,1,1,0-7.5Z" transform="translate(-501.168 -144.279)" fill="none" stroke="#020f1e" stroke-width="1"/>
          <g id="Group_7160" data-name="Group 7160" transform="translate(137.576 45)">
            <path id="Shape_116" data-name="Shape 116" d="M663.934,189.628l25.325,11.255s3.042-3.867-.938-6.566L665.81,184S660.886,184,663.934,189.628Z" transform="translate(-662.938 -184)" fill="none" stroke="#020f1e" stroke-width="1"/>
            <path id="Shape_117" data-name="Shape 117" d="M.521,4.872,20.218,18s4.043.221,2.814-3.752L3.335.182A2.206,2.206,0,0,0,.521,1.12,3.8,3.8,0,0,0,.521,4.872Z" transform="translate(37.818 17.652) rotate(-9)" fill="none" stroke="#020f1e" stroke-width="1"/>
            <path id="Shape_118" data-name="Shape 118" d="M4.873.938l19.7,14.069a3.755,3.755,0,0,1,.938,3.752s-1.038,3.738-4.69,0L1.121,5.628s-2.523-2.359,0-4.69A3.321,3.321,0,0,1,3,0,3.329,3.329,0,0,1,4.873.938Z" transform="translate(70.932 34.153) rotate(-8)" fill="none" stroke="#020f1e" stroke-width="1"/>
            <path id="Shape_120" data-name="Shape 120" d="M663.919,242.635l24.386,12.193s3.28,1.413,3.752-1.876a4.872,4.872,0,0,0-2.814-4.69l-22.511-10.318s-2.661-1.87-3.752,0C662.981,237.945,661.886,241.072,663.919,242.635Z" transform="translate(-658.358 -201.678)" fill="none" stroke="#020f1e" stroke-width="1"/>
            <path id="Shape_120_copy" data-name="Shape 120 copy" d="M679.918,265.635,704.3,277.828s3.28,1.412,3.752-1.876a4.872,4.872,0,0,0-2.814-4.69l-22.511-10.318s-2.661-1.87-3.752,0C678.98,260.945,677.886,264.071,679.918,265.635Z" transform="translate(-678.686 -194.27)" fill="none" stroke="#020f1e" stroke-width="1"/>
            <path id="Shape_121" data-name="Shape 121" d="M21.694,20.02s2.576.475,2.814-1.876c0,0,1.482-2.652-1.876-4.69L3.872.323A2.944,2.944,0,0,0,.12,1.26S-.5,3.947,1.059,5.012C7.79,9.628,21.694,20.02,21.694,20.02Z" transform="matrix(0.985, -0.174, 0.174, 0.985, 59.097, 62.395)" fill="none" stroke="#020f1e" stroke-width="1"/>
            <path id="Shape_121_copy" data-name="Shape 121 copy" d="M21.694,20.02s2.576.475,2.814-1.876c0,0,1.482-2.652-1.876-4.69L3.872.323A2.944,2.944,0,0,0,.12,1.261S-.5,3.947,1.059,5.012C7.79,9.628,21.694,20.02,21.694,20.02Z" transform="translate(68.871 97.036) rotate(-9)" fill="none" stroke="#020f1e" stroke-width="1"/>
            <path id="Shape_122" data-name="Shape 122" d="M4.1.315,9.723,4.067a5.587,5.587,0,0,1,2.814,5.628s-.048,2.574-4.69,0L2.22,5.942S-1.044,4.229.344,1.253C.344,1.253,1.415-.757,4.1.315Z" transform="translate(44.425 85.51) rotate(-11)" fill="none" stroke="#020f1e" stroke-width="1"/>
            <path id="Shape_123" data-name="Shape 123" d="M.259.893S-1.263,3.467,3.073,6.521L20.894,17.776s3.57,1.5,3.752-.938c0,0-1.12-4.662-3.752-5.628L4.011.893S1.2-1.117.259.893Z" transform="translate(10.639 93.384) rotate(-7)" fill="none" stroke="#020f1e" stroke-width="1"/>
            <path id="Shape_124" data-name="Shape 124" d="M.117,3.788,15.124,19.733s2.9-1.044,1.876-5.628L2.93.036S-.688-.634.117,3.788Z" transform="matrix(0.946, -0.326, 0.326, 0.946, 49.258, 109.747)" fill="none" stroke="#020f1e" stroke-width="1"/>
            <path id="Shape_125" data-name="Shape 125" d="M2.3.01l4.69,6.566s1.56,4.718-1.876,3.752L.419,4.7S-1.323-.258,2.3.01Z" transform="matrix(0.914, -0.407, 0.407, 0.914, 77.225, 143.913)" fill="none" stroke="#020f1e" stroke-width="1"/>
            <path id="Shape_126" data-name="Shape 126" d="M22.676,20.814,2.041,6.745S-.687,3.959.165,1.117c0,0,1.158-3.054,6.566.938L23.614,15.186S27.1,19.072,22.676,20.814Z" transform="matrix(0.985, -0.174, 0.174, 0.985, 42.923, 126.7)" fill="none" stroke="#020f1e" stroke-width="1"/>
            <path id="Shape_127" data-name="Shape 127" d="M688.069,322.938s1.426-3.322-3.752-5.628l-22.511-10.318s-3.13-.776-2.814,1.876c0,0-1.12,2.172,3.752,4.69l21.573,10.317S687.533,325.35,688.069,322.938Z" transform="translate(-653.547 -199.332)" fill="none" stroke="#020f1e" stroke-width="1"/>
            <path id="Shape_119" data-name="Shape 119" d="M.948,4.744l5.628,5.628s2.372.969,2.814-.938c0,0,.555-2.314-1.876-4.69L1.886.055S.447-.5.01,1.931A3.806,3.806,0,0,0,.948,4.744Z" transform="translate(42.394 54.769) rotate(-13)" fill="none" stroke="#020f1e" stroke-width="1"/>
          </g>
        </g>
      </g>
      <g id="Group_7106" data-name="Group 7106" transform="translate(36.505 69.514)">
        <g id="_4" data-name="4" transform="translate(0 0)">
          <path id="Shape_115" data-name="Shape 115" d="M209.543,324.579s-10.263-1.883-16.877-5.814-8.191-6.638-8.191-6.638-21.345-26.106,3.766-71.557a123.987,123.987,0,0,1,35.779-33.9l80.031-46.135S337,136.63,361.484,174.663c0,0,14.748,42.312-14.123,69.674L271.1,299.887l-16.136,32.224-9.286-1.154-11.769-9.933S221.971,325.9,209.543,324.579Z" transform="translate(-176.013 -153.122)" fill="#fff" stroke="#020f1e" stroke-width="1"/>
          <path id="Shape_114" data-name="Shape 114" d="M193.862,310.793s-15.382-52.783,34.837-88.5L325.678,165.8s33.264-15.749,40.486,21.656c0,0,4.391,36.977-18.831,59.317L272.01,301.377,256,332.448l-15.065-13.182S208.3,339.666,193.862,310.793Z" transform="translate(-176.926 -153.67)" fill="#fff" stroke="#020f1e" stroke-width="1"/>
          <path id="Shape_113" data-name="Shape 113" d="M265.163,282.308l57.434-36.72s12.551-8.531,6.591-28.246c0,0-3.769-11.356-17.889-4.708,0,0-7.536-12.611-25.422-.942,0,0-17.892,10.614-18.831,35.779,0,0-17.892,9.044-15.064,28.246C251.981,275.717,255.12,284.191,265.163,282.308Z" transform="translate(-180.436 -156.256)" fill="#f88136"/>
          <path id="Ellipse_13" data-name="Ellipse 13" d="M290.929,218.032c10.771-6.83,20.273-3.5,21.037,7.96.795,11.918-8.113,27.591-19.681,34.426C280.979,267.1,272,262.412,272,250.5,272,239.03,280.385,224.718,290.929,218.032Z" transform="translate(-181.624 -156.71)" fill="#fff"/>
          <path id="Shape_111" data-name="Shape 111" d="M286.357,231,276,248.889l10.357,6.591,2.825-4.708-6.591-4.708,7.532-13.182Z" transform="translate(-181.858 -157.674)" fill="#f88136"/>
          <path id="Shape_112" data-name="Shape 112" d="M294,246.655l3.766,1.883,9.415-16.948L296.825,225,294,229.708l7.532,3.766Z" transform="translate(-182.91 -157.324)" fill="#f88136"/>
          <path id="Shape_110" data-name="Shape 110" d="M346.352,314.822A62.527,62.527,0,0,1,334,310.529a22.566,22.566,0,0,1-7.419-6.063S302.41,266.119,345.411,228.2l72.5-41.428s20.262-14.01,42.256,12.805c0,0,7.956,17.581,3.879,32.389,0,0-5.652,27.875-23.539,38.6L426.383,278.1l-10.357,21.655-12.277-8.813-31.033,18.228S357.023,319.53,346.352,314.822Z" transform="translate(-184.419 -154.875)" fill="#fff" stroke="#020f1e" stroke-width="1"/>
          <path id="Rectangle_10" data-name="Rectangle 10" d="M364.331,233.816l72.418-39.251c15.149-8.211,28.276,2.065,29.439,23.124,1.177,21.317-10.312,45.8-25.786,54.5l-14.067,7.914-9.348,20.155-12.2-8.033-38.4,21.6c-16.2,9.116-29.759-1.888-30.152-24.387C335.853,267.226,348.483,242.4,364.331,233.816Z" transform="translate(-185.379 -155.379)" fill="#fff" stroke="#020f1e" stroke-width="1"/>
          <g id="Group_1586" data-name="Group 1586" transform="translate(247.284 362.849)">
            <path id="Shape_134_copy_3" data-name="Shape 134 copy 3" d="M438.919,843.641,490.7,873.77s8.506,4.894,16.948-.941l48.019-28.246s7.25-4.05-.942-9.415l-49.9-28.246a15.49,15.49,0,0,0-14.123.941l-48.018,27.3S434.525,839.09,438.919,843.641Z" transform="translate(-437.026 -733.641)" fill="#020f1e" opacity="0.1"/>
            <path id="Shape_134_copy_2" data-name="Shape 134 copy 2" d="M438.919,822.641,490.7,852.77s8.506,4.894,16.948-.942l48.019-28.246s7.25-4.05-.942-9.415l-49.9-28.246a15.491,15.491,0,0,0-14.123.941l-48.018,27.3S434.525,818.09,438.919,822.641Z" transform="translate(-437.026 -732.414)" fill="#34394b" opacity="0.2"/>
            <path id="Shape_134_copy" data-name="Shape 134 copy" d="M438.919,801.641,490.7,831.77s8.506,4.894,16.948-.941l48.019-28.246s7.25-4.05-.942-9.416l-49.9-28.246a15.49,15.49,0,0,0-14.123.942l-48.018,27.3S434.525,797.09,438.919,801.641Z" transform="translate(-437.026 -731.186)" fill="#020f1e" opacity="0.3"/>
            <path id="Shape_135" data-name="Shape 135" d="M437,764.789l.942,12.24s-.6,3.168,1.883,4.708l51.785,30.129s6.779,3.639,13.182,0l50.843-30.129a4.62,4.62,0,0,0,2.825-4.708v-12.24s.5-3.423-5.649-6.591l-46.135-26.363a14.419,14.419,0,0,0-15.065-.942L443.59,759.139S436.686,763.062,437,764.789Z" transform="translate(-436.989 -729.171)" fill="#fff" stroke="#020f1e" stroke-width="1"/>
            <path id="Shape_134" data-name="Shape 134" d="M438.919,767.641,490.7,797.77s8.506,4.894,16.948-.941l48.019-28.246s7.25-4.05-.942-9.415l-49.9-28.246a15.49,15.49,0,0,0-14.123.942l-48.018,27.3S434.525,763.09,438.919,767.641Z" transform="translate(-437.026 -729.198)" fill="#fff" stroke="#020f1e" stroke-width="1"/>
            <path id="Shape_132" data-name="Shape 132" d="M502.832,749.582l4.708-2.825s-7.03-6.4-13.181-2.825l-7.532,4.708s-2.165,2.07-6.591,0l-3.766,2.825s3.484,1.285-1.883,3.766L469.878,759s-5.931,4.581,2.825,8.474l4.708-3.766s-5.147-1.069,0-3.766c0,0,6.779-3.266,5.649-6.591,0,0,4.269,1.128,9.416-1.883C492.475,751.465,497.967,745.5,502.832,749.582Z" transform="translate(-438.797 -729.97)" fill="#f88136"/>
            <path id="Shape_133" data-name="Shape 133" d="M499.708,775.006s.973,5.993,10.357,0c0,0,5.367-3.58,9.415-.942,0,0-1.381-2.324,1.883-4.708,0,0,8.506-2.795,3.766-7.532L528.9,759s8.349,2.541,3.766,8.474c0,0-9.07,3.639-5.649,7.532l-3.766,2.825s-4.362-2.638-8.474,0l-6.591,3.766s-3.107,3.953-13.182-1.883Z" transform="translate(-440.38 -730.915)" fill="#f88136"/>
          </g>
          <g id="Group_7105" data-name="Group 7105" transform="matrix(0.995, 0.105, -0.105, 0.995, 202.203, 72.051)">
            <g id="Group_23" data-name="Group 23" transform="translate(0 0)" clip-path="url(#clip-path)">
              <path id="Path_118" data-name="Path 118" d="M1.237.119A1.293,1.293,0,0,1,3.063,1.286L5.779,17.493a2.517,2.517,0,0,1-1.195,2.6,1.292,1.292,0,0,1-1.826-1.167L.042,2.716A2.517,2.517,0,0,1,1.237.119" transform="translate(13.263 0)" fill="#f88136"/>
              <path id="Path_119" data-name="Path 119" d="M4.347.492c2.91-1.377,5.726.233,6.29,3.6a8.4,8.4,0,0,1-4.249,8.581C3.479,14.046.663,12.436.1,9.074A8.4,8.4,0,0,1,4.347.492" transform="translate(13.309 17.074)" fill="#f88136"/>
              <path id="Path_120" data-name="Path 120" d="M11.506.334a2.349,2.349,0,0,1,.107,2.786L2.686,17.625c-.529.865-1.456,1.17-2.07.681a1.076,1.076,0,0,1-.11-.1A2.349,2.349,0,0,1,.4,15.42L9.325.916C9.854.05,10.781-.256,11.4.232a1.143,1.143,0,0,1,.111.1" transform="translate(20.534 1.831)" fill="#f88136"/>
              <path id="Path_121" data-name="Path 121" d="M.137,1.486A1.938,1.938,0,0,0,.911,3.957L13.032,8.505A1.69,1.69,0,0,0,15.01,7.274c.023-.059.044-.12.063-.181A1.939,1.939,0,0,0,14.3,4.622L2.178.07A1.691,1.691,0,0,0,.2,1.3c-.023.06-.044.122-.063.183" transform="translate(0 15.77)" fill="#f88136"/>
              <path id="Path_122" data-name="Path 122" d="M16.375,1.7C16.4.623,15.724-.118,14.837.016L1.55,2.664A2.307,2.307,0,0,0,0,4.884c0,.026,0,.052,0,.078C-.025,6.036.653,6.777,1.539,6.644L14.826,3.994a2.306,2.306,0,0,0,1.55-2.22c0-.026,0-.051,0-.077" transform="translate(22.09 17.645)" fill="#f88136"/>
              <path id="Path_123" data-name="Path 123" d="M10.838,15.012a2.5,2.5,0,0,0,.236-2.844L2.747.524A1.263,1.263,0,0,0,.682.544Q.628.6.578.661A2.5,2.5,0,0,0,.343,3.505L8.668,15.152a1.263,1.263,0,0,0,2.065-.021c.036-.038.071-.078.1-.119" transform="translate(20.045 25.186)" fill="#f88136"/>
              <path id="Path_124" data-name="Path 124" d="M.14,12.487A2.6,2.6,0,0,1,.928,9.7L13.083.314a1.235,1.235,0,0,1,2.011.535c.008.022.016.044.023.066A2.6,2.6,0,0,1,14.329,3.7L2.174,13.088a1.235,1.235,0,0,1-2.012-.535c-.008-.022-.016-.044-.023-.067" transform="translate(0.021 24.979)" fill="#f88136"/>
              <path id="Path_125" data-name="Path 125" d="M1.142,21.246A1.726,1.726,0,0,1,.058,19.027L3.543,1.793A2.021,2.021,0,0,1,5.311,0a1.168,1.168,0,0,1,.126.009,1.727,1.727,0,0,1,1.085,2.22L3.037,19.462a2.022,2.022,0,0,1-1.768,1.794,1.046,1.046,0,0,1-.127-.01" transform="translate(12.245 27.288)" fill="#f88136"/>
              <path id="Path_126" data-name="Path 126" d="M12.314,5.225c-6,2.808-9.947,10.711-8.811,17.652s6.922,10.293,12.924,7.485,9.947-10.711,8.812-17.652l-.009-.055C24.077,5.742,18.3,2.418,12.314,5.225m-.648-3.868C19.505-2.395,27.12,1.9,28.673,10.95S25.131,30.377,17.292,34.128,1.838,33.584.284,24.535l-.012-.071C-1.261,15.426,3.84,5.081,11.666,1.357" transform="translate(4.243 5.814)" fill="#f88136"/>
            </g>
          </g>
        </g>
        <g id="_3rd_row_1" data-name="3rd row_1" transform="translate(123.451 150.139)">
          <path id="Path_23269" data-name="Path 23269" d="M366.779,170.394a36.784,36.784,0,0,1,3.107,2.024c.5-18.412,13.758-25.76,30.081-16.336a50,50,0,0,1,9.346,7.09c6.21-7.126,16.758-8.112,28.76-1.176,18.3,10.564,33.243,35.6,34.484,57.088a33.394,33.394,0,0,1,9.9,3.922c17.893,10.329,32.4,35.45,32.4,56.112,0,1-.055,1.95-.129,2.9-1.312,18.515-15.241,25.65-32.27,15.817L366.779,231.043c-14.5-8.379-26.259-28.741-26.259-45.486S352.277,162.021,366.779,170.394Z" transform="translate(-257.465 -137.471)" fill="#ff9e2c" stroke="#020f1e" stroke-width="1"/>
          <path id="Path_23270" data-name="Path 23270" d="M589.42,128.769l4.145-2.395h0c6.313-4.19,15.3-3.919,25.308,1.86,18.3,10.564,33.24,35.6,34.484,57.088h0l-25.1,14.5c-1.247-21.489-16.188-46.524-34.484-57.088-9.082-5.247-17.332-5.956-23.5-2.9h0Z" transform="translate(-413.179 -118.19)" fill="#fff" stroke="#020f1e" stroke-width="1"/>
          <path id="Path_23271" data-name="Path 23271" d="M389.471,154.89h0A13.848,13.848,0,0,1,397.8,153.1l-2.53,1.463h0c-5.392,2.981-8.808,9.4-9.059,18.582-1.018-.728-2.053-1.415-3.107-2.024-7.209-4.164-13.739-4.576-18.486-1.882Z" transform="translate(-273.798 -138.197)" fill="#fff" stroke="#020f1e" stroke-width="1"/>
          <path id="Path_23272" data-name="Path 23272" d="M785.212,319.124c17.893,10.329,32.4,35.45,32.4,56.112,0,1-.052,1.95-.129,2.884-.612,8.631-3.967,14.786-9.1,17.906h0l-.036.019-.18.106L783.285,410.5h0c5.131-3.12,8.486-9.275,9.1-17.906.074-.935.129-1.885.129-2.9,0-20.661-14.5-45.783-32.4-56.112a33.393,33.393,0,0,0-9.9-3.922h0l25.1-14.5A33.442,33.442,0,0,1,785.212,319.124Z" transform="translate(-535.122 -248.066)" fill="#fff" stroke="#020f1e" stroke-width="1"/>
          <path id="Path_23273" data-name="Path 23273" d="M462.3,121.878l22.308-12.891h0c5.443-3.152,12.956-2.71,21.27,2.088a49.255,49.255,0,0,1,8.65,6.446l-19.14,11.051h0a16.975,16.975,0,0,0-5.24,4.115,50,50,0,0,0-9.346-7.09c-8.186-4.725-15.6-5.231-21.019-2.256h0Z" transform="translate(-338.291 -106.973)" fill="#fff" stroke="#020f1e" stroke-width="1"/>
          <path id="Path_23281" data-name="Path 23281" d="M577.969,300.639,535.49,276.114V265.54l42.479,24.525Z" transform="translate(-389.601 -214.438)" fill="#fff" stroke="#020f1e" stroke-linecap="round" stroke-linejoin="round" stroke-width="1"/>
          <path id="Path_23282" data-name="Path 23282" d="M669.218,348.777l-1.847,1.065-.071.041V339.309l1.918-1.109Z" transform="translate(-478.932 -263.681)" fill="#fff" stroke="#020f1e" stroke-linecap="round" stroke-linejoin="round" stroke-width="1"/>
          <path id="Path_23283" data-name="Path 23283" d="M579.887,286.632l-1.917,1.109L535.49,263.215l1.918-1.105Z" transform="translate(-389.601 -212.113)" fill="#fff" stroke="#020f1e" stroke-linecap="round" stroke-linejoin="round" stroke-width="1"/>
          <path id="Path_23284" data-name="Path 23284" d="M542.07,293.456l.693,1.483,6.665,3.848,1.437-.67-3.352-7.2Z" transform="translate(-394.06 -231.638)" fill="url(#linear-gradient)"/>
          <path id="Path_23285" data-name="Path 23285" d="M542.318,285.429a5.989,5.989,0,0,0-2.707-4.692,1.951,1.951,0,0,0-1.834-.229h0l-.078.045h0l-3.79,2.188,3.687,6.716,3.867-2.237h0A1.919,1.919,0,0,0,542.318,285.429Z" transform="translate(-388.53 -224.487)" fill="#fff" stroke="#020f1e" stroke-width="1"/>
          <path id="Path_23286" data-name="Path 23286" d="M531.14,289.226c0-1.724,1.212-2.427,2.707-1.563a5.989,5.989,0,0,1,2.707,4.692c0,1.727-1.212,2.427-2.707,1.563A5.988,5.988,0,0,1,531.14,289.226Z" transform="translate(-386.653 -229.18)" fill="#fff" stroke="#020f1e" stroke-width="1"/>
          <path id="Path_23287" data-name="Path 23287" d="M566.99,307.846l.69,1.479,6.668,3.851,1.437-.67-3.352-7.2Z" transform="translate(-410.949 -241.391)" fill="url(#linear-gradient-2)"/>
          <path id="Path_23288" data-name="Path 23288" d="M567.188,299.815a5.983,5.983,0,0,0-2.707-4.689,1.951,1.951,0,0,0-1.834-.229h0l-.077.045h0l-3.79,2.188,3.687,6.713,3.867-2.233h0A1.89,1.89,0,0,0,567.188,299.815Z" transform="translate(-405.385 -234.24)" fill="#fff" stroke="#020f1e" stroke-width="1"/>
          <path id="Path_23289" data-name="Path 23289" d="M556.05,303.615c0-1.727,1.215-2.427,2.71-1.563a5.988,5.988,0,0,1,2.707,4.692c0,1.727-1.212,2.427-2.707,1.563A6.012,6.012,0,0,1,556.05,303.615Z" transform="translate(-403.535 -238.932)" fill="#fff" stroke="#020f1e" stroke-width="1"/>
          <path id="Path_23290" data-name="Path 23290" d="M591.91,322.226l.69,1.482,6.668,3.848,1.437-.67-3.352-7.2Z" transform="translate(-427.838 -251.136)" fill="url(#linear-gradient-3)"/>
          <path id="Path_23291" data-name="Path 23291" d="M592.1,314.2a5.992,5.992,0,0,0-2.71-4.692,1.953,1.953,0,0,0-1.83-.229h0l-.081.045h0l-3.79,2.188,3.687,6.713,3.867-2.233h0A1.884,1.884,0,0,0,592.1,314.2Z" transform="translate(-422.267 -243.988)" fill="#fff" stroke="#020f1e" stroke-width="1"/>
          <path id="Path_23292" data-name="Path 23292" d="M581,318c0-1.727,1.212-2.427,2.71-1.563a5.974,5.974,0,0,1,2.707,4.689c0,1.727-1.212,2.427-2.707,1.563A5.986,5.986,0,0,1,581,318Z" transform="translate(-420.444 -248.684)" fill="#fff" stroke="#020f1e" stroke-width="1"/>
          <path id="Path_23293" data-name="Path 23293" d="M616.83,336.616l.69,1.482,6.665,3.848,1.441-.67-3.352-7.2Z" transform="translate(-444.727 -260.889)" fill="url(#linear-gradient-4)"/>
          <path id="Path_23294" data-name="Path 23294" d="M617.022,328.589a5.992,5.992,0,0,0-2.71-4.692,1.95,1.95,0,0,0-1.834-.229h0l-.077.045h0l-3.79,2.188,3.671,6.71,3.867-2.237h0A1.851,1.851,0,0,0,617.022,328.589Z" transform="translate(-439.156 -253.738)" fill="#fff" stroke="#020f1e" stroke-width="1"/>
          <path id="Path_23295" data-name="Path 23295" d="M605.89,332.386c0-1.724,1.212-2.427,2.707-1.563a5.992,5.992,0,0,1,2.71,4.692c0,1.727-1.212,2.427-2.71,1.563A5.98,5.98,0,0,1,605.89,332.386Z" transform="translate(-437.313 -258.431)" fill="#fff" stroke="#020f1e" stroke-width="1"/>
          <path id="Path_23297" data-name="Path 23297" d="M641.938,342.975a5.983,5.983,0,0,0-2.707-4.689,1.951,1.951,0,0,0-1.834-.229h0l-.077.045h0l-3.79,2.188,3.7,6.707,3.867-2.233h0A1.885,1.885,0,0,0,641.938,342.975Z" transform="translate(-456.045 -263.49)" fill="#fff" stroke="#020f1e" stroke-width="1"/>
          <path id="Path_23298" data-name="Path 23298" d="M630.81,346.775c0-1.727,1.212-2.427,2.707-1.563a5.992,5.992,0,0,1,2.71,4.692c0,1.727-1.215,2.427-2.71,1.563A5.988,5.988,0,0,1,630.81,346.775Z" transform="translate(-454.202 -268.182)" fill="#fff" stroke="#020f1e" stroke-width="1"/>
          <path id="Path_23299" data-name="Path 23299" d="M551.716,316.694,545,320.561a5.536,5.536,0,0,0-2.765,4.792v16.758m1.45-30.052-6.716,3.867a5.533,5.533,0,0,0-2.765,4.792v16.758m1.453-30.056-6.716,3.867a5.533,5.533,0,0,0-2.752,4.8V332.85m1.437-30.065-6.716,3.867a5.53,5.53,0,0,0-2.778,4.8v16.758m1.463-30.062-6.716,3.867a5.536,5.536,0,0,0-2.768,4.792v16.758" transform="translate(-372.4 -236.538)" fill="none" stroke="#020f1e" stroke-linecap="round" stroke-linejoin="round" stroke-width="3"/>
          <path id="Path_23300" data-name="Path 23300" d="M505,412.937c0,1.25-.886,1.76-1.966,1.138l-66.067-38.148A4.36,4.36,0,0,1,435,372.52V322.684c0-1.247.886-1.76,1.969-1.134l66.067,38.145A4.373,4.373,0,0,1,505,363.1Z" transform="translate(-321.497 -252.216)" fill="#020f1e"/>
          <path id="Path_23301" data-name="Path 23301" d="M505.871,357.034,439.8,318.886a1.352,1.352,0,0,0-1.4-.126h0l-1.4.819h0a1.408,1.408,0,0,1,1.328.164l66.067,38.145a4.373,4.373,0,0,1,1.966,3.41v49.834a1.384,1.384,0,0,1-.57,1.266h0l1.411-.819h0a1.338,1.338,0,0,0,.645-1.305V360.44a4.357,4.357,0,0,0-1.976-3.406Z" transform="translate(-322.852 -250.409)" fill="#fff" stroke="#020f1e" stroke-width="1"/>
          <path id="Path_23302" data-name="Path 23302" d="M441.08,329.15v49.057l66.073,38.145V367.3Z" transform="translate(-325.617 -257.548)" fill="#fff" stroke="#020f1e" stroke-width="1"/>
          <path id="Path_23303" data-name="Path 23303" d="M358.154,551.519a4.364,4.364,0,0,1-3.935,0l-66.067-38.148a1.189,1.189,0,0,1,0-2.256l45.035-26a4.363,4.363,0,0,1,3.935,0l66.067,38.148a1.189,1.189,0,0,1,0,2.256Z" transform="translate(-221.424 -362.931)" fill="#fff" stroke="#020f1e" stroke-width="1"/>
          <path id="Path_23311" data-name="Path 23311" d="M553.423,565.207l-3.232-1.866,1.618-.931,3.229,1.866Z" transform="translate(-399.564 -415.633)" fill="#fff" stroke="#020f1e" stroke-width="1"/>
          <g id="Group_7177" data-name="Group 7177" transform="translate(89.845 124.781)">
            <path id="Path_23304" data-name="Path 23304" d="M435.212,496.957l-3.232-1.863,1.618-.935,3.229,1.866Z" transform="translate(-409.295 -494.16)" fill="#fff" stroke="#020f1e" stroke-width="1"/>
            <path id="Path_23305" data-name="Path 23305" d="M452.1,506.707l-3.232-1.866,1.615-.931,3.232,1.866Z" transform="translate(-420.742 -500.768)" fill="#fff" stroke="#020f1e" stroke-width="1"/>
            <path id="Path_23306" data-name="Path 23306" d="M468.989,516.457l-3.229-1.866,1.615-.931,3.232,1.866Z" transform="translate(-432.188 -507.376)" fill="#fff" stroke="#020f1e" stroke-width="1"/>
            <path id="Path_23307" data-name="Path 23307" d="M485.872,526.207l-3.232-1.866,1.618-.931,3.229,1.866Z" transform="translate(-443.629 -513.983)" fill="#fff" stroke="#020f1e" stroke-width="1"/>
            <path id="Path_23308" data-name="Path 23308" d="M502.763,535.957l-3.232-1.866,1.615-.931,3.232,1.866Z" transform="translate(-455.075 -520.591)" fill="#fff" stroke="#020f1e" stroke-width="1"/>
            <path id="Path_23309" data-name="Path 23309" d="M519.649,545.707l-3.229-1.866,1.615-.931,3.232,1.866Z" transform="translate(-466.522 -527.199)" fill="#fff" stroke="#020f1e" stroke-width="1"/>
            <path id="Path_23310" data-name="Path 23310" d="M536.539,555.457l-3.229-1.866,1.615-.931,3.229,1.866Z" transform="translate(-477.969 -533.807)" fill="#fff" stroke="#020f1e" stroke-width="1"/>
            <path id="Path_23312" data-name="Path 23312" d="M570.309,574.957l-3.229-1.866,1.615-.931,3.233,1.866Z" transform="translate(-500.856 -547.023)" fill="#fff" stroke="#020f1e" stroke-width="1"/>
            <path id="Path_23313" data-name="Path 23313" d="M587.2,584.707l-3.229-1.866,1.615-.932,3.229,1.863Z" transform="translate(-512.302 -553.63)" fill="#fff" stroke="#020f1e" stroke-width="1"/>
            <path id="Path_23314" data-name="Path 23314" d="M604.083,594.457l-3.233-1.866,1.618-.931,3.229,1.863Z" transform="translate(-523.742 -560.238)" fill="#fff" stroke="#020f1e" stroke-width="1"/>
            <path id="Path_23315" data-name="Path 23315" d="M620.973,604.2l-3.232-1.866,1.615-.935,3.232,1.866Z" transform="translate(-535.189 -566.839)" fill="#fff" stroke="#020f1e" stroke-width="1"/>
            <path id="Path_23316" data-name="Path 23316" d="M420.907,506.231l-5.807-3.355,3.229-1.866,5.811,3.355Z" transform="translate(-397.855 -498.802)" fill="#fff" stroke="#020f1e" stroke-width="1"/>
            <path id="Path_23317" data-name="Path 23317" d="M406.932,516.857l-8.021-4.631,3.232-1.866,8.018,4.631Z" transform="translate(-386.883 -505.139)" fill="#fff" stroke="#020f1e" stroke-width="1"/>
            <path id="Path_23318" data-name="Path 23318" d="M392.252,527.883l-10.232-5.907,3.232-1.866,10.229,5.907Z" transform="translate(-375.436 -511.747)" fill="#fff" stroke="#020f1e" stroke-width="1"/>
            <path id="Path_23319" data-name="Path 23319" d="M367.4,535.738l-5.811-3.352,4.373-2.527,5.811,3.352Z" transform="translate(-361.59 -518.355)" fill="#fff" stroke="#020f1e" stroke-width="1"/>
            <path id="Path_23320" data-name="Path 23320" d="M392.287,550.108l-5.807-3.355,4.373-2.523,5.811,3.352Z" transform="translate(-378.459 -528.094)" fill="#fff" stroke="#020f1e" stroke-width="1"/>
            <path id="Path_23321" data-name="Path 23321" d="M417.171,564.478l-5.811-3.355,4.376-2.524,5.807,3.352Z" transform="translate(-395.32 -537.832)" fill="#fff" stroke="#020f1e" stroke-width="1"/>
            <path id="Path_23322" data-name="Path 23322" d="M502.977,614.018l-5.807-3.355,4.373-2.523,5.811,3.352Z" transform="translate(-453.476 -571.407)" fill="#fff" stroke="#020f1e" stroke-width="1"/>
            <path id="Path_23323" data-name="Path 23323" d="M533.412,631.584l-11.392-6.578,4.373-2.527,11.4,6.578Z" transform="translate(-470.318 -581.126)" fill="#fff" stroke="#020f1e" stroke-width="1"/>
            <path id="Path_23324" data-name="Path 23324" d="M453.685,585.555,436.25,575.487l4.373-2.527,17.438,10.068Z" transform="translate(-412.189 -547.565)" fill="#fff" stroke="#020f1e" stroke-width="1"/>
            <path id="Path_23325" data-name="Path 23325" d="M444.737,519.992l-4.757-2.746,3.232-1.866,4.754,2.746Z" transform="translate(-414.717 -508.541)" fill="#fff" stroke="#020f1e" stroke-width="1"/>
            <path id="Path_23326" data-name="Path 23326" d="M435.414,533.3l-4.754-2.743,3.229-1.866,4.757,2.743Z" transform="translate(-408.401 -517.562)" fill="#fff" stroke="#020f1e" stroke-width="1"/>
            <path id="Path_23327" data-name="Path 23327" d="M425.847,546.742,421.09,544l3.232-1.866,4.754,2.746Z" transform="translate(-401.915 -526.67)" fill="#fff" stroke="#020f1e" stroke-width="1"/>
            <path id="Path_23328" data-name="Path 23328" d="M447.464,559.222l-4.754-2.746,3.229-1.866,4.757,2.746Z" transform="translate(-416.567 -535.128)" fill="#fff" stroke="#020f1e" stroke-width="1"/>
            <path id="Path_23329" data-name="Path 23329" d="M469.074,571.7l-4.754-2.743,3.229-1.866,4.757,2.746Z" transform="translate(-431.213 -543.586)" fill="#fff" stroke="#020f1e" stroke-width="1"/>
            <path id="Path_23330" data-name="Path 23330" d="M490.684,584.179l-4.754-2.743,3.232-1.866,4.754,2.743Z" transform="translate(-445.858 -552.045)" fill="#fff" stroke="#020f1e" stroke-width="1"/>
            <path id="Path_23331" data-name="Path 23331" d="M512.294,596.652l-4.754-2.746,3.232-1.866,4.754,2.746Z" transform="translate(-460.504 -560.496)" fill="#fff" stroke="#020f1e" stroke-width="1"/>
            <path id="Path_23332" data-name="Path 23332" d="M533.914,609.132l-4.754-2.746,3.229-1.866,4.753,2.746Z" transform="translate(-475.156 -568.954)" fill="#fff" stroke="#020f1e" stroke-width="1"/>
            <path id="Path_23333" data-name="Path 23333" d="M559.633,623.984l-8.863-5.118L554,617l8.863,5.118Z" transform="translate(-489.802 -577.411)" fill="#fff" stroke="#020f1e" stroke-width="1"/>
            <path id="Path_23334" data-name="Path 23334" d="M457.024,545.779l-4.754-2.743,3.232-1.866,4.754,2.743Z" transform="translate(-423.046 -526.02)" fill="#fff" stroke="#020f1e" stroke-width="1"/>
            <path id="Path_23335" data-name="Path 23335" d="M478.637,558.252l-4.757-2.746,3.232-1.866,4.754,2.746Z" transform="translate(-437.692 -534.471)" fill="#fff" stroke="#020f1e" stroke-width="1"/>
            <path id="Path_23336" data-name="Path 23336" d="M500.254,570.732l-4.754-2.746,3.229-1.866,4.754,2.746Z" transform="translate(-452.344 -542.929)" fill="#fff" stroke="#020f1e" stroke-width="1"/>
            <path id="Path_23337" data-name="Path 23337" d="M521.864,583.212l-4.754-2.746,3.229-1.866,4.757,2.746Z" transform="translate(-466.989 -551.387)" fill="#fff" stroke="#020f1e" stroke-width="1"/>
            <path id="Path_23338" data-name="Path 23338" d="M543.474,595.689l-4.754-2.743,3.232-1.866,4.753,2.746Z" transform="translate(-481.635 -559.845)" fill="#fff" stroke="#020f1e" stroke-width="1"/>
            <path id="Path_23339" data-name="Path 23339" d="M571.4,611.81l-11.073-6.394,3.232-1.866,11.073,6.394Z" transform="translate(-496.281 -568.296)" fill="#fff" stroke="#020f1e" stroke-width="1"/>
            <path id="Path_23340" data-name="Path 23340" d="M466.354,532.472l-4.754-2.746,3.229-1.866,4.754,2.746Z" transform="translate(-429.369 -517)" fill="#fff" stroke="#020f1e" stroke-width="1"/>
            <path id="Path_23341" data-name="Path 23341" d="M487.964,544.949l-4.754-2.743,3.229-1.866,4.757,2.742Z" transform="translate(-444.015 -525.458)" fill="#fff" stroke="#020f1e" stroke-width="1"/>
            <path id="Path_23342" data-name="Path 23342" d="M509.574,557.429l-4.754-2.746,3.232-1.863,4.754,2.746Z" transform="translate(-458.661 -533.915)" fill="#fff" stroke="#020f1e" stroke-width="1"/>
            <path id="Path_23343" data-name="Path 23343" d="M531.184,569.9l-4.753-2.746,3.232-1.866,4.754,2.746Z" transform="translate(-473.306 -542.366)" fill="#fff" stroke="#020f1e" stroke-width="1"/>
            <path id="Path_23344" data-name="Path 23344" d="M552.8,582.382l-4.757-2.746,3.232-1.866,4.754,2.746Z" transform="translate(-487.951 -550.824)" fill="#fff" stroke="#020f1e" stroke-width="1"/>
            <path id="Path_23345" data-name="Path 23345" d="M574.414,594.862l-4.754-2.746,3.229-1.866L577.646,593Z" transform="translate(-502.604 -559.283)" fill="#fff" stroke="#020f1e" stroke-width="1"/>
            <path id="Path_23346" data-name="Path 23346" d="M597.59,608.244l-6.32-3.648,3.232-1.866,6.317,3.648Z" transform="translate(-517.25 -567.74)" fill="#fff" stroke="#020f1e" stroke-width="1"/>
          </g>
          <path id="Path_23347" data-name="Path 23347" d="M510.642,529.521,458.43,499.376,460,498.47l52.212,30.146Z" transform="translate(-337.376 -372.3)" fill="#020f1e"/>
          <path id="Path_23348" data-name="Path 23348" d="M399.5,591.772,372.859,576.39,356.3,585.949l26.646,15.382Z" transform="translate(-268.16 -425.108)" fill="none" stroke="#020f1e" stroke-width="1"/>
          <path id="Path_23349" data-name="Path 23349" d="M403.263,583.69l-45.035,26a4.425,4.425,0,0,1-3.191.322,7.661,7.661,0,0,1-.744-.322l-66.067-38.148a1.668,1.668,0,0,1-.209-.135h0l-.048-.039c-.039-.032-.077-.061-.11-.093l-.052-.048a1.325,1.325,0,0,1-.113-.122h0a1.356,1.356,0,0,1-.1-.151,1.012,1.012,0,0,1-.145-.474h0v.967h0a1.373,1.373,0,0,0,.806,1.147l66.067,38.145a8.086,8.086,0,0,0,4.512.483c.68-.161,1.273-.322,1.976-.467L403.3,586.22a1.377,1.377,0,0,0,.812-1.151v-2.5A1.54,1.54,0,0,1,403.263,583.69Z" transform="translate(-221.499 -421.103)" fill="#fff" stroke="#020f1e" stroke-width="1"/>
          <g id="Group_7181" data-name="Group 7181" transform="translate(42.702 108.419)">
            <path id="Path_23364" data-name="Path 23364" d="M244.35,476.371l9.362-5.4V460.16l-9.362,5.4Z" transform="translate(-234.991 -454.756)" fill="#fff" stroke="#020f1e" stroke-linecap="round" stroke-linejoin="round" stroke-width="1"/>
            <path id="Path_23365" data-name="Path 23365" d="M224.669,476.371l-9.359-5.4V460.16l9.359,5.4Z" transform="translate(-215.31 -454.756)" fill="#fff" stroke="#020f1e" stroke-linecap="round" stroke-linejoin="round" stroke-width="1"/>
            <path id="Path_23366" data-name="Path 23366" d="M224.669,454.2l-9.359-5.4,9.359-5.4,9.362,5.4Z" transform="translate(-215.31 -443.39)" fill="#fff" stroke="#020f1e" stroke-linecap="round" stroke-linejoin="round" stroke-width="1"/>
            <path id="Path_23367" data-name="Path 23367" d="M236.648,457.825l-3.668-2.117,3.668-2.117,3.667,2.117Z" transform="translate(-227.285 -450.303)" fill="#020f1e"/>
          </g>
          <g id="Group_7182" data-name="Group 7182" transform="translate(182.577 181.069)">
            <path id="Path_23364-2" data-name="Path 23364" d="M244.35,476.371l9.362-5.4V460.16l-9.362,5.4Z" transform="translate(-234.991 -454.756)" fill="#fff" stroke="#020f1e" stroke-linecap="round" stroke-linejoin="round" stroke-width="1"/>
            <path id="Path_23365-2" data-name="Path 23365" d="M224.669,476.371l-9.359-5.4V460.16l9.359,5.4Z" transform="translate(-215.31 -454.756)" fill="#fff" stroke="#020f1e" stroke-linecap="round" stroke-linejoin="round" stroke-width="1"/>
            <path id="Path_23366-2" data-name="Path 23366" d="M224.669,454.2l-9.359-5.4,9.359-5.4,9.362,5.4Z" transform="translate(-215.31 -443.39)" fill="#fff" stroke="#020f1e" stroke-linecap="round" stroke-linejoin="round" stroke-width="1"/>
            <path id="Path_23367-2" data-name="Path 23367" d="M236.648,457.825l-3.668-2.117,3.668-2.117,3.667,2.117Z" transform="translate(-227.285 -450.303)" fill="#020f1e"/>
          </g>
          <g id="Group_7180" data-name="Group 7180" transform="translate(257.393 146.777)">
            <path id="Path_23391" data-name="Path 23391" d="M862.4,512.143,836.681,497.3a3.12,3.12,0,0,1,0-5.911L862.4,476.535a11.312,11.312,0,0,1,10.239,0l25.718,14.851a3.12,3.12,0,0,1,0,5.911l-25.718,14.847A11.311,11.311,0,0,1,862.4,512.143Z" transform="translate(-834.56 -475.31)" fill="#fff" stroke="#020f1e" stroke-width="1"/>
            <path id="Path_23392" data-name="Path 23392" d="M898.355,537.315l-25.718,14.847a11.312,11.312,0,0,1-10.239,0l-25.718-14.847a3.6,3.6,0,0,1-2.12-2.955v52.7a3.589,3.589,0,0,0,2.12,2.952L862.4,604.865a11.313,11.313,0,0,0,10.239,0l25.718-14.851a3.589,3.589,0,0,0,2.121-2.952v-52.7A3.593,3.593,0,0,1,898.355,537.315Z" transform="translate(-834.56 -515.33)" fill="#fff" stroke="#020f1e" stroke-linecap="round" stroke-linejoin="round" stroke-width="1"/>
            <path id="Path_23393" data-name="Path 23393" d="M898.355,592.925l-25.718,14.847a11.312,11.312,0,0,1-10.239,0l-25.718-14.847a3.6,3.6,0,0,1-2.12-2.955v2.823a3.593,3.593,0,0,0,2.12,2.955L862.4,610.605a11.339,11.339,0,0,0,10.239,0l25.718-14.851a3.594,3.594,0,0,0,2.121-2.955v-2.82A3.6,3.6,0,0,1,898.355,592.925Z" transform="translate(-834.56 -553.018)" fill="#020f1e"/>
            <path id="Path_23396" data-name="Path 23396" d="M882.355,518.016l-21.309-12.3c-1.341-.773-1.341-2.034,0-2.807l21.309-12.3a5.379,5.379,0,0,1,4.86,0l21.312,12.3c1.341.773,1.341,2.034,0,2.807l-21.312,12.3a5.379,5.379,0,0,1-4.86,0Zm3.777-26.788a2.962,2.962,0,0,0-2.685,0l-21.315,12.321a.818.818,0,0,0,0,1.55l21.312,12.3a2.962,2.962,0,0,0,2.685,0l21.312-12.3a.819.819,0,0,0,0-1.55Z" transform="translate(-851.828 -485.279)" fill="#020f1e"/>
            <g id="Group_7179" data-name="Group 7179" transform="translate(41.345 48.416)">
              <path id="Path_23398" data-name="Path 23398" d="M977.781,639.3,962.85,647.92v-1.669l14.931-8.621Z" transform="translate(-962.85 -633.734)" fill="#ff9e2c"/>
              <path id="Path_23399" data-name="Path 23399" d="M974.313,658.9l-11.463,6.62V663.85l11.463-6.62Z" transform="translate(-962.85 -647.017)" fill="#ff9e2c"/>
              <path id="Path_23400" data-name="Path 23400" d="M977.781,666.086l-14.931,8.621v-1.666l14.931-8.621Z" transform="translate(-962.85 -651.89)" fill="#ff9e2c"/>
              <path id="Path_23401" data-name="Path 23401" d="M1015.887,659.979l-1.837,1.06v-1.666l1.837-1.063Z" transform="translate(-997.55 -647.749)" fill="#ff9e2c"/>
              <path id="Path_23402" data-name="Path 23402" d="M1026.257,654l-1.837,1.06V653.39l1.837-1.06Z" transform="translate(-1004.578 -643.696)" fill="#ff9e2c"/>
              <path id="Path_23403" data-name="Path 23403" d="M1015.887,673.376l-1.837,1.06V672.77l1.837-1.06Z" transform="translate(-997.55 -656.83)" fill="#ff9e2c"/>
              <path id="Path_23404" data-name="Path 23404" d="M1026.257,667.389l-1.837,1.06V666.78l1.837-1.06Z" transform="translate(-1004.578 -652.771)" fill="#ff9e2c"/>
              <path id="Path_23405" data-name="Path 23405" d="M1015.887,686.769l-1.837,1.06V686.16l1.837-1.06Z" transform="translate(-997.55 -665.905)" fill="#ff9e2c"/>
              <path id="Path_23406" data-name="Path 23406" d="M1026.257,680.786l-1.837,1.06V680.18l1.837-1.06Z" transform="translate(-1004.578 -661.852)" fill="#ff9e2c"/>
              <path id="Path_23407" data-name="Path 23407" d="M1015.887,646.589l-1.837,1.06V645.98l1.837-1.06Z" transform="translate(-997.55 -638.674)" fill="#ff9e2c"/>
              <path id="Path_23408" data-name="Path 23408" d="M1026.257,640.6l-1.837,1.06v-1.67l1.837-1.06Z" transform="translate(-1004.578 -634.615)" fill="#ff9e2c"/>
              <path id="Path_23409" data-name="Path 23409" d="M1015.887,633.2l-1.837,1.06V632.59l1.837-1.06Z" transform="translate(-997.55 -629.6)" fill="#ff9e2c"/>
              <path id="Path_23410" data-name="Path 23410" d="M1026.257,627.206l-1.837,1.06V626.6l1.837-1.06Z" transform="translate(-1004.578 -625.54)" fill="#ff9e2c"/>
              <path id="Path_23411" data-name="Path 23411" d="M977.781,679.479,962.85,688.1v-1.669l14.931-8.621Z" transform="translate(-962.85 -660.965)" fill="#ff9e2c"/>
              <path id="Path_23412" data-name="Path 23412" d="M977.781,692.876,962.85,701.5v-1.666l14.931-8.621Z" transform="translate(-962.85 -670.046)" fill="#ff9e2c"/>
            </g>
            <g id="Group_7178" data-name="Group 7178" transform="translate(39.508 28.254)">
              <path id="Path_23413" data-name="Path 23413" d="M959.306,609.885l-2.156,1.244v-8.8l2.156-1.244Z" transform="translate(-957.15 -588.801)" fill="#ff9e2c"/>
              <path id="Path_23414" data-name="Path 23414" d="M972.5,602.265l-2.153,1.244v-8.8l2.153-1.244Z" transform="translate(-966.096 -583.637)" fill="#ff9e2c"/>
              <path id="Path_23415" data-name="Path 23415" d="M985.7,594.645l-2.153,1.244v-8.8l2.153-1.244Z" transform="translate(-975.042 -578.473)" fill="#ff9e2c"/>
              <path id="Path_23416" data-name="Path 23416" d="M998.9,587.025l-2.153,1.244v-8.8l2.153-1.244Z" transform="translate(-983.988 -573.308)" fill="#ff9e2c"/>
              <path id="Path_23417" data-name="Path 23417" d="M1012.1,579.4l-2.156,1.244v-8.8l2.156-1.244Z" transform="translate(-992.927 -568.144)" fill="#ff9e2c"/>
              <path id="Path_23418" data-name="Path 23418" d="M1025.3,571.785l-2.156,1.244v-8.8l2.156-1.244Z" transform="translate(-1001.873 -562.98)" fill="#ff9e2c"/>
            </g>
          </g>
          <g id="Group_7176" data-name="Group 7176" transform="translate(0 31.068)">
            <path id="Path_23373" data-name="Path 23373" d="M212.9,154.333l-25.721-14.851a3.12,3.12,0,0,1,0-5.911L212.9,118.721a11.331,11.331,0,0,1,10.236,0l25.714,14.851a3.121,3.121,0,0,1,0,5.911l-25.721,14.851a11.306,11.306,0,0,1-10.236,0Z" transform="translate(-185.054 -117.5)" fill="#fff" stroke="#020f1e" stroke-width="1"/>
            <path id="Path_23374" data-name="Path 23374" d="M248.838,179.5l-25.721,14.851a11.28,11.28,0,0,1-10.236,0L187.161,179.5a3.594,3.594,0,0,1-2.121-2.955V211.32a3.594,3.594,0,0,0,2.121,2.955l25.721,14.851a11.305,11.305,0,0,0,10.236,0l25.721-14.851a3.6,3.6,0,0,0,2.117-2.955V176.54A3.57,3.57,0,0,1,248.838,179.5Z" transform="translate(-185.04 -157.513)" fill="#fff" stroke="#020f1e" stroke-width="1"/>
            <path id="Path_23377" data-name="Path 23377" d="M232.858,160.2l-21.312-12.308c-1.341-.773-1.341-2.03,0-2.8l21.312-12.308a5.379,5.379,0,0,1,4.86,0l21.312,12.308c1.341.773,1.341,2.03,0,2.807l-21.309,12.3A5.379,5.379,0,0,1,232.858,160.2Zm3.771-26.775a2.962,2.962,0,0,0-2.685,0l-21.322,12.292a.818.818,0,0,0,0,1.55l21.309,12.3a2.984,2.984,0,0,0,2.685,0l21.325-12.288a.818.818,0,0,0,0-1.55Z" transform="translate(-202.322 -127.462)" fill="#020f1e"/>
            <path id="Path_23379" data-name="Path 23379" d="M323.122,228.716l-15.592,9v-1.666l15.592-9Z" transform="translate(-268.054 -191.745)" fill="#ff9e2c"/>
            <path id="Path_23380" data-name="Path 23380" d="M367.2,214.406l-6.417,3.706v-1.669l6.417-3.7Z" transform="translate(-304.143 -182.046)" fill="#ff9e2c"/>
            <path id="Path_23381" data-name="Path 23381" d="M319,249.5l-11.467,6.62V254.45L319,247.83Z" transform="translate(-268.054 -205.828)" fill="#ff9e2c"/>
            <path id="Path_23382" data-name="Path 23382" d="M358.522,227.8l-10.542,6.088v-1.669l10.542-6.088Z" transform="translate(-295.468 -191.121)" fill="#ff9e2c"/>
            <path id="Path_23383" data-name="Path 23383" d="M322.464,256.686l-14.934,8.621v-1.666l14.934-8.621Z" transform="translate(-268.054 -210.7)" fill="#ff9e2c"/>
            <path id="Path_23384" data-name="Path 23384" d="M360.577,250.579l-1.837,1.06V249.97l1.837-1.06Z" transform="translate(-302.761 -206.559)" fill="#ff9e2c"/>
            <path id="Path_23385" data-name="Path 23385" d="M370.947,244.6l-1.837,1.06V243.99l1.837-1.06Z" transform="translate(-309.789 -202.507)" fill="#ff9e2c"/>
            <path id="Path_23386" data-name="Path 23386" d="M323.122,268.9l-15.592,9v-1.669l15.592-9Z" transform="translate(-268.054 -218.975)" fill="#ff9e2c"/>
            <path id="Path_23387" data-name="Path 23387" d="M367.2,254.589l-6.417,3.7v-1.666l6.417-3.706Z" transform="translate(-304.143 -209.277)" fill="#ff9e2c"/>
            <path id="Path_23388" data-name="Path 23388" d="M323.122,282.289l-15.592,9v-1.666l15.592-9Z" transform="translate(-268.054 -228.05)" fill="#ff9e2c"/>
            <path id="Path_23389" data-name="Path 23389" d="M367.2,267.979l-6.417,3.706v-1.669l6.417-3.706Z" transform="translate(-304.143 -218.352)" fill="#ff9e2c"/>
          </g>
        </g>
      </g>
      <g id="Group_8" data-name="Group 8" transform="translate(390.765 289.8)" opacity="0">
        <path id="Rectangle_3-2" data-name="Rectangle 3" d="M1267.571,591.056c-12.206,37.565-32.261,68.535-58.333,92.588.355,75.375,4.2,123.973,4.026,168.361,22.677-23.277,49.164-55.732,54.307-97.255Z" transform="translate(-1045.004 -591.056)" fill="rgba(2,15,30,0.4)" stroke="#020f1e" stroke-width="1"/>
        <path id="Rectangle_3_copy-2" data-name="Rectangle 3 copy" d="M1296.778,634.368c-41.847,38.911-99.34,59.884-164.83,61.575,0,64.015,0,128.029,1.367,182.389,114.99-29.846,167.411-75.586,167.411-75.586S1297.291,725.376,1296.778,634.368Z" transform="translate(-1131.948 -542.332)" fill="rgba(255,255,255,0.5)" stroke="#020f1e" stroke-width="1"/>
        <path id="Rectangle_4-2" data-name="Rectangle 4" d="M1237.472,603.6q-2.012,6.588-4.334,12.789.3,8.152.584,15.994,2.2-6.627,4.052-13.738Q1237.628,611.2,1237.472,603.6Z" transform="translate(-1018.116 -576.949)" fill="#fafcff"/>
        <path id="Rectangle_4_copy-2" data-name="Rectangle 4 copy" d="M1237.459,613.666q-1.787,7.291-3.934,14.057.272,7.725.508,15.183,2.028-7.021,3.679-14.614Q1237.6,621.044,1237.459,613.666Z" transform="translate(-1017.681 -565.621)" fill="#fafcff"/>
        <path id="Rectangle_5-2" data-name="Rectangle 5" d="M.017,52.119c-.144-2.513.625-5.563,1.683-6.8A171.668,171.668,0,0,0,24.417,11.38c.8-1.563,1.531-.9,1.654,1.465a17.383,17.383,0,0,1-1.194,7.2A163.093,163.093,0,0,1,2.222,54.427a1.236,1.236,0,0,1-.881.522C.656,54.949.118,53.912.017,52.119ZM28.033,9.3A21.772,21.772,0,0,1,29.3,1.078c.819-1.859,1.549-1.253,1.662,1.352a23.1,23.1,0,0,1-1.214,8.222c-.315.763-.628,1.13-.9,1.13C28.432,11.782,28.114,10.92,28.033,9.3Z" transform="translate(181.265 51.99)" fill="#fafcff"/>
        <path id="Rectangle_5_copy-2" data-name="Rectangle 5 copy" d="M.024,53.365C-.145,51,.6,48.069,1.666,46.834A156.809,156.809,0,0,0,24.214,12.043c.784-1.631,1.5-1.136,1.616,1.109a17.847,17.847,0,0,1-1.161,7.09A152.244,152.244,0,0,1,2.271,55.4a1.305,1.305,0,0,1-.932.554C.67,55.954.141,55.014.024,53.365ZM27.733,9.39a23,23,0,0,1,1.22-8.157c.79-1.96,1.49-1.541,1.6.95a24.513,24.513,0,0,1-1.168,8.174c-.325.853-.647,1.267-.92,1.267C28.089,11.624,27.807,10.857,27.733,9.39Z" transform="translate(182.39 68.413)" fill="#fafcff"/>
        <path id="Rectangle_5_copy_2-2" data-name="Rectangle 5 copy 2" d="M.026,54.32A10,10,0,0,1,1.64,48.026,148.914,148.914,0,0,0,23.857,12.541c.761-1.685,1.446-1.327,1.553.809a18.348,18.348,0,0,1-1.142,6.967,146.611,146.611,0,0,1-22,35.772,1.364,1.364,0,0,1-.975.593C.65,56.683.145,55.833.026,54.32ZM27.244,9.427a24.242,24.242,0,0,1,1.19-8.063c.757-2.035,1.423-1.767,1.515.623a25.823,25.823,0,0,1-1.14,8.1c-.329.925-.653,1.376-.922,1.376C27.554,11.461,27.307,10.769,27.244,9.427Z" transform="translate(183.642 84.094)" fill="#fafcff"/>
        <path id="Rectangle_5_copy_3-2" data-name="Rectangle 5 copy 3" d="M.024,54.975A9.733,9.733,0,0,1,1.63,48.9,145.282,145.282,0,0,0,23.4,12.878c.738-1.717,1.389-1.474,1.472.562a19,19,0,0,1-1.138,6.839A144.572,144.572,0,0,1,2.214,56.494a1.416,1.416,0,0,1-1.011.636C.6,57.129.133,56.361.024,54.975ZM26.639,9.415a25.7,25.7,0,0,1,1.176-7.95c.727-2.083,1.35-1.932,1.421.369a27.2,27.2,0,0,1-1.13,7.992c-.33.979-.65,1.459-.909,1.459C26.9,11.285,26.687,10.653,26.639,9.415Z" transform="translate(184.89 99.115)" fill="#fafcff"/>
        <path id="Rectangle_5_copy_4-2" data-name="Rectangle 5 copy 4" d="M.016,55.333A9.689,9.689,0,0,1,1.638,49.46,144.749,144.749,0,0,0,22.866,13.074c.713-1.738,1.318-1.587,1.371.358a19.866,19.866,0,0,1-1.159,6.69A145.481,145.481,0,0,1,2.107,56.6a1.46,1.46,0,0,1-1.034.68C.519,57.285.1,56.6.016,55.333ZM25.936,9.344a27.4,27.4,0,0,1,1.19-7.807c.7-2.108,1.275-2.046,1.315.168a28.89,28.89,0,0,1-1.147,7.858c-.33,1.014-.644,1.515-.887,1.515C26.143,11.079,25.963,10.5,25.936,9.344Z" transform="translate(186.077 114.569)" fill="#fafcff"/>
        <path id="Rectangle_5_copy_5-2" data-name="Rectangle 5 copy 5" d="M.007,55.34a9.866,9.866,0,0,1,1.662-5.7A146.892,146.892,0,0,0,22.39,13.111c.694-1.74,1.255-1.654,1.268.216a20.894,20.894,0,0,1-1.209,6.546A148.792,148.792,0,0,1,1.967,56.405c-.375.487-.735.72-1.042.719C.423,57.125.062,56.5.007,55.34Zm25.3-46.107a29.424,29.424,0,0,1,1.232-7.661c.681-2.106,1.214-2.1,1.216.05a30.213,30.213,0,0,1-1.2,7.715c-.329,1.028-.634,1.537-.86,1.537S25.31,10.323,25.305,9.233Z" transform="translate(186.907 128.479)" fill="#fafcff"/>
        <path id="Rectangle_6_copy_3-2" data-name="Rectangle 6 copy 3" d="M6.36,143.276a6.982,6.982,0,0,1,5.334-7.439c25.423-5.177,49.235-10.921,70.941-18.463,2.807-.97,5.361.805,5.721,3.934a7.342,7.342,0,0,1-4.368,7.484c-21.5,7.855-45.26,13.935-70.948,19.378a5.992,5.992,0,0,1-1.25.134A5.423,5.423,0,0,1,6.36,143.276ZM3.942,119.092c-.332-3.562,2.026-6.969,5.229-7.587,28.281-5.48,55.147-11.521,79.513-20.155,2.765-.978,5.323.941,5.748,4.268s-1.432,6.829-4.177,7.843c-24.236,8.9-51.138,15.221-79.786,20.9a5.5,5.5,0,0,1-1.073.107A5.613,5.613,0,0,1,3.942,119.092Zm89.7.174a7.676,7.676,0,0,1,4.221-7.638,224.773,224.773,0,0,0,27.661-13.493c2.389-1.382,4.474-.083,4.657,2.885a9.389,9.389,0,0,1-3.9,7.932,222.4,222.4,0,0,1-27.232,13.872,4.248,4.248,0,0,1-1.684.368C95.449,123.193,93.913,121.7,93.642,119.266ZM1.826,94.2c-.262-3.629,2.1-7.048,5.222-7.638C21.148,83.9,35,81.094,48.437,77.875c2.981-.712,5.673,1.595,6.076,5.159s-1.656,7.042-4.657,7.77c-13.515,3.278-27.491,6.143-41.772,8.87a5.129,5.129,0,0,1-.963.092C4.36,99.765,2.061,97.461,1.826,94.2Zm97.834-.639c-.42-3.317,1.412-6.914,4.051-8.024,6.771-2.856,13.31-5.967,19.593-9.383,2.45-1.329,4.685.213,5.017,3.437s-1.339,6.93-3.755,8.289a216.01,216.01,0,0,1-19.392,9.6,3.964,3.964,0,0,1-1.594.35C101.619,97.837,99.991,96.193,99.66,93.565ZM60.236,81.559C59.829,78,61.9,74.473,64.8,73.673c19.94-5.506,38.744-12.239,55.816-21.176,2.483-1.3,4.769.471,5.156,3.942s-1.261,7.344-3.726,8.657C105.065,74.122,86.291,80.94,66.287,86.531a4.436,4.436,0,0,1-1.2.168C62.661,86.7,60.586,84.622,60.236,81.559ZM.388,69.1c-.141-3.625,2.283-7,5.35-7.575C29.5,57.1,52.649,52.045,74.355,45.149c2.8-.893,5.255,1.335,5.565,4.993s-1.663,7.338-4.485,8.214C53.606,65.147,30.272,70.123,6.3,74.623a4.86,4.86,0,0,1-.9.085C2.7,74.707.511,72.366.388,69.1Zm84.9-20.78c-.315-3.662,1.7-7.439,4.4-8.456A245.72,245.72,0,0,0,118.108,27.23c2.483-1.31,4.714.647,5.064,4.362s-1.329,7.772-3.816,9.071A242.115,242.115,0,0,1,90.848,53.147a3.823,3.823,0,0,1-1.32.243C87.355,53.389,85.548,51.373,85.286,48.316ZM0,44.259c.038-3.552,2.6-6.829,5.651-7.382C19.377,34.377,32.846,31.47,45.916,28c2.9-.773,5.182,1.487,5.216,5.1s-2.229,7.176-5.151,7.91c-13.167,3.321-26.706,6.147-40.463,8.689a4.747,4.747,0,0,1-.866.081C2.007,49.787-.035,47.468,0,44.259ZM56.71,31.553c-.042-3.629,2.308-7.24,5.127-8.123a280.71,280.71,0,0,0,54.611-23c2.446-1.383,4.518.712,4.736,4.666s-1.538,8.23-4.012,9.561c-16.995,9.168-35.56,16.258-55.145,22a4.1,4.1,0,0,1-1.151.17C58.554,36.823,56.742,34.679,56.71,31.553Z" transform="matrix(1, -0.017, 0.017, 1, 23.586, 149.038)" fill="#020f1e" opacity="0.3"/>
      </g>
      <g id="_4-2" data-name="4" transform="translate(0 291.478)">
        <g id="Group_1589" data-name="Group 1589" transform="translate(0 0)">
          <path id="Shape_130" data-name="Shape 130" d="M309.559,428.568V621.209S247.818,563.425,239,528.838V354S271.526,399.05,309.559,428.568Z" transform="translate(-239 -354)" fill="none" stroke="#020f1e" stroke-width="1"/>
          <path id="Shape_131" data-name="Shape 131" d="M525.512,500.969V678.078S392.889,682.223,294,612.52V420S371.481,486.711,525.512,500.969Z" transform="translate(-223.52 -345.432)" fill="rgba(255,255,255,0.7)" stroke="#020f1e" stroke-width="1"/>
        </g>
        <g id="Group_10900" data-name="Group 10900" transform="translate(90.806 117.504)">
          <g id="Path_46325" data-name="Path 46325" transform="translate(5.986 13.366)" fill="none" stroke-linecap="round">
            <path d="M5.073,19a5.073,5.073,0,0,1,5.073,5.073V124.518a5.073,5.073,0,0,1-10.146,0V24.073A5.073,5.073,0,0,1,5.073,19Z" stroke="none"/>
            <path d="M 5.072961330413818 20 C 2.827118396759033 20 1.000003814697266 21.82712554931641 1.000003814697266 24.07296752929688 L 1.000003814697266 124.5175933837891 C 1.000003814697266 126.7634353637695 2.827118396759033 128.5905609130859 5.072961330413818 128.5905609130859 C 7.318804264068604 128.5905609130859 9.145918846130371 126.7634353637695 9.145918846130371 124.5175933837891 L 9.145918846130371 24.07296752929688 C 9.145918846130371 21.82712554931641 7.318804264068604 20 5.072961330413818 20 M 5.072961330413818 19 C 7.874675750732422 19 10.14591884613037 21.271240234375 10.14591884613037 24.07296752929688 L 10.14591884613037 124.5175933837891 C 10.14591884613037 127.3193054199219 7.874675750732422 129.5905609130859 5.072961330413818 129.5905609130859 C 2.271246910095215 129.5905609130859 3.814697265625e-06 127.3193054199219 3.814697265625e-06 124.5175933837891 L 3.814697265625e-06 24.07296752929688 C 3.814697265625e-06 21.271240234375 2.271246910095215 19 5.072961330413818 19 Z" stroke="none" fill="#020f1e"/>
          </g>
          <g id="Path_46319" data-name="Path 46319" transform="translate(27.293 24.687)" fill="none" stroke-linecap="round">
            <path d="M5.073,30a5.073,5.073,0,0,1,5.073,5.073v89.284a5.073,5.073,0,0,1-10.146,0V35.073A5.073,5.073,0,0,1,5.073,30Z" stroke="none"/>
            <path d="M 5.072961330413818 31 C 2.827121257781982 31 1.000000953674316 32.82712554931641 1.000000953674316 35.07296752929688 L 1.000000953674316 124.3570861816406 C 1.000000953674316 126.602912902832 2.827121257781982 128.4300384521484 5.072961330413818 128.4300384521484 C 7.318801403045654 128.4300384521484 9.14592170715332 126.602912902832 9.14592170715332 124.3570861816406 L 9.14592170715332 35.07296752929688 C 9.14592170715332 32.82712554931641 7.318801403045654 31 5.072961330413818 31 M 5.072961330413818 30 C 7.87468147277832 30 10.14592170715332 32.27123260498047 10.14592170715332 35.07296752929688 L 10.14592170715332 124.3570861816406 C 10.14592170715332 127.1587982177734 7.87468147277832 129.4300384521484 5.072961330413818 129.4300384521484 C 2.271241188049316 129.4300384521484 9.5367431640625e-07 127.1587982177734 9.5367431640625e-07 124.3570861816406 L 9.5367431640625e-07 35.07296752929688 C 9.5367431640625e-07 32.27123260498047 2.271241188049316 30 5.072961330413818 30 Z" stroke="none" fill="#020f1e"/>
          </g>
          <g id="Path_46320" data-name="Path 46320" transform="translate(45.555 34.11)" fill="none" stroke-linecap="round">
            <path d="M5.073,50a5.073,5.073,0,0,1,5.073,5.073v68.992a5.073,5.073,0,0,1-10.146,0V55.073A5.073,5.073,0,0,1,5.073,50Z" stroke="none"/>
            <path d="M 5.072961330413818 51 C 2.827116966247559 51 0.9999942779541016 52.82711791992188 0.9999942779541016 55.07295227050781 L 0.9999942779541016 124.0652313232422 C 0.9999942779541016 126.3110809326172 2.827116966247559 128.1381988525391 5.072961330413818 128.1381988525391 C 7.318805694580078 128.1381988525391 9.145928382873535 126.3110809326172 9.145928382873535 124.0652313232422 L 9.145928382873535 55.07295227050781 C 9.145928382873535 52.82711791992188 7.318805694580078 51 5.072961330413818 51 M 5.072961330413818 50 C 7.874683380126953 50 10.14592838287354 52.271240234375 10.14592838287354 55.07295227050781 L 10.14592838287354 124.0652313232422 C 10.14592838287354 126.8669586181641 7.874683380126953 129.1381988525391 5.072961330413818 129.1381988525391 C 2.271239280700684 129.1381988525391 -5.7220458984375e-06 126.8669586181641 -5.7220458984375e-06 124.0652313232422 L -5.7220458984375e-06 55.07295227050781 C -5.7220458984375e-06 52.271240234375 2.271239280700684 50 5.072961330413818 50 Z" stroke="none" fill="#020f1e"/>
          </g>
          <g id="Path_46321" data-name="Path 46321" transform="translate(66.862 42.475)" fill="none" stroke-linecap="round">
            <path d="M5.073,67a5.073,5.073,0,0,1,5.073,5.073v51.744a5.073,5.073,0,1,1-10.146,0V72.073A5.073,5.073,0,0,1,5.073,67Z" stroke="none"/>
            <path d="M 5.072961330413818 68 C 2.827121257781982 68 1.000000953674316 69.82711791992188 1.000000953674316 72.07295989990234 L 1.000000953674316 123.8171691894531 C 1.000000953674316 126.0630111694336 2.827121257781982 127.89013671875 5.072961330413818 127.89013671875 C 7.318801403045654 127.89013671875 9.14592170715332 126.0630111694336 9.14592170715332 123.8171691894531 L 9.14592170715332 72.07295989990234 C 9.14592170715332 69.82711791992188 7.318801403045654 68 5.072961330413818 68 M 5.072961330413818 67 C 7.87468147277832 67 10.14592170715332 69.271240234375 10.14592170715332 72.07295989990234 L 10.14592170715332 123.8171691894531 C 10.14592170715332 126.6188812255859 7.87468147277832 128.89013671875 5.072961330413818 128.89013671875 C 2.271241188049316 128.89013671875 9.5367431640625e-07 126.6188812255859 9.5367431640625e-07 123.8171691894531 L 9.5367431640625e-07 72.07295989990234 C 9.5367431640625e-07 69.271240234375 2.271241188049316 67 5.072961330413818 67 Z" stroke="none" fill="#020f1e"/>
          </g>
          <g id="Path_46322" data-name="Path 46322" transform="translate(88.168 48.3)" fill="none" stroke-linecap="round">
            <path d="M5.073,49a5.073,5.073,0,0,1,5.073,5.073V124.08A5.073,5.073,0,0,1,0,124.08V54.073A5.073,5.073,0,0,1,5.073,49Z" stroke="none"/>
            <path d="M 5.072961330413818 50 C 2.827116966247559 50 0.9999942779541016 51.82712554931641 0.9999942779541016 54.07296752929688 L 0.9999942779541016 124.079833984375 C 0.9999942779541016 126.3256683349609 2.827116966247559 128.1527862548828 5.072961330413818 128.1527862548828 C 7.318805694580078 128.1527862548828 9.145928382873535 126.3256683349609 9.145928382873535 124.079833984375 L 9.145928382873535 54.07296752929688 C 9.145928382873535 51.82712554931641 7.318805694580078 50 5.072961330413818 50 M 5.072961330413818 49 C 7.874683380126953 49 10.14592838287354 51.271240234375 10.14592838287354 54.07296752929688 L 10.14592838287354 124.079833984375 C 10.14592838287354 126.8815460205078 7.874683380126953 129.1527862548828 5.072961330413818 129.1527862548828 C 2.271239280700684 129.1527862548828 -5.7220458984375e-06 126.8815460205078 -5.7220458984375e-06 124.079833984375 L -5.7220458984375e-06 54.07296752929688 C -5.7220458984375e-06 51.271240234375 2.271239280700684 49 5.072961330413818 49 Z" stroke="none" fill="#020f1e"/>
          </g>
          <g id="Path_46323" data-name="Path 46323" transform="translate(112.518 54.197)" fill="none" stroke-linecap="round">
            <path d="M5.073,36a5.073,5.073,0,0,1,5.073,5.073v83.2A5.073,5.073,0,1,1,0,124.27v-83.2A5.073,5.073,0,0,1,5.073,36Z" stroke="none"/>
            <path d="M 5.072961330413818 37 C 2.827123641967773 37 0.9999990463256836 38.82712554931641 0.9999990463256836 41.07295989990234 L 0.9999990463256836 124.2695236206055 C 0.9999990463256836 126.5153732299805 2.827123641967773 128.3424987792969 5.072961330413818 128.3424987792969 C 7.318799018859863 128.3424987792969 9.145923614501953 126.5153732299805 9.145923614501953 124.2695236206055 L 9.145923614501953 41.07295989990234 C 9.145923614501953 38.82712554931641 7.318799018859863 37 5.072961330413818 37 M 5.072961330413818 36 C 7.874686241149902 36 10.14592361450195 38.271240234375 10.14592361450195 41.07295989990234 L 10.14592361450195 124.2695236206055 C 10.14592361450195 127.0712356567383 7.874686241149902 129.3424987792969 5.072961330413818 129.3424987792969 C 2.271236419677734 129.3424987792969 -9.5367431640625e-07 127.0712356567383 -9.5367431640625e-07 124.2695236206055 L -9.5367431640625e-07 41.07295989990234 C -9.5367431640625e-07 38.271240234375 2.271236419677734 36 5.072961330413818 36 Z" stroke="none" fill="#020f1e"/>
          </g>
          <g id="Path_46324" data-name="Path 46324" transform="translate(136.869 56.657)" fill="none" stroke-linecap="round">
            <path d="M5.073-4a5.073,5.073,0,0,1,5.073,5.073v123.78a5.073,5.073,0,0,1-10.146,0V1.073A5.073,5.073,0,0,1,5.073-4Z" stroke="none"/>
            <path d="M 5.072961330413818 -3 C 2.827125072479248 -3 0.9999980926513672 -1.172874450683594 0.9999980926513672 1.072959899902344 L 0.9999980926513672 124.8532180786133 C 0.9999980926513672 127.0990524291992 2.827125072479248 128.9261779785156 5.072961330413818 128.9261779785156 C 7.318797588348389 128.9261779785156 9.14592456817627 127.0990524291992 9.14592456817627 124.8532180786133 L 9.14592456817627 1.072959899902344 C 9.14592456817627 -1.172874450683594 7.318797588348389 -3 5.072961330413818 -3 M 5.072961330413818 -4 C 7.874688625335693 -4 10.14592456817627 -1.728767395019531 10.14592456817627 1.072959899902344 L 10.14592456817627 124.8532180786133 C 10.14592456817627 127.6549453735352 7.874688625335693 129.9261779785156 5.072961330413818 129.9261779785156 C 2.271234035491943 129.9261779785156 -1.9073486328125e-06 127.6549453735352 -1.9073486328125e-06 124.8532180786133 L -1.9073486328125e-06 1.072959899902344 C -1.9073486328125e-06 -1.728767395019531 2.271234035491943 -4 5.072961330413818 -4 Z" stroke="none" fill="#020f1e"/>
          </g>
          <path id="Path_46326" data-name="Path 46326" d="M2905.1-2441.9v136.429s73.085,52.285,174.307,52.285" transform="translate(-2905.1 2441.9)" fill="none" stroke="#020f1e" stroke-width="1"/>
        </g>
        <g id="Group_10901" data-name="Group 10901" transform="translate(1.864 106.72)">
          <g id="Ellipse_1791" data-name="Ellipse 1791" transform="translate(0 10.26) rotate(-11)" fill="#fff" stroke="#020f1e" stroke-width="1">
            <ellipse cx="26.887" cy="40.671" rx="26.887" ry="40.671" stroke="none"/>
            <ellipse cx="26.887" cy="40.671" rx="26.387" ry="40.171" fill="none"/>
          </g>
          <path id="Path_46327" data-name="Path 46327" d="M2873.888-2417.553l-25.352,17.015-6-40.508s17.992-4.595,30.382,21.531l.055.118Z" transform="translate(-2817.071 2446.604)" fill="none" stroke="#020f1e" stroke-width="1"/>
        </g>
      </g>
    </g>
  </g>
</svg>
