<svg width="459" height="469" viewBox="0 0 459 469" fill="none" xmlns="http://www.w3.org/2000/svg">
<path d="M328.979 11.6932C409.696 33.5608 428.677 65.9446 428.677 65.9446V187.802C428.677 187.802 412.714 143.653 328.979 115.753" stroke="#FEF2EB" stroke-miterlimit="10"/>
<path d="M328.979 115.753C304.138 110.941 278.74 109.672 253.543 111.982V3.39518C265.055 3.52501 277.694 4.17415 291.261 5.66069C304.987 7.16021 317.604 9.29004 328.979 11.6932V115.753Z" stroke="#202020"/>
<path d="M328.979 115.753C304.138 110.941 278.74 109.672 253.543 111.982V3.39518C265.055 3.52501 277.694 4.17415 291.261 5.66069C304.987 7.16021 317.604 9.29004 328.979 11.6932V115.753Z" stroke="#FEF2EB" stroke-miterlimit="10"/>
<path d="M274.564 13.8237H261.163V25.392H274.564V13.8237Z" stroke="#FEF2EB"/>
<path d="M274.564 27.8276H261.163V39.396H274.564V27.8276Z" stroke="#FEF2EB"/>
<path d="M287.588 20.6669C288.934 20.6669 290.025 19.5765 290.025 18.2313C290.025 16.8862 288.934 15.7957 287.588 15.7957C286.242 15.7957 285.152 16.8862 285.152 18.2313C285.152 19.5765 286.242 20.6669 287.588 20.6669Z" stroke="#FEF2EB"/>
<path d="M287.588 29.1908C288.934 29.1908 290.025 28.1004 290.025 26.7552C290.025 25.4101 288.934 24.3196 287.588 24.3196C286.242 24.3196 285.152 25.4101 285.152 26.7552C285.152 28.1004 286.242 29.1908 287.588 29.1908Z" stroke="#FEF2EB"/>
<path d="M287.588 38.9325C288.934 38.9325 290.025 37.842 290.025 36.4969C290.025 35.1518 288.934 34.0613 287.588 34.0613C286.242 34.0613 285.152 35.1518 285.152 36.4969C285.152 37.842 286.242 38.9325 287.588 38.9325Z" stroke="#FEF2EB"/>
<path d="M287.588 47.4564C288.934 47.4564 290.025 46.3659 290.025 45.0208C290.025 43.6757 288.934 42.5852 287.588 42.5852C286.242 42.5852 285.152 43.6757 285.152 45.0208C285.152 46.3659 286.242 47.4564 287.588 47.4564Z" stroke="#FEF2EB"/>
<path d="M287.588 57.1987C288.934 57.1987 290.025 56.1083 290.025 54.7631C290.025 53.418 288.934 52.3275 287.588 52.3275C286.242 52.3275 285.152 53.418 285.152 54.7631C285.152 56.1083 286.242 57.1987 287.588 57.1987Z" stroke="#FEF2EB"/>
<path d="M287.588 65.7226C288.934 65.7226 290.025 64.6321 290.025 63.287C290.025 61.9419 288.934 60.8514 287.588 60.8514C286.242 60.8514 285.152 61.9419 285.152 63.287C285.152 64.6321 286.242 65.7226 287.588 65.7226Z" stroke="#FEF2EB"/>
<path d="M287.588 76.0732C288.934 76.0732 290.025 74.9827 290.025 73.6376C290.025 72.2925 288.934 71.202 287.588 71.202C286.242 71.202 285.152 72.2925 285.152 73.6376C285.152 74.9827 286.242 76.0732 287.588 76.0732Z" stroke="#FEF2EB"/>
<path d="M287.588 84.5977C288.934 84.5977 290.025 83.5073 290.025 82.1621C290.025 80.817 288.934 79.7265 287.588 79.7265C286.242 79.7265 285.152 80.817 285.152 82.1621C285.152 83.5073 286.242 84.5977 287.588 84.5977Z" stroke="#FEF2EB"/>
<path d="M287.588 94.3394C288.934 94.3394 290.025 93.2489 290.025 91.9038C290.025 90.5587 288.934 89.4682 287.588 89.4682C286.242 89.4682 285.152 90.5587 285.152 91.9038C285.152 93.2489 286.242 94.3394 287.588 94.3394Z" stroke="#FEF2EB"/>
<path d="M287.588 102.863C288.934 102.863 290.025 101.773 290.025 100.428C290.025 99.0826 288.934 97.9921 287.588 97.9921C286.242 97.9921 285.152 99.0826 285.152 100.428C285.152 101.773 286.242 102.863 287.588 102.863Z" stroke="#FEF2EB"/>
<path d="M296.049 15.7957L308.843 17.3037C309.475 17.3243 310.074 17.5899 310.514 18.0441C310.954 18.4984 311.2 19.1058 311.2 19.738C311.2 20.3702 310.954 20.9776 310.514 21.4319C310.074 21.8861 309.475 22.1516 308.843 22.1723L296.049 20.6643C295.723 20.675 295.397 20.6199 295.093 20.5024C294.788 20.3848 294.51 20.2072 294.275 19.9801C294.04 19.753 293.854 19.4811 293.726 19.1804C293.599 18.8798 293.533 18.5566 293.533 18.23C293.533 17.9035 293.599 17.5803 293.726 17.2796C293.854 16.979 294.04 16.707 294.275 16.4799C294.51 16.2528 294.788 16.0752 295.093 15.9577C295.397 15.8402 295.723 15.7851 296.049 15.7957Z" stroke="#FEF2EB"/>
<path d="M296.049 24.3196L308.843 25.8276C309.475 25.8482 310.074 26.1138 310.514 26.568C310.954 27.0223 311.2 27.6297 311.2 28.2619C311.2 28.8941 310.954 29.5015 310.514 29.9558C310.074 30.41 309.475 30.6755 308.843 30.6962L296.049 29.1882C295.723 29.1989 295.397 29.1438 295.093 29.0263C294.788 28.9087 294.51 28.7311 294.275 28.504C294.04 28.2769 293.854 28.005 293.726 27.7043C293.599 27.4037 293.533 27.0805 293.533 26.7539C293.533 26.4274 293.599 26.1042 293.726 25.8035C293.854 25.5029 294.04 25.2309 294.275 25.0038C294.51 24.7767 294.788 24.5991 295.093 24.4816C295.397 24.3641 295.723 24.309 296.049 24.3196Z" stroke="#FEF2EB"/>
<path d="M296.049 34.0613L308.843 35.5693C309.475 35.5899 310.074 35.8554 310.514 36.3097C310.954 36.764 311.2 37.3714 311.2 38.0036C311.2 38.6357 310.954 39.2432 310.514 39.6974C310.074 40.1517 309.475 40.4172 308.843 40.4378L296.049 38.9299C295.723 38.9405 295.397 38.8855 295.093 38.7679C294.788 38.6504 294.51 38.4728 294.275 38.2457C294.04 38.0186 293.854 37.7467 293.726 37.446C293.599 37.1453 293.533 36.8221 293.533 36.4956C293.533 36.1691 293.599 35.8459 293.726 35.5452C293.854 35.2446 294.04 34.9726 294.275 34.7455C294.51 34.5184 294.788 34.3408 295.093 34.2233C295.397 34.1057 295.723 34.0507 296.049 34.0613Z" stroke="#FEF2EB"/>
<path d="M296.134 42.5852L315.016 44.8475C315.649 44.8681 316.248 45.1336 316.688 45.5879C317.128 46.0421 317.373 46.6496 317.373 47.2818C317.373 47.9139 317.128 48.5214 316.688 48.9756C316.248 49.4299 315.649 49.6954 315.016 49.716L296.134 47.4538C295.807 47.4644 295.482 47.4094 295.177 47.2918C294.872 47.1743 294.594 46.9967 294.36 46.7696C294.125 46.5425 293.938 46.2705 293.811 45.9699C293.683 45.6692 293.618 45.346 293.618 45.0195C293.618 44.693 293.683 44.3697 293.811 44.0691C293.938 43.7684 294.125 43.4965 294.36 43.2694C294.594 43.0423 294.872 42.8647 295.177 42.7472C295.482 42.6296 295.807 42.5745 296.134 42.5852Z" stroke="#FEF2EB"/>
<path d="M296.049 52.3275L308.843 53.8355C309.475 53.8561 310.074 54.1217 310.514 54.5759C310.954 55.0302 311.2 55.6376 311.2 56.2698C311.2 56.902 310.954 57.5094 310.514 57.9637C310.074 58.4179 309.475 58.6834 308.843 58.7041L296.049 57.1961C295.723 57.2068 295.397 57.1517 295.093 57.0342C294.788 56.9166 294.51 56.739 294.275 56.5119C294.04 56.2848 293.854 56.0129 293.726 55.7122C293.599 55.4116 293.533 55.0884 293.533 54.7618C293.533 54.4353 293.599 54.1121 293.726 53.8114C293.854 53.5108 294.04 53.2388 294.275 53.0117C294.51 52.7846 294.788 52.607 295.093 52.4895C295.397 52.372 295.723 52.3169 296.049 52.3275Z" stroke="#FEF2EB"/>
<path d="M296.134 60.8514L315.016 63.1137C315.343 63.103 315.668 63.1581 315.973 63.2756C316.278 63.3932 316.556 63.5708 316.791 63.7979C317.025 64.025 317.212 64.2969 317.339 64.5976C317.467 64.8982 317.533 65.2214 317.533 65.548C317.533 65.8745 317.467 66.1977 317.339 66.4984C317.212 66.799 317.025 67.071 316.791 67.2981C316.556 67.5252 316.278 67.7028 315.973 67.8203C315.668 67.9378 315.343 67.9929 315.016 67.9823L296.134 65.72C295.807 65.7307 295.482 65.6756 295.177 65.558C294.872 65.4405 294.594 65.2629 294.36 65.0358C294.125 64.8087 293.938 64.5368 293.811 64.2361C293.683 63.9355 293.618 63.6122 293.618 63.2857C293.618 62.9592 293.683 62.636 293.811 62.3353C293.938 62.0347 294.125 61.7627 294.36 61.5356C294.594 61.3085 294.872 61.1309 295.177 61.0134C295.482 60.8958 295.807 60.8408 296.134 60.8514Z" stroke="#FEF2EB"/>
<path d="M296.049 71.202L308.842 72.71C309.474 72.7306 310.073 72.9961 310.513 73.4504C310.953 73.9046 311.199 74.5121 311.199 75.1442C311.199 75.7764 310.953 76.3839 310.513 76.8381C310.073 77.2924 309.474 77.5579 308.842 77.5785L296.049 76.0706C295.417 76.0499 294.817 75.7844 294.377 75.3302C293.938 74.8759 293.692 74.2685 293.692 73.6363C293.692 73.0041 293.938 72.3967 294.377 71.9424C294.817 71.4882 295.417 71.2226 296.049 71.202Z" stroke="#FEF2EB"/>
<path d="M296.134 79.7265L315.016 81.9888C315.342 81.9781 315.668 82.0332 315.972 82.1508C316.277 82.2683 316.555 82.4459 316.79 82.673C317.025 82.9001 317.211 83.172 317.339 83.4727C317.466 83.7733 317.532 84.0965 317.532 84.4231C317.532 84.7496 317.466 85.0728 317.339 85.3735C317.211 85.6741 317.025 85.9461 316.79 86.1732C316.555 86.4003 316.277 86.5779 315.972 86.6954C315.668 86.813 315.342 86.868 315.016 86.8574L296.134 84.5951C295.502 84.5745 294.902 84.309 294.462 83.8547C294.023 83.4004 293.777 82.793 293.777 82.1608C293.777 81.5286 294.023 80.9212 294.462 80.467C294.902 80.0127 295.502 79.7472 296.134 79.7265Z" stroke="#FEF2EB"/>
<path d="M296.049 89.4682L308.843 90.9762C309.475 90.9968 310.074 91.2623 310.514 91.7166C310.954 92.1708 311.2 92.7783 311.2 93.4105C311.2 94.0426 310.954 94.6501 310.514 95.1043C310.074 95.5586 309.475 95.8241 308.843 95.8447L296.049 94.3368C295.723 94.3474 295.397 94.2924 295.093 94.1748C294.788 94.0573 294.51 93.8797 294.275 93.6526C294.04 93.4255 293.854 93.1536 293.726 92.8529C293.599 92.5522 293.533 92.229 293.533 91.9025C293.533 91.576 293.599 91.2528 293.726 90.9521C293.854 90.6515 294.04 90.3795 294.275 90.1524C294.51 89.9253 294.788 89.7477 295.093 89.6302C295.397 89.5126 295.723 89.4576 296.049 89.4682Z" stroke="#FEF2EB"/>
<path d="M296.134 97.9921L315.016 100.254C315.343 100.244 315.668 100.299 315.973 100.416C316.278 100.534 316.556 100.711 316.791 100.939C317.025 101.166 317.212 101.438 317.339 101.738C317.467 102.039 317.533 102.362 317.533 102.689C317.533 103.015 317.467 103.338 317.339 103.639C317.212 103.94 317.025 104.212 316.791 104.439C316.556 104.666 316.278 104.843 315.973 104.961C315.668 105.079 315.343 105.134 315.016 105.123L296.134 102.861C295.807 102.871 295.482 102.816 295.177 102.699C294.872 102.581 294.594 102.404 294.36 102.176C294.125 101.949 293.938 101.677 293.811 101.377C293.683 101.076 293.618 100.753 293.618 100.426C293.618 100.1 293.683 99.7766 293.811 99.476C293.938 99.1753 294.125 98.9034 294.36 98.6763C294.594 98.4492 294.872 98.2716 295.177 98.1541C295.482 98.0365 295.807 97.9814 296.134 97.9921Z" stroke="#FEF2EB"/>
<path d="M343.533 36.2632L359.979 43.5693C359.979 43.5693 361.954 41.0591 359.37 39.307L344.751 32.6098C344.751 32.6098 341.553 32.6098 343.533 36.2632Z" stroke="#FEF2EB"/>
<path d="M368.274 47.1393L382.242 53.5561C382.242 53.5561 384.857 53.2872 383.665 50.8647L369.602 43.8465C369.258 43.7555 368.892 43.796 368.576 43.96C368.26 44.124 368.017 44.3998 367.893 44.7337C367.743 45.1333 367.699 45.5651 367.766 45.9868C367.833 46.4084 368.008 46.8055 368.274 47.1393Z" stroke="#FEF2EB"/>
<path d="M392.168 54.9427L406.108 62.2069C406.462 62.4728 406.736 62.8299 406.902 63.2398C407.068 63.6498 407.119 64.0972 407.05 64.534C407.05 64.534 406.721 67.0307 404.034 64.9577L390.179 58.2965C390.179 58.2965 388.343 57.0081 389.755 55.2817C390.036 54.9094 390.43 54.6383 390.879 54.509C391.344 54.5111 391.796 54.6632 392.168 54.9427Z" stroke="#FEF2EB"/>
<path d="M346.497 59.1968L362.333 67.1118C362.333 67.1118 364.463 68.029 364.77 65.894C364.805 65.262 364.65 64.634 364.324 64.0912C363.998 63.5484 363.517 63.1159 362.943 62.8495L348.324 56.1516C348.324 56.1516 346.596 54.9377 345.887 56.1516C345.887 56.1516 345.177 58.1821 346.497 59.1968Z" stroke="#FEF2EB"/>
<path d="M343.686 78.9359L359.52 86.8509C359.52 86.8509 361.65 87.7675 361.956 85.6331C361.991 85.0011 361.836 84.3731 361.51 83.8303C361.184 83.2876 360.703 82.855 360.129 82.5886L345.51 75.8908C345.51 75.8908 343.782 74.6769 343.073 75.8908C343.077 75.8914 342.366 77.9206 343.686 78.9359Z" stroke="#FEF2EB"/>
<path d="M397.403 83.4636C397.403 83.4636 399.104 83.4764 398.991 81.9462C398.991 81.9462 399.639 80.0832 397.261 79.1593L383.777 72.8823C383.335 72.7472 382.86 72.7764 382.438 72.9644C382.017 73.1524 381.677 73.4866 381.483 73.9052C381.483 73.9052 381.39 75.6933 382.507 76.1982C387.335 78.3894 397.403 83.4636 397.403 83.4636Z" stroke="#FEF2EB" stroke-width="1.00025"/>
<path d="M403.559 106.233C403.559 106.233 405.26 106.276 405.174 104.744C405.174 104.744 405.855 102.893 403.494 101.928L390.127 95.4139C389.688 95.2711 389.212 95.292 388.788 95.4725C388.363 95.6531 388.018 95.9812 387.816 96.3963C387.816 96.3963 387.691 98.1814 388.799 98.7059C393.586 100.982 403.559 106.233 403.559 106.233Z" stroke="#FEF2EB"/>
<path d="M374.388 87.8109L378.438 89.5052C379.13 89.7324 379.738 90.1627 380.183 90.7402C380.627 91.3177 380.887 92.0156 380.929 92.7429C380.929 92.7429 381.217 94.3891 377.939 93.3239L373.887 91.6294C373.887 91.6294 371.594 90.9421 372.11 88.8738C372.11 88.8738 372.544 87.4604 374.388 87.8109Z" stroke="#FEF2EB"/>
<path d="M350.032 93.7842C350.032 93.7842 349.255 95.5631 352.292 97.1877L364.669 103.03C364.669 103.03 367.089 103.714 367.013 102.128C367.013 102.128 365.922 99.2132 364.149 98.7991L352.451 93.4874C352.451 93.4874 350.48 92.4147 350.032 93.7842Z" stroke="#FEF2EB"/>
<path d="M375.748 106.153L388.343 112.769C388.343 112.769 389.903 111.514 388.304 108.916L376.682 103.254C376.682 103.254 374.317 103.608 375.748 106.153Z" stroke="#FEF2EB" stroke-width="1.0006"/>
<path d="M394.404 125.428L398.923 128.085C398.923 128.085 401.096 130.472 398.801 130.807L394.527 128.708C394.527 128.708 392.183 126.226 394.404 125.428Z" stroke="#FEF2EB" stroke-width="1.00052"/>
<path d="M387.617 125.603L372.828 118.938C372.828 118.938 370.768 117.465 370.992 115.552C370.992 115.552 371.387 113.468 375.298 115.41L387.581 121.899C387.581 121.899 390.25 123.99 387.617 125.603Z" stroke="#FEF2EB" stroke-width="1.00025"/>
<path d="M365.304 112.848C365.304 112.848 366.231 110.691 362.868 109.194L348.249 102.497C348.249 102.497 346.216 101.993 346.422 103.714C346.422 103.714 345.694 105.124 348.858 106.759L362.868 113.456C362.868 113.456 364.956 114.413 365.304 112.848Z" stroke="#FEF2EB"/>
<path d="M371.709 71.0249L376.093 73.7628C376.093 73.7628 377.735 74.0293 377.736 72.7586C377.736 72.7586 377.75 71.2139 375.864 70.0661L371.618 67.9221C371.618 67.9221 370.626 67.7812 370.705 69.3826C370.754 69.7096 370.868 70.0235 371.041 70.3056C371.213 70.5877 371.441 70.8323 371.709 71.0249Z" stroke="#FEF2EB"/>
<path d="M75.8079 156.426C75.8079 156.426 69.1431 155.204 64.8479 152.652C60.5527 150.1 59.5286 148.343 59.5286 148.343C59.5286 148.343 45.6671 131.396 61.9743 101.892C68.168 93.0765 76.0691 85.5933 85.2094 79.8862L137.182 49.938C137.182 49.938 158.579 34.4203 174.479 59.1091C174.479 59.1091 184.057 86.5756 165.308 104.337L115.783 140.397L105.305 161.315L99.2742 160.566L91.6314 154.118C91.6314 154.118 83.8787 157.283 75.8079 156.426Z" stroke="#FEF2EB"/>
<path d="M65.0317 147.121C65.0317 147.121 55.0425 112.857 87.655 89.672L150.634 53C150.634 53 172.236 42.7767 176.926 67.0579C176.926 67.0579 179.777 91.0612 164.697 105.563L115.781 141.009L105.384 161.178L95.6012 152.621C95.6012 152.621 74.4078 165.864 65.0317 147.121Z" stroke="#FEF2EB"/>
<path d="M109.056 126.952L146.354 103.115C146.354 103.115 154.504 97.5773 150.634 84.7795C150.634 84.7795 148.186 77.4078 139.017 81.7233C139.017 81.7233 134.123 73.537 122.507 81.1118C122.507 81.1118 110.888 88.0018 110.278 104.337C110.278 104.337 98.6592 110.208 100.496 122.673C100.496 122.673 102.534 128.174 109.056 126.952Z" fill="#F3B86D"/>
<path d="M127.462 85.5807C134.457 81.147 140.628 83.3087 141.124 90.7479C141.64 98.4843 135.855 108.658 128.343 113.095C121.001 117.433 115.17 114.39 115.17 106.657C115.17 99.2114 120.615 89.9209 127.462 85.5807Z" fill="#202020"/>
<path d="M125.106 93.1357L118.38 104.748L125.106 109.027L126.94 105.971L122.66 102.914L127.551 94.3574L125.106 93.1357Z" fill="#F3B86D"/>
<path d="M129.386 103.525L131.832 104.748L137.946 93.7459L131.221 89.4681L129.386 92.5243L134.277 94.9689L129.386 103.525Z" fill="#F3B86D"/>
<path opacity="0.1" d="M260.23 370.588L260.214 370.598L260.199 370.608C257.588 372.412 254.975 372.558 253.001 372.251C252.012 372.098 251.187 371.831 250.61 371.603C250.322 371.489 250.097 371.385 249.946 371.311C249.87 371.274 249.813 371.244 249.776 371.224C249.758 371.214 249.744 371.207 249.736 371.202L249.729 371.198L249.727 371.197L249.726 371.197L216.163 351.676C215.578 351.049 215.456 350.501 215.523 350.038C215.597 349.531 215.912 349.028 216.363 348.559C216.808 348.096 217.345 347.71 217.779 347.436C217.994 347.301 218.18 347.195 218.311 347.124C218.377 347.088 218.429 347.061 218.463 347.044L218.502 347.025L218.511 347.02L218.512 347.019L218.512 347.019L218.512 347.019L218.512 347.019L218.527 347.012L218.542 347.004L249.726 329.282L249.726 329.282L249.736 329.276C251.038 328.494 252.508 328.033 254.024 327.932C255.531 327.832 257.04 328.09 258.427 328.685L290.795 346.999C292.071 347.837 292.681 348.582 292.934 349.189C293.179 349.777 293.109 350.284 292.903 350.722C292.691 351.176 292.328 351.558 291.998 351.836C291.836 351.972 291.688 352.077 291.582 352.148C291.529 352.183 291.487 352.209 291.46 352.226C291.446 352.234 291.435 352.24 291.429 352.244L291.423 352.247L291.423 352.247L291.423 352.247L291.423 352.248L291.422 352.248L291.414 352.253L260.23 370.588Z" stroke="#FEF2EB"/>
<path opacity="0.2" d="M260.23 357.752L260.214 357.762L260.199 357.772C257.588 359.576 254.975 359.722 253.001 359.416C252.012 359.262 251.187 358.995 250.61 358.767C250.322 358.653 250.097 358.549 249.946 358.475C249.87 358.438 249.813 358.408 249.776 358.389C249.758 358.379 249.744 358.371 249.736 358.367L249.729 358.363L249.727 358.362L249.726 358.361L216.163 338.841C215.578 338.213 215.456 337.666 215.523 337.203C215.597 336.696 215.912 336.192 216.363 335.723C216.808 335.26 217.345 334.874 217.779 334.6C217.994 334.464 218.18 334.359 218.311 334.288C218.377 334.252 218.429 334.225 218.463 334.208L218.502 334.188L218.511 334.184L218.512 334.183L218.512 334.183L218.512 334.183L218.512 334.183L218.528 334.176L218.542 334.167L249.726 316.446L249.726 316.446L249.736 316.44C251.038 315.658 252.508 315.197 254.024 315.096C255.531 314.996 257.04 315.254 258.427 315.849L290.795 334.163C292.071 335.001 292.681 335.746 292.934 336.352C293.179 336.94 293.109 337.448 292.903 337.886C292.691 338.34 292.328 338.722 291.998 339C291.836 339.136 291.688 339.241 291.582 339.312C291.529 339.347 291.487 339.373 291.46 339.39C291.446 339.398 291.435 339.404 291.429 339.408L291.423 339.411L291.423 339.411L291.423 339.411L291.423 339.411L291.422 339.412L291.414 339.417L260.23 357.752Z" stroke="#FEF2EB"/>
<path opacity="0.3" d="M260.23 344.918L260.214 344.927L260.199 344.938C257.588 346.742 254.975 346.887 253.001 346.581C252.012 346.427 251.187 346.16 250.61 345.932C250.322 345.818 250.097 345.715 249.946 345.64C249.87 345.603 249.813 345.574 249.776 345.554C249.758 345.544 249.744 345.536 249.736 345.532L249.729 345.528L249.727 345.527L249.726 345.526L216.163 326.006C215.578 325.378 215.456 324.831 215.523 324.368C215.597 323.861 215.912 323.358 216.363 322.889C216.808 322.426 217.345 322.04 217.779 321.766C217.994 321.63 218.18 321.525 218.311 321.453C218.377 321.418 218.429 321.391 218.463 321.374L218.502 321.354L218.511 321.35L218.512 321.349L218.512 321.349L218.512 321.349L218.512 321.349L218.527 321.342L218.542 321.333L249.726 303.612L249.726 303.612L249.736 303.606C251.038 302.823 252.508 302.363 254.024 302.262C255.53 302.161 257.04 302.419 258.427 303.014L290.795 321.328C292.071 322.166 292.681 322.912 292.934 323.518C293.179 324.106 293.109 324.614 292.903 325.051C292.691 325.506 292.328 325.888 291.998 326.165C291.836 326.302 291.688 326.407 291.582 326.477C291.529 326.512 291.487 326.539 291.46 326.555C291.446 326.564 291.435 326.57 291.429 326.573L291.423 326.577L291.423 326.577L291.423 326.577L291.423 326.577L291.422 326.577L291.414 326.582L260.23 344.918Z" stroke="#FEF2EB"/>
<path d="M214.628 303.788L215.24 311.733C215.24 311.733 214.85 313.79 216.463 314.789L250.092 334.347C250.092 334.347 254.494 336.71 258.653 334.347L291.67 314.789C292.263 314.543 292.761 314.113 293.091 313.563C293.421 313.013 293.566 312.372 293.505 311.733V303.788C293.505 303.788 293.83 301.566 289.836 299.509L259.876 282.396C258.461 281.4 256.798 280.816 255.071 280.708C253.344 280.6 251.621 280.973 250.093 281.784L218.908 300.12C218.908 300.12 214.424 302.667 214.628 303.788Z" fill="#202020" stroke="#FEF2EB"/>
<path d="M215.85 305.622L249.477 325.18C249.477 325.18 255.001 328.357 260.483 324.569L291.667 306.233C291.667 306.233 296.375 303.604 291.055 300.121L258.65 281.786C257.183 281.152 255.585 280.877 253.99 280.983C252.395 281.089 250.849 281.574 249.478 282.397L218.295 300.119C218.295 300.119 212.997 302.667 215.85 305.622Z" fill="#202020" stroke="#FEF2EB"/>
<path d="M256.206 293.398L259.263 291.564C259.263 291.564 254.698 287.409 250.703 289.73L245.812 292.786C245.812 292.786 244.406 294.13 241.532 292.786L239.086 294.62C239.086 294.62 241.349 295.454 237.863 297.065L234.805 299.511C234.805 299.511 230.953 302.485 236.64 305.012L239.697 302.567C239.697 302.567 236.355 301.873 239.697 300.123C239.697 300.123 244.099 298.003 243.366 295.844C243.366 295.844 246.138 296.576 249.48 294.622C249.48 294.62 253.046 290.748 256.206 293.398Z" fill="#F3B86D"/>
<path d="M253.149 309.288C253.149 309.288 253.781 313.178 259.875 309.288C259.875 309.288 263.36 306.964 265.989 308.677C265.989 308.677 265.092 307.168 267.212 305.62C267.212 305.62 272.736 303.806 269.657 300.731L272.106 298.898C272.106 298.898 277.528 300.547 274.552 304.399C274.552 304.399 268.662 306.761 270.884 309.288L268.438 311.122C268.438 311.122 265.605 309.409 262.935 311.122L258.655 313.566C258.655 313.566 256.637 316.133 250.094 312.344L253.149 309.288Z" fill="#F3B86D"/>
<path d="M161.436 148.216C158.672 147.57 155.984 146.636 153.415 145.429C151.545 144.477 149.902 143.135 148.597 141.494C148.597 141.494 132.9 116.601 160.825 91.9861L207.907 65.0935C207.907 65.0935 221.065 55.999 235.348 73.4057C235.348 73.4057 240.515 84.8183 237.867 94.4308C237.867 94.4308 234.197 112.526 222.581 119.488L213.409 124.378L206.683 138.436L198.71 132.715L178.557 144.547C178.557 144.547 168.366 151.272 161.436 148.216Z" fill="#202020" stroke="#FEF2EB"/>
<path d="M172.488 95.3045L219.517 69.825C229.355 64.4949 237.88 71.1655 238.635 84.8358C239.399 98.6736 231.938 114.567 221.889 120.214L212.754 125.351L206.683 138.435L198.761 133.22L173.824 147.242C163.303 153.159 154.498 146.016 154.243 131.411C153.995 116.992 162.197 100.877 172.488 95.3045Z" stroke="#FEF2EB"/>
<mask id="mask0_111_6202" style="mask-type:luminance" maskUnits="userSpaceOnUse" x="184" y="91" width="29" height="35">
<path d="M212.443 93.7787L187.591 91.1592L184.278 122.516L209.13 125.135L212.443 93.7787Z" fill="white"/>
</mask>
<g mask="url(#mask0_111_6202)">
<path d="M196.95 92.2243C197.082 92.1803 197.224 92.1702 197.362 92.1948C197.499 92.2194 197.629 92.278 197.738 92.3652C197.847 92.4524 197.933 92.5655 197.987 92.6942C198.042 92.823 198.063 92.9633 198.05 93.1024L198.698 103.756C198.721 104.087 198.642 104.417 198.473 104.703C198.303 104.988 198.051 105.215 197.749 105.354C197.616 105.398 197.475 105.408 197.337 105.384C197.199 105.359 197.07 105.301 196.96 105.213C196.851 105.126 196.765 105.013 196.711 104.884C196.657 104.755 196.635 104.615 196.649 104.476L196.001 93.8204C195.978 93.4895 196.057 93.1596 196.227 92.8746C196.396 92.5895 196.648 92.3627 196.95 92.2243Z" fill="#B0D775"/>
<path d="M197.799 103.708C199.773 103.017 201.483 104.249 201.617 106.462C201.663 107.572 201.369 108.671 200.774 109.609C200.178 110.548 199.311 111.283 198.286 111.715C196.313 112.404 194.604 111.173 194.469 108.962C194.423 107.852 194.717 106.754 195.312 105.815C195.907 104.876 196.775 104.141 197.799 103.708Z" fill="#B0D775"/>
<path d="M208.143 94.7407C208.319 95.0153 208.401 95.3388 208.38 95.664C208.358 95.9891 208.233 96.2988 208.022 96.5476L201.265 105.309C200.864 105.832 200.244 105.966 199.881 105.608C199.858 105.585 199.836 105.561 199.817 105.536C199.641 105.261 199.558 104.938 199.58 104.612C199.602 104.287 199.728 103.978 199.938 103.729L206.694 94.9681C207.095 94.4448 207.715 94.3102 208.082 94.6676C208.105 94.6902 208.126 94.7143 208.146 94.7398" fill="#B0D775"/>
<path d="M186.5 102.314C186.342 102.582 186.289 102.898 186.35 103.202C186.411 103.507 186.583 103.778 186.832 103.963L194.353 107.727C194.621 107.812 194.912 107.792 195.166 107.669C195.419 107.546 195.616 107.33 195.715 107.066C195.734 107.03 195.751 106.992 195.768 106.954C195.926 106.686 195.979 106.37 195.918 106.066C195.857 105.761 195.686 105.49 195.437 105.305L187.915 101.539C187.647 101.453 187.356 101.474 187.103 101.597C186.849 101.719 186.653 101.935 186.553 102.198C186.535 102.236 186.517 102.274 186.5 102.312" fill="#B0D775"/>
<path d="M211.123 106.275C211.213 105.581 210.827 105.056 210.244 105.083L201.478 105.888C201.171 105.96 200.893 106.127 200.686 106.366C200.479 106.604 200.353 106.902 200.325 107.217C200.324 107.234 200.322 107.25 200.32 107.267C200.231 107.959 200.618 108.484 201.2 108.459L209.966 107.652C210.273 107.58 210.551 107.413 210.758 107.174C210.965 106.936 211.091 106.638 211.119 106.323C211.12 106.306 211.122 106.29 211.124 106.273" fill="#B0D775"/>
<path d="M204.801 119.228C205.038 118.996 205.198 118.697 205.26 118.372C205.322 118.046 205.283 117.71 205.148 117.407L200.563 109.319C200.497 109.204 200.406 109.107 200.295 109.036C200.185 108.965 200.059 108.921 199.928 108.908C199.797 108.896 199.665 108.915 199.543 108.964C199.421 109.013 199.313 109.091 199.227 109.191C199.201 109.213 199.176 109.235 199.152 109.259C198.915 109.491 198.755 109.79 198.693 110.116C198.632 110.441 198.671 110.778 198.806 111.08L203.39 119.171C203.455 119.285 203.547 119.382 203.657 119.453C203.768 119.524 203.894 119.568 204.024 119.58C204.155 119.593 204.287 119.574 204.409 119.525C204.531 119.475 204.64 119.397 204.725 119.298C204.751 119.276 204.777 119.252 204.798 119.228" fill="#B0D775"/>
<path d="M185.137 115.37C185.067 115.043 185.096 114.702 185.221 114.391C185.346 114.08 185.56 113.813 185.836 113.624L194.33 108.388C194.439 108.308 194.565 108.257 194.699 108.238C194.832 108.22 194.968 108.236 195.094 108.284C195.22 108.332 195.332 108.411 195.419 108.514C195.506 108.616 195.566 108.739 195.593 108.871C195.597 108.886 195.601 108.9 195.604 108.915C195.673 109.242 195.644 109.583 195.519 109.894C195.395 110.205 195.181 110.471 194.904 110.66L186.41 115.897C186.302 115.977 186.175 116.029 186.042 116.047C185.908 116.065 185.772 116.05 185.646 116.002C185.52 115.954 185.409 115.875 185.321 115.772C185.234 115.669 185.174 115.546 185.147 115.414C185.143 115.4 185.139 115.385 185.137 115.369" fill="#B0D775"/>
<path d="M192.928 123.42C192.792 123.358 192.67 123.27 192.568 123.161C192.466 123.051 192.388 122.922 192.336 122.782C192.285 122.642 192.263 122.492 192.27 122.343C192.278 122.194 192.315 122.048 192.379 121.913L195.807 111.018C195.869 110.728 196.028 110.467 196.258 110.279C196.487 110.09 196.774 109.985 197.071 109.981C197.098 109.984 197.125 109.989 197.152 109.995C197.288 110.057 197.411 110.145 197.513 110.254C197.614 110.364 197.693 110.493 197.744 110.633C197.795 110.774 197.818 110.923 197.811 111.072C197.803 111.222 197.766 111.368 197.701 111.503L194.274 122.397C194.212 122.687 194.053 122.948 193.823 123.137C193.594 123.325 193.307 123.431 193.01 123.435C192.982 123.432 192.955 123.427 192.928 123.42Z" fill="#B0D775"/>
<path d="M197.534 99.4173C193.466 100.823 190.377 105.659 190.637 110.22C190.897 114.78 194.407 117.34 198.476 115.935C202.546 114.529 205.634 109.693 205.374 105.132L205.372 105.096C205.099 100.552 201.593 98.0118 197.534 99.4173ZM197.38 96.8747C202.7 94.9849 207.327 98.2779 207.713 104.229C208.099 110.181 204.099 116.537 198.778 118.426C193.457 120.315 188.831 117.022 188.444 111.071L188.441 111.025C188.068 105.082 192.069 98.7472 197.38 96.8747Z" fill="#B0D775"/>
</g>
<path d="M205.192 163.959C205.886 164.363 206.56 164.802 207.21 165.273C207.535 153.321 216.144 148.551 226.745 154.669C228.941 155.96 230.979 157.504 232.814 159.271C236.847 154.645 243.697 154.005 251.491 158.508C263.375 165.365 273.079 181.617 273.885 195.566C276.151 196.065 278.321 196.925 280.314 198.112C291.934 204.817 301.355 221.124 301.355 234.537C301.355 235.186 301.319 235.802 301.271 236.419C300.419 248.438 291.374 253.07 280.315 246.687L205.192 203.329C195.776 197.89 188.139 184.672 188.139 173.802C188.139 162.932 195.775 158.524 205.192 163.959Z" stroke="#FEF2EB"/>
<path d="M248.655 149.455L251.347 147.9C255.447 145.18 261.283 145.356 267.782 149.108C279.666 155.965 289.368 172.217 290.176 186.166L273.876 195.578C273.066 181.629 263.363 165.378 251.482 158.52C245.584 155.114 240.226 154.654 236.221 156.638L248.655 149.455Z" stroke="#FEF2EB"/>
<path d="M209.322 153.424C210.958 152.478 212.85 152.071 214.731 152.262L213.088 153.211C209.586 155.147 207.368 159.313 207.205 165.274C206.544 164.801 205.872 164.355 205.187 163.96C200.506 161.257 196.265 160.989 193.182 162.738L209.322 153.424Z" stroke="#FEF2EB"/>
<path d="M296.613 188.714C308.233 195.419 317.654 211.726 317.654 225.139C317.654 225.788 317.62 226.405 317.57 227.011C317.172 232.614 314.994 236.609 311.66 238.635L311.637 238.647L311.52 238.716L295.362 248.03C298.694 246.005 300.872 242.01 301.271 236.407C301.319 235.8 301.355 235.183 301.355 234.524C301.355 221.112 291.939 204.805 280.314 198.1C278.321 196.913 276.151 196.053 273.885 195.554L290.185 186.141C292.452 186.65 294.622 187.518 296.613 188.714Z" stroke="#FEF2EB"/>
<path d="M214.735 152.263L229.222 143.895C232.757 141.849 237.636 142.136 243.035 145.25C245.055 146.435 246.939 147.839 248.652 149.435L236.223 156.608C234.923 157.265 233.767 158.173 232.82 159.28C230.984 157.513 228.947 155.968 226.751 154.677C221.435 151.61 216.62 151.282 213.101 153.213L214.735 152.263Z" stroke="#FEF2EB"/>
<path d="M256.53 198.544L228.944 182.624V175.76L256.53 191.68V198.544Z" stroke="#FEF2EB" stroke-linecap="round" stroke-linejoin="round"/>
<path d="M257.776 197.827L256.576 198.518L256.53 198.545V191.681L257.776 190.961V197.827Z" stroke="#FEF2EB" stroke-linecap="round" stroke-linejoin="round"/>
<path d="M257.776 190.961L256.531 191.681L228.944 175.76L230.19 175.043L257.776 190.961Z" stroke="#FEF2EB" stroke-linecap="round" stroke-linejoin="round"/>
<path d="M234.074 182.148C234.041 181.538 233.865 180.944 233.559 180.415C233.254 179.885 232.828 179.436 232.316 179.102C232.145 178.981 231.947 178.903 231.739 178.878C231.531 178.852 231.32 178.878 231.125 178.953L231.074 178.982L228.613 180.403L231.007 184.762L233.519 183.31C233.708 183.185 233.86 183.011 233.958 182.806C234.056 182.601 234.096 182.374 234.074 182.148Z" stroke="#FEF2EB"/>
<path d="M228.034 181.566C228.034 180.447 228.821 179.99 229.792 180.551C230.304 180.885 230.729 181.335 231.035 181.864C231.34 182.393 231.517 182.987 231.55 183.597C231.55 184.718 230.763 185.173 229.792 184.612C229.28 184.278 228.854 183.828 228.549 183.299C228.243 182.77 228.067 182.176 228.034 181.566Z" stroke="#FEF2EB"/>
<path d="M239.279 185.155C239.246 184.545 239.07 183.952 238.764 183.423C238.459 182.894 238.033 182.445 237.521 182.111C237.35 181.99 237.152 181.913 236.944 181.887C236.736 181.861 236.525 181.887 236.33 181.963L236.28 181.992L233.819 183.412L236.213 187.77L238.724 186.32C238.916 186.197 239.069 186.022 239.167 185.816C239.265 185.611 239.304 185.382 239.279 185.155Z" stroke="#FEF2EB"/>
<path d="M233.247 184.576C233.247 183.455 234.036 183.001 235.007 183.561C235.519 183.895 235.945 184.345 236.25 184.874C236.556 185.403 236.732 185.997 236.765 186.607C236.765 187.728 235.978 188.183 235.007 187.622C234.496 187.287 234.07 186.837 233.764 186.308C233.459 185.779 233.282 185.186 233.247 184.576Z" stroke="#FEF2EB"/>
<path d="M244.494 188.165C244.46 187.555 244.284 186.961 243.978 186.432C243.672 185.903 243.246 185.453 242.734 185.119C242.563 184.999 242.366 184.922 242.158 184.896C241.951 184.87 241.74 184.896 241.545 184.971L241.493 185L239.031 186.42L241.426 190.778L243.937 189.328C244.129 189.206 244.283 189.032 244.381 188.826C244.48 188.621 244.518 188.392 244.494 188.165Z" stroke="#FEF2EB"/>
<path d="M238.469 187.584C238.469 186.462 239.256 186.008 240.229 186.569C240.741 186.902 241.167 187.351 241.473 187.88C241.778 188.409 241.954 189.003 241.987 189.613C241.987 190.734 241.2 191.188 240.229 190.627C239.717 190.294 239.291 189.845 238.985 189.316C238.679 188.787 238.502 188.193 238.469 187.584Z" stroke="#FEF2EB"/>
<path d="M249.71 191.177C249.677 190.566 249.5 189.973 249.194 189.443C248.889 188.914 248.463 188.465 247.95 188.131C247.78 188.009 247.581 187.932 247.374 187.906C247.166 187.88 246.955 187.906 246.759 187.982L246.709 188.011L244.248 189.432L246.632 193.787L249.143 192.335C249.338 192.216 249.495 192.044 249.596 191.838C249.696 191.633 249.736 191.404 249.71 191.177Z" stroke="#FEF2EB"/>
<path d="M243.678 190.595C243.678 189.476 244.465 189.019 245.436 189.58C245.948 189.914 246.374 190.364 246.68 190.893C246.986 191.422 247.162 192.016 247.196 192.626C247.196 193.747 246.409 194.202 245.436 193.641C244.924 193.307 244.498 192.857 244.192 192.328C243.887 191.799 243.711 191.205 243.678 190.595Z" stroke="#FEF2EB"/>
<path d="M254.923 194.185C254.89 193.575 254.714 192.981 254.408 192.453C254.103 191.924 253.677 191.474 253.165 191.141C252.994 191.02 252.796 190.943 252.588 190.917C252.381 190.891 252.169 190.917 251.974 190.992L251.924 191.021L249.463 192.442L251.866 196.795L254.377 195.346C254.567 195.222 254.718 195.048 254.815 194.843C254.911 194.638 254.949 194.41 254.923 194.185Z" stroke="#FEF2EB"/>
<path d="M248.893 193.606C248.893 192.485 249.68 192.03 250.651 192.591C251.163 192.925 251.59 193.375 251.895 193.904C252.201 194.433 252.378 195.027 252.411 195.637C252.411 196.758 251.622 197.212 250.651 196.651C250.139 196.318 249.713 195.868 249.408 195.339C249.103 194.809 248.926 194.216 248.893 193.606Z" stroke="#FEF2EB"/>
<path d="M250.652 194.62L246.291 197.13C245.745 197.446 245.291 197.899 244.976 198.445C244.661 198.991 244.495 199.611 244.495 200.241V211.119M245.437 191.611L241.075 194.122C240.529 194.437 240.076 194.891 239.76 195.437C239.445 195.983 239.279 196.602 239.28 197.232V208.111M240.223 188.6L235.862 191.11C235.316 191.427 234.864 191.882 234.551 192.429C234.237 192.976 234.073 193.596 234.075 194.226V205.108M235.008 185.591L230.646 188.102C230.098 188.416 229.642 188.87 229.325 189.417C229.009 189.964 228.842 190.585 228.842 191.217V202.096M229.792 182.581L225.431 185.091C224.885 185.407 224.431 185.86 224.115 186.406C223.8 186.952 223.634 187.572 223.633 188.202V199.08" stroke="#F3B86D" stroke-width="3" stroke-linecap="round" stroke-linejoin="round"/>
<path d="M253.371 246.918C253.371 247.73 252.796 248.061 252.094 247.657L209.19 222.894C208.819 222.651 208.509 222.324 208.288 221.94C208.066 221.556 207.937 221.125 207.913 220.682V188.331C207.913 187.522 208.488 187.189 209.191 187.595L252.096 212.357C252.466 212.6 252.774 212.927 252.996 213.311C253.217 213.694 253.346 214.125 253.371 214.567V246.918Z" fill="#F3B86D"/>
<path d="M253.057 211.802L210.15 187.039C210.02 186.943 209.867 186.885 209.707 186.871C209.546 186.856 209.385 186.886 209.241 186.957L208.331 187.489C208.473 187.434 208.626 187.414 208.776 187.433C208.927 187.452 209.07 187.507 209.194 187.595L252.098 212.357C252.469 212.6 252.778 212.927 253 213.312C253.221 213.696 253.35 214.127 253.375 214.57V246.92C253.391 247.077 253.365 247.236 253.3 247.38C253.235 247.525 253.133 247.649 253.005 247.741L253.921 247.21C254.065 247.124 254.181 246.999 254.256 246.848C254.33 246.698 254.359 246.529 254.34 246.363V214.013C254.315 213.57 254.185 213.139 253.962 212.755C253.739 212.371 253.429 212.044 253.057 211.802Z" stroke="#FEF2EB" stroke-width="0.5"/>
<path d="M209.185 189.067V220.912L252.094 245.674V213.832L209.185 189.067Z" stroke="#FEF2EB" stroke-width="0.5"/>
<path d="M222.996 265.008C222.6 265.208 222.163 265.312 221.719 265.312C221.275 265.312 220.837 265.208 220.441 265.008L177.537 240.245C177.383 240.193 177.249 240.095 177.154 239.964C177.06 239.832 177.009 239.674 177.009 239.512C177.009 239.35 177.06 239.192 177.154 239.061C177.249 238.93 177.383 238.831 177.537 238.78L206.783 221.902C207.179 221.702 207.616 221.598 208.06 221.598C208.504 221.598 208.942 221.702 209.338 221.902L252.242 246.666C252.396 246.717 252.53 246.815 252.625 246.947C252.719 247.078 252.77 247.236 252.77 247.398C252.77 247.56 252.719 247.718 252.625 247.849C252.53 247.981 252.396 248.079 252.242 248.13L222.996 265.008Z" stroke="#FEF2EB"/>
<path d="M234.12 239.682L232.021 238.471L233.072 237.867L235.169 239.078L234.12 239.682Z" stroke="#FEF2EB" stroke-width="0.5"/>
<path d="M209.38 225.404L207.281 224.194L208.331 223.588L210.428 224.799L209.38 225.404Z" stroke="#FEF2EB" stroke-width="0.5"/>
<path d="M212.913 227.443L210.814 226.232L211.863 225.628L213.962 226.839L212.913 227.443Z" stroke="#FEF2EB" stroke-width="0.5"/>
<path d="M216.448 229.483L214.351 228.272L215.4 227.667L217.498 228.879L216.448 229.483Z" stroke="#FEF2EB" stroke-width="0.5"/>
<path d="M219.982 231.523L217.883 230.312L218.934 229.708L221.031 230.919L219.982 231.523Z" stroke="#FEF2EB" stroke-width="0.5"/>
<path d="M223.518 233.563L221.419 232.352L222.468 231.747L224.567 232.959L223.518 233.563Z" stroke="#FEF2EB" stroke-width="0.5"/>
<path d="M227.05 235.602L224.953 234.391L226.002 233.787L228.101 234.998L227.05 235.602Z" stroke="#FEF2EB" stroke-width="0.5"/>
<path d="M230.585 237.642L228.488 236.431L229.537 235.826L231.633 237.038L230.585 237.642Z" stroke="#FEF2EB" stroke-width="0.5"/>
<path d="M237.652 241.721L235.555 240.51L236.604 239.906L238.703 241.117L237.652 241.721Z" stroke="#FEF2EB" stroke-width="0.5"/>
<path d="M241.188 243.762L239.091 242.55L240.14 241.945L242.237 243.155L241.188 243.762Z" stroke="#FEF2EB" stroke-width="0.5"/>
<path d="M244.723 245.801L242.623 244.59L243.674 243.986L245.771 245.195L244.723 245.801Z" stroke="#FEF2EB" stroke-width="0.5"/>
<path d="M248.258 247.841L246.159 246.629L247.208 246.023L249.306 247.234L248.258 247.841Z" stroke="#FEF2EB" stroke-width="0.5"/>
<path d="M207.519 228.411L203.748 226.233L205.845 225.021L209.619 227.199L207.519 228.411Z" stroke="#FEF2EB" stroke-width="0.5"/>
<path d="M205.569 231.195L200.36 228.189L202.459 226.977L207.666 229.984L205.569 231.195Z" stroke="#FEF2EB" stroke-width="0.5"/>
<path d="M203.469 234.063L196.825 230.228L198.924 229.017L205.566 232.851L203.469 234.063Z" stroke="#FEF2EB" stroke-width="0.5"/>
<path d="M196.322 234.872L192.548 232.696L195.388 231.056L199.162 233.232L196.322 234.872Z" stroke="#FEF2EB" stroke-width="0.5"/>
<path d="M201.529 237.878L197.758 235.701L200.598 234.063L204.371 236.239L201.529 237.878Z" stroke="#FEF2EB" stroke-width="0.5"/>
<path d="M206.739 240.885L202.965 238.707L205.807 237.069L209.578 239.245L206.739 240.885Z" stroke="#FEF2EB" stroke-width="0.5"/>
<path d="M224.695 251.249L220.924 249.071L223.764 247.433L227.538 249.609L224.695 251.249Z" stroke="#FEF2EB" stroke-width="0.5"/>
<path d="M233.523 256.343L226.125 252.073L228.964 250.432L236.368 254.702L233.523 256.343Z" stroke="#FEF2EB" stroke-width="0.5"/>
<path d="M219.497 248.249L208.174 241.714L211.014 240.073L222.339 246.609L219.497 248.249Z" stroke="#FEF2EB" stroke-width="0.5"/>
<path d="M212.044 231.022L208.955 229.239L211.054 228.028L214.141 229.81L212.044 231.022Z" stroke="#FEF2EB" stroke-width="0.5"/>
<path d="M210.091 233.804L207.004 232.024L209.101 230.812L212.19 232.593L210.091 233.804Z" stroke="#FEF2EB" stroke-width="0.5"/>
<path d="M208.091 236.618L205.001 234.838L207.1 233.627L210.187 235.409L208.091 236.618Z" stroke="#FEF2EB" stroke-width="0.5"/>
<path d="M212.614 239.229L209.526 237.446L211.623 236.235L214.713 238.017L212.614 239.229Z" stroke="#FEF2EB" stroke-width="0.5"/>
<path d="M217.136 241.838L214.049 240.058L216.146 238.846L219.235 240.629L217.136 241.838Z" stroke="#FEF2EB" stroke-width="0.5"/>
<path d="M221.659 244.448L218.572 242.667L220.671 241.456L223.758 243.236L221.659 244.448Z" stroke="#FEF2EB" stroke-width="0.5"/>
<path d="M226.182 247.059L223.094 245.276L225.193 244.065L228.281 245.847L226.182 247.059Z" stroke="#FEF2EB" stroke-width="0.5"/>
<path d="M230.707 249.669L227.619 247.887L229.716 246.676L232.803 248.458L230.707 249.669Z" stroke="#FEF2EB" stroke-width="0.5"/>
<path d="M237.898 253.821L232.142 250.498L234.24 249.287L239.995 252.609L237.898 253.821Z" stroke="#FEF2EB" stroke-width="0.5"/>
<path d="M214.614 236.415L211.527 234.634L213.626 233.423L216.713 235.203L214.614 236.415Z" stroke="#FEF2EB" stroke-width="0.5"/>
<path d="M219.139 239.025L216.05 237.243L218.149 236.032L221.236 237.814L219.139 239.025Z" stroke="#FEF2EB" stroke-width="0.5"/>
<path d="M223.662 241.636L220.575 239.854L222.672 238.642L225.759 240.425L223.662 241.636Z" stroke="#FEF2EB" stroke-width="0.5"/>
<path d="M228.185 244.247L225.098 242.465L227.195 241.253L230.284 243.036L228.185 244.247Z" stroke="#FEF2EB" stroke-width="0.5"/>
<path d="M232.708 246.856L229.62 245.075L231.719 243.864L234.806 245.647L232.708 246.856Z" stroke="#FEF2EB" stroke-width="0.5"/>
<path d="M241.332 251.835L234.141 247.684L236.24 246.473L243.431 250.624L241.332 251.835Z" stroke="#FEF2EB" stroke-width="0.5"/>
<path d="M216.567 233.632L213.48 231.849L215.577 230.638L218.664 232.42L216.567 233.632Z" stroke="#FEF2EB" stroke-width="0.5"/>
<path d="M221.09 236.241L218.002 234.46L220.099 233.249L223.189 235.029L221.09 236.241Z" stroke="#FEF2EB" stroke-width="0.5"/>
<path d="M225.612 238.852L222.525 237.07L224.624 235.86L227.711 237.643L225.612 238.852Z" stroke="#FEF2EB" stroke-width="0.5"/>
<path d="M230.135 241.462L227.049 239.679L229.148 238.468L232.235 240.25L230.135 241.462Z" stroke="#FEF2EB" stroke-width="0.5"/>
<path d="M234.662 244.074L231.573 242.291L233.672 241.08L236.759 242.863L234.662 244.074Z" stroke="#FEF2EB" stroke-width="0.5"/>
<path d="M239.183 246.684L236.095 244.901L238.192 243.69L241.282 245.475L239.183 246.684Z" stroke="#FEF2EB" stroke-width="0.5"/>
<path d="M244.722 249.881L240.618 247.513L242.717 246.302L246.819 248.67L244.722 249.881Z" stroke="#FEF2EB" stroke-width="0.5"/>
<path d="M246.723 244.646L212.816 225.078L213.836 224.49L247.743 244.059L246.723 244.646Z" fill="#FEF2EB"/>
<path d="M219.496 250.776L202.195 240.791L191.442 246.996L208.746 256.981L219.496 250.776Z" stroke="#FEF2EB" stroke-width="0.5"/>
<path d="M252.242 248.13L222.996 265.007C222.355 265.334 221.616 265.408 220.923 265.216C220.759 265.155 220.598 265.086 220.44 265.007L177.536 240.244C177.489 240.218 177.443 240.189 177.4 240.156L177.369 240.131C177.344 240.11 177.319 240.091 177.298 240.071L177.264 240.039C177.238 240.015 177.213 239.988 177.191 239.96C177.167 239.929 177.145 239.896 177.126 239.862C177.069 239.769 177.037 239.663 177.031 239.554V240.182C177.044 240.342 177.099 240.495 177.191 240.626C177.283 240.757 177.409 240.861 177.555 240.927L220.459 265.688C221.386 266.07 222.403 266.179 223.389 266.002C223.831 265.897 224.216 265.793 224.672 265.699L252.266 249.772C252.413 249.706 252.539 249.602 252.632 249.471C252.725 249.339 252.781 249.185 252.793 249.025V247.402C252.766 247.558 252.701 247.706 252.605 247.832C252.509 247.959 252.385 248.061 252.242 248.13Z" stroke="#FEF2EB" stroke-width="0.5"/>
<path d="M168.012 226.998L174.092 223.493V216.475L168.012 219.98V226.998Z" stroke="#FEF2EB" stroke-linecap="round" stroke-linejoin="round"/>
<path d="M168.012 226.998L161.934 223.493V216.475L168.012 219.98V226.998Z" stroke="#FEF2EB" stroke-linecap="round" stroke-linejoin="round"/>
<path d="M168.012 219.984L161.934 216.479L168.012 212.973L174.092 216.479L168.012 219.984Z" stroke="#FEF2EB" stroke-linecap="round" stroke-linejoin="round"/>
<path d="M168.014 217.85L165.632 216.476L168.014 215.101L170.396 216.476L168.014 217.85Z" fill="#FEF2EB"/>
<path d="M258.847 274.158L264.927 270.653V263.635L258.847 267.14V274.158Z" stroke="#FEF2EB" stroke-linecap="round" stroke-linejoin="round"/>
<path d="M258.847 274.158L252.77 270.653V263.635L258.847 267.14V274.158Z" stroke="#FEF2EB" stroke-linecap="round" stroke-linejoin="round"/>
<path d="M258.847 267.144L252.77 263.639L258.847 260.134L264.927 263.639L258.847 267.144Z" stroke="#FEF2EB" stroke-linecap="round" stroke-linejoin="round"/>
<path d="M258.85 265.01L256.468 263.636L258.85 262.262L261.231 263.636L258.85 265.01Z" fill="#FEF2EB"/>
<path d="M319.435 261.777L302.733 252.141C302.332 252.006 301.983 251.748 301.736 251.403C301.489 251.059 301.356 250.646 301.356 250.223C301.356 249.799 301.489 249.386 301.736 249.042C301.983 248.698 302.332 248.44 302.733 248.304L319.435 238.662C320.465 238.139 321.604 237.867 322.76 237.867C323.915 237.867 325.054 238.139 326.084 238.662L342.786 248.302C343.187 248.438 343.536 248.696 343.783 249.04C344.03 249.384 344.163 249.797 344.163 250.221C344.163 250.644 344.03 251.057 343.783 251.401C343.536 251.746 343.187 252.004 342.786 252.139L326.084 261.777C325.054 262.3 323.915 262.572 322.76 262.572C321.604 262.572 320.465 262.299 319.435 261.777Z" stroke="#FEF2EB"/>
<path d="M342.784 252.138L326.083 261.776C325.053 262.299 323.914 262.571 322.758 262.571C321.603 262.571 320.464 262.299 319.434 261.776L302.732 252.138C302.353 251.969 302.026 251.703 301.784 251.366C301.542 251.028 301.394 250.633 301.356 250.22V284.43C301.394 284.843 301.541 285.238 301.783 285.575C302.025 285.912 302.353 286.178 302.732 286.346L319.435 295.988C320.465 296.51 321.604 296.783 322.76 296.783C323.915 296.783 325.054 296.51 326.084 295.988L342.786 286.347C343.165 286.179 343.493 285.913 343.735 285.576C343.977 285.239 344.125 284.844 344.163 284.431V250.221C344.125 250.634 343.977 251.03 343.734 251.367C343.492 251.704 343.164 251.97 342.784 252.138Z" stroke="#FEF2EB" stroke-linecap="round" stroke-linejoin="round"/>
<path d="M342.784 263.772L326.083 273.41C325.053 273.933 323.914 274.205 322.758 274.205C321.603 274.205 320.464 273.933 319.434 273.41L302.732 263.772C302.353 263.603 302.026 263.337 301.784 262.999C301.542 262.662 301.394 262.267 301.356 261.854V263.686C301.394 264.1 301.541 264.495 301.783 264.832C302.025 265.17 302.353 265.436 302.732 265.605L319.435 275.249C320.466 275.77 321.605 276.042 322.76 276.042C323.915 276.042 325.054 275.77 326.084 275.249L342.786 265.608C343.165 265.44 343.493 265.174 343.735 264.836C343.977 264.499 344.125 264.104 344.163 263.69V261.86C344.123 262.272 343.975 262.666 343.733 263.002C343.49 263.338 343.163 263.604 342.784 263.772Z" fill="#FEF2EB"/>
<path d="M321.18 259.118L307.342 251.133C306.471 250.631 306.471 249.813 307.342 249.311L321.18 241.327C321.669 241.079 322.21 240.95 322.758 240.95C323.306 240.95 323.847 241.079 324.336 241.327L338.176 249.311C339.047 249.813 339.047 250.631 338.176 251.133L324.336 259.118C323.847 259.365 323.306 259.494 322.758 259.494C322.21 259.494 321.669 259.365 321.18 259.118ZM323.633 241.728C323.363 241.591 323.064 241.52 322.761 241.52C322.458 241.52 322.159 241.591 321.889 241.728L308.047 249.727C307.942 249.762 307.85 249.83 307.785 249.92C307.721 250.01 307.686 250.119 307.686 250.23C307.686 250.341 307.721 250.449 307.785 250.539C307.85 250.63 307.942 250.697 308.047 250.733L321.887 258.717C322.157 258.854 322.456 258.926 322.759 258.926C323.062 258.926 323.361 258.854 323.631 258.717L337.471 250.733C337.576 250.697 337.667 250.629 337.732 250.539C337.796 250.449 337.831 250.341 337.831 250.23C337.831 250.119 337.796 250.011 337.732 249.92C337.667 249.83 337.576 249.762 337.471 249.727L323.633 241.728Z" fill="#FEF2EB"/>
<path d="M337.902 272.909L328.205 278.504V277.421L337.902 271.825V272.909Z" fill="#F3B86D"/>
<path d="M335.649 277.009L328.205 281.307V280.223L335.649 275.925V277.009Z" fill="#F3B86D"/>
<path d="M337.902 278.511L328.205 284.107V283.026L337.902 277.429V278.511Z" fill="#F3B86D"/>
<path d="M340.113 277.235L338.92 277.923V276.841L340.113 276.151V277.235Z" fill="#F3B86D"/>
<path d="M342.284 275.984L341.091 276.672V275.588L342.284 274.9V275.984Z" fill="#F3B86D"/>
<path d="M340.113 280.036L338.92 280.724V279.643L340.113 278.955V280.036Z" fill="#F3B86D"/>
<path d="M342.284 278.785L341.091 279.473V278.389L342.284 277.701V278.785Z" fill="#F3B86D"/>
<path d="M340.113 282.839L338.92 283.527V282.444L340.113 281.756V282.839Z" fill="#F3B86D"/>
<path d="M342.284 281.586L341.091 282.275V281.193L342.284 280.505V281.586Z" fill="#F3B86D"/>
<path d="M340.113 274.434L338.92 275.122V274.038L340.113 273.35V274.434Z" fill="#F3B86D"/>
<path d="M342.284 273.181L341.091 273.869V272.785L342.284 272.097V273.181Z" fill="#F3B86D"/>
<path d="M340.113 271.633L338.92 272.321V271.237L340.113 270.548V271.633Z" fill="#F3B86D"/>
<path d="M342.284 270.377L341.091 271.065V269.984L342.284 269.296V270.377Z" fill="#F3B86D"/>
<path d="M337.902 281.314L328.205 286.91V285.827L337.902 280.23V281.314Z" fill="#F3B86D"/>
<path d="M337.902 284.116L328.205 289.714V288.632L337.902 283.036V284.116Z" fill="#F3B86D"/>
<path d="M328.412 269.894L327.012 270.702V264.989L328.412 264.182V269.894Z" fill="#F3B86D"/>
<path d="M331.171 268.3L329.773 269.107V263.395L331.171 262.587V268.3Z" fill="#F3B86D"/>
<path d="M333.934 266.706L332.535 267.513V261.801L333.934 260.993V266.706Z" fill="#F3B86D"/>
<path d="M336.696 265.112L335.298 265.919V260.207L336.696 259.399V265.112Z" fill="#F3B86D"/>
<path d="M339.463 263.514L338.063 264.322V258.609L339.463 257.802V263.514Z" fill="#F3B86D"/>
<path d="M342.226 261.923L340.826 262.731V257.018L342.226 256.211V261.923Z" fill="#F3B86D"/>
<path d="M152.286 186.665L135.583 177.025C135.182 176.889 134.833 176.631 134.586 176.287C134.339 175.942 134.206 175.53 134.206 175.106C134.206 174.682 134.339 174.27 134.586 173.925C134.833 173.581 135.182 173.323 135.583 173.187L152.286 163.548C153.317 163.026 154.455 162.755 155.61 162.755C156.765 162.755 157.904 163.026 158.934 163.548L175.633 173.188C176.034 173.324 176.382 173.582 176.629 173.926C176.876 174.271 177.008 174.683 177.008 175.107C177.008 175.53 176.876 175.943 176.629 176.287C176.382 176.631 176.034 176.889 175.633 177.025L158.929 186.666C157.899 187.188 156.761 187.461 155.606 187.461C154.451 187.461 153.312 187.188 152.282 186.666L152.286 186.665Z" stroke="#FEF2EB"/>
<path d="M175.634 177.028L158.931 186.668C157.901 187.192 156.762 187.465 155.607 187.465C154.452 187.465 153.313 187.192 152.283 186.668L135.581 177.028C135.201 176.859 134.873 176.593 134.631 176.256C134.389 175.919 134.241 175.523 134.203 175.11V197.684C134.241 198.097 134.389 198.492 134.631 198.83C134.873 199.167 135.201 199.433 135.581 199.602L152.284 209.242C153.314 209.765 154.453 210.037 155.608 210.037C156.763 210.037 157.901 209.765 158.931 209.242L175.635 199.602C176.013 199.433 176.34 199.166 176.582 198.829C176.824 198.492 176.971 198.096 177.009 197.684V175.106C176.974 175.52 176.827 175.917 176.585 176.255C176.343 176.593 176.014 176.86 175.634 177.028Z" stroke="#FEF2EB"/>
<path d="M154.033 184.007L140.193 176.017C139.322 175.515 139.322 174.699 140.193 174.199L154.033 166.21C154.523 165.962 155.063 165.833 155.611 165.833C156.16 165.833 156.7 165.962 157.189 166.21L171.03 174.199C171.9 174.701 171.9 175.517 171.03 176.022L157.191 184.006C156.702 184.254 156.161 184.383 155.612 184.384C155.064 184.384 154.523 184.255 154.033 184.007ZM156.482 166.626C156.212 166.489 155.913 166.417 155.61 166.417C155.307 166.417 155.009 166.489 154.739 166.626L140.892 174.605C140.787 174.641 140.695 174.708 140.63 174.799C140.566 174.889 140.531 174.997 140.531 175.108C140.531 175.219 140.566 175.328 140.63 175.418C140.695 175.508 140.787 175.576 140.892 175.611L154.73 183.596C155.001 183.732 155.299 183.803 155.602 183.803C155.905 183.803 156.203 183.732 156.474 183.596L170.322 175.619C170.428 175.584 170.519 175.516 170.584 175.426C170.649 175.335 170.684 175.227 170.684 175.116C170.684 175.005 170.649 174.897 170.584 174.806C170.519 174.716 170.428 174.649 170.322 174.613L156.482 166.626Z" fill="#FEF2EB"/>
<path d="M169.965 186.755L159.839 192.597V191.515L169.965 185.673V186.755Z" fill="#F3B86D"/>
<path d="M175.153 183.761L170.985 186.167V185.084L175.153 182.682V183.761Z" fill="#F3B86D"/>
<path d="M167.288 191.104L159.841 195.402V194.318L167.288 190.02V191.104Z" fill="#F3B86D"/>
<path d="M175.151 186.565L168.305 190.517V189.434L175.151 185.482V186.565Z" fill="#F3B86D"/>
<path d="M169.537 192.607L159.839 198.203V197.121L169.537 191.525V192.607Z" fill="#F3B86D"/>
<path d="M171.749 191.33L170.556 192.018V190.935L171.749 190.247V191.33Z" fill="#F3B86D"/>
<path d="M173.919 190.079L172.727 190.768V189.683L173.919 188.995V190.079Z" fill="#F3B86D"/>
<path d="M169.965 195.164L159.839 201.006V199.922L169.965 194.08V195.164Z" fill="#F3B86D"/>
<path d="M175.153 192.169L170.985 194.571V193.489L175.153 191.084V192.169Z" fill="#F3B86D"/>
<path d="M169.965 197.964L159.839 203.806V202.725L169.965 196.882V197.964Z" fill="#F3B86D"/>
<path d="M175.153 194.97L170.985 197.376V196.292L175.153 193.887V194.97Z" fill="#F3B86D"/>
<path d="M76.1482 237.617V362.669C76.1482 362.669 36.0532 325.159 30.3268 302.707V189.212C30.3268 189.212 51.4493 218.456 76.1482 237.617Z" stroke="#FEF2EB"/>
<path d="M226.442 290.178V405.147C226.442 405.147 140.316 407.838 76.0969 362.59V237.617C76.0969 237.617 126.413 280.922 226.442 290.178Z" stroke="#FEF2EB"/>
<path d="M96.4784 287.148C95.02 287.148 93.8334 288.334 93.8334 289.792V354.995C93.8334 356.453 95.02 357.639 96.4784 357.639C97.9369 357.639 99.1234 356.453 99.1234 354.995V289.792C99.1234 288.334 97.9369 287.148 96.4784 287.148ZM96.4784 286.499C98.2979 286.499 99.7728 287.974 99.7728 289.792V354.995C99.7728 356.814 98.2979 358.288 96.4784 358.288C94.659 358.288 93.184 356.814 93.184 354.995V289.792C93.184 287.974 94.659 286.499 96.4784 286.499Z" fill="#FEF2EB"/>
<path d="M110.315 301.638C108.857 301.638 107.67 302.824 107.67 304.282V362.24C107.67 363.698 108.857 364.884 110.315 364.884C111.774 364.884 112.96 363.698 112.96 362.24V304.282C112.96 302.824 111.774 301.638 110.315 301.638ZM110.315 300.989C112.135 300.989 113.61 302.463 113.61 304.282V362.24C113.61 364.059 112.135 365.533 110.315 365.533C108.496 365.533 107.021 364.059 107.021 362.24V304.282C107.021 302.463 108.496 300.989 110.315 300.989Z" fill="#FEF2EB"/>
<path d="M122.175 320.738C120.716 320.738 119.53 321.924 119.53 323.381V368.167C119.53 369.625 120.716 370.811 122.175 370.811C123.633 370.811 124.82 369.625 124.82 368.167V323.381C124.82 321.924 123.633 320.738 122.175 320.738ZM122.175 320.088C123.994 320.088 125.469 321.563 125.469 323.381V368.167C125.469 369.986 123.994 371.46 122.175 371.46C120.355 371.46 118.88 369.986 118.88 368.167V323.381C118.88 321.563 120.355 320.088 122.175 320.088Z" fill="#FEF2EB"/>
<path d="M136.012 337.203C134.553 337.203 133.367 338.389 133.367 339.847V373.436C133.367 374.894 134.553 376.08 136.012 376.08C137.47 376.08 138.657 374.894 138.657 373.436V339.847C138.657 338.389 137.47 337.203 136.012 337.203ZM136.012 336.554C137.831 336.554 139.306 338.028 139.306 339.847V373.436C139.306 375.255 137.831 376.729 136.012 376.729C134.192 376.729 132.717 375.255 132.717 373.436V339.847C132.717 338.028 134.192 336.554 136.012 336.554Z" fill="#FEF2EB"/>
<path d="M149.848 329.3C148.389 329.3 147.203 330.486 147.203 331.944V377.388C147.203 378.846 148.389 380.032 149.848 380.032C151.306 380.032 152.493 378.846 152.493 377.388V331.944C152.493 330.486 151.306 329.3 149.848 329.3ZM149.848 328.651C151.667 328.651 153.142 330.125 153.142 331.944V377.388C153.142 379.207 151.667 380.681 149.848 380.681C148.028 380.681 146.553 379.207 146.553 377.388V331.944C146.553 330.125 148.028 328.651 149.848 328.651Z" fill="#FEF2EB"/>
<path d="M165.661 324.689C164.202 324.689 163.016 325.875 163.016 327.333V381.339C163.016 382.797 164.202 383.983 165.661 383.983C167.119 383.983 168.306 382.797 168.306 381.339V327.333C168.306 325.875 167.119 324.689 165.661 324.689ZM165.661 324.04C167.48 324.04 168.955 325.514 168.955 327.333V381.339C168.955 383.158 167.48 384.632 165.661 384.632C163.841 384.632 162.367 383.158 162.367 381.339V327.333C162.367 325.514 163.841 324.04 165.661 324.04Z" fill="#FEF2EB"/>
<path d="M181.475 300.32C180.016 300.32 178.83 301.506 178.83 302.964V383.315C178.83 384.773 180.016 385.959 181.475 385.959C182.933 385.959 184.12 384.773 184.12 383.315V302.964C184.12 301.506 182.933 300.32 181.475 300.32ZM181.475 299.671C183.294 299.671 184.769 301.145 184.769 302.964V383.315C184.769 385.134 183.294 386.608 181.475 386.608C179.655 386.608 178.18 385.134 178.18 383.315V302.964C178.18 301.145 179.655 299.671 181.475 299.671Z" fill="#FEF2EB"/>
<path d="M89.2968 265.489V354.051C89.2968 354.051 136.759 387.991 202.493 387.991" stroke="#FEF2EB"/>
<path d="M58.6958 313.334C67.985 311.529 73.2862 298.605 70.5363 284.468C67.7864 270.33 58.0268 260.332 48.7376 262.136C39.4484 263.941 34.1472 276.864 36.8971 291.002C39.647 305.14 49.4066 315.138 58.6958 313.334Z" stroke="#FEF2EB"/>
<path d="M68.4345 277.347L51.9708 288.392L48.0743 262.097C48.0743 262.097 59.7585 259.114 67.8046 276.073L67.8403 276.15L68.4345 277.347Z" stroke="#FEF2EB"/>
</svg>
