<svg width="314" height="555" viewBox="0 0 314 555" fill="none" xmlns="http://www.w3.org/2000/svg">
<path opacity="0.6" d="M-211.288 160.789C-161.043 122.202 -99.0925 94.2876 -34.6267 96.3151C23.9312 98.0953 76.9262 128.321 111.188 175.213C128.256 198.427 140.799 224.683 148.089 252.513C151.469 265.75 155.068 280.426 153.724 294.098C153.156 300.073 151.3 306.228 146.713 310.286C143.475 313.15 137.495 315.75 133.31 313.211C123.278 306.914 126.467 286.426 129.765 277.556C134.11 265.743 143.481 255.245 155.294 250.749C182.263 240.527 212.286 257.275 230.464 276.53C269.406 317.842 274.389 389.385 239.503 434.839C235.56 440.055 234.535 446.819 239.583 451.956C243.717 456.172 252.761 456.91 256.745 451.849C296.228 400.505 297.12 324.726 258.433 272.53C238.092 245.202 205.274 222.382 169.756 223.746C133.065 225.091 103.757 255.24 102.548 291.837C101.964 308.965 108.316 329.559 125.627 336.235C141.795 342.385 160.386 333.91 169.704 320.099C180.204 304.473 178.669 284.419 175.765 266.728C173.027 249.658 168.223 232.975 161.789 217.062C136.013 153.254 84.2331 98.9091 16.718 79.8951C-67.0582 56.2534 -156.811 88.7884 -223.548 139.948C-228.686 143.821 -231.435 150.381 -227.819 156.4C-224.764 161.572 -216.54 164.859 -211.288 160.789Z" fill="white"/>
</svg>
