<svg width="316" height="405" viewBox="0 0 316 405" fill="none" xmlns="http://www.w3.org/2000/svg">
<path opacity="0.6" d="M434.703 355.017C376.183 379.285 309.119 390.214 247.374 371.571C191.273 354.696 147.906 311.784 126.949 257.622C116.47 230.782 111.15 202.174 111.311 173.405C111.472 159.744 111.795 144.636 116.631 131.779C118.727 126.154 122.112 120.689 127.594 117.957C131.463 116.029 137.911 115.064 141.297 118.6C149.357 127.279 140.974 146.244 135.493 153.958C128.238 164.244 116.47 171.959 103.895 173.244C75.1996 176.137 50.5341 152.19 37.9595 128.886C11.037 78.9026 24.7401 8.50797 70.202 -26.3679C75.3608 -30.3859 78.1014 -36.654 74.5547 -42.922C71.6529 -48.065 63.1086 -51.1186 57.9498 -47.2613C6.52307 -7.88531 -13.9509 65.0808 9.90854 125.511C22.4831 157.172 48.2771 187.709 82.9378 195.584C118.727 203.781 154.839 182.245 165.479 147.208C170.476 130.815 169.67 109.278 154.677 98.3496C140.652 88.2243 120.5 91.5994 107.926 102.528C93.739 114.904 90.0311 134.672 88.2578 152.512C86.4844 169.709 86.8069 187.066 88.9027 204.102C97.2857 272.408 133.236 338.302 193.53 374.142C268.332 418.662 363.447 410.465 441.152 378.321C447.117 375.91 451.469 370.285 449.535 363.535C447.923 357.749 440.829 352.445 434.703 355.017Z" fill="white"/>
</svg>
