<svg width="245" height="280" viewBox="0 0 245 280" fill="none" xmlns="http://www.w3.org/2000/svg">
<path opacity="0.75" d="M193.97 -38.8821C157.391 -46.8434 128.867 -7.89509 115.04 20.3438C105.459 39.8887 99.9716 62.2619 106.378 83.6072C109.18 92.9645 114.527 101.934 122.265 108.104C126.855 111.683 136.46 116.764 139.736 109.213C143.28 101.197 137.772 90.897 132.91 84.8394C127.205 77.8303 119.414 72.5579 111.081 69.2951C95.2955 63.1224 69.9647 60.8812 55.8795 72.4081C47.2175 79.6359 51.1561 95.0673 51.9614 104.665C53.1185 117.407 55.0391 130.435 55.0484 143.289C55.1115 155.244 49.4632 165.296 38.0867 169.718C27.76 173.662 17.194 171.587 7.37011 167.153C-3.4496 162.3 -12.9648 155.723 -24.4057 152.213C-35.3152 148.856 -46.4485 147.226 -57.8057 147.325C-80.337 147.475 -102.017 154.461 -120.449 167.349C-131.04 174.701 -140.922 157.231 -130.447 149.812C-89.9485 121.492 -35.6544 120.487 7.1228 144.256C12.9946 147.491 30.4893 158.211 34.4632 147.038C36.4166 141.51 33.9943 132.836 33.554 127.164C32.793 118.83 32.0989 110.38 31.3379 102.046C30.0695 88.156 28.6048 73.5336 37.8355 61.8355C45.5604 52.2092 57.9686 47.6087 69.7999 45.6162C93.6454 41.5821 119.096 46.8333 138.183 62.033C155.382 75.6778 170.298 105.342 152.919 124.719C133.936 145.801 104.753 123.69 94.009 105.567C80.5913 82.9604 80.7654 55.0431 88.839 30.6029C103.703 -13.91 144.925 -70.2942 198.697 -58.5982C211.737 -55.7134 206.546 -36.2654 193.97 -38.8821Z" fill="white"/>
</svg>
