<svg width="206" height="156" viewBox="0 0 206 156" fill="none" xmlns="http://www.w3.org/2000/svg">
<path d="M4.43425 -200.459C26.7829 -177.193 37.425 -142.672 30.5836 -110.889C23.1341 -76.2171 -0.8869 -46.5632 0.0252897 -9.91397C0.785448 22.4772 20.8537 51.3708 55.3649 52.2833C72.3924 52.7395 89.1158 46.6567 105.079 41.4862C118.61 37.0762 134.877 30.8412 149.32 34.3389C154.641 35.5554 161.331 38.5969 161.483 44.9839C161.787 53.1957 152.969 60.7993 147.8 65.9697C130.316 83.1538 112.681 100.186 95.0451 117.218C90.1801 121.932 91.2443 128.471 95.0451 133.337C106.752 148.24 128.492 149.305 145.216 143.678C155.098 140.485 163.915 135.01 173.037 130.296C180.639 126.342 189.609 121.932 198.427 123.757C203.14 124.821 211.045 134.554 211.045 134.554L224.576 155.996C224.576 155.996 236.587 133.946 230.809 121.932C219.711 98.665 191.281 97.2964 170.453 106.269C155.098 112.808 125.908 136.227 111.008 117.218C111.008 122.54 111.008 128.015 111.008 133.337C127.124 117.674 143.391 101.859 159.507 86.1952C172.429 73.5733 188.393 57.4537 183.223 37.5323C179.119 21.5648 163.611 13.2009 148.408 11.224C130.772 9.09499 113.137 15.0258 96.5654 20.3483C81.5143 25.2146 63.7266 32.8181 47.7633 28.7122C33.6243 25.0625 26.0227 13.2009 23.4382 -0.485535C16.7488 -37.4389 45.0267 -69.9822 52.4762 -104.654C60.99 -144.649 48.6755 -186.925 20.3976 -216.427C10.5155 -227.224 -5.59984 -211.104 4.43425 -200.459Z" fill="white"/>
</svg>
