<svg width="277" height="361" viewBox="0 0 277 361" fill="none" xmlns="http://www.w3.org/2000/svg">
<path opacity="0.6" d="M-248.288 160.789C-198.043 122.202 -136.092 94.2876 -71.6267 96.3151C-13.0688 98.0953 39.9262 128.321 74.1879 175.213C91.2563 198.427 103.799 224.683 111.089 252.513C114.469 265.75 118.068 280.426 116.724 294.098C116.156 300.073 114.3 306.228 109.713 310.286C106.475 313.15 100.495 315.75 96.3102 313.211C86.278 306.914 89.467 286.426 92.7648 277.556C97.11 265.743 106.481 255.245 118.294 250.749C145.263 240.527 175.286 257.275 193.464 276.53C232.406 317.842 237.389 389.385 202.503 434.839C198.56 440.055 197.535 446.819 202.583 451.956C206.717 456.172 215.761 456.91 219.745 451.849C259.228 400.505 260.12 324.726 221.433 272.53C201.092 245.202 168.274 222.382 132.756 223.746C96.0645 225.091 66.7574 255.24 65.5481 291.837C64.9637 308.965 71.3163 329.559 88.6268 336.235C104.795 342.385 123.386 333.91 132.704 320.099C143.204 304.473 141.669 284.419 138.765 266.728C136.027 249.658 131.223 232.975 124.789 217.062C99.0133 153.254 47.2331 98.9091 -20.282 79.8951C-104.058 56.2534 -193.811 88.7884 -260.548 139.948C-265.686 143.821 -268.435 150.381 -264.819 156.4C-261.764 161.572 -253.54 164.859 -248.288 160.789Z" fill="white"/>
</svg>
