<svg width="1450" height="844" viewBox="0 0 1450 844" fill="none" xmlns="http://www.w3.org/2000/svg">
<mask id="mask0" mask-type="alpha" maskUnits="userSpaceOnUse" x="0" y="0" width="1450" height="845">
<rect x="1450" y="844" width="1450" height="844" rx="25" transform="rotate(180 1450 844)" fill="#E4F0FD"/>
</mask>
<g mask="url(#mask0)">
<path opacity="0.6" d="M-160.703 498.983C-102.183 474.715 -35.1189 463.786 26.6255 482.429C82.7274 499.305 126.094 542.216 147.051 596.379C157.53 623.218 162.85 651.826 162.689 680.595C162.528 694.256 162.205 709.364 157.369 722.221C155.273 727.846 151.888 733.311 146.406 736.043C142.537 737.972 136.089 738.936 132.703 735.4C124.643 726.721 133.026 707.756 138.507 700.042C145.762 689.756 157.53 682.041 170.105 680.756C198.8 677.863 223.466 701.81 236.04 725.114C262.963 775.097 249.26 845.492 203.798 880.368C198.639 884.386 195.899 890.654 199.445 896.922C202.347 902.065 210.891 905.119 216.05 901.261C267.477 861.885 287.951 788.919 264.091 728.489C251.517 696.828 225.723 666.291 191.062 658.416C155.273 650.219 119.161 671.756 108.521 706.792C103.524 723.185 104.33 744.722 119.323 755.651C133.348 765.776 153.5 762.401 166.074 751.472C180.261 739.097 183.969 719.328 185.742 701.488C187.516 684.292 187.193 666.934 185.097 649.898C176.714 581.592 140.764 515.698 80.4704 479.858C5.66784 435.339 -89.4475 443.535 -167.152 475.679C-173.117 478.09 -177.469 483.715 -175.535 490.465C-173.923 496.251 -166.829 501.555 -160.703 498.983Z" fill="white"/>
<path opacity="0.85" d="M1646.29 205.211C1596.04 243.798 1534.09 271.712 1469.63 269.685C1411.07 267.905 1358.07 237.679 1323.81 190.787C1306.74 167.573 1294.2 141.317 1286.91 113.487C1283.53 100.25 1279.93 85.5736 1281.28 71.9025C1281.84 65.9266 1283.7 59.7721 1288.29 55.7143C1291.53 52.85 1297.5 50.2496 1301.69 52.7887C1311.72 59.0855 1308.53 79.5738 1305.24 88.4441C1300.89 100.257 1291.52 110.755 1279.71 115.251C1252.74 125.473 1222.71 108.725 1204.54 89.4699C1165.59 48.1576 1160.61 -23.385 1195.5 -68.839C1199.44 -74.0552 1200.47 -80.8191 1195.42 -85.9556C1191.28 -90.1723 1182.24 -90.9104 1178.25 -85.8494C1138.77 -34.5048 1137.88 41.2741 1176.57 93.4698C1196.91 120.798 1229.73 143.618 1265.24 142.254C1301.94 140.909 1331.24 110.76 1332.45 74.1631C1333.04 57.0349 1326.68 36.4411 1309.37 29.7651C1293.21 23.6149 1274.61 32.0905 1265.3 45.9015C1254.8 61.527 1256.33 81.5814 1259.24 99.2722C1261.97 116.342 1266.78 133.025 1273.21 148.938C1298.99 212.746 1350.77 267.091 1418.28 286.105C1502.06 309.747 1591.81 277.212 1658.55 226.052C1663.69 222.179 1666.43 215.619 1662.82 209.6C1659.76 204.428 1651.54 201.141 1646.29 205.211Z" fill="white"/>
</g>
</svg>
