<svg width="275" height="318" viewBox="0 0 275 318" fill="none" xmlns="http://www.w3.org/2000/svg">
<path opacity="0.75" d="M223.97 -0.882146C187.391 -8.84346 158.867 30.1048 145.04 58.3437C135.459 77.8886 129.972 100.262 136.378 121.607C139.18 130.964 144.527 139.934 152.265 146.104C156.855 149.683 166.46 154.764 169.736 147.213C173.28 139.197 167.772 128.897 162.91 122.839C157.205 115.83 149.414 110.558 141.081 107.295C125.295 101.122 99.9647 98.8812 85.8795 110.408C77.2175 117.636 81.1561 133.067 81.9614 142.665C83.1185 155.407 85.0391 168.435 85.0484 181.288C85.1115 193.244 79.4632 203.295 68.0867 207.718C57.76 211.662 47.194 209.587 37.3701 205.153C26.5504 200.3 17.0352 193.723 5.5943 190.213C-5.31521 186.855 -16.4485 185.226 -27.8057 185.325C-50.337 185.474 -72.0175 192.461 -90.4485 205.349C-101.04 212.701 -110.922 195.231 -100.447 187.812C-59.9485 159.492 -5.65443 158.487 37.1228 182.256C42.9946 185.491 60.4893 196.211 64.4632 185.038C66.4166 179.51 63.9943 170.836 63.554 165.164C62.793 156.83 62.0989 148.38 61.3379 140.046C60.0695 126.156 58.6048 111.534 67.8355 99.8354C75.5604 90.2091 87.9686 85.6087 99.7999 83.6161C123.645 79.582 149.096 84.8332 168.183 100.033C185.382 113.678 200.298 143.342 182.919 162.719C163.936 183.801 134.753 161.69 124.009 143.567C110.591 120.96 110.765 93.043 118.839 68.6029C133.703 24.09 174.925 -32.2943 228.697 -20.5983C241.737 -17.7135 236.546 1.73453 223.97 -0.882146Z" fill="white"/>
</svg>
