<svg width="274" height="292" viewBox="0 0 274 292" fill="none" xmlns="http://www.w3.org/2000/svg">
<path opacity="0.75" d="M50.628 318.746C87.2069 326.707 115.731 287.759 129.558 259.52C139.139 239.975 144.626 217.602 138.22 196.256C135.418 186.899 130.071 177.93 122.333 171.759C117.743 168.181 108.138 163.1 104.862 170.651C101.318 178.666 106.826 188.967 111.687 195.024C117.393 202.033 125.184 207.306 133.517 210.569C149.302 216.741 174.633 218.982 188.718 207.456C197.38 200.228 193.442 184.796 192.636 175.198C191.479 162.456 189.559 149.428 189.55 136.575C189.486 124.619 195.135 114.568 206.511 110.146C216.838 106.201 227.404 108.277 237.228 112.71C248.047 117.564 257.563 124.141 269.004 127.651C279.913 131.008 291.046 132.637 302.404 132.538C324.935 132.389 346.615 125.402 365.046 112.515C375.638 105.162 385.52 122.632 375.045 130.051C334.546 158.371 280.252 159.377 237.475 135.608C231.603 132.373 214.109 121.653 210.135 132.826C208.181 138.354 210.604 147.028 211.044 152.7C211.805 161.034 212.499 169.484 213.26 177.818C214.528 191.708 215.993 206.33 206.762 218.028C199.038 227.654 186.629 232.255 174.798 234.247C150.952 238.282 125.502 233.03 106.415 217.831C89.2157 204.186 74.2996 174.522 91.6788 155.145C110.662 134.062 139.845 156.174 150.589 174.296C164.007 196.903 163.832 224.821 155.759 249.261C140.895 293.774 99.6731 350.158 45.9011 338.462C32.8611 335.577 38.0524 316.129 50.628 318.746Z" fill="white"/>
</svg>
