<svg width="291" height="170" viewBox="0 0 291 170" fill="none" xmlns="http://www.w3.org/2000/svg">
<path d="M40.6178 -98.5373C26.3888 -74.758 17.9858 -47.7259 16.9774 -19.9086C16.1931 1.51518 20.3386 27.5378 38.6011 41.4464C50.9255 50.7562 72.5492 51.2049 83.305 39.0909C86.4422 35.6137 92.3803 22.1538 84.5375 20.247C80.7281 19.3496 76.5826 24.0606 74.4539 26.6404C70.4204 31.3514 67.6195 37.2963 65.4907 43.1289C61.9054 53.1117 61.9054 64.2162 72.8853 68.9272C82.1846 72.9652 93.2766 71.7313 102.8 69.2637C125.656 63.431 148.512 49.4102 162.181 29.7811C163.638 27.6499 164.198 25.7431 165.206 23.4998C165.654 22.4903 163.414 23.3876 166.215 24.0606C164.87 23.7241 163.638 23.7241 162.293 23.7241C157.139 24.0606 152.21 26.5283 148.4 30.0054C140.782 37.2963 139.661 48.5129 144.927 57.4862C150.529 67.0204 161.733 69.3758 172.041 69.2637C184.029 69.1515 195.905 66.6839 208.005 66.6839C222.795 66.5717 236.239 71.0584 248.228 79.583C259.992 87.9955 270.188 98.4269 281.504 107.512C305.704 126.917 333.266 142.396 362.284 153.164C372.368 156.866 367.998 173.242 357.803 169.428C325.311 157.202 295.06 140.041 268.059 118.168C255.51 107.961 244.306 95.2863 229.741 87.9955C215.96 81.0412 200.275 83.7332 185.597 85.1913C171.144 86.6495 155.347 87.0981 142.686 78.6856C129.914 70.161 123.079 54.9064 125.32 39.7639C127.449 24.8458 138.877 12.7318 153.106 8.35734C159.94 6.22618 168.455 5.66532 174.73 9.59115C181.788 13.8535 183.357 22.6025 180.892 30.0054C176.298 44.0262 162.069 56.028 150.641 64.6648C138.317 73.9746 123.976 81.0411 109.074 85.0791C95.7415 88.6684 81.0642 90.0144 67.9556 84.8548C53.3904 79.1343 44.9874 65.6743 46.78 49.971C48.5727 34.7164 57.0877 17.4428 69.7482 8.24514C82.5208 -0.952511 99.8869 3.98282 104.032 19.6861C111.315 46.9426 82.4087 65.6744 58.6563 65.0014C29.1898 64.2162 9.6948 40.2125 3.30853 13.0683C-4.31018 -19.0113 1.96406 -54.2315 14.6246 -84.1799C17.9858 -92.0316 21.7951 -99.6589 26.1647 -106.95C31.5426 -116.26 46.1078 -107.847 40.6178 -98.5373Z" fill="white" fill-opacity="0.15"/>
</svg>
