<svg width="313" height="230" viewBox="0 0 313 230" fill="none" xmlns="http://www.w3.org/2000/svg">
<path d="M-14.8194 14.9839C3.13821 37.9424 36.9915 27.6999 61.6547 27.5681C84.2532 27.4016 106.769 35.7678 122.993 51.6513C138.323 66.5174 146.99 89.3198 139.352 110.086C131.009 132.997 107.852 148.309 83.7288 148.845C72.5181 149.081 58.5368 146.113 50.8212 137.176C42.421 127.407 45.0441 112.296 53.7244 103.604C70.3422 87.0585 102.952 91.1301 123.155 97.9693C145.591 105.666 164.921 121.085 172.951 143.847C181.535 167.923 174.754 193.715 169.644 217.622C166.685 231.087 164.023 244.891 165.095 258.789C166.016 270.831 170.68 282.45 177.16 292.612C190.153 312.814 212.5 327.616 236.798 329.331C248.749 330.2 249.041 348.944 236.936 348.163C195.469 345.218 158.214 313.978 148.665 273.181C143.449 251.044 148.105 228.831 152.906 207.045C157.341 187.105 163.047 163.876 153.199 144.516C144.114 126.658 125.512 116.747 106.475 112.813C96.88 110.89 86.1704 110.224 76.5058 112.43C70.8344 113.762 58.0659 121.748 68.0603 127.018C84.7687 135.773 108.523 126.454 118.163 111.279C128.021 95.7732 122.768 77.6448 110.371 65.3791C93.9698 49.189 72.473 45.2436 50.2436 46.9349C23.3926 48.9432 -9.28315 52.3721 -28.1024 28.2753C-31.2832 24.1825 -31.9544 18.9474 -28.03 14.9438C-24.8161 11.6571 -17.8793 10.9235 -14.8194 14.9839Z" fill="white" fill-opacity="0.15"/>
</svg>
