<svg width="329" height="366" viewBox="0 0 329 366" fill="none" xmlns="http://www.w3.org/2000/svg">
<path opacity="0.85" d="M525.288 205.211C475.043 243.798 413.092 271.712 348.627 269.685C290.069 267.905 237.074 237.679 202.812 190.787C185.744 167.573 173.201 141.317 165.911 113.487C162.531 100.25 158.932 85.5736 160.276 71.9025C160.844 65.9266 162.7 59.7721 167.287 55.7143C170.525 52.85 176.505 50.2496 180.69 52.7887C190.722 59.0855 187.533 79.5738 184.235 88.4441C179.89 100.257 170.519 110.755 158.706 115.251C131.737 125.473 101.714 108.725 83.5359 89.4699C44.5941 48.1576 39.6108 -23.385 74.497 -68.839C78.4401 -74.0552 79.465 -80.8191 74.4169 -85.9556C70.2829 -90.1723 61.2394 -90.9104 57.2548 -85.8494C17.7716 -34.5048 16.8803 41.2741 55.5672 93.4698C75.9079 120.798 108.726 143.618 144.244 142.254C180.935 140.909 210.243 110.76 211.452 74.1631C212.036 57.0349 205.684 36.4411 188.373 29.7651C172.205 23.6149 153.614 32.0905 144.296 45.9015C133.796 61.527 135.331 81.5814 138.235 99.2722C140.973 116.342 145.777 133.025 152.211 148.938C177.987 212.746 229.767 267.091 297.282 286.105C381.058 309.747 470.811 277.212 537.548 226.052C542.686 222.179 545.435 215.619 541.819 209.6C538.764 204.428 530.54 201.141 525.288 205.211Z" fill="white"/>
</svg>
