<svg width="211" height="337" viewBox="0 0 211 337" fill="none" xmlns="http://www.w3.org/2000/svg">
<path opacity="0.6" d="M-223.703 49.9832C-165.183 25.7147 -98.1189 14.7857 -36.3745 33.4291C19.7274 50.3045 63.0936 93.2164 84.0513 147.379C94.5301 174.218 99.85 202.826 99.6889 231.595C99.5276 245.256 99.2052 260.364 94.3689 273.221C92.2731 278.846 88.8876 284.311 83.4064 287.043C79.5373 288.972 73.0888 289.936 69.7033 286.4C61.6427 277.721 70.0258 258.756 75.507 251.042C82.7615 240.756 94.5301 233.041 107.105 231.756C135.8 228.863 160.466 252.81 173.041 276.114C199.963 326.097 186.26 396.492 140.798 431.368C135.639 435.386 132.899 441.654 136.445 447.922C139.347 453.065 147.891 456.119 153.05 452.261C204.477 412.885 224.951 339.919 201.091 279.489C188.517 247.828 162.723 217.291 128.062 209.416C92.2731 201.219 56.1615 222.756 45.5215 257.792C40.5239 274.185 41.33 295.722 56.3227 306.651C70.3482 316.776 90.4997 313.401 103.074 302.472C117.261 290.097 120.969 270.328 122.742 252.488C124.516 235.292 124.193 217.934 122.097 200.898C113.714 132.592 77.7639 66.6978 17.4705 30.8576C-57.3321 -13.6614 -152.447 -5.46471 -230.152 26.679C-236.117 29.0898 -240.469 34.7149 -238.535 41.465C-236.923 47.2509 -229.829 52.5547 -223.703 49.9832Z" fill="white"/>
</svg>
