<?xml version="1.0" encoding="UTF-8"?>
<!-- Generator: Adobe Illustrator 27.0.0, SVG Export Plug-In . SVG Version: 6.00 Build 0)  -->
<svg xmlns="http://www.w3.org/2000/svg" xmlns:xlink="http://www.w3.org/1999/xlink" version="1.1" id="Layer_1" x="0px" y="0px" viewBox="0 0 283.5 125.5" style="enable-background:new 0 0 283.5 125.5;" xml:space="preserve">
<style type="text/css">
	.st0{clip-path:url(#SVGID_00000097475689895014153410000013437668065609139124_);fill:#1C2674;}
	.st1{clip-path:url(#SVGID_00000097475689895014153410000013437668065609139124_);fill:#CE372F;}
</style>
<g>
	<defs>
		<rect id="SVGID_1_" width="283.5" height="125.5"></rect>
	</defs>
	<clipPath id="SVGID_00000108276255938115877090000010450847832997874596_">
		<use xlink:href="#SVGID_1_" style="overflow:visible;"></use>
	</clipPath>
	<polygon style="clip-path:url(#SVGID_00000108276255938115877090000010450847832997874596_);fill:#1C2674;" points="22.4,38    37.1,38 27.9,14.3 9.8,60.8 0,60.8 24.2,0 31.7,0 56.1,60.8 46.3,60.8 40.7,47 18.8,47  "></polygon>
	<path style="clip-path:url(#SVGID_00000108276255938115877090000010450847832997874596_);fill:#1C2674;" d="M69.3,71.2h-9V30.4   c0-8.8,4.4-13.1,13.1-13.1h13.8c8.8,0,13.1,4.4,13.1,13.1v17.3c0,8.8-4.4,13.1-13.1,13.1H72.1v-9h15.2c2.8,0,4.2-1.4,4.2-4.2V30.4   c0-2.8-1.4-4.1-4.2-4.1H73.4c-2.8,0-4.2,1.4-4.2,4.1V71.2L69.3,71.2z"></path>
	<path style="clip-path:url(#SVGID_00000108276255938115877090000010450847832997874596_);fill:#1C2674;" d="M113.6,71.2h-9V30.4   c0-8.8,4.4-13.1,13.1-13.1h13.8c8.8,0,13.1,4.4,13.1,13.1v17.3c0,8.8-4.4,13.1-13.1,13.1h-15.2v-9h15.2c2.8,0,4.1-1.4,4.1-4.2V30.4   c0-2.8-1.4-4.1-4.1-4.1h-13.8c-2.8,0-4.2,1.4-4.2,4.1L113.6,71.2L113.6,71.2z"></path>
	<path style="clip-path:url(#SVGID_00000108276255938115877090000010450847832997874596_);fill:#1C2674;" d="M161.1,43.6   c-8.8,0-13.1-4.4-13.1-13.1s4.4-13.1,13.1-13.1h20.1v9h-20.1c-2.8,0-4.1,1.4-4.1,4.1s1.4,4.2,4.1,4.2h10.4   c8.8,0,13.1,4.4,13.1,13.1s-4.4,13.1-13.1,13.1H148l2.8-9h20.7c2.8,0,4.1-1.4,4.1-4.2s-1.4-4.2-4.1-4.2L161.1,43.6L161.1,43.6z"></path>
	<polygon style="clip-path:url(#SVGID_00000108276255938115877090000010450847832997874596_);fill:#1C2674;" points="171.6,0    214.6,0 214.6,9 197.8,9 197.8,60.8 188.9,60.8 188.9,9 171.6,9  "></polygon>
	<path style="clip-path:url(#SVGID_00000108276255938115877090000010450847832997874596_);fill:#1C2674;" d="M242.1,51.9l-3.2,9   h-23.5c-8.8,0-13.1-4.4-13.1-13.1V30.4c0-8.8,4.4-13.1,13.1-13.1h13.8c8.8,0,13.1,4.4,13.1,13.1v0.1c0,8.7-4.4,13-13.1,13H214v-9   h15.2c2.8,0,4.1-1.3,4.1-4v-0.1c0-2.8-1.4-4.1-4.1-4.1h-13.8c-2.8,0-4.1,1.4-4.1,4.1v17.3c0,2.8,1.4,4.2,4.1,4.2H242.1z"></path>
	<polygon style="clip-path:url(#SVGID_00000108276255938115877090000010450847832997874596_);fill:#1C2674;" points="258.8,39.1    283.5,60.8 269.9,60.8 255.5,47.4 255.5,60.8 246.5,60.8 246.5,0 255.5,0 255.5,30.8 269.9,17.3 283.5,17.3  "></polygon>
	<path style="clip-path:url(#SVGID_00000108276255938115877090000010450847832997874596_);fill:#CE372F;" d="M56,116.1v9.4H18.9   C6.3,125.5,0,120.9,0,111.8V93.2C0,84,6.3,79.4,18.9,79.4H56v9.4H18.9c-5.9,0-8.9,1.5-8.9,4.4v18.6c0,2.9,3,4.3,8.9,4.3L56,116.1   L56,116.1z"></path>
	<path style="clip-path:url(#SVGID_00000108276255938115877090000010450847832997874596_);fill:#CE372F;" d="M86.4,88.8   c-5.9,0-8.9,1.5-8.9,4.4v18.6c0,2.9,3,4.3,8.9,4.3h33.3c5.9,0,8.9-1.4,8.9-4.1V93.1c0-2.9-3-4.4-8.9-4.4L86.4,88.8L86.4,88.8z    M119.7,79.4c12.6,0,18.9,4.6,18.9,13.8V112c0,9-6.3,13.5-18.9,13.5H86.4c-12.6,0-18.9-4.6-18.9-13.7V93.2   c0-9.2,6.3-13.8,18.9-13.8L119.7,79.4L119.7,79.4z"></path>
	<path style="clip-path:url(#SVGID_00000108276255938115877090000010450847832997874596_);fill:#CE372F;" d="M230.3,88.8v36.7h-10   V79.4h44.3c12.6,0,18.9,4.6,18.9,13.8v2.7c0,9.1-6.3,13.6-18.9,13.6h-29v-9.4h29c5.9,0,8.9-1.4,8.9-4.2v-2.7c0-2.9-3-4.4-8.9-4.4   H230.3L230.3,88.8z"></path>
	<path style="clip-path:url(#SVGID_00000108276255938115877090000010450847832997874596_);fill:#CE372F;" d="M159.2,88.8v36.7h-10   V79.4h41.1c12.6,0,18.9,4.6,18.9,13.8v3.1c0,9.1-6.3,13.6-18.9,13.6h-1.2l17.9,15.6h-13.5l-29.1-25h25.8c5.9,0,8.9-1.4,8.9-4.3   v-3.1c0-2.9-3-4.3-8.9-4.3L159.2,88.8L159.2,88.8z"></path>
</g>
</svg>
