<svg width="414" height="88" viewBox="0 0 414 88" fill="none" xmlns="http://www.w3.org/2000/svg">
<g clip-path="url(#clip0_167_562)">
<mask id="mask0_167_562" style="mask-type:luminance" maskUnits="userSpaceOnUse" x="72" y="0" width="342" height="88">
<path d="M413.3 0H72V87.575H413.3V0Z" fill="white"/>
</mask>
<g mask="url(#mask0_167_562)">
<path d="M220.45 86.224C220.383 85.0493 220.298 83.237 220.193 80.787C220.088 78.337 220.036 75.8687 220.037 73.382L220.137 58.882C219.792 58.882 219.157 58.918 218.228 58.982C217.299 59.046 216.387 59.082 215.494 59.082C213.843 59.082 213.017 57.943 213.017 55.665C213.017 54.0083 213.43 53.1797 214.255 53.179C215.097 53.3123 215.926 53.5201 216.732 53.8C217.866 54.1738 219.047 54.3832 220.24 54.422L220.14 25.111C219.589 25.0443 218.456 24.9233 216.74 24.748C215.429 24.6907 214.145 24.3553 212.974 23.764C212.605 23.5611 212.299 23.2605 212.09 22.8951C211.88 22.5298 211.776 22.1139 211.787 21.693C211.787 19.8977 212.131 18.9997 212.819 18.999C213.798 19.0622 214.751 19.3456 215.605 19.828C215.743 19.8947 216.156 20.0847 216.843 20.398C217.767 20.7662 218.741 20.9931 219.733 21.071C219.993 20.2482 220.394 19.4771 220.919 18.792C221.229 18.5469 221.585 18.3658 221.966 18.2592C222.347 18.1526 222.745 18.1226 223.138 18.171C224.513 18.171 225.201 18.447 225.202 18.999C225.157 19.3759 225.053 19.7432 224.892 20.087C224.694 20.5628 224.589 21.0719 224.582 21.587C229.525 22.3832 234.38 23.6493 239.082 25.368C244.089 27.0651 248.818 29.4912 253.117 32.568C257.072 35.468 259.049 38.644 259.05 42.096C259.05 47 255.886 50.7977 249.557 53.489C243.228 56.1803 234.973 57.9067 224.792 58.668C224.653 63.364 224.584 67.1973 224.585 70.168C224.568 73.7649 224.74 77.3603 225.102 80.939C225.239 82.1817 225.307 83.0447 225.308 83.528C225.335 84.5262 225.085 85.5124 224.585 86.377C224.384 86.7462 224.085 87.0528 223.721 87.2631C223.356 87.4734 222.941 87.5793 222.521 87.569C221.278 87.573 220.588 87.1247 220.45 86.224ZM224.681 41.429C224.748 48.0243 224.781 52.391 224.781 54.529C229.23 54.4912 233.661 53.9524 237.989 52.923C242.119 52.0582 246.099 50.5926 249.804 48.573C253.004 46.7443 254.604 44.7247 254.604 42.514C254.604 39.6133 252.953 36.9897 249.651 34.643C245.993 32.1208 241.974 30.1654 237.732 28.843C233.37 27.394 228.902 26.2857 224.369 25.528C224.508 29.538 224.612 34.8397 224.681 41.433V41.429ZM408.037 70.224C407.812 70.0916 407.626 69.9011 407.499 69.6725C407.372 69.4439 407.308 69.1854 407.315 68.924C407.315 66.0933 407.521 61.7087 407.934 55.77C408.346 49.418 408.552 44.136 408.553 39.924C408.553 35.8507 408.432 32.5173 408.191 29.924C407.95 27.3307 407.383 26.036 406.491 26.04C404.151 26.04 401.588 28.9573 398.803 34.792C396.018 40.6267 392.836 48.3083 389.258 57.837L387.71 61.98C387.437 62.6683 386.948 63.2497 386.317 63.637C385.72 64.0338 385.022 64.2498 384.305 64.259C383.746 64.2994 383.185 64.2287 382.654 64.051C382.379 63.913 382.207 63.4987 382.138 62.808L381.313 54.316L379.765 39.401C379.282 33.4637 378.698 28.285 378.011 23.865C377.835 23.0821 377.731 22.2848 377.701 21.483C377.696 20.982 377.816 20.4878 378.051 20.0449C378.285 19.6019 378.625 19.2243 379.042 18.946C379.94 18.2885 381.029 17.9429 382.142 17.962C382.829 17.962 383.329 19.619 383.642 22.933C383.955 26.247 384.282 31.5983 384.622 38.987L385.035 44.476C385.585 51.4513 385.895 55.8703 385.964 57.733C386.186 57.2801 386.375 56.8123 386.532 56.333C386.703 55.8143 386.927 55.2447 387.203 54.624C390.917 44.9573 394.408 36.896 397.677 30.44C400.946 23.984 404.093 20.756 407.119 20.756C409.252 20.756 410.714 22.5687 411.504 26.194C412.404 30.7855 412.906 35.4462 413.004 40.124C413.21 46.408 413.313 55.5913 413.314 67.674C413.314 68.0829 413.221 68.4865 413.042 68.8543C412.864 69.222 412.604 69.5444 412.282 69.797C411.592 70.3836 410.711 70.6967 409.805 70.677C409.184 70.7028 408.569 70.5452 408.037 70.224ZM96.882 63.802C92.9606 60.246 91 54.9793 91 48.002C91.105 42.53 91.9377 37.0963 93.476 31.844C94.8959 26.4576 96.8312 21.2204 99.255 16.205C101.27 12.0788 103.936 8.30365 107.15 5.02399C110.143 2.05599 113.153 0.571348 116.18 0.570015C117.499 0.505376 118.813 0.764147 120.009 1.3238C121.205 1.88345 122.247 2.72701 123.042 3.78101C124.713 6.09636 125.567 8.90206 125.468 11.756C125.459 12.9775 125.232 14.1876 124.797 15.329C124.415 16.4012 123.912 17.4262 123.297 18.384C122.745 19.2127 122.332 19.627 122.059 19.627C121.507 19.627 121.234 19.316 121.234 18.695C121.298 18.2156 121.419 17.7456 121.595 17.295C121.808 16.7129 121.93 16.1014 121.956 15.482C121.967 13.839 121.759 12.202 121.337 10.614C121.013 9.33464 120.29 8.19172 119.273 7.35099C118.334 6.52155 117.126 6.05984 115.873 6.051C110.92 6.051 106.276 10.851 101.942 20.451C100.108 24.6616 98.6573 29.0294 97.609 33.501C96.471 38.0755 95.8822 42.7692 95.855 47.483C95.8164 50.4246 96.4703 53.3339 97.764 55.976C99.01 58.5511 100.972 60.7123 103.416 62.2004C105.859 63.6885 108.679 64.4404 111.539 64.366C116.342 64.4246 121.069 63.1713 125.212 60.741C129.594 58.1034 133.662 54.9763 137.337 51.42C137.863 50.6712 138.345 49.893 138.781 49.089C139.606 47.675 140.226 46.9673 140.639 46.966C140.791 46.9453 140.947 46.9627 141.091 47.0168C141.235 47.0709 141.363 47.16 141.464 47.276C141.633 47.6306 141.704 48.0237 141.671 48.415C141.671 49.1063 141.052 50.3493 139.813 52.144C136.498 56.5007 132.571 60.3553 128.153 63.588C123.557 67.1828 117.888 69.1337 112.053 69.129C105.86 69.135 100.803 67.3603 96.882 63.805V63.802ZM292.328 68.152C291.996 67.8183 291.748 67.4099 291.605 66.961C291.01 65.2151 290.613 63.4082 290.419 61.574C290.04 58.9513 289.748 56.0513 289.541 52.874C289.335 50.0433 289.18 46.746 289.077 42.982C288.974 39.218 288.922 35.576 288.922 32.056C285.069 32.6773 281.114 33.4367 277.055 34.334C274.914 34.8465 272.743 35.2269 270.555 35.473C269.726 35.4721 268.916 35.2196 268.233 34.749C267.896 34.5445 267.618 34.2551 267.428 33.9098C267.238 33.5644 267.142 33.1752 267.149 32.781C267.103 32.4276 267.167 32.0685 267.333 31.7532C267.5 31.438 267.76 31.1821 268.078 31.021C269.076 30.6869 270.128 30.546 271.178 30.606C272.705 30.5478 274.224 30.3571 275.718 30.036C277.713 29.658 278.986 29.399 279.537 29.259C284.145 28.3623 287.275 27.7757 288.927 27.499C288.927 26.049 288.858 24.149 288.721 21.799C288.582 18.6237 288.514 16.207 288.515 14.549C288.488 12.4572 288.573 10.3655 288.772 8.283C288.914 6.91494 289.244 5.57299 289.753 4.29499C289.97 3.65652 290.391 3.10737 290.951 2.73273C291.512 2.35809 292.18 2.17891 292.853 2.223C293.29 2.17082 293.731 2.28155 294.091 2.534C294.335 2.86082 294.445 3.26781 294.401 3.67301C294.294 4.88932 294.121 6.09903 293.885 7.297C293.495 9.93712 293.322 12.6047 293.368 15.273C293.368 17.8283 293.437 20.695 293.575 23.873L293.675 26.673C296.771 26.1917 302.894 24.9143 312.043 22.841C312.37 22.7201 312.664 22.5268 312.906 22.2757C313.147 22.0246 313.328 21.7221 313.436 21.391C313.813 20.563 314.209 20.1487 314.623 20.148C315.079 20.191 315.521 20.3289 315.921 20.5528C316.321 20.7766 316.669 21.0816 316.944 21.448C317.662 22.1448 318.086 23.0895 318.131 24.089C318.149 24.6318 318.019 25.1693 317.755 25.6438C317.491 26.1182 317.102 26.5117 316.631 26.782C314.934 27.6059 313.096 28.0984 311.214 28.233C304.884 29.3383 301.341 29.9597 300.585 30.097L293.878 31.236C293.878 34.8273 293.93 38.5907 294.033 42.526C294.136 46.4613 294.291 49.9137 294.497 52.883C294.625 56.0008 295.11 59.0937 295.942 62.101C296.629 64.2423 297.007 65.4507 297.077 65.726C297.039 66.1276 296.901 66.5133 296.675 66.8479C296.45 67.1825 296.145 67.4555 295.787 67.642C295.085 68.1723 294.24 68.4789 293.361 68.522C292.982 68.5339 292.613 68.4028 292.327 68.155L292.328 68.152ZM331.834 63.233C328.876 60.4717 327.397 56.225 327.397 50.493C327.502 45.001 328.748 39.5909 331.058 34.607C333.367 29.6231 336.689 25.1744 340.811 21.544C344.8 18.196 348.927 16.5213 353.194 16.52C355.465 16.4459 357.707 17.0401 359.643 18.229C360.479 18.7414 361.164 19.4672 361.626 20.3319C362.089 21.1967 362.313 22.169 362.275 23.149C362.275 25.5663 360.916 27.9137 358.199 30.191C355.013 32.7398 351.443 34.7676 347.622 36.199C343.298 37.9224 338.8 39.1727 334.207 39.928C333.4 42.9697 332.984 46.102 332.97 49.249C332.97 53.2537 333.916 56.3607 335.808 58.57C337.7 60.7793 340.4 61.8843 343.908 61.885C346.348 61.9625 348.774 61.4905 351.007 60.5039C353.24 59.5172 355.222 58.0412 356.808 56.185C360.155 52.3174 362.935 47.993 365.063 43.342C365.201 43.067 365.441 42.531 365.786 41.742C366.131 40.953 366.439 40.55 366.715 40.55C367.196 40.55 367.436 41.0677 367.437 42.103C367.437 43.3457 366.526 46.0733 364.703 50.286C362.744 54.689 359.939 58.6643 356.448 61.986C354.664 63.7486 352.543 65.1338 350.211 66.0591C347.88 66.9845 345.386 67.4309 342.879 67.372C338.797 67.4963 334.83 66.0103 331.834 63.235V63.233ZM344.423 23.358C342.051 25.0466 340.006 27.1521 338.387 29.572C336.992 31.5252 335.929 33.6949 335.24 35.994C338.687 35.5738 342.057 34.6671 345.25 33.301C348.367 32.0633 351.329 30.464 354.073 28.536C356.446 26.8107 357.633 25.3953 357.633 24.29C357.629 23.7407 357.466 23.2043 357.164 22.7452C356.863 22.286 356.435 21.9234 355.933 21.701C354.709 21.058 353.342 20.7372 351.96 20.769C349.235 20.8052 346.594 21.7132 344.423 23.36V23.358Z" fill="#F6911A"/>
</g>
<path d="M195.301 61.3351C195.233 60.1215 195.166 58.4695 195.099 56.3792C195.032 54.2889 194.965 52.1313 194.897 49.9063C194.829 47.7493 194.744 45.0186 194.644 41.7143C194.543 38.41 194.458 36.2188 194.39 35.1407C194.254 33.3203 193.816 32.41 193.075 32.41L191.355 32.9155C192.473 31.1257 193.069 29.059 193.075 26.9487C193.097 25.4758 192.674 24.0305 191.86 22.8023C191.111 21.647 190.107 20.6783 188.926 19.9703C187.924 19.3397 186.77 18.9903 185.586 18.9588C184.209 19.0179 182.861 19.3805 181.64 20.0207C179.507 21.1649 177.505 22.5384 175.67 24.1167C171.472 27.6555 167.671 31.64 164.336 36C160.796 40.4541 157.679 45.2281 155.026 50.2601C152.597 54.9471 151.383 58.6386 151.383 61.3345C151.298 63.2468 151.929 65.122 153.154 66.5937C154.333 67.9417 156.003 68.6158 158.163 68.6162C162.616 68.6162 166.866 66.9475 170.914 63.61C174.724 60.5267 178.095 56.9369 180.932 52.9404C183.563 49.1652 186.396 44.7152 189.432 39.5905C190.242 40.2652 190.647 41.3777 190.647 42.928L190.545 46.7709C190.343 54.8618 190.242 59.7163 190.242 61.3345C190.205 63.0311 190.515 64.7173 191.152 66.2903C191.76 67.7062 192.636 68.4142 193.783 68.4142C194.457 68.4142 195.131 67.8917 195.807 66.8468C196.4 66.034 196.751 65.0697 196.819 64.0658C196.739 63.5742 196.488 63.1267 196.11 62.8018C195.697 62.4072 195.414 61.8952 195.301 61.3351ZM159.58 63.1555C157.69 63.1555 156.746 62.1442 156.746 60.1215C156.746 57.6942 157.859 54.3905 160.085 50.2103C162.503 45.7392 165.314 41.4916 168.484 37.5176C171.34 33.7852 174.56 30.3463 178.098 27.2521C180.729 24.9608 182.888 23.8145 184.574 23.8133C185.223 23.7903 185.868 23.9202 186.456 24.1925C187.045 24.4648 187.562 24.8719 187.964 25.3807C188.807 26.4243 189.255 27.7312 189.229 29.072C189.25 31.3207 188.837 33.5524 188.015 35.6456C184.776 41.1069 181.825 45.7086 179.16 49.4506C176.605 53.0754 173.557 56.3263 170.103 59.1093C166.729 61.8068 163.221 63.1559 159.58 63.1555Z" fill="#F6911A"/>
</g>
<path d="M46.4174 2.87744C49.7064 2.87766 52.8614 4.18429 55.1874 6.51004L68.4964 19.8199C70.8234 22.1464 72.1304 25.3015 72.1304 28.5914V47.4094C72.1304 49.0388 71.8094 50.6522 71.1864 52.1575C70.5624 53.6629 69.6484 55.0307 68.4964 56.1829L55.1884 69.4888C52.8624 71.8151 49.7074 73.1221 46.4174 73.1224H27.5993C24.3099 73.1222 21.1551 71.8155 18.8289 69.4898L5.51886 56.1809C3.19266 53.8544 1.88565 50.6993 1.88525 47.4094V28.5914C1.88555 25.3019 3.19216 22.1472 5.51786 19.821L18.8279 6.51099C21.1543 4.18476 24.3095 2.87777 27.5994 2.87744H46.4174Z" stroke="#F6911A" stroke-width="2"/>
<path d="M55.5103 44.5165C55.5103 44.5165 59.8983 49.6265 61.2523 50.7475C61.2523 50.7475 62.8913 52.8645 57.4043 54.2905C57.4043 54.2905 31.7593 61.5115 18.2593 45.5675C18.2593 45.5675 54.0443 43.4175 55.5103 44.5165Z" fill="#FEDA94"/>
<path d="M18.9343 44.0845C18.9343 44.0845 8.70628 43.5954 13.0573 37.2474C13.0573 37.2474 24.7143 22.4475 43.1113 20.8765C43.1113 20.8765 55.5113 18.8445 59.2373 27.6565C59.2373 27.6565 62.3723 35.2664 55.3823 39.5234L18.9343 44.0845Z" fill="#FEDA94"/>
<path d="M24.4792 47.7545C24.4792 47.7545 29.4793 56.1635 48.3024 53.3135C48.3024 53.3135 32.0542 55.0235 24.4792 47.7545Z" fill="#34394B"/>
<path d="M18.9033 43.9045C18.9033 43.9045 13.7033 40.8135 25.1953 34.6805C25.1953 34.6805 15.6593 40.0655 19.2703 43.5375L18.9033 43.9045Z" fill="#34394B"/>
<path d="M55.1924 38.9774C56.3644 38.1516 57.2334 36.9654 57.6674 35.5996C58.1024 34.2338 58.0784 32.7633 57.5994 31.4124C58.0964 32.7325 58.1614 34.1759 57.7854 35.5353C57.4094 36.8946 56.6124 38.0998 55.5084 38.9774H55.1924Z" fill="#34394B"/>
<path d="M55.5253 38.9586C55.5253 38.9586 54.6793 42.6585 55.5773 44.5685C55.5773 44.5685 45.5713 46.4465 18.2364 45.5975C18.2364 45.5975 17.6664 43.7265 19.0914 43.4175C31.0577 40.7242 43.2623 39.2305 55.5253 38.9586Z" fill="#FF9E2C"/>
<mask id="mask1_167_562" style="mask-type:luminance" maskUnits="userSpaceOnUse" x="36" y="23" width="20" height="17">
<path d="M54.3823 23.539L36.6472 24.4685L37.4455 39.7006L55.1803 38.7711L54.3823 23.539Z" fill="white"/>
</mask>
<g mask="url(#mask1_167_562)">
<path d="M46.1714 35.7916C46.8774 35.7546 47.4984 36.6163 47.5554 37.7118C47.6124 38.8073 47.0854 39.7292 46.3794 39.7662C45.6734 39.8032 45.0524 38.9425 44.9944 37.846C44.9374 36.7495 45.4654 35.8286 46.1714 35.7916ZM46.3414 39.0442C46.7904 39.0206 47.1264 38.4342 47.0904 37.7362C47.0534 37.0382 46.6584 36.4911 46.2084 36.5146C45.7594 36.5382 45.4234 37.1246 45.4604 37.8216C45.4964 38.5187 45.8924 39.0677 46.3414 39.0442Z" fill="#34394B"/>
<path d="M45.8955 30.4947C48.4825 30.3592 50.7605 33.5152 50.9705 37.5307C51.1815 41.5462 49.2485 44.923 46.6585 45.0587C44.0695 45.1944 41.7945 42.0382 41.5835 38.0227C41.3733 34.0072 43.3065 30.6304 45.8955 30.4947ZM46.6025 43.9762C48.7995 43.8611 50.4515 40.9867 50.2715 37.5684C50.0925 34.1501 48.1495 31.4641 45.9525 31.5792C43.7555 31.6944 42.1035 34.5687 42.2825 37.9861C42.4615 41.4034 44.3975 44.0918 46.6025 43.9762Z" fill="#34394B"/>
<path d="M46.0184 36.0989L45.9174 34.1686C45.7974 34.0697 45.7014 33.9445 45.6374 33.8027C45.5734 33.6609 45.5433 33.5063 45.5483 33.3508C45.5273 33.1967 45.5413 33.0397 45.5903 32.892C45.6393 32.7443 45.7214 32.6098 45.8304 32.4989L45.7004 30.0133C45.5214 29.9936 45.3954 29.9291 45.3904 29.8442C45.3864 29.7594 45.5084 29.6819 45.6804 29.6438L45.6574 29.2064C45.1854 28.6272 44.9474 27.8924 44.9904 27.1465C44.9274 25.9591 45.2054 24.9792 45.6104 24.958C46.0144 24.9369 46.3934 25.8823 46.4564 27.0697C46.5764 27.8071 46.4163 28.5627 46.0073 29.1881L46.0304 29.6245C46.2084 29.6442 46.3344 29.7086 46.3394 29.7935C46.3434 29.8784 46.2213 29.9559 46.0493 29.994L46.1804 32.4965C46.2914 32.5981 46.3804 32.7223 46.4394 32.8609C46.4984 32.9995 46.5264 33.1491 46.5234 33.2997C46.5424 33.4491 46.5294 33.6009 46.4854 33.7449C46.4414 33.8889 46.3664 34.0217 46.2664 34.1343L46.3683 36.0806L46.0184 36.0989Z" fill="#34394B"/>
<path d="M46.9165 36.4044L47.7145 34.9826C47.6185 34.6632 47.6525 34.3186 47.8095 34.0243C47.9695 33.7406 48.2105 33.6419 48.4065 33.7518L49.4365 31.9204C49.3115 31.7126 49.2445 31.5299 49.2805 31.4659C49.3155 31.4019 49.4415 31.4825 49.5905 31.6499L49.7735 31.3279C49.6595 30.5902 49.8135 29.8362 50.2075 29.2022C50.6985 28.3234 51.3475 27.9589 51.6595 28.3892C51.7935 28.7797 51.8345 29.1964 51.7775 29.6056C51.7215 30.0147 51.5695 30.4048 51.3345 30.7444C50.9155 31.4893 50.3815 31.8648 50.0395 31.6965L49.8555 32.0185C49.9795 32.2263 50.0475 32.409 50.0115 32.473C49.9765 32.5369 49.8505 32.4564 49.7015 32.289L48.6685 34.1305C48.7515 34.4401 48.7135 34.7696 48.5625 35.0524C48.4095 35.3247 48.1815 35.4268 47.9905 35.3377L47.1845 36.7718L46.9165 36.4044Z" fill="#34394B"/>
<path d="M47.4275 37.5053L48.6695 37.4232C48.6835 37.2893 48.7405 37.1636 48.8325 37.0654C48.9245 36.9672 49.0465 36.902 49.1795 36.8796C49.3125 36.8838 49.4405 36.9323 49.5435 37.0174C49.6455 37.1026 49.7175 37.2195 49.7465 37.3498L51.3435 37.2462C51.3465 36.9699 51.3815 36.7727 51.4355 36.7691C51.4895 36.7656 51.5475 36.9573 51.5825 37.2309L51.8645 37.2161C51.9515 36.9406 52.1235 36.6996 52.3555 36.5273C52.5875 36.355 52.8675 36.2601 53.1565 36.2562C53.4875 36.2043 53.8255 36.2852 54.0975 36.4813C54.3685 36.6774 54.5515 36.9728 54.6065 37.3032C54.5905 37.6404 54.4435 37.958 54.1965 38.1883C53.9505 38.4186 53.6235 38.5433 53.2855 38.5358C53.0005 38.5715 52.7115 38.5153 52.4605 38.3754C52.2095 38.2354 52.0105 38.0191 51.8905 37.7578L51.6085 37.7726C51.6055 38.0489 51.5715 38.2462 51.5165 38.2497C51.4625 38.2533 51.4045 38.0616 51.3695 37.7879L49.7665 37.896C49.7485 38.0223 49.6895 38.1393 49.5995 38.2299C49.5095 38.3206 49.3935 38.3802 49.2675 38.4002C49.1415 38.3965 49.0195 38.3525 48.9195 38.2746C48.8205 38.1968 48.7485 38.0891 48.7145 37.9675L47.4625 38.0508L47.4275 37.5053Z" fill="#34394B"/>
<path d="M44.3374 35.5291C44.1564 35.6388 43.9194 35.56 43.7394 35.3051C43.5594 35.0396 43.4874 34.716 43.5374 34.3995L42.3144 32.6741C42.1834 32.8532 42.0664 32.9455 42.0254 32.8895C41.9844 32.8336 42.0314 32.6409 42.1334 32.4212L41.9174 32.1201C41.5944 32.3223 41.0238 32.0057 40.5296 31.3086C40.2609 30.9955 40.0696 30.6237 39.971 30.223C39.8724 29.8224 39.8694 29.4042 39.9621 29.0022C40.2277 28.5467 40.914 28.8411 41.4984 29.6597C41.9564 30.249 42.1884 30.9827 42.1524 31.7283L42.3684 32.0294C42.4994 31.8503 42.6174 31.758 42.6584 31.8139C42.6994 31.8699 42.6524 32.0626 42.5504 32.2822L43.7584 33.9953C43.9434 33.8655 44.1924 33.9386 44.3804 34.2041C44.5674 34.4802 44.6374 34.8194 44.5754 35.1472L45.5184 36.4777L45.2894 36.8712L44.3374 35.5291Z" fill="#34394B"/>
<path d="M45.1134 37.6263L43.8694 37.6745C43.8414 37.5435 43.7714 37.4252 43.6704 37.3376C43.5694 37.25 43.4424 37.1979 43.3084 37.1891C43.1764 37.2072 43.0534 37.2689 42.9604 37.3643C42.8674 37.4597 42.8084 37.5835 42.7934 37.716L41.1923 37.7787C41.1609 37.5042 41.1055 37.3117 41.0511 37.3138C40.9967 37.316 40.9595 37.5126 40.9535 37.7884L40.671 37.8032C40.5547 37.5389 40.3582 37.318 40.1093 37.1716C39.8604 37.0253 39.5718 36.961 39.2844 36.9879C38.9507 36.971 38.6239 37.0861 38.3746 37.3085C38.1252 37.5308 37.9736 37.8424 37.9524 38.1758C38.0035 38.5095 38.1829 38.8099 38.4525 39.0132C38.722 39.2164 39.0603 39.3062 39.3951 39.2636C39.6823 39.2692 39.9638 39.1831 40.1986 39.0177C40.4335 38.8524 40.6094 38.6163 40.7008 38.344L40.9832 38.3292C41.0146 38.6037 41.07 38.7962 41.1244 38.7941C41.1788 38.792 41.216 38.5953 41.222 38.3195L42.8284 38.2601C42.8604 38.3837 42.9314 38.4937 43.0304 38.5742C43.1294 38.6547 43.2514 38.7015 43.3794 38.7078C43.5054 38.691 43.6224 38.6343 43.7134 38.5458C43.8044 38.4574 43.8644 38.342 43.8844 38.2168L45.1394 38.1688L45.1134 37.6263Z" fill="#34394B"/>
</g>
<defs>
<clipPath id="clip0_167_562">
<rect width="342" height="88" fill="white" transform="translate(72)"/>
</clipPath>
</defs>
</svg>
