<svg width="342" height="88" viewBox="0 0 342 88" fill="none" xmlns="http://www.w3.org/2000/svg">
<g clip-path="url(#clip0_166_405)">
<mask id="mask0_166_405" style="mask-type:luminance" maskUnits="userSpaceOnUse" x="0" y="0" width="342" height="88">
<path d="M341.3 0H0V87.575H341.3V0Z" fill="white"/>
</mask>
<g mask="url(#mask0_166_405)">
<path d="M115.14 72.9259L130.61 57.4598V69.0259C130.61 69.5381 130.509 70.0452 130.313 70.5184C130.117 70.9915 129.83 71.4215 129.468 71.7836C129.106 72.1458 128.676 72.4331 128.202 72.6291C127.729 72.825 127.222 72.9259 126.71 72.9259H115.14Z" fill="#F6911A"/>
<path d="M85.8148 1H104.501C108.056 1.00027 111.465 2.41233 113.979 4.92566L127.195 18.1416C129.709 20.6553 131.121 24.0647 131.121 27.6197V46.3062C131.121 48.0667 130.774 49.8102 130.101 51.437C129.427 53.0634 128.439 54.5416 127.195 55.7863L113.98 68.9995C111.466 71.5133 108.056 72.9255 104.501 72.9259H85.8148C82.2603 72.9259 78.8513 71.5137 76.3375 69.0006L63.1216 55.7843C60.6079 53.2705 59.1955 49.8613 59.1952 46.3062V27.6197C59.1955 24.065 60.6075 20.656 63.1209 18.1423L76.3367 4.92645C78.8505 2.41271 82.2599 1.00036 85.8148 1ZM104.501 71.7468C106.107 71.7511 107.698 71.4367 109.182 70.822C110.666 70.2073 112.013 69.3045 113.146 68.1658L126.361 54.9523C127.5 53.8196 128.403 52.4718 129.018 50.9877C129.633 49.5032 129.947 47.9118 129.942 46.3055V27.6197C129.947 26.0136 129.632 24.4226 129.018 22.9388C128.403 21.455 127.5 20.1078 126.361 18.9752L113.145 5.75929C112.012 4.62074 110.665 3.71808 109.182 3.10355C107.698 2.48901 106.107 2.17481 104.501 2.17911H85.8148C84.2088 2.17486 82.6178 2.48916 81.134 3.10384C79.6502 3.7185 78.303 4.62133 77.1704 5.76008L63.9545 18.9764C62.8159 20.1088 61.9133 21.4558 61.2987 22.9394C60.6842 24.423 60.37 26.0138 60.3743 27.6197V46.3059C60.3701 47.9118 60.6844 49.5028 61.299 50.9865C61.9137 52.4706 62.8165 53.8176 63.9553 54.9503L77.1716 68.1666C78.304 69.3052 79.651 70.2077 81.1346 70.8224C82.6182 71.4371 84.209 71.7511 85.8148 71.7468H104.501Z" fill="#F6911A"/>
<path d="M114.065 42.1391C114.065 42.1391 118.453 47.2491 119.807 48.3701C119.807 48.3701 121.446 50.4871 115.959 51.9131C115.959 51.9131 90.314 59.1341 76.814 43.1901C76.814 43.1901 112.599 41.0401 114.065 42.1391Z" fill="#FEDA94"/>
<path d="M77.489 41.7071C77.489 41.7071 67.261 41.218 71.612 34.87C71.612 34.87 83.269 20.0701 101.666 18.4991C101.666 18.4991 114.066 16.4671 117.792 25.2791C117.792 25.2791 120.927 32.889 113.937 37.146L77.489 41.7071Z" fill="#FEDA94"/>
<path d="M83.0339 45.3771C83.0339 45.3771 88.0339 53.7861 106.857 50.9361C106.857 50.9361 90.6089 52.6461 83.0339 45.3771Z" fill="#34394B"/>
<path d="M77.458 41.5271C77.458 41.5271 72.258 38.4361 83.75 32.3031C83.75 32.3031 74.214 37.6881 77.825 41.1601L77.458 41.5271Z" fill="#34394B"/>
<path d="M113.747 36.6C114.919 35.7742 115.788 34.588 116.222 33.2222C116.657 31.8564 116.633 30.3859 116.154 29.035C116.651 30.3551 116.716 31.7985 116.34 33.1579C115.964 34.5172 115.167 35.7224 114.063 36.6H113.747Z" fill="#34394B"/>
<path d="M114.08 36.5811C114.08 36.5811 113.234 40.281 114.132 42.191C114.132 42.191 104.126 44.069 76.7911 43.22C76.7911 43.22 76.2211 41.349 77.6461 41.04C89.6124 38.3467 101.817 36.853 114.08 36.5811Z" fill="#FF9E2C"/>
<mask id="mask1_166_405" style="mask-type:luminance" maskUnits="userSpaceOnUse" x="95" y="21" width="19" height="17">
<path d="M112.937 21.1616L95.2019 22.0911L96.0002 37.3232L113.735 36.3937L112.937 21.1616Z" fill="white"/>
</mask>
<g mask="url(#mask1_166_405)">
<path d="M104.726 33.4142C105.432 33.3772 106.053 34.2389 106.11 35.3344C106.167 36.4299 105.64 37.3518 104.934 37.3888C104.228 37.4258 103.607 36.5651 103.549 35.4686C103.492 34.3721 104.02 33.4512 104.726 33.4142ZM104.896 36.6668C105.345 36.6432 105.681 36.0568 105.645 35.3588C105.608 34.6608 105.213 34.1137 104.763 34.1372C104.314 34.1608 103.978 34.7472 104.015 35.4442C104.051 36.1413 104.447 36.6903 104.896 36.6668Z" fill="#34394B"/>
<path d="M104.45 28.1173C107.037 27.9818 109.315 31.1378 109.525 35.1533C109.736 39.1688 107.803 42.5456 105.213 42.6813C102.624 42.817 100.349 39.6608 100.138 35.6453C99.9278 31.6298 101.861 28.253 104.45 28.1173ZM105.157 41.5988C107.354 41.4837 109.006 38.6093 108.826 35.191C108.647 31.7727 106.704 29.0867 104.507 29.2018C102.31 29.317 100.658 32.1913 100.837 35.6087C101.016 39.026 102.952 41.7144 105.157 41.5988Z" fill="#34394B"/>
<path d="M104.573 33.7215L104.472 31.7912C104.352 31.6923 104.256 31.5671 104.192 31.4253C104.128 31.2835 104.098 31.1289 104.103 30.9734C104.082 30.8193 104.096 30.6623 104.145 30.5146C104.194 30.3669 104.276 30.2324 104.385 30.1215L104.255 27.6359C104.076 27.6162 103.95 27.5517 103.945 27.4668C103.941 27.382 104.063 27.3045 104.235 27.2664L104.212 26.829C103.74 26.2498 103.502 25.515 103.545 24.7691C103.482 23.5817 103.76 22.6018 104.165 22.5806C104.569 22.5595 104.948 23.5049 105.011 24.6923C105.131 25.4297 104.971 26.1853 104.562 26.8107L104.585 27.2471C104.763 27.2668 104.889 27.3312 104.894 27.4161C104.898 27.501 104.776 27.5785 104.604 27.6166L104.735 30.1191C104.846 30.2207 104.935 30.3449 104.994 30.4835C105.053 30.6221 105.081 30.7717 105.078 30.9223C105.097 31.0717 105.084 31.2235 105.04 31.3675C104.996 31.5115 104.921 31.6443 104.821 31.7569L104.923 33.7032L104.573 33.7215Z" fill="#34394B"/>
<path d="M105.471 34.027L106.269 32.6052C106.173 32.2858 106.207 31.9412 106.364 31.6469C106.524 31.3632 106.765 31.2645 106.961 31.3744L107.991 29.543C107.866 29.3352 107.799 29.1525 107.835 29.0885C107.87 29.0245 107.996 29.1051 108.145 29.2725L108.328 28.9505C108.214 28.2128 108.368 27.4588 108.762 26.8248C109.253 25.946 109.902 25.5815 110.214 26.0118C110.348 26.4023 110.389 26.819 110.332 27.2282C110.276 27.6373 110.124 28.0274 109.889 28.367C109.47 29.1119 108.936 29.4874 108.594 29.3191L108.41 29.6411C108.534 29.8489 108.602 30.0316 108.566 30.0956C108.531 30.1595 108.405 30.079 108.256 29.9116L107.223 31.7531C107.306 32.0627 107.268 32.3922 107.117 32.675C106.964 32.9473 106.736 33.0494 106.545 32.9603L105.739 34.3944L105.471 34.027Z" fill="#34394B"/>
<path d="M105.982 35.1279L107.224 35.0458C107.238 34.9119 107.295 34.7862 107.387 34.688C107.479 34.5898 107.601 34.5246 107.734 34.5022C107.867 34.5064 107.995 34.5549 108.098 34.64C108.2 34.7252 108.272 34.8421 108.301 34.9724L109.898 34.8688C109.901 34.5925 109.936 34.3953 109.99 34.3917C110.044 34.3882 110.102 34.5799 110.137 34.8535L110.419 34.8387C110.506 34.5632 110.678 34.3222 110.91 34.1499C111.142 33.9776 111.422 33.8827 111.711 33.8788C112.042 33.8269 112.38 33.9078 112.652 34.1039C112.923 34.3 113.106 34.5954 113.161 34.9258C113.145 35.263 112.998 35.5806 112.751 35.8109C112.505 36.0412 112.178 36.1659 111.84 36.1584C111.555 36.1941 111.266 36.1379 111.015 35.998C110.764 35.858 110.565 35.6417 110.445 35.3804L110.163 35.3952C110.16 35.6715 110.126 35.8688 110.071 35.8723C110.017 35.8759 109.959 35.6842 109.924 35.4105L108.321 35.5186C108.303 35.6449 108.244 35.7619 108.154 35.8525C108.064 35.9432 107.948 36.0028 107.822 36.0228C107.696 36.0191 107.574 35.9751 107.474 35.8972C107.375 35.8194 107.303 35.7117 107.269 35.5901L106.017 35.6734L105.982 35.1279Z" fill="#34394B"/>
<path d="M102.892 33.1517C102.711 33.2614 102.474 33.1826 102.294 32.9277C102.114 32.6622 102.042 32.3386 102.092 32.0221L100.869 30.2967C100.738 30.4758 100.621 30.5681 100.58 30.5121C100.539 30.4562 100.586 30.2635 100.688 30.0438L100.472 29.7427C100.149 29.9449 99.5784 29.6283 99.0842 28.9312C98.8155 28.6181 98.6242 28.2463 98.5256 27.8456C98.427 27.445 98.424 27.0268 98.5167 26.6248C98.7823 26.1693 99.4686 26.4637 100.053 27.2823C100.511 27.8716 100.743 28.6053 100.707 29.3509L100.923 29.652C101.054 29.4729 101.172 29.3806 101.213 29.4365C101.254 29.4925 101.207 29.6852 101.105 29.9048L102.313 31.6179C102.498 31.4881 102.747 31.5612 102.935 31.8267C103.122 32.1028 103.192 32.442 103.13 32.7698L104.073 34.1003L103.844 34.4938L102.892 33.1517Z" fill="#34394B"/>
<path d="M103.668 35.2489L102.424 35.2971C102.396 35.1661 102.326 35.0478 102.225 34.9602C102.124 34.8726 101.997 34.8205 101.863 34.8117C101.731 34.8298 101.608 34.8915 101.515 34.9869C101.422 35.0823 101.363 35.2061 101.348 35.3386L99.7469 35.4013C99.7155 35.1268 99.6601 34.9343 99.6057 34.9364C99.5513 34.9386 99.5141 35.1352 99.5081 35.411L99.2256 35.4258C99.1093 35.1615 98.9128 34.9406 98.6639 34.7942C98.415 34.6479 98.1264 34.5836 97.839 34.6105C97.5053 34.5936 97.1785 34.7087 96.9292 34.9311C96.6798 35.1534 96.5282 35.465 96.507 35.7984C96.5581 36.1321 96.7375 36.4325 97.0071 36.6358C97.2766 36.839 97.6149 36.9288 97.9497 36.8862C98.2369 36.8918 98.5184 36.8057 98.7532 36.6403C98.9881 36.475 99.164 36.2389 99.2554 35.9666L99.5378 35.9518C99.5692 36.2263 99.6246 36.4188 99.679 36.4167C99.7334 36.4146 99.7706 36.2179 99.7766 35.9421L101.383 35.8827C101.415 36.0063 101.486 36.1163 101.585 36.1968C101.684 36.2773 101.806 36.3241 101.934 36.3304C102.06 36.3136 102.177 36.2569 102.268 36.1684C102.359 36.08 102.419 35.9646 102.439 35.8394L103.694 35.7914L103.668 35.2489Z" fill="#34394B"/>
</g>
<path d="M148.45 86.224C148.383 85.0493 148.298 83.237 148.193 80.787C148.088 78.337 148.036 75.8687 148.037 73.382L148.137 58.882C147.792 58.882 147.157 58.918 146.228 58.982C145.299 59.046 144.387 59.082 143.494 59.082C141.843 59.082 141.017 57.943 141.017 55.665C141.017 54.0083 141.43 53.1797 142.255 53.179C143.097 53.3123 143.926 53.5201 144.732 53.8C145.866 54.1738 147.047 54.3832 148.24 54.422L148.14 25.111C147.589 25.0443 146.456 24.9233 144.74 24.748C143.429 24.6907 142.145 24.3553 140.974 23.764C140.605 23.5611 140.299 23.2605 140.09 22.8951C139.88 22.5298 139.776 22.1139 139.787 21.693C139.787 19.8977 140.131 18.9997 140.819 18.999C141.798 19.0622 142.751 19.3456 143.605 19.828C143.743 19.8947 144.156 20.0847 144.843 20.398C145.767 20.7662 146.741 20.9931 147.733 21.071C147.993 20.2482 148.394 19.4771 148.919 18.792C149.229 18.5469 149.585 18.3658 149.966 18.2592C150.347 18.1526 150.745 18.1226 151.138 18.171C152.513 18.171 153.201 18.447 153.202 18.999C153.157 19.3759 153.053 19.7432 152.892 20.087C152.694 20.5628 152.589 21.0719 152.582 21.587C157.525 22.3832 162.38 23.6493 167.082 25.368C172.089 27.0651 176.818 29.4912 181.117 32.568C185.072 35.468 187.049 38.644 187.05 42.096C187.05 47 183.886 50.7977 177.557 53.489C171.228 56.1803 162.973 57.9067 152.792 58.668C152.653 63.364 152.584 67.1973 152.585 70.168C152.568 73.7649 152.74 77.3603 153.102 80.939C153.239 82.1817 153.307 83.0447 153.308 83.528C153.335 84.5262 153.085 85.5124 152.585 86.377C152.384 86.7462 152.085 87.0528 151.721 87.2631C151.356 87.4734 150.941 87.5793 150.521 87.569C149.278 87.573 148.588 87.1247 148.45 86.224ZM152.681 41.429C152.748 48.0243 152.781 52.391 152.781 54.529C157.23 54.4912 161.661 53.9524 165.989 52.923C170.119 52.0582 174.099 50.5926 177.804 48.573C181.004 46.7443 182.604 44.7247 182.604 42.514C182.604 39.6133 180.953 36.9897 177.651 34.643C173.993 32.1208 169.974 30.1654 165.732 28.843C161.37 27.394 156.902 26.2857 152.369 25.528C152.508 29.538 152.612 34.8397 152.681 41.433V41.429ZM336.037 70.224C335.812 70.0916 335.626 69.9011 335.499 69.6725C335.372 69.4439 335.308 69.1854 335.315 68.924C335.315 66.0933 335.521 61.7087 335.934 55.77C336.346 49.418 336.552 44.136 336.553 39.924C336.553 35.8507 336.432 32.5173 336.191 29.924C335.95 27.3307 335.383 26.036 334.491 26.04C332.151 26.04 329.588 28.9573 326.803 34.792C324.018 40.6267 320.836 48.3083 317.258 57.837L315.71 61.98C315.437 62.6683 314.948 63.2497 314.317 63.637C313.72 64.0338 313.022 64.2498 312.305 64.259C311.746 64.2994 311.185 64.2287 310.654 64.051C310.379 63.913 310.207 63.4987 310.138 62.808L309.313 54.316L307.765 39.401C307.282 33.4637 306.698 28.285 306.011 23.865C305.835 23.0821 305.731 22.2848 305.701 21.483C305.696 20.982 305.816 20.4878 306.051 20.0449C306.285 19.6019 306.625 19.2243 307.042 18.946C307.94 18.2885 309.029 17.9429 310.142 17.962C310.829 17.962 311.329 19.619 311.642 22.933C311.955 26.247 312.282 31.5983 312.622 38.987L313.035 44.476C313.585 51.4513 313.895 55.8703 313.964 57.733C314.186 57.2801 314.375 56.8123 314.532 56.333C314.703 55.8143 314.927 55.2447 315.203 54.624C318.917 44.9573 322.408 36.896 325.677 30.44C328.946 23.984 332.093 20.756 335.119 20.756C337.252 20.756 338.714 22.5687 339.504 26.194C340.404 30.7855 340.906 35.4462 341.004 40.124C341.21 46.408 341.313 55.5913 341.314 67.674C341.314 68.0829 341.221 68.4865 341.042 68.8543C340.864 69.222 340.604 69.5444 340.282 69.797C339.592 70.3836 338.711 70.6967 337.805 70.677C337.184 70.7028 336.569 70.5452 336.037 70.224ZM5.88196 63.802C1.96062 60.246 0 54.9793 0 48.002C0.105048 42.53 0.9377 37.0963 2.47601 31.844C3.89592 26.4576 5.83117 21.2204 8.255 16.205C10.2702 12.0788 12.9359 8.30365 16.15 5.02399C19.1426 2.05599 22.1527 0.571348 25.18 0.570015C26.4989 0.505376 27.8135 0.764147 29.0095 1.3238C30.2055 1.88345 31.2466 2.72701 32.042 3.78101C33.7135 6.09636 34.567 8.90206 34.468 11.756C34.4593 12.9775 34.232 14.1876 33.797 15.329C33.4152 16.4012 32.9119 17.4262 32.297 18.384C31.745 19.2127 31.3323 19.627 31.059 19.627C30.507 19.627 30.234 19.316 30.234 18.695C30.2982 18.2156 30.4193 17.7456 30.595 17.295C30.8082 16.7129 30.93 16.1014 30.956 15.482C30.9668 13.839 30.7587 12.202 30.337 10.614C30.0132 9.33464 29.2902 8.19172 28.273 7.35099C27.3337 6.52155 26.1261 6.05984 24.873 6.051C19.9197 6.051 15.276 10.851 10.942 20.451C9.10754 24.6616 7.6573 29.0294 6.60901 33.501C5.47103 38.0755 4.88218 42.7692 4.85498 47.483C4.81639 50.4246 5.47034 53.3339 6.76398 55.976C8.00998 58.5511 9.97224 60.7123 12.4155 62.2004C14.8587 63.6885 17.6792 64.4404 20.539 64.366C25.3416 64.4246 30.0692 63.1713 34.212 60.741C38.5937 58.1034 42.6615 54.9763 46.337 51.42C46.8625 50.6712 47.3446 49.893 47.781 49.089C48.6063 47.675 49.2256 46.9673 49.639 46.966C49.7914 46.9453 49.9466 46.9627 50.0906 47.0168C50.2346 47.0709 50.3629 47.16 50.464 47.276C50.6328 47.6306 50.7042 48.0237 50.671 48.415C50.671 49.1063 50.0517 50.3493 48.813 52.144C45.4982 56.5007 41.5709 60.3553 37.153 63.588C32.5566 67.1828 26.8882 69.1337 21.053 69.129C14.8596 69.135 9.80262 67.3603 5.88196 63.805V63.802ZM220.328 68.152C219.996 67.8183 219.748 67.4099 219.605 66.961C219.01 65.2151 218.613 63.4082 218.419 61.574C218.04 58.9513 217.748 56.0513 217.541 52.874C217.335 50.0433 217.18 46.746 217.077 42.982C216.974 39.218 216.922 35.576 216.922 32.056C213.069 32.6773 209.114 33.4367 205.055 34.334C202.914 34.8465 200.743 35.2269 198.555 35.473C197.726 35.4721 196.916 35.2196 196.233 34.749C195.896 34.5445 195.618 34.2551 195.428 33.9098C195.238 33.5644 195.142 33.1752 195.149 32.781C195.103 32.4276 195.167 32.0685 195.333 31.7532C195.5 31.438 195.76 31.1821 196.078 31.021C197.076 30.6869 198.128 30.546 199.178 30.606C200.705 30.5478 202.224 30.3571 203.718 30.036C205.713 29.658 206.986 29.399 207.537 29.259C212.145 28.3623 215.275 27.7757 216.927 27.499C216.927 26.049 216.858 24.149 216.721 21.799C216.582 18.6237 216.514 16.207 216.515 14.549C216.488 12.4572 216.573 10.3655 216.772 8.283C216.914 6.91494 217.244 5.57299 217.753 4.29499C217.97 3.65652 218.391 3.10737 218.951 2.73273C219.512 2.35809 220.18 2.17891 220.853 2.223C221.29 2.17082 221.731 2.28155 222.091 2.534C222.335 2.86082 222.445 3.26781 222.401 3.67301C222.294 4.88932 222.121 6.09903 221.885 7.297C221.495 9.93712 221.322 12.6047 221.368 15.273C221.368 17.8283 221.437 20.695 221.575 23.873L221.675 26.673C224.771 26.1917 230.894 24.9143 240.043 22.841C240.37 22.7201 240.664 22.5268 240.906 22.2757C241.147 22.0246 241.328 21.7221 241.436 21.391C241.813 20.563 242.209 20.1487 242.623 20.148C243.079 20.191 243.521 20.3289 243.921 20.5528C244.321 20.7766 244.669 21.0816 244.944 21.448C245.662 22.1448 246.086 23.0895 246.131 24.089C246.149 24.6318 246.019 25.1693 245.755 25.6438C245.491 26.1182 245.102 26.5117 244.631 26.782C242.934 27.6059 241.096 28.0984 239.214 28.233C232.884 29.3383 229.341 29.9597 228.585 30.097L221.878 31.236C221.878 34.8273 221.93 38.5907 222.033 42.526C222.136 46.4613 222.291 49.9137 222.497 52.883C222.625 56.0008 223.11 59.0937 223.942 62.101C224.629 64.2423 225.007 65.4507 225.077 65.726C225.039 66.1276 224.901 66.5133 224.675 66.8479C224.45 67.1825 224.145 67.4555 223.787 67.642C223.085 68.1723 222.24 68.4789 221.361 68.522C220.982 68.5339 220.613 68.4028 220.327 68.155L220.328 68.152ZM259.834 63.233C256.876 60.4717 255.397 56.225 255.397 50.493C255.502 45.001 256.748 39.5909 259.058 34.607C261.367 29.6231 264.689 25.1744 268.811 21.544C272.8 18.196 276.927 16.5213 281.194 16.52C283.465 16.4459 285.707 17.0401 287.643 18.229C288.479 18.7414 289.164 19.4672 289.626 20.3319C290.089 21.1967 290.313 22.169 290.275 23.149C290.275 25.5663 288.916 27.9137 286.199 30.191C283.013 32.7398 279.443 34.7676 275.622 36.199C271.298 37.9224 266.8 39.1727 262.207 39.928C261.4 42.9697 260.984 46.102 260.97 49.249C260.97 53.2537 261.916 56.3607 263.808 58.57C265.7 60.7793 268.4 61.8843 271.908 61.885C274.348 61.9625 276.774 61.4905 279.007 60.5039C281.24 59.5172 283.222 58.0412 284.808 56.185C288.155 52.3174 290.935 47.993 293.063 43.342C293.201 43.067 293.441 42.531 293.786 41.742C294.131 40.953 294.439 40.55 294.715 40.55C295.196 40.55 295.436 41.0677 295.437 42.103C295.437 43.3457 294.526 46.0733 292.703 50.286C290.744 54.689 287.939 58.6643 284.448 61.986C282.664 63.7486 280.543 65.1338 278.211 66.0591C275.88 66.9845 273.386 67.4309 270.879 67.372C266.797 67.4963 262.83 66.0103 259.834 63.235V63.233ZM272.423 23.358C270.051 25.0466 268.006 27.1521 266.387 29.572C264.992 31.5252 263.929 33.6949 263.24 35.994C266.687 35.5738 270.057 34.6671 273.25 33.301C276.367 32.0633 279.329 30.464 282.073 28.536C284.446 26.8107 285.633 25.3953 285.633 24.29C285.629 23.7407 285.466 23.2043 285.164 22.7452C284.863 22.286 284.435 21.9234 283.933 21.701C282.709 21.058 281.342 20.7372 279.96 20.769C277.235 20.8052 274.594 21.7132 272.423 23.36V23.358Z" fill="#F6911A"/>
</g>
</g>
<defs>
<clipPath id="clip0_166_405">
<rect width="342" height="88" fill="white"/>
</clipPath>
</defs>
</svg>
