<svg width="180" height="180" viewBox="0 0 180 180" fill="none" xmlns="http://www.w3.org/2000/svg">
<path d="M113.772 0C122.418 0.000599642 130.71 3.43501 136.824 9.548L170.45 43.174C176.564 49.2885 179.999 57.5811 180 66.228V113.771C180 118.053 179.157 122.294 177.518 126.25C175.879 130.207 173.477 133.802 170.449 136.83L136.826 170.45C130.711 176.564 122.419 179.999 113.772 180H66.228C57.582 179.999 49.2902 176.565 43.176 170.452L9.55 136.826C3.43597 130.711 0.000819416 122.419 0 113.772L0 66.228C0.000599642 57.582 3.43501 49.2902 9.548 43.176L43.174 9.55C49.2885 3.43597 57.5811 0.000819416 66.228 0L113.772 0Z" fill="#4B4B4C"/>
<path d="M135.002 104.835C135.002 104.835 145.553 117.123 148.81 119.818C148.81 119.818 152.751 124.908 139.556 128.338C139.556 128.338 77.887 145.702 45.425 107.363C45.425 107.363 131.477 102.19 135.002 104.835Z" fill="#FEDA94"/>
<path d="M47.047 103.796C47.047 103.796 22.447 102.62 32.913 87.355C32.913 87.355 60.944 51.755 105.182 47.989C105.182 47.989 134.993 43.102 143.961 64.289C143.961 64.289 151.499 82.589 134.69 92.825L47.047 103.796Z" fill="#FEDA94"/>
<path d="M60.382 112.62C60.382 112.62 72.402 132.84 117.669 125.987C117.669 125.987 78.596 130.1 60.382 112.62Z" fill="#34394B"/>
<path d="M46.972 103.361C46.972 103.361 34.472 95.928 62.102 81.181C62.102 81.181 39.171 94.131 47.854 102.481L46.972 103.361Z" fill="#34394B"/>
<path d="M134.237 91.515C134.237 91.515 143.681 85.6 140.025 73.324C140.025 73.324 144.398 84.163 134.997 91.515H134.237Z" fill="#34394B"/>
<path d="M135.048 91.47C135.048 91.47 133.014 100.375 135.172 104.961C135.172 104.961 111.112 109.478 45.379 107.435C45.379 107.435 44.01 102.935 47.435 102.193C47.435 102.193 90.1 91.911 135.048 91.47Z" fill="#F6911A"/>
<mask id="mask0_55_12699" style="mask-type:luminance" maskUnits="userSpaceOnUse" x="89" y="54" width="45" height="40">
<path d="M131.895 54.293L89.25 56.528L91.1696 93.1557L133.815 90.9207L131.895 54.293Z" fill="white"/>
</mask>
<g mask="url(#mask0_55_12699)">
<path d="M112.151 83.7556C113.849 83.6667 115.343 85.7383 115.481 88.3747C115.619 91.0111 114.35 93.2265 112.652 93.3155C110.955 93.4045 109.461 91.3328 109.323 88.6974C109.185 86.062 110.454 83.8446 112.151 83.7556ZM112.561 91.5769C113.642 91.5203 114.449 90.1101 114.361 88.4324C114.273 86.7547 113.323 85.4366 112.242 85.4933C111.162 85.5499 110.355 86.9611 110.443 88.6388C110.531 90.3165 111.48 91.6336 112.561 91.5769Z" fill="#34394B"/>
<path d="M111.481 71.0202C117.7 70.6943 123.171 78.2854 123.677 87.9411C124.183 97.5969 119.536 105.718 113.316 106.044C107.097 106.37 101.626 98.779 101.12 89.1233C100.614 79.4675 105.262 71.3461 111.481 71.0202ZM113.18 103.437C118.473 103.159 122.429 96.2428 121.999 88.0291C121.568 79.8154 116.91 73.3503 111.618 73.6277C106.325 73.905 102.368 80.8216 102.799 89.0353C103.229 97.249 107.887 103.714 113.18 103.437Z" fill="#34394B"/>
<path d="M111.786 84.4898L111.543 79.8541C111.254 79.6164 111.024 79.3153 110.869 78.9742C110.715 78.6331 110.642 78.2611 110.654 77.887C110.603 77.5162 110.637 77.1385 110.755 76.7832C110.872 76.4278 111.07 76.1043 111.333 75.8376L111.02 69.8608C110.59 69.8133 110.279 69.6563 110.268 69.4536C110.258 69.2509 110.548 69.0624 110.973 68.9701L110.918 67.9215C110.118 67.4087 109.439 65.3994 109.312 62.9678C109.162 60.1117 109.829 57.7555 110.804 57.7044C111.779 57.6534 112.688 59.9269 112.838 62.783C112.965 65.2146 112.5 67.2838 111.758 67.8765L111.813 68.927C112.243 68.9746 112.554 69.1316 112.564 69.3343C112.575 69.537 112.284 69.7255 111.86 69.8178L112.175 75.8336C112.444 76.077 112.657 76.3755 112.8 76.7087C112.944 77.0419 113.014 77.402 113.006 77.7647C113.052 78.1245 113.02 78.49 112.912 78.8364C112.804 79.1828 112.623 79.5019 112.381 79.7722L112.626 84.4457L111.786 84.4898Z" fill="#34394B"/>
<path d="M113.942 85.229L115.866 81.8096C115.634 81.0421 115.715 80.2138 116.093 79.5065C116.477 78.8235 117.056 78.5859 117.528 78.8506L120.001 74.4461C119.701 73.9471 119.541 73.5029 119.624 73.3533C119.707 73.2038 120.012 73.3941 120.369 73.7899L120.803 73.0162C120.529 71.2418 120.899 69.4279 121.846 67.9026C123.031 65.7947 124.594 64.9217 125.348 65.9446C126.103 66.9675 125.748 69.5036 124.566 71.6083C123.558 73.4005 122.273 74.302 121.451 73.8985L121.017 74.6722C121.317 75.1712 121.477 75.6155 121.394 75.765C121.311 75.9146 121.006 75.7242 120.649 75.3284L118.162 79.7607C118.36 80.505 118.269 81.2971 117.907 81.977C117.541 82.6321 116.992 82.8771 116.531 82.664L114.589 86.1113L113.942 85.229Z" fill="#34394B"/>
<path d="M115.171 87.8766L118.157 87.679C118.191 87.3585 118.329 87.0579 118.549 86.823C118.77 86.588 119.061 86.4315 119.379 86.3773C119.699 86.3884 120.007 86.5054 120.254 86.71C120.5 86.9147 120.672 87.1953 120.743 87.5081L124.589 87.2548C124.597 86.5888 124.676 86.1117 124.812 86.1102C124.948 86.1088 125.079 86.5607 125.161 87.2178L125.836 87.1732C126.048 86.512 126.462 85.9342 127.021 85.5217C127.579 85.1093 128.254 84.8831 128.948 84.8753C129.742 84.7506 130.554 84.9444 131.206 85.4147C131.859 85.885 132.299 86.5937 132.432 87.3869C132.393 88.1955 132.041 88.9571 131.449 89.51C130.858 90.0629 130.075 90.3636 129.265 90.3484C128.58 90.4339 127.885 90.2985 127.281 89.9619C126.678 89.6252 126.198 89.1048 125.911 88.4764L125.236 88.521C125.228 89.1869 125.149 89.6641 125.013 89.6656C124.877 89.667 124.746 89.2151 124.664 88.558L120.79 88.8099C120.743 89.1133 120.602 89.3942 120.386 89.6123C120.17 89.8303 119.891 89.9743 119.588 90.0235C119.283 90.0154 118.989 89.9094 118.749 89.7212C118.509 89.5329 118.335 89.2724 118.255 88.9782L115.247 89.1804L115.171 87.8766Z" fill="#34394B"/>
<path d="M107.738 83.1188C107.302 83.3799 106.732 83.1925 106.298 82.5794C105.866 81.941 105.693 81.1628 105.813 80.4018L102.872 76.259C102.558 76.69 102.277 76.9111 102.177 76.7711C102.078 76.6311 102.192 76.1695 102.438 75.6449L101.925 74.9208C101.149 75.408 99.7766 74.6458 98.5882 72.9687C97.1943 71 96.5814 68.5146 97.2199 67.4187C97.8584 66.3228 99.5086 67.0274 100.905 69C102.007 70.4177 102.565 72.183 102.478 73.9765L102.991 74.7007C103.305 74.2696 103.587 74.0486 103.686 74.1886C103.786 74.3286 103.672 74.7902 103.426 75.3148L106.345 79.4366C106.788 79.124 107.388 79.2999 107.841 79.939C108.29 80.6029 108.458 81.4181 108.308 82.2057L110.579 85.4052L110.027 86.3504L107.738 83.1188Z" fill="#34394B"/>
<path d="M109.608 88.1687L106.617 88.2844C106.55 87.9692 106.381 87.6846 106.137 87.474C105.894 87.2634 105.588 87.1382 105.266 87.1175C104.948 87.162 104.655 87.3106 104.431 87.5399C104.207 87.7692 104.065 88.0663 104.028 88.3846L100.176 88.5348C100.099 87.8733 99.9698 87.407 99.8345 87.4198C99.6992 87.4326 99.6159 87.8958 99.6039 88.5577L98.9276 88.584C98.6478 87.9485 98.1751 87.4172 97.5765 87.0654C96.9779 86.7136 96.2838 86.5591 95.5925 86.6239C94.7882 86.5825 94 86.8606 93.3998 87.3976C92.7996 87.9346 92.4359 88.6871 92.3879 89.491C92.5124 90.2906 92.9434 91.0102 93.5895 91.4973C94.2357 91.9843 95.0461 92.2006 95.8491 92.1002C96.5397 92.1134 97.2166 91.906 97.7811 91.508C98.3457 91.1099 98.7685 90.5422 98.9881 89.8872L99.6644 89.861C99.7415 90.5225 99.8707 90.9887 100.006 90.976C100.141 90.9632 100.225 90.5 100.237 89.8381L104.118 89.6849C104.196 89.9818 104.366 90.2464 104.603 90.4407C104.841 90.635 105.134 90.749 105.44 90.7662C105.743 90.7263 106.024 90.5901 106.243 90.3778C106.462 90.1655 106.607 89.8883 106.656 89.5873L109.669 89.4726L109.608 88.1687Z" fill="#34394B"/>
</g>
</svg>
