<?xml version="1.0" encoding="utf-8"?>
<!-- Generator: Adobe Illustrator 27.9.0, SVG Export Plug-In . SVG Version: 6.00 Build 0)  -->
<svg version="1.1" id="Layer_1" xmlns="http://www.w3.org/2000/svg" xmlns:xlink="http://www.w3.org/1999/xlink" x="0px" y="0px"
	 viewBox="0 0 180 180" style="enable-background:new 0 0 180 180;" xml:space="preserve">
<style type="text/css">
	.st0{display:none;}
	.st1{fill:none;stroke:#FFFFFF;stroke-width:2.7577;stroke-miterlimit:10;}
	.st2{fill:#FFFFFF;}
	.st3{fill:#FFFFFF;filter:url(#Adobe_OpacityMaskFilter);}
	.st4{mask:url(#mask0_55_12699_00000107554506145961469290000015179162758871422908_);}
	.st5{clip-path:url(#SVGID_00000143585414197933305290000008589891718240784533_);}
	.st6{fill:#F6911A;}
	.st7{fill:#4B4B4C;}
	.st8{fill:#FEDA94;}
	.st9{fill:#34394B;}
	.st10{fill:#FFFFFF;filter:url(#Adobe_OpacityMaskFilter_00000047739545380007529390000017285286194616888225_);}
	.st11{mask:url(#mask0_55_12699_00000091731846333478804760000014183821839503348660_);}
	.st12{fill:#FFFFFF;filter:url(#Adobe_OpacityMaskFilter_00000173129383000558881360000003110481433907952055_);}
	.st13{mask:url(#mask0_55_12699_00000083062910505070812650000015653686451758838708_);}
</style>
<g>
	<path class="st7" d="M113.8,0c8.6,0,16.9,3.4,23.1,9.5l33.6,33.6c6.1,6.1,9.5,14.4,9.6,23.1v47.5c0,4.3-0.8,8.5-2.5,12.5
		c-1.6,4-4,7.6-7.1,10.6l-33.6,33.6c-6.1,6.1-14.4,9.5-23.1,9.6H66.2c-8.6,0-16.9-3.4-23.1-9.5L9.6,136.8C3.4,130.7,0,122.4,0,113.8
		V66.2c0-8.6,3.4-16.9,9.5-23.1L43.2,9.6C49.3,3.4,57.6,0,66.2,0H113.8z"/>
	<g>
		<path class="st8" d="M135.2,105c0,0,10.6,12.3,13.8,15c0,0,3.9,5.1-9.3,8.5c0,0-61.7,17.4-94.1-21
			C45.6,107.5,131.6,102.3,135.2,105z"/>
		<path class="st8" d="M47.2,103.9c0,0-24.6-1.2-14.1-16.4c0,0,28-35.6,72.3-39.4c0,0,29.8-4.9,38.8,16.3c0,0,7.5,18.3-9.3,28.5
			L47.2,103.9z"/>
		<path class="st9" d="M60.5,112.7c0,0,12,20.2,57.3,13.4C117.8,126.1,78.8,130.2,60.5,112.7z"/>
		<path class="st9" d="M47.1,103.5c0,0-12.5-7.4,15.1-22.2c0,0-22.9,12.9-14.2,21.3L47.1,103.5z"/>
		<path class="st9" d="M134.4,91.6c0,0,9.4-5.9,5.8-18.2c0,0,4.4,10.8-5,18.2H134.4z"/>
		<g>
			<path class="st9" d="M106.7,77.7c5.8-0.3,11,5.7,11.4,13.3c0.5,7.6-3.9,13.9-9.7,14.2c-5.8,0.3-11-5.7-11.4-13.3
				C96.5,84.3,100.9,77.9,106.7,77.7z M108.3,103.1c5-0.2,8.7-5.6,8.3-12.1c-0.4-6.4-4.6-11.8-9.6-11.6c-5,0.2-8.8,5.9-8.4,12.4
				C99,98.3,103.3,103.3,108.3,103.1z"/>
			<defs>
				<filter id="Adobe_OpacityMaskFilter" filterUnits="userSpaceOnUse" x="88.8" y="86.2" width="37" height="6.8">
					<feColorMatrix  type="matrix" values="1 0 0 0 0  0 1 0 0 0  0 0 1 0 0  0 0 0 1 0"/>
				</filter>
			</defs>
			
				<mask maskUnits="userSpaceOnUse" x="88.8" y="86.2" width="37" height="6.8" id="mask0_55_12699_00000083062910505070812650000015653686451758838708_">
				<path class="st3" d="M125.8,59.8l-40,2l1.8,32.1l40-2L125.8,59.8z"/>
			</mask>
			<g class="st13">
				<path class="st9" d="M107.3,86.2c1.6-0.1,3,1.4,3.1,3.2c0.1,1.9-1.1,3.4-2.7,3.5c-1.6,0.1-3-1.4-3.1-3.2
					C104.5,87.8,105.7,86.2,107.3,86.2z M107.7,91.7c1,0,1.8-1,1.7-2.2c-0.1-1.2-1-2.1-2-2.1c-1,0-1.8,1-1.7,2.2
					C105.8,90.8,106.6,91.7,107.7,91.7z"/>
				<path class="st9" d="M109.6,89.1l2.8-0.2c0-0.3,0.2-0.5,0.4-0.8c0.2-0.2,0.5-0.3,0.8-0.4c0.3,0,0.6,0.1,0.8,0.3
					c0.2,0.2,0.4,0.4,0.5,0.7l3.6-0.2c0-0.6,0.1-1,0.2-1c0.1,0,0.3,0.4,0.3,1l0.6,0c0.2-0.6,0.6-1.1,1.1-1.4
					c0.5-0.4,1.2-0.6,1.8-0.6c0.7-0.1,1.5,0.1,2.1,0.5c0.6,0.4,1,1,1.2,1.7c0,0.7-0.4,1.4-0.9,1.9c-0.6,0.5-1.3,0.7-2,0.7
					c-0.6,0.1-1.3,0-1.9-0.3c-0.6-0.3-1-0.8-1.3-1.3l-0.6,0c0,0.6-0.1,1-0.2,1c-0.1,0-0.3-0.4-0.3-1l-3.6,0.2c0,0.3-0.2,0.5-0.4,0.7
					c-0.2,0.2-0.5,0.3-0.7,0.4c-0.3,0-0.6-0.1-0.8-0.3c-0.2-0.2-0.4-0.4-0.5-0.7l-2.8,0.2L109.6,89.1z"/>
				<path class="st9" d="M104.9,89.5l-2.8,0.1c-0.1-0.3-0.2-0.5-0.5-0.7c-0.2-0.2-0.5-0.3-0.8-0.3c-0.3,0-0.6,0.2-0.8,0.4
					c-0.2,0.2-0.3,0.5-0.4,0.7l-3.6,0.1c-0.1-0.6-0.2-1-0.3-1s-0.2,0.4-0.2,1l-0.6,0c-0.3-0.6-0.7-1-1.3-1.3
					c-0.6-0.3-1.2-0.4-1.9-0.4c-0.8,0-1.5,0.2-2.1,0.7c-0.6,0.5-0.9,1.1-0.9,1.8c0.1,0.7,0.5,1.3,1.1,1.8c0.6,0.4,1.4,0.6,2.1,0.5
					c0.6,0,1.3-0.2,1.8-0.5c0.5-0.3,0.9-0.8,1.1-1.4l0.6,0c0.1,0.6,0.2,1,0.3,1c0.1,0,0.2-0.4,0.2-1l3.6-0.1
					c0.1,0.3,0.2,0.5,0.5,0.7c0.2,0.2,0.5,0.3,0.8,0.3c0.3,0,0.5-0.2,0.8-0.3c0.2-0.2,0.3-0.4,0.4-0.7l2.8-0.1L104.9,89.5z"/>
			</g>
		</g>
		<path class="st6" d="M135.2,91.6c0,0-2,8.9,0.1,13.5c0,0-24.1,4.5-89.8,2.5c0,0-1.4-4.5,2.1-5.2C47.6,102.3,90.3,92,135.2,91.6z"
			/>
	</g>
</g>
<path class="st9" d="M106.7,86.8l-0.2-3.8c-0.3,0-0.5-0.2-0.8-0.4c-0.2-0.2-0.3-0.5-0.4-0.8c0-0.3,0.1-0.6,0.3-0.8
	c0.2-0.2,0.4-0.4,0.7-0.5l-0.2-3.6c-0.6,0-1-0.1-1-0.2c0-0.1,0.4-0.3,1-0.3l0-0.6c-0.6-0.2-1.1-0.6-1.4-1.1
	c-0.4-0.5-0.6-1.2-0.6-1.8c-0.1-0.7,0.1-1.5,0.5-2.1c0.4-0.6,1-1,1.7-1.2c0.7,0,1.4,0.4,1.9,0.9c0.5,0.6,0.7,1.3,0.7,2
	c0.1,0.6,0,1.3-0.3,1.9c-0.3,0.6-0.8,1-1.3,1.3l0,0.6c0.6,0,1,0.1,1,0.2c0,0.1-0.4,0.3-1,0.3l0.2,3.6c0.3,0,0.5,0.2,0.7,0.4
	c0.2,0.2,0.3,0.5,0.4,0.7c0,0.3-0.1,0.6-0.3,0.8c-0.2,0.2-0.4,0.4-0.7,0.5l0.2,3.8L106.7,86.8z"/>
<path class="st9" d="M104.6,88.8L102,86c-0.2,0.2-0.5,0.2-0.8,0.2c-0.3,0-0.6-0.2-0.8-0.4c-0.2-0.2-0.3-0.5-0.3-0.8
	c0-0.3,0.1-0.6,0.2-0.8l-2.5-2.6c-0.5,0.4-0.8,0.6-0.9,0.5c-0.1-0.1,0.1-0.4,0.5-0.9l-0.4-0.5c-0.6,0.2-1.2,0.2-1.8,0.1
	c-0.6-0.2-1.2-0.5-1.6-1c-0.6-0.5-0.9-1.2-1-1.9c-0.1-0.7,0.1-1.4,0.6-2c0.6-0.4,1.3-0.6,2-0.5c0.7,0.1,1.4,0.5,1.9,1.1
	c0.5,0.4,0.8,1,0.9,1.6c0.1,0.6,0.1,1.3-0.2,1.8l0.4,0.5c0.5-0.4,0.8-0.6,0.9-0.5c0.1,0.1-0.1,0.4-0.5,0.9l2.5,2.7
	c0.2-0.1,0.5-0.2,0.8-0.2c0.3,0,0.5,0.2,0.8,0.3c0.2,0.2,0.3,0.5,0.3,0.8c0,0.3-0.1,0.6-0.2,0.8l2.6,2.8L104.6,88.8z"/>
<path class="st9" d="M109.2,88.7l2.1-3.2c0.3,0.1,0.6,0.1,0.8,0.1c0.3-0.1,0.5-0.2,0.7-0.5c0.1-0.3,0.2-0.6,0.2-0.9
	c0-0.3-0.2-0.6-0.4-0.7l2-3c0.5,0.3,0.9,0.4,1,0.3c0.1-0.1-0.2-0.4-0.7-0.8l0.4-0.5c0.6,0.1,1.2,0,1.8-0.2c0.6-0.3,1.1-0.7,1.4-1.3
	c0.5-0.6,0.7-1.3,0.7-2.1c0-0.7-0.4-1.4-0.9-1.9c-0.6-0.3-1.4-0.4-2.1-0.1c-0.7,0.2-1.3,0.7-1.7,1.4c-0.4,0.5-0.6,1.1-0.6,1.8
	c0,0.6,0.1,1.3,0.5,1.8l-0.4,0.5c-0.5-0.3-0.9-0.4-1-0.3c-0.1,0.1,0.2,0.4,0.7,0.8l-2,3c-0.3-0.1-0.5-0.1-0.8,0
	c-0.3,0.1-0.5,0.2-0.7,0.5c-0.1,0.3-0.2,0.5-0.2,0.8c0,0.3,0.1,0.5,0.3,0.7l-1.8,2.6L109.2,88.7z"/>
</svg>
