<svg width="183" height="183" viewBox="0 0 183 183" fill="none" xmlns="http://www.w3.org/2000/svg">
<path d="M136.661 106.454C136.661 106.454 147.212 118.742 150.469 121.437C150.469 121.437 154.41 126.527 141.215 129.957C141.215 129.957 79.5462 147.321 47.0842 108.982C47.0842 108.982 133.136 103.809 136.661 106.454Z" fill="#FEDA94"/>
<path d="M67.728 0H115.272C124.316 0.000684644 132.989 3.59337 139.385 9.988L173.01 43.613C179.406 50.0088 182.999 58.6831 183 67.728V115.272C183 119.751 182.118 124.187 180.404 128.326C178.69 132.464 176.177 136.225 173.01 139.392L139.387 173.01C132.991 179.406 124.317 182.999 115.272 183H67.728C58.6841 183 50.0107 179.407 43.615 173.013L9.99 139.387C3.59434 132.991 0.000904406 124.317 0 115.272V67.728C0.000684644 58.684 3.59337 50.0105 9.988 43.615L43.613 9.99C50.0088 3.59434 58.6831 0.000904406 67.728 0ZM115.272 180C119.358 180.011 123.406 179.211 127.181 177.647C130.957 176.083 134.384 173.786 137.266 170.889L170.889 137.27C173.787 134.388 176.085 130.959 177.649 127.183C179.213 123.406 180.012 119.357 180.001 115.27V67.728C180.012 63.6417 179.212 59.5938 177.648 55.8185C176.084 52.0433 173.787 48.6157 170.89 45.734L137.263 12.109C134.382 9.2122 130.955 6.91558 127.18 5.35203C123.405 3.78847 119.358 2.98905 115.272 3H67.728C63.6417 2.98919 59.5938 3.78886 55.8185 5.35276C52.0433 6.91665 48.6157 9.2137 45.734 12.111L12.109 45.737C9.2122 48.6183 6.91558 52.0455 5.35203 55.8202C3.78847 59.5949 2.98905 63.6423 3 67.728V115.271C2.98919 119.357 3.78886 123.405 5.35276 127.18C6.91665 130.956 9.2137 134.383 12.111 137.265L45.737 170.891C48.6183 173.788 52.0455 176.084 55.8202 177.648C59.5949 179.212 63.6423 180.011 67.728 180H115.272Z" fill="#F6911A"/>
<path d="M48.7062 105.415C48.7062 105.415 24.1062 104.239 34.5722 88.9738C34.5722 88.9738 62.6032 53.3738 106.841 49.6078C106.841 49.6078 136.652 44.7208 145.62 65.9078C145.62 65.9078 153.158 84.2077 136.349 94.4437L48.7062 105.415Z" fill="#FEDA94"/>
<path d="M62.0413 114.239C62.0413 114.239 74.0612 134.459 119.328 127.606C119.328 127.606 80.2553 131.719 62.0413 114.239Z" fill="#34394B"/>
<path d="M48.6313 104.98C48.6313 104.98 36.1313 97.5468 63.7613 82.7998C63.7613 82.7998 40.8303 95.7498 49.5133 104.1L48.6313 104.98Z" fill="#34394B"/>
<path d="M135.896 93.1338C135.896 93.1338 145.34 87.2187 141.684 74.9427C141.684 74.9427 146.057 85.7818 136.656 93.1338H135.896Z" fill="#34394B"/>
<path d="M136.707 93.0887C136.707 93.0887 134.673 101.994 136.831 106.58C136.831 106.58 112.771 111.097 47.0383 109.054C47.0383 109.054 45.6693 104.554 49.0943 103.812C49.0943 103.812 91.7593 93.5297 136.707 93.0887Z" fill="#F6911A"/>
<mask id="mask0_164_161" style="mask-type:luminance" maskUnits="userSpaceOnUse" x="90" y="55" width="46" height="40">
<path d="M133.555 55.9118L90.9092 58.1467L92.8288 94.7745L135.474 92.5395L133.555 55.9118Z" fill="white"/>
</mask>
<g mask="url(#mask0_164_161)">
<path d="M113.81 85.3744C115.508 85.2854 117.002 87.3571 117.14 89.9935C117.278 92.6299 116.009 94.8453 114.311 94.9343C112.614 95.0233 111.12 92.9516 110.982 90.3162C110.844 87.6808 112.113 85.4634 113.81 85.3744ZM114.22 93.1957C115.301 93.1391 116.108 91.7289 116.02 90.0512C115.932 88.3735 114.982 87.0554 113.902 87.112C112.821 87.1687 112.014 88.5798 112.102 90.2575C112.19 91.9352 113.139 93.2524 114.22 93.1957Z" fill="#34394B"/>
<path d="M113.14 72.639C119.36 72.3131 124.83 79.9042 125.336 89.5599C125.842 99.2157 121.195 107.337 114.976 107.663C108.756 107.989 103.285 100.398 102.779 90.7421C102.273 81.0863 106.922 72.9649 113.14 72.639ZM114.839 105.056C120.132 104.778 124.088 97.8616 123.658 89.6479C123.227 81.4342 118.569 74.9691 113.277 75.2464C107.984 75.5238 104.028 82.4404 104.458 90.6541C104.888 98.8678 109.546 105.333 114.839 105.056Z" fill="#34394B"/>
<path d="M113.445 86.1085L113.203 81.4729C112.913 81.2352 112.683 80.9341 112.529 80.593C112.374 80.2519 112.301 79.8799 112.313 79.5057C112.262 79.135 112.296 78.7573 112.414 78.4019C112.531 78.0466 112.729 77.723 112.992 77.4564L112.679 71.4796C112.249 71.432 111.938 71.2751 111.927 71.0724C111.917 70.8696 112.207 70.6812 112.632 70.5888L112.577 69.5403C111.777 69.0274 111.098 67.0182 110.971 64.5866C110.821 61.7305 111.489 59.3743 112.463 59.3232C113.438 59.2721 114.347 61.5457 114.497 64.4018C114.624 66.8334 114.159 68.9026 113.417 69.4953L113.472 70.5458C113.902 70.5934 114.213 70.7503 114.223 70.953C114.234 71.1558 113.943 71.3442 113.519 71.4366L113.834 77.4523C114.103 77.6958 114.316 77.9943 114.46 78.3275C114.603 78.6607 114.673 79.0208 114.665 79.3835C114.711 79.7433 114.679 80.1088 114.571 80.4552C114.463 80.8015 114.282 81.1207 114.04 81.3909L114.285 86.0645L113.445 86.1085Z" fill="#34394B"/>
<path d="M115.601 86.8478L117.525 83.4284C117.293 82.6608 117.375 81.8326 117.752 81.1253C118.136 80.4423 118.715 80.2047 119.187 80.4693L121.66 76.0649C121.36 75.5659 121.2 75.1217 121.283 74.9721C121.367 74.8225 121.671 75.0129 122.028 75.4087L122.462 74.6349C122.188 72.8606 122.558 71.0466 123.505 69.5214C124.69 67.4134 126.253 66.5405 127.007 67.5634C127.762 68.5863 127.407 71.1223 126.225 73.2271C125.217 75.0193 123.933 75.9207 123.11 75.5172L122.676 76.291C122.976 76.79 123.136 77.2342 123.053 77.3838C122.97 77.5334 122.665 77.343 122.308 76.9472L119.821 81.3794C120.019 82.1238 119.929 82.9158 119.566 83.5958C119.2 84.2508 118.651 84.4959 118.19 84.2827L116.248 87.7301L115.601 86.8478Z" fill="#34394B"/>
<path d="M116.83 89.4954L119.816 89.2978C119.85 88.9773 119.988 88.6767 120.209 88.4417C120.429 88.2068 120.72 88.0502 121.038 87.996C121.358 88.0072 121.666 88.1242 121.913 88.3288C122.16 88.5334 122.331 88.8141 122.402 89.1269L126.248 88.8736C126.256 88.2076 126.335 87.7304 126.471 87.729C126.607 87.7275 126.739 88.1795 126.82 88.8366L127.495 88.792C127.707 88.1307 128.121 87.553 128.68 87.1405C129.238 86.7281 129.913 86.5019 130.607 86.494C131.401 86.3693 132.213 86.5632 132.865 87.0335C133.518 87.5037 133.958 88.2125 134.091 89.0057C134.052 89.8143 133.7 90.5758 133.108 91.1287C132.517 91.6817 131.734 91.9824 130.924 91.9671C130.239 92.0527 129.544 91.9173 128.941 91.5806C128.337 91.2439 127.857 90.7235 127.57 90.0951L126.895 90.1397C126.887 90.8057 126.808 91.2829 126.672 91.2844C126.536 91.2858 126.405 90.8339 126.323 90.1768L122.449 90.4287C122.402 90.7321 122.261 91.013 122.045 91.231C121.829 91.4491 121.55 91.5931 121.247 91.6423C120.942 91.6342 120.648 91.5282 120.408 91.3399C120.168 91.1517 119.995 90.8912 119.914 90.5969L116.906 90.7992L116.83 89.4954Z" fill="#34394B"/>
<path d="M109.397 84.7375C108.961 84.9987 108.392 84.8113 107.957 84.1982C107.526 83.5598 107.352 82.7816 107.472 82.0205L104.531 77.8778C104.218 78.3088 103.936 78.5298 103.836 78.3899C103.737 78.2499 103.851 77.7883 104.097 77.2637L103.584 76.5395C102.809 77.0268 101.436 76.2646 100.247 74.5875C98.8534 72.6187 98.2405 70.1334 98.879 69.0375C99.5175 67.9416 101.168 68.6462 102.564 70.6188C103.666 72.0364 104.224 73.8017 104.137 75.5953L104.65 76.3194C104.964 75.8884 105.246 75.6674 105.345 75.8074C105.445 75.9473 105.331 76.4089 105.085 76.9335L108.004 81.0554C108.447 80.7428 109.047 80.9186 109.5 81.5578C109.949 82.2217 110.118 83.0368 109.967 83.8244L112.238 87.024L111.686 87.9691L109.397 84.7375Z" fill="#34394B"/>
<path d="M111.267 89.7875L108.276 89.9031C108.209 89.588 108.041 89.3034 107.797 89.0928C107.553 88.8821 107.247 88.7569 106.925 88.7362C106.608 88.7808 106.314 88.9293 106.09 89.1586C105.866 89.3879 105.724 89.685 105.687 90.0034L101.835 90.1536C101.758 89.492 101.629 89.0258 101.494 89.0386C101.358 89.0513 101.275 89.5145 101.263 90.1765L100.587 90.2027C100.307 89.5673 99.8343 89.036 99.2357 88.6842C98.6371 88.3324 97.943 88.1779 97.2517 88.2427C96.4473 88.2013 95.6592 88.4793 95.059 89.0164C94.4588 89.5534 94.095 90.3058 94.0471 91.1098C94.1716 91.9093 94.6026 92.6289 95.2487 93.116C95.8949 93.6031 96.7053 93.8194 97.5082 93.719C98.1989 93.7322 98.8757 93.5248 99.4403 93.1267C100.005 92.7287 100.428 92.1609 100.647 91.506L101.324 91.4797C101.401 92.1413 101.53 92.6075 101.665 92.5948C101.8 92.582 101.884 92.1188 101.896 91.4568L105.777 91.3037C105.855 91.6006 106.025 91.8652 106.262 92.0595C106.5 92.2538 106.793 92.3677 107.099 92.385C107.402 92.3451 107.683 92.2089 107.902 91.9966C108.121 91.7843 108.266 91.5071 108.316 91.2061L111.328 91.0914L111.267 89.7875Z" fill="#34394B"/>
</g>
</svg>
