<svg width="183" height="183" viewBox="0 0 183 183" fill="none" xmlns="http://www.w3.org/2000/svg">
<path d="M123.032 105.434C100.68 105.434 49.825 108.747 49.825 108.747C82.214 147.001 140.99 129.654 140.99 129.654C154.156 126.232 150.223 121.154 150.223 121.154C146.974 118.465 133.239 106.18 133.239 106.18C132.528 105.647 128.697 105.434 123.031 105.434M123.031 102.434C126.037 102.434 128.448 102.495 130.197 102.614C132.867 102.796 134.134 103.101 135.039 103.78C135.106 103.832 135.172 103.887 135.239 103.944C135.376 104.066 148.968 116.221 152.139 118.844C152.309 118.985 152.463 119.144 152.598 119.319C153.181 120.12 153.562 121.05 153.708 122.03C153.854 123.01 153.762 124.011 153.438 124.947C152.288 128.317 148.477 130.804 141.79 132.547C141.327 132.681 137.99 133.625 132.69 134.57C125.288 135.885 117.785 136.557 110.267 136.578C99.376 136.701 88.5419 134.99 78.219 131.517C66.2967 127.473 55.693 120.275 47.535 110.686C47.176 110.262 46.9418 109.747 46.8586 109.197C46.7753 108.648 46.8463 108.086 47.0635 107.575C47.2807 107.063 47.6357 106.622 48.0888 106.301C48.542 105.979 49.0755 105.79 49.63 105.754C50.139 105.721 100.84 102.434 123.032 102.434H123.031Z" fill="#F6911A"/>
<path d="M48.7451 106.674L48.6151 106.668C46.1967 106.511 43.7976 106.134 41.4481 105.54C36.1951 104.195 32.7821 102.005 31.3041 99.0299C29.7501 95.9019 30.4371 92.163 33.3471 87.917L33.3751 87.876L33.4061 87.837C33.4791 87.744 35.2421 85.515 38.5721 82.108C43.1122 77.4835 47.9987 73.2125 53.1891 69.332C60.3192 63.966 68.0418 59.4364 76.2051 55.832C85.8119 51.5814 96.0501 48.9333 106.513 47.993C108.992 47.646 111.492 47.4789 113.995 47.493C119.963 47.4176 125.894 48.455 131.482 50.552C138.764 53.486 143.908 58.401 146.769 65.163L146.783 65.196C148.078 68.8448 148.626 72.717 148.393 76.582C148.205 80.1241 147.178 83.5709 145.398 86.639C143.016 90.529 139.585 93.6677 135.498 95.694L135.257 95.82L48.7451 106.674ZM35.7921 89.657C33.5671 92.919 32.9611 95.623 33.9921 97.695C35.3271 100.383 39.1921 101.864 42.1921 102.633C44.306 103.163 46.4622 103.508 48.6361 103.664L134.336 92.919C141.214 89.229 144.936 83.672 145.398 76.398C145.597 72.979 145.122 69.5542 143.998 66.319C138.16 52.556 122.698 50.5 113.998 50.5C111.637 50.4852 109.278 50.641 106.939 50.966L106.882 50.975H106.824C84.4111 52.884 66.3051 63.286 55.0611 71.675C49.9903 75.4599 45.2157 79.6263 40.7791 84.138C37.7611 87.225 36.0341 89.355 35.7921 89.656V89.657Z" fill="#F6911A"/>
<path d="M61.993 113.973C61.993 113.973 73.986 134.148 119.152 127.31C119.152 127.31 80.167 131.414 61.993 113.973Z" fill="#F6911A"/>
<path d="M62.3391 113.612C74.6861 125.461 96.9581 127.23 109.139 127.23C115.067 127.23 119.064 126.817 119.104 126.813L119.231 127.805C113.38 128.718 107.469 129.192 101.547 129.225C95.0424 129.294 88.5566 128.513 82.2541 126.903C77.9364 125.787 73.8 124.061 69.9701 121.776C63.8931 118.066 61.6591 114.384 61.5701 114.229L62.3391 113.612ZM105.004 128.163C98.3722 127.986 91.7713 127.19 85.2871 125.787C78.9529 124.478 72.8872 122.102 67.3491 118.761C68.3749 119.555 69.4453 120.289 70.5551 120.961C76.0071 124.274 85.8091 128.222 101.543 128.222C102.678 128.224 103.832 128.204 105.004 128.163Z" fill="#F6911A"/>
<path d="M48.611 104.735C48.611 104.735 36.137 97.318 63.711 82.604C63.711 82.604 40.831 95.525 49.494 103.856L48.611 104.735Z" fill="#F6911A"/>
<path d="M48.69 105.363L48.356 105.163C47.7645 104.781 47.2365 104.308 46.791 103.763C45.7976 102.596 45.2667 101.106 45.299 99.5739C45.352 97.2809 46.618 94.8089 49.062 92.2269C52.078 89.0409 56.926 85.6529 63.473 82.1589L63.954 83.0349C63.805 83.1189 49.006 91.5589 48.078 98.8979C47.9676 99.7494 48.0707 100.615 48.3781 101.417C48.6856 102.218 49.1876 102.931 49.839 103.49L50.207 103.843L48.69 105.363ZM51.147 91.584C47.424 94.999 46.347 97.672 46.298 99.584C46.2629 100.866 46.7031 102.116 47.534 103.094C47.8356 103.461 48.1778 103.792 48.554 104.082L48.787 103.849C48.1354 103.189 47.6434 102.388 47.3488 101.508C47.0541 100.629 46.9646 99.6935 47.087 98.774C47.5181 96.5192 48.5711 94.4298 50.127 92.7419C50.4437 92.3619 50.7837 91.9753 51.147 91.584Z" fill="#F6911A"/>
<path d="M135.683 92.916C135.683 92.916 145.106 87.016 141.458 74.765C141.458 74.765 145.821 85.58 136.441 92.916H135.683Z" fill="#F6911A"/>
<path d="M136.614 93.416H133.942L135.417 92.492C137.071 91.3312 138.473 89.8474 139.538 88.13C141.958 84.275 142.443 79.83 140.978 74.908L141.921 74.578C142.672 76.6685 143.026 78.8806 142.966 81.101C142.933 83.1981 142.481 85.2676 141.638 87.188C140.538 89.6011 138.858 91.7043 136.748 93.31L136.614 93.416Z" fill="#F6911A"/>
<path d="M136.493 92.87C136.493 92.87 134.463 101.756 136.617 106.331C136.617 106.331 113.462 111.844 47.875 109.806C47.875 109.806 45.657 104.311 49.075 103.569C49.075 103.569 91.647 93.31 136.493 92.87Z" fill="#F6911A"/>
<mask id="mask0_164_133" style="mask-type:luminance" maskUnits="userSpaceOnUse" x="88" y="55" width="46" height="40">
<path d="M131.298 55.873L88.746 58.103L90.6613 94.6499L133.213 92.4198L131.298 55.873Z" fill="white"/>
</mask>
<g mask="url(#mask0_164_133)">
<path d="M111.596 85.2694C113.294 85.1805 114.78 87.2475 114.918 89.8779C115.056 92.5083 113.79 94.7196 112.096 94.8083C110.402 94.8971 108.912 92.8293 108.774 90.1999C108.636 87.5705 109.902 85.3582 111.596 85.2694ZM112.005 93.0737C113.083 93.0173 113.888 91.6102 113.8 89.9365C113.713 88.2628 112.765 86.9476 111.687 87.0041C110.609 87.0605 109.804 88.4676 109.892 90.1413C109.979 91.815 110.931 93.13 112.005 93.0737Z" fill="#F6911A"/>
<path d="M110.928 72.562C117.134 72.2367 122.592 79.8104 123.098 89.4482C123.603 99.086 118.965 107.189 112.76 107.514C106.554 107.839 101.095 100.26 100.59 90.6277C100.086 80.996 104.723 72.8872 110.928 72.562ZM112.623 104.907C117.905 104.63 121.851 97.7328 121.422 89.533C120.992 81.3333 116.348 74.8865 111.064 75.1634C105.781 75.4403 101.836 82.3372 102.266 90.5399C102.696 98.7427 107.341 105.183 112.623 104.907Z" fill="#F6911A"/>
<path d="M111.232 86.0064L110.99 81.3758C110.701 81.1384 110.471 80.8377 110.317 80.4971C110.163 80.1565 110.09 79.785 110.102 79.4115C110.052 79.0426 110.087 78.667 110.204 78.3137C110.322 77.9603 110.519 77.6386 110.78 77.3732L110.467 71.4054C110.038 71.3578 109.728 71.2008 109.718 70.9991C109.707 70.7974 109.998 70.6089 110.42 70.5167L110.366 69.4701C109.568 68.9591 108.89 66.9579 108.763 64.5282C108.613 61.6781 109.28 59.327 110.252 59.2761C111.224 59.2251 112.132 61.4937 112.281 64.3438C112.408 66.7705 111.943 68.8346 111.203 69.4262L111.258 70.4737C111.687 70.5214 111.997 70.6784 112.008 70.8801C112.018 71.0818 111.728 71.2703 111.305 71.3625L111.619 77.3653C111.887 77.6079 112.1 77.9051 112.243 78.2369C112.386 78.5687 112.456 78.9273 112.448 79.2885C112.494 79.6476 112.462 80.0124 112.355 80.358C112.247 80.7037 112.067 81.0222 111.825 81.2919L112.07 85.9605L111.232 86.0064Z" fill="#F6911A"/>
<path d="M112.596 86.4357L110.759 86.5319L110.503 81.6386C109.928 81.0496 109.606 80.2603 109.603 79.4377C109.52 78.6193 109.758 77.8006 110.268 77.1548L109.988 71.8181C109.518 71.6755 109.238 71.3948 109.218 71.0253C109.199 70.6558 109.448 70.3473 109.901 70.1564L109.878 69.724C108.906 68.8477 108.368 66.5537 108.263 64.5544C108.175 63.265 108.29 61.9696 108.606 60.7162C109.047 59.16 109.73 58.8028 110.226 58.7768C110.721 58.7508 111.441 59.0346 112.039 60.5363C112.484 61.7498 112.735 63.026 112.781 64.3176C112.886 66.3149 112.591 68.6545 111.716 69.6277L111.738 70.0611C112.208 70.2037 112.489 70.4844 112.508 70.8539C112.527 71.2234 112.278 71.5319 111.825 71.7228L112.108 77.1154C112.645 77.703 112.944 78.4687 112.949 79.2644C113.027 80.0561 112.809 80.8489 112.337 81.4894L112.596 86.4357ZM111.199 77.6838L111.071 77.7756C110.881 77.9939 110.741 78.251 110.66 78.5289C110.579 78.8068 110.559 79.099 110.602 79.3854C110.589 79.6749 110.639 79.9639 110.748 80.2322C110.858 80.5005 111.025 80.7417 111.237 80.9392L111.373 81.0172L111.506 80.9101C111.686 80.6891 111.818 80.4333 111.894 80.1587C111.97 79.8842 111.989 79.5969 111.949 79.3148C111.959 79.0305 111.91 78.7473 111.806 78.4827C111.701 78.2182 111.543 77.9781 111.342 77.7774L111.199 77.6838ZM110.278 59.7754C109.901 59.7952 109.101 61.4273 109.262 64.5021C109.387 66.8778 110.058 68.6802 110.635 69.0495L110.768 69.1346L110.891 69.0361C111.426 68.6075 111.905 66.7458 111.781 64.3701C111.62 61.2953 110.655 59.7557 110.278 59.7754Z" fill="#F6911A"/>
<path d="M113.382 86.7389L115.3 83.3269C115.068 82.5614 115.15 81.7354 115.527 81.0299C115.909 80.3479 116.487 80.1114 116.958 80.3751L119.432 75.9796C119.133 75.4815 118.973 75.0383 119.056 74.8898C119.139 74.7412 119.443 74.9306 119.799 75.3255L120.232 74.5538C119.958 72.7834 120.327 70.9734 121.272 69.4514C122.451 67.3488 124.015 66.4767 124.763 67.498C125.512 68.5192 125.161 71.049 123.982 73.1466C122.978 74.9316 121.695 75.8359 120.874 75.4334L120.441 76.2051C120.739 76.7032 120.9 77.1464 120.816 77.2949C120.733 77.4435 120.43 77.2541 120.074 76.8592L117.588 81.2834C117.786 82.0262 117.695 82.8164 117.333 83.4947C116.967 84.1478 116.42 84.3928 115.96 84.1795L114.029 87.6173L113.382 86.7389Z" fill="#F6911A"/>
<path d="M114.084 88.5416L112.79 86.7749L114.763 83.2669C114.566 82.4278 114.683 81.5458 115.092 80.7872C115.221 80.5129 115.418 80.276 115.664 80.0986C115.909 79.9212 116.196 79.8093 116.497 79.7733C116.572 79.7694 116.647 79.7722 116.722 79.7815L118.856 75.9836C118.372 75.0797 118.547 74.7632 118.617 74.6443C118.666 74.556 118.738 74.4817 118.824 74.4283C118.91 74.3749 119.008 74.3442 119.109 74.3391C119.312 74.3358 119.51 74.4042 119.667 74.5322L119.695 74.4837C119.477 72.6464 119.879 70.7891 120.836 69.2057C121.733 67.6106 122.868 66.6259 123.872 66.5732C124.124 66.5589 124.376 66.6097 124.602 66.7206C124.829 66.8314 125.023 66.9987 125.166 67.2064C125.648 68.0487 125.8 69.0401 125.591 69.9879C125.412 71.1854 125.014 72.3398 124.418 73.394C123.521 74.9901 122.386 75.9739 121.382 76.0265C121.294 76.0314 121.207 76.0289 121.12 76.0192L121.016 76.2049C121.497 77.1059 121.322 77.4175 121.253 77.5413C121.203 77.6297 121.132 77.704 121.046 77.7574C120.96 77.8107 120.861 77.8414 120.76 77.8465C120.557 77.8498 120.36 77.7815 120.202 77.6535L118.12 81.3555C118.283 82.1667 118.159 83.0093 117.769 83.7391C117.64 84.0134 117.444 84.2504 117.198 84.4277C116.952 84.6051 116.666 84.717 116.365 84.753C116.314 84.7557 116.263 84.7553 116.212 84.752L114.084 88.5416ZM115.757 83.5342L116.168 83.726C116.212 83.7472 116.26 83.757 116.309 83.7546C116.439 83.7214 116.56 83.6585 116.661 83.5711C116.763 83.4836 116.843 83.3738 116.895 83.2502C117.193 82.689 117.269 82.0365 117.109 81.4215L117.052 81.2242L117.143 81.0552L116.713 80.8144C116.663 80.7847 116.605 80.7704 116.547 80.7731C116.417 80.8063 116.296 80.8691 116.195 80.9566C116.093 81.0441 116.013 81.1539 115.961 81.2774C115.654 81.8606 115.586 82.5405 115.772 83.1729L115.842 83.3825L115.757 83.5342ZM120.676 74.7798L121.095 74.9851C121.168 75.0195 121.249 75.0342 121.329 75.0279C121.855 75.0004 122.744 74.3329 123.546 72.9039C124.712 70.8291 124.911 68.5455 124.36 67.7934C124.315 67.7202 124.25 67.6608 124.173 67.6218C124.097 67.5827 124.011 67.5655 123.925 67.5718C123.399 67.5994 122.51 68.2668 121.708 69.6958C120.834 71.102 120.48 72.7697 120.708 74.4095L120.769 74.6126L120.676 74.7798Z" fill="#F6911A"/>
<path d="M114.61 89.3818L117.59 89.1853C117.624 88.8655 117.761 88.5657 117.981 88.3312C118.201 88.0968 118.492 87.9406 118.809 87.8865C119.129 87.8978 119.435 88.0147 119.682 88.219C119.928 88.4233 120.099 88.7034 120.169 89.0154L124.007 88.7612C124.015 88.0959 124.097 87.6235 124.23 87.6166C124.363 87.6096 124.497 88.067 124.58 88.7227L125.254 88.6781C125.465 88.0183 125.879 87.4417 126.436 87.0301C126.993 86.6185 127.666 86.3927 128.359 86.3848C129.152 86.2603 129.963 86.4544 130.615 86.9249C131.266 87.3953 131.705 88.1041 131.836 88.8968C131.797 89.7035 131.445 90.4631 130.854 91.014C130.263 91.5648 129.481 91.8633 128.673 91.846C127.989 91.9318 127.296 91.7969 126.694 91.461C126.091 91.1251 125.612 90.6058 125.326 89.9786L124.652 90.0231C124.644 90.6885 124.562 91.1608 124.429 91.1678C124.296 91.1747 124.162 90.7173 124.079 90.0617L120.217 90.3165C120.17 90.6187 120.029 90.8985 119.814 91.1158C119.599 91.333 119.321 91.4765 119.019 91.5256C118.714 91.5177 118.421 91.4119 118.181 91.224C117.941 91.0361 117.769 90.776 117.688 90.4823L114.684 90.6808L114.61 89.3818Z" fill="#F6911A"/>
<path d="M114.215 91.2144L114.085 88.9185L117.205 88.7097C117.31 88.3608 117.513 88.05 117.792 87.8155C118.071 87.581 118.412 87.4331 118.773 87.3898C118.996 87.3784 119.219 87.4121 119.428 87.4889C119.638 87.5656 119.83 87.6838 119.993 87.8364C120.197 88.0234 120.365 88.2464 120.489 88.4944L123.524 88.2922C123.568 87.659 123.717 87.1477 124.194 87.117C124.271 87.1126 124.348 87.1237 124.421 87.1497C124.493 87.1757 124.56 87.2161 124.616 87.2684C124.691 87.3353 124.832 87.4631 124.959 88.0024C125.283 87.3834 125.765 86.8614 126.356 86.4897C126.947 86.118 127.626 85.9099 128.324 85.8866C128.866 85.8412 129.411 85.9039 129.929 86.0712C130.446 86.2384 130.925 86.5069 131.337 86.8609C131.923 87.3713 132.282 88.0929 132.336 88.8677C132.439 90.6466 130.811 92.2047 128.708 92.3454C128.166 92.3909 127.621 92.3281 127.104 92.1609C126.586 91.9936 126.108 91.7251 125.695 91.3711C125.473 91.1703 125.28 90.9392 125.122 90.6845C125.061 91.2252 124.897 91.6374 124.469 91.6655C124.392 91.6701 124.315 91.6591 124.242 91.6331C124.169 91.6071 124.102 91.5667 124.046 91.5142C123.965 91.4419 123.796 91.2894 123.666 90.5909L120.6 90.7906C120.487 91.1209 120.283 91.4123 120.011 91.6306C119.739 91.8489 119.41 91.9851 119.063 92.0231C118.841 92.0345 118.618 92.0008 118.408 91.9241C118.199 91.8473 118.007 91.7291 117.844 91.5765C117.663 91.4114 117.51 91.2175 117.392 91.0026L114.215 91.2144ZM115.135 89.8449L115.152 90.1471L118.025 89.9576L118.156 90.3055C118.227 90.5062 118.345 90.6872 118.5 90.8334C118.564 90.8961 118.64 90.9454 118.723 90.9783C118.806 91.0113 118.895 91.0273 118.985 91.0253C119.179 90.9801 119.355 90.8762 119.489 90.7278C119.623 90.5793 119.708 90.3934 119.732 90.1952L119.819 89.8402L125.668 89.4544L125.796 89.8109C125.914 90.1267 126.108 90.4082 126.362 90.6302C126.675 90.8948 127.038 91.0946 127.429 91.2182C127.82 91.3417 128.231 91.3865 128.64 91.3499C129.314 91.3718 129.97 91.1323 130.472 90.6816C130.974 90.2308 131.283 89.6036 131.333 88.9309C131.316 88.6766 131.248 88.4283 131.134 88.2005C131.02 87.9726 130.862 87.7699 130.668 87.6041C130.355 87.3395 129.992 87.1396 129.601 87.0161C129.211 86.8926 128.799 86.8478 128.391 86.8844C127.806 86.8897 127.237 87.076 126.762 87.4177C126.288 87.7594 125.93 88.2398 125.74 88.7928L125.655 89.1527L119.815 89.5388L119.694 89.1712C119.625 88.9445 119.5 88.739 119.329 88.5743C119.265 88.5116 119.19 88.4623 119.106 88.4293C119.023 88.3963 118.934 88.3804 118.844 88.3823C118.639 88.4336 118.455 88.5481 118.318 88.7097C118.181 88.8712 118.099 89.0716 118.082 89.2826L118.006 89.6569L115.135 89.8449Z" fill="#F6911A"/>
<path d="M107.196 84.6388C106.761 84.899 106.192 84.7125 105.759 84.1013C105.328 83.4645 105.155 82.6881 105.275 81.9287L102.341 77.7896C102.028 78.2205 101.746 78.4396 101.648 78.3005C101.549 78.1615 101.662 77.6989 101.907 77.1774L101.396 76.4552C100.62 76.9414 99.2524 76.18 98.0663 74.5078C96.6725 72.542 96.0599 70.0627 96.6975 68.9688C97.3351 67.8749 98.9812 68.5788 100.374 70.5466C101.474 71.9609 102.031 73.7224 101.945 75.5121L102.457 76.2344C102.77 75.8034 103.051 75.5843 103.15 75.7234C103.248 75.8624 103.135 76.325 102.89 76.8465L105.809 80.9584C106.251 80.6468 106.85 80.8217 107.302 81.4599C107.75 82.1224 107.918 82.9358 107.768 83.7217L110.031 86.9146L109.48 87.8577L107.196 84.6388Z" fill="#F6911A"/>
<path d="M109.519 88.7809L107.005 85.2346C106.955 85.2432 106.904 85.2488 106.854 85.2515C106.551 85.2472 106.254 85.1658 105.991 85.0151C105.728 84.8644 105.507 84.6493 105.35 84.39C104.887 83.7048 104.675 82.8799 104.752 82.0561L102.292 78.5911C102.149 78.7348 101.959 78.8235 101.757 78.8415C101.656 78.847 101.555 78.8267 101.464 78.7826C101.372 78.7386 101.294 78.6721 101.235 78.5894C101.153 78.4736 100.947 78.182 101.332 77.2355L101.21 77.0617C101.125 77.0807 101.038 77.0927 100.951 77.0973C99.9461 77.1499 98.7145 76.2902 97.6558 74.7966C96.9539 73.8102 96.4384 72.7037 96.1349 71.5317C95.8288 70.6108 95.8758 69.609 96.267 68.7209C96.3877 68.4996 96.5632 68.313 96.7768 68.1791C96.9904 68.0452 97.2348 67.9683 97.4866 67.9561C98.4912 67.9034 99.723 68.7641 100.782 70.2568C101.899 71.7313 102.493 73.5364 102.469 75.3865L102.502 75.4318C102.645 75.2881 102.834 75.1994 103.036 75.1815C103.138 75.176 103.238 75.1963 103.33 75.2403C103.421 75.2844 103.5 75.3509 103.558 75.4335C103.64 75.5494 103.847 75.841 103.462 76.7874L105.981 80.3414C106.055 80.3244 106.129 80.3138 106.204 80.3097C106.507 80.3141 106.804 80.3954 107.067 80.5462C107.33 80.6969 107.55 80.912 107.707 81.1713C108.193 81.883 108.402 82.7478 108.294 83.6029L110.623 86.8855L109.519 88.7809ZM105.692 81.6514L105.8 81.8099L105.764 82.0121C105.669 82.6416 105.814 83.2838 106.17 83.8113C106.235 83.9287 106.326 84.0296 106.436 84.1059C106.546 84.1823 106.673 84.2322 106.805 84.2517C106.854 84.249 106.901 84.2341 106.943 84.2084L107.331 83.9748L107.229 83.8309L107.277 83.6151C107.395 82.9668 107.257 82.2977 106.89 81.7498C106.826 81.6324 106.735 81.5316 106.625 81.4552C106.514 81.3788 106.388 81.3289 106.255 81.3094C106.197 81.3128 106.141 81.3332 106.094 81.3679L105.692 81.6514ZM97.5389 68.9547C97.4531 68.9575 97.3696 68.9837 97.2976 69.0306C97.2255 69.0774 97.1677 69.1431 97.1303 69.2204C96.6607 70.0251 97.0971 72.2754 98.4734 74.213C99.421 75.5552 100.375 76.1261 100.9 76.0985C100.981 76.0965 101.06 76.0733 101.129 76.0315L101.525 75.7834L101.416 75.6279L101.456 75.4196C101.51 73.7644 100.984 72.1423 99.9667 70.8352C99.0184 69.498 98.0642 68.9272 97.5389 68.9547Z" fill="#F6911A"/>
<path d="M109.058 89.6725L106.074 89.7885C106.007 89.4741 105.839 89.1902 105.595 88.9801C105.352 88.7699 105.047 88.645 104.726 88.6243C104.409 88.6689 104.116 88.8173 103.893 89.0462C103.67 89.275 103.528 89.5715 103.491 89.8892L99.648 90.0375C99.5701 89.3767 99.439 88.9155 99.3063 88.9225C99.1735 88.9294 99.0877 89.3984 99.0741 90.0591L98.3993 90.0852C98.1202 89.4511 97.6485 88.9209 97.0512 88.5698C96.454 88.2187 95.7613 88.0645 95.0715 88.129C94.2688 88.0875 93.4822 88.365 92.8832 88.9009C92.2842 89.4369 91.9213 90.1878 91.8736 90.9901C91.9967 91.7889 92.4268 92.508 93.0724 92.9942C93.7179 93.4805 94.5278 93.6954 95.3295 93.5932C96.0188 93.607 96.6945 93.4003 97.2581 93.0033C97.8218 92.6064 98.244 92.0398 98.4632 91.3862L99.1381 91.36C99.2159 92.0208 99.347 92.482 99.4797 92.475C99.6125 92.4681 99.6984 91.9991 99.7119 91.3384L103.58 91.1881C103.658 91.4838 103.827 91.7474 104.064 91.9409C104.3 92.1345 104.592 92.2481 104.898 92.2654C105.199 92.2257 105.481 92.0898 105.699 91.8779C105.918 91.6659 106.063 91.3892 106.112 91.0887L109.119 90.9736L109.058 89.6725Z" fill="#F6911A"/>
<path d="M109.642 91.4539L106.472 91.5769C106.377 91.8029 106.245 92.0117 106.082 92.1949C105.936 92.3639 105.758 92.5017 105.557 92.6001C105.357 92.6984 105.138 92.7553 104.915 92.7673C104.567 92.7657 104.225 92.6647 103.932 92.476C103.638 92.2873 103.405 92.0188 103.259 91.7021L100.188 91.824C100.127 92.5374 99.9742 92.7076 99.9033 92.7864C99.8523 92.8443 99.7902 92.8913 99.7207 92.9247C99.6511 92.958 99.5755 92.977 99.4985 92.9804C99.0696 92.9979 98.8642 92.6044 98.7464 92.0731C98.6154 92.3423 98.447 92.5916 98.2464 92.8138C97.8724 93.2088 97.4235 93.5255 96.9259 93.7453C96.4283 93.9652 95.892 94.0838 95.3481 94.0943C93.2409 94.1764 91.4599 92.7948 91.3765 91.0149C91.3494 90.2387 91.6312 89.4835 92.16 88.9147C92.5332 88.5195 92.9812 88.2023 93.478 87.9818C93.9748 87.7613 94.5105 87.6417 95.0539 87.6301C95.7503 87.5804 96.4474 87.7163 97.0741 88.0241C97.7008 88.3318 98.2346 88.8004 98.6209 89.3819C98.6906 88.8323 98.821 88.6874 98.8853 88.6161C98.9362 88.5582 98.9983 88.5111 99.0679 88.4778C99.1374 88.4445 99.213 88.4255 99.29 88.4221C99.7684 88.4034 99.9686 88.8985 100.08 89.5207L103.115 89.4027C103.212 89.1431 103.356 88.9037 103.54 88.6964C103.686 88.5274 103.865 88.3896 104.065 88.2912C104.266 88.1929 104.484 88.136 104.707 88.124C105.072 88.1288 105.427 88.2402 105.729 88.4446C106.031 88.649 106.267 88.9373 106.407 89.2741L109.532 89.157L109.642 91.4539ZM105.72 90.6052L108.597 90.4933L108.585 90.1881L105.717 90.2973L105.602 89.933C105.564 89.7252 105.461 89.5348 105.308 89.3886C105.155 89.2424 104.96 89.1478 104.751 89.118C104.662 89.1254 104.575 89.1506 104.495 89.1921C104.416 89.2336 104.346 89.2905 104.289 89.3596C104.137 89.5412 104.033 89.7586 103.989 89.9913L103.907 90.3695L99.5641 90.5433L98.0503 90.6L97.9287 90.2509C97.6813 89.7209 97.2759 89.2805 96.7681 88.9902C96.2603 88.7 95.6751 88.5741 95.0928 88.63C94.6829 88.6363 94.2783 88.7239 93.9025 88.8876C93.5266 89.0513 93.187 89.288 92.9032 89.5838C92.7277 89.768 92.5906 89.9852 92.5 90.2229C92.4094 90.4606 92.367 90.7139 92.3753 90.9682C92.4958 91.6319 92.868 92.2235 93.4143 92.6193C93.9605 93.0152 94.6386 93.1847 95.3069 93.0924C95.7168 93.0861 96.1214 92.9986 96.4973 92.8349C96.8731 92.6711 97.2128 92.4345 97.4965 92.1386C97.7257 91.8913 97.8897 91.591 97.974 91.2646L98.0646 90.8994L103.921 90.6718L104.045 91.0158C104.09 91.2104 104.194 91.3864 104.342 91.52C104.491 91.6537 104.677 91.7386 104.875 91.7632C104.964 91.7558 105.051 91.7306 105.13 91.6892C105.21 91.6477 105.28 91.5907 105.337 91.5216C105.476 91.3601 105.575 91.1678 105.624 90.9607L105.72 90.6052Z" fill="#F6911A"/>
</g>
<path d="M67.728 0H115.272C124.316 0.000684644 132.989 3.59337 139.385 9.988L173.01 43.613C179.406 50.0088 182.999 58.6831 183 67.728V115.272C183 119.751 182.118 124.187 180.404 128.326C178.69 132.464 176.177 136.225 173.01 139.392L139.387 173.01C132.991 179.406 124.317 182.999 115.272 183H67.728C58.6841 183 50.0107 179.407 43.615 173.013L9.99 139.387C3.59434 132.991 0.000904406 124.317 0 115.272V67.728C0.000684644 58.684 3.59337 50.0105 9.988 43.615L43.613 9.99C50.0088 3.59434 58.6831 0.000904406 67.728 0ZM115.272 180C119.358 180.011 123.406 179.211 127.181 177.647C130.957 176.083 134.384 173.786 137.266 170.889L170.889 137.27C173.787 134.388 176.085 130.959 177.649 127.183C179.213 123.406 180.012 119.357 180.001 115.27V67.728C180.012 63.6417 179.212 59.5938 177.648 55.8185C176.084 52.0433 173.787 48.6157 170.89 45.734L137.263 12.109C134.382 9.2122 130.955 6.91558 127.18 5.35203C123.405 3.78847 119.358 2.98905 115.272 3H67.728C63.6417 2.98919 59.5938 3.78886 55.8185 5.35276C52.0433 6.91665 48.6157 9.2137 45.734 12.111L12.109 45.737C9.2122 48.6183 6.91558 52.0455 5.35203 55.8202C3.78847 59.5949 2.98905 63.6423 3 67.728V115.271C2.98919 119.357 3.78886 123.405 5.35276 127.18C6.91665 130.956 9.2137 134.383 12.111 137.265L45.737 170.891C48.6183 173.788 52.0455 176.084 55.8202 177.648C59.5949 179.212 63.6423 180.011 67.728 180H115.272Z" fill="#F6911A"/>
</svg>
