<svg xmlns="http://www.w3.org/2000/svg" xmlns:xlink="http://www.w3.org/1999/xlink" width="180" height="57.314" viewBox="0 0 180 57.314"><defs><linearGradient id="a" x1="0.309" y1="0.04" x2="0.69" y2="0.962" gradientUnits="objectBoundingBox"><stop offset="0" stop-color="#f88136"/><stop offset="0.171" stop-color="#3def65"/><stop offset="0.485" stop-color="#df3def"/><stop offset="0.904" stop-color="#3dc9ef"/><stop offset="1" stop-color="#f88136"/></linearGradient></defs><g transform="translate(-172.907 -715)"><g transform="translate(172.907 715)"><g transform="translate(90.475)"><path d="M27.2,0a7.8,7.8,0,0,1,5.512,2.283l8.04,8.04a7.8,7.8,0,0,1,2.284,5.512V27.2a7.8,7.8,0,0,1-2.284,5.513l-8.039,8.038A7.8,7.8,0,0,1,27.2,43.038H15.835a7.8,7.8,0,0,1-5.512-2.283l-8.04-8.04A7.8,7.8,0,0,1,0,27.2V15.835a7.8,7.8,0,0,1,2.283-5.512l8.04-8.04A7.8,7.8,0,0,1,15.835,0Z" fill="#4b4b4c"/><g transform="translate(6.259 3.286)"><path d="M174.269-144.535l-13.2-27.473a2.292,2.292,0,0,0-2.009-1.45,3.48,3.48,0,0,0-1.217.421l1.217,2.241,12.49,26.261Z" transform="translate(-143.757 173.458)" fill="#f88136"/><path d="M162.839-144.535l13.2-27.473a2.292,2.292,0,0,1,2.009-1.45,3.48,3.48,0,0,1,1.217.421l-1.217,2.241-12.49,26.261Z" transform="translate(-162.839 173.458)" fill="#f88136"/></g><path d="M9.982-5v0H10.9v.458H9.982q-.137,0-.273.005l-.018-.458Q9.836-5,9.982-5Zm1.832,0h.916v.458h-.916Zm1.832,0h.916v.458h-.916Zm1.832,0h.916v.458h-.916ZM17.31-5h.916v.458H17.31Zm1.832,0h.916v.458h-.916Zm1.845.011a7.515,7.515,0,0,1,.938.112l-.083.451a7.054,7.054,0,0,0-.88-.1ZM8.751-4.9l.075.452a7.06,7.06,0,0,0-.864.2l-.132-.439A7.519,7.519,0,0,1,8.751-4.9Zm14.09.25a7.523,7.523,0,0,1,.88.342l-.193.416a7.063,7.063,0,0,0-.826-.321Zm-15.9.291.186.419a7.062,7.062,0,0,0-.786.41l-.237-.392A7.52,7.52,0,0,1,6.946-4.357Zm17.606.5a7.518,7.518,0,0,1,.767.551l-.29.354a7.057,7.057,0,0,0-.72-.517ZM5.332-3.383l.284.359a7.063,7.063,0,0,0-.608.542l-.053.053-.324-.324.053-.053A7.524,7.524,0,0,1,5.332-3.383Zm20.675.715.648.648-.324.324-.648-.648ZM3.984-2.105l.324.324-.648.648-.324-.324ZM27.3-1.372l.648.648L27.627-.4l-.648-.648ZM2.688-.81l.324.324L2.365.162,2.041-.162ZM28.6-.077l.648.648-.324.324L28.275.247ZM1.393.486,1.717.81l-.648.648L.745,1.134Zm28.5.733.648.648-.324.324-.648-.648ZM.1,1.781l.324.324-.648.648L-.55,2.429Zm31.092.733.648.648-.324.324-.648-.648ZM-1.2,3.077l.324.324-.648.648-.324-.324Zm33.683.733.648.648-.324.324-.648-.648Zm-34.979.563.324.324-.312.312q-.163.163-.314.335l-.344-.3q.161-.183.335-.357Zm36.269.763a7.518,7.518,0,0,1,.564.757l-.384.25a7.06,7.06,0,0,0-.53-.711ZM-3.717,5.79l.38.256a7.06,7.06,0,0,0-.449.765L-4.2,6.6A7.52,7.52,0,0,1-3.717,5.79ZM34.8,6.715a7.523,7.523,0,0,1,.357.874l-.434.146a7.064,7.064,0,0,0-.336-.821Zm-39.372.757.432.153a7.06,7.06,0,0,0-.244.852l-.447-.1A7.521,7.521,0,0,1-4.567,7.472ZM35.407,8.5a7.519,7.519,0,0,1,.128.936l-.457.033a7.059,7.059,0,0,0-.12-.878ZM-4.97,9.314l.456.041q-.028.312-.028.627v.267H-5V9.982Q-5,9.646-4.97,9.314ZM35.1,10.369h.458v.916H35.1Zm-40.1.8h.458v.916H-5ZM35.1,12.2h.458v.916H35.1ZM-5,13h.458v.916H-5Zm40.1,1.036h.458v.916H35.1Zm-40.1.8h.458v.916H-5Zm40.1,1.036h.458v.916H35.1Zm-40.1.8h.458v.916H-5ZM35.1,17.7h.458v.916H35.1Zm-40.1.8h.458v.916H-5ZM35.1,19.53h.458v.916H35.1Zm-40.1.8h.458v.246c0,.215.01.433.03.648l-.456.042c-.021-.228-.032-.46-.032-.69Zm40.055,1.01.455.05a7.519,7.519,0,0,1-.161.93l-.445-.107A7.059,7.059,0,0,0,35.055,21.336Zm-39.43.76a7.061,7.061,0,0,0,.246.852l-.431.155a7.521,7.521,0,0,1-.262-.907Zm39.018.961.429.162a7.523,7.523,0,0,1-.388.861l-.4-.214A7.063,7.063,0,0,0,34.643,23.057Zm-38.42.7a7.06,7.06,0,0,0,.451.763l-.379.257a7.518,7.518,0,0,1-.48-.813Zm37.592.859.375.264a7.517,7.517,0,0,1-.591.737l-.338-.309A7.058,7.058,0,0,0,33.815,24.621Zm-36.6.6q.145.164.3.32l.327.327-.324.324-.327-.327q-.166-.166-.321-.341Zm35.408.732.324.324-.648.648-.324-.324Zm-34.132.563.648.648-.324.324-.648-.648Zm32.836.733.324.324-.648.648-.324-.324Zm-31.541.563.648.648-.324.324-.648-.648Zm30.245.733.324.324-.648.648-.324-.324Zm-28.95.563.648.648-.324.324L.76,29.435Zm27.654.733.324.324-.648.648-.324-.324Zm-26.359.563.648.648-.324.324-.648-.648Zm25.063.733.324.324-.648.648-.324-.324ZM3.675,31.7l.648.648L4,32.674l-.648-.648Zm22.472.733.324.324-.65.649-.321-.327.046-.045ZM4.971,33l.038.038a7.062,7.062,0,0,0,.624.554l-.283.36a7.523,7.523,0,0,1-.665-.59l-.038-.038Zm19.859.663.277.365a7.518,7.518,0,0,1-.786.523l-.229-.4A7.059,7.059,0,0,0,24.83,33.661Zm-18.467.432a7.064,7.064,0,0,0,.787.407l-.184.419a7.523,7.523,0,0,1-.839-.434Zm16.935.453.177.422a7.521,7.521,0,0,1-.892.31l-.123-.441A7.064,7.064,0,0,0,23.3,34.547Zm-15.315.259a7.058,7.058,0,0,0,.864.2l-.074.452a7.518,7.518,0,0,1-.92-.211Zm13.61.216.066.453a7.52,7.52,0,0,1-.941.078l-.009-.458A7.06,7.06,0,0,0,21.593,35.022Zm-11.864.07q.126,0,.253,0h.655v.458H9.982q-.135,0-.269,0Zm1.824,0h.916v.458h-.916Zm1.832,0H14.3v.458h-.916Zm1.832,0h.916v.458h-.916Zm1.832,0h.916v.458h-.916Zm1.832,0H19.8v.458h-.916Z" transform="translate(6.252 6.252)" fill="url(#a)"/><g transform="translate(14.395 18.441)"><path d="M.548,0A.571.571,0,0,1,1.1.591V5.679a.571.571,0,0,1-.548.591A.571.571,0,0,1,0,5.679V.591A.571.571,0,0,1,.548,0Z" transform="translate(6.516 0)" fill="#3def65"/><circle cx="1.912" cy="1.912" r="1.912" transform="translate(5.23 5.51)" fill="#3def65"/><path d="M.556,0a.621.621,0,0,1,.6.583L1.328,5.43a.523.523,0,0,1-.556.542.621.621,0,0,1-.6-.583L0,.543A.523.523,0,0,1,.556,0Z" transform="translate(12.518 2.559) rotate(54)" fill="#3def65"/><path d="M.556,5.972a.621.621,0,0,0,.6-.583L1.328.543A.523.523,0,0,0,.773,0a.621.621,0,0,0-.6.583L0,5.43A.523.523,0,0,0,.556,5.972Z" transform="matrix(-0.588, 0.809, -0.809, -0.588, 6.429, 6.07)" fill="#3def65"/><path d="M.58,5.834a.592.592,0,0,0,.6-.559L1.253.541A.55.55,0,0,0,.673,0a.592.592,0,0,0-.6.559L0,5.293A.55.55,0,0,0,.58,5.834Z" transform="translate(8.208 8.245) rotate(-78)" fill="#3def65"/><path d="M.54,6.176a.614.614,0,0,0,.574-.6L1.263.565A.53.53,0,0,0,.724,0,.614.614,0,0,0,.15.6L0,5.612A.53.53,0,0,0,.54,6.176Z" transform="matrix(0.891, -0.454, 0.454, 0.891, 7.027, 8.656)" fill="#3def65"/><path d="M.58,0a.592.592,0,0,1,.6.559l.075,4.734a.55.55,0,0,1-.58.541.592.592,0,0,1-.6-.559L0,.541A.55.55,0,0,1,.58,0Z" transform="matrix(-0.208, -0.978, 0.978, -0.208, 0.261, 9.458)" fill="#3def65"/><path d="M.54,0a.614.614,0,0,1,.574.6l.15,5.012a.53.53,0,0,1-.539.565.614.614,0,0,1-.574-.6L0,.565A.53.53,0,0,1,.54,0Z" transform="matrix(-0.891, -0.454, 0.454, -0.891, 4.443, 14.176)" fill="#3def65"/><path d="M5.132,1.215A3.939,3.939,0,1,0,9.054,5.154,3.935,3.935,0,0,0,5.132,1.215M5.132,0A5.154,5.154,0,1,1,0,5.154,5.143,5.143,0,0,1,5.132,0Z" transform="translate(2.008 2.245)" fill="#3def65"/></g><path d="M52.058-161.523v-5.595H49.38v5.595Z" transform="translate(-29.196 201.06)" fill="#f88136"/></g><g transform="translate(0 0.072)"><g transform="translate(136.809 19.558)"><path d="M-2.057-81.163Q-.36-81.678.837-82t2.008-.5q.811-.182,1.273-.25a5.209,5.209,0,0,1,.689-.068,2.192,2.192,0,0,1,.712.114,1.392,1.392,0,0,1,.583.386,1.841,1.841,0,0,1,.386.735,4.1,4.1,0,0,1,.136,1.144q0,.227-.023.894T6.519-77.7q-.061,1.174-.159,2.879t-.25,4.008l.182.015A35.969,35.969,0,0,1,8.845-76a24.122,24.122,0,0,1,2.788-3.811,11.776,11.776,0,0,1,2.826-2.341,5.474,5.474,0,0,1,2.682-.8,4.08,4.08,0,0,1,1.818.386,4.515,4.515,0,0,1,1.371,1.03,5.961,5.961,0,0,1,.977,1.485,10.4,10.4,0,0,1,.636,1.758,12.919,12.919,0,0,1,.348,1.856,15.719,15.719,0,0,1,.106,1.758,18.23,18.23,0,0,1-.455,4.167A16.821,16.821,0,0,1,20.7-66.958a13.879,13.879,0,0,1-1.864,2.886,12.15,12.15,0,0,1-2.326,2.144,10.357,10.357,0,0,1-2.621,1.333,8.564,8.564,0,0,1-2.75.462,7.99,7.99,0,0,1-2.864-.53A7.487,7.487,0,0,1,5.656-62.42q-.167,3.8-.333,7.856T5.141-46.1l-3.182.364-.318-.015q.227-2.833.424-5.947t.364-6.25q.167-3.136.3-6.174t.227-5.7Q3.05-72.5,3.1-74.671t.053-3.6A7.342,7.342,0,0,0,3.1-79.277,1.888,1.888,0,0,0,2.86-80a1.07,1.07,0,0,0-.508-.432,2.247,2.247,0,0,0-.879-.144,9.373,9.373,0,0,0-1.364.121q-.8.121-1.939.409ZM5.792-64.072A9.512,9.512,0,0,0,8.36-62.465a6.833,6.833,0,0,0,2.568.515,6.868,6.868,0,0,0,3.129-.72,6.862,6.862,0,0,0,2.47-2.144,10.878,10.878,0,0,0,1.621-3.523,18.267,18.267,0,0,0,.583-4.871,14.7,14.7,0,0,0-.159-2.121,9.2,9.2,0,0,0-.5-1.977,4.231,4.231,0,0,0-.894-1.455,1.8,1.8,0,0,0-1.341-.568A3.909,3.909,0,0,0,14-78.853a7.971,7.971,0,0,0-1.765,1.288,13.464,13.464,0,0,0-1.644,1.9A25.834,25.834,0,0,0,9.11-73.352a27.926,27.926,0,0,0-1.273,2.515q-.576,1.3-1.008,2.523T6.133-66A13.435,13.435,0,0,0,5.792-64.072ZM28.081-66.42a4.57,4.57,0,0,0,.614,1.985,4.574,4.574,0,0,0,1.25,1.364,5.319,5.319,0,0,0,1.644.788,6.51,6.51,0,0,0,1.8.258,5.663,5.663,0,0,0,1.606-.227,4.488,4.488,0,0,0,1.364-.652A3.286,3.286,0,0,0,37.3-63.95a2.753,2.753,0,0,0,.356-1.394,2.6,2.6,0,0,0-.379-1.409,4.338,4.338,0,0,0-1.015-1.106,8.8,8.8,0,0,0-1.477-.924q-.841-.424-1.75-.864-.8-.379-1.614-.765t-1.568-.841a12.585,12.585,0,0,1-1.417-.985,6.835,6.835,0,0,1-1.152-1.174,5.193,5.193,0,0,1-.773-1.439,5.283,5.283,0,0,1-.28-1.765,4.984,4.984,0,0,1,.364-1.924,5.544,5.544,0,0,1,.992-1.583,7.025,7.025,0,0,1,1.455-1.235,9.462,9.462,0,0,1,1.765-.886,10.62,10.62,0,0,1,1.932-.53,11.165,11.165,0,0,1,1.932-.174,9.628,9.628,0,0,1,2.3.265,6.42,6.42,0,0,1,1.894.773,4.135,4.135,0,0,1,1.288,1.235,2.917,2.917,0,0,1,.477,1.636,2.679,2.679,0,0,1-.121.758,2.209,2.209,0,0,1-.409.765,2.331,2.331,0,0,1-.758.6,2.619,2.619,0,0,1-1.152.258,4.9,4.9,0,0,1-1.333-.2l-.045-.152a4.919,4.919,0,0,0,.3-.894,3.508,3.508,0,0,0,.091-.758,2.048,2.048,0,0,0-.356-1.174,2.756,2.756,0,0,0-.856-.78,3.847,3.847,0,0,0-1.144-.439,5.815,5.815,0,0,0-1.235-.136,5.973,5.973,0,0,0-1.924.288,4.541,4.541,0,0,0-1.432.765,3.409,3.409,0,0,0-.894,1.083,2.724,2.724,0,0,0-.311,1.258,2.629,2.629,0,0,0,.439,1.492,5.065,5.065,0,0,0,1.167,1.212,11.175,11.175,0,0,0,1.674,1.038q.947.485,1.977.97,1.152.545,2.288,1.129a11.091,11.091,0,0,1,2.03,1.326,6.267,6.267,0,0,1,1.447,1.7,4.468,4.468,0,0,1,.553,2.265,5.509,5.509,0,0,1-.689,2.773A6.418,6.418,0,0,1,38.1-61.844a8.493,8.493,0,0,1-2.644,1.265,11.092,11.092,0,0,1-3.1.432,11.834,11.834,0,0,1-1.659-.121,11.132,11.132,0,0,1-1.659-.364,9.841,9.841,0,0,1-1.523-.6,6,6,0,0,1-1.258-.818,3.7,3.7,0,0,1-.849-1.03,2.563,2.563,0,0,1-.311-1.25,1.884,1.884,0,0,1,.25-1A2.028,2.028,0,0,1,26.005-66a3.171,3.171,0,0,1,.917-.386,4.76,4.76,0,0,1,1.038-.144Z" transform="translate(2.329 83.186)" fill="#4b4b4c"/><path d="M15.672-84.451a4.33,4.33,0,0,1,1.922.41,4.769,4.769,0,0,1,1.442,1.083,6.222,6.222,0,0,1,1.016,1.543,10.689,10.689,0,0,1,.651,1.8,13.215,13.215,0,0,1,.355,1.89,16.027,16.027,0,0,1,.108,1.784,18.549,18.549,0,0,1-.461,4.22,17.134,17.134,0,0,1-1.26,3.6,14.178,14.178,0,0,1-1.9,2.935A12.441,12.441,0,0,1,15.178-63,10.64,10.64,0,0,1,12.5-61.637a8.838,8.838,0,0,1-2.825.474,8.261,8.261,0,0,1-2.947-.546A7.492,7.492,0,0,1,4.4-63.161c-.1,2.368-.208,4.835-.311,7.342-.11,2.687-.172,5.531-.182,8.454v.209L.5-46.768-.082-46.8l.019-.242c.151-1.879.293-3.878.424-5.943s.253-4.167.364-6.248.213-4.158.3-6.173.167-3.934.227-5.7.109-3.4.144-4.839.053-2.65.053-3.593a7.145,7.145,0,0,0-.058-.975,1.667,1.667,0,0,0-.2-.631.834.834,0,0,0-.4-.338A2.033,2.033,0,0,0,.005-81.6a9.189,9.189,0,0,0-1.329.119c-.525.079-1.17.215-1.917.4l-.239.06L-3.8-82.591l.2-.062c1.129-.343,2.1-.624,2.9-.836s1.476-.381,2.017-.5.978-.207,1.29-.253a5.362,5.362,0,0,1,.724-.071,2.436,2.436,0,0,1,.788.126,1.631,1.631,0,0,1,.681.45,2.08,2.08,0,0,1,.438.827,4.349,4.349,0,0,1,.146,1.21c0,.156-.007.451-.023.9s-.043,1.065-.084,1.845-.094,1.748-.159,2.88c-.053.909-.117,1.959-.193,3.129a35.093,35.093,0,0,1,2.243-4.446,24.469,24.469,0,0,1,2.816-3.848,12.063,12.063,0,0,1,2.884-2.387,6.929,6.929,0,0,1,1.424-.617A4.84,4.84,0,0,1,15.672-84.451Zm-6,22.819a8.37,8.37,0,0,0,2.675-.45,10.171,10.171,0,0,0,2.562-1.3,11.972,11.972,0,0,0,2.281-2.1,13.709,13.709,0,0,0,1.832-2.838,16.665,16.665,0,0,0,1.225-3.5,18.081,18.081,0,0,0,.448-4.113,15.559,15.559,0,0,0-.1-1.731,12.744,12.744,0,0,0-.342-1.822,10.217,10.217,0,0,0-.622-1.718,5.754,5.754,0,0,0-.939-1.427,4.3,4.3,0,0,0-1.3-.977,3.867,3.867,0,0,0-1.715-.362,5.271,5.271,0,0,0-2.567.765,11.6,11.6,0,0,0-2.768,2.3,24,24,0,0,0-2.76,3.774,35.9,35.9,0,0,0-2.536,5.171l-.065.161-.584-.049.015-.23c.1-1.527.185-2.875.25-4.006s.119-2.1.159-2.877.068-1.4.083-1.837.023-.738.023-.886A3.891,3.891,0,0,0,4.8-82.779a1.621,1.621,0,0,0-.334-.643,1.151,1.151,0,0,0-.486-.323,1.969,1.969,0,0,0-.636-.1,5.033,5.033,0,0,0-.655.066c-.3.044-.723.127-1.256.247s-1.208.288-2,.5c-.743.2-1.645.456-2.682.769l.136.671c.661-.162,1.24-.281,1.723-.354a9.646,9.646,0,0,1,1.4-.124,2.449,2.449,0,0,1,.972.163,1.3,1.3,0,0,1,.615.526,2.127,2.127,0,0,1,.266.809,7.608,7.608,0,0,1,.063,1.04c0,.947-.018,2.16-.053,3.6s-.084,3.073-.144,4.843S1.588-67.4,1.5-65.379s-.192,4.094-.3,6.176S.961-55.017.83-52.95c-.125,1.979-.261,3.9-.405,5.709l.057,0,2.956-.338c.012-2.855.073-5.634.181-8.263.111-2.689.223-5.332.333-7.857l.023-.533.377.377a7.289,7.289,0,0,0,2.539,1.7A7.793,7.793,0,0,0,9.672-61.632ZM33.2-84.451a9.908,9.908,0,0,1,2.351.272,6.683,6.683,0,0,1,1.963.8,4.387,4.387,0,0,1,1.36,1.305,3.161,3.161,0,0,1,.516,1.765,2.925,2.925,0,0,1-.131.824,2.453,2.453,0,0,1-.452.846,2.574,2.574,0,0,1-.832.66,2.861,2.861,0,0,1-1.254.284h-.005a5.158,5.158,0,0,1-1.4-.206l-.124-.035-.107-.357.035-.079a4.709,4.709,0,0,0,.289-.851,3.3,3.3,0,0,0,.085-.7,1.827,1.827,0,0,0-.312-1.04,2.535,2.535,0,0,0-.784-.714,3.631,3.631,0,0,0-1.075-.412,5.607,5.607,0,0,0-1.185-.131,5.768,5.768,0,0,0-1.849.275,4.33,4.33,0,0,0-1.359.725,3.192,3.192,0,0,0-.834,1.009,2.5,2.5,0,0,0-.285,1.151,2.411,2.411,0,0,0,.4,1.362,4.855,4.855,0,0,0,1.113,1.156,10.994,10.994,0,0,0,1.639,1.016c.626.321,1.289.646,1.97.966.767.363,1.539.744,2.3,1.132a11.377,11.377,0,0,1,2.073,1.354,6.529,6.529,0,0,1,1.5,1.768,4.719,4.719,0,0,1,.584,2.382,6.353,6.353,0,0,1-.179,1.53,5.366,5.366,0,0,1-.541,1.359,6.681,6.681,0,0,1-1.907,2.12,8.766,8.766,0,0,1-2.716,1.3,11.379,11.379,0,0,1-3.164.441,12.125,12.125,0,0,1-1.692-.124,11.42,11.42,0,0,1-1.694-.371,10.121,10.121,0,0,1-1.559-.613,6.265,6.265,0,0,1-1.306-.851,3.947,3.947,0,0,1-.9-1.1,2.807,2.807,0,0,1-.339-1.363,2.122,2.122,0,0,1,.284-1.122,2.27,2.27,0,0,1,.734-.743,3.42,3.42,0,0,1,.984-.415,5.017,5.017,0,0,1,1.089-.151l.092,0,.261.228.009.093a4.36,4.36,0,0,0,.58,1.884,4.361,4.361,0,0,0,1.186,1.295,5.11,5.11,0,0,0,1.572.753,6.306,6.306,0,0,0,1.731.249,5.454,5.454,0,0,0,1.54-.218,4.275,4.275,0,0,0,1.293-.617,3.069,3.069,0,0,0,.88-.972,2.534,2.534,0,0,0,.325-1.277,2.384,2.384,0,0,0-.343-1.285,4.125,4.125,0,0,0-.961-1.046,8.607,8.607,0,0,0-1.438-.9c-.556-.281-1.144-.571-1.746-.862-.534-.252-1.076-.509-1.613-.765s-1.079-.546-1.588-.852a12.877,12.877,0,0,1-1.443-1,7.1,7.1,0,0,1-1.191-1.215,5.451,5.451,0,0,1-.808-1.5,5.54,5.54,0,0,1-.294-1.843A5.24,5.24,0,0,1,24.91-79.9a5.8,5.8,0,0,1,1.034-1.65,7.292,7.292,0,0,1,1.5-1.276,9.742,9.742,0,0,1,1.809-.908,10.906,10.906,0,0,1,1.974-.542A11.453,11.453,0,0,1,33.2-84.451Zm3.513,6.288a2.4,2.4,0,0,0,1.047-.231,2.109,2.109,0,0,0,.683-.538,1.986,1.986,0,0,0,.367-.684,2.459,2.459,0,0,0,.112-.691,2.7,2.7,0,0,0-.439-1.508,3.922,3.922,0,0,0-1.216-1.165,6.216,6.216,0,0,0-1.825-.744,9.438,9.438,0,0,0-2.24-.258,10.982,10.982,0,0,0-1.891.171,10.436,10.436,0,0,0-1.889.519,9.272,9.272,0,0,0-1.722.864,6.824,6.824,0,0,0-1.406,1.194,5.335,5.335,0,0,0-.951,1.517A4.774,4.774,0,0,0,25-77.883a5.074,5.074,0,0,0,.267,1.687A4.983,4.983,0,0,0,26-74.821a6.632,6.632,0,0,0,1.112,1.134,12.407,12.407,0,0,0,1.39.966c.5.3,1.017.577,1.548.83s1.079.513,1.613.765h0c.6.292,1.195.583,1.754.865a9.075,9.075,0,0,1,1.517.949,4.592,4.592,0,0,1,1.069,1.166,2.845,2.845,0,0,1,.414,1.534,3,3,0,0,1-.387,1.511,3.535,3.535,0,0,1-1.014,1.119,4.743,4.743,0,0,1-1.434.686,5.923,5.923,0,0,1-1.672.237,6.775,6.775,0,0,1-1.86-.267,5.578,5.578,0,0,1-1.716-.823,4.828,4.828,0,0,1-1.314-1.433,4.765,4.765,0,0,1-.636-1.974,4.538,4.538,0,0,0-.879.132,2.952,2.952,0,0,0-.849.358,1.8,1.8,0,0,0-.584.59,1.663,1.663,0,0,0-.216.878,2.343,2.343,0,0,0,.282,1.137,3.48,3.48,0,0,0,.8.965,5.8,5.8,0,0,0,1.209.786,9.65,9.65,0,0,0,1.487.584,10.949,10.949,0,0,0,1.624.356,11.655,11.655,0,0,0,1.626.119,10.909,10.909,0,0,0,3.033-.423A8.3,8.3,0,0,0,36.49-63.3a6.215,6.215,0,0,0,1.775-1.971,5.3,5.3,0,0,0,.659-2.657,4.257,4.257,0,0,0-.522-2.148,6.062,6.062,0,0,0-1.394-1.641,10.908,10.908,0,0,0-1.988-1.3c-.752-.386-1.52-.765-2.281-1.126-.685-.323-1.353-.65-1.984-.973a11.462,11.462,0,0,1-1.709-1.06,5.322,5.322,0,0,1-1.22-1.269,2.872,2.872,0,0,1-.479-1.623,2.969,2.969,0,0,1,.336-1.365,3.657,3.657,0,0,1,.954-1.158,4.794,4.794,0,0,1,1.505-.806,6.234,6.234,0,0,1,2-.3,6.077,6.077,0,0,1,1.285.142,4.1,4.1,0,0,1,1.213.466,3,3,0,0,1,.928.846,2.286,2.286,0,0,1,.4,1.306v.005a3.759,3.759,0,0,1-.1.809,4.966,4.966,0,0,1-.264.811A4.578,4.578,0,0,0,36.716-78.163ZM14.369-80.83a2.036,2.036,0,0,1,1.509.639,4.482,4.482,0,0,1,.945,1.534,9.479,9.479,0,0,1,.513,2.028,15,15,0,0,1,.162,2.155,22.278,22.278,0,0,1-.148,2.632,15.535,15.535,0,0,1-.444,2.3,13.132,13.132,0,0,1-.71,1.965,9.568,9.568,0,0,1-.948,1.633,7.734,7.734,0,0,1-1.172,1.287,6.7,6.7,0,0,1-1.382.928,6.9,6.9,0,0,1-1.551.559,7.522,7.522,0,0,1-1.683.186A7.1,7.1,0,0,1,6.8-63.513a9.789,9.789,0,0,1-2.632-1.645l-.093-.079.011-.121a13.73,13.73,0,0,1,.347-1.959c.178-.731.415-1.519.7-2.341s.63-1.675,1.015-2.54a28.291,28.291,0,0,1,1.283-2.536,26.192,26.192,0,0,1,1.5-2.332A13.761,13.761,0,0,1,10.609-79a8.242,8.242,0,0,1,1.818-1.325A4.159,4.159,0,0,1,14.369-80.83ZM9.46-63.45a6.667,6.667,0,0,0,3.024-.695,6.661,6.661,0,0,0,2.386-2.073,10.7,10.7,0,0,0,1.585-3.448,18.12,18.12,0,0,0,.575-4.809,14.529,14.529,0,0,0-.157-2.087,9.01,9.01,0,0,0-.487-1.927,4.019,4.019,0,0,0-.843-1.375,1.563,1.563,0,0,0-1.173-.5,3.7,3.7,0,0,0-1.724.45,7.774,7.774,0,0,0-1.713,1.251,13.292,13.292,0,0,0-1.615,1.869A25.723,25.723,0,0,0,7.846-74.5a27.822,27.822,0,0,0-1.262,2.494c-.38.854-.716,1.7-1,2.505s-.516,1.579-.69,2.3a13.725,13.725,0,0,0-.323,1.769,9.215,9.215,0,0,0,2.41,1.489A6.631,6.631,0,0,0,9.46-63.45Z" transform="translate(3.798 84.451)" fill="#4b4b4c"/></g><path d="M15.151-137.6c0-.488-.023-1.381-.07-1.729a1.764,1.764,0,0,0-.319-.849,1.4,1.4,0,0,0-.709-.475,4.106,4.106,0,0,0-1.223-.148q-.514,0-1.262.055t-1.558.179l-.156-1.293q2.291-.592,3.934-.873a16.759,16.759,0,0,1,2.719-.28,3.667,3.667,0,0,1,1.582.273,1.7,1.7,0,0,1,.81.81,3.537,3.537,0,0,1,.3,1.317q.047.779.047,1.776,0,.343-.039,1.831t-.109,3.818q-.07,2.33-.164,5.352t-.195,6.428q-.1,3.4-.21,7.035t-.218,7.183l-3.693.467-.28.127c.125-2.981.236-5.963.335-8.627s.184-5.256.257-7.775.127-5.012.164-7.479S15.151-135,15.151-137.6Zm12.557,12.49a5.233,5.233,0,0,0-.093-1.075,1.745,1.745,0,0,0-.288-.693,1.069,1.069,0,0,0-.491-.366,2.029,2.029,0,0,0-.7-.109,6.986,6.986,0,0,0-1.34.156q-.779.156-1.776.421l-.234-1.122q1.106-.39,2.127-.709t1.878-.553q.857-.234,1.511-.358a5.856,5.856,0,0,1,1.028-.125,1.843,1.843,0,0,1,1.41.538,2.671,2.671,0,0,1,.506,1.846q0,.156-.031.725t-.086,1.441q-.055.873-.132,2t-.179,2.407q-.1,1.278-.226,2.641t-.265,2.719l.093.016a43.551,43.551,0,0,1,2.54-6.786,23.569,23.569,0,0,1,2.758-4.488,9.912,9.912,0,0,1,2.789-2.485,5.5,5.5,0,0,1,2.649-.764,4.453,4.453,0,0,1,1.683.327,3.816,3.816,0,0,1,1.441,1.044,5.258,5.258,0,0,1,1.005,1.846,8.762,8.762,0,0,1,.374,2.735q0,.467-.055,1.254t-.132,1.753q-.078.966-.179,2.049t-.179,2.127q-.078,1.044-.132,1.987t-.055,1.644a15.615,15.615,0,0,0,.1,1.979,3.67,3.67,0,0,0,.335,1.208,1.26,1.26,0,0,0,.623.608,2.455,2.455,0,0,0,.951.164,6.708,6.708,0,0,0,1.683-.226,10.719,10.719,0,0,0,1.761-.631l.3.81a9.612,9.612,0,0,1-1.418.919,18.545,18.545,0,0,1-1.8.857,14.247,14.247,0,0,1-1.878.631,6.705,6.705,0,0,1-1.652.242,1.862,1.862,0,0,1-1.324-.452,2.765,2.765,0,0,1-.725-1.231,8,8,0,0,1-.312-1.823q-.07-1.044-.07-2.244,0-1.465.1-3.015t.226-2.953q.125-1.4.226-2.548t.1-1.831a4.306,4.306,0,0,0-.686-2.688,2.21,2.21,0,0,0-1.823-.865,3.175,3.175,0,0,0-1.9.764,10.5,10.5,0,0,0-1.987,2.1,21.352,21.352,0,0,0-1.9,3.148,32.419,32.419,0,0,0-1.644,3.927A35.969,35.969,0,0,0,31-111.8a30.5,30.5,0,0,0-.608,4.612l-3.257.405-.249-.016q.125-1.48.234-3.226t.2-3.545q.093-1.8.164-3.568t.125-3.3q.055-1.535.078-2.75T27.708-125.108ZM60.2-141.035q-.654,2.961-1.1,6.116t-.756,6.225q.732.031,1.426.047l1.293.031q.6.016,1.091.016h.818a12.857,12.857,0,0,0,2.322-.171q.078.265.125.483a1.942,1.942,0,0,1,.047.405A.843.843,0,0,1,64.9-127a5.142,5.142,0,0,1-1.644.2q-1.028,0-2.3-.125t-2.781-.234q-.171,1.667-.288,3.249t-.187,2.984q-.07,1.4-.1,2.6t-.031,2.088a23.125,23.125,0,0,0,.171,2.976,7.365,7.365,0,0,0,.608,2.22,3.271,3.271,0,0,0,1.2,1.395,3.553,3.553,0,0,0,1.932.483,6.9,6.9,0,0,0,1.878-.3,14.345,14.345,0,0,0,2.361-.951,1.649,1.649,0,0,1,.483,1.028q-.966.639-1.948,1.161a18.717,18.717,0,0,1-1.932.9,12.817,12.817,0,0,1-1.839.577,7.577,7.577,0,0,1-1.683.2,4.675,4.675,0,0,1-1.909-.382,3.485,3.485,0,0,1-1.5-1.356,7.848,7.848,0,0,1-.982-2.626,20.635,20.635,0,0,1-.351-4.176q0-1.418.047-2.922t.125-3.046q.078-1.543.2-3.085t.28-3.039q-1.231.016-2.283.1a11.323,11.323,0,0,0-1.8.273.482.482,0,0,1-.047-.218.83.83,0,0,1,.319-.615,3.058,3.058,0,0,1,.888-.522,7.322,7.322,0,0,1,1.363-.39,13.785,13.785,0,0,1,1.745-.218q.358-3.257.764-6.155t.81-5.173a1.52,1.52,0,0,1,.288-.67,1.643,1.643,0,0,1,.491-.421,2.021,2.021,0,0,1,.608-.218,3.412,3.412,0,0,1,.639-.062,3.632,3.632,0,0,1,.927.109A3.243,3.243,0,0,1,60.2-141.035Zm23.391,28.858q.094.047.242.132a2.1,2.1,0,0,1,.273.187,1.444,1.444,0,0,1,.218.218.366.366,0,0,1,.093.226.207.207,0,0,1-.047.125,12.855,12.855,0,0,1-1.878,2.111,11.563,11.563,0,0,1-2.088,1.5,9.34,9.34,0,0,1-2.2.888,8.867,8.867,0,0,1-2.213.288,7.685,7.685,0,0,1-3.428-.764,8.21,8.21,0,0,1-2.68-2.088,9.824,9.824,0,0,1-1.753-3.109,11.389,11.389,0,0,1-.631-3.825,15.5,15.5,0,0,1,.366-3.335,15.65,15.65,0,0,1,1.06-3.179,14.646,14.646,0,0,1,1.691-2.813,11.82,11.82,0,0,1,2.267-2.259,10.48,10.48,0,0,1,2.789-1.5,9.591,9.591,0,0,1,3.264-.545,7.642,7.642,0,0,1,2.2.312,5.844,5.844,0,0,1,1.831.9,4.4,4.4,0,0,1,1.254,1.441,4,4,0,0,1,.467,1.948,4.079,4.079,0,0,1-1.036,2.774,8.252,8.252,0,0,1-2.859,2.01,20.33,20.33,0,0,1-4.293,1.332,46.8,46.8,0,0,1-5.337.756v.265a12.4,12.4,0,0,0,.506,3.646,9.052,9.052,0,0,0,1.395,2.828,6.521,6.521,0,0,0,2.088,1.831,5.317,5.317,0,0,0,2.587.654,6.722,6.722,0,0,0,2.875-.693A10.5,10.5,0,0,0,83.588-112.177ZM80.658-124.69a3.677,3.677,0,0,0-.242-1.34,3.338,3.338,0,0,0-.67-1.083,3.121,3.121,0,0,0-1.021-.725,3.093,3.093,0,0,0-1.278-.265,4.572,4.572,0,0,0-1.839.358,5.119,5.119,0,0,0-1.48.974,6.843,6.843,0,0,0-1.153,1.434,10.557,10.557,0,0,0-.849,1.737,13.838,13.838,0,0,0-.569,1.885,15.837,15.837,0,0,0-.312,1.885,27.99,27.99,0,0,0,3.966-.538,12.825,12.825,0,0,0,2.961-.982,5.168,5.168,0,0,0,1.846-1.434A3.054,3.054,0,0,0,80.658-124.69ZM93.82-149.011q-.312,2.649-.615,5.43t-.577,5.625q-.273,2.844-.506,5.711t-.405,5.649q-.171,2.781-.265,5.462t-.093,5.142q0,1.543.039,2.649t.125,1.87a6.671,6.671,0,0,0,.234,1.231,2,2,0,0,0,.366.717,1.071,1.071,0,0,0,.514.335,2.539,2.539,0,0,0,.7.086,6.4,6.4,0,0,0,1.613-.226,10.816,10.816,0,0,0,1.753-.631l.3.81a9.779,9.779,0,0,1-1.41.919,18.26,18.26,0,0,1-1.784.857,14.744,14.744,0,0,1-1.831.631,6.089,6.089,0,0,1-1.55.242,1.956,1.956,0,0,1-1.332-.429,2.745,2.745,0,0,1-.748-1.395,12.234,12.234,0,0,1-.327-2.517q-.07-1.55-.07-3.779,0-.81.047-2.314t.132-3.5q.086-1.995.195-4.363t.234-4.9q.125-2.532.265-5.111t.28-4.986q.14-2.407.265-4.542t.234-3.771a1.137,1.137,0,0,1,.218-.647,1.478,1.478,0,0,1,.522-.436,2.707,2.707,0,0,1,.717-.242,4.159,4.159,0,0,1,.8-.078A4.5,4.5,0,0,1,93.82-149.011Z" transform="translate(-9.853 149.51)" fill="#4b4b4c"/></g></g></g></svg>