<svg xmlns="http://www.w3.org/2000/svg" xmlns:xlink="http://www.w3.org/1999/xlink" width="120.448" height="38.352" viewBox="0 0 120.448 38.352"><defs><linearGradient id="a" x1="0.309" y1="0.04" x2="0.69" y2="0.962" gradientUnits="objectBoundingBox"><stop offset="0" stop-color="#f88136"/><stop offset="0.171" stop-color="#3def65"/><stop offset="0.485" stop-color="#df3def"/><stop offset="0.904" stop-color="#3dc9ef"/><stop offset="1" stop-color="#f88136"/></linearGradient></defs><g transform="translate(60.448)"><path d="M18.294,0A5.243,5.243,0,0,1,22,1.535l5.407,5.407a5.243,5.243,0,0,1,1.536,3.707v7.645A5.243,5.243,0,0,1,27.408,22L22,27.408a5.243,5.243,0,0,1-3.707,1.536H10.649a5.243,5.243,0,0,1-3.707-1.535L1.536,22A5.243,5.243,0,0,1,0,18.294V10.649A5.243,5.243,0,0,1,1.535,6.943L6.942,1.536A5.243,5.243,0,0,1,10.649,0Z" fill="#4b4b4c"/><g transform="translate(4.209 2.21)"><path d="M168.889-154.007l-8.88-18.476a1.541,1.541,0,0,0-1.351-.975,2.34,2.34,0,0,0-.818.283l.818,1.507,8.4,17.661Z" transform="translate(-148.369 173.458)" fill="#f88136"/><path d="M162.839-154.007l8.88-18.476a1.542,1.542,0,0,1,1.351-.975,2.34,2.34,0,0,1,.818.283l-.818,1.507-8.4,17.661Z" transform="translate(-162.839 173.458)" fill="#f88136"/></g><path d="M5.075-5v0h.616v.308H5.075q-.092,0-.184,0L4.88-5Q4.977-5,5.075-5ZM6.308-5h.616v.308H6.308ZM7.54-5h.616v.308H7.54ZM8.772-5h.616v.308H8.772ZM10-5h.616v.308H10Zm1.232,0h.616v.308h-.616Zm1.241.008a5.054,5.054,0,0,1,.631.075l-.056.3a4.744,4.744,0,0,0-.592-.07Zm-8.229.061.051.3a4.748,4.748,0,0,0-.581.135l-.088-.3A5.056,5.056,0,0,1,4.248-4.932Zm9.475.168a5.059,5.059,0,0,1,.592.23l-.129.28a4.75,4.75,0,0,0-.556-.216Zm-10.69.2.125.282a4.749,4.749,0,0,0-.529.276L2.47-4.274A5.057,5.057,0,0,1,3.034-4.568Zm11.84.337a5.056,5.056,0,0,1,.516.371l-.2.238a4.746,4.746,0,0,0-.484-.348ZM1.949-3.912l.191.242a4.75,4.75,0,0,0-.409.364L1.7-3.271l-.218-.218.035-.035A5.06,5.06,0,0,1,1.949-3.912Zm13.9.481L16.288-3l-.218.218-.436-.436ZM1.042-3.053l.218.218L.824-2.4.606-2.618Zm15.682.493.436.436-.218.218-.436-.436ZM.171-2.182l.218.218-.436.436-.218-.218ZM17.6-1.689l.436.436-.218.218-.436-.436ZM-.7-1.311l.218.218-.436.436-.218-.218Zm19.167.493.436.436-.218.218L18.249-.6ZM-1.572-.439l.218.218L-1.79.214-2.008,0Zm20.91.493.436.436-.218.218L19.12.271ZM-2.443.432l.218.218-.436.436L-2.879.867ZM20.209.925l.436.436-.218.218-.436-.436ZM-3.314,1.3l.218.218-.21.21q-.11.11-.211.226l-.232-.2q.108-.123.225-.24Zm24.391.513a5.056,5.056,0,0,1,.379.509l-.258.168a4.748,4.748,0,0,0-.356-.478Zm-25.214.44.255.172a4.748,4.748,0,0,0-.3.514L-4.459,2.8A5.057,5.057,0,0,1-4.137,2.256Zm25.906.622a5.06,5.06,0,0,1,.24.588l-.292.1a4.75,4.75,0,0,0-.226-.552Zm-26.478.509.29.1a4.748,4.748,0,0,0-.164.573L-4.883,4A5.058,5.058,0,0,1-4.709,3.388Zm26.883.692a5.057,5.057,0,0,1,.086.629l-.307.022a4.747,4.747,0,0,0-.081-.591ZM-4.98,4.626l.307.027q-.019.21-.019.422v.18H-5v-.18Q-5,4.849-4.98,4.626Zm26.945.71h.308v.616h-.308ZM-5,5.871h.308v.616H-5Zm26.965.7h.308v.616h-.308ZM-5,7.1h.308v.616H-5Zm26.965.7h.308v.616h-.308ZM-5,8.336h.308v.616H-5Zm26.965.7h.308v.616h-.308ZM-5,9.568h.308v.616H-5Zm26.965.7h.308v.616h-.308ZM-5,10.8h.308v.616H-5Zm26.965.7h.308v.616h-.308ZM-5,12.032h.308V12.2c0,.145.007.291.02.436l-.307.028C-4.993,12.508-5,12.352-5,12.2Zm26.937.679.306.033a5.056,5.056,0,0,1-.109.626l-.3-.072A4.747,4.747,0,0,0,21.937,12.711Zm-26.517.511a4.749,4.749,0,0,0,.166.573l-.29.1a5.058,5.058,0,0,1-.176-.61Zm26.24.646.288.109a5.059,5.059,0,0,1-.261.579l-.272-.144A4.749,4.749,0,0,0,21.66,13.869Zm-25.838.474a4.748,4.748,0,0,0,.3.513l-.255.173a5.056,5.056,0,0,1-.323-.547ZM21.1,14.92l.252.177a5.056,5.056,0,0,1-.4.5l-.228-.208A4.746,4.746,0,0,0,21.1,14.92Zm-24.612.407q.1.111.2.215l.22.22-.218.218-.22-.22q-.112-.112-.216-.23Zm23.812.492.218.218-.436.436-.218-.218ZM-2.651,16.2l.436.436-.218.218-.436-.436Zm22.083.493.218.218-.436.436L19,17.126Zm-21.211.378.436.436-.218.218L-2,17.287Zm20.34.493.218.218-.436.436L18.125,18ZM-.909,17.94l.436.436-.218.218-.436-.436Zm18.6.493.218.218-.436.436-.218-.218Zm-17.726.379.436.436-.218.218-.436-.436Zm16.855.493.218.218-.436.436-.218-.218ZM.834,19.683l.436.436-.218.218L.616,19.9Zm15.113.493.218.218-.437.436-.216-.22.031-.03Zm-14.241.379.026.026a4.749,4.749,0,0,0,.42.373l-.19.242a5.059,5.059,0,0,1-.447-.4l-.026-.026ZM15.061,21l.186.245a5.057,5.057,0,0,1-.529.352l-.154-.267A4.747,4.747,0,0,0,15.061,21Zm-12.419.291a4.751,4.751,0,0,0,.53.274l-.124.282a5.059,5.059,0,0,1-.564-.292Zm11.389.3.119.284a5.057,5.057,0,0,1-.6.209l-.083-.3A4.75,4.75,0,0,0,14.03,21.6Zm-10.3.174a4.747,4.747,0,0,0,.581.133l-.05.3a5.057,5.057,0,0,1-.619-.142Zm9.153.145.045.3a5.057,5.057,0,0,1-.633.052l-.006-.308A4.749,4.749,0,0,0,12.884,21.915Zm-7.978.047q.085,0,.17,0h.441v.308H5.075q-.091,0-.181,0Zm1.227,0h.616v.308H6.132Zm1.232,0H7.98v.308H7.364Zm1.232,0h.616v.308H8.6Zm1.232,0h.616v.308H9.828Zm1.232,0h.616v.308h-.616Z" transform="translate(5.842 5.842)" fill="url(#a)"/><g transform="translate(9.681 12.401)"><path d="M.369,0A.384.384,0,0,1,.737.4V3.819a.384.384,0,0,1-.369.4A.384.384,0,0,1,0,3.819V.4A.384.384,0,0,1,.369,0Z" transform="translate(4.382 0)" fill="#3def65"/><circle cx="1.286" cy="1.286" r="1.286" transform="translate(3.517 3.705)" fill="#3def65"/><path d="M.374,0a.418.418,0,0,1,.4.392L.893,3.652a.351.351,0,0,1-.374.365.418.418,0,0,1-.4-.392L0,.365A.351.351,0,0,1,.374,0Z" transform="translate(8.418 1.721) rotate(54)" fill="#3def65"/><path d="M.374,4.016a.418.418,0,0,0,.4-.392L.893.365A.351.351,0,0,0,.52,0a.418.418,0,0,0-.4.392L0,3.652A.351.351,0,0,0,.374,4.016Z" transform="matrix(-0.588, 0.809, -0.809, -0.588, 4.324, 4.082)" fill="#3def65"/><path d="M.39,3.924a.4.4,0,0,0,.4-.376L.843.364A.37.37,0,0,0,.453,0a.4.4,0,0,0-.4.376L0,3.56A.37.37,0,0,0,.39,3.924Z" transform="translate(5.52 5.545) rotate(-78)" fill="#3def65"/><path d="M.363,4.154a.413.413,0,0,0,.386-.4L.85.38A.356.356,0,0,0,.487,0,.413.413,0,0,0,.1.4L0,3.774A.356.356,0,0,0,.363,4.154Z" transform="matrix(0.891, -0.454, 0.454, 0.891, 4.726, 5.821)" fill="#3def65"/><path d="M.39,0a.4.4,0,0,1,.4.376L.843,3.56a.37.37,0,0,1-.39.364.4.4,0,0,1-.4-.376L0,.364A.37.37,0,0,1,.39,0Z" transform="matrix(-0.208, -0.978, 0.978, -0.208, 0.175, 6.361)" fill="#3def65"/><path d="M.363,0A.413.413,0,0,1,.749.4l.1,3.371a.356.356,0,0,1-.363.38.413.413,0,0,1-.386-.4L0,.38A.356.356,0,0,1,.363,0Z" transform="matrix(-0.891, -0.454, 0.454, -0.891, 2.988, 9.533)" fill="#3def65"/><path d="M3.451.817A2.649,2.649,0,1,0,6.089,3.466,2.646,2.646,0,0,0,3.451.817m0-.817A3.466,3.466,0,1,1,0,3.466,3.459,3.459,0,0,1,3.451,0Z" transform="translate(1.351 1.51)" fill="#3def65"/></g><path d="M51.181-163.355v-3.762h-1.8v3.762Z" transform="translate(-35.806 189.944)" fill="#f88136"/></g><g transform="translate(0 0.049)"><g transform="translate(91.402 12.961)"><path d="M-2.057-81.749q1.141-.346,1.946-.56t1.35-.336q.545-.122.856-.168a3.5,3.5,0,0,1,.464-.046,1.474,1.474,0,0,1,.479.076.936.936,0,0,1,.392.26,1.238,1.238,0,0,1,.26.494,2.757,2.757,0,0,1,.092.769q0,.153-.015.6T3.711-79.42q-.041.79-.107,1.936t-.168,2.7l.122.01a24.19,24.19,0,0,1,1.717-3.5A16.223,16.223,0,0,1,7.15-80.842a7.919,7.919,0,0,1,1.9-1.574,3.682,3.682,0,0,1,1.8-.535,2.744,2.744,0,0,1,1.223.26A3.036,3.036,0,0,1,13-82a4.009,4.009,0,0,1,.657,1,7,7,0,0,1,.428,1.182,8.689,8.689,0,0,1,.234,1.248,10.571,10.571,0,0,1,.071,1.182,12.26,12.26,0,0,1-.306,2.8,11.312,11.312,0,0,1-.836,2.39A9.333,9.333,0,0,1,12-70.255a8.17,8.17,0,0,1-1.564,1.442,6.966,6.966,0,0,1-1.763.9,5.76,5.76,0,0,1-1.849.311,5.374,5.374,0,0,1-1.926-.357A5.035,5.035,0,0,1,3.13-69.144q-.112,2.558-.224,5.283t-.122,5.691l-2.14.245-.214-.01q.153-1.906.285-4t.245-4.2q.112-2.109.2-4.152t.153-3.837q.061-1.793.1-3.256t.036-2.42a4.938,4.938,0,0,0-.041-.678,1.269,1.269,0,0,0-.158-.484.719.719,0,0,0-.341-.29,1.511,1.511,0,0,0-.591-.1A6.3,6.3,0,0,0-.6-81.27q-.54.082-1.3.275ZM3.222-70.255a6.4,6.4,0,0,0,1.727,1.08,4.6,4.6,0,0,0,1.727.346,4.618,4.618,0,0,0,2.1-.484,4.615,4.615,0,0,0,1.661-1.442,7.315,7.315,0,0,0,1.09-2.369,12.285,12.285,0,0,0,.392-3.276,9.883,9.883,0,0,0-.107-1.427,6.188,6.188,0,0,0-.336-1.33,2.845,2.845,0,0,0-.6-.978,1.212,1.212,0,0,0-.9-.382,2.629,2.629,0,0,0-1.233.321,5.36,5.36,0,0,0-1.187.866A9.054,9.054,0,0,0,6.452-78.05a17.374,17.374,0,0,0-1,1.554A18.78,18.78,0,0,0,4.6-74.8q-.387.871-.678,1.7t-.469,1.559A9.035,9.035,0,0,0,3.222-70.255Zm14.989-1.579a3.073,3.073,0,0,0,.413,1.335,3.076,3.076,0,0,0,.841.917,3.577,3.577,0,0,0,1.106.53,4.378,4.378,0,0,0,1.208.173,3.808,3.808,0,0,0,1.08-.153,3.019,3.019,0,0,0,.917-.438,2.21,2.21,0,0,0,.637-.7,1.851,1.851,0,0,0,.239-.937,1.75,1.75,0,0,0-.255-.948,2.918,2.918,0,0,0-.683-.744,5.919,5.919,0,0,0-.994-.622q-.566-.285-1.177-.581l-1.085-.515q-.545-.26-1.055-.566a8.462,8.462,0,0,1-.953-.662,4.6,4.6,0,0,1-.774-.79,3.492,3.492,0,0,1-.52-.968,3.553,3.553,0,0,1-.189-1.187,3.352,3.352,0,0,1,.245-1.294,3.728,3.728,0,0,1,.667-1.065,4.724,4.724,0,0,1,.978-.83,6.363,6.363,0,0,1,1.187-.6,7.141,7.141,0,0,1,1.3-.357,7.508,7.508,0,0,1,1.3-.117,6.475,6.475,0,0,1,1.544.178,4.317,4.317,0,0,1,1.274.52,2.781,2.781,0,0,1,.866.83,1.962,1.962,0,0,1,.321,1.1,1.8,1.8,0,0,1-.082.509,1.486,1.486,0,0,1-.275.515,1.568,1.568,0,0,1-.509.4,1.761,1.761,0,0,1-.774.173,3.3,3.3,0,0,1-.9-.132l-.031-.1a3.307,3.307,0,0,0,.2-.6,2.359,2.359,0,0,0,.061-.509,1.377,1.377,0,0,0-.239-.79,1.854,1.854,0,0,0-.576-.525,2.587,2.587,0,0,0-.769-.3,3.911,3.911,0,0,0-.83-.092,4.017,4.017,0,0,0-1.294.194,3.053,3.053,0,0,0-.963.515,2.292,2.292,0,0,0-.6.729,1.832,1.832,0,0,0-.209.846,1.768,1.768,0,0,0,.3,1,3.407,3.407,0,0,0,.785.815,7.515,7.515,0,0,0,1.126.7q.637.326,1.33.652.774.367,1.539.759a7.459,7.459,0,0,1,1.365.892,4.215,4.215,0,0,1,.973,1.146A3,3,0,0,1,26.648-72a3.705,3.705,0,0,1-.464,1.865,4.316,4.316,0,0,1-1.238,1.376,5.712,5.712,0,0,1-1.778.851,7.46,7.46,0,0,1-2.084.29,7.959,7.959,0,0,1-1.116-.082,7.486,7.486,0,0,1-1.116-.245,6.617,6.617,0,0,1-1.024-.4,4.036,4.036,0,0,1-.846-.55,2.486,2.486,0,0,1-.571-.693,1.724,1.724,0,0,1-.209-.841,1.267,1.267,0,0,1,.168-.673,1.364,1.364,0,0,1,.443-.448,2.133,2.133,0,0,1,.616-.26,3.2,3.2,0,0,1,.7-.1Z" transform="translate(2.24 83.109)" fill="#fff"/><path d="M9.3-84.451a2.912,2.912,0,0,1,1.292.276,3.207,3.207,0,0,1,.97.729,4.184,4.184,0,0,1,.683,1.038,7.188,7.188,0,0,1,.438,1.209,8.887,8.887,0,0,1,.239,1.271,10.779,10.779,0,0,1,.072,1.2,12.475,12.475,0,0,1-.31,2.838,11.523,11.523,0,0,1-.847,2.423,9.535,9.535,0,0,1-1.275,1.974,8.367,8.367,0,0,1-1.594,1.469,7.156,7.156,0,0,1-1.8.917,5.944,5.944,0,0,1-1.9.319,5.556,5.556,0,0,1-1.982-.367,5.039,5.039,0,0,1-1.564-.977c-.069,1.593-.14,3.252-.209,4.938-.074,1.807-.115,3.719-.122,5.685v.14l-2.292.262-.39-.019.013-.163c.1-1.263.2-2.608.285-4s.17-2.8.244-4.2.143-2.8.2-4.151.112-2.645.153-3.835.073-2.284.1-3.254.036-1.782.036-2.416A4.8,4.8,0,0,0-.306-81.8a1.121,1.121,0,0,0-.137-.424.561.561,0,0,0-.269-.227,1.368,1.368,0,0,0-.528-.084,6.181,6.181,0,0,0-.894.08c-.353.053-.787.145-1.289.272l-.161.041L-3.8-83.2l.137-.042c.759-.23,1.416-.419,1.952-.562s.992-.256,1.356-.338.657-.139.867-.17A3.6,3.6,0,0,1,1-84.359a1.638,1.638,0,0,1,.53.085,1.1,1.1,0,0,1,.458.3,1.4,1.4,0,0,1,.295.556,2.925,2.925,0,0,1,.1.814c0,.1-.005.3-.015.607s-.029.716-.056,1.241-.063,1.176-.107,1.937c-.035.612-.079,1.317-.13,2.1A23.6,23.6,0,0,1,3.582-79.7a16.456,16.456,0,0,1,1.894-2.588A8.113,8.113,0,0,1,7.415-83.9a4.659,4.659,0,0,1,.957-.415A3.255,3.255,0,0,1,9.3-84.451ZM5.261-69.105a5.629,5.629,0,0,0,1.8-.3,6.84,6.84,0,0,0,1.723-.877A8.052,8.052,0,0,0,10.317-71.7a9.22,9.22,0,0,0,1.232-1.909,11.207,11.207,0,0,0,.824-2.356,12.159,12.159,0,0,0,.3-2.766,10.464,10.464,0,0,0-.07-1.164,8.571,8.571,0,0,0-.23-1.226,6.871,6.871,0,0,0-.418-1.155,3.869,3.869,0,0,0-.631-.96,2.893,2.893,0,0,0-.875-.657A2.6,2.6,0,0,0,9.3-84.135a3.545,3.545,0,0,0-1.726.515,7.8,7.8,0,0,0-1.862,1.544A16.142,16.142,0,0,0,3.852-79.54a24.146,24.146,0,0,0-1.706,3.477l-.043.108-.393-.033.01-.155c.068-1.027.124-1.934.168-2.694s.08-1.412.107-1.935.046-.939.056-1.235.015-.5.015-.6a2.617,2.617,0,0,0-.085-.725,1.09,1.09,0,0,0-.225-.432.774.774,0,0,0-.327-.217A1.324,1.324,0,0,0,1-84.044,3.385,3.385,0,0,0,.561-84c-.2.03-.486.086-.844.166s-.812.193-1.344.335c-.5.133-1.106.307-1.8.517l.092.452c.445-.109.834-.189,1.159-.238a6.487,6.487,0,0,1,.941-.083,1.647,1.647,0,0,1,.654.11.877.877,0,0,1,.414.354,1.43,1.43,0,0,1,.179.544,5.117,5.117,0,0,1,.042.7c0,.637-.012,1.452-.036,2.424s-.056,2.067-.1,3.257-.092,2.482-.153,3.838-.129,2.753-.2,4.154-.157,2.815-.245,4.2c-.084,1.331-.176,2.622-.273,3.84l.038,0,1.988-.227c.008-1.92.049-3.789.122-5.557.074-1.808.15-3.586.224-5.284l.016-.358.254.254a4.9,4.9,0,0,0,1.707,1.146A5.241,5.241,0,0,0,5.261-69.105ZM21.086-84.451a6.663,6.663,0,0,1,1.581.183,4.494,4.494,0,0,1,1.32.539,2.95,2.95,0,0,1,.914.878,2.126,2.126,0,0,1,.347,1.187,1.967,1.967,0,0,1-.088.554,1.65,1.65,0,0,1-.3.569,1.731,1.731,0,0,1-.56.444,1.924,1.924,0,0,1-.843.191h0a3.469,3.469,0,0,1-.94-.138l-.083-.024-.072-.24.023-.053a3.166,3.166,0,0,0,.194-.572,2.216,2.216,0,0,0,.057-.474,1.228,1.228,0,0,0-.21-.7,1.705,1.705,0,0,0-.527-.48,2.442,2.442,0,0,0-.723-.277,3.771,3.771,0,0,0-.8-.088,3.879,3.879,0,0,0-1.243.185,2.912,2.912,0,0,0-.914.487,2.146,2.146,0,0,0-.561.678,1.684,1.684,0,0,0-.192.774,1.621,1.621,0,0,0,.269.916,3.265,3.265,0,0,0,.749.777,7.393,7.393,0,0,0,1.1.683c.421.216.867.434,1.325.65.516.244,1.035.5,1.544.762a7.651,7.651,0,0,1,1.394.911,4.391,4.391,0,0,1,1.009,1.189,3.173,3.173,0,0,1,.393,1.6,4.272,4.272,0,0,1-.121,1.029,3.608,3.608,0,0,1-.364.914,4.493,4.493,0,0,1-1.283,1.425,5.9,5.9,0,0,1-1.827.875,7.652,7.652,0,0,1-2.128.3,8.154,8.154,0,0,1-1.138-.083,7.681,7.681,0,0,1-1.139-.25,6.808,6.808,0,0,1-1.048-.412,4.213,4.213,0,0,1-.879-.572,2.654,2.654,0,0,1-.606-.737,1.888,1.888,0,0,1-.228-.916,1.427,1.427,0,0,1,.191-.755,1.527,1.527,0,0,1,.494-.5,2.3,2.3,0,0,1,.662-.279,3.374,3.374,0,0,1,.732-.1l.062,0,.176.154.006.063a2.932,2.932,0,0,0,.39,1.267,2.933,2.933,0,0,0,.8.871,3.437,3.437,0,0,0,1.057.507,4.241,4.241,0,0,0,1.164.167,3.668,3.668,0,0,0,1.036-.146,2.875,2.875,0,0,0,.87-.415,2.064,2.064,0,0,0,.592-.653,1.7,1.7,0,0,0,.219-.859,1.6,1.6,0,0,0-.231-.864,2.775,2.775,0,0,0-.646-.7,5.788,5.788,0,0,0-.967-.6c-.374-.189-.769-.384-1.174-.579l-1.085-.514c-.366-.175-.726-.367-1.068-.573a8.661,8.661,0,0,1-.97-.675,4.777,4.777,0,0,1-.8-.817,3.666,3.666,0,0,1-.543-1.011,3.726,3.726,0,0,1-.2-1.24,3.524,3.524,0,0,1,.257-1.354,3.9,3.9,0,0,1,.7-1.11,4.9,4.9,0,0,1,1.011-.858,6.551,6.551,0,0,1,1.216-.611,7.334,7.334,0,0,1,1.328-.365A7.7,7.7,0,0,1,21.086-84.451Zm2.362,4.229a1.614,1.614,0,0,0,.7-.156,1.419,1.419,0,0,0,.459-.361,1.336,1.336,0,0,0,.247-.46,1.654,1.654,0,0,0,.075-.465,1.815,1.815,0,0,0-.3-1.014,2.637,2.637,0,0,0-.818-.783,4.181,4.181,0,0,0-1.228-.5,6.347,6.347,0,0,0-1.506-.174,7.385,7.385,0,0,0-1.272.115,7.017,7.017,0,0,0-1.271.349,6.236,6.236,0,0,0-1.158.581,4.589,4.589,0,0,0-.946.8,3.588,3.588,0,0,0-.639,1.02,3.211,3.211,0,0,0-.233,1.234,3.412,3.412,0,0,0,.18,1.135,3.351,3.351,0,0,0,.5.925,4.46,4.46,0,0,0,.748.763,8.344,8.344,0,0,0,.935.65c.334.2.684.388,1.041.558l1.085.514h0c.407.2.8.392,1.179.582a6.1,6.1,0,0,1,1.02.638,3.088,3.088,0,0,1,.719.784,1.914,1.914,0,0,1,.279,1.031,2.015,2.015,0,0,1-.26,1.016,2.377,2.377,0,0,1-.682.753,3.19,3.19,0,0,1-.965.461,3.983,3.983,0,0,1-1.125.159,4.556,4.556,0,0,1-1.251-.179,3.751,3.751,0,0,1-1.154-.553,3.247,3.247,0,0,1-.884-.963,3.2,3.2,0,0,1-.427-1.328,3.051,3.051,0,0,0-.591.089,1.985,1.985,0,0,0-.571.24,1.214,1.214,0,0,0-.393.4,1.119,1.119,0,0,0-.145.59,1.576,1.576,0,0,0,.19.765,2.34,2.34,0,0,0,.535.649,3.9,3.9,0,0,0,.813.529,6.491,6.491,0,0,0,1,.393,7.364,7.364,0,0,0,1.092.239,7.841,7.841,0,0,0,1.094.08,7.337,7.337,0,0,0,2.04-.284,5.581,5.581,0,0,0,1.729-.827,4.18,4.18,0,0,0,1.193-1.326,3.566,3.566,0,0,0,.443-1.787,2.863,2.863,0,0,0-.351-1.445,4.077,4.077,0,0,0-.937-1.1,7.336,7.336,0,0,0-1.337-.873c-.506-.26-1.022-.514-1.534-.757-.461-.217-.91-.437-1.334-.654a7.71,7.71,0,0,1-1.15-.713,3.579,3.579,0,0,1-.82-.853,1.931,1.931,0,0,1-.322-1.091,2,2,0,0,1,.226-.918,2.459,2.459,0,0,1,.642-.779,3.224,3.224,0,0,1,1.012-.542,4.192,4.192,0,0,1,1.345-.2,4.087,4.087,0,0,1,.864.1,2.757,2.757,0,0,1,.816.314,2.019,2.019,0,0,1,.624.569,1.538,1.538,0,0,1,.269.878v0a2.528,2.528,0,0,1-.065.544,3.34,3.34,0,0,1-.177.546A3.079,3.079,0,0,0,23.448-80.222ZM8.42-82.016a1.369,1.369,0,0,1,1.015.43,3.015,3.015,0,0,1,.635,1.032,6.374,6.374,0,0,1,.345,1.364,10.087,10.087,0,0,1,.109,1.449,14.982,14.982,0,0,1-.1,1.77,10.448,10.448,0,0,1-.3,1.548A8.832,8.832,0,0,1,9.648-73.1,6.435,6.435,0,0,1,9.011-72a5.2,5.2,0,0,1-.788.866,4.509,4.509,0,0,1-.929.624,4.642,4.642,0,0,1-1.043.376,5.058,5.058,0,0,1-1.132.125,4.773,4.773,0,0,1-1.786-.358,6.583,6.583,0,0,1-1.77-1.106L1.5-71.529l.007-.082a9.234,9.234,0,0,1,.233-1.317c.12-.492.279-1.022.473-1.574s.424-1.126.682-1.708a19.023,19.023,0,0,1,.863-1.706,17.614,17.614,0,0,1,1.008-1.568,9.255,9.255,0,0,1,1.125-1.3,5.542,5.542,0,0,1,1.222-.891A2.8,2.8,0,0,1,8.42-82.016Zm-3.3,11.688A4.483,4.483,0,0,0,7.152-70.8a4.48,4.48,0,0,0,1.6-1.394,7.193,7.193,0,0,0,1.066-2.318,12.186,12.186,0,0,0,.387-3.234,9.771,9.771,0,0,0-.105-1.4,6.06,6.06,0,0,0-.327-1.3,2.7,2.7,0,0,0-.567-.925A1.051,1.051,0,0,0,8.42-81.7a2.485,2.485,0,0,0-1.16.3,5.228,5.228,0,0,0-1.152.841A8.939,8.939,0,0,0,5.022-79.3a17.3,17.3,0,0,0-.99,1.54,18.714,18.714,0,0,0-.849,1.677c-.255.574-.482,1.141-.673,1.685s-.347,1.062-.464,1.544a9.23,9.23,0,0,0-.217,1.189,6.2,6.2,0,0,0,1.621,1A4.46,4.46,0,0,0,5.118-70.328Z" transform="translate(3.798 84.451)" fill="#fff"/></g><path d="M13.416-141.5c0-.328-.016-.929-.047-1.163a1.186,1.186,0,0,0-.215-.571.942.942,0,0,0-.477-.32,2.762,2.762,0,0,0-.823-.1q-.346,0-.849.037t-1.048.121l-.1-.87q1.54-.4,2.646-.587a11.272,11.272,0,0,1,1.829-.189,2.466,2.466,0,0,1,1.064.183,1.146,1.146,0,0,1,.545.545,2.378,2.378,0,0,1,.2.885q.031.524.031,1.195,0,.231-.026,1.231t-.073,2.567q-.047,1.567-.11,3.6t-.131,4.323q-.068,2.29-.141,4.731t-.147,4.831l-2.484.314-.189.085c.084-2.005.159-4.01.225-5.8s.124-3.535.173-5.229.086-3.371.11-5.03S13.416-139.752,13.416-141.5Zm8.445,8.4a3.52,3.52,0,0,0-.063-.723,1.174,1.174,0,0,0-.194-.466.719.719,0,0,0-.33-.246,1.364,1.364,0,0,0-.472-.073,4.7,4.7,0,0,0-.9.1q-.524.1-1.195.283l-.157-.755q.744-.262,1.43-.477t1.263-.372q.576-.157,1.016-.241a3.937,3.937,0,0,1,.692-.084,1.24,1.24,0,0,1,.948.362,1.8,1.8,0,0,1,.341,1.242q0,.1-.021.487t-.058.969q-.037.587-.089,1.347t-.121,1.619q-.068.859-.152,1.776t-.178,1.829l.063.01a29.288,29.288,0,0,1,1.708-4.564,15.851,15.851,0,0,1,1.855-3.018,6.665,6.665,0,0,1,1.876-1.671,3.7,3.7,0,0,1,1.781-.513,3,3,0,0,1,1.132.22,2.566,2.566,0,0,1,.969.7,3.536,3.536,0,0,1,.676,1.242,5.893,5.893,0,0,1,.251,1.839q0,.314-.037.844t-.089,1.179q-.052.65-.121,1.378t-.121,1.43q-.052.7-.089,1.336T33.44-125a10.5,10.5,0,0,0,.068,1.331,2.468,2.468,0,0,0,.225.812.847.847,0,0,0,.419.409,1.651,1.651,0,0,0,.639.11,4.511,4.511,0,0,0,1.132-.152,7.21,7.21,0,0,0,1.184-.424l.2.545a6.463,6.463,0,0,1-.954.618,12.47,12.47,0,0,1-1.21.576,9.581,9.581,0,0,1-1.263.424,4.509,4.509,0,0,1-1.111.162,1.252,1.252,0,0,1-.891-.3,1.86,1.86,0,0,1-.487-.828,5.382,5.382,0,0,1-.21-1.226q-.047-.7-.047-1.509,0-.985.068-2.028t.152-1.986q.084-.943.152-1.713t.068-1.231a2.9,2.9,0,0,0-.461-1.808,1.486,1.486,0,0,0-1.226-.582,2.135,2.135,0,0,0-1.278.513,7.063,7.063,0,0,0-1.336,1.409,14.358,14.358,0,0,0-1.278,2.117,21.8,21.8,0,0,0-1.106,2.641,24.19,24.19,0,0,0-.817,2.971,20.511,20.511,0,0,0-.409,3.1l-2.19.272-.168-.01q.084-1,.157-2.169t.136-2.384q.063-1.21.11-2.4t.084-2.222q.037-1.032.052-1.85T21.861-133.1ZM43.71-143.811q-.44,1.991-.739,4.113t-.508,4.186q.493.021.959.031l.87.021q.4.011.734.01h.55a8.647,8.647,0,0,0,1.561-.115q.052.178.084.325a1.306,1.306,0,0,1,.031.272.567.567,0,0,1-.382.6,3.458,3.458,0,0,1-1.106.136q-.692,0-1.546-.084t-1.871-.157q-.115,1.121-.194,2.185t-.126,2.007q-.047.943-.068,1.75t-.021,1.4a15.552,15.552,0,0,0,.115,2,4.953,4.953,0,0,0,.409,1.493,2.2,2.2,0,0,0,.807.938,2.39,2.39,0,0,0,1.3.325,4.639,4.639,0,0,0,1.263-.2,9.647,9.647,0,0,0,1.588-.639,1.109,1.109,0,0,1,.325.692q-.65.43-1.31.781a12.585,12.585,0,0,1-1.3.6,8.619,8.619,0,0,1-1.237.388,5.1,5.1,0,0,1-1.132.136,3.144,3.144,0,0,1-1.284-.257,2.344,2.344,0,0,1-1.006-.912,5.278,5.278,0,0,1-.66-1.766,13.878,13.878,0,0,1-.236-2.808q0-.954.031-1.965t.084-2.049q.052-1.037.136-2.075t.189-2.043q-.828.01-1.535.068a7.613,7.613,0,0,0-1.21.183.324.324,0,0,1-.031-.147.558.558,0,0,1,.215-.414,2.056,2.056,0,0,1,.6-.351,4.923,4.923,0,0,1,.917-.262,9.27,9.27,0,0,1,1.174-.147q.241-2.19.513-4.139t.545-3.479a1.022,1.022,0,0,1,.194-.451,1.1,1.1,0,0,1,.33-.283,1.359,1.359,0,0,1,.409-.147,2.3,2.3,0,0,1,.43-.042,2.442,2.442,0,0,1,.624.073A2.18,2.18,0,0,1,43.71-143.811ZM59.44-124.4q.063.031.162.089a1.412,1.412,0,0,1,.183.126.971.971,0,0,1,.147.147.246.246,0,0,1,.063.152.139.139,0,0,1-.031.084,8.645,8.645,0,0,1-1.263,1.42,7.776,7.776,0,0,1-1.4,1.006,6.282,6.282,0,0,1-1.483.6,5.963,5.963,0,0,1-1.488.194,5.168,5.168,0,0,1-2.305-.513,5.521,5.521,0,0,1-1.8-1.4A6.607,6.607,0,0,1,49.04-124.6a7.659,7.659,0,0,1-.424-2.573,10.427,10.427,0,0,1,.246-2.243,10.525,10.525,0,0,1,.713-2.138,9.849,9.849,0,0,1,1.137-1.891,7.948,7.948,0,0,1,1.525-1.519,7.047,7.047,0,0,1,1.876-1.011,6.45,6.45,0,0,1,2.2-.367,5.14,5.14,0,0,1,1.478.21,3.931,3.931,0,0,1,1.231.6,2.958,2.958,0,0,1,.844.969,2.691,2.691,0,0,1,.314,1.31,2.743,2.743,0,0,1-.7,1.865,5.55,5.55,0,0,1-1.923,1.352,13.672,13.672,0,0,1-2.887.9,31.475,31.475,0,0,1-3.589.508v.178A8.339,8.339,0,0,0,51.418-126a6.087,6.087,0,0,0,.938,1.9,4.386,4.386,0,0,0,1.4,1.231,3.576,3.576,0,0,0,1.74.44,4.521,4.521,0,0,0,1.933-.466A7.065,7.065,0,0,0,59.44-124.4Zm-1.97-8.415a2.472,2.472,0,0,0-.162-.9,2.245,2.245,0,0,0-.451-.728,2.1,2.1,0,0,0-.686-.487,2.08,2.08,0,0,0-.859-.178,3.075,3.075,0,0,0-1.237.241,3.443,3.443,0,0,0-1,.655,4.6,4.6,0,0,0-.775.964,7.1,7.1,0,0,0-.571,1.168,9.307,9.307,0,0,0-.382,1.268,10.652,10.652,0,0,0-.21,1.268,18.821,18.821,0,0,0,2.667-.362,8.624,8.624,0,0,0,1.991-.66,3.475,3.475,0,0,0,1.242-.964A2.054,2.054,0,0,0,57.47-132.818Zm8.851-16.356q-.21,1.781-.414,3.652t-.388,3.783q-.183,1.912-.341,3.841t-.272,3.8q-.115,1.871-.178,3.673t-.063,3.458q0,1.037.026,1.781t.084,1.258a4.485,4.485,0,0,0,.157.828,1.347,1.347,0,0,0,.246.482.72.72,0,0,0,.346.225,1.707,1.707,0,0,0,.472.058,4.306,4.306,0,0,0,1.085-.152,7.275,7.275,0,0,0,1.179-.424l.2.545a6.575,6.575,0,0,1-.948.618,12.279,12.279,0,0,1-1.2.576,9.916,9.916,0,0,1-1.231.424,4.1,4.1,0,0,1-1.043.162,1.315,1.315,0,0,1-.9-.288,1.846,1.846,0,0,1-.5-.938,8.227,8.227,0,0,1-.22-1.692q-.047-1.043-.047-2.541,0-.545.031-1.556t.089-2.353q.058-1.341.131-2.934t.157-3.3q.084-1.7.178-3.437t.189-3.353q.094-1.619.178-3.055t.157-2.536a.765.765,0,0,1,.147-.435.994.994,0,0,1,.351-.293,1.821,1.821,0,0,1,.482-.162,2.8,2.8,0,0,1,.54-.052A3.029,3.029,0,0,1,66.322-149.174Z" transform="translate(-9.853 149.51)" fill="#fff"/></g></svg>