<svg id="Logo-white" xmlns="http://www.w3.org/2000/svg" xmlns:xlink="http://www.w3.org/1999/xlink" width="161.459" height="51.41" viewBox="0 0 161.459 51.41">
  <defs>
    <linearGradient id="linear-gradient" x1="0.309" y1="0.04" x2="0.69" y2="0.962" gradientUnits="objectBoundingBox">
      <stop offset="0" stop-color="#f88136"/>
      <stop offset="0.171" stop-color="#3def65"/>
      <stop offset="0.485" stop-color="#a06ef8"/>
      <stop offset="0.904" stop-color="#3ddeae"/>
      <stop offset="1" stop-color="#efda3d"/>
    </linearGradient>
    <linearGradient id="linear-gradient-2" x1="0.5" y1="0.5" x2="0.5" y2="1" gradientUnits="objectBoundingBox">
      <stop offset="0" stop-color="#3def65"/>
      <stop offset="1" stop-color="#087621"/>
    </linearGradient>
    <linearGradient id="linear-gradient-3" x1="0.912" x2="0.092" y2="0.995" gradientUnits="objectBoundingBox">
      <stop offset="0" stop-color="#0a7a23"/>
      <stop offset="0.196" stop-color="#3def65"/>
      <stop offset="0.66" stop-color="#3def65"/>
      <stop offset="1" stop-color="#036b1b"/>
    </linearGradient>
  </defs>
  <g id="Group_255" data-name="Group 255" transform="translate(0 0.065)">
    <g id="Group_279" data-name="Group 279" transform="translate(122.76 17.581)">
      <path id="ps" d="M-2.057-81.349Q-.536-81.811.536-82.1t1.8-.448q.726-.163,1.14-.224a4.667,4.667,0,0,1,.618-.061,1.964,1.964,0,0,1,.638.1,1.247,1.247,0,0,1,.523.346,1.65,1.65,0,0,1,.346.658A3.674,3.674,0,0,1,5.723-80.7q0,.2-.02.8t-.075,1.65q-.054,1.052-.143,2.579t-.224,3.591l.163.014a32.229,32.229,0,0,1,2.288-4.663,21.613,21.613,0,0,1,2.5-3.414,10.552,10.552,0,0,1,2.532-2.1,4.905,4.905,0,0,1,2.4-.713,3.656,3.656,0,0,1,1.629.346A4.045,4.045,0,0,1,18-81.682a5.34,5.34,0,0,1,.876,1.33,9.323,9.323,0,0,1,.57,1.575,11.576,11.576,0,0,1,.312,1.663,14.085,14.085,0,0,1,.1,1.575,16.334,16.334,0,0,1-.407,3.733,15.072,15.072,0,0,1-1.113,3.184,12.436,12.436,0,0,1-1.67,2.586,10.887,10.887,0,0,1-2.084,1.921,9.281,9.281,0,0,1-2.349,1.195,7.674,7.674,0,0,1-2.464.414A7.159,7.159,0,0,1,7.2-62.98a6.708,6.708,0,0,1-2.349-1.575q-.149,3.408-.3,7.039t-.163,7.582l-2.851.326-.285-.014q.2-2.539.38-5.329t.326-5.6q.149-2.81.272-5.532t.2-5.111q.081-2.389.129-4.338t.048-3.224a6.578,6.578,0,0,0-.054-.9,1.691,1.691,0,0,0-.21-.645.959.959,0,0,0-.455-.387,2.014,2.014,0,0,0-.787-.129,8.4,8.4,0,0,0-1.222.109q-.72.109-1.738.367ZM4.976-66.035a8.522,8.522,0,0,0,2.3,1.439,6.123,6.123,0,0,0,2.3.462,6.153,6.153,0,0,0,2.8-.645A6.148,6.148,0,0,0,14.595-66.7a9.746,9.746,0,0,0,1.453-3.156,16.367,16.367,0,0,0,.523-4.365,13.167,13.167,0,0,0-.143-1.9,8.244,8.244,0,0,0-.448-1.772,3.791,3.791,0,0,0-.8-1.3,1.614,1.614,0,0,0-1.2-.509,3.5,3.5,0,0,0-1.643.428,7.142,7.142,0,0,0-1.582,1.154,12.064,12.064,0,0,0-1.473,1.7,23.148,23.148,0,0,0-1.33,2.07A25.022,25.022,0,0,0,6.809-72.1q-.516,1.161-.9,2.26t-.625,2.077A12.038,12.038,0,0,0,4.976-66.035Zm19.971-2.1a4.1,4.1,0,0,0,.55,1.779,4.1,4.1,0,0,0,1.12,1.222,4.766,4.766,0,0,0,1.473.706A5.833,5.833,0,0,0,29.7-64.2a5.074,5.074,0,0,0,1.439-.2,4.022,4.022,0,0,0,1.222-.584,2.945,2.945,0,0,0,.849-.937,2.466,2.466,0,0,0,.319-1.249,2.332,2.332,0,0,0-.339-1.263,3.887,3.887,0,0,0-.91-.991,7.883,7.883,0,0,0-1.324-.828q-.753-.38-1.568-.774-.72-.339-1.446-.686t-1.405-.753a11.277,11.277,0,0,1-1.269-.882A6.124,6.124,0,0,1,24.234-74.4a4.653,4.653,0,0,1-.692-1.29,4.733,4.733,0,0,1-.251-1.582A4.466,4.466,0,0,1,23.616-79a4.967,4.967,0,0,1,.889-1.419,6.294,6.294,0,0,1,1.3-1.106,8.478,8.478,0,0,1,1.582-.794,9.517,9.517,0,0,1,1.731-.475,10,10,0,0,1,1.731-.156,8.628,8.628,0,0,1,2.057.238,5.752,5.752,0,0,1,1.7.692,3.705,3.705,0,0,1,1.154,1.106,2.614,2.614,0,0,1,.428,1.466,2.4,2.4,0,0,1-.109.679,1.98,1.98,0,0,1-.367.686,2.089,2.089,0,0,1-.679.536A2.347,2.347,0,0,1,34-77.317a4.392,4.392,0,0,1-1.195-.177l-.041-.136a4.407,4.407,0,0,0,.272-.8,3.144,3.144,0,0,0,.081-.679,1.835,1.835,0,0,0-.319-1.052,2.469,2.469,0,0,0-.767-.7,3.447,3.447,0,0,0-1.025-.394,5.211,5.211,0,0,0-1.106-.122,5.352,5.352,0,0,0-1.724.258,4.069,4.069,0,0,0-1.283.686,3.054,3.054,0,0,0-.8.971,2.441,2.441,0,0,0-.278,1.127A2.356,2.356,0,0,0,26.209-77a4.539,4.539,0,0,0,1.045,1.086,10.015,10.015,0,0,0,1.5.93q.849.434,1.772.869,1.032.489,2.05,1.011A9.937,9.937,0,0,1,34.4-71.914a5.615,5.615,0,0,1,1.3,1.527,4,4,0,0,1,.5,2.03,4.936,4.936,0,0,1-.618,2.484,5.751,5.751,0,0,1-1.65,1.833,7.61,7.61,0,0,1-2.369,1.134,9.939,9.939,0,0,1-2.776.387,10.6,10.6,0,0,1-1.487-.109,9.973,9.973,0,0,1-1.487-.326,8.817,8.817,0,0,1-1.364-.536,5.379,5.379,0,0,1-1.127-.733,3.312,3.312,0,0,1-.76-.923,2.3,2.3,0,0,1-.278-1.12,1.688,1.688,0,0,1,.224-.9,1.817,1.817,0,0,1,.591-.6,2.842,2.842,0,0,1,.821-.346,4.265,4.265,0,0,1,.93-.129Z" transform="translate(2.301 83.161)" fill="#fff"/>
      <path id="ps_-_Outline" data-name="ps - Outline" d="M13.647-84.451a3.88,3.88,0,0,1,1.722.368,4.273,4.273,0,0,1,1.292.971,5.575,5.575,0,0,1,.91,1.382,9.576,9.576,0,0,1,.583,1.61,11.842,11.842,0,0,1,.318,1.693,14.361,14.361,0,0,1,.1,1.6,16.62,16.62,0,0,1-.413,3.781,15.353,15.353,0,0,1-1.129,3.228,12.7,12.7,0,0,1-1.7,2.63A11.147,11.147,0,0,1,13.2-65.231a9.533,9.533,0,0,1-2.4,1.221,7.919,7.919,0,0,1-2.531.425,7.4,7.4,0,0,1-2.641-.489,6.713,6.713,0,0,1-2.084-1.3c-.093,2.122-.186,4.332-.279,6.578-.1,2.407-.154,4.956-.163,7.574v.187l-3.054.349-.519-.025.017-.217c.135-1.683.263-3.475.38-5.325s.227-3.734.326-5.6.19-3.726.271-5.531.15-3.525.2-5.109.1-3.043.129-4.336S.906-79.2.906-80.046a6.4,6.4,0,0,0-.052-.874,1.493,1.493,0,0,0-.182-.565.747.747,0,0,0-.358-.3,1.822,1.822,0,0,0-.7-.112,8.233,8.233,0,0,0-1.19.106c-.471.071-1.049.193-1.718.362l-.214.054L-3.8-82.785l.183-.056c1.011-.307,1.886-.559,2.6-.749s1.322-.341,1.807-.45.876-.186,1.156-.227a4.805,4.805,0,0,1,.648-.063,2.183,2.183,0,0,1,.706.113,1.461,1.461,0,0,1,.61.4,1.863,1.863,0,0,1,.393.741,3.9,3.9,0,0,1,.131,1.085c0,.139-.007.4-.02.808s-.039.954-.075,1.653-.084,1.566-.143,2.581c-.047.815-.1,1.755-.173,2.8a31.444,31.444,0,0,1,2.009-3.983,21.924,21.924,0,0,1,2.523-3.448,10.808,10.808,0,0,1,2.584-2.139,6.209,6.209,0,0,1,1.276-.553A4.337,4.337,0,0,1,13.647-84.451ZM8.271-64.005a7.5,7.5,0,0,0,2.4-.4,9.113,9.113,0,0,0,2.3-1.168,10.727,10.727,0,0,0,2.044-1.884A12.284,12.284,0,0,0,16.649-70a14.932,14.932,0,0,0,1.1-3.139,16.2,16.2,0,0,0,.4-3.685,13.941,13.941,0,0,0-.094-1.551,11.419,11.419,0,0,0-.307-1.633,9.155,9.155,0,0,0-.557-1.539,5.155,5.155,0,0,0-.841-1.279,3.854,3.854,0,0,0-1.165-.876,3.465,3.465,0,0,0-1.537-.325,4.722,4.722,0,0,0-2.3.686,10.394,10.394,0,0,0-2.48,2.057,21.507,21.507,0,0,0-2.473,3.381,32.171,32.171,0,0,0-2.272,4.633l-.058.144-.524-.044.014-.206c.09-1.368.165-2.576.224-3.589s.106-1.881.142-2.578S3.982-80.8,4-81.193s.02-.661.02-.794a3.486,3.486,0,0,0-.114-.965,1.452,1.452,0,0,0-.3-.576,1.031,1.031,0,0,0-.436-.289,1.764,1.764,0,0,0-.57-.091,4.508,4.508,0,0,0-.587.059c-.27.04-.648.114-1.125.221s-1.082.258-1.791.446c-.666.177-1.474.409-2.4.689l.122.6c.593-.145,1.111-.252,1.544-.317A8.643,8.643,0,0,1-.39-82.32a2.195,2.195,0,0,1,.871.146,1.169,1.169,0,0,1,.551.471,1.906,1.906,0,0,1,.239.725,6.817,6.817,0,0,1,.056.932c0,.848-.016,1.935-.048,3.229s-.075,2.754-.129,4.34-.123,3.307-.2,5.114S.774-63.695.675-61.829s-.209,3.751-.326,5.6c-.112,1.773-.234,3.493-.363,5.116l.051,0,2.648-.3c.011-2.559.066-5.048.162-7.4.1-2.409.2-4.778.3-7.04l.021-.477.338.338A6.531,6.531,0,0,0,5.78-64.467,6.983,6.983,0,0,0,8.271-64.005ZM29.355-84.451a8.878,8.878,0,0,1,2.107.244,5.988,5.988,0,0,1,1.759.718,3.931,3.931,0,0,1,1.218,1.169,2.832,2.832,0,0,1,.462,1.582,2.621,2.621,0,0,1-.117.739,2.2,2.2,0,0,1-.4.758,2.307,2.307,0,0,1-.746.591,2.564,2.564,0,0,1-1.124.254h0a4.622,4.622,0,0,1-1.252-.184l-.111-.031-.1-.32L31.077-79a4.219,4.219,0,0,0,.259-.762,2.953,2.953,0,0,0,.076-.631,1.637,1.637,0,0,0-.28-.932,2.272,2.272,0,0,0-.7-.64,3.254,3.254,0,0,0-.963-.369,5.023,5.023,0,0,0-1.062-.117,5.168,5.168,0,0,0-1.657.247,3.879,3.879,0,0,0-1.217.649,2.86,2.86,0,0,0-.747.9,2.244,2.244,0,0,0-.255,1.031,2.16,2.16,0,0,0,.358,1.221,4.35,4.35,0,0,0,1,1.035,9.85,9.85,0,0,0,1.469.91c.561.287,1.155.579,1.765.866.687.325,1.379.667,2.057,1.015a10.194,10.194,0,0,1,1.858,1.213,5.851,5.851,0,0,1,1.345,1.584,4.228,4.228,0,0,1,.524,2.134,5.692,5.692,0,0,1-.161,1.371,4.808,4.808,0,0,1-.485,1.217,5.986,5.986,0,0,1-1.709,1.9,7.854,7.854,0,0,1-2.434,1.165,10.2,10.2,0,0,1-2.835.4,10.863,10.863,0,0,1-1.516-.111,10.233,10.233,0,0,1-1.518-.333,9.068,9.068,0,0,1-1.4-.549,5.613,5.613,0,0,1-1.171-.762,3.536,3.536,0,0,1-.808-.982,2.515,2.515,0,0,1-.3-1.221,1.9,1.9,0,0,1,.255-1.006,2.034,2.034,0,0,1,.658-.666,3.064,3.064,0,0,1,.882-.372,4.5,4.5,0,0,1,.976-.135l.082,0,.234.2.008.084a3.906,3.906,0,0,0,.52,1.688,3.908,3.908,0,0,0,1.063,1.16,4.579,4.579,0,0,0,1.409.675A5.65,5.65,0,0,0,28.2-65.7a4.887,4.887,0,0,0,1.38-.2,3.831,3.831,0,0,0,1.159-.553,2.75,2.75,0,0,0,.789-.871,2.27,2.27,0,0,0,.291-1.144,2.136,2.136,0,0,0-.307-1.151,3.7,3.7,0,0,0-.861-.937,7.711,7.711,0,0,0-1.288-.806c-.5-.252-1.025-.511-1.564-.772-.478-.226-.965-.456-1.446-.685s-.967-.489-1.423-.763a11.541,11.541,0,0,1-1.293-.9,6.363,6.363,0,0,1-1.067-1.088,4.884,4.884,0,0,1-.724-1.348,4.964,4.964,0,0,1-.263-1.652,4.7,4.7,0,0,1,.342-1.8,5.2,5.2,0,0,1,.927-1.478A6.534,6.534,0,0,1,24.2-82.992a8.728,8.728,0,0,1,1.621-.814,9.772,9.772,0,0,1,1.769-.486A10.26,10.26,0,0,1,29.355-84.451ZM32.5-78.817a2.15,2.15,0,0,0,.938-.207,1.89,1.89,0,0,0,.612-.482,1.78,1.78,0,0,0,.328-.613,2.2,2.2,0,0,0,.1-.619,2.419,2.419,0,0,0-.393-1.351A3.514,3.514,0,0,0,33-83.133a5.57,5.57,0,0,0-1.635-.666,8.457,8.457,0,0,0-2.007-.232,9.839,9.839,0,0,0-1.695.153,9.35,9.35,0,0,0-1.693.465,8.308,8.308,0,0,0-1.543.775,6.114,6.114,0,0,0-1.26,1.07,4.781,4.781,0,0,0-.852,1.359A4.278,4.278,0,0,0,22-78.566a4.546,4.546,0,0,0,.239,1.512,4.464,4.464,0,0,0,.661,1.232,5.942,5.942,0,0,0,1,1.016,11.117,11.117,0,0,0,1.246.866c.445.267.911.517,1.387.744s.967.46,1.445.685h0c.542.262,1.07.523,1.571.775a8.131,8.131,0,0,1,1.359.851,4.114,4.114,0,0,1,.958,1.045,2.55,2.55,0,0,1,.371,1.374,2.685,2.685,0,0,1-.347,1.354,3.167,3.167,0,0,1-.908,1,4.25,4.25,0,0,1-1.285.615,5.308,5.308,0,0,1-1.5.212,6.07,6.07,0,0,1-1.667-.239A5,5,0,0,1,25-66.258a4.326,4.326,0,0,1-1.177-1.284,4.269,4.269,0,0,1-.57-1.769,4.066,4.066,0,0,0-.788.119,2.645,2.645,0,0,0-.761.32,1.617,1.617,0,0,0-.523.529,1.49,1.49,0,0,0-.193.786,2.1,2.1,0,0,0,.253,1.019,3.118,3.118,0,0,0,.713.865,5.194,5.194,0,0,0,1.083.7,8.648,8.648,0,0,0,1.332.523,9.807,9.807,0,0,0,1.455.319,10.443,10.443,0,0,0,1.457.107A9.775,9.775,0,0,0,30-64.4a7.436,7.436,0,0,0,2.3-1.1,5.568,5.568,0,0,0,1.59-1.766,4.752,4.752,0,0,0,.59-2.38,3.815,3.815,0,0,0-.468-1.925,5.431,5.431,0,0,0-1.249-1.47A9.773,9.773,0,0,0,30.983-74.2c-.674-.346-1.361-.685-2.044-1.008-.614-.289-1.212-.582-1.778-.872a10.27,10.27,0,0,1-1.532-.95,4.768,4.768,0,0,1-1.093-1.137,2.573,2.573,0,0,1-.429-1.454,2.66,2.66,0,0,1,.3-1.223,3.277,3.277,0,0,1,.855-1.038,4.3,4.3,0,0,1,1.349-.722,5.586,5.586,0,0,1,1.792-.269,5.445,5.445,0,0,1,1.151.127,3.673,3.673,0,0,1,1.087.418,2.689,2.689,0,0,1,.832.758,2.048,2.048,0,0,1,.358,1.17v0a3.368,3.368,0,0,1-.086.724,4.449,4.449,0,0,1-.236.727A4.1,4.1,0,0,0,32.5-78.817ZM12.48-81.206a1.825,1.825,0,0,1,1.352.573,4.016,4.016,0,0,1,.847,1.374,8.493,8.493,0,0,1,.46,1.817,13.44,13.44,0,0,1,.145,1.931,19.961,19.961,0,0,1-.132,2.358,13.919,13.919,0,0,1-.4,2.063,11.765,11.765,0,0,1-.636,1.761,8.572,8.572,0,0,1-.849,1.463,6.929,6.929,0,0,1-1.05,1.153,6.008,6.008,0,0,1-1.238.832,6.185,6.185,0,0,1-1.39.5,6.74,6.74,0,0,1-1.508.167,6.36,6.36,0,0,1-2.38-.477,8.771,8.771,0,0,1-2.359-1.474l-.083-.071.01-.109A12.3,12.3,0,0,1,3.58-69.1c.159-.655.371-1.361.63-2.1s.564-1.5.909-2.276a25.348,25.348,0,0,1,1.15-2.273,23.469,23.469,0,0,1,1.343-2.089,12.33,12.33,0,0,1,1.5-1.733,7.384,7.384,0,0,1,1.628-1.187A3.726,3.726,0,0,1,12.48-81.206Zm-4.4,15.572a5.973,5.973,0,0,0,2.709-.622,5.968,5.968,0,0,0,2.137-1.857,9.584,9.584,0,0,0,1.42-3.089,16.236,16.236,0,0,0,.515-4.308,13.018,13.018,0,0,0-.14-1.87,8.074,8.074,0,0,0-.436-1.727,3.6,3.6,0,0,0-.755-1.232,1.4,1.4,0,0,0-1.051-.445,3.31,3.31,0,0,0-1.545.4A6.966,6.966,0,0,0,9.4-79.262a11.909,11.909,0,0,0-1.447,1.674,23.048,23.048,0,0,0-1.318,2.052A24.93,24.93,0,0,0,5.5-73.3c-.34.765-.642,1.52-.9,2.245S4.145-69.641,3.989-69a12.3,12.3,0,0,0-.29,1.585,8.257,8.257,0,0,0,2.16,1.334A5.942,5.942,0,0,0,8.081-65.634Z" transform="translate(3.798 84.451)" fill="#fff"/>
    </g>
    <path id="Intel" d="M14.6-138.837c0-.437-.021-1.237-.063-1.549a1.581,1.581,0,0,0-.286-.761,1.255,1.255,0,0,0-.635-.426,3.678,3.678,0,0,0-1.1-.133q-.461,0-1.131.049t-1.4.161l-.14-1.159q2.052-.531,3.525-.782a15.017,15.017,0,0,1,2.436-.251,3.286,3.286,0,0,1,1.417.244,1.528,1.528,0,0,1,.726.726,3.169,3.169,0,0,1,.272,1.18q.042.7.042,1.592,0,.307-.035,1.64t-.1,3.421q-.063,2.087-.147,4.8t-.175,5.759q-.091,3.051-.188,6.3t-.2,6.436l-3.309.419-.251.114c.112-2.671.212-5.342.3-7.73s.165-4.71.23-6.967.114-4.491.147-6.7S14.6-136.51,14.6-138.837Zm11.251,11.191a4.689,4.689,0,0,0-.084-.963,1.564,1.564,0,0,0-.258-.621.958.958,0,0,0-.44-.328,1.817,1.817,0,0,0-.628-.1,6.259,6.259,0,0,0-1.2.14q-.7.14-1.592.377l-.209-1.005q.991-.349,1.906-.635t1.682-.5q.768-.209,1.354-.321a5.248,5.248,0,0,1,.921-.112,1.652,1.652,0,0,1,1.264.482,2.393,2.393,0,0,1,.454,1.654q0,.14-.028.649t-.077,1.291q-.049.782-.119,1.794t-.161,2.157q-.091,1.145-.2,2.366t-.237,2.436l.084.014a39.022,39.022,0,0,1,2.276-6.08,21.119,21.119,0,0,1,2.471-4.021,8.881,8.881,0,0,1,2.5-2.227,4.931,4.931,0,0,1,2.373-.684,3.99,3.99,0,0,1,1.508.293,3.419,3.419,0,0,1,1.291.935,4.711,4.711,0,0,1,.9,1.654,7.851,7.851,0,0,1,.335,2.45q0,.419-.049,1.124t-.119,1.571q-.07.866-.161,1.836t-.161,1.906q-.07.935-.119,1.78t-.049,1.473a13.992,13.992,0,0,0,.091,1.773,3.289,3.289,0,0,0,.3,1.082,1.129,1.129,0,0,0,.558.545,2.2,2.2,0,0,0,.852.147,6.01,6.01,0,0,0,1.508-.2,9.6,9.6,0,0,0,1.578-.565l.265.726a8.61,8.61,0,0,1-1.271.824,16.613,16.613,0,0,1-1.613.768,12.768,12.768,0,0,1-1.682.565,6.008,6.008,0,0,1-1.48.216,1.668,1.668,0,0,1-1.187-.4,2.478,2.478,0,0,1-.649-1.1,7.171,7.171,0,0,1-.279-1.634q-.063-.935-.063-2.01,0-1.312.091-2.7t.2-2.646q.112-1.257.2-2.283t.091-1.64a3.858,3.858,0,0,0-.614-2.408,1.98,1.98,0,0,0-1.634-.775,2.845,2.845,0,0,0-1.7.684,9.411,9.411,0,0,0-1.78,1.878,19.129,19.129,0,0,0-1.7,2.82,29.047,29.047,0,0,0-1.473,3.518,32.228,32.228,0,0,0-1.089,3.958,27.328,27.328,0,0,0-.545,4.133l-2.918.363-.223-.014q.112-1.326.209-2.89t.181-3.176q.084-1.613.147-3.2t.112-2.96q.049-1.375.07-2.464T25.851-127.646Zm29.11-14.271q-.586,2.653-.984,5.48t-.677,5.578q.656.028,1.277.042l1.159.028q.538.014.977.014h.733a11.516,11.516,0,0,0,2.08-.154q.07.237.112.433a1.74,1.74,0,0,1,.042.363.756.756,0,0,1-.51.8,4.607,4.607,0,0,1-1.473.181q-.921,0-2.059-.112t-2.492-.209q-.154,1.494-.258,2.911t-.168,2.674q-.063,1.257-.091,2.332T52.6-119.69a20.718,20.718,0,0,0,.154,2.667,6.6,6.6,0,0,0,.544,1.99,2.931,2.931,0,0,0,1.075,1.25,3.184,3.184,0,0,0,1.731.433,6.181,6.181,0,0,0,1.682-.265,12.855,12.855,0,0,0,2.115-.852,1.477,1.477,0,0,1,.433.921q-.866.572-1.745,1.04a16.765,16.765,0,0,1-1.731.8,11.487,11.487,0,0,1-1.647.517,6.79,6.79,0,0,1-1.508.181,4.189,4.189,0,0,1-1.71-.342,3.123,3.123,0,0,1-1.34-1.215,7.032,7.032,0,0,1-.88-2.353,18.489,18.489,0,0,1-.314-3.742q0-1.27.042-2.618t.112-2.73q.07-1.382.181-2.764t.251-2.723q-1.1.014-2.045.091a10.143,10.143,0,0,0-1.613.244.432.432,0,0,1-.042-.2.744.744,0,0,1,.286-.551,2.74,2.74,0,0,1,.8-.468,6.567,6.567,0,0,1,1.222-.349,12.36,12.36,0,0,1,1.564-.2q.321-2.918.684-5.515t.726-4.635a1.362,1.362,0,0,1,.258-.6,1.472,1.472,0,0,1,.44-.377,1.812,1.812,0,0,1,.545-.2,3.058,3.058,0,0,1,.572-.056,3.255,3.255,0,0,1,.831.1A2.906,2.906,0,0,1,54.961-141.917ZM75.919-116.06q.084.042.216.119a1.88,1.88,0,0,1,.244.168,1.292,1.292,0,0,1,.2.2.328.328,0,0,1,.084.2.186.186,0,0,1-.042.112,11.518,11.518,0,0,1-1.682,1.892,10.362,10.362,0,0,1-1.871,1.34,8.369,8.369,0,0,1-1.976.8,7.944,7.944,0,0,1-1.983.258,6.885,6.885,0,0,1-3.072-.684,7.356,7.356,0,0,1-2.4-1.871,8.8,8.8,0,0,1-1.571-2.785,10.2,10.2,0,0,1-.565-3.428,13.892,13.892,0,0,1,.328-2.988,14.023,14.023,0,0,1,.949-2.848,13.122,13.122,0,0,1,1.515-2.52,10.591,10.591,0,0,1,2.031-2.024,9.391,9.391,0,0,1,2.5-1.347,8.594,8.594,0,0,1,2.925-.489,6.847,6.847,0,0,1,1.969.279,5.236,5.236,0,0,1,1.64.8,3.941,3.941,0,0,1,1.124,1.291,3.585,3.585,0,0,1,.419,1.745,3.655,3.655,0,0,1-.928,2.485,7.394,7.394,0,0,1-2.562,1.8,18.215,18.215,0,0,1-3.846,1.194,41.938,41.938,0,0,1-4.782.677v.237a11.11,11.11,0,0,0,.454,3.267,8.11,8.11,0,0,0,1.25,2.534,5.843,5.843,0,0,0,1.871,1.64,4.764,4.764,0,0,0,2.318.586,6.023,6.023,0,0,0,2.576-.621A9.413,9.413,0,0,0,75.919-116.06Zm-2.625-11.211a3.294,3.294,0,0,0-.216-1.2,2.991,2.991,0,0,0-.6-.97,2.8,2.8,0,0,0-.914-.649,2.771,2.771,0,0,0-1.145-.237,4.1,4.1,0,0,0-1.647.321,4.587,4.587,0,0,0-1.326.873,6.131,6.131,0,0,0-1.033,1.284,9.459,9.459,0,0,0-.761,1.557,12.4,12.4,0,0,0-.51,1.689,14.188,14.188,0,0,0-.279,1.689,25.077,25.077,0,0,0,3.553-.482,11.491,11.491,0,0,0,2.653-.88,4.63,4.63,0,0,0,1.654-1.284A2.736,2.736,0,0,0,73.294-127.271Zm11.793-21.792q-.279,2.374-.551,4.866t-.517,5.04q-.244,2.548-.454,5.117t-.363,5.061q-.154,2.492-.237,4.894t-.084,4.607q0,1.382.035,2.373t.112,1.675a5.975,5.975,0,0,0,.209,1.1,1.8,1.8,0,0,0,.328.642.959.959,0,0,0,.461.3,2.275,2.275,0,0,0,.628.077,5.737,5.737,0,0,0,1.445-.2,9.692,9.692,0,0,0,1.571-.565l.265.726a8.758,8.758,0,0,1-1.264.824,16.356,16.356,0,0,1-1.6.768,13.214,13.214,0,0,1-1.64.565,5.456,5.456,0,0,1-1.389.216,1.752,1.752,0,0,1-1.194-.384,2.459,2.459,0,0,1-.67-1.25,10.962,10.962,0,0,1-.293-2.255q-.063-1.389-.063-3.386,0-.726.042-2.073t.119-3.134q.077-1.787.175-3.909t.209-4.391q.112-2.269.237-4.579t.251-4.468q.126-2.157.237-4.07t.209-3.379a1.018,1.018,0,0,1,.2-.579,1.325,1.325,0,0,1,.468-.391,2.426,2.426,0,0,1,.642-.216,3.726,3.726,0,0,1,.719-.07A4.035,4.035,0,0,1,85.087-149.063Z" transform="translate(-9.853 149.51)" fill="#fff"/>
  </g>
  <g id="Group_384" data-name="Group 384" transform="translate(81.066)">
    <g id="Group_379" data-name="Group 379">
      <path id="Polygon_14" data-name="Polygon 14" d="M24.343,0a6.977,6.977,0,0,1,4.932,2.043L36.47,9.238a6.977,6.977,0,0,1,2.043,4.933V24.343a6.977,6.977,0,0,1-2.044,4.934L29.276,36.47a6.977,6.977,0,0,1-4.933,2.043H14.171a6.977,6.977,0,0,1-4.932-2.043L2.043,29.276A6.977,6.977,0,0,1,0,24.343V14.171A6.977,6.977,0,0,1,2.043,9.238L9.238,2.043A6.977,6.977,0,0,1,14.171,0Z" fill="#4b4b4c"/>
      <path id="Polygon_14-2" data-name="Polygon 14" d="M8.409-5v0h.82v.41H8.41q-.123,0-.245,0l-.016-.41Q8.279-5,8.409-5Zm1.64,0h.82v.41h-.82Zm1.64,0h.82v.41h-.82Zm1.64,0h.82v.41h-.82Zm1.64,0h.82v.41h-.82Zm1.64,0h.82v.41h-.82Zm1.651.01a6.726,6.726,0,0,1,.839.1l-.074.4a6.314,6.314,0,0,0-.788-.094ZM7.308-4.909l.067.4a6.319,6.319,0,0,0-.773.179l-.118-.393A6.73,6.73,0,0,1,7.308-4.909Zm12.611.224a6.733,6.733,0,0,1,.788.306l-.172.372a6.322,6.322,0,0,0-.74-.288ZM5.692-4.425l.166.375a6.32,6.32,0,0,0-.7.367l-.212-.351A6.731,6.731,0,0,1,5.692-4.425Zm15.758.449a6.729,6.729,0,0,1,.686.493l-.26.317a6.316,6.316,0,0,0-.644-.463Zm-17.2.424.254.321a6.322,6.322,0,0,0-.545.485L3.911-2.7l-.29-.29.047-.047A6.734,6.734,0,0,1,4.248-3.552Zm18.505.64.58.58-.29.29-.58-.58Zm-19.712.5.29.29-.58.58-.29-.29Zm20.872.656.58.58-.29.29-.58-.58Zm-22.031.5.29.29-.58.58L1.3-.67Zm23.191.656.58.58-.29.29-.58-.58ZM.722-.09l.29.29L.432.78.142.49Zm25.51.656.58.58-.29.29-.58-.58Zm-26.67.5.29.29-.58.58-.29-.29Zm27.829.656.58.58-.29.29-.58-.58Zm-28.989.5.29.29-.58.58-.29-.29Zm30.148.656.58.58-.29.29-.58-.58Zm-31.308.5.29.29-.28.279q-.146.146-.281.3l-.308-.27q.144-.164.3-.32Zm32.463.683a6.73,6.73,0,0,1,.505.678l-.344.224a6.318,6.318,0,0,0-.474-.636Zm-33.558.585.34.229a6.319,6.319,0,0,0-.4.684l-.366-.185A6.731,6.731,0,0,1-3.852,4.657Zm34.479.828a6.733,6.733,0,0,1,.32.782l-.388.131a6.321,6.321,0,0,0-.3-.735Zm-35.24.678.386.137a6.319,6.319,0,0,0-.218.763l-.4-.088A6.731,6.731,0,0,1-4.612,6.163Zm35.778.921a6.73,6.73,0,0,1,.115.837l-.409.03a6.319,6.319,0,0,0-.108-.786Zm-36.139.727.408.037q-.025.279-.025.562v.239H-5V8.409Q-5,8.109-4.973,7.811Zm35.862.945h.41v.82h-.41ZM-5,9.469h.41v.82H-5Zm35.888.927h.41v.82h-.41ZM-5,11.109h.41v.82H-5Zm35.888.927h.41v.82h-.41ZM-5,12.749h.41v.82H-5Zm35.888.927h.41v.82h-.41ZM-5,14.388h.41v.82H-5Zm35.888.927h.41v.82h-.41ZM-5,16.028h.41v.82H-5Zm35.888.927h.41v.82h-.41ZM-5,17.668h.41v.22c0,.193.009.388.027.58l-.408.038C-4.99,18.3-5,18.094-5,17.889Zm35.851.9.408.044a6.729,6.729,0,0,1-.144.833l-.4-.1A6.317,6.317,0,0,0,30.851,18.572Zm-35.292.68a6.32,6.32,0,0,0,.22.762l-.386.138a6.731,6.731,0,0,1-.235-.812Zm34.923.86.384.145a6.732,6.732,0,0,1-.348.77l-.362-.192A6.321,6.321,0,0,0,30.483,20.112Zm-34.388.631a6.319,6.319,0,0,0,.4.683l-.339.23a6.73,6.73,0,0,1-.43-.728Zm33.647.769.335.236a6.73,6.73,0,0,1-.529.659l-.3-.276A6.317,6.317,0,0,0,29.741,21.512Zm-32.757.541q.13.147.269.287l.292.292-.29.29-.292-.292q-.149-.149-.287-.305Zm31.692.655.29.29-.58.58-.29-.29Zm-30.55.5.58.58-.29.29-.58-.58Zm29.39.656.29.29-.58.58-.29-.29Zm-28.231.5.58.58-.29.29-.58-.58Zm27.071.656.29.29-.58.58-.29-.29Zm-25.912.5.58.58-.29.29-.58-.58Zm24.752.656.29.29-.58.58-.29-.29Zm-23.592.5.58.58-.29.29-.58-.58Zm22.433.656.29.29-.58.58-.29-.29Zm-21.273.5.58.58-.29.29-.58-.58Zm20.114.656.29.29-.581.581-.287-.293.041-.041Zm-18.954.5.034.034a6.321,6.321,0,0,0,.558.5l-.254.322a6.734,6.734,0,0,1-.595-.528L3.634,29.3ZM21.7,29.6l.248.326a6.73,6.73,0,0,1-.7.468l-.205-.355A6.318,6.318,0,0,0,21.7,29.6ZM5.17,29.991a6.321,6.321,0,0,0,.7.365l-.165.375a6.732,6.732,0,0,1-.751-.388Zm15.158.406.159.378a6.732,6.732,0,0,1-.8.278l-.11-.395A6.323,6.323,0,0,0,20.328,30.4ZM6.62,30.628a6.316,6.316,0,0,0,.774.177l-.066.4a6.729,6.729,0,0,1-.824-.189Zm12.182.193.06.406a6.73,6.73,0,0,1-.842.07l-.008-.41A6.32,6.32,0,0,0,18.8,30.822Zm-10.619.063q.113,0,.226,0H9v.41H8.41q-.121,0-.241,0Zm1.632,0h.82v.41h-.82Zm1.64,0h.82v.41h-.82Zm1.64,0h.82v.41H13.1Zm1.64,0h.82v.41h-.82Zm1.64,0h.82v.41h-.82Z" transform="translate(6.117 6.117)" fill="url(#linear-gradient)"/>
    </g>
    <g id="Group_404" data-name="Group 404" transform="translate(5.842 5.917)">
      <g id="Group_395" data-name="Group 395" transform="translate(0 0)">
        <path id="Path_198" data-name="Path 198" d="M0,120H2.475v14.985H0Z" transform="translate(20.537 -111.972)" fill="url(#linear-gradient-2)"/>
        <path id="Path_196" data-name="Path 196" d="M-8029.493,9668.451-8041,9691.4h2.295l11.549-22.984Z" transform="translate(8041 -9668.385)" fill="url(#linear-gradient-3)"/>
        <path id="Path_197" data-name="Path 197" d="M-8038.983,9668.467l9.186,22.98h-2.428s-7.369-17.209-9.1-22.945Z" transform="translate(8052.81 -9668.436)" fill="#f88136"/>
        <path id="Shape_2" data-name="Shape 2" d="M654,429.409s6.481-16.519,24.025-11.818c0,0-15.7-1.9-21.75,11.818Z" transform="translate(-654 -406.396)" fill="#f88136" stroke="rgba(0,0,0,0)" stroke-width="1"/>
        <g id="Group_394" data-name="Group 394" transform="translate(18.437)">
          <path id="Path_33" data-name="Path 33" d="M.26,0a.27.27,0,0,1,.26.28V2.691a.27.27,0,0,1-.26.28A.27.27,0,0,1,0,2.691V.28A.27.27,0,0,1,.26,0Z" transform="translate(3.087 0)" fill="#3def65"/>
          <circle id="Ellipse_25" data-name="Ellipse 25" cx="0.906" cy="0.906" r="0.906" transform="translate(2.478 2.61)" fill="#3def65"/>
          <path id="Path_34" data-name="Path 34" d="M.263,0A.294.294,0,0,1,.546.276l.083,2.3a.248.248,0,0,1-.263.257.294.294,0,0,1-.283-.276L0,.257A.248.248,0,0,1,.263,0Z" transform="translate(5.931 1.213) rotate(54)" fill="#3def65"/>
          <path id="Path_35" data-name="Path 35" d="M.263,2.83a.294.294,0,0,0,.283-.276L.629.257A.248.248,0,0,0,.366,0,.294.294,0,0,0,.083.276L0,2.573A.248.248,0,0,0,.263,2.83Z" transform="matrix(-0.588, 0.809, -0.809, -0.588, 3.046, 2.876)" fill="#3def65"/>
          <path id="Path_36" data-name="Path 36" d="M.275,2.764A.28.28,0,0,0,.558,2.5L.594.256A.26.26,0,0,0,.319,0,.28.28,0,0,0,.036.265L0,2.508A.26.26,0,0,0,.275,2.764Z" transform="translate(3.889 3.906) rotate(-78)" fill="#3def65"/>
          <path id="Path_38" data-name="Path 38" d="M.256,2.926a.291.291,0,0,0,.272-.284L.6.268A.251.251,0,0,0,.343,0,.291.291,0,0,0,.071.284L0,2.659A.251.251,0,0,0,.256,2.926Z" transform="matrix(0.891, -0.454, 0.454, 0.891, 3.329, 4.101)" fill="#3def65"/>
          <path id="Path_37" data-name="Path 37" d="M.275,0A.28.28,0,0,1,.558.265L.594,2.508a.26.26,0,0,1-.275.256A.28.28,0,0,1,.036,2.5L0,.256A.26.26,0,0,1,.275,0Z" transform="matrix(-0.208, -0.978, 0.978, -0.208, 0.123, 4.481)" fill="#3def65"/>
          <path id="Path_39" data-name="Path 39" d="M.256,0A.291.291,0,0,1,.528.284L.6,2.659a.251.251,0,0,1-.256.268.291.291,0,0,1-.272-.284L0,.268A.251.251,0,0,1,.256,0Z" transform="matrix(-0.891, -0.454, 0.454, -0.891, 2.105, 6.716)" fill="#3def65"/>
          <path id="Path_40" data-name="Path 40" d="M2.431.575A1.866,1.866,0,1,0,4.29,2.442,1.864,1.864,0,0,0,2.431.575m0-.575A2.442,2.442,0,1,1,0,2.442,2.437,2.437,0,0,1,2.431,0Z" transform="translate(0.952 1.064)" fill="#3def65"/>
        </g>
      </g>
    </g>
  </g>
</svg>
