<svg xmlns="http://www.w3.org/2000/svg" xmlns:xlink="http://www.w3.org/1999/xlink" width="403.191" height="128.359" viewBox="0 0 403.191 128.359">
  <defs>
    <linearGradient id="linear-gradient" x1="0.309" y1="0.04" x2="0.69" y2="0.962" gradientUnits="objectBoundingBox">
      <stop offset="0" stop-color="#f88136"/>
      <stop offset="0.171" stop-color="#3def65"/>
      <stop offset="0.485" stop-color="#a06ef8"/>
      <stop offset="0.904" stop-color="#3ddeae"/>
      <stop offset="1" stop-color="#efda3d"/>
    </linearGradient>
    <linearGradient id="linear-gradient-2" x1="0.5" y1="0.5" x2="0.5" y2="1" gradientUnits="objectBoundingBox">
      <stop offset="0" stop-color="#3def65"/>
      <stop offset="1" stop-color="#087621"/>
    </linearGradient>
    <linearGradient id="linear-gradient-3" x1="0.912" x2="0.092" y2="0.995" gradientUnits="objectBoundingBox">
      <stop offset="0" stop-color="#0a7a23"/>
      <stop offset="0.196" stop-color="#3def65"/>
      <stop offset="0.66" stop-color="#3def65"/>
      <stop offset="1" stop-color="#036b1b"/>
    </linearGradient>
  </defs>
  <g id="IntelOps_Logo" data-name="IntelOps Logo" transform="translate(-0.002)">
    <g id="Group_7096" data-name="Group 7096" transform="translate(0.002 0.177)">
      <g id="Group_7095" data-name="Group 7095" transform="translate(306.521 43.88)">
        <path id="Path_23778" data-name="Path 23778" d="M-2.057-78.947q3.8-1.151,6.474-1.864T8.908-81.93q1.814-.408,2.848-.559a11.653,11.653,0,0,1,1.543-.154,4.9,4.9,0,0,1,1.593.254,3.116,3.116,0,0,1,1.305.864,4.12,4.12,0,0,1,.864,1.643,9.174,9.174,0,0,1,.3,2.561q0,.509-.05,2.008t-.187,4.12q-.137,2.628-.355,6.44t-.566,8.957l.408.033a80.475,80.475,0,0,1,5.717-11.645,53.968,53.968,0,0,1,6.239-8.525A26.349,26.349,0,0,1,34.9-81.17a12.247,12.247,0,0,1,6-1.781,9.128,9.128,0,0,1,4.067.864,10.1,10.1,0,0,1,3.069,2.306,13.335,13.335,0,0,1,2.186,3.324,23.281,23.281,0,0,1,1.423,3.933,28.9,28.9,0,0,1,.78,4.154,35.166,35.166,0,0,1,.238,3.933,40.786,40.786,0,0,1-1,9.322,37.637,37.637,0,0,1-2.778,7.95,31.053,31.053,0,0,1-4.171,6.457,27.183,27.183,0,0,1-5.218,4.793,23.171,23.171,0,0,1-5.864,2.982A19.164,19.164,0,0,1,27.472-31.9a17.877,17.877,0,0,1-6.407-1.185,16.736,16.736,0,0,1-5.861-3.93q-.372,8.509-.746,17.576T14.046-.5L6.927.311,6.214.278q.509-6.34.957-13.305t.807-13.985q.372-7.029.669-13.814T9.18-53.589q.2-5.965.335-10.832t.117-8.05a16.424,16.424,0,0,0-.137-2.256,4.224,4.224,0,0,0-.526-1.61A2.393,2.393,0,0,0,7.834-77.3a5.02,5.02,0,0,0-1.965-.335,20.973,20.973,0,0,0-3.053.271q-1.8.271-4.351.914ZM15.506-40.709a21.282,21.282,0,0,0,5.747,3.595A15.291,15.291,0,0,0,27-35.962a15.364,15.364,0,0,0,7-1.627,15.354,15.354,0,0,0,5.526-4.8,24.338,24.338,0,0,0,3.628-7.883,40.87,40.87,0,0,0,1.305-10.9,32.878,32.878,0,0,0-.355-4.746,20.585,20.585,0,0,0-1.118-4.425,9.466,9.466,0,0,0-2.008-3.254,4.017,4.017,0,0,0-3.012-1.272,8.747,8.747,0,0,0-4.1,1.068,17.834,17.834,0,0,0-3.95,2.882,30.123,30.123,0,0,0-3.662,4.271,57.8,57.8,0,0,0-3.324,5.171,62.475,62.475,0,0,0-2.848,5.627q-1.289,2.9-2.256,5.643a53.857,53.857,0,0,0-1.56,5.188,30.058,30.058,0,0,0-.756,4.3Zm49.873-5.255a10.226,10.226,0,0,0,1.372,4.442,10.233,10.233,0,0,0,2.8,3.053,11.9,11.9,0,0,0,3.682,1.764,14.563,14.563,0,0,0,4.017.576,12.668,12.668,0,0,0,3.595-.509A10.042,10.042,0,0,0,83.9-38.1a7.364,7.364,0,0,0,2.119-2.343,6.159,6.159,0,0,0,.8-3.12,5.824,5.824,0,0,0-.847-3.153,9.707,9.707,0,0,0-2.273-2.474,19.687,19.687,0,0,0-3.3-2.069q-1.881-.951-3.916-1.931L72.86-54.9q-1.814-.864-3.508-1.881a28.154,28.154,0,0,1-3.17-2.2,15.294,15.294,0,0,1-2.577-2.628,11.617,11.617,0,0,1-1.731-3.22,11.819,11.819,0,0,1-.626-3.95,11.153,11.153,0,0,1,.817-4.291,12.4,12.4,0,0,1,2.219-3.541,15.732,15.732,0,0,1,3.253-2.761,21.173,21.173,0,0,1,3.95-1.982,23.766,23.766,0,0,1,4.321-1.185,24.975,24.975,0,0,1,4.321-.388,21.544,21.544,0,0,1,5.135.592A14.362,14.362,0,0,1,89.5-80.6a9.251,9.251,0,0,1,2.882,2.761,6.527,6.527,0,0,1,1.068,3.662,6,6,0,0,1-.271,1.694,4.944,4.944,0,0,1-.914,1.71,5.215,5.215,0,0,1-1.694,1.339A5.862,5.862,0,0,1,88-68.862a10.968,10.968,0,0,1-2.982-.442l-.1-.335a11.005,11.005,0,0,0,.669-2.008,7.849,7.849,0,0,0,.2-1.694,4.582,4.582,0,0,0-.8-2.628,6.166,6.166,0,0,0-1.915-1.747,8.607,8.607,0,0,0-2.561-.984,13.01,13.01,0,0,0-2.761-.3,13.366,13.366,0,0,0-4.3.643,10.158,10.158,0,0,0-3.2,1.71,7.625,7.625,0,0,0-2.008,2.423,6.1,6.1,0,0,0-.7,2.815,5.885,5.885,0,0,0,.984,3.347,11.334,11.334,0,0,0,2.611,2.711,25.008,25.008,0,0,0,3.746,2.323Q77-61.947,79.307-60.862q2.577,1.222,5.118,2.527a24.813,24.813,0,0,1,4.542,2.966A14.021,14.021,0,0,1,92.2-51.557a9.995,9.995,0,0,1,1.238,5.068,12.328,12.328,0,0,1-1.543,6.2,14.36,14.36,0,0,1-4.12,4.576A19,19,0,0,1,81.864-32.9a24.816,24.816,0,0,1-6.932.967,26.483,26.483,0,0,1-3.712-.271,24.9,24.9,0,0,1-3.712-.813A22.015,22.015,0,0,1,64.1-34.359a13.431,13.431,0,0,1-2.815-1.831,8.271,8.271,0,0,1-1.9-2.306,5.734,5.734,0,0,1-.7-2.8,4.214,4.214,0,0,1,.559-2.236,4.539,4.539,0,0,1,1.476-1.493,7.1,7.1,0,0,1,2.052-.864,10.648,10.648,0,0,1,2.323-.335Z" transform="translate(2.673 83.474)" fill="#fff"/>
        <path id="Path_23779" data-name="Path 23779" d="M39.767-84.45a9.708,9.708,0,0,1,4.3.917,10.671,10.671,0,0,1,3.227,2.423,13.92,13.92,0,0,1,2.273,3.451,23.914,23.914,0,0,1,1.456,4.017,29.569,29.569,0,0,1,.793,4.228,35.858,35.858,0,0,1,.241,3.99,41.505,41.505,0,0,1-1.031,9.442,38.337,38.337,0,0,1-2.818,8.06,31.721,31.721,0,0,1-4.241,6.567,27.835,27.835,0,0,1-5.305,4.89,23.806,23.806,0,0,1-6,3.049,19.775,19.775,0,0,1-6.32,1.061,18.484,18.484,0,0,1-6.594-1.222,16.763,16.763,0,0,1-5.2-3.25c-.231,5.3-.465,10.818-.7,16.425-.248,6.025-.385,12.385-.405,18.915v.465L5.817-.15l-1.3-.06.044-.542c.335-4.2.669-8.676.947-13.3s.566-9.322.813-13.978.475-9.3.669-13.811S7.37-50.64,7.5-54.6s.244-7.6.335-10.825.117-5.928.117-8.033a15.986,15.986,0,0,0-.131-2.182,3.729,3.729,0,0,0-.455-1.412,1.864,1.864,0,0,0-.894-.756,4.549,4.549,0,0,0-1.757-.278,20.558,20.558,0,0,0-2.972.264c-1.175.177-2.618.482-4.288.9l-.536.134L-3.8-80.289l.459-.137c2.524-.767,4.71-1.4,6.494-1.871s3.3-.854,4.512-1.125,2.186-.462,2.885-.566a12,12,0,0,1,1.62-.157,5.448,5.448,0,0,1,1.764.281,3.648,3.648,0,0,1,1.523,1,4.653,4.653,0,0,1,.981,1.851,9.731,9.731,0,0,1,.335,2.708c0,.335,0,1-.05,2.008s-.1,2.383-.187,4.127-.211,3.913-.355,6.443c-.117,2.035-.261,4.381-.432,7a78.514,78.514,0,0,1,5.021-9.948,54.745,54.745,0,0,1,6.289-8.579,26.988,26.988,0,0,1,6.45-5.356,15.5,15.5,0,0,1,3.187-1.382A10.828,10.828,0,0,1,39.767-84.45ZM26.345-33.4a18.745,18.745,0,0,0,5.985-1,22.761,22.761,0,0,0,5.734-2.915,26.778,26.778,0,0,0,5.1-4.706,30.671,30.671,0,0,0,4.1-6.36,37.286,37.286,0,0,0,2.741-7.839,40.452,40.452,0,0,0,1-9.2A34.811,34.811,0,0,0,50.78-69.3a28.51,28.51,0,0,0-.767-4.077,22.862,22.862,0,0,0-1.392-3.843,12.874,12.874,0,0,0-2.1-3.193A9.627,9.627,0,0,0,43.613-82.6a8.653,8.653,0,0,0-3.836-.81,11.792,11.792,0,0,0-5.744,1.71,25.955,25.955,0,0,0-6.192,5.135,53.7,53.7,0,0,0-6.176,8.442,80.332,80.332,0,0,0-5.69,11.568l-.144.358-1.309-.11.033-.515c.224-3.418.412-6.433.559-8.964s.264-4.686.355-6.437.154-3.123.187-4.11.05-1.65.05-1.982a8.7,8.7,0,0,0-.285-2.41,3.625,3.625,0,0,0-.746-1.439,2.574,2.574,0,0,0-1.088-.723,4.4,4.4,0,0,0-1.423-.228,11.256,11.256,0,0,0-1.459.174c-.669.1-1.62.285-2.808.552s-2.7.643-4.472,1.115c-1.674.442-3.682,1-6,1.72l.3,1.5c1.479-.362,2.775-.629,3.856-.793a21.581,21.581,0,0,1,3.13-.278,5.479,5.479,0,0,1,2.176.365,2.919,2.919,0,0,1,1.376,1.175,4.76,4.76,0,0,1,.6,1.808A17.021,17.021,0,0,1,9-73.431c0,2.119-.04,4.833-.117,8.063S8.7-58.492,8.551-54.533s-.3,8.241-.5,12.763-.432,9.158-.669,13.817S6.854-18.6,6.576-13.988C6.3-9.559,5.991-5.265,5.669-1.215H5.8l6.6-.723c.027-6.39.164-12.606.405-18.487.248-6.025.5-11.929.746-17.58L13.6-39.2l.843.843a16.308,16.308,0,0,0,5.69,3.813A17.436,17.436,0,0,0,26.345-33.4ZM78.99-84.45a22.166,22.166,0,0,1,5.262.609,14.952,14.952,0,0,1,4.392,1.794,9.814,9.814,0,0,1,3.043,2.919,7.073,7.073,0,0,1,1.155,3.95,6.545,6.545,0,0,1-.291,1.844,5.489,5.489,0,0,1-1,1.894,5.76,5.76,0,0,1-1.861,1.476,6.4,6.4,0,0,1-2.8.636h0a11.541,11.541,0,0,1-3.126-.462l-.278-.077-.241-.8.077-.177a10.532,10.532,0,0,0,.646-1.9,7.364,7.364,0,0,0,.191-1.576,4.087,4.087,0,0,0-.7-2.343,5.69,5.69,0,0,0-1.754-1.6,8.124,8.124,0,0,0-2.4-.924,12.548,12.548,0,0,0-2.651-.295,12.905,12.905,0,0,0-4.137.616,9.687,9.687,0,0,0-3.039,1.62A7.139,7.139,0,0,0,67.6-74.994a5.6,5.6,0,0,0-.636,2.574,5.392,5.392,0,0,0,.894,3.049,10.865,10.865,0,0,0,2.49,2.584,24.594,24.594,0,0,0,3.682,2.273c1.4.716,2.885,1.446,4.408,2.162,1.717.813,3.444,1.674,5.135,2.534a25.439,25.439,0,0,1,4.639,3.029,14.611,14.611,0,0,1,3.347,3.956A10.557,10.557,0,0,1,92.868-47.5a14.213,14.213,0,0,1-.4,3.424,12.007,12.007,0,0,1-1.208,3.039A14.948,14.948,0,0,1,86.99-36.3a19.611,19.611,0,0,1-6.079,2.909,25.456,25.456,0,0,1-7.079.987,27.111,27.111,0,0,1-3.786-.278,25.549,25.549,0,0,1-3.789-.83,22.643,22.643,0,0,1-3.488-1.372,14.014,14.014,0,0,1-2.922-1.9,8.83,8.83,0,0,1-2.008-2.45,6.279,6.279,0,0,1-.76-3.049,4.746,4.746,0,0,1,.636-2.51,5.078,5.078,0,0,1,1.644-1.674,7.651,7.651,0,0,1,2.2-.931A11.226,11.226,0,0,1,64-47.734h.2l.582.512.02.208a9.754,9.754,0,0,0,1.262,4.241,9.758,9.758,0,0,0,2.654,2.9A11.435,11.435,0,0,0,72.239-38.2a14.109,14.109,0,0,0,3.873.556,12.206,12.206,0,0,0,3.434-.472A9.567,9.567,0,0,0,82.438-39.5a6.865,6.865,0,0,0,1.968-2.172,5.667,5.667,0,0,0,.726-2.858,5.335,5.335,0,0,0-.767-2.875,9.232,9.232,0,0,0-2.149-2.343A19.254,19.254,0,0,0,79-51.758c-1.245-.629-2.561-1.275-3.906-1.928L71.486-55.4c-1.218-.582-2.413-1.222-3.551-1.9a28.815,28.815,0,0,1-3.23-2.246,15.889,15.889,0,0,1-2.678-2.718,12.2,12.2,0,0,1-1.807-3.364,12.385,12.385,0,0,1-.669-4.124,11.716,11.716,0,0,1,.854-4.505,12.984,12.984,0,0,1,2.313-3.682,16.316,16.316,0,0,1,3.347-2.855,21.793,21.793,0,0,1,4.11-2.045,24.4,24.4,0,0,1,4.418-1.212A25.618,25.618,0,0,1,78.99-84.45Zm7.859,14.058a5.356,5.356,0,0,0,2.343-.519,4.72,4.72,0,0,0,1.526-1.2,4.445,4.445,0,0,0,.82-1.53,5.5,5.5,0,0,0,.251-1.546,6.025,6.025,0,0,0-.981-3.374,8.773,8.773,0,0,0-2.721-2.607A13.907,13.907,0,0,0,84-82.843a21.117,21.117,0,0,0-5.021-.579,24.577,24.577,0,0,0-4.231.382,23.344,23.344,0,0,0-4.228,1.161,20.752,20.752,0,0,0-3.853,1.935,15.268,15.268,0,0,0-3.146,2.678A11.936,11.936,0,0,0,61.4-73.873a10.681,10.681,0,0,0-.773,4.1,11.351,11.351,0,0,0,.6,3.776,11.146,11.146,0,0,0,1.65,3.076A14.837,14.837,0,0,0,65.36-60.38a27.761,27.761,0,0,0,3.11,2.162c1.111.669,2.276,1.292,3.464,1.858l3.608,1.71h0c1.339.669,2.678,1.305,3.923,1.935a20.3,20.3,0,0,1,3.394,2.122,10.273,10.273,0,0,1,2.393,2.611,6.36,6.36,0,0,1,.927,3.431,6.694,6.694,0,0,1-.867,3.381,7.909,7.909,0,0,1-2.269,2.5,10.611,10.611,0,0,1-3.21,1.536,13.252,13.252,0,0,1-3.742.529,15.159,15.159,0,0,1-4.161-.6,12.478,12.478,0,0,1-3.839-1.841,10.8,10.8,0,0,1-2.939-3.207,10.661,10.661,0,0,1-1.423-4.418,10.156,10.156,0,0,0-1.968.3,6.6,6.6,0,0,0-1.9.8,4.037,4.037,0,0,0-1.305,1.322,3.722,3.722,0,0,0-.482,1.965,5.242,5.242,0,0,0,.629,2.544,7.786,7.786,0,0,0,1.781,2.159,12.971,12.971,0,0,0,2.7,1.757,21.6,21.6,0,0,0,3.327,1.305,24.487,24.487,0,0,0,3.635.8,26.079,26.079,0,0,0,3.638.264,24.409,24.409,0,0,0,6.788-.944,18.568,18.568,0,0,0,5.754-2.751,13.9,13.9,0,0,0,3.97-4.412A11.866,11.866,0,0,0,91.773-47.5,9.526,9.526,0,0,0,90.6-52.31a13.563,13.563,0,0,0-3.116-3.682,24.407,24.407,0,0,0-4.448-2.9c-1.674-.864-3.4-1.71-5.1-2.517-1.533-.723-3.012-1.453-4.438-2.176a25.641,25.641,0,0,1-3.826-2.373A11.906,11.906,0,0,1,66.943-68.8a6.427,6.427,0,0,1-1.071-3.632,6.641,6.641,0,0,1,.753-3.053,8.18,8.18,0,0,1,2.136-2.591,10.711,10.711,0,0,1,3.367-1.8,13.949,13.949,0,0,1,4.475-.669,13.593,13.593,0,0,1,2.875.318,9.172,9.172,0,0,1,2.715,1.044,6.715,6.715,0,0,1,2.075,1.895,5.115,5.115,0,0,1,.894,2.922h0a8.411,8.411,0,0,1-.218,1.807,11.109,11.109,0,0,1-.589,1.814,10.243,10.243,0,0,0,2.494.365Zm-50-5.958a4.555,4.555,0,0,1,3.377,1.429,10.042,10.042,0,0,1,2.115,3.431,21.208,21.208,0,0,1,1.148,4.535,33.559,33.559,0,0,1,.362,4.823,49.842,49.842,0,0,1-.335,5.888,34.758,34.758,0,0,1-1,5.151,29.38,29.38,0,0,1-1.59,4.4A21.422,21.422,0,0,1,38.8-43.041a17.3,17.3,0,0,1-2.624,2.879,15,15,0,0,1-3.093,2.079,15.444,15.444,0,0,1-3.471,1.252,16.831,16.831,0,0,1-3.766.415,15.879,15.879,0,0,1-5.941-1.192,21.9,21.9,0,0,1-5.891-3.682l-.208-.177.023-.271a30.722,30.722,0,0,1,.8-4.382c.4-1.637.927-3.4,1.573-5.238s1.409-3.746,2.269-5.69a63.292,63.292,0,0,1,2.872-5.69,58.6,58.6,0,0,1,3.347-5.218,30.794,30.794,0,0,1,3.742-4.328A18.44,18.44,0,0,1,32.5-75.252,9.3,9.3,0,0,1,36.852-76.35ZM25.87-37.465a14.915,14.915,0,0,0,6.765-1.553,14.9,14.9,0,0,0,5.339-4.636,23.929,23.929,0,0,0,3.545-7.7A40.541,40.541,0,0,0,42.8-62.111a32.5,32.5,0,0,0-.335-4.686,20.16,20.16,0,0,0-1.088-4.311,8.991,8.991,0,0,0-1.888-3.076A3.5,3.5,0,0,0,36.869-75.3a8.267,8.267,0,0,0-3.859,1,17.406,17.406,0,0,0-3.833,2.8,29.736,29.736,0,0,0-3.615,4.181,57.556,57.556,0,0,0-3.294,5.121,62.259,62.259,0,0,0-2.825,5.58c-.85,1.911-1.6,3.8-2.239,5.607s-1.155,3.535-1.543,5.138a30.707,30.707,0,0,0-.723,3.956,20.618,20.618,0,0,0,5.392,3.347,14.838,14.838,0,0,0,5.54,1.1Z" transform="translate(3.8 84.452)" fill="#fff"/>
      </g>
      <path id="Path_23780" data-name="Path 23780" d="M21.7-122.871c0-1.091-.054-3.089-.157-3.869a3.946,3.946,0,0,0-.716-1.9,3.133,3.133,0,0,0-1.587-1.064,9.185,9.185,0,0,0-2.738-.335q-1.151,0-2.825.12t-3.488.4l-.335-2.892q5.125-1.339,8.8-1.951a37.483,37.483,0,0,1,6.082-.626,8.2,8.2,0,0,1,3.538.609,3.816,3.816,0,0,1,1.814,1.814,7.912,7.912,0,0,1,.669,2.945q.1,1.744.1,3.973,0,.766-.087,4.1t-.244,8.542q-.157,5.212-.365,11.976t-.435,14.393q-.228,7.618-.472,15.732t-.489,16.067l-8.261,1.044-.626.285c.278-6.671.529-13.339.75-19.3s.412-11.759.576-17.405.285-11.213.365-16.736S21.7-117.06,21.7-122.871ZM49.794-94.929a11.715,11.715,0,0,0-.208-2.407,3.906,3.906,0,0,0-.646-1.55,2.39,2.39,0,0,0-1.1-.82,4.538,4.538,0,0,0-1.57-.244,15.628,15.628,0,0,0-3.012.335q-1.744.335-3.973.941l-.522-2.51q2.474-.87,4.76-1.587t4.2-1.238q1.918-.522,3.381-.8a13.094,13.094,0,0,1,2.3-.278,4.124,4.124,0,0,1,3.156,1.2,5.975,5.975,0,0,1,1.131,4.13q0,.335-.07,1.62t-.191,3.223q-.121,1.951-.3,4.479t-.4,5.386q-.228,2.858-.505,5.908t-.592,6.082l.208.033a97.442,97.442,0,0,1,5.69-15.183A52.733,52.733,0,0,1,67.7-98.253a22.176,22.176,0,0,1,6.239-5.56,12.315,12.315,0,0,1,5.928-1.707,9.96,9.96,0,0,1,3.766.733,8.54,8.54,0,0,1,3.223,2.343,11.762,11.762,0,0,1,2.249,4.13,19.605,19.605,0,0,1,.837,6.119q0,1.044-.121,2.8t-.3,3.923q-.174,2.162-.4,4.586t-.4,4.76q-.174,2.343-.3,4.445t-.121,3.682a34.941,34.941,0,0,0,.228,4.428,8.211,8.211,0,0,0,.75,2.7,2.818,2.818,0,0,0,1.4,1.359,5.493,5.493,0,0,0,2.125.365,15.005,15.005,0,0,0,3.766-.505,23.988,23.988,0,0,0,3.94-1.413l.669,1.814a21.5,21.5,0,0,1-3.173,2.059,41.483,41.483,0,0,1-4.017,1.918,31.889,31.889,0,0,1-4.2,1.412,15,15,0,0,1-3.682.539,4.167,4.167,0,0,1-2.962-1,6.186,6.186,0,0,1-1.62-2.755,17.908,17.908,0,0,1-.7-4.08q-.157-2.343-.157-5.021,0-3.277.228-6.745t.505-6.607q.278-3.136.505-5.69t.228-4.1a9.633,9.633,0,0,0-1.533-6.025,4.944,4.944,0,0,0-4.08-1.935,7.1,7.1,0,0,0-4.254,1.707,23.5,23.5,0,0,0-4.445,4.686,47.768,47.768,0,0,0-4.254,7.029,72.529,72.529,0,0,0-3.682,8.786,80.473,80.473,0,0,0-2.718,9.884,68.239,68.239,0,0,0-1.359,10.32l-7.287.907-.559-.033q.278-3.31.522-7.217t.452-7.93q.208-4.017.365-7.983t.278-7.391q.12-3.434.174-6.152t.04-4.268Zm72.678-35.631q-1.463,6.624-2.457,13.683t-1.69,13.928q1.64.07,3.19.1l2.892.07q1.339.033,2.44.033h1.831a28.761,28.761,0,0,0,5.195-.385q.174.592.278,1.081a4.351,4.351,0,0,1,.1.907,1.888,1.888,0,0,1-1.272,1.988,11.5,11.5,0,0,1-3.682.452q-2.3,0-5.141-.278t-6.222-.522q-.385,3.729-.646,7.27t-.418,6.678q-.157,3.136-.228,5.821t-.07,4.686a51.736,51.736,0,0,0,.385,6.658,16.478,16.478,0,0,0,1.359,4.967A7.32,7.32,0,0,0,121-60.3a7.95,7.95,0,0,0,4.321,1.081,15.431,15.431,0,0,0,4.2-.669,32.1,32.1,0,0,0,5.282-2.125,3.682,3.682,0,0,1,1.081,2.3q-2.162,1.429-4.351,2.6a41.885,41.885,0,0,1-4.321,2.008,28.678,28.678,0,0,1-4.114,1.289,16.954,16.954,0,0,1-3.766.452,10.46,10.46,0,0,1-4.271-.853,7.8,7.8,0,0,1-3.347-3.033,17.559,17.559,0,0,1-2.2-5.874,46.167,46.167,0,0,1-.783-9.342q0-3.173.1-6.537t.278-6.815q.174-3.451.452-6.9t.626-6.8q-2.755.033-5.108.228a25.338,25.338,0,0,0-4.017.609,1.078,1.078,0,0,1-.1-.489,1.858,1.858,0,0,1,.716-1.376,6.842,6.842,0,0,1,1.988-1.168,16.4,16.4,0,0,1,3.049-.87,30.852,30.852,0,0,1,3.906-.489q.8-7.287,1.707-13.77t1.814-11.575a3.4,3.4,0,0,1,.646-1.5,3.682,3.682,0,0,1,1.1-.941,4.525,4.525,0,0,1,1.359-.489,7.64,7.64,0,0,1,1.429-.141,8.127,8.127,0,0,1,2.075.244,7.252,7.252,0,0,1,1.721.686ZM174.806-66q.211.1.539.3a4.682,4.682,0,0,1,.609.418,3.23,3.23,0,0,1,.489.489.82.82,0,0,1,.208.505.462.462,0,0,1-.1.278,28.758,28.758,0,0,1-4.2,4.723,25.872,25.872,0,0,1-4.686,3.347,20.9,20.9,0,0,1-4.934,1.988,19.838,19.838,0,0,1-4.951.646,17.191,17.191,0,0,1-7.668-1.707,18.37,18.37,0,0,1-5.995-4.686,21.981,21.981,0,0,1-3.923-6.956,25.482,25.482,0,0,1-1.413-8.559,34.687,34.687,0,0,1,.82-7.461,35.018,35.018,0,0,1,2.37-7.113,32.767,32.767,0,0,1,3.782-6.293,26.446,26.446,0,0,1,5.071-5.054,23.446,23.446,0,0,1,6.239-3.364,21.459,21.459,0,0,1,7.3-1.222,17.1,17.1,0,0,1,4.917.7,13.072,13.072,0,0,1,4.1,2.008,9.841,9.841,0,0,1,2.8,3.223,8.95,8.95,0,0,1,1.044,4.351,9.128,9.128,0,0,1-2.32,6.206,18.464,18.464,0,0,1-6.4,4.5,45.487,45.487,0,0,1-9.6,2.982,104.719,104.719,0,0,1-11.94,1.69v.592a27.742,27.742,0,0,0,1.131,8.157,20.25,20.25,0,0,0,3.12,6.326,14.591,14.591,0,0,0,4.686,4.1,11.9,11.9,0,0,0,5.787,1.463,15.039,15.039,0,0,0,6.433-1.55A23.5,23.5,0,0,0,174.816-66Zm-6.544-28A8.225,8.225,0,0,0,167.723-97a7.467,7.467,0,0,0-1.5-2.423,6.986,6.986,0,0,0-2.283-1.62,6.917,6.917,0,0,0-2.859-.593,10.23,10.23,0,0,0-4.114.8,11.455,11.455,0,0,0-3.31,2.179,15.307,15.307,0,0,0-2.581,3.207,23.622,23.622,0,0,0-1.9,3.886,30.961,30.961,0,0,0-1.272,4.217,35.431,35.431,0,0,0-.7,4.217,62.625,62.625,0,0,0,8.873-1.2,28.7,28.7,0,0,0,6.624-2.2,11.561,11.561,0,0,0,4.13-3.207,6.832,6.832,0,0,0,1.426-4.258Zm29.455-54.416q-.7,5.928-1.376,12.15t-1.289,12.585q-.609,6.36-1.131,12.776t-.907,12.639q-.385,6.222-.592,12.221t-.208,11.5q0,3.451.087,5.928t.278,4.184a14.924,14.924,0,0,0,.522,2.755,4.482,4.482,0,0,0,.82,1.6,2.4,2.4,0,0,0,1.151.75,5.689,5.689,0,0,0,1.57.191,14.325,14.325,0,0,0,3.608-.505,24.206,24.206,0,0,0,3.923-1.413l.669,1.814a21.873,21.873,0,0,1-3.156,2.058,40.824,40.824,0,0,1-3.993,1.918,33.01,33.01,0,0,1-4.1,1.412,13.626,13.626,0,0,1-3.468.539,4.375,4.375,0,0,1-2.982-.957,6.142,6.142,0,0,1-1.674-3.12A27.371,27.371,0,0,1,184.74-63q-.157-3.468-.157-8.455,0-1.814.1-5.178t.3-7.826q.191-4.462.435-9.76t.522-10.965q.278-5.664.592-11.434t.626-11.156q.315-5.386.592-10.162t.522-8.438a2.544,2.544,0,0,1,.472-1.436,3.308,3.308,0,0,1,1.168-.977,6.062,6.062,0,0,1,1.6-.539,9.3,9.3,0,0,1,1.794-.174,10.074,10.074,0,0,1,4.4,1.1Z" transform="translate(-9.855 149.505)" fill="#fff"/>
    </g>
    <g id="Group_7100" data-name="Group 7100" transform="translate(202.418 0)">
      <path id="Path_23781" data-name="Path 23781" d="M60.785,0A17.406,17.406,0,0,1,73.1,5.1L91.068,23.066a17.405,17.405,0,0,1,5.1,12.318v25.4a17.406,17.406,0,0,1-5.1,12.321L73.1,91.068a17.405,17.405,0,0,1-12.318,5.1h-25.4a17.405,17.405,0,0,1-12.318-5.1L5.1,73.1A17.406,17.406,0,0,1,0,60.785v-25.4A17.406,17.406,0,0,1,5.1,23.066L23.066,5.1A17.406,17.406,0,0,1,35.383,0Z" transform="translate(0 0)" fill="#fff"/>
      <path id="Path_23782" data-name="Path 23782" d="M28.472-5h2.048v1.024H27.863L27.833-5Zm4.107,0h2.048v1.024H32.579Zm4.094,0h2.048v1.024H36.673Zm4.094,0h2.048v1.024H40.766Zm4.107,0h2.048v1.024H44.874Zm4.084,0h2.049v1.024H48.957Zm4.124.027a16.8,16.8,0,0,1,2.1.251l-.184,1a15.765,15.765,0,0,0-1.968-.234Zm-27.347.2.167,1a15.779,15.779,0,0,0-1.931.449L23.676-4.3a16.8,16.8,0,0,1,2.059-.472Zm31.491.559a16.814,16.814,0,0,1,1.968.763l-.432.931a15.786,15.786,0,0,0-1.848-.72ZM21.7-3.564l.415.937a15.782,15.782,0,0,0-1.757.917l-.529-.877A16.807,16.807,0,0,1,21.7-3.564ZM61.044-2.443a16.8,16.8,0,0,1,1.714,1.232l-.649.793A15.772,15.772,0,0,0,60.5-1.572ZM18.1-1.385l.636.8A15.786,15.786,0,0,0,17.373.63l-.117.117-.73-.726L16.643-.1A16.816,16.816,0,0,1,18.1-1.385ZM64.287.212l1.449,1.449-.723.723L63.564.935ZM15.083,1.47l.723.723L14.357,3.643l-.726-.726ZM67.2,3.107l1.439,1.449-.723.723L66.466,3.83ZM12.185,4.372l.723.723L11.458,6.545l-.726-.733ZM70.091,6.009l1.449,1.449-.723.723L69.368,6.715ZM9.289,7.261l.723.723L8.563,9.433l-.723-.71ZM72.99,8.9l1.449,1.449-.73.72L72.26,9.617ZM6.381,10.156l.723.723L5.654,12.329l-.723-.723Zm69.5,1.637,1.459,1.449-.736.723-1.446-1.449ZM3.5,13.052l.723.723L2.772,15.224,2.049,14.5Zm75.279,1.637,1.449,1.449-.723.723-1.449-1.443ZM.6,15.947l.723.723-.7.7q-.365.365-.7.75l-.77-.669q.358-.408.746-.8Zm81.06,1.707a16.8,16.8,0,0,1,1.262,1.694l-.857.559a15.775,15.775,0,0,0-1.185-1.59ZM-2.131,19.1l.847.572a15.778,15.778,0,0,0-1,1.71l-.914-.462A16.807,16.807,0,0,1-2.131,19.1Zm86.094,2.069a16.815,16.815,0,0,1,.8,1.955l-.971.335a15.79,15.79,0,0,0-.75-1.834Zm-87.995,1.69.964.335a15.78,15.78,0,0,0-.546,1.931l-1-.218a16.81,16.81,0,0,1,.586-2.032Zm89.341,2.3a16.809,16.809,0,0,1,.285,2.092l-1.021.074a15.777,15.777,0,0,0-.268-1.965ZM-4.933,26.973l1,.09q-.064.7-.064,1.4v.6H-5v-.592q0-.74.067-1.483Zm89.548,2.343h1.024v2.048H84.615ZM-5,31.13h1.024v2.048H-5Zm89.615,2.316h1.024V35.5H84.615ZM-5,35.223h1.024v2.048H-5ZM84.615,37.54h1.024v2.048H84.615ZM-5,39.317h1.024v2.048H-5Zm89.615,2.316h1.024v2.049H84.615ZM-5,43.414h1.024v2.048H-5ZM84.615,45.73h1.024v2.048H84.615ZM-5,47.508h1.024V49.56H-5Zm89.615,2.316h1.024v2.048H84.615ZM-5,51.6h1.024v.549c0,.482.023.967.067,1.446l-1,.094c-.047-.509-.07-1.028-.07-1.543Zm89.521,2.256,1,.11a16.806,16.806,0,0,1-.361,2.079l-1-.238a15.774,15.774,0,0,0,.362-1.948ZM-3.6,55.558a15.782,15.782,0,0,0,.549,1.9l-.964.335A16.81,16.81,0,0,1-4.6,55.769ZM83.6,57.707l.957.361a16.812,16.812,0,0,1-.867,1.925l-.9-.479a15.783,15.783,0,0,0,.81-1.808Zm-85.869,1.56a15.779,15.779,0,0,0,1,1.707l-.847.576a16.806,16.806,0,0,1-1.074-1.818ZM81.75,61.188l.837.589a16.806,16.806,0,0,1-1.322,1.647l-.756-.69A15.778,15.778,0,0,0,81.75,61.2ZM-.043,62.527q.335.368.669.716l.73.73L.633,64.7l-.73-.73q-.372-.372-.716-.763Zm79.135,1.637.723.723-1.449,1.446-.723-.706ZM2.809,65.422l1.449,1.449-.723.723L2.086,66.145ZM76.2,67.059l.723.723L75.47,69.228l-.723-.723ZM5.7,68.317l1.449,1.449-.723.723L4.981,69.04Zm67.6,1.637.723.723-1.449,1.446-.723-.723ZM8.6,71.213l1.449,1.449-.723.723L7.877,71.936ZM70.406,72.85l.723.723L69.68,75.019l-.723-.723ZM11.5,74.108l1.449,1.449-.723.723-1.449-1.449Zm56.016,1.637.723.723-1.449,1.446-.723-.723ZM14.39,77l1.449,1.449-.723.723-1.449-1.449ZM64.622,78.68l.723.723-1.453,1.449-.716-.73.1-.1Zm-47.33,1.259.087.087a15.783,15.783,0,0,0,1.4,1.238l-.633.8a16.815,16.815,0,0,1-1.486-1.319l-.087-.087Zm44.384,1.483.619.813A16.814,16.814,0,0,1,60.538,83.4l-.512-.887a15.771,15.771,0,0,0,1.643-1.111ZM20.4,82.362a15.781,15.781,0,0,0,1.761.91l-.412.937a16.81,16.81,0,0,1-1.874-.971Zm37.85,1,.4.944A16.808,16.808,0,0,1,56.636,85l-.274-.987a15.788,15.788,0,0,0,1.881-.629Zm-34.229.579a15.771,15.771,0,0,0,1.931.442l-.164,1a16.8,16.8,0,0,1-2.059-.472Zm30.419.482.147,1a16.8,16.8,0,0,1-2.1.174l-.02-1.024a15.781,15.781,0,0,0,1.972-.134Zm-26.517.157h2.028v1.024H27.87Zm4.077,0h2.048v1.024H32Zm4.094,0h2.049v1.024H36.09Zm4.094,0h2.048v1.024H40.187Zm4.094,0h2.048v1.024H44.281Zm4.094,0H50.42v1.024H48.371Z" transform="translate(7.788 7.788)" fill="url(#linear-gradient)"/>
      <g id="Group_7099" data-name="Group 7099" transform="translate(14.574 14.775)">
        <g id="Group_7098" data-name="Group 7098" transform="translate(0)">
          <path id="Path_23783" data-name="Path 23783" d="M0,120H6.179v37.419H0Z" transform="translate(51.296 -99.954)" fill="url(#linear-gradient-2)"/>
          <path id="Path_23784" data-name="Path 23784" d="M-8012.274,9668.513l-28.734,57.294h5.73l28.839-57.393Z" transform="translate(8041.008 -9668.35)" fill="url(#linear-gradient-3)"/>
          <path id="Path_23785" data-name="Path 23785" d="M-8035.479,9668.473l22.938,57.383h-6.061s-18.41-42.973-22.726-57.295Z" transform="translate(8070.013 -9668.385)" fill="#f88136"/>
          <path id="Path_23786" data-name="Path 23786" d="M654,448.36s16.184-41.248,59.989-29.509c0,0-39.2-4.756-54.312,29.509Z" transform="translate(-653.987 -390.899)" fill="#f88136" stroke="rgba(0,0,0,0)" stroke-width="1"/>
          <g id="Group_7097" data-name="Group 7097" transform="translate(46.049)">
            <path id="Path_23787" data-name="Path 23787" d="M.65,0A.669.669,0,0,1,1.3.7V6.725a.669.669,0,0,1-.649.7A.669.669,0,0,1,0,6.718V.7A.669.669,0,0,1,.65,0Z" transform="translate(7.709)" fill="#3def65"/>
            <circle id="Ellipse_48" data-name="Ellipse 48" cx="2.263" cy="2.263" r="2.263" transform="translate(6.191 6.517)" fill="#3def65"/>
            <path id="Path_23788" data-name="Path 23788" d="M.67,0a.736.736,0,0,1,.693.69L1.57,6.425A.619.619,0,0,1,.9,7.068a.736.736,0,0,1-.693-.706L0,.645A.619.619,0,0,1,.67,0Z" transform="translate(14.811 3.028) rotate(54)" fill="#3def65"/>
            <path id="Path_23789" data-name="Path 23789" d="M.67,7.067a.736.736,0,0,0,.693-.706L1.57.644A.619.619,0,0,0,.914,0a.736.736,0,0,0-.706.69L0,6.424a.619.619,0,0,0,.669.643Z" transform="translate(7.608 7.18) rotate(126.011)" fill="#3def65"/>
            <path id="Path_23790" data-name="Path 23790" d="M.686,6.9a.7.7,0,0,0,.706-.669L1.483.64A.649.649,0,0,0,.8,0,.7.7,0,0,0,.09.67L0,6.264A.649.649,0,0,0,.686,6.9Z" transform="matrix(0.208, -0.978, 0.978, 0.208, 9.711, 9.754)" fill="#3def65"/>
            <path id="Path_23791" data-name="Path 23791" d="M.641,7.307A.726.726,0,0,0,1.31,6.6L1.5.67A.626.626,0,0,0,.858,0,.726.726,0,0,0,.189.71L0,6.638a.626.626,0,0,0,.639.669Z" transform="matrix(0.891, -0.454, 0.454, 0.891, 8.315, 10.24)" fill="#3def65"/>
            <path id="Path_23792" data-name="Path 23792" d="M.686,0A.7.7,0,0,1,1.392.67l.09,5.593A.649.649,0,0,1,.8,6.9.7.7,0,0,1,.09,6.234L0,.64A.649.649,0,0,1,.686,0Z" transform="translate(0.308 11.19) rotate(-102.007)" fill="#3def65"/>
            <path id="Path_23793" data-name="Path 23793" d="M.641,0A.726.726,0,0,1,1.31.71L1.5,6.638a.626.626,0,0,1-.639.669A.726.726,0,0,1,.189,6.6L0,.67A.626.626,0,0,1,.641,0Z" transform="matrix(-0.891, -0.454, 0.454, -0.891, 5.258, 16.77)" fill="#3def65"/>
            <path id="Path_23794" data-name="Path 23794" d="M6.072,1.436A4.659,4.659,0,1,0,10.711,6.1,4.659,4.659,0,0,0,6.072,1.436M6.072,0A6.1,6.1,0,1,1,0,6.1,6.1,6.1,0,0,1,6.072,0Z" transform="translate(2.378 2.658)" fill="#3def65"/>
          </g>
        </g>
      </g>
    </g>
  </g>
</svg>
