<svg id="IntelOps_icon-light" xmlns="http://www.w3.org/2000/svg" xmlns:xlink="http://www.w3.org/1999/xlink" width="16" height="16" viewBox="0 0 16 16">
  <defs>
    <linearGradient id="linear-gradient" x1="0.309" y1="0.04" x2="0.69" y2="0.962" gradientUnits="objectBoundingBox">
      <stop offset="0" stop-color="#f88136"/>
      <stop offset="0.171" stop-color="#3def65"/>
      <stop offset="0.485" stop-color="#a06ef8"/>
      <stop offset="0.904" stop-color="#3ddeae"/>
      <stop offset="1" stop-color="#efda3d"/>
    </linearGradient>
    <linearGradient id="linear-gradient-2" x1="0.5" y1="0.5" x2="0.5" y2="1" gradientUnits="objectBoundingBox">
      <stop offset="0" stop-color="#3def65"/>
      <stop offset="1" stop-color="#087621"/>
    </linearGradient>
    <linearGradient id="linear-gradient-3" x1="0.912" x2="0.092" y2="0.995" gradientUnits="objectBoundingBox">
      <stop offset="0" stop-color="#0a7a23"/>
      <stop offset="0.196" stop-color="#3def65"/>
      <stop offset="0.66" stop-color="#3def65"/>
      <stop offset="1" stop-color="#036b1b"/>
    </linearGradient>
  </defs>
  <path id="Path_23764" data-name="Path 23764" d="M10.112,0A2.9,2.9,0,0,1,12.16.848l2.991,2.991A2.9,2.9,0,0,1,16,5.888v4.224a2.9,2.9,0,0,1-.849,2.05l-2.99,2.988a2.9,2.9,0,0,1-2.049.85H5.887a2.9,2.9,0,0,1-2.048-.848L.847,12.161A2.9,2.9,0,0,1,0,10.112V5.887a2.9,2.9,0,0,1,.849-2.05L3.837.849A2.9,2.9,0,0,1,5.887,0Z" fill="#fff"/>
  <path id="Path_23765" data-name="Path 23765" d="M.568-5H.909v.17H.467L.46-5Zm.681,0H1.59v.17H1.249ZM1.93-5h.341v.17H1.93Zm.681,0h.341v.17H2.611Zm.681,0h.341v.17H3.292Zm.681,0h.341v.17H3.973Zm.686,0a2.793,2.793,0,0,1,.348.042l-.031.166a2.622,2.622,0,0,0-.327-.039ZM.111-4.962.139-4.8a2.624,2.624,0,0,0-.322.074l-.049-.163A2.8,2.8,0,0,1,.11-4.962Zm5.237.093a2.8,2.8,0,0,1,.327.127L5.6-4.588a2.625,2.625,0,0,0-.3-.121ZM-.56-4.761l.069.156a2.624,2.624,0,0,0-.291.152L-.87-4.6a2.8,2.8,0,0,1,.31-.161Zm6.543.186a2.794,2.794,0,0,1,.285.2l-.108.132a2.623,2.623,0,0,0-.267-.192ZM-1.159-4.4l.105.133a2.625,2.625,0,0,0-.226.2l-.02.019-.12-.12.02-.02A2.8,2.8,0,0,1-1.16-4.4Zm7.682.266.241.241-.12.12L6.4-4.013Zm-8.185.208.12.12-.241.241-.12-.12ZM7-3.653l.241.241-.12.12L6.88-3.533Zm-9.148.208.12.12-.241.241-.12-.118Zm9.632.272.241.241-.12.12-.241-.241Zm-10.112.212.12.12-.241.241-.12-.12Zm10.593.272.241.241-.12.12-.241-.241ZM-3.11-2.481l.12.12-.241.241-.12-.12Zm11.56.272.241.241-.12.12-.241-.24ZM-3.587-2l.12.12-.241.241-.12-.12Zm12.519.272.241.241-.12.12-.241-.241Zm-13,.208.12.12-.116.116q-.061.061-.117.125l-.128-.112q.06-.068.125-.133Zm13.48.284a2.8,2.8,0,0,1,.208.282l-.143.093a2.624,2.624,0,0,0-.2-.264ZM-4.524-1l.141.1a2.624,2.624,0,0,0-.166.284L-4.7-.692a2.8,2.8,0,0,1,.177-.3ZM9.794-.651a2.8,2.8,0,0,1,.133.325l-.161.054a2.625,2.625,0,0,0-.125-.3ZM-4.84-.369l.16.057A2.624,2.624,0,0,0-4.77,0l-.166-.037a2.8,2.8,0,0,1,.1-.332ZM10.017.013a2.8,2.8,0,0,1,.048.348L9.9.373A2.624,2.624,0,0,0,9.85.047ZM-4.99.315l.17.015q-.01.116-.01.233v.1H-5v-.1q0-.125.011-.249ZM9.9.708h.17v.341H9.9Zm-14.9.3h.17v.341H-5Zm14.9.385h.17v.341H9.9Zm-14.9.3h.17V2.03H-5Zm14.9.385h.17v.341H9.9ZM-5,2.37h.17v.341H-5Zm14.9.385h.17V3.1H9.9Zm-14.9.3h.17V3.4H-5ZM9.9,3.44h.17v.341H9.9ZM-5,3.74h.17v.34H-5Zm14.9.385h.17v.341H9.9Zm-14.9.3h.17V4.5a1.768,1.768,0,0,0,.011.241l-.169.016Q-5,4.634-5,4.5ZM9.887,4.8l.169.018a2.794,2.794,0,0,1-.06.346L9.83,5.109a2.623,2.623,0,0,0,.056-.321Zm-14.655.282a2.624,2.624,0,0,0,.091.316l-.16.057a2.8,2.8,0,0,1-.1-.337Zm14.5.357.159.06a2.8,2.8,0,0,1-.145.32l-.15-.08a2.624,2.624,0,0,0,.136-.3ZM-4.547,5.7a2.624,2.624,0,0,0,.166.284l-.141.1a2.8,2.8,0,0,1-.179-.3Zm13.972.319.139.1a2.794,2.794,0,0,1-.22.274l-.125-.115a2.623,2.623,0,0,0,.205-.255Zm-13.6.225q.054.061.112.119l.121.121-.12.12-.121-.121q-.062-.062-.119-.127ZM8.984,6.5l.12.12-.241.241-.12-.12ZM-3.7,6.712l.241.241-.12.12-.241-.241Zm12.2.272.12.12-.241.241-.12-.12Zm-11.723.208.241.241-.12.12-.241-.241ZM8.02,7.464l.12.12-.24.241L7.78,7.7Zm-10.76.208.241.241-.12.12-.241-.241Zm10.278.272.12.12-.241.241-.12-.12Zm-9.8.208.241.241-.12.12-.241-.241Zm9.315.272.12.12-.241.241-.12-.12Zm-8.833.208.241.241-.12.12L-1.9,8.752ZM6.576,8.9l.12.12-.241.241-.119-.122.017-.017Zm-7.871.208.014.014a2.625,2.625,0,0,0,.232.208l-.105.134A2.8,2.8,0,0,1-1.4,9.248h-.014Zm7.381.256.1.135a2.8,2.8,0,0,1-.286.2l-.084-.15a2.623,2.623,0,0,0,.271-.182ZM-.777,9.53a2.625,2.625,0,0,0,.291.152l-.069.156a2.8,2.8,0,0,1-.312-.161Zm6.294.17.066.157a2.8,2.8,0,0,1-.332.115l-.046-.164A2.626,2.626,0,0,0,5.517,9.7Zm-5.692.1a2.622,2.622,0,0,0,.321.073l-.027.166a2.794,2.794,0,0,1-.342-.078Zm5.059.08.025.169a2.794,2.794,0,0,1-.35.029v-.17a2.625,2.625,0,0,0,.327-.027ZM.474,9.9H.813v.17H.468Zm.678,0h.341v.17H1.152Zm.681,0h.341v.17H1.833Zm.681,0h.341v.17H2.516Zm.681,0h.341v.17H3.195Zm.681,0h.341v.17H3.876Z" transform="translate(5.467 5.467)" fill="url(#linear-gradient)"/>
  <g id="Group_7093" data-name="Group 7093" transform="translate(2.399 2.435)">
    <g id="Group_7092" data-name="Group 7092">
      <path id="Path_23766" data-name="Path 23766" d="M0,120H1.034v6.263H0Z" transform="translate(8.584 -116.645)" fill="url(#linear-gradient-2)"/>
      <path id="Path_23767" data-name="Path 23767" d="M-8036.19,9668.43l-4.811,9.593h.959l4.827-9.606Z" transform="translate(8041 -9668.402)" fill="url(#linear-gradient-3)"/>
      <path id="Path_23768" data-name="Path 23768" d="M-8040.34,9668.47l3.84,9.6h-1.016s-3.08-7.193-3.8-9.59Z" transform="translate(8046.123 -9668.456)" fill="#f88136"/>
      <path id="Path_23769" data-name="Path 23769" d="M654,422.04s2.709-6.9,10.042-4.939c0,0-6.562-.794-9.091,4.939Z" transform="translate(-654 -412.422)" fill="#f88136" stroke="rgba(0,0,0,0)" stroke-width="1"/>
      <g id="Group_7091" data-name="Group 7091" transform="translate(7.706)">
        <path id="Path_23770" data-name="Path 23770" d="M.109,0A.113.113,0,0,1,.217.117V1.125a.113.113,0,0,1-.109.117A.113.113,0,0,1,0,1.125V.117A.113.113,0,0,1,.109,0Z" transform="translate(1.291)" fill="#3def65"/>
        <circle id="Ellipse_47" data-name="Ellipse 47" cx="0.379" cy="0.379" r="0.379" transform="translate(1.036 1.091)" fill="#3def65"/>
        <path id="Path_23771" data-name="Path 23771" d="M.11,0A.123.123,0,0,1,.228.116l.035.961a.1.1,0,0,1-.11.107.123.123,0,0,1-.118-.115L0,.108A.1.1,0,0,1,.11,0Z" transform="translate(2.479 0.507) rotate(54)" fill="#3def65"/>
        <path id="Path_23772" data-name="Path 23772" d="M.11,1.183a.123.123,0,0,0,.118-.115L.263.108A.1.1,0,0,0,.153,0,.123.123,0,0,0,.035.116L0,1.076a.1.1,0,0,0,.11.107Z" transform="translate(1.274 1.202) rotate(126.011)" fill="#3def65"/>
        <path id="Path_23773" data-name="Path 23773" d="M.115,1.155a.117.117,0,0,0,.118-.11L.248.107A.109.109,0,0,0,.133,0,.117.117,0,0,0,.015.111L0,1.048a.109.109,0,0,0,.115.107Z" transform="translate(1.626 1.633) rotate(-77.993)" fill="#3def65"/>
        <path id="Path_23774" data-name="Path 23774" d="M.107,1.223A.122.122,0,0,0,.221,1.1L.251.112A.1.1,0,0,0,.144,0,.122.122,0,0,0,.03.119L0,1.111a.1.1,0,0,0,.107.112Z" transform="matrix(0.891, -0.454, 0.454, 0.891, 1.392, 1.714)" fill="#3def65"/>
        <path id="Path_23775" data-name="Path 23775" d="M.115,0A.117.117,0,0,1,.233.111l.015.937a.109.109,0,0,1-.115.107.117.117,0,0,1-.118-.11L0,.107A.109.109,0,0,1,.115,0Z" transform="translate(0.052 1.873) rotate(-102.007)" fill="#3def65"/>
        <path id="Path_23776" data-name="Path 23776" d="M.107,0A.122.122,0,0,1,.221.119l.03.993a.1.1,0,0,1-.107.112A.122.122,0,0,1,.03,1.1L0,.112A.1.1,0,0,1,.107,0Z" transform="matrix(-0.891, -0.454, 0.454, -0.891, 0.88, 2.807)" fill="#3def65"/>
        <path id="Path_23777" data-name="Path 23777" d="M1.016.24a.78.78,0,1,0,.777.78A.78.78,0,0,0,1.016.24m0-.24A1.021,1.021,0,1,1,0,1.021,1.021,1.021,0,0,1,1.016,0Z" transform="translate(0.398 0.445)" fill="#3def65"/>
      </g>
    </g>
  </g>
</svg>
