<svg id="_8A" data-name="8A" xmlns="http://www.w3.org/2000/svg" xmlns:xlink="http://www.w3.org/1999/xlink" width="120.448" height="38.352" viewBox="0 0 120.448 38.352">
  <defs>
    <linearGradient id="linear-gradient" x1="0.309" y1="0.04" x2="0.69" y2="0.962" gradientUnits="objectBoundingBox">
      <stop offset="0" stop-color="#f88136"/>
      <stop offset="0.171" stop-color="#3def65"/>
      <stop offset="0.485" stop-color="#a06ef8"/>
      <stop offset="0.904" stop-color="#3ddeae"/>
      <stop offset="1" stop-color="#efda3d"/>
    </linearGradient>
    <linearGradient id="linear-gradient-2" x1="0.5" y1="0.5" x2="0.5" y2="1" gradientUnits="objectBoundingBox">
      <stop offset="0" stop-color="#3def65"/>
      <stop offset="1" stop-color="#087621"/>
    </linearGradient>
    <linearGradient id="linear-gradient-3" x1="0.912" x2="0.092" y2="0.995" gradientUnits="objectBoundingBox">
      <stop offset="0" stop-color="#0a7a23"/>
      <stop offset="0.196" stop-color="#3def65"/>
      <stop offset="0.66" stop-color="#3def65"/>
      <stop offset="1" stop-color="#036b1b"/>
    </linearGradient>
  </defs>
  <g id="Group_255" data-name="Group 255" transform="translate(0 0.048)">
    <g id="Group_279" data-name="Group 279" transform="translate(91.579 13.115)">
      <path id="ps" d="M-2.057-81.756q1.134-.344,1.934-.557t1.342-.334q.542-.122.851-.167a3.482,3.482,0,0,1,.461-.046,1.465,1.465,0,0,1,.476.076.931.931,0,0,1,.39.258,1.231,1.231,0,0,1,.258.491,2.741,2.741,0,0,1,.091.765q0,.152-.015.6t-.056,1.231q-.041.785-.106,1.924T3.4-74.839l.122.01A24.042,24.042,0,0,1,5.23-78.308a16.123,16.123,0,0,1,1.864-2.547,7.872,7.872,0,0,1,1.889-1.565,3.659,3.659,0,0,1,1.793-.532,2.727,2.727,0,0,1,1.215.258,3.018,3.018,0,0,1,.917.689,3.984,3.984,0,0,1,.653.993,6.955,6.955,0,0,1,.425,1.175,8.635,8.635,0,0,1,.233,1.241,10.507,10.507,0,0,1,.071,1.175,12.185,12.185,0,0,1-.3,2.785,11.244,11.244,0,0,1-.83,2.375,9.277,9.277,0,0,1-1.246,1.929A8.121,8.121,0,0,1,10.355-68.9a6.923,6.923,0,0,1-1.752.891,5.725,5.725,0,0,1-1.838.309,5.341,5.341,0,0,1-1.914-.354A5,5,0,0,1,3.1-69.228q-.111,2.542-.223,5.251T2.754-58.32l-2.127.243-.213-.01Q.566-59.981.7-62.062T.941-66.24q.111-2.1.2-4.127T1.3-74.18q.061-1.782.1-3.236t.035-2.405a4.907,4.907,0,0,0-.041-.674,1.262,1.262,0,0,0-.157-.481.715.715,0,0,0-.339-.289,1.5,1.5,0,0,0-.587-.1,6.265,6.265,0,0,0-.912.081q-.537.081-1.3.273ZM3.19-70.332a6.358,6.358,0,0,0,1.717,1.074,4.568,4.568,0,0,0,1.717.344A4.59,4.59,0,0,0,8.714-69.4a4.587,4.587,0,0,0,1.651-1.433,7.271,7.271,0,0,0,1.084-2.355,12.21,12.21,0,0,0,.39-3.256,9.823,9.823,0,0,0-.106-1.418,6.15,6.15,0,0,0-.334-1.322,2.828,2.828,0,0,0-.6-.972,1.2,1.2,0,0,0-.9-.38,2.613,2.613,0,0,0-1.225.319,5.328,5.328,0,0,0-1.18.861A9,9,0,0,0,6.4-78.08a17.268,17.268,0,0,0-.993,1.545,18.666,18.666,0,0,0-.851,1.681q-.385.866-.674,1.686t-.466,1.55A8.98,8.98,0,0,0,3.19-70.332Zm14.9-1.57a3.055,3.055,0,0,0,.41,1.327,3.057,3.057,0,0,0,.836.912,3.555,3.555,0,0,0,1.1.527,4.351,4.351,0,0,0,1.2.172,3.785,3.785,0,0,0,1.074-.152,3,3,0,0,0,.912-.436,2.2,2.2,0,0,0,.633-.7,1.84,1.84,0,0,0,.238-.932,1.74,1.74,0,0,0-.253-.942,2.9,2.9,0,0,0-.679-.739,5.881,5.881,0,0,0-.987-.618q-.562-.284-1.17-.577l-1.079-.511q-.542-.258-1.048-.562a8.412,8.412,0,0,1-.947-.658,4.569,4.569,0,0,1-.77-.785,3.471,3.471,0,0,1-.517-.962,3.531,3.531,0,0,1-.187-1.18A3.332,3.332,0,0,1,17.1-80a3.705,3.705,0,0,1,.663-1.058,4.7,4.7,0,0,1,.972-.825,6.325,6.325,0,0,1,1.18-.592,7.1,7.1,0,0,1,1.291-.354,7.462,7.462,0,0,1,1.291-.116,6.436,6.436,0,0,1,1.534.177,4.291,4.291,0,0,1,1.266.517,2.764,2.764,0,0,1,.861.825,1.95,1.95,0,0,1,.319,1.094,1.791,1.791,0,0,1-.081.506,1.477,1.477,0,0,1-.273.511,1.558,1.558,0,0,1-.506.4,1.751,1.751,0,0,1-.77.172,3.276,3.276,0,0,1-.891-.132l-.03-.1a3.288,3.288,0,0,0,.2-.6,2.345,2.345,0,0,0,.061-.506,1.369,1.369,0,0,0-.238-.785,1.842,1.842,0,0,0-.572-.522,2.571,2.571,0,0,0-.765-.294,3.887,3.887,0,0,0-.825-.091,3.993,3.993,0,0,0-1.286.192,3.035,3.035,0,0,0-.957.511,2.278,2.278,0,0,0-.6.724,1.821,1.821,0,0,0-.208.841,1.758,1.758,0,0,0,.294,1,3.386,3.386,0,0,0,.78.81,7.471,7.471,0,0,0,1.119.694q.633.324,1.322.648.77.365,1.529.755a7.413,7.413,0,0,1,1.357.886,4.189,4.189,0,0,1,.967,1.139,2.986,2.986,0,0,1,.37,1.514,3.683,3.683,0,0,1-.461,1.853,4.29,4.29,0,0,1-1.231,1.367A5.677,5.677,0,0,1,23.015-68a7.414,7.414,0,0,1-2.071.289,7.911,7.911,0,0,1-1.109-.081,7.44,7.44,0,0,1-1.109-.243,6.577,6.577,0,0,1-1.018-.4,4.012,4.012,0,0,1-.841-.547,2.471,2.471,0,0,1-.567-.689,1.713,1.713,0,0,1-.208-.836,1.259,1.259,0,0,1,.167-.668,1.356,1.356,0,0,1,.441-.446,2.12,2.12,0,0,1,.613-.258,3.181,3.181,0,0,1,.694-.1Z" transform="translate(2.239 83.108)" fill="#4b4b4c"/>
      <path id="ps_-_Outline" data-name="ps - Outline" d="M9.216-84.451a2.9,2.9,0,0,1,1.284.274,3.188,3.188,0,0,1,.964.724,4.159,4.159,0,0,1,.679,1.031,7.144,7.144,0,0,1,.435,1.2,8.834,8.834,0,0,1,.237,1.263,10.713,10.713,0,0,1,.072,1.192,12.4,12.4,0,0,1-.308,2.821,11.453,11.453,0,0,1-.842,2.408,9.477,9.477,0,0,1-1.267,1.962,8.316,8.316,0,0,1-1.585,1.461,7.112,7.112,0,0,1-1.792.911,5.908,5.908,0,0,1-1.888.317,5.522,5.522,0,0,1-1.97-.365,5.008,5.008,0,0,1-1.555-.971c-.069,1.583-.139,3.232-.208,4.907-.074,1.8-.115,3.7-.121,5.651v.139l-2.278.26-.387-.018.013-.162c.1-1.256.2-2.592.283-3.973s.169-2.785.243-4.176.142-2.779.2-4.126.112-2.629.152-3.811.073-2.27.1-3.234.035-1.771.035-2.4a4.776,4.776,0,0,0-.039-.652,1.114,1.114,0,0,0-.136-.422.557.557,0,0,0-.267-.226,1.359,1.359,0,0,0-.525-.083,6.142,6.142,0,0,0-.888.079c-.351.053-.782.144-1.281.27l-.16.04L-3.8-83.208l.137-.041c.754-.229,1.407-.417,1.94-.559s.986-.255,1.348-.336.653-.138.862-.169a3.584,3.584,0,0,1,.484-.047,1.628,1.628,0,0,1,.527.084,1.09,1.09,0,0,1,.455.3,1.39,1.39,0,0,1,.293.553,2.907,2.907,0,0,1,.1.809c0,.1,0,.3-.015.6s-.029.712-.056,1.233-.063,1.169-.106,1.925c-.035.608-.078,1.309-.129,2.091a23.457,23.457,0,0,1,1.5-2.972A16.355,16.355,0,0,1,5.419-82.3a8.063,8.063,0,0,1,1.927-1.6,4.632,4.632,0,0,1,.952-.413A3.235,3.235,0,0,1,9.216-84.451ZM5.206-69.2a5.6,5.6,0,0,0,1.788-.3,6.8,6.8,0,0,0,1.713-.871,8,8,0,0,0,1.525-1.406,9.163,9.163,0,0,0,1.225-1.9,11.139,11.139,0,0,0,.819-2.342,12.085,12.085,0,0,0,.3-2.749,10.4,10.4,0,0,0-.07-1.157,8.518,8.518,0,0,0-.229-1.218,6.83,6.83,0,0,0-.416-1.148,3.846,3.846,0,0,0-.627-.954,2.876,2.876,0,0,0-.869-.653,2.585,2.585,0,0,0-1.146-.242,3.523,3.523,0,0,0-1.716.511,7.754,7.754,0,0,0-1.85,1.534,16.044,16.044,0,0,0-1.845,2.522,24,24,0,0,0-1.7,3.456l-.043.107-.391-.033.01-.154c.067-1.021.123-1.922.167-2.678s.079-1.4.106-1.923.046-.933.056-1.228.015-.493.015-.592a2.6,2.6,0,0,0-.085-.72,1.083,1.083,0,0,0-.223-.43.769.769,0,0,0-.325-.216,1.316,1.316,0,0,0-.425-.068A3.363,3.363,0,0,0,.534-84c-.2.03-.484.085-.839.165s-.807.192-1.336.333c-.5.132-1.1.3-1.793.514l.091.449c.442-.108.829-.188,1.152-.237a6.448,6.448,0,0,1,.935-.083,1.637,1.637,0,0,1,.65.109.872.872,0,0,1,.411.351,1.422,1.422,0,0,1,.178.54,5.085,5.085,0,0,1,.042.7c0,.633-.012,1.444-.035,2.409s-.056,2.054-.1,3.237S-.2-73.051-.259-71.7s-.129,2.736-.2,4.128S-.617-64.777-.7-63.4c-.084,1.323-.175,2.606-.271,3.816l.038,0L1.039-59.8c.008-1.909.049-3.766.121-5.523.074-1.8.149-3.564.223-5.252l.016-.356.252.252a4.872,4.872,0,0,0,1.7,1.139A5.209,5.209,0,0,0,5.206-69.2ZM20.934-84.451a6.622,6.622,0,0,1,1.572.182,4.467,4.467,0,0,1,1.312.536,2.932,2.932,0,0,1,.909.872,2.113,2.113,0,0,1,.345,1.18,1.955,1.955,0,0,1-.087.551,1.64,1.64,0,0,1-.3.566,1.721,1.721,0,0,1-.556.441,1.913,1.913,0,0,1-.838.19h0a3.448,3.448,0,0,1-.934-.138l-.083-.023-.072-.239.023-.053a3.147,3.147,0,0,0,.193-.569,2.2,2.2,0,0,0,.057-.471,1.221,1.221,0,0,0-.209-.7,1.7,1.7,0,0,0-.524-.478,2.427,2.427,0,0,0-.718-.276,3.748,3.748,0,0,0-.792-.088,3.856,3.856,0,0,0-1.236.184,2.894,2.894,0,0,0-.908.484,2.133,2.133,0,0,0-.557.674,1.674,1.674,0,0,0-.19.769,1.611,1.611,0,0,0,.267.911,3.246,3.246,0,0,0,.744.772,7.348,7.348,0,0,0,1.1.679c.418.214.862.432,1.317.646.513.243,1.029.5,1.534.757a7.6,7.6,0,0,1,1.386.905,4.365,4.365,0,0,1,1,1.182,3.154,3.154,0,0,1,.391,1.592,4.246,4.246,0,0,1-.12,1.023,3.587,3.587,0,0,1-.361.908,4.466,4.466,0,0,1-1.275,1.417,5.859,5.859,0,0,1-1.816.869,7.605,7.605,0,0,1-2.115.295,8.1,8.1,0,0,1-1.131-.083,7.633,7.633,0,0,1-1.132-.248,6.764,6.764,0,0,1-1.042-.41,4.187,4.187,0,0,1-.873-.569,2.638,2.638,0,0,1-.6-.732,1.876,1.876,0,0,1-.227-.911,1.418,1.418,0,0,1,.19-.75,1.517,1.517,0,0,1,.491-.5,2.286,2.286,0,0,1,.658-.278,3.354,3.354,0,0,1,.728-.1l.061,0,.174.153.006.062A2.914,2.914,0,0,0,17.073-72a2.915,2.915,0,0,0,.793.865,3.416,3.416,0,0,0,1.051.5,4.215,4.215,0,0,0,1.157.166A3.646,3.646,0,0,0,21.1-70.61a2.858,2.858,0,0,0,.864-.412,2.051,2.051,0,0,0,.588-.649,1.693,1.693,0,0,0,.217-.854,1.594,1.594,0,0,0-.229-.859,2.758,2.758,0,0,0-.642-.7,5.752,5.752,0,0,0-.961-.6c-.372-.188-.765-.381-1.167-.576l-1.078-.511c-.364-.174-.721-.365-1.061-.569a8.609,8.609,0,0,1-.965-.671,4.747,4.747,0,0,1-.8-.812,3.644,3.644,0,0,1-.54-1.005,3.7,3.7,0,0,1-.2-1.232,3.5,3.5,0,0,1,.255-1.346,3.879,3.879,0,0,1,.691-1.1,4.874,4.874,0,0,1,1-.853A6.511,6.511,0,0,1,18.3-83.97a7.29,7.29,0,0,1,1.32-.362A7.654,7.654,0,0,1,20.934-84.451Zm2.348,4.2a1.6,1.6,0,0,0,.7-.155,1.41,1.41,0,0,0,.456-.359,1.328,1.328,0,0,0,.245-.457,1.644,1.644,0,0,0,.075-.462,1.8,1.8,0,0,0-.293-1.008,2.621,2.621,0,0,0-.813-.779,4.155,4.155,0,0,0-1.22-.5,6.309,6.309,0,0,0-1.5-.173,7.34,7.34,0,0,0-1.264.114,6.975,6.975,0,0,0-1.263.347,6.2,6.2,0,0,0-1.151.578,4.561,4.561,0,0,0-.94.8,3.566,3.566,0,0,0-.635,1.014,3.191,3.191,0,0,0-.231,1.226,3.391,3.391,0,0,0,.178,1.128,3.33,3.33,0,0,0,.493.919,4.433,4.433,0,0,0,.743.758,8.293,8.293,0,0,0,.929.646c.332.2.68.386,1.035.555l1.078.511h0c.4.2.8.39,1.172.578a6.066,6.066,0,0,1,1.014.634,3.069,3.069,0,0,1,.715.78,1.9,1.9,0,0,1,.277,1.025,2,2,0,0,1-.259,1.01,2.363,2.363,0,0,1-.678.748,3.17,3.17,0,0,1-.959.459,3.959,3.959,0,0,1-1.118.158,4.529,4.529,0,0,1-1.243-.178,3.728,3.728,0,0,1-1.147-.55,3.227,3.227,0,0,1-.878-.958,3.185,3.185,0,0,1-.425-1.32,3.033,3.033,0,0,0-.588.089,1.973,1.973,0,0,0-.568.239,1.206,1.206,0,0,0-.39.395,1.112,1.112,0,0,0-.144.587,1.566,1.566,0,0,0,.188.76,2.326,2.326,0,0,0,.532.645,3.875,3.875,0,0,0,.808.525,6.451,6.451,0,0,0,.994.39,7.317,7.317,0,0,0,1.086.238,7.791,7.791,0,0,0,1.087.079,7.292,7.292,0,0,0,2.028-.282,5.547,5.547,0,0,0,1.719-.822,4.154,4.154,0,0,0,1.186-1.318,3.545,3.545,0,0,0,.44-1.776,2.846,2.846,0,0,0-.349-1.436,4.052,4.052,0,0,0-.931-1.1,7.291,7.291,0,0,0-1.329-.867c-.5-.258-1.016-.511-1.525-.752-.458-.216-.9-.434-1.326-.65a7.661,7.661,0,0,1-1.143-.709,3.557,3.557,0,0,1-.815-.848,1.92,1.92,0,0,1-.32-1.085,1.984,1.984,0,0,1,.225-.912,2.444,2.444,0,0,1,.638-.774,3.2,3.2,0,0,1,1.006-.539,4.167,4.167,0,0,1,1.337-.2,4.062,4.062,0,0,1,.859.095,2.74,2.74,0,0,1,.811.312,2.006,2.006,0,0,1,.62.566,1.528,1.528,0,0,1,.267.873v0a2.513,2.513,0,0,1-.065.54,3.319,3.319,0,0,1-.176.542A3.06,3.06,0,0,0,23.282-80.248ZM8.345-82.031a1.361,1.361,0,0,1,1.009.427,3,3,0,0,1,.632,1.025,6.336,6.336,0,0,1,.343,1.355,10.026,10.026,0,0,1,.108,1.441,14.89,14.89,0,0,1-.1,1.759,10.384,10.384,0,0,1-.3,1.539,8.777,8.777,0,0,1-.475,1.314,6.4,6.4,0,0,1-.634,1.091,5.169,5.169,0,0,1-.784.86,4.482,4.482,0,0,1-.924.621,4.614,4.614,0,0,1-1.037.374,5.028,5.028,0,0,1-1.125.124,4.744,4.744,0,0,1-1.775-.356,6.543,6.543,0,0,1-1.76-1.1l-.062-.053.007-.081A9.178,9.178,0,0,1,1.706-73c.119-.489.277-1.015.47-1.565s.421-1.119.678-1.7a18.909,18.909,0,0,1,.858-1.7,17.507,17.507,0,0,1,1-1.559,9.2,9.2,0,0,1,1.118-1.293,5.509,5.509,0,0,1,1.215-.886A2.78,2.78,0,0,1,8.345-82.031ZM5.064-70.414a4.456,4.456,0,0,0,2.021-.464,4.452,4.452,0,0,0,1.595-1.385,7.149,7.149,0,0,0,1.059-2.3,12.112,12.112,0,0,0,.384-3.214,9.711,9.711,0,0,0-.1-1.4,6.023,6.023,0,0,0-.325-1.288,2.686,2.686,0,0,0-.564-.919,1.045,1.045,0,0,0-.784-.332,2.47,2.47,0,0,0-1.153.3,5.2,5.2,0,0,0-1.145.836,8.884,8.884,0,0,0-1.08,1.249,17.194,17.194,0,0,0-.984,1.53,18.6,18.6,0,0,0-.844,1.667c-.254.571-.479,1.134-.669,1.675s-.345,1.056-.461,1.535a9.174,9.174,0,0,0-.216,1.182,6.16,6.16,0,0,0,1.611,1A4.433,4.433,0,0,0,5.064-70.414Z" transform="translate(3.798 84.451)" fill="#4b4b4c"/>
    </g>
    <path id="Intel" d="M13.394-141.548c0-.326-.016-.923-.047-1.156a1.179,1.179,0,0,0-.214-.568.936.936,0,0,0-.474-.318,2.744,2.744,0,0,0-.818-.1q-.344,0-.844.036t-1.042.12l-.1-.864q1.531-.4,2.63-.583a11.2,11.2,0,0,1,1.817-.187,2.451,2.451,0,0,1,1.057.182,1.14,1.14,0,0,1,.542.542,2.364,2.364,0,0,1,.2.88q.031.521.031,1.187,0,.229-.026,1.224t-.073,2.552q-.047,1.557-.109,3.578t-.13,4.3q-.068,2.276-.141,4.7t-.146,4.8l-2.468.312-.187.085c.083-1.993.158-3.985.224-5.766s.123-3.513.172-5.2.085-3.35.109-5S13.394-139.812,13.394-141.548Zm8.393,8.348a3.5,3.5,0,0,0-.062-.719,1.167,1.167,0,0,0-.193-.463.714.714,0,0,0-.328-.245,1.356,1.356,0,0,0-.469-.073,4.669,4.669,0,0,0-.9.1q-.521.1-1.187.281l-.156-.75q.739-.26,1.422-.474t1.255-.37q.573-.156,1.01-.24a3.913,3.913,0,0,1,.687-.083,1.232,1.232,0,0,1,.943.359,1.785,1.785,0,0,1,.338,1.234q0,.1-.021.484t-.057.963q-.036.583-.089,1.338t-.12,1.609q-.068.854-.151,1.765t-.177,1.817l.062.01a29.111,29.111,0,0,1,1.7-4.536,15.754,15.754,0,0,1,1.844-3,6.625,6.625,0,0,1,1.864-1.661,3.679,3.679,0,0,1,1.771-.51,2.976,2.976,0,0,1,1.125.219,2.551,2.551,0,0,1,.963.7,3.514,3.514,0,0,1,.672,1.234,5.857,5.857,0,0,1,.25,1.828q0,.312-.036.838t-.089,1.172q-.052.646-.12,1.37t-.12,1.422q-.052.7-.089,1.328t-.036,1.1a10.438,10.438,0,0,0,.068,1.323,2.453,2.453,0,0,0,.224.807.842.842,0,0,0,.417.406,1.641,1.641,0,0,0,.635.109,4.483,4.483,0,0,0,1.125-.151,7.166,7.166,0,0,0,1.177-.422l.2.542a6.423,6.423,0,0,1-.948.615,12.393,12.393,0,0,1-1.2.573,9.526,9.526,0,0,1-1.255.422,4.482,4.482,0,0,1-1.1.161,1.245,1.245,0,0,1-.885-.3,1.848,1.848,0,0,1-.484-.823,5.35,5.35,0,0,1-.208-1.219q-.047-.7-.047-1.5,0-.979.068-2.015t.151-1.974q.083-.937.151-1.7t.068-1.224a2.878,2.878,0,0,0-.458-1.8,1.477,1.477,0,0,0-1.219-.578,2.122,2.122,0,0,0-1.271.51,7.02,7.02,0,0,0-1.328,1.4,14.271,14.271,0,0,0-1.271,2.1,21.669,21.669,0,0,0-1.1,2.625,24.042,24.042,0,0,0-.812,2.953,20.386,20.386,0,0,0-.406,3.083l-2.177.271-.167-.01q.083-.989.156-2.156t.135-2.369q.062-1.2.109-2.385t.083-2.208q.036-1.026.052-1.838T21.788-133.2ZM43.5-143.845q-.437,1.979-.734,4.088t-.505,4.161q.49.021.953.031l.864.021q.4.01.729.01h.547a8.592,8.592,0,0,0,1.552-.115q.052.177.083.323a1.3,1.3,0,0,1,.031.271.564.564,0,0,1-.38.594,3.437,3.437,0,0,1-1.1.135q-.687,0-1.536-.083t-1.859-.156q-.115,1.114-.193,2.172t-.125,1.995q-.047.937-.068,1.739t-.021,1.4a15.456,15.456,0,0,0,.115,1.989,4.923,4.923,0,0,0,.406,1.484,2.187,2.187,0,0,0,.8.932,2.375,2.375,0,0,0,1.291.323,4.611,4.611,0,0,0,1.255-.2,9.59,9.59,0,0,0,1.578-.635,1.1,1.1,0,0,1,.323.687q-.646.427-1.3.776a12.507,12.507,0,0,1-1.291.6,8.568,8.568,0,0,1-1.229.385,5.065,5.065,0,0,1-1.125.135,3.125,3.125,0,0,1-1.276-.255,2.329,2.329,0,0,1-1-.906,5.246,5.246,0,0,1-.656-1.755,13.793,13.793,0,0,1-.234-2.791q0-.948.031-1.953t.083-2.036q.052-1.031.135-2.062t.187-2.031q-.823.01-1.526.068a7.569,7.569,0,0,0-1.2.182.322.322,0,0,1-.031-.146.555.555,0,0,1,.214-.411,2.044,2.044,0,0,1,.594-.349,4.9,4.9,0,0,1,.911-.26,9.217,9.217,0,0,1,1.167-.146q.24-2.177.51-4.114t.542-3.458a1.016,1.016,0,0,1,.193-.448,1.1,1.1,0,0,1,.328-.281,1.352,1.352,0,0,1,.406-.146,2.281,2.281,0,0,1,.427-.042,2.428,2.428,0,0,1,.62.073A2.167,2.167,0,0,1,43.5-143.845Zm15.635,19.289q.063.031.161.089a1.4,1.4,0,0,1,.182.125.965.965,0,0,1,.146.146.245.245,0,0,1,.062.151.138.138,0,0,1-.031.083,8.592,8.592,0,0,1-1.255,1.411,7.73,7.73,0,0,1-1.4,1,6.243,6.243,0,0,1-1.474.594,5.927,5.927,0,0,1-1.479.193,5.136,5.136,0,0,1-2.291-.51,5.488,5.488,0,0,1-1.791-1.4,6.567,6.567,0,0,1-1.172-2.078,7.613,7.613,0,0,1-.422-2.557,10.363,10.363,0,0,1,.245-2.229,10.461,10.461,0,0,1,.708-2.125,9.789,9.789,0,0,1,1.13-1.88,7.9,7.9,0,0,1,1.515-1.51,7.005,7.005,0,0,1,1.864-1.005,6.411,6.411,0,0,1,2.182-.365,5.108,5.108,0,0,1,1.469.208,3.906,3.906,0,0,1,1.224.6,2.94,2.94,0,0,1,.838.963,2.674,2.674,0,0,1,.312,1.3,2.727,2.727,0,0,1-.693,1.854,5.516,5.516,0,0,1-1.911,1.344,13.589,13.589,0,0,1-2.869.891,31.287,31.287,0,0,1-3.567.505v.177a8.288,8.288,0,0,0,.338,2.437,6.05,6.05,0,0,0,.932,1.89,4.359,4.359,0,0,0,1.4,1.224,3.554,3.554,0,0,0,1.729.437,4.493,4.493,0,0,0,1.922-.463A7.022,7.022,0,0,0,59.138-124.556ZM57.18-132.92a2.457,2.457,0,0,0-.161-.9,2.231,2.231,0,0,0-.448-.724,2.087,2.087,0,0,0-.682-.484,2.067,2.067,0,0,0-.854-.177,3.056,3.056,0,0,0-1.229.24,3.422,3.422,0,0,0-.989.651,4.573,4.573,0,0,0-.771.958,7.057,7.057,0,0,0-.568,1.161,9.25,9.25,0,0,0-.38,1.26,10.585,10.585,0,0,0-.208,1.26,18.708,18.708,0,0,0,2.651-.359,8.573,8.573,0,0,0,1.979-.656,3.454,3.454,0,0,0,1.234-.958A2.041,2.041,0,0,0,57.18-132.92Zm8.8-16.257q-.208,1.771-.411,3.63t-.385,3.76q-.182,1.9-.338,3.817t-.271,3.776q-.115,1.859-.177,3.651t-.062,3.437q0,1.031.026,1.771t.083,1.25a4.458,4.458,0,0,0,.156.823,1.339,1.339,0,0,0,.245.479.716.716,0,0,0,.344.224,1.7,1.7,0,0,0,.469.057,4.28,4.28,0,0,0,1.078-.151,7.23,7.23,0,0,0,1.172-.422l.2.542a6.534,6.534,0,0,1-.943.615,12.2,12.2,0,0,1-1.193.573,9.859,9.859,0,0,1-1.224.422,4.07,4.07,0,0,1-1.036.161,1.307,1.307,0,0,1-.891-.286,1.835,1.835,0,0,1-.5-.932,8.177,8.177,0,0,1-.219-1.682q-.047-1.036-.047-2.526,0-.542.031-1.547t.089-2.338q.057-1.333.13-2.916t.156-3.276q.083-1.692.177-3.416t.187-3.333q.094-1.609.177-3.036t.156-2.521A.76.76,0,0,1,63.3-149a.988.988,0,0,1,.349-.292,1.81,1.81,0,0,1,.479-.161,2.78,2.78,0,0,1,.536-.052A3.01,3.01,0,0,1,65.978-149.176Z" transform="translate(-9.853 149.51)" fill="#4b4b4c"/>
  </g>
  <g id="Group_384" data-name="Group 384" transform="translate(60.475)">
    <g id="Group_379" data-name="Group 379">
      <path id="Polygon_14" data-name="Polygon 14" d="M18.16,0a5.2,5.2,0,0,1,3.68,1.524l5.367,5.367a5.2,5.2,0,0,1,1.524,3.68V18.16a5.2,5.2,0,0,1-1.525,3.681L21.84,27.207a5.2,5.2,0,0,1-3.68,1.524H10.571a5.2,5.2,0,0,1-3.68-1.524L1.524,21.84A5.2,5.2,0,0,1,0,18.16V10.571a5.2,5.2,0,0,1,1.524-3.68L6.891,1.524A5.2,5.2,0,0,1,10.571,0Z" fill="#4b4b4c"/>
      <path id="Polygon_14-2" data-name="Polygon 14" d="M5-5v0h.612v.306H5q-.091,0-.182,0L4.809-5Q4.906-5,5-5ZM6.227-5h.612v.306H6.227ZM7.45-5h.612v.306H7.45ZM8.673-5h.612v.306H8.673ZM9.9-5h.612v.306H9.9ZM11.12-5h.612v.306H11.12Zm1.232.008a5.018,5.018,0,0,1,.626.075l-.055.3a4.71,4.71,0,0,0-.588-.07Zm-8.17.06.05.3a4.714,4.714,0,0,0-.577.134l-.088-.293A5.02,5.02,0,0,1,4.182-4.932Zm9.408.167a5.023,5.023,0,0,1,.588.228l-.129.278a4.716,4.716,0,0,0-.552-.215ZM2.976-4.571l.124.28a4.715,4.715,0,0,0-.525.274l-.158-.262A5.021,5.021,0,0,1,2.976-4.571Zm11.755.335a5.02,5.02,0,0,1,.512.368l-.194.237a4.712,4.712,0,0,0-.481-.345ZM1.9-3.92l.19.24a4.716,4.716,0,0,0-.406.362l-.035.035L1.431-3.5l.035-.035A5.024,5.024,0,0,1,1.9-3.92Zm13.8.477.433.433-.216.216-.433-.433ZM1-3.067l.216.216-.433.433L.566-2.635Zm15.57.489L17-2.145l-.216.216-.433-.433ZM.134-2.2l.216.216-.433.433L-.3-1.77Zm17.3.489.433.433-.216.216L17.218-1.5ZM-.731-1.337l.216.216-.433.433L-1.164-.9ZM18.3-.848l.433.433L18.515-.2l-.433-.433ZM-1.6-.472l.216.216-.433.433-.216-.216ZM19.164.017,19.6.45,19.38.666,18.948.233ZM-2.461.393l.216.216-.433.433L-2.894.826ZM20.029.882l.433.433-.216.216L19.813,1.1Zm-23.356.376.216.216-.209.209q-.109.109-.21.224l-.23-.2q.107-.122.223-.238Zm24.217.51a5.02,5.02,0,0,1,.377.506l-.256.167a4.713,4.713,0,0,0-.354-.475ZM-4.143,2.2l.253.171a4.714,4.714,0,0,0-.3.511l-.273-.138A5.021,5.021,0,0,1-4.143,2.2Zm25.721.618a5.023,5.023,0,0,1,.239.584l-.29.1a4.716,4.716,0,0,0-.224-.548Zm-26.289.505.288.1A4.714,4.714,0,0,0-4.586,4l-.3-.065A5.022,5.022,0,0,1-4.711,3.328Zm26.691.687a5.021,5.021,0,0,1,.085.625l-.305.022a4.714,4.714,0,0,0-.08-.587Zm-26.96.542.3.027q-.019.208-.019.419v.179H-5V5Q-5,4.779-4.98,4.557Zm26.753.7h.306v.612h-.306ZM-5,5.794h.306v.612H-5Zm26.773.692h.306V7.1h-.306ZM-5,7.017h.306v.612H-5Zm26.773.692h.306v.612h-.306ZM-5,8.24h.306v.612H-5Zm26.773.692h.306v.612h-.306ZM-5,9.464h.306v.612H-5Zm26.773.692h.306v.612h-.306ZM-5,10.687h.306V11.3H-5Zm26.773.692h.306v.612h-.306ZM-5,11.91h.306v.164c0,.144.007.289.02.432l-.3.028c-.014-.152-.021-.307-.021-.461Zm26.745.674.3.033a5.02,5.02,0,0,1-.108.621l-.3-.071A4.713,4.713,0,0,0,21.745,12.585Zm-26.327.508a4.715,4.715,0,0,0,.164.569l-.288.1a5.022,5.022,0,0,1-.175-.606Zm26.053.642.286.108a5.022,5.022,0,0,1-.259.575l-.27-.143A4.716,4.716,0,0,0,21.47,13.734ZM-4.183,14.2a4.714,4.714,0,0,0,.3.51l-.253.172a5.021,5.021,0,0,1-.321-.543Zm25.1.574.25.176a5.02,5.02,0,0,1-.395.492l-.226-.206A4.713,4.713,0,0,0,20.917,14.778Zm-24.436.4q.1.11.2.214l.218.218-.216.216-.218-.218q-.111-.111-.214-.228Zm23.642.489.216.216-.433.432L19.69,16.1Zm-22.79.376.433.433-.216.216-.433-.433Zm21.925.489.216.216-.433.432-.216-.216Zm-21.06.376.433.433-.216.216-.433-.433Zm20.195.489.216.216-.433.432-.216-.216Zm-19.33.376.433.433-.216.216-.433-.433Zm18.465.489.216.216-.433.432-.216-.216Zm-17.6.376.433.433-.216.216-.433-.433Zm16.735.489.216.216-.433.432-.216-.216Zm-15.87.376.433.433-.216.216-.433-.433ZM15.8,20l.216.216-.434.433-.214-.218.031-.03Zm-14.14.376.026.026a4.716,4.716,0,0,0,.417.37l-.189.24a5.023,5.023,0,0,1-.444-.394l-.026-.026Zm13.26.443.185.243a5.021,5.021,0,0,1-.525.349l-.153-.265A4.713,4.713,0,0,0,14.918,20.814ZM2.587,21.1a4.715,4.715,0,0,0,.526.272l-.123.28a5.022,5.022,0,0,1-.56-.29Zm11.308.3.119.282a5.022,5.022,0,0,1-.6.207l-.082-.295A4.717,4.717,0,0,0,13.894,21.406Zm-10.226.173a4.711,4.711,0,0,0,.577.132l-.049.3a5.02,5.02,0,0,1-.615-.141Zm9.088.144.044.3a5.02,5.02,0,0,1-.628.052l-.006-.306A4.715,4.715,0,0,0,12.756,21.723Zm-7.922.047q.084,0,.169,0h.437v.306H5q-.09,0-.18,0Zm1.218,0h.612v.306H6.053Zm1.223,0h.612v.306H7.276Zm1.223,0h.612v.306H8.5Zm1.223,0h.612v.306H9.723Zm1.223,0h.612v.306h-.612Z" transform="translate(5.833 5.833)" fill="url(#linear-gradient)"/>
    </g>
    <g id="Group_404" data-name="Group 404" transform="translate(4.358 4.414)">
      <g id="Group_395" data-name="Group 395" transform="translate(0 0)">
        <path id="Path_198" data-name="Path 198" d="M0,120H1.846v11.179H0Z" transform="translate(15.321 -114.011)" fill="url(#linear-gradient-2)"/>
        <path id="Path_196" data-name="Path 196" d="M-8032.416,9668.441l-8.584,17.117h1.712l8.615-17.146Z" transform="translate(8041 -9668.392)" fill="url(#linear-gradient-3)"/>
        <path id="Path_197" data-name="Path 197" d="M-8039.579,9668.467l6.853,17.144h-1.811s-5.5-12.838-6.789-17.117Z" transform="translate(8049.893 -9668.443)" fill="#f88136"/>
        <path id="Shape_2" data-name="Shape 2" d="M654,426.193s4.835-12.323,17.922-8.816c0,0-11.711-1.421-16.226,8.816Z" transform="translate(-654 -409.026)" fill="#f88136" stroke="rgba(0,0,0,0)" stroke-width="1"/>
        <g id="Group_394" data-name="Group 394" transform="translate(13.754)">
          <path id="Path_33" data-name="Path 33" d="M.194,0A.2.2,0,0,1,.387.209v1.8a.2.2,0,0,1-.194.209A.2.2,0,0,1,0,2.007V.209A.2.2,0,0,1,.194,0Z" transform="translate(2.303 0)" fill="#3def65"/>
          <circle id="Ellipse_25" data-name="Ellipse 25" cx="0.676" cy="0.676" r="0.676" transform="translate(1.849 1.947)" fill="#3def65"/>
          <path id="Path_34" data-name="Path 34" d="M.2,0A.22.22,0,0,1,.407.206L.469,1.919a.185.185,0,0,1-.2.192A.22.22,0,0,1,.062,1.9L0,.192A.185.185,0,0,1,.2,0Z" transform="translate(4.424 0.905) rotate(54)" fill="#3def65"/>
          <path id="Path_35" data-name="Path 35" d="M.2,2.111A.22.22,0,0,0,.407,1.9L.469.192A.185.185,0,0,0,.273,0,.22.22,0,0,0,.062.206L0,1.919A.185.185,0,0,0,.2,2.111Z" transform="matrix(-0.588, 0.809, -0.809, -0.588, 2.272, 2.145)" fill="#3def65"/>
          <path id="Path_36" data-name="Path 36" d="M.205,2.062a.209.209,0,0,0,.211-.2L.443.191A.194.194,0,0,0,.238,0,.209.209,0,0,0,.027.2L0,1.871A.194.194,0,0,0,.205,2.062Z" transform="translate(2.901 2.914) rotate(-78)" fill="#3def65"/>
          <path id="Path_38" data-name="Path 38" d="M.191,2.183a.217.217,0,0,0,.2-.212L.447.2A.187.187,0,0,0,.256,0a.217.217,0,0,0-.2.212L0,1.983A.187.187,0,0,0,.191,2.183Z" transform="matrix(0.891, -0.454, 0.454, 0.891, 2.484, 3.059)" fill="#3def65"/>
          <path id="Path_37" data-name="Path 37" d="M.205,0A.209.209,0,0,1,.416.2L.443,1.871a.194.194,0,0,1-.205.191.209.209,0,0,1-.211-.2L0,.191A.194.194,0,0,1,.205,0Z" transform="matrix(-0.208, -0.978, 0.978, -0.208, 0.092, 3.343)" fill="#3def65"/>
          <path id="Path_39" data-name="Path 39" d="M.191,0a.217.217,0,0,1,.2.212L.447,1.983a.187.187,0,0,1-.191.2.217.217,0,0,1-.2-.212L0,.2A.187.187,0,0,1,.191,0Z" transform="matrix(-0.891, -0.454, 0.454, -0.891, 1.57, 5.01)" fill="#3def65"/>
          <path id="Path_40" data-name="Path 40" d="M1.814.429A1.392,1.392,0,1,0,3.2,1.822,1.391,1.391,0,0,0,1.814.429m0-.429A1.822,1.822,0,1,1,0,1.822,1.818,1.818,0,0,1,1.814,0Z" transform="translate(0.71 0.794)" fill="#3def65"/>
        </g>
      </g>
    </g>
  </g>
</svg>
